<svg width="401" height="600" fill="none" xmlns="http://www.w3.org/2000/svg"><rect x=".169" width="400" height="600" rx="12" fill="#E8E8E8"/><path d="M22.913 22.464c2.048 0 3.632.432 4.752 1.296 1.12.848 1.68 2.12 1.68 3.816 0 1.808-.584 3.152-1.752 4.032-1.168.88-2.72 1.32-4.656 1.32h-2.088V39h-2.28V22.464h4.344zm-.072 8.664c1.328 0 2.336-.256 3.024-.768.704-.512 1.056-1.432 1.056-2.76 0-1.184-.352-2.04-1.056-2.568-.688-.528-1.68-.792-2.976-.792h-2.04v6.888h1.992zm16.76 4.92c0 .512.089.896.265 1.152.176.24.44.424.792.552l-.504 1.536c-.656-.08-1.184-.264-1.584-.552-.4-.288-.696-.736-.888-1.344-.848 1.264-2.104 1.896-3.768 1.896-1.248 0-2.232-.352-2.952-1.056-.72-.704-1.08-1.624-1.08-2.76 0-1.344.48-2.376 1.44-3.096.976-.72 2.352-1.08 4.128-1.08h1.944v-.936c0-.896-.216-1.536-.648-1.92-.432-.384-1.096-.576-1.992-.576-.928 0-2.064.224-3.408.672l-.552-1.608c1.568-.576 3.024-.864 4.368-.864 1.488 0 2.6.368 3.336 1.104.736.72 1.104 1.752 1.104 3.096v5.784zm-5.183 1.584c1.264 0 2.256-.656 2.976-1.968V32.76h-1.656c-2.336 0-3.504.864-3.504 2.592 0 .752.184 1.32.552 1.704.368.384.912.576 1.632.576zm12.838-11.568c.8 0 1.544.136 2.232.408.704.256 1.264.64 1.68 1.152.432.512.648 1.128.648 1.848 0 .704-.208 1.28-.624 1.728-.4.448-1.04.792-1.92 1.032 1.056.176 1.856.504 2.4.984.544.48.816 1.168.816 2.064 0 1.312-.512 2.312-1.536 3-1.008.672-2.296 1.008-3.864 1.008-1.904 0-3.528-.528-4.872-1.584l1.152-1.368c.56.4 1.12.696 1.68.888.576.192 1.232.288 1.968.288 2.064 0 3.096-.752 3.096-2.256 0-.736-.296-1.248-.888-1.536-.576-.304-1.384-.456-2.424-.456h-1.68l.144-1.728h1.296c.896 0 1.616-.16 2.16-.48.544-.32.816-.816.816-1.488 0-.624-.232-1.072-.696-1.344-.464-.288-1.072-.432-1.824-.432-.656 0-1.24.088-1.752.264-.496.16-1 .416-1.512.768l-1.056-1.32c.64-.48 1.328-.84 2.064-1.08.736-.24 1.568-.36 2.496-.36zm15.552 6.072c2.144.208 3.216 1.2 3.216 2.976 0 1.328-.488 2.312-1.464 2.952-.96.624-2.248.936-3.864.936h-4.56V26.52c1.488-.304 2.872-.456 4.152-.456 1.568 0 2.808.296 3.72.888.912.592 1.368 1.44 1.368 2.544 0 .72-.216 1.304-.648 1.752-.432.448-1.072.744-1.92.888zm-2.496-4.368c-.672 0-1.328.048-1.968.144v3.576h2.376c.768 0 1.36-.144 1.776-.432.416-.288.624-.776.624-1.464 0-.64-.232-1.104-.696-1.392-.464-.288-1.168-.432-2.112-.432zm.384 9.504c.944 0 1.68-.16 2.208-.48.528-.32.792-.896.792-1.728 0-.688-.224-1.184-.672-1.488-.448-.304-1.208-.456-2.28-.456h-2.4v4.152h2.352zM79.523 39H77.34v-5.712c0-.96.032-1.872.096-2.736.064-.864.12-1.432.168-1.704L72.3 39h-2.616V26.352h2.184v5.712c0 .848-.032 1.728-.096 2.64a43.53 43.53 0 01-.144 1.728l5.232-10.08h2.664V39zm13.095-12.648l-.264 1.8h-4.056V39H86.09V28.152h-4.176v-1.8h10.704zM104.742 39h-2.184v-5.712c0-.96.032-1.872.096-2.736.064-.864.12-1.432.168-1.704L97.518 39h-2.616V26.352h2.184v5.712c0 .848-.032 1.728-.096 2.64a43.53 43.53 0 01-.144 1.728l5.232-10.08h2.664V39zm14.103-6.696c0 .368-.016.744-.048 1.128h-8.064c.096 1.392.448 2.416 1.056 3.072.608.656 1.392.984 2.352.984.608 0 1.168-.088 1.68-.264.512-.176 1.048-.456 1.608-.84l.96 1.32c-1.344 1.056-2.816 1.584-4.416 1.584-1.76 0-3.136-.576-4.128-1.728-.976-1.152-1.464-2.736-1.464-4.752 0-1.312.208-2.472.624-3.48.432-1.024 1.04-1.824 1.824-2.4.8-.576 1.736-.864 2.808-.864 1.68 0 2.968.552 3.864 1.656.896 1.104 1.344 2.632 1.344 4.584zm-2.184-.648c0-1.248-.248-2.2-.744-2.856-.496-.656-1.24-.984-2.232-.984-1.808 0-2.792 1.328-2.952 3.984h5.928v-.144zm22.213 5.568V42.6h-1.8l-.36-3.6h-8.112l-.36 3.6h-1.8v-5.376h.888c.384-.256.688-.544.912-.864.224-.336.424-.912.6-1.728.192-.816.344-2.008.456-3.576l.336-4.704h7.92v10.872h1.32zm-3.528-9.12h-3.72l-.192 2.664c-.112 1.488-.24 2.632-.384 3.432-.144.8-.352 1.416-.624 1.848-.256.432-.632.824-1.128 1.176h6.048v-9.12zM151.945 39h-2.184v-5.712c0-.96.032-1.872.096-2.736.064-.864.12-1.432.168-1.704L144.721 39h-2.616V26.352h2.184v5.712c0 .848-.032 1.728-.096 2.64a43.53 43.53 0 01-.144 1.728l5.232-10.08h2.664V39zm13.071-2.952c0 .512.088.896.264 1.152.176.24.44.424.792.552l-.504 1.536c-.656-.08-1.184-.264-1.584-.552-.4-.288-.696-.736-.888-1.344-.848 1.264-2.104 1.896-3.768 1.896-1.248 0-2.232-.352-2.952-1.056-.72-.704-1.08-1.624-1.08-2.76 0-1.344.48-2.376 1.44-3.096.976-.72 2.352-1.08 4.128-1.08h1.944v-.936c0-.896-.216-1.536-.648-1.92-.432-.384-1.096-.576-1.992-.576-.928 0-2.064.224-3.408.672l-.552-1.608c1.568-.576 3.024-.864 4.368-.864 1.488 0 2.6.368 3.336 1.104.736.72 1.104 1.752 1.104 3.096v5.784zm-5.184 1.584c1.264 0 2.256-.656 2.976-1.968V32.76h-1.656c-2.336 0-3.504.864-3.504 2.592 0 .752.184 1.32.552 1.704.368.384.912.576 1.632.576zm18.982-11.28V39h-2.208V28.152h-3.912l-.36 4.224c-.144 1.712-.328 2.992-.552 3.84-.208.848-.544 1.504-1.008 1.968-.448.448-1.136.816-2.064 1.104l-.552-1.752c.544-.192.928-.44 1.152-.744.224-.304.392-.768.504-1.392.112-.624.232-1.712.36-3.264l.504-5.784h8.136zm9.317-.288c1.776 0 3.152.592 4.128 1.776.992 1.184 1.488 2.792 1.488 4.824 0 1.312-.224 2.472-.672 3.48-.448.992-1.096 1.768-1.944 2.328-.848.544-1.856.816-3.024.816-1.776 0-3.16-.592-4.152-1.776-.992-1.184-1.488-2.792-1.488-4.824 0-1.312.224-2.464.672-3.456.448-1.008 1.096-1.784 1.944-2.328.848-.56 1.864-.84 3.048-.84zm0 1.776c-2.192 0-3.288 1.616-3.288 4.848 0 3.216 1.088 4.824 3.264 4.824 2.176 0 3.264-1.616 3.264-4.848 0-3.216-1.08-4.824-3.24-4.824zM199.602 39h-2.208V26.352h7.896l-.288 1.824h-5.4V39zm15.64-2.952c0 .512.088.896.264 1.152.176.24.44.424.792.552l-.504 1.536c-.656-.08-1.184-.264-1.584-.552-.4-.288-.696-.736-.888-1.344-.848 1.264-2.104 1.896-3.768 1.896-1.248 0-2.232-.352-2.952-1.056-.72-.704-1.08-1.624-1.08-2.76 0-1.344.48-2.376 1.44-3.096.976-.72 2.352-1.08 4.128-1.08h1.944v-.936c0-.896-.216-1.536-.648-1.92-.432-.384-1.096-.576-1.992-.576-.928 0-2.064.224-3.408.672l-.552-1.608c1.568-.576 3.024-.864 4.368-.864 1.488 0 2.6.368 3.336 1.104.736.72 1.104 1.752 1.104 3.096v5.784zm-5.184 1.584c1.264 0 2.256-.656 2.976-1.968V32.76h-1.656c-2.336 0-3.504.864-3.504 2.592 0 .752.184 1.32.552 1.704.368.384.912.576 1.632.576zM28.288 68h-2.183v-5.712c0-.96.032-1.872.096-2.736.064-.864.12-1.432.168-1.704L21.065 68h-2.616V55.352h2.184v5.712c0 .848-.032 1.728-.096 2.64a43.53 43.53 0 01-.144 1.728l5.232-10.08h2.664V68zm15.655-12.936c1.776 0 3.152.592 4.128 1.776.992 1.184 1.488 2.792 1.488 4.824 0 1.312-.224 2.472-.672 3.48-.448.992-1.096 1.768-1.944 2.328-.848.544-1.856.816-3.024.816-1.776 0-3.16-.592-4.152-1.776-.992-1.184-1.488-2.792-1.488-4.824 0-1.312.224-2.464.672-3.456.448-1.008 1.096-1.784 1.944-2.328.848-.56 1.864-.84 3.048-.84zm0 1.776c-2.192 0-3.288 1.616-3.288 4.848 0 3.216 1.088 4.824 3.264 4.824 2.176 0 3.264-1.616 3.264-4.848 0-3.216-1.08-4.824-3.24-4.824zm14.784-.672c1.44 0 2.584.52 3.432 1.56.864 1.04 1.296 2.456 1.296 4.248 0 2-.504 3.552-1.512 4.656-1.008 1.104-2.36 1.656-4.056 1.656-1.696 0-3.056-.6-4.08-1.8-1.008-1.2-1.512-3.016-1.512-5.448 0-1.84.136-3.344.408-4.512.288-1.184.776-2.152 1.464-2.904.704-.768 1.688-1.368 2.952-1.8.944-.32 1.696-.608 2.256-.864.576-.256 1.16-.584 1.752-.984l.936 1.656c-.56.352-1.144.68-1.752.984-.592.288-1.304.568-2.136.84-.8.272-1.432.584-1.896.936-.464.336-.84.832-1.128 1.488-.272.64-.456 1.52-.552 2.64a4.963 4.963 0 011.728-1.728c.704-.416 1.504-.624 2.4-.624zm-.84 10.344c.976 0 1.752-.328 2.328-.984.576-.672.864-1.832.864-3.48 0-1.456-.24-2.504-.72-3.144-.464-.64-1.144-.96-2.04-.96-.736 0-1.424.2-2.064.6-.64.384-1.168.976-1.584 1.776v1.536c0 1.488.28 2.64.84 3.456.576.8 1.368 1.2 2.376 1.2zm23.762-.288h1.92V71.6h-1.8l-.36-3.6H67.105V55.352h2.16v10.872h4.056V55.352h2.112v10.872h4.056V55.352h2.16v10.872zm13.875-4.92c0 .368-.016.744-.048 1.128h-8.064c.096 1.392.448 2.416 1.056 3.072.608.656 1.392.984 2.352.984.608 0 1.168-.088 1.68-.264.512-.176 1.048-.456 1.608-.84l.96 1.32c-1.344 1.056-2.816 1.584-4.416 1.584-1.76 0-3.136-.576-4.128-1.728-.976-1.152-1.464-2.736-1.464-4.752 0-1.312.208-2.472.624-3.48.432-1.024 1.04-1.824 1.824-2.4.8-.576 1.736-.864 2.808-.864 1.68 0 2.968.552 3.864 1.656.896 1.104 1.344 2.632 1.344 4.584zm-2.184-.648c0-1.248-.248-2.2-.744-2.856-.496-.656-1.24-.984-2.232-.984-1.808 0-2.792 1.328-2.952 3.984h5.928v-.144zm10.319-5.592c.752 0 1.44.112 2.064.336.624.208 1.224.552 1.8 1.032l-1.056 1.392a5.024 5.024 0 00-1.32-.696 3.85 3.85 0 00-1.392-.24c-1.024 0-1.824.408-2.4 1.224-.56.816-.84 2.024-.84 3.624s.28 2.784.84 3.552c.56.752 1.36 1.128 2.4 1.128.496 0 .952-.072 1.368-.216.416-.16.88-.408 1.392-.744l1.008 1.44c-1.152.928-2.44 1.392-3.864 1.392-1.712 0-3.064-.576-4.056-1.728-.977-1.152-1.465-2.744-1.465-4.776 0-1.344.224-2.52.672-3.528.448-1.008 1.08-1.792 1.897-2.352.832-.56 1.816-.84 2.952-.84zm15.396.288l-.264 1.8h-4.056V68h-2.208V57.152h-4.176v-1.8h10.704zm8.957 5.784c2.144.208 3.216 1.2 3.216 2.976 0 1.328-.488 2.312-1.464 2.952-.96.624-2.248.936-3.864.936h-4.56V55.52c1.488-.304 2.872-.456 4.152-.456 1.568 0 2.808.296 3.72.888.912.592 1.368 1.44 1.368 2.544 0 .72-.216 1.304-.648 1.752-.432.448-1.072.744-1.92.888zm-2.496-4.368c-.672 0-1.328.048-1.968.144v3.576h2.376c.768 0 1.36-.144 1.776-.432.416-.288.624-.776.624-1.464 0-.64-.232-1.104-.696-1.392-.464-.288-1.168-.432-2.112-.432zm.384 9.504c.944 0 1.68-.16 2.208-.48.528-.32.792-.896.792-1.728 0-.688-.224-1.184-.672-1.488-.448-.304-1.208-.456-2.28-.456h-2.4v4.152h2.352zm18.445-4.968c0 .368-.016.744-.048 1.128h-8.064c.096 1.392.448 2.416 1.056 3.072.608.656 1.392.984 2.352.984.608 0 1.168-.088 1.68-.264.512-.176 1.048-.456 1.608-.84l.96 1.32c-1.344 1.056-2.816 1.584-4.416 1.584-1.76 0-3.136-.576-4.128-1.728-.976-1.152-1.464-2.736-1.464-4.752 0-1.312.208-2.472.624-3.48.432-1.024 1.04-1.824 1.824-2.4.8-.576 1.736-.864 2.808-.864 1.68 0 2.968.552 3.864 1.656.896 1.104 1.344 2.632 1.344 4.584zm-2.184-.648c0-1.248-.248-2.2-.744-2.856-.496-.656-1.24-.984-2.232-.984-1.808 0-2.792 1.328-2.952 3.984h5.928v-.144zM155.335 68v-5.568h-5.256V68h-2.208V55.352h2.208v5.304h5.256v-5.304h2.208V68h-2.208zm14.226 0v-5.568h-5.256V68h-2.208V55.352h2.208v5.304h5.256v-5.304h2.208V68h-2.208zm11.515-12.936c1.776 0 3.152.592 4.128 1.776.992 1.184 1.488 2.792 1.488 4.824 0 1.312-.224 2.472-.672 3.48-.448.992-1.096 1.768-1.944 2.328-.848.544-1.856.816-3.024.816-1.776 0-3.16-.592-4.152-1.776-.992-1.184-1.488-2.792-1.488-4.824 0-1.312.224-2.464.672-3.456.448-1.008 1.096-1.784 1.944-2.328.848-.56 1.864-.84 3.048-.84zm0 1.776c-2.192 0-3.288 1.616-3.288 4.848 0 3.216 1.088 4.824 3.264 4.824 2.176 0 3.264-1.616 3.264-4.848 0-3.216-1.08-4.824-3.24-4.824zM192.548 68h-2.208V55.352h7.896l-.288 1.824h-5.4V68zm12.223-12.936c1.776 0 3.152.592 4.128 1.776.992 1.184 1.488 2.792 1.488 4.824 0 1.312-.224 2.472-.672 3.48-.448.992-1.096 1.768-1.944 2.328-.848.544-1.856.816-3.024.816-1.776 0-3.16-.592-4.152-1.776-.992-1.184-1.488-2.792-1.488-4.824 0-1.312.224-2.464.672-3.456.448-1.008 1.096-1.784 1.944-2.328.848-.56 1.864-.84 3.048-.84zm0 1.776c-2.192 0-3.288 1.616-3.288 4.848 0 3.216 1.088 4.824 3.264 4.824 2.176 0 3.264-1.616 3.264-4.848 0-3.216-1.08-4.824-3.24-4.824zM232.77 68h-2.16l-.576-5.976a25.7 25.7 0 01-.12-2.064 119.09 119.09 0 01-.024-2.472l-2.88 9.12h-2.088l-2.688-9.096c0 2.112-.032 3.608-.096 4.488l-.456 6h-2.136l1.128-12.648h2.856l2.472 9.048 2.712-9.048h2.904L232.77 68zm11.182 0v-5.568h-5.256V68h-2.208V55.352h2.208v5.304h5.256v-5.304h2.208V68h-2.208zm16.315-6.696c0 .368-.016.744-.048 1.128h-8.064c.096 1.392.448 2.416 1.056 3.072.608.656 1.392.984 2.352.984.608 0 1.168-.088 1.68-.264.512-.176 1.048-.456 1.608-.84l.96 1.32c-1.344 1.056-2.816 1.584-4.416 1.584-1.76 0-3.136-.576-4.128-1.728-.976-1.152-1.464-2.736-1.464-4.752 0-1.312.208-2.472.624-3.48.432-1.024 1.04-1.824 1.824-2.4.8-.576 1.736-.864 2.808-.864 1.68 0 2.968.552 3.864 1.656.896 1.104 1.344 2.632 1.344 4.584zm-2.184-.648c0-1.248-.248-2.2-.744-2.856-.496-.656-1.24-.984-2.232-.984-1.808 0-2.792 1.328-2.952 3.984h5.928v-.144zM271.257 68v-5.568h-5.256V68h-2.208V55.352h2.208v5.304h5.256v-5.304h2.208V68h-2.208zm16.602 0h-2.184v-5.712c0-.96.032-1.872.096-2.736.064-.864.12-1.432.168-1.704L280.635 68h-2.616V55.352h2.184v5.712c0 .848-.032 1.728-.096 2.64a43.53 43.53 0 01-.144 1.728l5.232-10.08h2.664V68zm13.215-12.648V68h-2.208v-4.848h-2.76L293.442 68h-2.472l3.024-5.352c-1.488-.704-2.232-1.848-2.232-3.432 0-1.248.448-2.2 1.344-2.856.896-.672 2.152-1.008 3.768-1.008h4.2zm-2.208 6.12v-4.416h-2.04c-.912 0-1.6.176-2.064.528-.448.336-.672.88-.672 1.632 0 .8.208 1.376.624 1.728.432.352 1.12.528 2.064.528h2.088z" fill="#202020"/><path d="M169.169 516a8 8 0 018-8h196a8 8 0 018 8v47.859c0 1.338.668 2.587 1.781 3.328l1.219.813h-4.056a4.012 4.012 0 01-1.789-.422l-1.155-.578-1.155.578a4.012 4.012 0 01-1.789.422H177.169a8 8 0 01-8-8v-44zm61-170a8 8 0 018-8h135a8 8 0 018 8v23.859c0 1.338.668 2.587 1.781 3.328l1.219.813h-4.056a4.012 4.012 0 01-1.789-.422l-1.155-.578-1.155.578a4.012 4.012 0 01-1.789.422H238.169a8 8 0 01-8-8v-20z" fill="#ABABAB"/><path d="M202.169 452a8 8 0 00-8-8h-167a8 8 0 00-8 8v35.859a3.999 3.999 0 01-1.781 3.328l-1.22.813h4.057c.62 0 1.233-.145 1.788-.422L23.17 491l1.155.578a4.009 4.009 0 001.79.422H194.17a8 8 0 008-8v-32zm57-170a8 8 0 00-8-8h-224a8 8 0 00-8 8v35.859a3.998 3.998 0 01-1.781 3.328l-1.219.813h4.056a4.01 4.01 0 001.789-.422l1.155-.578 1.155.578a4.01 4.01 0 001.79.422h225.055a8 8 0 008-8v-32zm0 116a8 8 0 00-8-8h-224a8 8 0 00-8 8v32a8 8 0 008 8h224a8 8 0 008-8v-32zm0-284a8 8 0 00-8-8h-224a8 8 0 00-8 8v148a8 8 0 008 8h224a8 8 0 008-8V114z" fill="#C8C8C8"/><rect x="27.169" y="114" width="224" height="112" rx="4" fill="#E8E8E8"/><rect x="27.169" y="230" width="224" height="8" rx="4" fill="#E8E8E8"/><rect x="27.169" y="282" width="224" height="8" rx="4" fill="#E8E8E8"/><rect x="238.169" y="346" width="135" height="8" rx="4" fill="#E8E8E8"/><rect x="27.169" y="410" width="224" height="8" rx="4" fill="#E8E8E8"/><rect x="27.169" y="464" width="167" height="8" rx="4" fill="#E8E8E8"/><rect x="27.169" y="398" width="224" height="8" rx="4" fill="#E8E8E8"/><rect x="27.169" y="452" width="167" height="8" rx="4" fill="#E8E8E8"/><rect x="177.169" y="540" width="196" height="8" rx="4" fill="#E8E8E8"/><rect x="177.169" y="528" width="196" height="8" rx="4" fill="#E8E8E8"/><rect x="177.169" y="516" width="196" height="8" rx="4" fill="#E8E8E8"/><rect x="27.169" y="242" width="224" height="8" rx="4" fill="#E8E8E8"/><rect x="27.169" y="294" width="224" height="8" rx="4" fill="#E8E8E8"/><rect x="238.169" y="358" width="70" height="8" rx="4" fill="#E8E8E8"/><rect x="27.169" y="422" width="70" height="8" rx="4" fill="#E8E8E8"/><rect x="27.169" y="476" width="107" height="8" rx="4" fill="#E8E8E8"/><rect x="177.169" y="552" width="24" height="8" rx="4" fill="#E8E8E8"/><rect x="27.169" y="254" width="110" height="8" rx="4" fill="#E8E8E8"/><rect x="27.169" y="306" width="188" height="8" rx="4" fill="#E8E8E8"/><path d="M139.169 143l3.416 15.907a10 10 0 007.677 7.677L166.169 170l-15.907 3.416a10 10 0 00-7.677 7.677L139.169 197l-3.416-15.907a10 10 0 00-7.677-7.677L112.169 170l15.907-3.416a10 10 0 007.677-7.677L139.169 143zm3 333a5.21 5.21 0 004 4 5.21 5.21 0 00-4 4 5.21 5.21 0 00-4-4 5.21 5.21 0 004-4zm12 0a5.21 5.21 0 004 4 5.21 5.21 0 00-4 4 5.21 5.21 0 00-4-4 5.21 5.21 0 004-4z" fill="#ABABAB"/></svg>