<svg width="400" height="600" fill="none" xmlns="http://www.w3.org/2000/svg"><rect width="400" height="600" rx="12" fill="#D9D9D9"/><path d="M27.208 39l-1.248-4.152h-6.264L18.448 39h-2.304l5.304-16.536h2.88L29.608 39h-2.4zm-6.96-6h5.16l-2.568-8.64L20.248 33zm21.27-6.648l-3.84 5.856L41.974 39h-2.616l-3.504-5.832h-1.608V39h-2.208V26.352h2.208v5.088h1.656l3.192-5.088h2.424zm11.51 0l-.265 1.8h-4.056V39H46.5V28.152h-4.176v-1.8h10.704zm7.347 12.72c-.496 1.472-1.192 2.632-2.088 3.48-.88.864-2.144 1.384-3.792 1.56l-.24-1.728c.832-.144 1.496-.352 1.992-.624a3.274 3.274 0 001.176-1.056c.304-.416.584-.984.84-1.704h-.744l-4.248-12.648h2.352l3.384 11.04 3.312-11.04h2.28l-4.224 12.72zm14.894-3.024c0 .512.088.896.264 1.152.176.24.44.424.792.552l-.504 1.536c-.656-.08-1.184-.264-1.584-.552-.4-.288-.696-.736-.888-1.344-.848 1.264-2.104 1.896-3.768 1.896-1.248 0-2.232-.352-2.952-1.056-.72-.704-1.08-1.624-1.08-2.76 0-1.344.48-2.376 1.44-3.096.976-.72 2.352-1.08 4.128-1.08h1.944v-.936c0-.896-.216-1.536-.648-1.92-.432-.384-1.096-.576-1.992-.576-.928 0-2.064.224-3.408.672l-.552-1.608c1.568-.576 3.024-.864 4.368-.864 1.488 0 2.6.368 3.336 1.104.736.72 1.104 1.752 1.104 3.096v5.784zm-5.184 1.584c1.264 0 2.256-.656 2.976-1.968V32.76h-1.656c-2.336 0-3.504.864-3.504 2.592 0 .752.184 1.32.552 1.704.368.384.912.576 1.632.576zm18.982-11.28V39H86.86V28.152h-3.912l-.36 4.224c-.144 1.712-.328 2.992-.552 3.84-.208.848-.544 1.504-1.008 1.968-.448.448-1.136.816-2.064 1.104l-.552-1.752c.544-.192.928-.44 1.152-.744.224-.304.392-.768.504-1.392.112-.624.232-1.712.36-3.264l.504-5.784h8.136zm8.453 4.08c1.888 0 3.256.368 4.104 1.104.848.736 1.272 1.784 1.272 3.144 0 1.424-.48 2.504-1.44 3.24-.944.72-2.12 1.08-3.528 1.08h-4.296V26.352h2.208v4.08h1.68zm.216 6.84c.896 0 1.584-.2 2.064-.6.496-.4.744-1.064.744-1.992 0-.88-.232-1.528-.696-1.944-.448-.416-1.232-.624-2.352-.624H95.84v5.16h1.896zM113.47 39v-5.568h-5.256V39h-2.208V26.352h2.208v5.304h5.256v-5.304h2.208V39h-2.208zm10.41-8.568c1.888 0 3.256.368 4.104 1.104.848.736 1.272 1.784 1.272 3.144 0 1.424-.48 2.504-1.44 3.24-.944.72-2.12 1.08-3.528 1.08h-4.056V26.352h2.208v4.08h1.44zm7.2-4.08h2.208V39h-2.208V26.352zm-6.984 10.92c.896 0 1.584-.2 2.064-.6.496-.4.744-1.064.744-1.992 0-.88-.232-1.528-.696-1.944-.448-.416-1.232-.624-2.352-.624h-1.416v5.16h1.656zm23.313-4.968c0 .368-.016.744-.048 1.128h-8.064c.096 1.392.448 2.416 1.056 3.072.608.656 1.392.984 2.352.984.608 0 1.168-.088 1.68-.264.512-.176 1.048-.456 1.608-.84l.96 1.32c-1.344 1.056-2.816 1.584-4.416 1.584-1.76 0-3.136-.576-4.128-1.728-.976-1.152-1.464-2.736-1.464-4.752 0-1.312.208-2.472.624-3.48.432-1.024 1.04-1.824 1.824-2.4.8-.576 1.736-.864 2.808-.864 1.68 0 2.968.552 3.864 1.656.896 1.104 1.344 2.632 1.344 4.584zm-2.184-.648c0-1.248-.248-2.2-.744-2.856-.496-.656-1.24-.984-2.232-.984-1.808 0-2.792 1.328-2.952 3.984h5.928v-.144zm21.542-5.304l-3.84 5.856L167.224 39h-2.616l-3.504-5.832h-1.608V39h-2.208V26.352h2.208v5.088h1.656l3.192-5.088h2.424zm7.506-.288c1.776 0 3.152.592 4.128 1.776.992 1.184 1.488 2.792 1.488 4.824 0 1.312-.224 2.472-.672 3.48-.448.992-1.096 1.768-1.944 2.328-.848.544-1.856.816-3.024.816-1.776 0-3.16-.592-4.152-1.776-.992-1.184-1.488-2.792-1.488-4.824 0-1.312.224-2.464.672-3.456.448-1.008 1.096-1.784 1.944-2.328.848-.56 1.864-.84 3.048-.84zm0 1.776c-2.192 0-3.288 1.616-3.288 4.848 0 3.216 1.088 4.824 3.264 4.824 2.176 0 3.264-1.616 3.264-4.848 0-3.216-1.08-4.824-3.24-4.824zM195.922 39h-2.16l-.576-5.976a25.7 25.7 0 01-.12-2.064 119.09 119.09 0 01-.024-2.472l-2.88 9.12h-2.088l-2.688-9.096c0 2.112-.032 3.608-.096 4.488l-.456 6h-2.136l1.128-12.648h2.856l2.472 9.048 2.712-9.048h2.904L195.922 39zm16.101 0h-2.16l-.576-5.976a25.7 25.7 0 01-.12-2.064 119.09 119.09 0 01-.024-2.472l-2.88 9.12h-2.088l-2.688-9.096c0 2.112-.032 3.608-.096 4.488l-.456 6h-2.136l1.128-12.648h2.856l2.472 9.048 2.712-9.048h2.904L212.023 39zm8.688.072c-.496 1.472-1.192 2.632-2.088 3.48-.88.864-2.144 1.384-3.792 1.56l-.24-1.728c.832-.144 1.496-.352 1.992-.624a3.274 3.274 0 001.176-1.056c.304-.416.584-.984.84-1.704h-.744l-4.248-12.648h2.352l3.384 11.04 3.312-11.04h2.28l-4.224 12.72zM234.924 39v-5.568h-5.256V39h-2.208V26.352h2.208v5.304h5.256v-5.304h2.208V39h-2.208zm16.602 0h-2.184v-5.712c0-.96.032-1.872.096-2.736.064-.864.12-1.432.168-1.704L244.302 39h-2.616V26.352h2.184v5.712c0 .848-.032 1.728-.096 2.64a43.53 43.53 0 01-.144 1.728l5.232-10.08h2.664V39zm14.031-12.648l-3.84 5.856L266.013 39h-2.616l-3.504-5.832h-1.608V39h-2.208V26.352h2.208v5.088h1.656l3.192-5.088h2.424zm11.134 9.696c0 .512.088.896.264 1.152.176.24.44.424.792.552l-.504 1.536c-.656-.08-1.184-.264-1.584-.552-.4-.288-.696-.736-.888-1.344-.848 1.264-2.104 1.896-3.768 1.896-1.248 0-2.232-.352-2.952-1.056-.72-.704-1.08-1.624-1.08-2.76 0-1.344.48-2.376 1.44-3.096.976-.72 2.352-1.08 4.128-1.08h1.944v-.936c0-.896-.216-1.536-.648-1.92-.432-.384-1.096-.576-1.992-.576-.928 0-2.064.224-3.408.672l-.552-1.608c1.568-.576 3.024-.864 4.368-.864 1.488 0 2.6.368 3.336 1.104.736.72 1.104 1.752 1.104 3.096v5.784zm-5.184 1.584c1.264 0 2.256-.656 2.976-1.968V32.76h-1.656c-2.336 0-3.504.864-3.504 2.592 0 .752.184 1.32.552 1.704.368.384.912.576 1.632.576zm19.198-.408h1.92V42.6h-1.8l-.36-3.6h-9.24V26.352h2.208V37.2h5.064V26.352h2.208v10.872zM305.104 39h-2.184v-5.712c0-.96.032-1.872.096-2.736.064-.864.12-1.432.168-1.704L297.88 39h-2.616V26.352h2.184v5.712c0 .848-.032 1.728-.096 2.64a43.53 43.53 0 01-.144 1.728l5.232-10.08h2.664V39zm9.303-12.936c1.776 0 3.152.592 4.128 1.776.992 1.184 1.488 2.792 1.488 4.824 0 1.312-.224 2.472-.672 3.48-.448.992-1.096 1.768-1.944 2.328-.848.544-1.856.816-3.024.816-1.776 0-3.16-.592-4.152-1.776-.992-1.184-1.488-2.792-1.488-4.824 0-1.312.224-2.464.672-3.456.448-1.008 1.096-1.784 1.944-2.328.848-.56 1.864-.84 3.048-.84zm0 1.776c-2.192 0-3.288 1.616-3.288 4.848 0 3.216 1.088 4.824 3.264 4.824 2.176 0 3.264-1.616 3.264-4.848 0-3.216-1.08-4.824-3.24-4.824zM331.135 39v-5.568h-5.256V39h-2.208V26.352h2.208v5.304h5.256v-5.304h2.208V39h-2.208zm14.226 0v-5.568h-5.256V39h-2.208V26.352h2.208v5.304h5.256v-5.304h2.208V39h-2.208zm10.411-8.568c1.888 0 3.256.368 4.104 1.104.848.736 1.272 1.784 1.272 3.144 0 1.424-.48 2.504-1.44 3.24-.944.72-2.12 1.08-3.528 1.08h-4.056V26.352h2.208v4.08h1.44zm7.2-4.08h2.208V39h-2.208V26.352zm-6.984 10.92c.896 0 1.584-.2 2.064-.6.496-.4.744-1.064.744-1.992 0-.88-.232-1.528-.696-1.944-.448-.416-1.232-.624-2.352-.624h-1.416v5.16h1.656zm23.313-4.968c0 .368-.016.744-.048 1.128h-8.064c.096 1.392.448 2.416 1.056 3.072.608.656 1.392.984 2.352.984.608 0 1.168-.088 1.68-.264.512-.176 1.048-.456 1.608-.84l.96 1.32c-1.344 1.056-2.816 1.584-4.416 1.584-1.76 0-3.136-.576-4.128-1.728-.976-1.152-1.464-2.736-1.464-4.752 0-1.312.208-2.472.624-3.48.432-1.024 1.04-1.824 1.824-2.4.8-.576 1.736-.864 2.808-.864 1.68 0 2.968.552 3.864 1.656.896 1.104 1.344 2.632 1.344 4.584zm-2.184-.648c0-1.248-.248-2.2-.744-2.856-.496-.656-1.24-.984-2.232-.984-1.808 0-2.792 1.328-2.952 3.984h5.928v-.144zM25.672 68V57.152h-5.184V68H18.28V55.352h9.6V68h-2.208zm12.572-12.936c1.616 0 2.8.576 3.552 1.728.752 1.152 1.128 2.776 1.128 4.872 0 1.984-.432 3.584-1.296 4.8-.864 1.216-2.088 1.824-3.672 1.824-1.408 0-2.512-.48-3.312-1.44v6l-2.208.264v-17.76h1.896l.168 1.704a4.723 4.723 0 011.68-1.464 4.306 4.306 0 012.064-.528zm-.816 11.424c2.08 0 3.12-1.608 3.12-4.824 0-3.232-.952-4.848-2.856-4.848-.624 0-1.192.184-1.704.552-.512.368-.96.84-1.344 1.416v6.168c.32.496.72.88 1.2 1.152.48.256 1.008.384 1.584.384zm14.01-11.424c1.776 0 3.152.592 4.128 1.776.992 1.184 1.488 2.792 1.488 4.824 0 1.312-.224 2.472-.672 3.48-.448.992-1.096 1.768-1.944 2.328-.848.544-1.856.816-3.024.816-1.776 0-3.16-.592-4.152-1.776-.992-1.184-1.488-2.792-1.488-4.824 0-1.312.224-2.464.672-3.456.448-1.008 1.096-1.784 1.944-2.328.848-.56 1.864-.84 3.048-.84zm0 1.776c-2.192 0-3.288 1.616-3.288 4.848 0 3.216 1.088 4.824 3.264 4.824 2.176 0 3.264-1.616 3.264-4.848 0-3.216-1.08-4.824-3.24-4.824zm18.744 9.384h1.92V71.6h-1.8l-.36-3.6h-9.24V55.352h2.208V66.2h5.064V55.352h2.208v10.872zm13.877-4.92c0 .368-.016.744-.048 1.128h-8.064c.096 1.392.448 2.416 1.056 3.072.608.656 1.392.984 2.352.984.608 0 1.168-.088 1.68-.264.512-.176 1.048-.456 1.608-.84l.96 1.32c-1.344 1.056-2.816 1.584-4.416 1.584-1.76 0-3.136-.576-4.128-1.728-.976-1.152-1.464-2.736-1.464-4.752 0-1.312.208-2.472.624-3.48.432-1.024 1.04-1.824 1.824-2.4.8-.576 1.736-.864 2.808-.864 1.68 0 2.968.552 3.864 1.656.896 1.104 1.344 2.632 1.344 4.584zm-2.184-.648c0-1.248-.248-2.2-.744-2.856-.496-.656-1.24-.984-2.232-.984-1.808 0-2.792 1.328-2.952 3.984h5.928v-.144zm10.318-5.592c.752 0 1.44.112 2.064.336.624.208 1.224.552 1.8 1.032L95 57.824a5.024 5.024 0 00-1.32-.696 3.85 3.85 0 00-1.392-.24c-1.024 0-1.824.408-2.4 1.224-.56.816-.84 2.024-.84 3.624s.28 2.784.84 3.552c.56.752 1.36 1.128 2.4 1.128.496 0 .952-.072 1.368-.216.416-.16.88-.408 1.392-.744l1.008 1.44c-1.152.928-2.44 1.392-3.864 1.392-1.712 0-3.064-.576-4.056-1.728-.976-1.152-1.464-2.744-1.464-4.776 0-1.344.224-2.52.672-3.528.448-1.008 1.08-1.792 1.896-2.352.832-.56 1.816-.84 2.952-.84zm10.992 0c.752 0 1.44.112 2.064.336.624.208 1.224.552 1.8 1.032l-1.056 1.392a5.024 5.024 0 00-1.32-.696 3.85 3.85 0 00-1.392-.24c-1.024 0-1.824.408-2.4 1.224-.56.816-.84 2.024-.84 3.624s.28 2.784.84 3.552c.56.752 1.36 1.128 2.4 1.128.496 0 .952-.072 1.368-.216.416-.16.88-.408 1.392-.744l1.008 1.44c-1.152.928-2.44 1.392-3.864 1.392-1.712 0-3.064-.576-4.056-1.728-.976-1.152-1.464-2.744-1.464-4.776 0-1.344.224-2.52.672-3.528.448-1.008 1.08-1.792 1.896-2.352.832-.56 1.816-.84 2.952-.84zm10.501 4.368c1.888 0 3.256.368 4.104 1.104.848.736 1.272 1.784 1.272 3.144 0 1.424-.48 2.504-1.44 3.24-.944.72-2.12 1.08-3.528 1.08h-4.056V55.352h2.208v4.08h1.44zm7.2-4.08h2.208V68h-2.208V55.352zm-6.984 10.92c.896 0 1.584-.2 2.064-.6.496-.4.744-1.064.744-1.992 0-.88-.232-1.528-.696-1.944-.448-.416-1.232-.624-2.352-.624h-1.416v5.16h1.656z" fill="#202020"/><path d="M57 211l1.294 6.028a10 10 0 007.678 7.678L72 226l-6.028 1.294a10 10 0 00-7.678 7.678L57 241l-1.294-6.028a10 10 0 00-7.678-7.678L42 226l6.028-1.294a10 10 0 007.678-7.678L57 211zm127 136l.764 3.558a10 10 0 007.678 7.678L196 359l-3.558.764a10 10 0 00-7.678 7.678L184 371l-.764-3.558a10 10 0 00-7.678-7.678L172 359l3.558-.764a10 10 0 007.678-7.678L184 347zm-39-93l.764 3.558a10 10 0 007.678 7.678L157 266l-3.558.764a10 10 0 00-7.678 7.678L145 278l-.764-3.558a10 10 0 00-7.678-7.678L133 266l3.558-.764a10 10 0 007.678-7.678L145 254zm160 152l.764 3.558a10 10 0 007.678 7.678L317 418l-3.558.764a10 10 0 00-7.678 7.678L305 430l-.764-3.558a10 10 0 00-7.678-7.678L293 418l3.558-.764a10 10 0 007.678-7.678L305 406zm-120 54l.764 3.558a10 10 0 007.678 7.678L197 472l-3.558.764a10 10 0 00-7.678 7.678L185 484l-.764-3.558a10 10 0 00-7.678-7.678L173 472l3.558-.764a10 10 0 007.678-7.678L185 460zM62 333l2.355 10.967a10 10 0 007.678 7.678L83 354l-10.967 2.355a10 10 0 00-7.678 7.678L62 375l-2.355-10.967a10 10 0 00-7.678-7.678L41 354l10.967-2.355a10 10 0 007.678-7.678L62 333zm50-213l2.355 10.967a10 10 0 007.678 7.678L133 141l-10.967 2.355a10 10 0 00-7.678 7.678L112 162l-2.355-10.967a10 10 0 00-7.678-7.678L91 141l10.967-2.355a10 10 0 007.678-7.678L112 120zm218 77a9.118 9.118 0 007 7 9.118 9.118 0 00-7 7 9.118 9.118 0 00-7-7 9.118 9.118 0 007-7zM92 513a9.117 9.117 0 007 7 9.117 9.117 0 00-7 7 9.117 9.117 0 00-7-7 9.117 9.117 0 007-7zm216 0a9.118 9.118 0 007 7 9.118 9.118 0 00-7 7 9.118 9.118 0 00-7-7 9.118 9.118 0 007-7zM89 430a9.117 9.117 0 007 7 9.117 9.117 0 00-7 7 9.117 9.117 0 00-7-7 9.117 9.117 0 007-7zm175-172l1.294 6.028a10 10 0 007.678 7.678L279 273l-6.028 1.294a10 10 0 00-7.678 7.678L264 288l-1.294-6.028a10 10 0 00-7.678-7.678L249 273l6.028-1.294a10 10 0 007.678-7.678L264 258zm33-160l3.416 15.907a10 10 0 007.677 7.677L324 125l-15.907 3.416a10 10 0 00-7.677 7.677L297 152l-3.416-15.907a10 10 0 00-7.677-7.677L270 125l15.907-3.416a10 10 0 007.677-7.677L297 98z" fill="#ABABAB"/><path d="M262.695 125.719a1 1 0 00.023-1.414l-6.256-6.47a1 1 0 10-1.438 1.39l5.561 5.751-5.751 5.562a1 1 0 101.391 1.437l6.47-6.256zM184.817 341.5c.002-37.837-2.821-92.186 5.515-136.942 4.166-22.37 11.101-42.212 22.475-56.353 11.334-14.091 27.115-22.575 49.176-22.205l.033-2c-22.687-.38-39.052 8.386-50.767 22.951-11.675 14.516-18.692 34.736-22.883 57.241-8.381 44.995-5.547 99.645-5.549 137.308h2zm79.89-51.207a.999.999 0 00-1.414 0l-6.364 6.364a.999.999 0 101.414 1.414l5.657-5.657 5.657 5.657a.999.999 0 101.414-1.414l-6.364-6.364zM90 427.5c0-2.166.617-3.891 1.747-5.31 1.145-1.436 2.865-2.619 5.162-3.592 4.622-1.958 11.312-2.957 19.516-3.625 16.293-1.326 38.319-1.322 60.259-5.428 21.982-4.113 44.096-12.379 60.707-30.375C254.014 361.162 265 333.549 265 291h-2c0 42.201-10.889 69.275-27.079 86.814-16.201 17.552-37.837 25.692-59.605 29.766-21.81 4.081-43.534 4.055-60.053 5.4-8.203.668-15.185 1.68-20.133 3.776-2.488 1.053-4.528 2.407-5.947 4.188C88.75 422.743 88 424.916 88 427.5h2zm218.707 83.207a.999.999 0 01-1.414 0l-6.364-6.364a.999.999 0 111.414-1.414l5.657 5.657 5.657-5.657a.999.999 0 111.414 1.414l-6.364 6.364zm-210-74.744c75.721 0 128.202 2.752 161.759 13.315 16.803 5.289 28.965 12.566 36.918 22.53C305.348 481.785 309 494.34 309 510h-2c0-15.34-3.572-27.414-11.179-36.944-7.617-9.544-19.372-16.65-35.955-21.87-33.214-10.456-85.379-13.223-161.159-13.223v-2zM64.79 233.022a1 1 0 00-.768 1.187l1.882 8.801a1 1 0 101.956-.419l-1.673-7.823 7.823-1.673a1 1 0 10-.418-1.956l-8.801 1.883zm112.798 116.481c-17.171-1.358-29.404-7.121-38.94-15.496-9.563-8.4-16.464-19.469-22.889-31.539-12.797-24.039-23.687-52.127-50.216-69.308l-1.087 1.679c25.972 16.82 36.582 44.232 49.537 68.568 6.451 12.118 13.49 23.455 23.335 32.102 9.873 8.672 22.518 14.597 40.102 15.988l.158-1.994z" fill="#C8C8C8"/></svg>