<svg width="401" height="600" fill="none" xmlns="http://www.w3.org/2000/svg"><rect x=".169" width="400" height="600" rx="12" fill="#F4F4F4"/><path d="M33.353 39h-2.208l-.576-7.464c-.24-2.928-.376-5.176-.408-6.744l-3.576 12.336h-2.136l-3.768-12.36c0 2-.104 4.312-.312 6.936L19.817 39h-2.16l1.368-16.536h3.072l3.48 12.024 3.312-12.024h3.096L33.353 39zm13.328-6.696c0 .368-.016.744-.048 1.128h-8.064c.096 1.392.448 2.416 1.056 3.072.608.656 1.392.984 2.352.984.608 0 1.168-.088 1.68-.264.512-.176 1.048-.456 1.608-.84l.96 1.32c-1.344 1.056-2.816 1.584-4.416 1.584-1.76 0-3.136-.576-4.128-1.728-.976-1.152-1.464-2.736-1.464-4.752 0-1.312.208-2.472.624-3.48.432-1.024 1.04-1.824 1.824-2.4.8-.576 1.736-.864 2.808-.864 1.68 0 2.968.552 3.864 1.656.896 1.104 1.344 2.632 1.344 4.584zm-2.184-.648c0-1.248-.248-2.2-.744-2.856-.496-.656-1.24-.984-2.232-.984-1.808 0-2.792 1.328-2.952 3.984h5.928v-.144zm15.627 5.568V42.6h-1.8l-.36-3.6h-8.112l-.36 3.6h-1.8v-5.376h.888c.384-.256.688-.544.912-.864.224-.336.424-.912.6-1.728.192-.816.344-2.008.456-3.576l.336-4.704h7.92v10.872h1.32zm-3.528-9.12h-3.72l-.192 2.664c-.112 1.488-.24 2.632-.384 3.432-.144.8-.352 1.416-.624 1.848-.256.432-.632.824-1.128 1.176h6.048v-9.12zM73.196 39H71.01v-5.712c0-.96.032-1.872.096-2.736.064-.864.12-1.432.168-1.704L65.971 39h-2.616V26.352h2.184v5.712c0 .848-.032 1.728-.096 2.64a43.53 43.53 0 01-.144 1.728l5.232-10.08h2.664V39zm13.07-2.952c0 .512.088.896.264 1.152.176.24.44.424.792.552l-.504 1.536c-.656-.08-1.184-.264-1.584-.552-.4-.288-.696-.736-.888-1.344-.848 1.264-2.104 1.896-3.768 1.896-1.248 0-2.232-.352-2.952-1.056-.72-.704-1.08-1.624-1.08-2.76 0-1.344.48-2.376 1.44-3.096.976-.72 2.352-1.08 4.128-1.08h1.944v-.936c0-.896-.216-1.536-.648-1.92-.432-.384-1.096-.576-1.992-.576-.928 0-2.064.224-3.408.672l-.552-1.608c1.568-.576 3.024-.864 4.368-.864 1.488 0 2.6.368 3.336 1.104.736.72 1.104 1.752 1.104 3.096v5.784zm-5.184 1.584c1.264 0 2.256-.656 2.976-1.968V32.76h-1.656c-2.336 0-3.504.864-3.504 2.592 0 .752.184 1.32.552 1.704.368.384.912.576 1.632.576zm8.644-5.208v-1.872h6.792v1.872h-6.792zm18.688 3.624c0 .512.088.896.264 1.152.176.24.44.424.792.552l-.504 1.536c-.656-.08-1.184-.264-1.584-.552-.4-.288-.696-.736-.888-1.344-.848 1.264-2.104 1.896-3.768 1.896-1.248 0-2.232-.352-2.952-1.056-.72-.704-1.08-1.624-1.08-2.76 0-1.344.48-2.376 1.44-3.096.976-.72 2.352-1.08 4.128-1.08h1.944v-.936c0-.896-.216-1.536-.648-1.92-.432-.384-1.096-.576-1.992-.576-.928 0-2.064.224-3.408.672l-.552-1.608c1.568-.576 3.024-.864 4.368-.864 1.488 0 2.6.368 3.336 1.104.736.72 1.104 1.752 1.104 3.096v5.784zm-5.184 1.584c1.264 0 2.256-.656 2.976-1.968V32.76h-1.656c-2.336 0-3.504.864-3.504 2.592 0 .752.184 1.32.552 1.704.368.384.912.576 1.632.576zM120.413 39v-5.568h-5.256V39h-2.208V26.352h2.208v5.304h5.256v-5.304h2.208V39h-2.208zm15.283-2.952c0 .512.088.896.264 1.152.176.24.44.424.792.552l-.504 1.536c-.656-.08-1.184-.264-1.584-.552-.4-.288-.696-.736-.888-1.344-.848 1.264-2.104 1.896-3.768 1.896-1.248 0-2.232-.352-2.952-1.056-.72-.704-1.08-1.624-1.08-2.76 0-1.344.48-2.376 1.44-3.096.976-.72 2.352-1.08 4.128-1.08h1.944v-.936c0-.896-.216-1.536-.648-1.92-.432-.384-1.096-.576-1.992-.576-.928 0-2.064.224-3.408.672l-.552-1.608c1.568-.576 3.024-.864 4.368-.864 1.488 0 2.6.368 3.336 1.104.736.72 1.104 1.752 1.104 3.096v5.784zm-5.184 1.584c1.264 0 2.256-.656 2.976-1.968V32.76h-1.656c-2.336 0-3.504.864-3.504 2.592 0 .752.184 1.32.552 1.704.368.384.912.576 1.632.576zm18.982-11.28V39h-2.208V28.152h-3.912l-.36 4.224c-.144 1.712-.328 2.992-.552 3.84-.208.848-.544 1.504-1.008 1.968-.448.448-1.136.816-2.064 1.104l-.552-1.752c.544-.192.928-.44 1.152-.744.224-.304.392-.768.504-1.392.112-.624.232-1.712.36-3.264l.504-5.784h8.136zM163.898 39h-2.184v-5.712c0-.96.032-1.872.096-2.736.064-.864.12-1.432.168-1.704L156.674 39h-2.616V26.352h2.184v5.712c0 .848-.032 1.728-.096 2.64a43.53 43.53 0 01-.144 1.728l5.232-10.08h2.664V39zm13.095-12.648l-.264 1.8h-4.056V39h-2.208V28.152h-4.176v-1.8h10.704zM189.117 39h-2.184v-5.712c0-.96.032-1.872.096-2.736.064-.864.12-1.432.168-1.704L181.893 39h-2.616V26.352h2.184v5.712c0 .848-.032 1.728-.096 2.64a43.53 43.53 0 01-.144 1.728l5.232-10.08h2.664V39zm14.031-12.648l-3.84 5.856L203.604 39h-2.616l-3.504-5.832h-1.608V39h-2.208V26.352h2.208v5.088h1.656l3.192-5.088h2.424zm11.133 9.696c0 .512.088.896.264 1.152.176.24.44.424.792.552l-.504 1.536c-.656-.08-1.184-.264-1.584-.552-.4-.288-.696-.736-.888-1.344-.848 1.264-2.104 1.896-3.768 1.896-1.248 0-2.232-.352-2.952-1.056-.72-.704-1.08-1.624-1.08-2.76 0-1.344.48-2.376 1.44-3.096.976-.72 2.352-1.08 4.128-1.08h1.944v-.936c0-.896-.216-1.536-.648-1.92-.432-.384-1.096-.576-1.992-.576-.928 0-2.064.224-3.408.672l-.552-1.608c1.568-.576 3.024-.864 4.368-.864 1.488 0 2.6.368 3.336 1.104.736.72 1.104 1.752 1.104 3.096v5.784zm-5.184 1.584c1.264 0 2.256-.656 2.976-1.968V32.76h-1.656c-2.336 0-3.504.864-3.504 2.592 0 .752.184 1.32.552 1.704.368.384.912.576 1.632.576z" fill="#202020"/><rect x="76.168" y="430" width="8" height="34" rx="4" fill="#C8C8C8"/><rect x="100.168" y="382" width="8" height="82" rx="4" fill="#C8C8C8"/><path d="M200.169 268l3.416 15.907a9.999 9.999 0 007.677 7.677L227.169 295l-15.907 3.416a10 10 0 00-7.677 7.678L200.169 322l-3.416-15.906a10 10 0 00-7.677-7.678L173.169 295l15.907-3.416a9.999 9.999 0 007.677-7.677L200.169 268z" fill="#ABABAB"/><rect x="124.17" y="413" width="8" height="74" rx="4" fill="#C8C8C8"/><rect x="148.168" y="398" width="8" height="74" rx="4" fill="#C8C8C8"/><rect x="172.169" y="398" width="8" height="66" rx="4" fill="#C8C8C8"/><rect x="196.169" y="374" width="8" height="90" rx="4" fill="#C8C8C8"/><rect x="220.168" y="428" width="8" height="36" rx="4" fill="#C8C8C8"/><rect x="244.168" y="404" width="8" height="60" rx="4" fill="#C8C8C8"/><rect x="268.169" y="428" width="8" height="59" rx="4" fill="#C8C8C8"/><rect x="292.169" y="404" width="8" height="59" rx="4" fill="#C8C8C8"/><rect x="316.169" y="388" width="8" height="75" rx="4" fill="#C8C8C8"/><path d="M370.527 403.74a2 2 0 00-1.118-2.598l-16.724-6.657a2 2 0 10-1.479 3.716l14.865 5.918-5.917 14.865a2 2 0 103.716 1.479l6.657-16.723zm-74.179 30.695l-1.609-1.188 1.609 1.188zm.818-.649l-.791-1.837.791 1.837zm-26.1 30.49l1.623-1.17-1.623 1.17zm3.232.019l-1.609-1.189 1.609 1.189zm-27.726-30.764l-1.085-1.68 1.085 1.68zm2.708.511l-1.623 1.169 1.623-1.169zm-26.23 12.466l1.6-1.2-1.6 1.2zm2.685.48l-1.085-1.68 1.085 1.68zm-24.514-29.585l1.6-1.2-1.6 1.2zm-24.71 11.904l-.98-1.743.98 1.743zm-24.798 3.582l1.299 1.521-1.299-1.521zm1.051-.463l-.248-1.985.248 1.985zm-25.853 18.74l1.65-1.131-1.65 1.131zm2.949.39l-1.299-1.521 1.299 1.521zm-27.393-31.795l1.437 1.39-1.437-1.39zm3.087.259l-1.65 1.131 1.65-1.131zm-72.947 74.87l71.297-73.739-2.875-2.781-71.298 73.74 2.876 2.78zm71.297-73.739l21.358 31.146 3.299-2.262-21.358-31.146-3.299 2.262zm27.255 31.925l21.853-18.666-2.598-3.041-21.853 18.666 2.598 3.041zm21.853-18.666l23.015-2.877-.496-3.969-23.015 2.877.496 3.969zm24.48-3.36l22.129-12.447-1.961-3.486-22.129 12.447 1.961 3.486zm22.129-12.447l21.829 29.105 3.2-2.4-21.829-29.105-3.2 2.4zm27.199 30.066l20.837-13.458-2.17-3.36-20.837 13.457 2.17 3.361zm20.837-13.458l21.787 30.234 3.245-2.339-21.786-30.233-3.246 2.338zm28.249 30.272l22.051-29.86-3.218-2.376-22.05 29.859 3.217 2.377zm22.051-29.86l71.503-30.786-1.582-3.674-71.503 30.786 1.582 3.674zm0 0l-1.582-3.674a3.997 3.997 0 00-1.636 1.298l3.218 2.376zm-28.513 29.822c1.584 2.199 4.852 2.218 6.462.038l-3.217-2.377-3.245 2.339zm-21.787-30.234l3.246-2.338a4 4 0 00-5.416-1.022l2.17 3.36zm-26.207 12.497a4 4 0 005.37.961l-2.17-3.361-3.2 2.4zm-21.829-29.105l3.2-2.4a4 4 0 00-5.161-1.086l1.961 3.486zm-23.594 12.93a3.981 3.981 0 001.465-.483l-1.961-3.486.496 3.969zm-23.015 2.877l-.496-3.969a4.003 4.003 0 00-2.102.928l2.598 3.041zm-27.75 17.887a4 4 0 005.897.779l-2.598-3.041-3.299 2.262zm-21.358-31.146l3.299-2.262a4 4 0 00-6.174-.519l2.875 2.781z" fill="#ABABAB"/><path d="M160.169 275c-.002-54.667 80-54.666 80 0" stroke="#C8C8C8" stroke-opacity=".3" stroke-width="4"/><path d="M116.169 275c-.004-121.334 168-121.333 168 0" stroke="#C8C8C8" stroke-opacity=".3" stroke-width="8"/><path d="M68.169 275c-.007-193.334 264-193.333 264 0" stroke="#C8C8C8" stroke-opacity=".3" stroke-width="12"/></svg>