<svg width="586" height="502" fill="none" xmlns="http://www.w3.org/2000/svg"><path d="M1.777 382.023s11.973-24.432 39.127-31.708c22.216-5.952 38.306 10.959 58.914 5.437 23.666-6.341 45.052-34.71 42.688-43.531-5.047-18.836-26.758 59.685-36.206 104.429-10.494 49.701 54.109 80.229 88.731 70.952l118.435-31.734c28.054-7.517 75.847-61.735 36.283-102.379-24.443-25.111-120.555-107.978-124.049-121.018L169.357 22.197s-2.528-9.436 6.928-16.984c.319-.254.485-.686.27-1.032-5.945-9.544-85.904 12.583-86.874 23.238-.04.428.355.728.783.765 14.167 1.21 16.704 10.676 16.704 10.676l56.343 210.275c3.235 12.074-29.641 114.36-43.015 160.605-13.374 46.246 41.131 70.878 70.551 62.995L309.482 441c26.403-7.074 54.42-46.269 36.163-71.918-5.059-7.107-30.007-34.406-43.343-45.844-28.9-24.788-165.261 24.611-160.343 42.964 4.917 18.352 167.424-19.55 149.84-31.921-17.583-12.371-40.267 22.721-22.368 82.657 20.166 67.531 74.373 95.97 143.919 77.335 69.547-18.635 99.262-83.538 84.522-138.545-11.938-44.55-52.049-76.415-107.999-81.003-8.166-.67-13.463-3.052-15.294-9.886l-13.407-50.033c-.46-6.597 3.37-10.286 9.938-15.06.336-.244.501-.701.209-.997-5.601-5.669-69.062 10.227-69.865 18.803-.034.365.272.644.629.73 7.089 1.704 11.624 3.069 15.002 8.338l13.406 50.032c1.332 4.97-.636 12.529-7.681 16.042-34.638 17.272-60.591 55.106-50.135 101.581 2.923 10.906 10.595 15.702 20.421 16.322 73.835 4.663 138.16-106.436 178.599-75.29 11.915 9.177 19.118 26.918 18.568 51.912-.98 44.549-38.523 84.186-79.76 96.429-41.236 12.243-91.238 5.294-120.855-47.28-9.147-16.238-28.125-48.94-4.434-60.982 39.636-20.147 97.459-11.62 128.378-12.14 30.919-.52 55.702-11.526 69.562-23.816 17.566-15.577 31.526-15.641 50.322-15.037 21.013.676 35.594 3.404 51.16-15.778" stroke="#2B2B2B" stroke-width="3"/></svg>