<svg width="284" height="390" fill="none" xmlns="http://www.w3.org/2000/svg"><g opacity=".4"><circle cx="378.5" cy="162.5" r="227" stroke="url(#paint0_linear_11_7)"/><circle cx="378.5" cy="162.5" r="227" stroke="url(#paint1_linear_11_7)"/><path d="M182.196 63.71v.133h-.245v.488h-.156v-.488H181v-.12l.555-1.275.133.056-.519 1.206h.626l.019-.543h.137v.543h.245zm.762-1.231v1.852h-.159v-1.674l-.448.284-.073-.12.543-.342h.137zm.612 1.618a.12.12 0 01.093.039.123.123 0 01.038.092.135.135 0 01-.038.097.126.126 0 01-.093.036.132.132 0 01-.131-.134c0-.036.013-.067.038-.091a.127.127 0 01.093-.04zm1.205-.747a.77.77 0 01.306.204.44.44 0 01.098.295.482.482 0 01-.076.27.499.499 0 01-.211.178.705.705 0 01-.308.064.706.706 0 01-.309-.064.494.494 0 01-.205-.178.508.508 0 01-.071-.267c0-.238.13-.41.391-.515a.636.636 0 01-.238-.173.417.417 0 01-.074-.253.437.437 0 01.26-.407.604.604 0 01.502-.003.443.443 0 01.189.156.42.42 0 01.074.25c0 .097-.027.18-.08.251a.735.735 0 01-.248.193zm-.538-.437c0 .09.024.16.073.212a.737.737 0 00.263.148l.084.03a.666.666 0 00.219-.172.35.35 0 00.068-.218.32.32 0 00-.098-.247.362.362 0 00-.257-.09.364.364 0 00-.254.09.316.316 0 00-.098.247zm.349 1.312a.46.46 0 00.309-.097.347.347 0 00.117-.279.363.363 0 00-.041-.184.349.349 0 00-.125-.128 1.288 1.288 0 00-.238-.114l-.093-.036a.59.59 0 00-.267.186.455.455 0 00-.082.279c0 .119.038.21.114.276a.458.458 0 00.306.097zm1.69.105v-.141h.969v.142h-.969zm.56-1.442v.424h.409v.139h-.409v.423h-.151v-.423h-.409v-.14h.409v-.423h.151zm2.112-.44c.188 0 .33.082.427.245.096.162.144.4.144.713 0 .312-.049.55-.147.713a.466.466 0 01-.424.242.468.468 0 01-.426-.242c-.096-.163-.144-.402-.144-.715 0-.314.048-.552.144-.713a.468.468 0 01.426-.243zm0 .134c-.271 0-.407.274-.407.822 0 .549.136.824.407.824.133 0 .234-.067.301-.2.069-.134.104-.341.104-.622 0-.28-.035-.487-.104-.62-.067-.136-.168-.204-.301-.204zm1.033 1.515c.038 0 .069.013.092.039a.12.12 0 01.039.092.132.132 0 01-.039.097.122.122 0 01-.092.036.124.124 0 01-.093-.039.129.129 0 01-.039-.094.12.12 0 01.039-.092.124.124 0 01.093-.04zm.898-1.649c.102 0 .19.02.265.062.077.04.135.096.175.167.04.068.06.146.06.234a.43.43 0 01-.101.295.432.432 0 01-.257.139c.119.006.216.05.292.13a.45.45 0 01.118.332.575.575 0 01-.071.287.506.506 0 01-.205.198.637.637 0 01-.303.07.658.658 0 01-.522-.24l.101-.092a.639.639 0 00.191.15c.068.03.142.045.224.045a.414.414 0 00.309-.114.41.41 0 00.112-.301c0-.26-.137-.39-.41-.39h-.12l.022-.13h.087a.39.39 0 00.265-.095.35.35 0 00.11-.276.314.314 0 00-.096-.242.35.35 0 00-.254-.092.515.515 0 00-.21.041.64.64 0 00-.194.131l-.085-.1a.745.745 0 01.229-.156.664.664 0 01.268-.053zm2.425-.055c.104 0 .191.014.262.044a.803.803 0 01.219.131l-.088.111a.686.686 0 00-.183-.11.554.554 0 00-.199-.034.53.53 0 00-.432.206c-.109.137-.164.349-.164.635 0 .185.026.341.077.467.051.127.12.22.207.282.09.06.191.089.304.089a.583.583 0 00.226-.04.863.863 0 00.189-.119l.084.109a.698.698 0 01-.505.197.692.692 0 01-.391-.114.769.769 0 01-.267-.334 1.355 1.355 0 01-.096-.537c0-.21.034-.388.101-.535a.769.769 0 01.271-.334.68.68 0 01.385-.114zm1.619.927a.52.52 0 01.312.14c.08.075.12.19.12.342 0 .178-.059.31-.178.398-.118.087-.283.13-.494.13h-.511v-1.907h.418c.217 0 .383.04.5.12.118.08.177.199.177.356a.413.413 0 01-.095.285.41.41 0 01-.249.136zm-.587-.758v.7h.377c.116 0 .21-.031.281-.092a.33.33 0 00.107-.26c0-.124-.042-.213-.126-.267-.082-.054-.205-.08-.369-.08h-.27zm.347 1.63c.335 0 .502-.13.502-.39 0-.138-.041-.24-.125-.307a.502.502 0 00-.328-.1h-.396v.797h.347zm1.1-.095a.12.12 0 01.093.039.123.123 0 01.038.092.135.135 0 01-.038.097.126.126 0 01-.093.036.124.124 0 01-.093-.039.128.128 0 01-.038-.094.12.12 0 01.038-.092.124.124 0 01.093-.04zm2.407-1.674l-.024.148h-.869v1.76h-.164v-1.908h1.057zm.807-.03c.153 0 .287.038.401.114a.724.724 0 01.268.334c.064.148.096.328.096.537 0 .206-.032.384-.096.532a.743.743 0 01-.265.337.714.714 0 01-.404.114.706.706 0 01-.399-.114.743.743 0 01-.268-.334 1.345 1.345 0 01-.095-.532c0-.206.032-.383.095-.532a.76.76 0 01.268-.34.7.7 0 01.399-.116zm0 .142a.51.51 0 00-.432.214c-.105.141-.158.352-.158.632 0 .277.053.486.158.627a.517.517 0 00.432.211c.187 0 .333-.07.437-.209.104-.14.156-.351.156-.632 0-.282-.053-.492-.159-.632a.508.508 0 00-.434-.211zm2.395 1.654v.546h-.126l-.033-.404h-1.177l-.033.403h-.126v-.545h.121a.54.54 0 00.109-.17 1.55 1.55 0 00.082-.3c.025-.136.054-.332.087-.588l.085-.708h.874v1.766h.137zm-.301-1.624h-.565l-.069.568a8.266 8.266 0 01-.082.571 1.394 1.394 0 01-.087.31.493.493 0 01-.126.175h.929v-1.624zm1.791 1.765l-.164-.52h-.787l-.164.52h-.166l.625-1.907h.205l.623 1.908h-.172zm-.904-.662h.696l-.347-1.108-.349 1.108zm1.861-1.601a4.145 4.145 0 00-.232.392 1.79 1.79 0 00-.142.39 2.198 2.198 0 00-.052.507c0 .191.017.36.052.507.036.147.084.278.142.393.058.113.136.243.232.39l-.101.066a5.654 5.654 0 01-.268-.415 1.859 1.859 0 01-.158-.403 2.054 2.054 0 01-.063-.538c0-.204.021-.383.063-.537a1.86 1.86 0 01.158-.404 5.55 5.55 0 01.268-.415l.101.067zm.893.412v1.852h-.159v-1.674l-.448.284-.074-.12.544-.342h.137zm.945-.031c.153 0 .274.046.363.137.091.09.137.208.137.35a.8.8 0 01-.074.34 1.612 1.612 0 01-.232.349c-.104.126-.272.314-.505.565h.86l-.022.142h-1.024v-.137c.249-.27.428-.471.535-.601.11-.132.186-.245.23-.34a.723.723 0 00.068-.309.357.357 0 00-.096-.262.325.325 0 00-.248-.097.463.463 0 00-.224.053.644.644 0 00-.183.158l-.109-.083a.728.728 0 01.234-.2.644.644 0 01.29-.065zm.974 1.649a.12.12 0 01.093.039.123.123 0 01.038.092.135.135 0 01-.038.097.126.126 0 01-.093.036.132.132 0 01-.131-.134c0-.036.013-.067.038-.091a.127.127 0 01.093-.04zm1.205-.747a.77.77 0 01.306.204.44.44 0 01.098.295.482.482 0 01-.076.27.499.499 0 01-.211.178.705.705 0 01-.308.064.706.706 0 01-.309-.064.494.494 0 01-.205-.178.508.508 0 01-.071-.267c0-.238.13-.41.391-.515a.636.636 0 01-.238-.173.417.417 0 01-.074-.253.437.437 0 01.26-.407.604.604 0 01.502-.003.449.449 0 01.189.156.42.42 0 01.074.25c0 .097-.027.18-.08.251a.735.735 0 01-.248.193zm-.538-.437c0 .09.024.16.073.212a.737.737 0 00.263.148l.084.03a.666.666 0 00.219-.172.35.35 0 00.068-.218.32.32 0 00-.098-.247.363.363 0 00-.257-.09.362.362 0 00-.254.09.316.316 0 00-.098.247zm.349 1.312c.13 0 .232-.032.309-.097a.347.347 0 00.117-.279.363.363 0 00-.041-.184.349.349 0 00-.125-.128 1.288 1.288 0 00-.238-.114l-.093-.036a.59.59 0 00-.267.186.455.455 0 00-.082.279c0 .119.038.21.114.276a.458.458 0 00.306.097zm1.342-1.777c.102 0 .19.02.265.062a.435.435 0 01.235.4.43.43 0 01-.101.296.435.435 0 01-.257.139.41.41 0 01.292.13c.078.08.118.191.118.332a.575.575 0 01-.071.287.513.513 0 01-.205.198.641.641 0 01-.304.07.654.654 0 01-.521-.24l.101-.092a.627.627 0 00.191.15c.067.03.142.045.224.045a.414.414 0 00.309-.114.414.414 0 00.112-.301c0-.26-.137-.39-.41-.39h-.12l.022-.13h.087a.39.39 0 00.265-.095.35.35 0 00.109-.276.317.317 0 00-.095-.242.352.352 0 00-.254-.092.523.523 0 00-.211.041.653.653 0 00-.194.131l-.084-.1a.733.733 0 01.229-.156.657.657 0 01.268-.053zm1.676 1.882v-.141h.97v.142h-.97zm.56-1.442v.424h.41v.139h-.41v.423h-.15v-.423h-.41v-.14h.41v-.423h.15zm2.113-.44c.187 0 .33.082.426.245.097.162.145.4.145.713 0 .312-.049.55-.148.713a.463.463 0 01-.423.242.466.466 0 01-.426-.242c-.097-.163-.145-.402-.145-.715 0-.314.048-.552.145-.713a.466.466 0 01.426-.243zm0 .134c-.271 0-.407.274-.407.822 0 .549.136.824.407.824.133 0 .233-.067.3-.2.07-.134.104-.341.104-.622 0-.28-.034-.487-.104-.62-.067-.136-.167-.204-.3-.204zm1.032 1.515a.12.12 0 01.093.039.123.123 0 01.038.092.135.135 0 01-.038.097.126.126 0 01-.093.036.132.132 0 01-.131-.134c0-.036.013-.067.038-.091a.127.127 0 01.093-.04zm1.006-1.649c.188 0 .33.082.426.245.097.162.145.4.145.713 0 .312-.049.55-.148.713a.463.463 0 01-.423.242.466.466 0 01-.426-.242c-.097-.163-.145-.402-.145-.715 0-.314.048-.552.145-.713a.466.466 0 01.426-.243zm0 .134c-.271 0-.407.274-.407.822 0 .549.136.824.407.824.133 0 .233-.067.301-.2.069-.134.103-.341.103-.622 0-.28-.034-.487-.103-.62-.068-.136-.168-.204-.301-.204zm1.421-.134c.184 0 .321.066.412.198.093.13.139.313.139.549 0 .24-.033.435-.101.587a.852.852 0 01-.297.365c-.13.09-.301.17-.514.237l-.041-.126c.251-.078.443-.184.574-.32.133-.135.206-.321.218-.557a.625.625 0 01-.196.192.494.494 0 01-.252.067.473.473 0 01-.254-.07.503.503 0 01-.177-.203.724.724 0 01-.063-.312c0-.122.023-.229.071-.32a.513.513 0 01.199-.212.54.54 0 01.282-.075zm-.03 1.059a.394.394 0 00.229-.07.727.727 0 00.191-.209c.002-.22-.028-.383-.09-.487-.062-.106-.16-.159-.295-.159a.36.36 0 00-.289.125c-.07.082-.104.199-.104.351 0 .143.032.254.095.331a.326.326 0 00.263.117zm3.023-1.084v1.908h-.164v-1.763h-.882v1.763h-.164v-1.908h1.21zm1.754 0l-.549.897.596 1.01h-.189l-.546-.935h-.295v.936h-.164v-1.908h.164v.833h.297l.514-.833h.172zm.329-.423c.113.161.202.3.265.415.066.115.12.25.162.404a2.1 2.1 0 01.062.537 2.1 2.1 0 01-.062.538 1.719 1.719 0 01-.162.403 4.677 4.677 0 01-.265.415l-.101-.067c.097-.146.174-.276.233-.39.058-.114.104-.245.139-.392.036-.147.054-.316.054-.507s-.018-.36-.054-.507a1.74 1.74 0 00-.139-.39 4.177 4.177 0 00-.233-.392l.101-.067zm.919 2.097a.12.12 0 01.093.039.123.123 0 01.038.092.4.4 0 01-.041.153l-.153.37h-.115l.11-.41a.117.117 0 01-.047-.046.139.139 0 01-.016-.067c0-.037.013-.068.038-.092a.124.124 0 01.093-.04zm0-1.086a.12.12 0 01.093.039.123.123 0 01.038.092.135.135 0 01-.038.097.126.126 0 01-.093.036.132.132 0 01-.131-.134c0-.036.013-.067.038-.091a.124.124 0 01.093-.04zm1.514-.588v1.908h-.164v-1.908h.164zm.981 0l-.776.877.822 1.03h-.199l-.817-1.021.781-.886h.189zm.661.025c.153 0 .274.046.363.137.091.09.136.208.136.35a.796.796 0 01-.073.34 1.65 1.65 0 01-.232.349 14.15 14.15 0 01-.506.565h.861l-.022.142h-1.025v-.137c.25-.27.428-.471.536-.601.109-.132.186-.245.229-.34a.71.71 0 00.069-.309.357.357 0 00-.096-.262.328.328 0 00-.249-.097.468.468 0 00-.224.053.672.672 0 00-.183.158l-.109-.083a.73.73 0 01.235-.2.641.641 0 01.29-.065zm.973 1.649c.039 0 .07.013.093.039a.12.12 0 01.039.092.132.132 0 01-.039.097.123.123 0 01-.093.036.123.123 0 01-.092-.039.129.129 0 01-.039-.094.12.12 0 01.039-.092.123.123 0 01.092-.04zm1.418-1.484h-.738v.632a.618.618 0 01.312-.087c.156 0 .28.052.371.156.093.102.139.243.139.42a.71.71 0 01-.073.327.539.539 0 01-.511.3.68.68 0 01-.514-.222l.099-.098c.058.063.12.11.185.14.066.03.142.044.23.044a.383.383 0 00.306-.13.55.55 0 00.112-.363c0-.148-.035-.259-.104-.331a.353.353 0 00-.276-.112.505.505 0 00-.156.023.7.7 0 00-.147.066h-.126v-.899h.915l-.024.134zm1.59-.19l-.61 1.908h-.183l-.611-1.908h.177l.527 1.735.53-1.735h.17zm.298 1.674a.12.12 0 01.093.039.123.123 0 01.038.092.4.4 0 01-.041.153l-.153.37h-.115l.109-.41a.115.115 0 01-.046-.046.139.139 0 01-.016-.067.12.12 0 01.038-.092.124.124 0 01.093-.04zm0-1.086a.12.12 0 01.093.039.123.123 0 01.038.092.135.135 0 01-.038.097.126.126 0 01-.093.036.124.124 0 01-.093-.039.128.128 0 01-.038-.094.12.12 0 01.038-.092.124.124 0 01.093-.04zm1.235.468v-.142h.97v.142h-.97zm1.91-1.031c.188 0 .33.082.426.245.097.162.145.4.145.713 0 .312-.049.55-.147.713a.466.466 0 01-.424.242.468.468 0 01-.426-.242c-.096-.163-.145-.402-.145-.715 0-.314.049-.552.145-.713a.468.468 0 01.426-.243zm0 .134c-.271 0-.407.274-.407.822 0 .549.136.824.407.824.133 0 .233-.067.301-.2.069-.134.104-.341.104-.622 0-.28-.035-.487-.104-.62-.068-.136-.168-.204-.301-.204zm1.032 1.515c.039 0 .07.013.093.039a.12.12 0 01.038.092.131.131 0 01-.038.097.123.123 0 01-.093.036.132.132 0 01-.131-.134c0-.036.013-.067.038-.091a.127.127 0 01.093-.04zm.899-1.649c.102 0 .19.02.265.062a.43.43 0 01.175.167c.04.068.06.146.06.234a.43.43 0 01-.101.295.432.432 0 01-.257.139.41.41 0 01.292.13.45.45 0 01.118.332.575.575 0 01-.071.287.513.513 0 01-.205.198.64.64 0 01-.303.07.655.655 0 01-.522-.24l.101-.092a.639.639 0 00.191.15c.068.03.142.045.224.045a.414.414 0 00.309-.114.41.41 0 00.112-.301c0-.26-.137-.39-.41-.39h-.12l.022-.13h.087a.39.39 0 00.265-.095.35.35 0 00.109-.276.314.314 0 00-.095-.242.352.352 0 00-.254-.092.523.523 0 00-.211.041.666.666 0 00-.194.131l-.084-.1a.745.745 0 01.229-.156.66.66 0 01.268-.053zm1.445.031v1.852h-.158v-1.674l-.448.284-.074-.12.543-.342h.137zm1.282 1.851v-.141h.97v.142h-.97zm.56-1.442v.424h.41v.139h-.41v.423h-.15v-.423h-.41v-.14h.41v-.423h.15zm2.113-.44c.188 0 .33.082.426.245.097.162.145.4.145.713 0 .312-.049.55-.147.713a.466.466 0 01-.424.242.468.468 0 01-.426-.242c-.097-.163-.145-.402-.145-.715 0-.314.048-.552.145-.713a.468.468 0 01.426-.243zm0 .134c-.271 0-.407.274-.407.822 0 .549.136.824.407.824.133 0 .233-.067.301-.2.069-.134.103-.341.103-.622 0-.28-.034-.487-.103-.62-.068-.136-.168-.204-.301-.204zm1.032 1.515a.12.12 0 01.093.039.12.12 0 01.038.092.131.131 0 01-.038.097.126.126 0 01-.093.036.132.132 0 01-.131-.134c0-.036.013-.067.038-.091a.127.127 0 01.093-.04zm1.006-1.649c.188 0 .33.082.426.245.097.162.145.4.145.713 0 .312-.049.55-.147.713a.466.466 0 01-.424.242.468.468 0 01-.426-.242c-.096-.163-.145-.402-.145-.715 0-.314.049-.552.145-.713a.468.468 0 01.426-.243zm0 .134c-.271 0-.407.274-.407.822 0 .549.136.824.407.824.133 0 .233-.067.301-.2.069-.134.104-.341.104-.622 0-.28-.035-.487-.104-.62-.068-.136-.168-.204-.301-.204zm1.328-.134c.102 0 .19.02.265.062a.43.43 0 01.175.167c.04.068.06.146.06.234a.43.43 0 01-.101.295.432.432 0 01-.257.139.41.41 0 01.292.13.45.45 0 01.118.332.575.575 0 01-.071.287.513.513 0 01-.205.198.64.64 0 01-.303.07.655.655 0 01-.522-.24l.101-.092a.639.639 0 00.191.15c.068.03.142.045.224.045a.414.414 0 00.309-.114.41.41 0 00.112-.301c0-.26-.137-.39-.41-.39h-.12l.022-.13h.087a.39.39 0 00.265-.095.35.35 0 00.109-.276.314.314 0 00-.095-.242.352.352 0 00-.254-.092.523.523 0 00-.211.041.666.666 0 00-.194.131l-.084-.1a.745.745 0 01.229-.156.66.66 0 01.268-.053zm1.006 1.649a.12.12 0 01.093.039.12.12 0 01.038.092c0 .04-.013.092-.041.153l-.153.37h-.114l.109-.41a.117.117 0 01-.047-.046.139.139 0 01-.016-.067c0-.037.013-.068.038-.092a.127.127 0 01.093-.04zm0-1.086a.12.12 0 01.093.039.12.12 0 01.038.092.131.131 0 01-.038.097.126.126 0 01-.093.036.132.132 0 01-.131-.134c0-.036.013-.067.038-.091a.127.127 0 01.093-.04zm1.845-.532v1.852h-.158v-1.674l-.448.284-.074-.12.543-.342h.137zm.612 1.618a.12.12 0 01.093.039.123.123 0 01.038.092.135.135 0 01-.038.097.126.126 0 01-.093.036.132.132 0 01-.131-.134c0-.036.013-.067.038-.091a.127.127 0 01.093-.04zm.899-1.649c.153 0 .274.046.363.137.091.09.137.208.137.35a.8.8 0 01-.074.34 1.612 1.612 0 01-.232.349c-.104.126-.272.314-.505.565h.86l-.022.142h-1.024v-.137c.249-.27.428-.471.535-.601a1.68 1.68 0 00.23-.34.723.723 0 00.068-.309.357.357 0 00-.096-.262.326.326 0 00-.248-.097.463.463 0 00-.224.053.644.644 0 00-.183.158l-.11-.083a.741.741 0 01.235-.2.641.641 0 01.29-.065zm-66.836 2.868a4.176 4.176 0 00-.233.392 1.844 1.844 0 00-.194.897c0 .191.018.36.052.507.037.146.084.277.142.392.059.114.136.243.233.39l-.101.067a5.32 5.32 0 01-.268-.415 1.808 1.808 0 01-.159-.404 2.1 2.1 0 01-.062-.537 2.1 2.1 0 01.062-.538c.042-.154.095-.288.159-.403a5.32 5.32 0 01.268-.415l.101.067zm.38.751l.951.471v.15l-.951.477-.057-.134.866-.418-.866-.41.057-.136zm-.044 1.513v-.142h.97v.141h-.97zm2.684-1.883c.187 0 .329.082.426.245.096.162.145.4.145.713 0 .312-.049.55-.148.713a.463.463 0 01-.423.242.466.466 0 01-.426-.242c-.097-.163-.145-.402-.145-.716 0-.314.048-.551.145-.713a.465.465 0 01.426-.242zm0 .134c-.272 0-.407.274-.407.821 0 .55.135.825.407.825.133 0 .233-.067.3-.201.069-.134.104-.34.104-.621 0-.28-.035-.487-.104-.621-.067-.136-.167-.203-.3-.203zm1.032 1.515a.12.12 0 01.093.039.123.123 0 01.038.091.135.135 0 01-.038.098.125.125 0 01-.093.036.124.124 0 01-.093-.039.128.128 0 01-.038-.094.12.12 0 01.038-.092.124.124 0 01.093-.04zm.899-1.649c.153 0 .274.046.363.136a.475.475 0 01.137.351.8.8 0 01-.074.34 1.645 1.645 0 01-.232.348c-.104.127-.273.315-.506.566h.861l-.022.141h-1.025v-.136c.25-.271.428-.471.536-.601a1.63 1.63 0 00.229-.34.71.71 0 00.069-.31.357.357 0 00-.096-.261.328.328 0 00-.249-.097.47.47 0 00-.224.052.671.671 0 00-.183.16l-.109-.084a.732.732 0 01.235-.2.641.641 0 01.29-.065zm.941-.448c.113.161.201.3.265.415.065.115.119.25.161.403.042.155.063.334.063.538 0 .204-.021.383-.063.537a1.762 1.762 0 01-.161.404 4.904 4.904 0 01-.265.415l-.101-.067a4.38 4.38 0 00.232-.39c.058-.115.105-.246.139-.392.037-.147.055-.316.055-.507s-.018-.36-.055-.507a1.692 1.692 0 00-.139-.39 4.145 4.145 0 00-.232-.392l.101-.067zm3.315 2.331h-.159l-.084-.914a23.541 23.541 0 01-.071-.83l-.47 1.518h-.156l-.486-1.518c-.009.18-.027.419-.055.716l-.008.109-.082.918h-.156l.178-1.907h.227l.464 1.484.448-1.484h.229l.181 1.907zm1.651-1.908v1.907h-.164v-1.762h-.68l-.112.93a4.52 4.52 0 01-.076.498.555.555 0 01-.107.234.453.453 0 01-.205.126l-.041-.134a.292.292 0 00.137-.097.48.48 0 00.065-.187c.017-.082.038-.227.063-.434l.131-1.081h.989zm1.048 0c.222 0 .392.047.511.142.12.093.18.236.18.429 0 .204-.063.355-.189.451-.124.095-.294.142-.51.142h-.268v.743h-.164v-1.907h.44zm-.008 1.028c.169 0 .299-.035.39-.103.091-.07.137-.186.137-.351 0-.156-.045-.268-.134-.334-.088-.07-.217-.104-.388-.104h-.273v.892h.268zm2.156.738v.545h-.125l-.033-.404h-1.177l-.033.404h-.126v-.546h.12a.525.525 0 00.11-.17c.029-.066.056-.166.082-.3.025-.136.054-.332.087-.588l.085-.707h.874v1.766h.136zm-.3-1.624h-.566l-.068.568a8.27 8.27 0 01-.082.571 1.395 1.395 0 01-.087.31.493.493 0 01-.126.174h.929v-1.623zm.753 1.532c.038 0 .069.013.092.039a.12.12 0 01.039.091.132.132 0 01-.039.098.121.121 0 01-.092.036.124.124 0 01-.093-.039.129.129 0 01-.039-.094.12.12 0 01.039-.092.124.124 0 01.093-.04zm2.511-1.674v1.907h-.164v-1.762h-.68l-.112.93a4.466 4.466 0 01-.077.498.555.555 0 01-.106.234.453.453 0 01-.205.126l-.041-.134a.297.297 0 00.137-.097.48.48 0 00.065-.187 7.59 7.59 0 00.063-.434l.131-1.081h.989zm1.558 0l-.019.14h-.767v.71h.663v.139h-.663v.78h.805v.138h-.969v-1.907h.95zm1.469 0l-.019.148h-.549v1.76h-.161v-1.76h-.555v-.148h1.284zm.2 1.674a.12.12 0 01.093.039.123.123 0 01.038.091.4.4 0 01-.041.154l-.153.37h-.115l.109-.41a.115.115 0 01-.046-.047.138.138 0 01-.016-.067.12.12 0 01.038-.091.124.124 0 01.093-.04zm0-1.086a.12.12 0 01.093.039.123.123 0 01.038.091.135.135 0 01-.038.098.125.125 0 01-.093.036.124.124 0 01-.093-.039.128.128 0 01-.038-.094c0-.038.012-.068.038-.092a.124.124 0 01.093-.04zm2.366.699v.133h-.246v.487h-.155v-.487h-.795v-.12l.554-1.275.134.056-.519 1.206h.626l.019-.544h.136v.543h.246zm.738-1.262c.184 0 .321.066.413.198.092.13.139.313.139.548 0 .24-.034.436-.101.588a.86.86 0 01-.298.365c-.129.09-.3.17-.514.236l-.041-.125c.252-.078.443-.185.574-.32.133-.136.206-.321.219-.557a.64.64 0 01-.197.192.489.489 0 01-.251.067.469.469 0 01-.254-.07.505.505 0 01-.178-.203.724.724 0 01-.063-.312c0-.122.024-.23.071-.32a.534.534 0 01.481-.287zm-.03 1.058a.391.391 0 00.229-.07.728.728 0 00.192-.208c.001-.221-.029-.384-.09-.487-.062-.106-.161-.16-.296-.16a.359.359 0 00-.289.126.53.53 0 00-.104.35.51.51 0 00.096.332.324.324 0 00.262.117zm1.795-1.027v.125l-.716 1.749-.147-.05.699-1.688h-.85v-.136h1.014zm1.192 0v.125l-.716 1.749-.147-.05.699-1.688h-.849v-.136h1.013zm1.049 1.852v-.142h.969v.141h-.969zm.56-1.443v.423h.409v.14h-.409v.423h-.151V66.7h-.409v-.14h.409v-.423h.151zm2.468-.276h-.738v.632a.618.618 0 01.312-.086c.156 0 .28.052.371.156.093.102.139.242.139.42a.71.71 0 01-.073.326.54.54 0 01-.511.301.68.68 0 01-.514-.223l.099-.097c.058.063.12.11.185.14a.565.565 0 00.23.044.382.382 0 00.306-.131.55.55 0 00.112-.362c0-.149-.035-.26-.104-.332a.353.353 0 00-.276-.11.508.508 0 00-.156.021.7.7 0 00-.147.067h-.126v-.9h.915l-.024.134zm.881-.164c.184 0 .322.066.413.198.092.13.139.313.139.548 0 .24-.034.436-.101.588a.86.86 0 01-.298.365c-.129.09-.3.17-.513.236l-.041-.125c.251-.078.442-.185.573-.32.133-.136.206-.321.219-.557a.63.63 0 01-.197.192.489.489 0 01-.251.067.469.469 0 01-.254-.07.505.505 0 01-.178-.203.724.724 0 01-.063-.312c0-.122.024-.23.071-.32a.536.536 0 01.481-.287zm-.03 1.058a.396.396 0 00.23-.07.74.74 0 00.191-.208c.002-.221-.028-.384-.09-.487a.318.318 0 00-.295-.16.36.36 0 00-.29.126.53.53 0 00-.104.35.51.51 0 00.096.332.324.324 0 00.262.117zm1.977-1.083v1.907h-.163v-1.907h.163zm.981 0l-.776.877.823 1.03h-.2l-.817-1.021.782-.886h.188z" fill="#363636"/><circle cx="177" cy="59" r="2" fill="#CD3232"/></g><path d="M11.93 108.219s24.286-19.88 48.738-3.509c7.235 4.844 10.819 10.889 18.991 13.891 7.985 2.934 19.01-1.661 26.156-6.351 2.616-1.716 4.961-8.983-2.035-10.858-8.91-2.387-20.556 59.116-18.306 64.341 1.984 4.608 65.394 24.026 69.456 22.077 2.794-1.341 3.501-26.916 5.928-30.784 2.133-3.399 7.434 2.877 11.444 2.716 7.995-.322 14.231-12.879 3.071-17.953-3.582-1.629-9.32 1.305-9.733-2.608-.492-4.656 5.165-18.099 5.165-22.564 0-2.465-16.62-5.954-20.645-6.622-2.205-.367-.924-4.337 3.281-9.998 6.45-8.682-16.868-16.395-16.868-3.474 0 4.217.728 9.569-2.976 8.187-3.705-1.382-27.72-6.425-31.503-9.178-3.805-2.768 12.984-65.717 19.348-67.72 5.068-1.595 66.106 14.261 67.968 17.364 1.489 2.48-4.992 17.364-4.992 23.921 0 3.2.12 3.68 7.473 3.366 17.364-.744 7.441 24.06-2.481 15.875-4.114-3.393-6.449-6.775-8.904-4.64-6.475 5.633-9.191 25.218-7.65 28.552 1.1 2.382 19.51 7.014 22.863 6.819 8.079-.468.233-4.918 2.869-9.074 6.41-10.107 16.49-6.377 17.364 4.638.457 5.749-8.186 3.968-2.237 9.954 2.861 2.879 26.153 4.924 28.378 8.302 2.232 3.39-14.677 71.488-19.996 74.626-7.386 4.356-139.622-31.116-142.438-38.166-3.327-8.329 25.082-143.832 38.309-147.986 13.227-4.154 145.24 30.132 144.121 39.441-.966 8.035-11.658 57.582-15.875 63.783-5.853 8.608-9.548-4.088-1.24-8.962 18.604-10.915 36.469 23.504 48.619 26.164 22.821 4.997 45.147-5.327 45.147-5.327" stroke="#1F1F1F" stroke-width="2"/><defs><linearGradient id="paint0_linear_11_7" x1="378.5" y1="-65" x2="378.5" y2="390" gradientUnits="userSpaceOnUse"><stop stop-color="silver"/><stop offset="1" stop-opacity="0"/></linearGradient><linearGradient id="paint1_linear_11_7" x1="177.354" y1="57.535" x2="146.045" y2="151.688" gradientUnits="userSpaceOnUse"><stop stop-color="silver" stop-opacity="0"/><stop offset=".021" stop-color="red"/><stop offset="1" stop-opacity="0"/></linearGradient></defs></svg>