<svg width="215" height="294" fill="none" xmlns="http://www.w3.org/2000/svg"><g opacity=".4"><circle cx="-49" cy="187" r="186.5" stroke="url(#paint0_linear_11_6)"/><circle cx="-49" cy="187" r="186.5" stroke="url(#paint1_linear_11_6)"/><path d="M139.558 151.04v1.328h-.13v-1.2l-.367.204-.061-.086.446-.246h.112zm1.354.883v.096h-.201v.349h-.128v-.349h-.652v-.086l.455-.915.109.04-.426.865h.514l.016-.39h.112v.39h.201zm.926-.883v.09l-.587 1.254-.121-.036.574-1.21h-.697v-.098h.831zm1.323-.022c.154 0 .27.059.349.176.08.116.119.286.119.511 0 .224-.04.394-.121.511a.394.394 0 01-.347.174.396.396 0 01-.35-.174c-.079-.117-.119-.288-.119-.513 0-.225.04-.395.119-.511a.396.396 0 01.35-.174zm0 .096c-.223 0-.334.196-.334.589 0 .394.111.591.334.591a.267.267 0 00.246-.144c.057-.095.085-.244.085-.445s-.028-.349-.085-.445a.265.265 0 00-.246-.146zm1.165-.096c.151 0 .264.047.339.142.076.093.114.224.114.393a.924.924 0 01-.083.422.632.632 0 01-.244.261 1.624 1.624 0 01-.421.17l-.034-.09a1.15 1.15 0 00.471-.229.558.558 0 00.179-.4.45.45 0 01-.368.186.386.386 0 01-.354-.196.469.469 0 01-.051-.224c0-.087.019-.164.058-.229a.394.394 0 01.164-.152.485.485 0 01.23-.054zm-.024.759a.36.36 0 00.188-.05.567.567 0 00.157-.15c.002-.158-.023-.275-.074-.349-.051-.076-.131-.114-.242-.114-.1 0-.179.03-.238.09-.056.058-.085.142-.085.251 0 .103.026.182.079.238a.282.282 0 00.215.084zm1.369-.112c.115.041.198.09.251.146.053.055.08.125.08.212a.318.318 0 01-.062.193.39.39 0 01-.173.128.645.645 0 01-.253.046.65.65 0 01-.254-.046.397.397 0 01-.168-.128.324.324 0 01-.058-.191c0-.171.107-.294.32-.37a.525.525 0 01-.195-.124.273.273 0 01-.06-.181c0-.068.019-.128.058-.178a.352.352 0 01.155-.114.563.563 0 01.412-.002.358.358 0 01.155.112c.04.049.061.109.061.18a.266.266 0 01-.065.179.603.603 0 01-.204.138zm-.442-.313c0 .063.02.114.06.151a.614.614 0 00.216.106l.069.022a.517.517 0 00.179-.124.223.223 0 00.057-.155.213.213 0 00-.081-.178.322.322 0 00-.211-.064.32.32 0 00-.208.064.213.213 0 00-.081.178zm.287.94c.106 0 .19-.023.253-.07a.235.235 0 00.097-.199.24.24 0 00-.034-.132.267.267 0 00-.103-.092 1.13 1.13 0 00-.195-.082l-.076-.026a.487.487 0 00-.22.134.299.299 0 00-.067.2.23.23 0 00.094.197c.063.047.146.07.251.07zm1.736-1.274c.125 0 .225.033.298.098a.318.318 0 01.112.252c0 .086-.02.167-.06.243a1.197 1.197 0 01-.191.25 9.83 9.83 0 01-.415.405h.706l-.018.102h-.84v-.098a12.3 12.3 0 00.439-.431c.09-.095.153-.176.188-.244a.452.452 0 00.057-.221.24.24 0 00-.079-.188.289.289 0 00-.204-.07.418.418 0 00-.334.152l-.09-.06a.583.583 0 01.193-.144.584.584 0 01.238-.046zm1.118 0c.151 0 .264.047.338.142.077.093.115.224.115.393a.938.938 0 01-.083.422.64.64 0 01-.245.261 1.61 1.61 0 01-.421.17l-.034-.09c.207-.056.363-.132.471-.229a.558.558 0 00.179-.4.446.446 0 01-.367.186.436.436 0 01-.209-.05.377.377 0 01-.145-.146.458.458 0 01-.052-.224.4.4 0 01.222-.381.492.492 0 01.231-.054zm-.025.759c.07 0 .133-.017.189-.05a.564.564 0 00.156-.15c.002-.158-.023-.275-.074-.349-.05-.076-.131-.114-.242-.114-.1 0-.179.03-.237.09-.057.058-.085.142-.085.251 0 .103.026.182.078.238a.285.285 0 00.215.084zm1.23-.759c.154 0 .27.059.35.176.079.116.118.286.118.511 0 .224-.04.394-.121.511a.394.394 0 01-.347.174.396.396 0 01-.35-.174c-.079-.117-.119-.288-.119-.513 0-.225.04-.395.119-.511a.396.396 0 01.35-.174zm0 .096c-.223 0-.334.196-.334.589 0 .394.111.591.334.591a.27.27 0 00.247-.144c.056-.095.085-.244.085-.445s-.029-.349-.085-.445a.267.267 0 00-.247-.146zm2.432-.114l-.45.643.489.725h-.155l-.448-.671h-.243v.671h-.134V151h.134v.597h.245l.421-.597h.141zm1.638 1.368h-.13l-.069-.655a17.021 17.021 0 01-.059-.595l-.385 1.088h-.128l-.399-1.088c-.008.129-.022.3-.045.513l-.007.078-.067.659h-.128l.146-1.368h.186l.381 1.065.368-1.065h.188l.148 1.368zm1.396-1.35c.154 0 .271.059.35.176.079.116.119.286.119.511 0 .224-.041.394-.121.511a.394.394 0 01-.348.174.395.395 0 01-.349-.174c-.08-.117-.119-.288-.119-.513 0-.225.039-.395.119-.511a.395.395 0 01.349-.174zm0 .096c-.222 0-.334.196-.334.589 0 .394.112.591.334.591a.268.268 0 00.247-.144c.057-.095.085-.244.085-.445s-.028-.349-.085-.445a.266.266 0 00-.247-.146zm.847 1.086c.032 0 .057.01.076.028.021.018.032.04.032.066 0 .03-.011.066-.034.11l-.125.266h-.094l.089-.294a.09.09 0 01-.051-.082c0-.026.01-.048.031-.066a.113.113 0 01.076-.028zm.742-1.182c.151 0 .263.047.338.142.076.093.114.224.114.393a.924.924 0 01-.083.422.632.632 0 01-.244.261 1.61 1.61 0 01-.421.17l-.034-.09a1.15 1.15 0 00.471-.229.558.558 0 00.179-.4.45.45 0 01-.367.186.386.386 0 01-.355-.196.469.469 0 01-.051-.224c0-.087.019-.164.058-.229a.394.394 0 01.164-.152.486.486 0 01.231-.054zm-.025.759a.36.36 0 00.188-.05.567.567 0 00.157-.15c.002-.158-.023-.275-.074-.349-.051-.076-.131-.114-.242-.114-.1 0-.179.03-.238.09-.056.058-.085.142-.085.251 0 .103.026.182.079.238a.284.284 0 00.215.084zm1.369-.112c.115.041.198.09.251.146.054.055.08.125.08.212 0 .073-.02.137-.062.193a.39.39 0 01-.173.128.645.645 0 01-.253.046.65.65 0 01-.254-.046.397.397 0 01-.168-.128.324.324 0 01-.058-.191c0-.171.107-.294.321-.37a.508.508 0 01-.195-.124.268.268 0 01-.061-.181c0-.068.019-.128.058-.178a.352.352 0 01.155-.114.563.563 0 01.412-.002.358.358 0 01.155.112.27.27 0 01.061.18.266.266 0 01-.065.179.603.603 0 01-.204.138zm-.442-.313c0 .063.02.114.061.151a.599.599 0 00.215.106l.069.022a.533.533 0 00.18-.124.227.227 0 00.056-.155.213.213 0 00-.081-.178.322.322 0 00-.211-.064.323.323 0 00-.208.064.213.213 0 00-.081.178zm.287.94a.41.41 0 00.253-.07.233.233 0 00.097-.199.231.231 0 00-.034-.132.267.267 0 00-.103-.092 1.066 1.066 0 00-.195-.082l-.076-.026a.493.493 0 00-.22.134.299.299 0 00-.067.2.23.23 0 00.094.197c.063.047.146.07.251.07zm1.101-1.274a.5.5 0 01.217.044.33.33 0 01.144.12.293.293 0 01.049.168.284.284 0 01-.083.211.364.364 0 01-.211.1.356.356 0 01.24.094.3.3 0 01.097.238c0 .077-.02.145-.059.205a.382.382 0 01-.168.142.57.57 0 01-.249.05.572.572 0 01-.428-.172l.083-.066c.051.05.103.086.157.108a.494.494 0 00.184.032.363.363 0 00.253-.082.27.27 0 00.092-.215c0-.187-.112-.28-.336-.28h-.099l.018-.094h.072a.343.343 0 00.217-.068.234.234 0 00.09-.197.211.211 0 00-.078-.174.315.315 0 00-.209-.066c-.063 0-.12.01-.172.03a.526.526 0 00-.16.094l-.069-.072a.612.612 0 01.408-.15zm1.077 0c.126 0 .225.033.298.098a.318.318 0 01.112.252c0 .086-.02.167-.06.243-.04.076-.104.159-.191.25-.085.09-.223.226-.414.405h.706l-.018.102h-.841v-.098c.205-.194.351-.338.44-.431.089-.095.152-.176.188-.244a.462.462 0 00.056-.221.236.236 0 00-.079-.188.286.286 0 00-.204-.07.413.413 0 00-.183.038.506.506 0 00-.151.114l-.089-.06a.583.583 0 01.193-.144.58.58 0 01.237-.046zm1.118 0c.151 0 .264.047.339.142.076.093.114.224.114.393a.938.938 0 01-.083.422.638.638 0 01-.244.261 1.618 1.618 0 01-.422.17l-.033-.09a1.14 1.14 0 00.47-.229.559.559 0 00.18-.4.443.443 0 01-.368.186.43.43 0 01-.208-.05.38.38 0 01-.146-.146.469.469 0 01-.052-.224c0-.087.02-.164.059-.229a.398.398 0 01.163-.152.492.492 0 01.231-.054zm-.024.759a.36.36 0 00.188-.05.567.567 0 00.157-.15c.001-.158-.023-.275-.074-.349-.051-.076-.132-.114-.242-.114-.1 0-.18.03-.238.09-.057.058-.085.142-.085.251 0 .103.026.182.078.238a.286.286 0 00.216.084zm1.224-.737v1.328h-.13v-1.2l-.368.204-.061-.086.447-.246h.112zm.767-.022c.083 0 .156.015.217.044a.322.322 0 01.143.12c.033.049.05.105.05.168a.284.284 0 01-.083.211.364.364 0 01-.211.1.36.36 0 01.24.094.302.302 0 01.096.238.367.367 0 01-.226.347.577.577 0 01-.249.05.572.572 0 01-.428-.172l.083-.066c.051.05.103.086.157.108a.49.49 0 00.184.032.365.365 0 00.253-.082.274.274 0 00.092-.215c0-.187-.112-.28-.336-.28h-.099l.018-.094h.072a.345.345 0 00.217-.068.234.234 0 00.09-.197.21.21 0 00-.079-.174.313.313 0 00-.208-.066.48.48 0 00-.173.03.534.534 0 00-.159.094l-.069-.072a.6.6 0 01.408-.15zm1.66.905v.096h-.202v.349h-.128v-.349h-.652v-.086l.455-.915.11.04-.426.865h.513l.016-.39h.112v.39h.202zm1.79.445l-.134-.373h-.646l-.134.373h-.137l.513-1.368h.169l.511 1.368h-.142zm-.742-.475h.572l-.285-.795-.287.795zm1.158.307c.031 0 .057.01.076.028.021.018.032.04.032.066a.09.09 0 01-.032.07.111.111 0 01-.076.026.108.108 0 01-.076-.028.087.087 0 01-.032-.068c0-.026.011-.048.032-.066a.113.113 0 01.076-.028zm1.262-1.2l-.016.1h-.629v.509h.544v.1h-.544v.559h.661v.1h-.796V151h.78zm.349 1.2c.032 0 .057.01.076.028.021.018.032.04.032.066 0 .03-.011.066-.034.11l-.125.266h-.095l.09-.294a.09.09 0 01-.051-.082c0-.026.01-.048.031-.066a.113.113 0 01.076-.028zm0-.779c.032 0 .057.01.076.028.021.018.032.04.032.066a.09.09 0 01-.032.07.105.105 0 01-.076.026.108.108 0 01-.076-.028.086.086 0 01-.031-.068c0-.026.01-.048.031-.066a.113.113 0 01.076-.028zm1.514-.381v1.328h-.13v-1.2l-.368.204-.06-.086.446-.246h.112zm1.179.096h-.605v.453a.568.568 0 01.256-.062c.128 0 .23.038.305.112a.4.4 0 01.114.302c0 .086-.02.164-.061.233a.4.4 0 01-.168.16.525.525 0 01-.251.056.594.594 0 01-.421-.16l.08-.07a.464.464 0 00.341.132c.106 0 .19-.031.251-.094a.355.355 0 00.092-.259c0-.107-.028-.186-.085-.238a.313.313 0 00-.226-.08.453.453 0 00-.128.016.58.58 0 00-.121.048h-.103v-.645h.751l-.021.096zm.665-.118c.126 0 .225.033.298.098a.318.318 0 01.112.252c0 .086-.02.167-.06.243-.04.076-.104.159-.191.25-.085.09-.223.226-.414.405h.706l-.018.102h-.841v-.098c.205-.194.351-.338.44-.431.089-.095.152-.176.188-.244a.462.462 0 00.056-.221.236.236 0 00-.079-.188.285.285 0 00-.203-.07.415.415 0 00-.184.038.506.506 0 00-.151.114l-.089-.06a.583.583 0 01.193-.144.58.58 0 01.237-.046zm1.811 0c.154 0 .271.059.35.176.079.116.119.286.119.511 0 .224-.041.394-.121.511a.395.395 0 01-.348.174.398.398 0 01-.35-.174c-.079-.117-.118-.288-.118-.513 0-.225.039-.395.118-.511a.398.398 0 01.35-.174zm0 .096c-.223 0-.334.196-.334.589 0 .394.111.591.334.591a.27.27 0 00.247-.144c.056-.095.085-.244.085-.445s-.029-.349-.085-.445a.267.267 0 00-.247-.146zm1.166-.096c.151 0 .264.047.338.142.077.093.115.224.115.393a.938.938 0 01-.083.422.64.64 0 01-.245.261 1.61 1.61 0 01-.421.17l-.034-.09c.207-.056.364-.132.471-.229a.558.558 0 00.179-.4.446.446 0 01-.367.186.436.436 0 01-.209-.05.377.377 0 01-.145-.146.458.458 0 01-.052-.224.4.4 0 01.222-.381.492.492 0 01.231-.054zm-.025.759c.07 0 .133-.017.189-.05a.564.564 0 00.156-.15c.002-.158-.023-.275-.074-.349-.05-.076-.131-.114-.242-.114-.1 0-.179.03-.237.09-.057.058-.085.142-.085.251 0 .103.026.182.078.238a.285.285 0 00.215.084zm1.369-.112c.115.041.199.09.251.146a.289.289 0 01.081.212.312.312 0 01-.063.193.384.384 0 01-.173.128.642.642 0 01-.253.046.642.642 0 01-.253-.046.385.385 0 01-.168-.128.325.325 0 01-.059-.191c0-.171.107-.294.321-.37a.525.525 0 01-.195-.124.273.273 0 01-.061-.181c0-.068.02-.128.059-.178a.343.343 0 01.154-.114.563.563 0 01.413-.002.355.355 0 01.154.112.27.27 0 01.061.18.266.266 0 01-.065.179.583.583 0 01-.204.138zm-.442-.313c0 .063.021.114.061.151a.608.608 0 00.215.106l.07.022a.538.538 0 00.179-.124.227.227 0 00.056-.155.213.213 0 00-.081-.178.32.32 0 00-.21-.064.324.324 0 00-.209.064.213.213 0 00-.081.178zm.287.94a.416.416 0 00.254-.07.234.234 0 00.096-.199.231.231 0 00-.034-.132.26.26 0 00-.103-.092 1.066 1.066 0 00-.195-.082l-.076-.026a.499.499 0 00-.22.134.299.299 0 00-.067.2.23.23 0 00.094.197.41.41 0 00.251.07zm1.736-1.274c.126 0 .225.033.298.098a.318.318 0 01.112.252c0 .086-.02.167-.06.243-.04.076-.104.159-.191.25-.085.09-.223.226-.414.405h.706l-.018.102h-.841v-.098c.205-.194.351-.338.44-.431.089-.095.152-.176.188-.244a.462.462 0 00.056-.221.239.239 0 00-.078-.188.289.289 0 00-.204-.07.415.415 0 00-.184.038.49.49 0 00-.15.114l-.09-.06a.583.583 0 01.193-.144.58.58 0 01.237-.046zm1.053 0a.5.5 0 01.217.044.33.33 0 01.144.12.293.293 0 01.049.168.28.28 0 01-.083.211.361.361 0 01-.21.1.355.355 0 01.239.094.3.3 0 01.097.238c0 .077-.02.145-.058.205a.39.39 0 01-.169.142.57.57 0 01-.248.05.574.574 0 01-.429-.172l.083-.066c.051.05.104.086.157.108a.498.498 0 00.184.032.363.363 0 00.253-.082.27.27 0 00.092-.215c0-.187-.112-.28-.336-.28h-.099l.018-.094h.072a.348.348 0 00.218-.068.236.236 0 00.089-.197.211.211 0 00-.078-.174.315.315 0 00-.209-.066.51.51 0 00-.331.124l-.07-.072a.624.624 0 01.408-.15zm1.077 0c.126 0 .225.033.298.098a.318.318 0 01.113.252.515.515 0 01-.061.243c-.04.076-.104.159-.191.25-.085.09-.223.226-.414.405h.706l-.018.102h-.841v-.098c.205-.194.352-.338.44-.431.089-.095.152-.176.188-.244a.462.462 0 00.056-.221.239.239 0 00-.078-.188.289.289 0 00-.204-.07.418.418 0 00-.334.152l-.09-.06a.583.583 0 01.193-.144.58.58 0 01.237-.046zm2.385-.018l-.451.643.489.725h-.154l-.449-.671h-.242v.671h-.134V151h.134v.597h.244l.422-.597h.141zm1.638 1.368h-.13l-.07-.655a16.56 16.56 0 01-.058-.595l-.386 1.088h-.127l-.399-1.088c-.008.129-.023.3-.045.513l-.007.078-.067.659h-.128l.146-1.368h.186l.381 1.065.367-1.065h.189l.148 1.368zm1.434-1.328v1.328h-.13v-1.2l-.368.204-.06-.086.446-.246h.112zm.502 1.16a.11.11 0 01.077.028c.021.018.031.04.031.066 0 .03-.011.066-.034.11l-.125.266h-.094l.089-.294a.09.09 0 01-.051-.082c0-.026.01-.048.031-.066a.115.115 0 01.076-.028zm.826-1.182c.154 0 .271.059.35.176.079.116.119.286.119.511 0 .224-.041.394-.122.511a.394.394 0 01-.347.174.396.396 0 01-.35-.174c-.079-.117-.119-.288-.119-.513 0-.225.04-.395.119-.511a.396.396 0 01.35-.174zm0 .096c-.223 0-.334.196-.334.589 0 .394.111.591.334.591a.27.27 0 00.247-.144c.056-.095.085-.244.085-.445s-.029-.349-.085-.445a.267.267 0 00-.247-.146zm1.207-.074v1.328h-.13v-1.2l-.368.204-.06-.086.446-.246h.112zm.935.463c.115 0 .21.036.285.108.075.071.112.174.112.31 0 .094-.02.178-.058.249a.4.4 0 01-.157.164.441.441 0 01-.224.056c-.165 0-.285-.056-.361-.168-.075-.113-.112-.264-.112-.453 0-.153.021-.286.065-.399a.557.557 0 01.186-.26.46.46 0 01.287-.092c.1 0 .192.026.278.078l-.057.08a.433.433 0 00-.224-.062.332.332 0 00-.289.162.78.78 0 00-.114.423c.1-.13.228-.196.383-.196zm-.042.791c.098 0 .174-.033.226-.1a.419.419 0 00.081-.269c0-.111-.027-.193-.079-.246a.27.27 0 00-.204-.08.375.375 0 00-.206.06.539.539 0 00-.159.16.67.67 0 00.087.353c.054.082.138.122.254.122zm1.396-1.254v.09l-.587 1.254-.121-.036.574-1.21h-.698v-.098h.832zm.684 0v1.328h-.13v-1.2l-.368.204-.06-.086.446-.246h.112zm.767-.022a.5.5 0 01.217.044.33.33 0 01.144.12.293.293 0 01.049.168.284.284 0 01-.083.211.364.364 0 01-.211.1.356.356 0 01.24.094.3.3 0 01.097.238c0 .077-.02.145-.059.205a.382.382 0 01-.168.142.57.57 0 01-.249.05.572.572 0 01-.428-.172l.083-.066c.051.05.103.086.157.108a.494.494 0 00.184.032.363.363 0 00.253-.082.27.27 0 00.092-.215c0-.187-.112-.28-.336-.28h-.099l.018-.094h.072a.343.343 0 00.217-.068.234.234 0 00.09-.197.211.211 0 00-.078-.174.315.315 0 00-.209-.066c-.063 0-.12.01-.172.03a.526.526 0 00-.16.094l-.069-.072a.612.612 0 01.408-.15zm1.35.647c.115.041.199.09.251.146a.289.289 0 01.081.212.312.312 0 01-.063.193.387.387 0 01-.172.128.65.65 0 01-.254.046.645.645 0 01-.253-.046.385.385 0 01-.168-.128.325.325 0 01-.059-.191c0-.171.107-.294.321-.37a.525.525 0 01-.195-.124.273.273 0 01-.061-.181c0-.068.02-.128.059-.178a.349.349 0 01.154-.114.563.563 0 01.413-.002.364.364 0 01.155.112c.04.049.06.109.06.18a.266.266 0 01-.065.179.583.583 0 01-.204.138zm-.441-.313c0 .063.02.114.06.151a.617.617 0 00.215.106l.07.022a.538.538 0 00.179-.124.227.227 0 00.056-.155.213.213 0 00-.081-.178.32.32 0 00-.21-.064.326.326 0 00-.209.064.213.213 0 00-.08.178zm.286.94a.414.414 0 00.254-.07.234.234 0 00.096-.199.24.24 0 00-.033-.132.27.27 0 00-.104-.092 1.066 1.066 0 00-.195-.082l-.076-.026a.499.499 0 00-.22.134.304.304 0 00-.067.2c0 .085.032.151.094.197a.41.41 0 00.251.07zm1.361-.627c.115.041.199.09.251.146a.289.289 0 01.081.212.312.312 0 01-.063.193.387.387 0 01-.172.128.647.647 0 01-.254.046.645.645 0 01-.253-.046.385.385 0 01-.168-.128.324.324 0 01-.058-.191c0-.171.107-.294.32-.37a.525.525 0 01-.195-.124.273.273 0 01-.06-.181c0-.068.019-.128.058-.178a.346.346 0 01.155-.114.563.563 0 01.412-.002.364.364 0 01.155.112c.04.049.06.109.06.18a.262.262 0 01-.065.179.583.583 0 01-.204.138zm-.441-.313c0 .063.02.114.06.151a.617.617 0 00.215.106l.07.022a.527.527 0 00.179-.124.222.222 0 00.056-.155.215.215 0 00-.08-.178.324.324 0 00-.211-.064.326.326 0 00-.209.064.215.215 0 00-.08.178zm.287.94c.106 0 .19-.023.253-.07a.234.234 0 00.096-.199.24.24 0 00-.033-.132.274.274 0 00-.103-.092 1.13 1.13 0 00-.195-.082l-.077-.026a.49.49 0 00-.219.134.3.3 0 00-.068.2.23.23 0 00.095.197c.062.047.146.07.251.07zm2.318.076l-.134-.373h-.646l-.134.373h-.137l.513-1.368h.169l.511 1.368h-.142zm-.742-.475h.572l-.285-.795-.287.795zm1.158.307c.031 0 .057.01.076.028.021.018.032.04.032.066a.09.09 0 01-.032.07.111.111 0 01-.076.026.108.108 0 01-.076-.028.087.087 0 01-.032-.068c0-.026.011-.048.032-.066a.113.113 0 01.076-.028zm1.262-1.2l-.015.1h-.63v.509h.544v.1h-.544v.559h.661v.1h-.796V151h.78zm.349 1.2a.11.11 0 01.077.028c.02.018.031.04.031.066a.092.092 0 01-.031.07.114.114 0 01-.077.026.108.108 0 01-.076-.028.086.086 0 01-.031-.068c0-.026.01-.048.031-.066a.113.113 0 01.076-.028zm.464 0a.11.11 0 01.077.028c.021.018.031.04.031.066 0 .03-.011.066-.034.11l-.125.266h-.094l.089-.294a.09.09 0 01-.051-.082c0-.026.01-.048.031-.066a.115.115 0 01.076-.028zm0-.779a.11.11 0 01.077.028c.021.018.031.04.031.066 0 .028-.01.052-.031.07a.109.109 0 01-.077.026.11.11 0 01-.076-.028.086.086 0 01-.031-.068c0-.026.01-.048.031-.066a.115.115 0 01.076-.028zm-59.334 1.949v1.328h-.13v-1.2l-.367.204-.061-.086.446-.246h.112zm1.354.883v.096h-.201v.349h-.128v-.349h-.652v-.086l.455-.915.109.04-.426.865h.514l.016-.389h.112v.389h.201zm.606-.905c.151 0 .264.047.338.142.076.093.115.224.115.393a.938.938 0 01-.083.422.65.65 0 01-.245.262 1.647 1.647 0 01-.421.169l-.034-.09c.206-.055.363-.132.471-.229a.556.556 0 00.179-.4.45.45 0 01-.367.186.433.433 0 01-.209-.05.38.38 0 01-.146-.146.467.467 0 01-.051-.223.4.4 0 01.222-.382.492.492 0 01.231-.054zm-.025.759a.35.35 0 00.188-.05.54.54 0 00.157-.15c.002-.158-.023-.275-.074-.349-.05-.076-.131-.114-.242-.114-.1 0-.179.03-.237.09-.057.059-.086.142-.086.252 0 .102.027.181.079.237a.284.284 0 00.215.084zm2.147-.641h-.605v.453a.564.564 0 01.256-.061c.128 0 .23.037.305.111a.401.401 0 01.114.302c0 .087-.02.164-.061.234a.403.403 0 01-.168.159.528.528 0 01-.251.056.598.598 0 01-.421-.159l.08-.07a.498.498 0 00.153.1.514.514 0 00.188.032c.106 0 .19-.032.251-.094a.362.362 0 00.092-.26c0-.107-.028-.186-.085-.238a.313.313 0 00-.226-.08.492.492 0 00-.249.064h-.103v-.645h.751l-.021.096zm.724-.118c.151 0 .263.047.338.142.076.093.114.224.114.393a.938.938 0 01-.082.422.65.65 0 01-.245.262 1.647 1.647 0 01-.421.169l-.034-.09c.206-.055.363-.132.471-.229a.556.556 0 00.179-.4.45.45 0 01-.367.186.433.433 0 01-.209-.05.38.38 0 01-.146-.146.467.467 0 01-.051-.223.44.44 0 01.058-.23.394.394 0 01.164-.152.489.489 0 01.231-.054zm-.025.759a.35.35 0 00.188-.05.54.54 0 00.157-.15c.002-.158-.023-.275-.074-.349-.051-.076-.131-.114-.242-.114-.1 0-.179.03-.237.09-.057.059-.086.142-.086.252 0 .102.026.181.079.237a.284.284 0 00.215.084zm1.369-.112a.64.64 0 01.251.146.289.289 0 01.081.212.315.315 0 01-.063.194.396.396 0 01-.173.127.645.645 0 01-.253.046.642.642 0 01-.253-.046.4.4 0 01-.169-.127.335.335 0 01-.058-.192c0-.171.107-.294.321-.37a.52.52 0 01-.195-.123.27.27 0 01-.061-.182.29.29 0 01.058-.178.352.352 0 01.155-.114.568.568 0 01.413-.002.36.36 0 01.154.112.27.27 0 01.061.18.27.27 0 01-.065.18.617.617 0 01-.204.137zm-.442-.313c0 .064.02.114.061.152a.627.627 0 00.215.105l.069.022a.547.547 0 00.18-.123.231.231 0 00.056-.156.215.215 0 00-.081-.178.322.322 0 00-.211-.064.323.323 0 00-.208.064.215.215 0 00-.081.178zm.287.941a.417.417 0 00.253-.07.235.235 0 00.097-.2.236.236 0 00-.034-.132.267.267 0 00-.103-.092 1.141 1.141 0 00-.195-.082l-.076-.026a.502.502 0 00-.22.134.299.299 0 00-.067.2c0 .085.031.151.094.198.063.046.146.07.251.07zm1.736-1.275c.126 0 .225.033.298.098a.318.318 0 01.112.252c0 .086-.02.168-.06.243-.041.076-.104.16-.191.25a9.705 9.705 0 01-.415.406h.707l-.018.101h-.841v-.097c.205-.195.351-.339.439-.432.09-.094.153-.176.189-.244a.462.462 0 00.056-.221.238.238 0 00-.079-.188.289.289 0 00-.204-.07.435.435 0 00-.184.038.515.515 0 00-.15.114l-.089-.06a.594.594 0 01.192-.144.605.605 0 01.238-.046zm1.232.486c.115 0 .21.036.285.107.074.071.112.174.112.31 0 .095-.02.178-.059.25a.392.392 0 01-.157.163.436.436 0 01-.224.056c-.164 0-.284-.056-.361-.167a.822.822 0 01-.112-.454c0-.153.022-.286.065-.399a.576.576 0 01.186-.26.465.465 0 01.287-.092c.1 0 .193.026.278.078l-.056.08a.446.446 0 00-.224-.062.332.332 0 00-.289.162.783.783 0 00-.114.423c.1-.13.227-.195.383-.195zm-.043.791a.274.274 0 00.227-.1.427.427 0 00.08-.27c0-.111-.026-.192-.078-.246a.27.27 0 00-.204-.08.373.373 0 00-.206.06.517.517 0 00-.159.16.674.674 0 00.087.354c.054.081.138.122.253.122zm1.111-1.255v1.328h-.13v-1.2l-.368.204-.06-.086.446-.246h.112zm2.088-.04l-.451.643.489.725h-.155l-.448-.671h-.242v.671h-.135v-1.368h.135v.597h.244l.422-.597h.141zm1.638 1.368h-.13l-.07-.655a16.342 16.342 0 01-.058-.595l-.386 1.089h-.128l-.399-1.089c-.007.129-.022.3-.044.513l-.007.078-.067.659h-.128l.146-1.368h.186l.381 1.065.367-1.065h.189l.148 1.368zm1.434-1.328v1.328h-.13v-1.2l-.368.204-.06-.086.446-.246h.112zm.502 1.161c.032 0 .057.009.076.028a.081.081 0 01.032.066.247.247 0 01-.034.109l-.125.266h-.095l.09-.294a.09.09 0 01-.051-.081.08.08 0 01.031-.066.108.108 0 01.076-.028zm.826-1.183c.154 0 .27.059.35.176.079.116.118.286.118.511 0 .224-.04.394-.121.512a.395.395 0 01-.347.173.398.398 0 01-.35-.173c-.079-.118-.119-.289-.119-.514 0-.225.04-.395.119-.511a.396.396 0 01.35-.174zm0 .096c-.223 0-.334.196-.334.589 0 .394.111.592.334.592a.267.267 0 00.246-.144c.057-.096.086-.245.086-.446s-.029-.349-.086-.445a.267.267 0 00-.246-.146zm1.232-.096c.154 0 .271.059.35.176.079.116.119.286.119.511 0 .224-.041.394-.121.512a.396.396 0 01-.348.173.396.396 0 01-.349-.173c-.08-.118-.119-.289-.119-.514 0-.225.039-.395.119-.511a.395.395 0 01.349-.174zm0 .096c-.222 0-.334.196-.334.589 0 .394.112.592.334.592a.268.268 0 00.247-.144c.057-.096.085-.245.085-.446s-.028-.349-.085-.445a.268.268 0 00-.247-.146zm1.233-.096c.154 0 .27.059.35.176.079.116.118.286.118.511 0 .224-.04.394-.121.512a.395.395 0 01-.347.173.398.398 0 01-.35-.173c-.079-.118-.119-.289-.119-.514 0-.225.04-.395.119-.511a.396.396 0 01.35-.174zm0 .096c-.223 0-.334.196-.334.589 0 .394.111.592.334.592a.267.267 0 00.246-.144c.057-.096.086-.245.086-.446s-.029-.349-.086-.445a.267.267 0 00-.246-.146zm1.232-.096c.154 0 .271.059.35.176.079.116.119.286.119.511 0 .224-.041.394-.121.512a.396.396 0 01-.348.173.396.396 0 01-.349-.173c-.08-.118-.119-.289-.119-.514 0-.225.039-.395.119-.511a.395.395 0 01.349-.174zm0 .096c-.222 0-.334.196-.334.589 0 .394.112.592.334.592a.268.268 0 00.247-.144c.057-.096.085-.245.085-.446s-.028-.349-.085-.445a.268.268 0 00-.247-.146zm1.233-.096c.154 0 .27.059.35.176.079.116.118.286.118.511 0 .224-.04.394-.121.512a.395.395 0 01-.347.173.398.398 0 01-.35-.173c-.079-.118-.119-.289-.119-.514 0-.225.04-.395.119-.511a.396.396 0 01.35-.174zm0 .096c-.223 0-.334.196-.334.589 0 .394.111.592.334.592a.267.267 0 00.246-.144c.057-.096.086-.245.086-.446s-.029-.349-.086-.445a.267.267 0 00-.246-.146zm1.09-.096c.125 0 .225.033.298.098a.32.32 0 01.112.252.5.5 0 01-.061.243c-.04.076-.104.16-.19.25-.085.091-.224.226-.415.406h.706l-.018.101h-.84v-.097c.204-.195.351-.339.439-.432a1.16 1.16 0 00.188-.244.451.451 0 00.056-.221.24.24 0 00-.078-.188.289.289 0 00-.204-.07.432.432 0 00-.184.038.515.515 0 00-.15.114l-.09-.06a.597.597 0 01.193-.144.598.598 0 01.238-.046zm1.231.486c.116 0 .21.036.285.107.075.071.112.174.112.31a.516.516 0 01-.058.25.398.398 0 01-.157.163.438.438 0 01-.224.056c-.165 0-.285-.056-.361-.167a.814.814 0 01-.112-.454c0-.153.022-.286.065-.399a.562.562 0 01.186-.26.463.463 0 01.287-.092c.1 0 .193.026.278.078l-.056.08a.448.448 0 00-.224-.062.333.333 0 00-.29.162.801.801 0 00-.114.423c.1-.13.228-.195.383-.195zm-.042.791a.272.272 0 00.226-.1.422.422 0 00.081-.27c0-.111-.026-.192-.078-.246a.27.27 0 00-.204-.08.379.379 0 00-.207.06.539.539 0 00-.159.16.683.683 0 00.088.354c.053.081.138.122.253.122zm1.111-1.255v1.328h-.13v-1.2l-.368.204-.061-.086.446-.246h.113zm1.984 1.328l-.134-.373h-.646l-.134.373h-.137l.513-1.368h.168l.512 1.368h-.142zm-.742-.475h.572l-.285-.795-.287.795zm1.158.308c.031 0 .057.009.076.028a.081.081 0 01.032.066.089.089 0 01-.032.069.106.106 0 01-.076.026.108.108 0 01-.076-.028.086.086 0 01-.032-.067c0-.027.011-.049.032-.066a.108.108 0 01.076-.028zm1.262-1.201l-.016.1h-.63v.509h.545v.1h-.545v.56h.662v.099h-.796v-1.368h.78zm.349 1.201c.032 0 .057.009.076.028a.081.081 0 01.032.066.089.089 0 01-.032.069.105.105 0 01-.076.026.108.108 0 01-.076-.028.085.085 0 01-.031-.067.08.08 0 01.031-.066.108.108 0 01.076-.028zm1.476-1.183c.154 0 .27.059.35.176.079.116.118.286.118.511 0 .224-.04.394-.121.512a.395.395 0 01-.347.173.398.398 0 01-.35-.173c-.079-.118-.119-.289-.119-.514 0-.225.04-.395.119-.511a.396.396 0 01.35-.174zm0 .096c-.223 0-.334.196-.334.589 0 .394.111.592.334.592a.27.27 0 00.247-.144c.056-.096.085-.245.085-.446s-.029-.349-.085-.445a.27.27 0 00-.247-.146zm.847 1.087c.031 0 .057.009.076.028a.08.08 0 01.031.066.257.257 0 01-.033.109l-.126.266h-.094l.09-.294a.084.084 0 01-.038-.034.086.086 0 01-.014-.047c0-.027.011-.049.032-.066a.108.108 0 01.076-.028zm.825-1.183c.154 0 .271.059.35.176.079.116.119.286.119.511 0 .224-.04.394-.121.512a.396.396 0 01-.348.173.397.397 0 01-.349-.173c-.079-.118-.119-.289-.119-.514 0-.225.04-.395.119-.511a.396.396 0 01.349-.174zm0 .096c-.222 0-.334.196-.334.589 0 .394.112.592.334.592.11 0 .192-.048.247-.144.057-.096.085-.245.085-.446s-.028-.349-.085-.445a.267.267 0 00-.247-.146zm1.208-.074v1.328h-.13v-1.2l-.368.204-.061-.086.446-.246h.113zm.935.464c.115 0 .21.036.284.107.075.071.112.174.112.31a.516.516 0 01-.058.25.398.398 0 01-.157.163.438.438 0 01-.224.056c-.164 0-.285-.056-.361-.167a.814.814 0 01-.112-.454c0-.153.022-.286.065-.399a.562.562 0 01.186-.26.463.463 0 01.287-.092c.1 0 .193.026.278.078l-.056.08a.448.448 0 00-.224-.062.33.33 0 00-.289.162.792.792 0 00-.115.423c.1-.13.228-.195.384-.195zm-.043.791a.27.27 0 00.226-.1.422.422 0 00.081-.27c0-.111-.026-.192-.078-.246a.27.27 0 00-.204-.08.379.379 0 00-.207.06.539.539 0 00-.159.16.683.683 0 00.088.354c.053.081.138.122.253.122zm1.397-1.255v.09l-.588 1.254-.121-.036.574-1.21h-.697v-.098h.832zm.683 0v1.328h-.13v-1.2l-.367.204-.061-.086.446-.246h.112zm.9 0v1.328h-.13v-1.2l-.367.204-.061-.086.446-.246h.112zm.776-.022c.126 0 .225.033.298.098a.318.318 0 01.112.252c0 .086-.02.168-.06.243-.041.076-.104.16-.191.25-.085.091-.223.226-.414.406h.706l-.018.101h-.841v-.097c.205-.195.351-.339.439-.432.09-.094.153-.176.189-.244a.462.462 0 00.056-.221.238.238 0 00-.079-.188.286.286 0 00-.204-.07.428.428 0 00-.334.152l-.089-.06a.594.594 0 01.192-.144.605.605 0 01.238-.046zm1.053 0a.5.5 0 01.217.044.33.33 0 01.144.12.293.293 0 01.049.168.284.284 0 01-.083.211.364.364 0 01-.211.1.36.36 0 01.24.094.3.3 0 01.097.238.37.37 0 01-.227.347.57.57 0 01-.249.05.575.575 0 01-.428-.171l.083-.066a.527.527 0 00.157.108.515.515 0 00.184.032.368.368 0 00.253-.082.274.274 0 00.092-.216c0-.187-.112-.28-.336-.28h-.099l.018-.094h.072a.343.343 0 00.217-.068.234.234 0 00.09-.197.214.214 0 00-.078-.174.315.315 0 00-.209-.066c-.063 0-.12.01-.172.03a.548.548 0 00-.16.094l-.069-.072a.612.612 0 01.408-.15z" fill="#363636"/><circle cx="134.5" cy="152.5" r="1.5" fill="#CD3232"/></g><path d="M-60.241 269.01s5.333-10.881 17.427-14.122c9.895-2.651 17.061 4.881 26.24 2.422 10.54-2.825 20.066-15.46 19.013-19.389-2.248-8.39-11.918 26.583-16.126 46.512-4.674 22.137 24.1 35.734 39.52 31.602l52.75-14.134c12.496-3.348 33.783-27.497 16.161-45.6-10.886-11.184-53.694-48.092-55.25-53.9l-25.095-93.656s-1.074-4.008 2.798-7.327c.309-.265.475-.708.166-.974-3.956-3.42-36.263 5.502-38.35 10.252-.173.392.215.706.641.755 5.963.676 7.046 4.716 7.046 4.716l25.095 93.655c1.44 5.378-13.202 50.936-19.16 71.534-5.956 20.597 18.32 31.568 31.424 28.057l52.75-14.134c11.76-3.151 24.239-20.609 16.107-32.032-2.253-3.166-13.364-15.325-19.304-20.419C60.74 231.787.005 253.79 2.195 261.964c2.19 8.174 74.57-8.708 66.739-14.218-7.832-5.509-17.935 10.12-9.963 36.816 8.982 30.077 33.125 42.744 64.101 34.444 30.976-8.3 44.211-37.207 37.646-61.707-5.317-19.843-23.183-34.035-48.103-36.079-3.637-.298-5.996-1.359-6.812-4.403l-5.97-22.284c-.206-2.939 1.5-4.582 4.426-6.708.149-.109.223-.312.093-.444-2.495-2.525-30.76 4.555-31.118 8.375-.015.162.121.286.28.325 3.158.759 5.178 1.367 6.682 3.713l5.971 22.285c.593 2.213-.283 5.58-3.421 7.145-15.428 7.693-26.987 24.544-22.33 45.243 1.302 4.858 4.719 6.994 9.095 7.27 32.886 2.077 61.536-47.406 79.548-33.534 5.307 4.088 8.515 11.989 8.27 23.122-.437 19.842-17.158 37.496-35.525 42.949-18.366 5.453-40.637 2.358-53.828-21.059-4.074-7.232-12.527-21.797-1.975-27.161 17.653-8.973 43.408-5.175 57.179-5.407 13.771-.232 24.81-5.133 30.982-10.607 7.825-6.938 14.042-6.967 22.414-6.698 9.359.301 15.853 1.516 22.786-7.027" stroke="#1F1F1F" stroke-width="2"/><defs><linearGradient id="paint0_linear_11_6" x1="-49" y1="0" x2="-49" y2="374" gradientUnits="userSpaceOnUse"><stop stop-color="silver"/><stop offset="1" stop-opacity="0"/></linearGradient><linearGradient id="paint1_linear_11_6" x1="134.852" y1="153.488" x2="119.115" y2="96.647" gradientUnits="userSpaceOnUse"><stop stop-color="silver" stop-opacity="0"/><stop offset=".058" stop-color="red"/><stop offset="1" stop-opacity="0"/></linearGradient></defs></svg>