<svg width="264" height="72" fill="none" xmlns="http://www.w3.org/2000/svg"><path d="M68.77 25.04v-3.525h.51c.28 0 .52-.11.72-.33.21-.22.385-.57.525-1.05.15-.48.264-1.11.344-1.89.09-.79.156-1.755.195-2.895l.076-3h6.855v9.165h1.35v3.525h-1.486V23h-7.605v2.04H68.77zm2.64-3.525h4.89v-7.68h-3.6l-.046 1.74c-.03 1.15-.09 2.125-.18 2.925-.09.79-.22 1.43-.39 1.92s-.395.855-.675 1.095zm12.996 1.635a4.26 4.26 0 01-1.665-.315 4.105 4.105 0 01-1.275-.885c-.36-.38-.64-.81-.84-1.29a4.277 4.277 0 01-.285-1.56c0-.74.17-1.415.51-2.025.34-.62.815-1.115 1.425-1.485.61-.38 1.325-.57 2.145-.57.82 0 1.525.19 2.115.57.6.37 1.065.86 1.395 1.47a4.066 4.066 0 01.48 2.31c-.01.1-.02.185-.03.255h-6.285c.03.46.155.865.375 1.215.23.34.52.61.87.81.35.19.725.285 1.125.285.44 0 .855-.11 1.245-.33.4-.22.67-.51.81-.87l1.41.405c-.17.38-.43.725-.78 1.035-.34.3-.745.54-1.215.72-.47.17-.98.255-1.53.255zm-2.355-4.62h4.74c-.03-.45-.16-.845-.39-1.185-.22-.35-.505-.62-.855-.81-.34-.2-.72-.3-1.14-.3a2.324 2.324 0 00-1.98 1.11 2.44 2.44 0 00-.375 1.185zM89.772 23v-7.845h6.75V23h-1.65v-6.39h-3.45V23h-1.65zm8.176-2.295c0-.5.14-.935.42-1.305.29-.38.684-.67 1.184-.87.5-.21 1.08-.315 1.74-.315.35 0 .705.025 1.065.075.37.05.695.13.975.24v-.495c0-.55-.165-.98-.495-1.29-.33-.31-.805-.465-1.425-.465-.44 0-.855.08-1.245.24a7.1 7.1 0 00-1.245.645l-.554-1.11c.52-.35 1.04-.61 1.56-.78a5.412 5.412 0 011.664-.255c1.05 0 1.875.28 2.475.84.61.55.915 1.335.915 2.355v2.925c0 .19.03.325.09.405.07.08.185.125.345.135V23a3.621 3.621 0 01-.705.075c-.35 0-.615-.085-.795-.255a.982.982 0 01-.315-.6l-.045-.45c-.34.44-.775.78-1.305 1.02-.53.24-1.065.36-1.605.36-.52 0-.985-.105-1.395-.315a2.49 2.49 0 01-.96-.885 2.31 2.31 0 01-.344-1.245zm4.994.48c.12-.13.215-.26.285-.39a.748.748 0 00.105-.345v-.9c-.28-.11-.575-.19-.885-.24-.31-.06-.615-.09-.915-.09-.6 0-1.09.12-1.47.36-.37.24-.555.57-.555.99 0 .23.06.45.18.66.13.21.31.38.54.51.24.13.535.195.885.195.36 0 .705-.07 1.035-.21.33-.14.595-.32.795-.54zm8.497 1.965c-.63 0-1.185-.15-1.665-.45-.48-.3-.86-.69-1.14-1.17v4.665h-1.65v-11.04h1.455v1.41c.3-.47.69-.845 1.17-1.125s1.015-.42 1.605-.42c.54 0 1.035.11 1.485.33.45.21.84.505 1.17.885.33.38.585.815.765 1.305.19.48.285.99.285 1.53 0 .75-.15 1.435-.45 2.055-.29.62-.7 1.115-1.23 1.485-.52.36-1.12.54-1.8.54zm-.54-1.41c.35 0 .665-.075.945-.225.29-.15.535-.35.735-.6.21-.25.37-.535.48-.855a3.025 3.025 0 00-.015-2.01c-.12-.32-.295-.6-.525-.84-.22-.24-.48-.43-.78-.57-.29-.14-.61-.21-.96-.21-.21 0-.43.04-.66.12-.23.08-.445.19-.645.33s-.375.305-.525.495c-.15.19-.255.39-.315.6v2.055c.14.32.325.61.555.87.23.25.495.455.795.615.3.15.605.225.915.225zm7.364 1.26v-6.39h-2.595v-1.455h6.855v1.455h-2.61V23h-1.65zm4.909-2.295c0-.5.14-.935.42-1.305.29-.38.685-.67 1.185-.87.5-.21 1.08-.315 1.74-.315.35 0 .705.025 1.065.075.37.05.695.13.975.24v-.495c0-.55-.165-.98-.495-1.29-.33-.31-.805-.465-1.425-.465-.44 0-.855.08-1.245.24-.39.15-.805.365-1.245.645l-.555-1.11c.52-.35 1.04-.61 1.56-.78a5.418 5.418 0 011.665-.255c1.05 0 1.875.28 2.475.84.61.55.915 1.335.915 2.355v2.925c0 .19.03.325.09.405.07.08.185.125.345.135V23a3.621 3.621 0 01-.705.075c-.35 0-.615-.085-.795-.255a.982.982 0 01-.315-.6l-.045-.45c-.34.44-.775.78-1.305 1.02-.53.24-1.065.36-1.605.36-.52 0-.985-.105-1.395-.315a2.49 2.49 0 01-.96-.885 2.31 2.31 0 01-.345-1.245zm4.995.48c.12-.13.215-.26.285-.39a.748.748 0 00.105-.345v-.9c-.28-.11-.575-.19-.885-.24-.31-.06-.615-.09-.915-.09-.6 0-1.09.12-1.47.36-.37.24-.555.57-.555.99 0 .23.06.45.18.66.13.21.31.38.54.51.24.13.535.195.885.195.36 0 .705-.07 1.035-.21.33-.14.595-.32.795-.54zM132.209 23v-7.845h1.71l2.7 4.845 2.715-4.845h1.68V23h-1.575v-5.52l-2.31 4.125h-1.035l-2.325-4.125V23h-1.56zm14.336.15a4.26 4.26 0 01-1.665-.315 4.105 4.105 0 01-1.275-.885c-.36-.38-.64-.81-.84-1.29a4.277 4.277 0 01-.285-1.56c0-.74.17-1.415.51-2.025.34-.62.815-1.115 1.425-1.485.61-.38 1.325-.57 2.145-.57.82 0 1.525.19 2.115.57.6.37 1.065.86 1.395 1.47a4.066 4.066 0 01.48 2.31c-.01.1-.02.185-.03.255h-6.285c.03.46.155.865.375 1.215.23.34.52.61.87.81.35.19.725.285 1.125.285.44 0 .855-.11 1.245-.33.4-.22.67-.51.81-.87l1.41.405c-.17.38-.43.725-.78 1.035-.34.3-.745.54-1.215.72-.47.17-.98.255-1.53.255zm-2.355-4.62h4.74c-.03-.45-.16-.845-.39-1.185-.22-.35-.505-.62-.855-.81-.34-.2-.72-.3-1.14-.3a2.324 2.324 0 00-1.98 1.11 2.44 2.44 0 00-.375 1.185zm7.721 4.47v-7.845h1.65v3.12h3.645v-3.12h1.65V23h-1.65v-3.3h-3.645V23h-1.65zm10.796 0v-6.39h-2.595v-1.455h6.855v1.455h-2.61V23h-1.65zM72.294 41.135c-.51 0-.99-.075-1.44-.225a4.046 4.046 0 01-1.215-.645c-.35-.29-.63-.64-.84-1.05l1.32-.6c.23.4.525.7.885.9.36.2.755.3 1.185.3.43 0 .816-.1 1.156-.3.34-.2.624-.47.855-.81.23-.34.37-.715.42-1.125h-3.076v-1.095h3.06c-.06-.38-.195-.73-.404-1.05a2.294 2.294 0 00-1.995-1.08c-.42 0-.805.09-1.156.27-.35.17-.64.46-.87.87l-1.26-.66c.31-.55.746-.99 1.306-1.32.57-.33 1.25-.495 2.04-.495.66 0 1.24.115 1.74.345.5.22.92.52 1.26.9.35.38.61.815.78 1.305.18.48.27.975.27 1.485 0 .52-.09 1.025-.27 1.515-.18.49-.445.93-.796 1.32a3.96 3.96 0 01-1.274.915c-.49.22-1.05.33-1.68.33zM77.79 41v-7.845h1.635v3.105h.78l2.31-3.105h1.83L81.48 36.95 84.675 41H82.77l-2.58-3.255h-.765V41H77.79zm11.26.15c-.62 0-1.176-.105-1.666-.315-.49-.22-.915-.52-1.275-.9-.35-.38-.62-.81-.81-1.29a4.277 4.277 0 01-.285-1.56c0-.55.095-1.07.285-1.56.19-.49.46-.92.81-1.29.36-.38.785-.675 1.275-.885a4.09 4.09 0 011.665-.33c.61 0 1.16.11 1.65.33.5.21.925.505 1.275.885.36.37.635.8.825 1.29.19.49.285 1.01.285 1.56s-.095 1.07-.285 1.56c-.19.48-.465.91-.825 1.29-.35.38-.775.68-1.275.9a4.15 4.15 0 01-1.65.315zm-2.34-4.05c0 .5.104.95.314 1.35.21.4.49.715.84.945.35.23.745.345 1.185.345.43 0 .82-.115 1.17-.345.36-.24.645-.56.855-.96.21-.41.315-.86.315-1.35 0-.5-.105-.95-.315-1.35-.21-.4-.495-.715-.855-.945-.35-.24-.74-.36-1.17-.36-.44 0-.835.12-1.185.36-.35.24-.63.56-.84.96-.21.39-.315.84-.315 1.35zm7.838 3.9v-7.845h1.65v3.12h3.645v-3.12h1.65V41h-1.65v-3.3h-3.645V41h-1.65zm12.46.15c-.62 0-1.175-.105-1.665-.315-.49-.22-.915-.52-1.275-.9-.35-.38-.62-.81-.81-1.29a4.277 4.277 0 01-.285-1.56c0-.55.095-1.07.285-1.56.19-.49.46-.92.81-1.29.36-.38.785-.675 1.275-.885a4.09 4.09 0 011.665-.33c.61 0 1.16.11 1.65.33.5.21.925.505 1.275.885.36.37.635.8.825 1.29.19.49.285 1.01.285 1.56s-.095 1.07-.285 1.56c-.19.48-.465.91-.825 1.29-.35.38-.775.68-1.275.9a4.15 4.15 0 01-1.65.315zm-2.34-4.05c0 .5.105.95.315 1.35.21.4.49.715.84.945.35.23.745.345 1.185.345.43 0 .82-.115 1.17-.345.36-.24.645-.56.855-.96.21-.41.315-.86.315-1.35 0-.5-.105-.95-.315-1.35-.21-.4-.495-.715-.855-.945-.35-.24-.74-.36-1.17-.36-.44 0-.835.12-1.185.36-.35.24-.63.56-.84.96-.21.39-.315.84-.315 1.35zm7.839 3.9v-7.845h1.71l2.7 4.845 2.715-4.845h1.68V41h-1.575v-5.52l-2.31 4.125h-1.035l-2.325-4.125V41h-1.56zm10.781 0v-7.83h1.65v5.625l3.975-5.64h1.5V41h-1.65v-5.505L124.833 41h-1.545zm13.507 0v-2.985c-.3.14-.61.245-.93.315-.32.06-.68.09-1.08.09-.84 0-1.49-.22-1.95-.66-.45-.45-.675-1.115-.675-1.995v-2.61h1.65v2.4c0 .55.115.955.345 1.215.23.25.6.375 1.11.375.28 0 .56-.03.84-.09.28-.06.51-.14.69-.24v-3.66h1.665V41h-1.665zm7.216.15a4.26 4.26 0 01-1.665-.315 4.105 4.105 0 01-1.275-.885c-.36-.38-.64-.81-.84-1.29a4.277 4.277 0 01-.285-1.56c0-.74.17-1.415.51-2.025.34-.62.815-1.115 1.425-1.485.61-.38 1.325-.57 2.145-.57.82 0 1.525.19 2.115.57.6.37 1.065.86 1.395 1.47a4.066 4.066 0 01.48 2.31c-.01.1-.02.185-.03.255h-6.285c.03.46.155.865.375 1.215.23.34.52.61.87.81.35.19.725.285 1.125.285.44 0 .855-.11 1.245-.33.4-.22.67-.51.81-.87l1.41.405c-.17.38-.43.725-.78 1.035-.34.3-.745.54-1.215.72-.47.17-.98.255-1.53.255zm-2.355-4.62h4.74c-.03-.45-.16-.845-.39-1.185-.22-.35-.505-.62-.855-.81-.34-.2-.72-.3-1.14-.3a2.324 2.324 0 00-1.98 1.11 2.44 2.44 0 00-.375 1.185zm11.276 4.62a4.26 4.26 0 01-1.665-.315c-.49-.22-.915-.52-1.275-.9-.36-.38-.64-.815-.84-1.305a4.277 4.277 0 01-.285-1.56c0-.74.165-1.415.495-2.025.34-.61.81-1.1 1.41-1.47.61-.37 1.33-.555 2.16-.555.8 0 1.495.18 2.085.54.6.35 1.04.82 1.32 1.41l-1.605.51a1.879 1.879 0 00-.765-.765 2.047 2.047 0 00-1.065-.285c-.44 0-.84.115-1.2.345-.35.22-.63.53-.84.93-.2.39-.3.845-.3 1.365 0 .5.105.955.315 1.365.21.4.49.72.84.96.36.23.76.345 1.2.345.27 0 .53-.045.78-.135.26-.1.485-.23.675-.39.19-.17.325-.355.405-.555l1.62.48c-.17.39-.425.735-.765 1.035-.33.3-.725.54-1.185.72a4.26 4.26 0 01-1.515.255zm4.824-.15v-7.845h1.635v3.105h.78l2.31-3.105h1.83l-2.865 3.795 3.195 4.05h-1.905l-2.58-3.255h-.765V41h-1.635zm11.259.15c-.62 0-1.175-.105-1.665-.315-.49-.22-.915-.52-1.275-.9-.35-.38-.62-.81-.81-1.29a4.277 4.277 0 01-.285-1.56c0-.55.095-1.07.285-1.56.19-.49.46-.92.81-1.29.36-.38.785-.675 1.275-.885a4.09 4.09 0 011.665-.33c.61 0 1.16.11 1.65.33.5.21.925.505 1.275.885.36.37.635.8.825 1.29.19.49.285 1.01.285 1.56s-.095 1.07-.285 1.56c-.19.48-.465.91-.825 1.29-.35.38-.775.68-1.275.9a4.15 4.15 0 01-1.65.315zm-2.34-4.05c0 .5.105.95.315 1.35.21.4.49.715.84.945.35.23.745.345 1.185.345.43 0 .82-.115 1.17-.345.36-.24.645-.56.855-.96.21-.41.315-.86.315-1.35 0-.5-.105-.95-.315-1.35-.21-.4-.495-.715-.855-.945-.35-.24-.74-.36-1.17-.36-.44 0-.835.12-1.185.36-.35.24-.63.56-.84.96-.21.39-.315.84-.315 1.35zm7.839 3.9v-7.83h1.65v5.625l3.975-5.64h1.5V41h-1.65v-5.505L176.059 41h-1.545zm3.57-8.655c-.74 0-1.315-.185-1.725-.555-.4-.37-.6-.835-.6-1.395h1.08c0 .29.095.53.285.72.2.19.52.285.96.285.43 0 .735-.09.915-.27.19-.18.305-.425.345-.735h1.08a1.8 1.8 0 01-.615 1.395c-.4.37-.975.555-1.725.555zM187.316 41v-7.845h6.75V41h-1.65v-6.39h-3.45V41h-1.65zm12.27.15c-.62 0-1.175-.105-1.665-.315-.49-.22-.915-.52-1.275-.9-.35-.38-.62-.81-.81-1.29a4.277 4.277 0 01-.285-1.56c0-.55.095-1.07.285-1.56.19-.49.46-.92.81-1.29.36-.38.785-.675 1.275-.885a4.09 4.09 0 011.665-.33c.61 0 1.16.11 1.65.33.5.21.925.505 1.275.885.36.37.635.8.825 1.29.19.49.285 1.01.285 1.56s-.095 1.07-.285 1.56c-.19.48-.465.91-.825 1.29-.35.38-.775.68-1.275.9a4.15 4.15 0 01-1.65.315zm-2.34-4.05c0 .5.105.95.315 1.35.21.4.49.715.84.945.35.23.745.345 1.185.345.43 0 .82-.115 1.17-.345.36-.24.645-.56.855-.96.21-.41.315-.86.315-1.35 0-.5-.105-.95-.315-1.35-.21-.4-.495-.715-.855-.945-.35-.24-.74-.36-1.17-.36-.44 0-.835.12-1.185.36-.35.24-.63.56-.84.96-.21.39-.315.84-.315 1.35zm7.209 3.975v-1.47c.25 0 .475-.06.675-.18.2-.13.375-.34.525-.63.15-.3.27-.715.36-1.245.09-.53.15-1.205.18-2.025l.105-2.37h5.595V41h-1.65v-6.39h-2.49l-.03 1.065c-.04 1.05-.135 1.925-.285 2.625-.15.69-.36 1.24-.63 1.65-.26.4-.59.69-.99.87-.39.17-.845.255-1.365.255zm9.419-.075v-7.83h1.65v5.625l3.975-5.64h1.5V41h-1.65v-5.505L215.419 41h-1.545zm10.957 0v-6.39h-2.595v-1.455h6.855v1.455h-2.61V41h-1.65zm5.493 0v-7.83h1.65v5.625l3.975-5.64h1.5V41h-1.65v-5.505L231.869 41h-1.545zm9.097 0v-7.845h1.635v3.105h.78l2.31-3.105h1.83l-2.865 3.795 3.195 4.05h-1.905l-2.58-3.255h-.765V41h-1.635zm8.144 0v-7.83h1.65v5.625l3.975-5.64h1.5V41h-1.65v-5.505L249.11 41h-1.545zM69.264 59v-7.83h1.65v5.625l3.975-5.64h1.5V59h-1.65v-5.505L70.81 59h-1.544zm17.258.15c-.63 0-1.185-.15-1.665-.45-.48-.3-.86-.69-1.14-1.17v4.665h-1.65v-11.04h1.455v1.41c.3-.47.69-.845 1.17-1.125s1.015-.42 1.605-.42c.54 0 1.035.11 1.485.33.45.21.84.505 1.17.885.33.38.585.815.765 1.305.19.48.285.99.285 1.53 0 .75-.15 1.435-.45 2.055-.29.62-.7 1.115-1.23 1.485-.52.36-1.12.54-1.8.54zm-.54-1.41c.35 0 .665-.075.945-.225.29-.15.535-.35.735-.6.21-.25.37-.535.48-.855a3.025 3.025 0 00-.015-2.01c-.12-.32-.295-.6-.525-.84-.22-.24-.48-.43-.78-.57-.29-.14-.61-.21-.96-.21-.21 0-.43.04-.66.12-.23.08-.445.19-.645.33s-.375.305-.525.495c-.15.19-.255.39-.315.6v2.055c.14.32.325.61.555.87.23.25.495.455.795.615.3.15.605.225.915.225zm4.934-1.035c0-.5.14-.935.42-1.305.29-.38.685-.67 1.185-.87.5-.21 1.08-.315 1.74-.315.35 0 .705.025 1.065.075.37.05.695.13.975.24v-.495c0-.55-.165-.98-.495-1.29-.33-.31-.805-.465-1.425-.465-.44 0-.855.08-1.245.24-.39.15-.805.365-1.245.645l-.555-1.11c.52-.35 1.04-.61 1.56-.78a5.418 5.418 0 011.665-.255c1.05 0 1.875.28 2.475.84.61.55.915 1.335.915 2.355v2.925c0 .19.03.325.09.405.07.08.185.125.345.135V59a3.621 3.621 0 01-.705.075c-.35 0-.615-.085-.795-.255a.982.982 0 01-.315-.6l-.045-.45c-.34.44-.775.78-1.305 1.02-.53.24-1.065.36-1.605.36-.52 0-.985-.105-1.395-.315a2.49 2.49 0 01-.96-.885 2.31 2.31 0 01-.345-1.245zm4.995.48c.12-.13.215-.26.285-.39a.748.748 0 00.105-.345v-.9c-.28-.11-.575-.19-.885-.24-.31-.06-.615-.09-.915-.09-.6 0-1.09.12-1.47.36-.37.24-.555.57-.555.99 0 .23.06.45.18.66.13.21.31.38.54.51.24.13.535.195.885.195.36 0 .705-.07 1.035-.21.33-.14.595-.32.795-.54zm6.667 1.935c-.8 0-1.475-.145-2.025-.435-.54-.3-.955-.71-1.245-1.23l1.335-.6c.17.29.41.52.72.69.31.16.685.24 1.125.24.53 0 .94-.11 1.23-.33.29-.22.435-.51.435-.87 0-.33-.12-.595-.36-.795-.24-.21-.58-.32-1.02-.33h-.81v-1.05h.84a1 1 0 00.525-.135c.15-.09.265-.21.345-.36.09-.16.135-.34.135-.54 0-.3-.115-.54-.345-.72-.22-.19-.555-.285-1.005-.285-.39 0-.71.075-.96.225-.25.14-.455.35-.615.63l-1.245-.66c.26-.48.64-.855 1.14-1.125.5-.27 1.085-.405 1.755-.405.53 0 1 .085 1.41.255.42.16.745.4.975.72.24.31.36.695.36 1.155 0 .36-.085.7-.255 1.02-.17.31-.435.54-.795.69.48.14.84.385 1.08.735.25.34.375.745.375 1.215 0 .48-.135.895-.405 1.245-.26.34-.625.6-1.095.78-.47.18-1.005.27-1.605.27zm4.626-.12v-7.845h4.2c.5 0 .91.095 1.23.285.33.18.575.415.735.705.16.28.24.59.24.93 0 .43-.1.81-.3 1.14-.2.33-.495.58-.885.75.45.13.815.36 1.095.69.29.32.435.735.435 1.245 0 .46-.11.85-.33 1.17-.22.31-.535.545-.945.705-.4.15-.87.225-1.41.225h-4.065zm1.56-1.14h2.46c.21 0 .4-.05.57-.15.18-.11.32-.25.42-.42.1-.18.15-.37.15-.57 0-.22-.05-.415-.15-.585-.09-.17-.22-.305-.39-.405-.16-.1-.35-.15-.57-.15h-2.49v2.28zm0-3.345h2.22c.21 0 .395-.05.555-.15.16-.11.285-.255.375-.435.09-.18.135-.37.135-.57 0-.29-.095-.54-.285-.75-.19-.21-.44-.315-.75-.315h-2.25v2.22zm6.76 4.485v-7.83h1.65v5.625l3.975-5.64h1.5V59h-1.65v-5.505L117.069 59h-1.545zm10.957 0v-6.39h-2.595v-1.455h6.855v1.455h-2.61V59h-1.65zm5.493 0v-7.83h1.65v5.625l3.975-5.64h1.5V59h-1.65v-5.505L133.519 59h-1.545zm8.602 0l2.1-3.105a2.03 2.03 0 01-1.17-.75c-.29-.38-.435-.89-.435-1.53 0-.49.11-.92.33-1.29.23-.37.55-.66.96-.87.41-.21.885-.315 1.425-.315h3.45V59h-1.65v-2.835h-1.29L142.376 59h-1.8zm3.375-4.035h1.635v-2.55h-1.53c-.42 0-.755.115-1.005.345-.24.23-.36.53-.36.9s.105.68.315.93c.22.25.535.375.945.375zM152.936 59v-7.845h5.01v1.455h-3.36V59h-1.65zm9.78.15c-.62 0-1.175-.105-1.665-.315-.49-.22-.915-.52-1.275-.9-.35-.38-.62-.81-.81-1.29a4.277 4.277 0 01-.285-1.56c0-.55.095-1.07.285-1.56.19-.49.46-.92.81-1.29.36-.38.785-.675 1.275-.885a4.09 4.09 0 011.665-.33c.61 0 1.16.11 1.65.33.5.21.925.505 1.275.885.36.37.635.8.825 1.29.19.49.285 1.01.285 1.56s-.095 1.07-.285 1.56c-.19.48-.465.91-.825 1.29-.35.38-.775.68-1.275.9a4.15 4.15 0 01-1.65.315zm-2.34-4.05c0 .5.105.95.315 1.35.21.4.49.715.84.945.35.23.745.345 1.185.345.43 0 .82-.115 1.17-.345.36-.24.645-.56.855-.96.21-.41.315-.86.315-1.35 0-.5-.105-.95-.315-1.35-.21-.4-.495-.715-.855-.945-.35-.24-.74-.36-1.17-.36-.44 0-.835.12-1.185.36-.35.24-.63.56-.84.96-.21.39-.315.84-.315 1.35zm12.294 4.05c-.63 0-1.185-.15-1.665-.45-.48-.3-.86-.69-1.14-1.17v4.665h-1.65v-11.04h1.455v1.41c.3-.47.69-.845 1.17-1.125s1.015-.42 1.605-.42c.54 0 1.035.11 1.485.33.45.21.84.505 1.17.885.33.38.585.815.765 1.305.19.48.285.99.285 1.53 0 .75-.15 1.435-.45 2.055-.29.62-.7 1.115-1.23 1.485-.52.36-1.12.54-1.8.54zm-.54-1.41c.35 0 .665-.075.945-.225.29-.15.535-.35.735-.6.21-.25.37-.535.48-.855a3.025 3.025 0 00-.015-2.01c-.12-.32-.295-.6-.525-.84-.22-.24-.48-.43-.78-.57-.29-.14-.61-.21-.96-.21-.21 0-.43.04-.66.12-.23.08-.445.19-.645.33s-.375.305-.525.495c-.15.19-.255.39-.315.6v2.055c.14.32.325.61.555.87.23.25.495.455.795.615.3.15.605.225.915.225zm9.029 1.41c-.62 0-1.175-.105-1.665-.315-.49-.22-.915-.52-1.275-.9-.35-.38-.62-.81-.81-1.29a4.277 4.277 0 01-.285-1.56c0-.55.095-1.07.285-1.56.19-.49.46-.92.81-1.29.36-.38.785-.675 1.275-.885a4.09 4.09 0 011.665-.33c.61 0 1.16.11 1.65.33.5.21.925.505 1.275.885.36.37.635.8.825 1.29.19.49.285 1.01.285 1.56s-.095 1.07-.285 1.56c-.19.48-.465.91-.825 1.29-.35.38-.775.68-1.275.9a4.15 4.15 0 01-1.65.315zm-2.34-4.05c0 .5.105.95.315 1.35.21.4.49.715.84.945.35.23.745.345 1.185.345.43 0 .82-.115 1.17-.345.36-.24.645-.56.855-.96.21-.41.315-.86.315-1.35 0-.5-.105-.95-.315-1.35-.21-.4-.495-.715-.855-.945-.35-.24-.74-.36-1.17-.36-.44 0-.835.12-1.185.36-.35.24-.63.56-.84.96-.21.39-.315.84-.315 1.35zm7.088 5.775v-3.33h.18c.21 0 .405-.06.585-.18.18-.12.34-.325.48-.615.14-.3.255-.71.345-1.23.09-.53.145-1.195.165-1.995l.09-2.37h5.595v6.39h1.08v3.33h-1.455V59h-5.625v1.875h-1.44zm2.355-3.33h3.435V52.58h-2.49l-.045 1.095c-.03.76-.085 1.4-.165 1.92-.07.52-.17.935-.3 1.245-.12.31-.265.545-.435.705zm6.995-.84c0-.5.14-.935.42-1.305.29-.38.685-.67 1.185-.87.5-.21 1.08-.315 1.74-.315.35 0 .705.025 1.065.075.37.05.695.13.975.24v-.495c0-.55-.165-.98-.495-1.29-.33-.31-.805-.465-1.425-.465-.44 0-.855.08-1.245.24-.39.15-.805.365-1.245.645l-.555-1.11c.52-.35 1.04-.61 1.56-.78a5.418 5.418 0 011.665-.255c1.05 0 1.875.28 2.475.84.61.55.915 1.335.915 2.355v2.925c0 .19.03.325.09.405.07.08.185.125.345.135V59a3.621 3.621 0 01-.705.075c-.35 0-.615-.085-.795-.255a.982.982 0 01-.315-.6l-.045-.45c-.34.44-.775.78-1.305 1.02-.53.24-1.065.36-1.605.36-.52 0-.985-.105-1.395-.315a2.49 2.49 0 01-.96-.885 2.31 2.31 0 01-.345-1.245zm4.995.48c.12-.13.215-.26.285-.39a.748.748 0 00.105-.345v-.9c-.28-.11-.575-.19-.885-.24-.31-.06-.615-.09-.915-.09-.6 0-1.09.12-1.47.36-.37.24-.555.57-.555.99 0 .23.06.45.18.66.13.21.31.38.54.51.24.13.535.195.885.195.36 0 .705-.07 1.035-.21.33-.14.595-.32.795-.54zM217.165 59v-7.59l-3.135 5.76h-.99l-3.15-5.76V59h-1.68V48.35h1.8l3.525 6.51 3.525-6.51h1.8V59h-1.695zm7.28.15c-.62 0-1.175-.105-1.665-.315-.49-.22-.915-.52-1.275-.9-.35-.38-.62-.81-.81-1.29a4.277 4.277 0 01-.285-1.56c0-.55.095-1.07.285-1.56.19-.49.46-.92.81-1.29.36-.38.785-.675 1.275-.885a4.09 4.09 0 011.665-.33c.61 0 1.16.11 1.65.33.5.21.925.505 1.275.885.36.37.635.8.825 1.29.19.49.285 1.01.285 1.56s-.095 1.07-.285 1.56c-.19.48-.465.91-.825 1.29-.35.38-.775.68-1.275.9a4.15 4.15 0 01-1.65.315zm-2.34-4.05c0 .5.105.95.315 1.35.21.4.49.715.84.945.35.23.745.345 1.185.345.43 0 .82-.115 1.17-.345.36-.24.645-.56.855-.96.21-.41.315-.86.315-1.35 0-.5-.105-.95-.315-1.35-.21-.4-.495-.715-.855-.945-.35-.24-.74-.36-1.17-.36-.44 0-.835.12-1.185.36-.35.24-.63.56-.84.96-.21.39-.315.84-.315 1.35zm11.393 4.05a4.26 4.26 0 01-1.665-.315c-.49-.22-.915-.52-1.275-.9-.36-.38-.64-.815-.84-1.305a4.277 4.277 0 01-.285-1.56c0-.74.165-1.415.495-2.025.34-.61.81-1.1 1.41-1.47.61-.37 1.33-.555 2.16-.555.8 0 1.495.18 2.085.54.6.35 1.04.82 1.32 1.41l-1.605.51a1.879 1.879 0 00-.765-.765 2.047 2.047 0 00-1.065-.285c-.44 0-.84.115-1.2.345-.35.22-.63.53-.84.93-.2.39-.3.845-.3 1.365 0 .5.105.955.315 1.365.21.4.49.72.84.96.36.23.76.345 1.2.345.27 0 .53-.045.78-.135.26-.1.485-.23.675-.39.19-.17.325-.355.405-.555l1.62.48c-.17.39-.425.735-.765 1.035-.33.3-.725.54-1.185.72a4.26 4.26 0 01-1.515.255zm4.824-.15v-7.845h1.635v3.105h.78l2.31-3.105h1.83l-2.865 3.795 3.195 4.05h-1.905l-2.58-3.255h-.765V59h-1.635zm8.145 0v-7.845h4.2c.5 0 .91.095 1.23.285.33.18.575.415.735.705.16.28.24.59.24.93 0 .43-.1.81-.3 1.14-.2.33-.495.58-.885.75.45.13.815.36 1.095.69.29.32.435.735.435 1.245 0 .46-.11.85-.33 1.17-.22.31-.535.545-.945.705-.4.15-.87.225-1.41.225h-4.065zm1.56-1.14h2.46c.21 0 .4-.05.57-.15.18-.11.32-.25.42-.42.1-.18.15-.37.15-.57 0-.22-.05-.415-.15-.585-.09-.17-.22-.305-.39-.405-.16-.1-.35-.15-.57-.15h-2.49v2.28zm0-3.345h2.22c.21 0 .395-.05.555-.15.16-.11.285-.255.375-.435.09-.18.135-.37.135-.57 0-.29-.095-.54-.285-.75-.19-.21-.44-.315-.75-.315h-2.25v2.22zm6.76 4.485v-7.845h1.65v2.58h1.485c.93 0 1.64.235 2.13.705s.735 1.09.735 1.86c0 .52-.105.985-.315 1.395-.21.41-.52.73-.93.96-.4.23-.9.345-1.5.345h-3.255zm1.65-1.275h1.35c.33 0 .595-.06.795-.18.2-.13.345-.3.435-.51.1-.22.15-.455.15-.705 0-.25-.045-.475-.135-.675-.09-.21-.24-.375-.45-.495-.2-.13-.47-.195-.81-.195h-1.335v2.76zm5.64 1.275v-7.83h1.65V59h-1.65zM43.834 5.143V0H56.77v13.592h-5.03V9.184L28.385 28.286 15.45 17.633l-7.905 6.612v-6.612l7.905-6.613 12.935 10.654L48.146 5.143h-4.312z" fill="#fff"/><path fill-rule="evenodd" clip-rule="evenodd" d="M0 0v54.367c0 8.082 5.39 12.123 11.498 12.49 1.088.066 2.095.115 3.032.16 6.616.324 9.763.478 13.855 4.983 4.091-4.505 7.238-4.659 13.854-4.982.937-.046 1.944-.095 3.033-.16 6.108-.368 11.497-4.409 11.497-12.49V16.162h-5.03l-5.39 4.408v10.653l-1.796 1.47v9.184l-1.437 1.102v6.245l-2.156 1.102v-7.715h-3.952l-4.312-2.204-4.311 2.204h-3.593v12.49l-2.516.735v-6.98l-1.796.367V41.51l-2.156.368L15.81 27.55l1.437 1.102c-.24-.49-.718-1.543-.718-1.837 0-.294.958-.857 1.437-1.102H16.17l-.72-2.204-.718 2.204h-1.796l1.437 1.102-.36 1.837 1.438-1.102-2.515 14.327-2.156-.368v7.715l-1.797-.368v11.02l-1.077.368C6.02 59.067 5.03 58.04 5.03 55.102V5.142h36.29V0H0zm14.731 54v-7.714h1.797V54l1.796-.367v7.714l10.06-3.306V46.653h1.078l3.234-1.837 3.234 1.837h1.078v8.816l10.06-2.938v-6.613l2.875-2.571v-5.878l-1.438 1.102v-2.938l2.515-2.204v-6.245l-.718 1.102V24.98l1.437-1.47v30.123c0 4.775-1.796 8.081-7.186 8.081-8.361-.444-11.46.656-16.168 3.306-4.636-3.047-8.366-3.335-15.45-3.306v-8.081L14.73 54z" fill="#fff"/></svg>