<svg width="186" height="69" fill="none" xmlns="http://www.w3.org/2000/svg"><path d="M18.54 28l.011-12.12h-9.16L9.38 28H3.5L3.526.32h5.88l-.01 10.92h9.16l.01-10.92h5.88L24.42 28h-5.88zm27.803-5.88c-.001.827.118 1.44.358 1.84.24.373.64.653 1.2.84l-1.204 3.76c-1.254-.107-2.28-.4-3.08-.88-.772-.48-1.372-1.227-1.797-2.24-1.39 2.133-3.51 3.2-6.364 3.2-2.106 0-3.786-.6-5.038-1.8-1.225-1.227-1.837-2.813-1.835-4.76.002-2.32.844-4.093 2.525-5.32 1.681-1.227 4.095-1.84 7.242-1.84h2.44v-1.04c.002-1.307-.29-2.213-.877-2.72-.586-.507-1.559-.76-2.919-.76-1.493 0-3.36.373-5.6 1.12l-1.277-3.8c2.64-1.04 5.255-1.56 7.841-1.56 2.88 0 5 .627 6.358 1.88 1.36 1.227 2.037 3.067 2.035 5.52l-.008 8.56zm-9.323 2.44c1.6 0 2.855-.787 3.763-2.36l.004-4.04h-1.88c-3.067 0-4.601 1.147-4.604 3.44 0 .933.225 1.667.678 2.2.48.507 1.16.76 2.04.76zM74.612 28h-5.4l-.592-8.16a49.527 49.527 0 01-.117-3.36c.001-.747.056-2.293.165-4.64L64.894 25.8h-4.84l-3.586-13.92c.105 1.387.157 2.893.155 4.52 0 .773-.028 1.907-.083 3.4l-.488 8.2h-5.4l1.86-21.2h6.8L62.5 20.84 65.913 6.8h6.84l1.86 21.2zm-52.5 27.76l-.01 10.72h-4.04L17.388 60H5.268l-.686 6.48H.542l.01-10.72h1.36a4.657 4.657 0 001.242-1.36c.347-.533.654-1.44.922-2.72.268-1.28.497-3.12.686-5.52l.567-7.36h14.56l-.017 16.96h2.24zm-7.587-13.08h-4.28l-.243 2.92c-.189 2.24-.43 4.013-.725 5.32-.268 1.28-.642 2.293-1.123 3.04-.454.72-1.081 1.32-1.882 1.8h8.24l.013-13.08zM34.4 38.16c3.173 0 5.652 1 7.437 3 1.785 1.973 2.675 4.72 2.672 8.24-.002 2.24-.418 4.213-1.246 5.92-.801 1.68-1.976 2.987-3.524 3.92-1.52.933-3.32 1.4-5.4 1.4-3.174 0-5.667-.987-7.478-2.96-1.785-2-2.675-4.76-2.672-8.28.002-2.24.404-4.2 1.206-5.88.828-1.707 2.003-3.027 3.524-3.96 1.547-.933 3.374-1.4 5.48-1.4zm-.004 4.24c-1.44 0-2.52.573-3.242 1.72-.694 1.12-1.043 2.88-1.045 5.28-.002 2.4.343 4.173 1.035 5.32.719 1.12 1.785 1.68 3.198 1.68s2.467-.56 3.162-1.68c.72-1.147 1.083-2.92 1.085-5.32.002-2.4-.343-4.16-1.035-5.28-.692-1.147-1.745-1.72-3.158-1.72zm27.033 6c3.6.4 5.398 2.107 5.395 5.12-.002 2.187-.843 3.813-2.524 4.88-1.681 1.067-3.962 1.6-6.842 1.6h-8.64l.02-20.96c2.988-.587 5.668-.88 8.041-.88 2.8 0 5 .493 6.599 1.48 1.599.96 2.398 2.387 2.396 4.28-.002 1.2-.39 2.187-1.163 2.96-.748.747-1.841 1.253-3.282 1.52zm-4.633-6.48c-.72 0-1.48.04-2.28.12l-.005 5.12h2.64c.96 0 1.706-.213 2.24-.64.56-.427.841-1.093.842-2 0-.88-.292-1.533-.878-1.96-.56-.427-1.413-.64-2.56-.64zm.546 14.24c2.426 0 3.64-1.013 3.643-3.04 0-.933-.292-1.627-.878-2.08-.56-.453-1.466-.68-2.72-.68h-2.88l-.005 5.8h2.84zm31.438-7.24c0 .267-.04 1-.122 2.2h-13.24c.185 1.92.703 3.28 1.556 4.08.853.8 2.012 1.2 3.479 1.2.907 0 1.76-.147 2.56-.44.8-.293 1.668-.76 2.602-1.4l2.356 3.2c-2.375 1.92-5.056 2.88-8.042 2.88-3.334 0-5.893-1-7.677-3-1.785-2-2.676-4.707-2.672-8.12.002-2.16.377-4.093 1.125-5.8.775-1.733 1.883-3.093 3.324-4.08 1.468-.987 3.201-1.48 5.201-1.48 3.014 0 5.36.947 7.038 2.84 1.678 1.893 2.515 4.533 2.512 7.92zm-5.638-1.6c.003-3.52-1.262-5.28-3.795-5.28-1.174 0-2.094.44-2.762 1.32-.64.853-1.028 2.253-1.164 4.2h7.72v-.24zm21.2-9.16c2.666 0 4.639.987 5.917 2.96 1.305 1.947 1.955 4.693 1.952 8.24-.002 2.16-.337 4.093-1.006 5.8-.668 1.707-1.643 3.053-2.924 4.04-1.254.96-2.748 1.44-4.481 1.44-2.16 0-3.906-.76-5.238-2.28l-.01 9.8-5.68.64.03-30h5l.277 2.48c.8-1.04 1.735-1.813 2.802-2.32 1.094-.533 2.214-.8 3.361-.8zm-2.218 18.24c2.773 0 4.162-2.333 4.167-7 .002-2.56-.303-4.373-.915-5.44-.612-1.067-1.545-1.6-2.798-1.6-.8 0-1.547.253-2.241.76-.667.48-1.254 1.133-1.762 1.96l-.009 9.24c.905 1.387 2.091 2.08 3.558 2.08zm30.815-17.6l-.021 21.2h-5.68l.007-7.56h-3.12L120.077 60h-6.12l4.969-8.88c-2.266-1.147-3.397-2.987-3.395-5.52.002-2.24.817-3.933 2.445-5.08 1.654-1.147 4.028-1.72 7.122-1.72h7.84zm-5.69 10.12l.006-6.36h-2.2c-2.453 0-3.681 1.027-3.683 3.08-.002 2.187 1.183 3.28 3.557 3.28h2.32zm29.398-10.76c1.92 0 3.599.453 5.038 1.36 1.44.88 2.558 2.173 3.357 3.88.798 1.68 1.196 3.68 1.194 6-.002 2.187-.391 4.133-1.166 5.84-.775 1.68-1.896 3-3.364 3.96-1.441.96-3.148 1.44-5.121 1.44-2.667 0-4.813-.827-6.438-2.48-1.625-1.68-2.609-3.987-2.953-6.92h-3l-.008 8.76h-5.68l.02-21.2h5.68l-.008 8.4h3.08c.403-2.747 1.405-4.933 3.006-6.56 1.629-1.653 3.749-2.48 6.363-2.48zm-.058 18.24c1.36 0 2.334-.573 2.922-1.72.614-1.147.923-2.907.925-5.28.004-4.64-1.26-6.96-3.793-6.96-1.28 0-2.241.56-2.882 1.68-.614 1.12-.923 2.88-.925 5.28-.002 2.347.303 4.107.915 5.28.612 1.147 1.558 1.72 2.838 1.72zm29.072-17.6l-.724 4.28h-6L178.919 60h-5.68l.017-16.92h-6.36l.004-4.28h18.76z" fill="#fff" fill-opacity=".5"/></svg>