<svg width="276" height="73" fill="none" xmlns="http://www.w3.org/2000/svg"><path fill-rule="evenodd" clip-rule="evenodd" d="M36.75 71.381c19.462 0 35.239-15.777 35.239-35.239 0-19.461-15.777-35.238-35.24-35.238-19.46 0-35.237 15.776-35.237 35.238s15.777 35.24 35.239 35.24zm0 .904c19.96 0 36.142-16.182 36.142-36.142C72.892 16.18 56.711 0 36.75 0 16.789 0 .607 16.181.607 36.142c0 19.961 16.182 36.143 36.143 36.143z" fill="#fff"/><path fill-rule="evenodd" clip-rule="evenodd" d="M36.75 68.67c17.965 0 32.528-14.563 32.528-32.528 0-17.964-14.563-32.528-32.528-32.528-17.965 0-32.528 14.564-32.528 32.529 0 17.964 14.563 32.528 32.528 32.528zm0 .904c18.464 0 33.432-14.968 33.432-33.431 0-18.464-14.968-33.432-33.432-33.432-18.464 0-33.432 14.968-33.432 33.431 0 18.464 14.968 33.432 33.432 33.432z" fill="#fff"/><path d="M89.876 17.44l-1.593-.276v-1.316h3.207c.297 0 .757-.014 1.38-.043a32.69 32.69 0 012.23-.085c1.472 0 2.632.184 3.482.553.863.354 1.472.87 1.826 1.55.368.665.552 1.514.552 2.548 0 1.783-.559 3.17-1.678 4.162-1.104.99-2.64 1.486-4.607 1.486-.779 0-1.338-.021-1.678-.064v4.183l2.846.212v1.274h-7.645v-1.273l1.678-.213V17.44zm3.1 7.156c.326.071.878.106 1.656.106.949 0 1.706-.325 2.272-.976.58-.666.87-1.763.87-3.292 0-1.189-.261-2.052-.785-2.59-.51-.552-1.295-.828-2.357-.828-.396 0-.807.028-1.231.085-.198.028-.34.042-.425.042v7.453zm15.949 7.262c-2.307 0-4.034-.722-5.181-2.166-1.146-1.444-1.72-3.411-1.72-5.903 0-1.628.298-3.057.892-4.289.609-1.231 1.458-2.18 2.548-2.845 1.09-.666 2.343-.998 3.759-.998 2.335 0 4.084.693 5.244 2.08 1.175 1.374 1.763 3.299 1.763 5.776 0 1.642-.312 3.1-.935 4.374-.608 1.26-1.465 2.237-2.569 2.93-1.104.694-2.371 1.041-3.801 1.041zm.213-14.906c-1.161 0-2.067.573-2.718 1.72-.651 1.147-.977 2.845-.977 5.096 0 2.223.311 3.914.934 5.075.637 1.147 1.543 1.72 2.718 1.72 1.147 0 2.046-.602 2.697-1.805.651-1.217.977-2.966.977-5.245 0-2.208-.312-3.85-.935-4.926-.623-1.09-1.521-1.635-2.696-1.635zm15.745 14.906c-2.406 0-4.246-.715-5.52-2.145-1.275-1.443-1.912-3.411-1.912-5.902 0-1.642.333-3.072.998-4.29.68-1.231 1.607-2.18 2.782-2.845s2.506-.998 3.992-.998c.623 0 1.224.042 1.805.127.58.071 1.267.17 2.06.298.594.099.92.148.976.148l-.233 4.374h-1.954l-.658-3.036c-.156-.156-.425-.283-.807-.382-.382-.1-.87-.149-1.465-.149-1.203 0-2.173.56-2.909 1.678-.722 1.104-1.083 2.71-1.083 4.82 0 2.038.347 3.701 1.04 4.99.694 1.288 1.706 1.932 3.037 1.932.637 0 1.125-.057 1.465-.17.354-.127.651-.304.892-.53l.934-2.188 1.784.17-.425 3.291a4.97 4.97 0 00-.892.17c-.283.07-.46.113-.531.128-.566.155-1.097.276-1.592.36-.481.1-1.076.15-1.784.15zm13.976 0c-2.406 0-4.246-.715-5.52-2.145-1.274-1.443-1.911-3.411-1.911-5.902 0-1.642.332-3.072.998-4.29.679-1.231 1.606-2.18 2.781-2.845s2.506-.998 3.992-.998c.623 0 1.225.042 1.805.127.58.071 1.267.17 2.06.298.594.099.92.148.976.148l-.233 4.374h-1.954l-.658-3.036c-.156-.156-.425-.283-.807-.382-.382-.1-.87-.149-1.465-.149-1.203 0-2.173.56-2.909 1.678-.722 1.104-1.083 2.71-1.083 4.82 0 2.038.347 3.701 1.041 4.99.693 1.288 1.705 1.932 3.036 1.932.637 0 1.125-.057 1.465-.17.354-.127.651-.304.892-.53l.934-2.188 1.784.17-.425 3.291a4.97 4.97 0 00-.892.17c-.283.07-.46.113-.53.128-.567.155-1.098.276-1.593.36-.481.1-1.076.15-1.784.15zm13.488-16.01v1.316l-1.953.276v9.895l1.422-2.378 5.415-7.007v-.51l-1.784-.276v-1.316h6.498v1.316l-1.635.276v12.698l1.698.212v1.274h-6.561v-1.273l1.784-.213V20.116l-1.274 2.293-5.563 7.07v.66l1.889.212v1.274h-6.625V30.35l1.678-.213V17.44l-1.635-.276v-1.316h6.646zm18.061 0v1.316l-1.953.276v9.895l1.422-2.378 5.415-7.007v-.51l-1.784-.276v-1.316h6.498v1.316l-1.635.276v12.698l1.698.212v1.274h-6.561v-1.273l1.784-.213V20.116l-1.274 2.293-5.563 7.07v.66l1.889.212v1.274h-6.624V30.35l1.677-.213V17.44l-1.635-.276v-1.316h6.646zm-.594-5.096c.226 0 .339.332.339.998 0 .538.149.955.446 1.253.297.283.786.424 1.465.424.666 0 1.14-.141 1.423-.424.297-.298.446-.715.446-1.253 0-.255.021-.482.064-.68.056-.212.148-.318.276-.318h2.081l.021.573c0 1.048-.382 1.855-1.147 2.42-.764.567-1.826.85-3.185.85-1.331 0-2.385-.283-3.164-.85-.764-.58-1.146-1.386-1.146-2.42l.021-.573h2.06zm19.144 21.106c-2.407 0-4.247-.715-5.521-2.145-1.274-1.443-1.911-3.411-1.911-5.902 0-1.642.332-3.072.998-4.29.679-1.231 1.606-2.18 2.781-2.845s2.506-.998 3.992-.998c.623 0 1.225.042 1.805.127.581.071 1.267.17 2.06.298.594.099.92.148.977.148l-.234 4.374h-1.953l-.659-3.036c-.155-.156-.424-.283-.807-.382-.382-.1-.87-.149-1.465-.149-1.203 0-2.173.56-2.909 1.678-.722 1.104-1.083 2.71-1.083 4.82 0 2.038.347 3.701 1.041 4.99.693 1.288 1.706 1.932 3.036 1.932.637 0 1.126-.057 1.465-.17.354-.127.652-.304.892-.53l.934-2.188 1.784.17-.425 3.291a4.943 4.943 0 00-.891.17c-.284.07-.46.113-.531.128-.566.155-1.097.276-1.593.36-.481.1-1.076.15-1.783.15zm14.91-8.663c.51.127.991.431 1.444.913.467.467.87.984 1.21 1.55.354.552.779 1.281 1.274 2.187.382.722.687 1.267.913 1.635.241.368.46.58.658.637l.786.233v1.274h-3.355c-.354 0-.701-.268-1.04-.806-.326-.538-.758-1.38-1.296-2.527-.594-1.288-1.118-2.272-1.571-2.952-.439-.68-.906-1.019-1.401-1.019h-.998v5.797l1.89.255v1.253h-6.604V30.35l1.635-.234V17.44l-1.635-.276v-1.316h6.328v1.316l-1.614.276v5.691h1.55l3.801-5.69-1.593-.277v-1.316h5.606v1.316l-1.763.276-4.225 5.755zm13.88-7.347v1.316l-1.953.276v9.895l1.423-2.378 5.414-7.007v-.51l-1.783-.276v-1.316h6.497v1.316l-1.635.276v12.698l1.699.212v1.274h-6.561v-1.273l1.783-.213V20.116l-1.274 2.293-5.563 7.07v.66l1.89.212v1.274h-6.625V30.35l1.677-.213V17.44l-1.635-.276v-1.316h6.646zm18.062 0v1.316l-1.954.276v9.895l1.423-2.378 5.414-7.007v-.51l-1.783-.276v-1.316h6.497v1.316l-1.635.276v12.698l1.699.212v1.274h-6.561v-1.273l1.783-.213V20.116l-1.274 2.293-5.563 7.07v.66l1.89.212v1.274h-6.625V30.35l1.677-.213V17.44l-1.635-.276v-1.316h6.647zm-.595-5.096c.227 0 .34.332.34.998 0 .538.148.955.446 1.253.297.283.785.424 1.465.424.665 0 1.139-.141 1.422-.424.298-.298.446-.715.446-1.253 0-.255.022-.482.064-.68.057-.212.149-.318.276-.318h2.081l.021.573c0 1.048-.382 1.855-1.146 2.42-.765.567-1.826.85-3.185.85-1.331 0-2.386-.283-3.164-.85-.765-.58-1.147-1.386-1.147-2.42l.021-.573h2.06zM95.397 58.965c-2.407 0-4.247-.715-5.521-2.145-1.274-1.444-1.911-3.411-1.911-5.903 0-1.642.332-3.071.998-4.289.68-1.231 1.607-2.18 2.781-2.845 1.175-.666 2.506-.998 3.992-.998.623 0 1.225.042 1.805.127.58.071 1.267.17 2.06.298.594.099.92.148.977.148l-.234 4.374h-1.953l-.659-3.036c-.155-.156-.424-.283-.806-.382-.383-.1-.871-.149-1.466-.149-1.203 0-2.173.56-2.909 1.678-.722 1.104-1.083 2.71-1.083 4.82 0 2.038.347 3.701 1.04 4.99.695 1.288 1.707 1.932 3.037 1.932.637 0 1.126-.057 1.465-.17.354-.127.652-.304.892-.53l.934-2.188 1.784.17-.425 3.291a4.955 4.955 0 00-.891.17c-.284.07-.46.113-.531.127a16.6 16.6 0 01-1.593.361c-.481.1-1.076.149-1.783.149zm13.466 0c-2.307 0-4.034-.722-5.181-2.166-1.147-1.444-1.72-3.411-1.72-5.903 0-1.628.297-3.057.892-4.29.609-1.23 1.458-2.179 2.548-2.844 1.09-.666 2.343-.998 3.758-.998 2.336 0 4.084.693 5.245 2.08 1.175 1.374 1.762 3.299 1.762 5.776 0 1.642-.311 3.1-.934 4.374-.608 1.26-1.465 2.237-2.569 2.93-1.104.694-2.371 1.041-3.801 1.041zm.212-14.906c-1.16 0-2.066.573-2.717 1.72-.652 1.146-.977 2.845-.977 5.096 0 2.222.311 3.914.934 5.075.637 1.146 1.543 1.72 2.718 1.72 1.147 0 2.045-.602 2.697-1.805.651-1.218.976-2.966.976-5.245 0-2.208-.311-3.85-.934-4.926-.623-1.09-1.522-1.635-2.697-1.635zm16.447 5.797c.141-1.458.531-2.718 1.168-3.78.651-1.076 1.479-1.897 2.484-2.463 1.019-.566 2.152-.85 3.397-.85 2.265 0 3.971.68 5.118 2.04 1.146 1.358 1.72 3.248 1.72 5.669 0 1.712-.298 3.213-.892 4.501-.595 1.274-1.423 2.258-2.485 2.952-1.061.679-2.272 1.019-3.631 1.019-2.236 0-3.935-.659-5.096-1.975-1.16-1.33-1.769-3.164-1.826-5.5H122.4v5.755l1.784.233v1.274h-6.54v-1.274l1.656-.233V44.547l-1.613-.276v-1.316h6.433v1.316l-1.72.276v5.309h3.122zm6.986-5.776c-1.133 0-2.025.573-2.676 1.72-.637 1.133-.955 2.838-.955 5.117 0 2.166.311 3.822.934 4.97.623 1.146 1.522 1.719 2.697 1.719 1.118 0 1.974-.587 2.569-1.762.609-1.19.913-2.93.913-5.224 0-2.152-.297-3.78-.892-4.884-.594-1.104-1.458-1.656-2.59-1.656zm8.911-.637c.141-.014.622-.092 1.443-.233a47.438 47.438 0 011.826-.298 9.089 9.089 0 011.444-.127c1.883 0 3.32.304 4.311.913 1.005.594 1.507 1.493 1.507 2.697 0 1.132-.361 2.038-1.083 2.717-.707.666-1.578 1.098-2.611 1.296 1.33.042 2.35.396 3.057 1.061.722.652 1.083 1.508 1.083 2.57 0 1.557-.495 2.753-1.486 3.588-.991.821-2.626 1.232-4.905 1.232-.779 0-1.465-.057-2.06-.17a16.205 16.205 0 01-1.805-.467 4.999 4.999 0 00-.849-.234l.446-3.907h1.508l.658 2.888c.594.396 1.401.594 2.42.594.836 0 1.466-.283 1.89-.849.425-.58.637-1.415.637-2.505 0-.836-.226-1.536-.679-2.103-.453-.566-1.232-.849-2.336-.849h-1.401v-1.444h1.168c.863 0 1.592-.262 2.187-.785.594-.538.891-1.338.891-2.4 0-.863-.24-1.5-.722-1.91-.481-.426-1.132-.638-1.953-.638-.552 0-1.012.07-1.38.212-.368.142-.616.319-.743.531l-.425 2.06h-1.741l-.297-3.44zm19.416 1.104l-1.593-.276v-1.316h3.206c.298 0 .758-.014 1.381-.043a32.68 32.68 0 012.229-.085c1.472 0 2.633.184 3.482.552.864.354 1.473.871 1.826 1.55.369.666.553 1.515.553 2.548 0 1.784-.56 3.171-1.678 4.162-1.104.991-2.64 1.487-4.608 1.487-.778 0-1.337-.021-1.677-.064v4.183l2.845.212v1.274h-7.644v-1.274l1.678-.212V44.547zm3.1 7.156c.325.07.877.106 1.656.106.948 0 1.706-.325 2.272-.976.58-.666.87-1.763.87-3.292 0-1.189-.261-2.052-.785-2.59-.51-.552-1.295-.828-2.357-.828-.396 0-.807.028-1.232.085a3.42 3.42 0 01-.424.042v7.453zm10.917-7.156l-1.699-.276v-1.316h11.317l.277 3.567h-1.487l-.701-2.102-4.586-.191v5.712l2.951-.064.34-1.741h1.359v5.138h-1.359l-.34-1.826-2.951-.063v5.987l5.139-.254 1.231-2.718 1.593.446-.552 3.885h-12.21v-1.274l1.678-.212V44.547zm20.39 5.755c.509.127.991.431 1.444.913.467.467.87.983 1.21 1.55.354.552.779 1.28 1.274 2.187.382.722.687 1.267.913 1.635.241.368.46.58.658.637l.786.233v1.274h-3.355c-.354 0-.701-.269-1.04-.806-.326-.538-.758-1.38-1.296-2.527-.594-1.289-1.118-2.272-1.571-2.952-.439-.68-.906-1.019-1.401-1.019h-.998v5.797l1.889.255v1.252h-6.603v-1.274l1.635-.233V44.547l-1.635-.276v-1.316h6.327v1.316l-1.613.276v5.69h1.55l3.8-5.69-1.592-.276v-1.316h5.606v1.316l-1.763.276-4.225 5.755zm12.309-5.946l-3.036.106-.829 4.63h-1.783l.361-6.137h13.696l.254 6.136h-1.677l-.828-4.629-2.994-.106v12.889l2.973.212v1.274h-8.855v-1.274l2.718-.212V44.356zm16.667 14.609c-2.308 0-4.035-.722-5.181-2.166-1.147-1.444-1.72-3.411-1.72-5.903 0-1.628.297-3.057.891-4.29.609-1.23 1.459-2.179 2.549-2.844 1.09-.666 2.342-.998 3.758-.998 2.336 0 4.084.693 5.245 2.08 1.175 1.374 1.762 3.299 1.762 5.776 0 1.642-.311 3.1-.934 4.374-.609 1.26-1.465 2.237-2.57 2.93-1.104.694-2.371 1.041-3.8 1.041zm.212-14.906c-1.161 0-2.067.573-2.718 1.72-.651 1.146-.977 2.845-.977 5.096 0 2.222.312 3.914.935 5.075.637 1.146 1.543 1.72 2.717 1.72 1.147 0 2.046-.602 2.697-1.805.651-1.218.977-2.966.977-5.245 0-2.208-.312-3.85-.934-4.926-.623-1.09-1.522-1.635-2.697-1.635zm10.225.488l-1.593-.276v-1.316h3.207c.297 0 .757-.014 1.38-.043a32.68 32.68 0 012.229-.085c1.472 0 2.633.184 3.483.552.863.354 1.472.871 1.826 1.55.368.666.552 1.515.552 2.548 0 1.784-.559 3.171-1.678 4.162-1.104.991-2.64 1.487-4.607 1.487-.779 0-1.338-.021-1.678-.064v4.183l2.845.212v1.274h-7.644v-1.274l1.678-.212V44.547zm3.1 7.156c.326.07.878.106 1.656.106.949 0 1.706-.325 2.272-.976.581-.666.871-1.763.871-3.292 0-1.189-.262-2.052-.786-2.59-.51-.552-1.295-.828-2.357-.828-.396 0-.807.028-1.231.085-.199.028-.34.042-.425.042v7.453zm15.949 7.262c-2.307 0-4.034-.722-5.181-2.166-1.146-1.444-1.72-3.411-1.72-5.903 0-1.628.298-3.057.892-4.29.609-1.23 1.458-2.179 2.548-2.844 1.09-.666 2.343-.998 3.759-.998 2.335 0 4.083.693 5.244 2.08 1.175 1.374 1.763 3.299 1.763 5.776 0 1.642-.312 3.1-.935 4.374-.608 1.26-1.465 2.237-2.569 2.93-1.104.694-2.371 1.041-3.801 1.041zm.213-14.906c-1.161 0-2.067.573-2.718 1.72-.651 1.146-.977 2.845-.977 5.096 0 2.222.311 3.914.934 5.075.637 1.146 1.543 1.72 2.718 1.72 1.147 0 2.046-.602 2.697-1.805.651-1.218.977-2.966.977-5.245 0-2.208-.312-3.85-.935-4.926-.623-1.09-1.521-1.635-2.696-1.635zm10.203.488l-1.656-.276v-1.316h3.164c.481 0 1.104-.029 1.868-.085.184-.014.404-.028.659-.043.254-.014.552-.02.891-.02 2.138 0 3.631.303 4.481.912.863.595 1.295 1.486 1.295 2.676 0 1.047-.319 1.925-.956 2.633-.622.693-1.443 1.118-2.463 1.274 1.402-.014 2.499.304 3.292.955.806.651 1.21 1.557 1.21 2.718 0 1.472-.517 2.654-1.55 3.546-1.034.892-2.761 1.338-5.181 1.338a22.5 22.5 0 01-1.763-.064c-.141 0-.382-.014-.722-.042a25.042 25.042 0 00-1.04-.022h-3.206v-1.274l1.677-.212V44.547zm3.079 5.288c.156.014.474.02.956.02h.998c.863 0 1.507-.268 1.932-.806.425-.538.637-1.295.637-2.272 0-.934-.22-1.614-.658-2.039-.439-.424-1.168-.637-2.187-.637-.269 0-.829.029-1.678.085v5.648zm0 7.495c.326.127.949.191 1.869.191 1.203 0 2.073-.283 2.611-.85.538-.566.807-1.387.807-2.462 0-1.034-.247-1.77-.743-2.209-.481-.453-1.253-.68-2.314-.68-1.189 0-1.933.015-2.23.043v5.967zM24.268 56.317l-1.03-.182v-.913h2.27c.148 0 .436-.01.863-.027a22.846 22.846 0 011.461-.052c1.003 0 1.791.113 2.367.34.575.226.984.552 1.225.978.241.417.362.947.362 1.591 0 1.113-.362 1.978-1.086 2.596-.724.617-1.754.926-3.09.926-.418 0-.738-.013-.961-.04v2.374l1.838.144v.86h-5.29v-.86l1.071-.13v-7.605zm2.367 4.318c.186.043.492.065.919.065 1.206 0 1.81-.865 1.81-2.596 0-.722-.154-1.248-.46-1.578-.297-.34-.747-.509-1.35-.509-.26 0-.464.013-.613.04-.148.017-.25.03-.306.038v4.54zm10.65 4.421c-1.606 0-2.826-.434-3.662-1.304-.835-.878-1.253-2.078-1.253-3.6 0-1.026.223-1.917.669-2.674a4.425 4.425 0 011.837-1.748c.78-.408 1.662-.613 2.645-.613.39 0 .766.022 1.128.065.362.035.798.087 1.309.157.399.06.673.096.821.104l-.167 2.909h-1.49l-.473-1.996c-.204-.208-.631-.313-1.28-.313-.715 0-1.282.335-1.7 1.005-.408.66-.612 1.634-.612 2.921 0 1.252.2 2.257.599 3.013.408.757.998 1.135 1.768 1.135.38 0 .668-.035.863-.104.204-.07.376-.17.515-.3l.627-1.396 1.364.118-.25 2.126c-.27.017-.6.082-.989.195-.371.096-.724.17-1.058.222a7.84 7.84 0 01-1.211.078zm5.5-8.739l-1.03-.182v-.913h2.27c.148 0 .436-.01.863-.027a22.851 22.851 0 011.461-.052c1.003 0 1.792.113 2.367.34.575.226.984.552 1.225.978.241.417.362.947.362 1.591 0 1.113-.362 1.978-1.086 2.596-.724.617-1.754.926-3.09.926-.418 0-.738-.013-.961-.04v2.374l1.838.144v.86h-5.29v-.86l1.071-.13v-7.605zm2.367 4.318c.186.043.492.065.919.065 1.207 0 1.81-.865 1.81-2.596 0-.722-.153-1.248-.46-1.578-.297-.34-.747-.509-1.35-.509-.26 0-.464.013-.613.04-.148.017-.25.03-.306.038v4.54z" fill="#fff"/><path fill-rule="evenodd" clip-rule="evenodd" d="M30.876 26.203v-2.259c2.59-2.303 4.027-2.45 6.4-2.692 1.35-.138 3.003-.306 5.346-.922v2.259c-2.343.615-3.996.784-5.347.922-2.372.242-3.808.39-6.4 2.692z" fill="#fff"/><path fill-rule="evenodd" clip-rule="evenodd" d="M43.073 19.745v3.193l-.337.088c-2.377.625-4.058.796-5.414.935h-.002c-1.195.122-2.09.216-3.01.549-.909.33-1.867.904-3.135 2.031l-.752.669v-3.468l.152-.135c1.323-1.176 2.379-1.826 3.428-2.206 1.032-.374 2.032-.476 3.197-.595l.029-.003c1.344-.137 2.97-.303 5.278-.91l.566-.148zm-.903 1.166c-2.082.508-3.602.664-4.848.79l-.002.001c-1.195.122-2.09.216-3.01.549-.872.316-1.79.859-2.983 1.898v1.082c.986-.787 1.833-1.266 2.676-1.571 1.032-.374 2.032-.476 3.197-.595l.029-.003c1.278-.13 2.81-.287 4.94-.823v-1.328z" fill="#fff"/><path fill-rule="evenodd" clip-rule="evenodd" d="M30.876 29.366l-.007-3.163c2.59-2.303 4.027-2.45 6.4-2.692 1.35-.138 3.003-.306 5.346-.922l.007 3.163c-2.343.615-3.996.784-5.347.922-2.372.242-3.808.389-6.4 2.692z" fill="#0053A1"/><path fill-rule="evenodd" clip-rule="evenodd" d="M30.876 31.173v-2.26c2.59-2.302 4.027-2.449 6.4-2.691 1.35-.138 3.003-.307 5.346-.922v2.259c-2.343.615-3.996.784-5.347.922-2.372.242-3.808.389-6.4 2.692z" fill="#D12925"/><path fill-rule="evenodd" clip-rule="evenodd" d="M43.073 19.745v8.614l-.337.089c-2.38.625-4.089.8-5.445.938-.5.051-.953.097-1.374.16-.781.115-1.47.285-2.205.636-.738.352-1.541.896-2.537 1.78l-.752.669v-8.89l.152-.134c1.038-.922 1.911-1.522 2.748-1.921.84-.401 1.623-.59 2.462-.715.47-.07.952-.118 1.473-.171 1.343-.138 2.943-.3 5.249-.907l.566-.148zm-.903 1.166c-2.089.51-3.633.667-4.879.795-.5.05-.953.097-1.374.16-.781.115-1.47.285-2.205.635-.7.334-1.459.841-2.385 1.648v6.503c.722-.575 1.37-.987 1.996-1.286.84-.4 1.623-.59 2.462-.714.47-.07.952-.119 1.473-.172 1.277-.13 2.785-.284 4.912-.82v-6.75zm10.844 33.303H20.485v-.723h32.529v.723z" fill="#fff"/><path fill-rule="evenodd" clip-rule="evenodd" d="M37.111 13.553V50.6h-.722V13.554h.722z" fill="#fff"/><path fill-rule="evenodd" clip-rule="evenodd" d="M52.924 40.66v11.656H20.576V40.66h.723v10.933h30.902V40.66h.723z" fill="#fff"/><path fill-rule="evenodd" clip-rule="evenodd" d="M34.852 24.396V50.51h-12.47v-9.85h.724v9.126h11.023v-25.39h.723zm3.795 0V50.51h12.47v-9.85h-.724v9.126H39.37v-25.39h-.723z" fill="#fff"/><path fill-rule="evenodd" clip-rule="evenodd" d="M40.455 32.528v16.174h8.855v-8.041h-.723v7.319h-7.41V32.527h-.722zm-7.41 0v16.174H24.19v-8.041h.723v7.319h7.41V32.528h.722z" fill="#fff"/><path d="M15.55 51.335l-4.083 2.617-.848-1.323c-.322-.502-.51-.842-.567-1.02a1.269 1.269 0 01.024-.845c.103-.289.317-.537.642-.746.25-.16.49-.25.72-.269.23-.018.438.012.627.09.186.077.341.178.466.303.165.172.367.444.606.818l.345.537 1.54-.987.529.825zm-3.92 1.35l1.158-.743-.29-.451c-.207-.325-.368-.529-.481-.611a.645.645 0 00-.743-.019.626.626 0 00-.284.366c-.04.15-.03.299.031.448.045.11.162.314.353.611l.255.399zm-.651-4.57c-.46.183-.872.268-1.238.255a2.3 2.3 0 01-.784-.172 1.906 1.906 0 01-.639-.423 2.664 2.664 0 01-.565-.9c-.264-.664-.27-1.277-.016-1.839.253-.564.746-.991 1.48-1.284.727-.29 1.376-.318 1.945-.087.567.232.983.68 1.247 1.342.266.67.275 1.284.024 1.842-.252.558-.737.98-1.454 1.266zm-.404-.925c.51-.203.85-.475 1.021-.816.169-.34.18-.692.036-1.055a1.226 1.226 0 00-.745-.736c-.356-.129-.795-.09-1.317.119-.517.205-.857.473-1.02.801-.165.327-.172.678-.023 1.053.15.375.4.626.749.752.347.128.78.088 1.299-.118zm-1.338-7.533l.119-.99c.547.045.98.21 1.296.495.315.284.52.681.618 1.193.12.633.004 1.194-.35 1.683-.356.49-.91.806-1.659.95-.793.15-1.447.062-1.963-.264-.518-.326-.84-.823-.967-1.49-.111-.583-.03-1.09.246-1.519.163-.255.424-.474.785-.655l.409.91a1.025 1.025 0 00-.518.465c-.109.205-.14.435-.09.691.067.354.248.617.544.79.295.17.726.201 1.294.093.602-.114 1.01-.304 1.225-.57.215-.265.29-.571.223-.918a.981.981 0 00-.37-.613c-.197-.154-.478-.237-.842-.251zm-.091-5.277l.304-.949c.53.148.922.391 1.18.732.254.338.38.768.38 1.288-.003.644-.224 1.173-.664 1.587-.442.413-1.045.619-1.808.616-.808-.002-1.434-.213-1.878-.63-.447-.419-.669-.968-.667-1.647.002-.594.179-1.075.53-1.445.209-.22.507-.384.895-.493l.23.97a1.022 1.022 0 00-.598.359c-.146.18-.22.4-.22.66-.001.36.127.653.385.879.257.223.675.336 1.253.338.613.002 1.05-.107 1.311-.327.261-.22.392-.506.393-.86a.98.98 0 00-.246-.672c-.165-.188-.425-.323-.78-.406zm-2.692-2.757l.177-.899 3.169.622-2.79-2.55.188-.959 4.76.935-.177.9-3.107-.61 2.729 2.535-.189.961-4.76-.935zm1.485-5.658l.344-.85 2.993 1.213-2.255-3.035.366-.904 4.496 1.821-.344.85-2.935-1.19 2.199 3.008-.368.908-4.496-1.821zm-.175-2.785l.17-.42c.268.137.447.324.537.56.089.234.078.487-.032.759-.11.271-.28.461-.506.57-.228.104-.486.113-.774.025l.17-.42a.517.517 0 00.393-.02c.11-.058.198-.17.266-.338s.083-.31.045-.428a.517.517 0 00-.27-.288zm6.963-3.41l.77-.633c.364.41.562.828.594 1.254.03.422-.096.852-.38 1.288-.35.54-.822.865-1.417.974-.595.107-1.213-.047-1.854-.462-.677-.44-1.089-.956-1.235-1.549-.149-.593-.038-1.175.332-1.745.323-.497.733-.806 1.229-.926.294-.072.634-.049 1.02.07l-.334.94a1.026 1.026 0 00-.696-.022 1.022 1.022 0 00-.544.436 1.109 1.109 0 00-.153.946c.095.328.385.649.87.963.514.334.94.48 1.28.437.338-.044.603-.213.795-.51a.981.981 0 00.158-.698c-.037-.247-.182-.502-.435-.764zm-.771-3.763l.673-.711 1.5 1.42c.133-.174.194-.32.182-.438-.013-.118-.114-.378-.302-.778-.242-.509-.339-.882-.29-1.118.046-.236.225-.518.536-.846l.095-.106.526.499-.098.098c-.138.146-.22.27-.247.372a.552.552 0 00.009.318c.034.112.127.317.279.615.08.159.137.302.17.431.035.127.028.289-.021.485.195-.116.409-.16.642-.134.235.024.535.093.9.204l1.42.435-.791.836-1.309-.442a6.833 6.833 0 01-.363-.098c-.26-.072-.439-.1-.538-.081-.098.017-.205.084-.32.203l1.542 1.46-.673.712-3.522-3.336zm3.896-3.639l.741-.54 1.904 2.609-.316-3.768.788-.575 2.86 3.919-.74.54-1.867-2.558.28 3.714-.79.578-2.86-3.92zm4.934-3.145l.83-.39 1.373 2.923.406-3.758.883-.416 2.063 4.39-.83.39-1.346-2.866-.429 3.701-.887.417-2.063-4.39zm1.762-2.162l.41-.193c.104.283.109.541.014.776-.093.231-.273.41-.538.534-.266.125-.518.15-.758.075-.24-.078-.434-.247-.586-.507l.41-.193c.08.135.181.22.302.253.12.032.261.01.425-.068.164-.077.272-.171.324-.284a.516.516 0 00-.003-.393zm11.249 1.828l.977.195c-.087.543-.285.96-.595 1.254-.307.292-.72.466-1.237.522-.64.07-1.191-.09-1.651-.48-.46-.394-.732-.97-.816-1.728-.088-.803.05-1.448.416-1.937.366-.49.886-.773 1.562-.847.59-.065 1.088.056 1.494.365.242.182.44.46.591.833l-.938.337a1.025 1.025 0 00-.424-.553 1.022 1.022 0 00-.681-.145c-.358.04-.634.2-.83.48-.193.282-.258.71-.195 1.284.067.61.225 1.032.472 1.266.248.235.547.333.898.294a.981.981 0 00.64-.32c.17-.185.274-.458.317-.82zm2.026-.555c.04-.492.147-.9.322-1.222.13-.237.297-.446.503-.626.207-.18.428-.308.662-.384a2.663 2.663 0 011.058-.106c.712.058 1.263.325 1.654.802.392.477.557 1.11.492 1.896-.063.78-.326 1.375-.786 1.782-.46.405-1.045.579-1.756.52-.718-.058-1.272-.324-1.66-.796-.39-.474-.552-1.096-.49-1.866zm1.008.05c-.044.547.048.973.278 1.277.23.302.54.47.928.5.39.033.72-.08.99-.34.274-.26.434-.672.48-1.232.045-.554-.043-.978-.265-1.27-.22-.293-.53-.455-.933-.488-.402-.033-.738.08-1.006.336-.27.255-.426.66-.472 1.217zM44.05 6.73l.938.28-.578 1.94.754.225c.226-.556.571-.976 1.035-1.259.464-.282 1.03-.324 1.695-.126.64.191 1.089.55 1.343 1.077.255.528.268 1.176.038 1.945-.15.504-.36.91-.632 1.217-.27.306-.587.512-.947.619-.359.105-.762.09-1.21-.043-.457-.136-.799-.317-1.026-.541-.226-.224-.392-.527-.5-.909a2.54 2.54 0 01-.028-1.2l-.755-.225-.575 1.928-.939-.28L44.05 6.73zm1.937 3.115c-.154.516-.17.945-.05 1.288.122.34.37.565.741.676.383.114.71.061.984-.159.275-.222.496-.61.662-1.166.159-.533.164-.956.016-1.27a1.129 1.129 0 00-.736-.623 1.077 1.077 0 00-.937.131c-.286.187-.513.561-.68 1.123z" fill="#fff"/><path d="M50.468 10.619l-.737-.644c.552-.6 1.253-.675 2.102-.222.502.267.822.58.958.938.14.356.13.684-.028.982a1.064 1.064 0 01-.47.461c-.205.102-.457.152-.757.152.233.25.372.501.419.756.048.253.002.51-.137.77-.2.376-.5.606-.9.69-.398.086-.871-.017-1.42-.31-.448-.238-.762-.5-.942-.786-.18-.288-.225-.671-.138-1.15l.93.162c-.055.3-.036.525.058.672.096.149.243.276.442.382.272.145.502.192.689.142a.62.62 0 00.403-.307.572.572 0 00.013-.537c-.084-.181-.267-.348-.552-.5l-.195-.104.343-.645.1.053c.265.14.499.19.702.145a.667.667 0 00.462-.36.587.587 0 00.038-.487c-.056-.167-.19-.307-.402-.42-.362-.193-.69-.137-.981.167zm4.278 7.408l3.516-3.343 1.083 1.14c.41.431.66.73.75.894.138.251.184.53.135.834-.046.303-.21.588-.49.854a1.582 1.582 0 01-.656.4 1.338 1.338 0 01-.632.03 1.416 1.416 0 01-.514-.21c-.195-.137-.445-.366-.75-.687l-.44-.463-1.327 1.26-.675-.71zm3.596-2.067l-.998.948.37.389c.266.28.462.449.588.508a.645.645 0 00.733-.122.627.627 0 00.21-.413.677.677 0 00-.115-.434c-.065-.1-.219-.278-.462-.534l-.326-.342zm-.407 5.821l4.087-2.614 1.938 3.03-.691.442-1.41-2.205-.907.58 1.313 2.051-.689.44-1.312-2.05-1.112.711 1.46 2.283-.688.44-1.989-3.108zm6.92 2.506l.37.907-1.912.78c.102.193.21.309.323.346.113.038.39.053.834.046.562-.01.942.056 1.138.198.195.14.377.419.548.838l.057.13-.671.273-.05-.13c-.075-.185-.154-.312-.236-.378a.553.553 0 00-.293-.124 4.838 4.838 0 00-.676 0 2.15 2.15 0 01-.463-.022c-.13-.02-.274-.094-.432-.22.025.225-.023.439-.143.64a5.05 5.05 0 01-.558.735l-.982 1.115-.435-1.067.943-1.009.074-.09a4.84 4.84 0 01.165-.2c.173-.207.272-.359.296-.457.026-.096.008-.221-.052-.375l-1.968.802-.37-.908 4.493-1.83zm-2.817 7.119l3.94-.853-.305-1.406.802-.174.816 3.767-.802.174-.304-1.403-3.94.853-.207-.958zm2.858 3.057c.494-.016.91.045 1.25.183.25.102.477.245.679.429.202.186.354.39.456.615.137.298.212.644.224 1.039.022.714-.181 1.292-.611 1.734-.43.443-1.04.678-1.83.702-.782.024-1.401-.17-1.858-.581-.454-.412-.692-.974-.714-1.687-.023-.72.179-1.3.605-1.74.427-.439 1.027-.67 1.799-.694zm.064 1.007c-.549.017-.962.157-1.238.42a1.242 1.242 0 00-.394.978c.012.39.162.706.45.946.29.243.716.356 1.279.338.555-.017.966-.152 1.232-.406.266-.25.392-.578.38-.981-.013-.404-.162-.725-.447-.963-.283-.238-.704-.349-1.262-.332zm-2.576 4.19l4.789.772-.25 1.552c-.095.588-.181.967-.258 1.138-.116.263-.31.468-.582.614-.269.146-.594.189-.975.127-.294-.047-.533-.14-.716-.28a1.34 1.34 0 01-.408-.484 1.418 1.418 0 01-.145-.537c-.008-.238.023-.576.094-1.014l.101-.63-1.806-.292.156-.966zm3.823 1.609l-1.36-.22-.085.53c-.061.38-.077.64-.048.776a.646.646 0 00.541.51c.175.028.327 0 .456-.084a.677.677 0 00.275-.355c.04-.112.09-.342.145-.69l.076-.467zm-2.562 3.839c.464.17.828.382 1.092.636.194.189.35.406.47.651.118.248.183.495.194.74.016.329-.043.678-.18 1.049-.245.67-.65 1.131-1.213 1.38-.564.252-1.217.242-1.959-.03-.735-.269-1.238-.68-1.508-1.232-.268-.551-.28-1.161-.034-1.83.248-.678.65-1.141 1.21-1.39.56-.248 1.203-.24 1.928.026zm-.316.96c-.516-.19-.95-.214-1.305-.073a1.242 1.242 0 00-.73.761c-.134.367-.113.715.065 1.046.178.333.532.596 1.06.79.522.19.954.218 1.295.083.34-.134.58-.39.718-.77.139-.379.12-.732-.056-1.06-.174-.326-.523-.586-1.047-.778zm.201 5.432l-1 1.66c-.198.33-.36.566-.484.71a1.232 1.232 0 01-.432.33 1.232 1.232 0 01-.541.111 1.09 1.09 0 01-.562-.164 1.124 1.124 0 01-.44-.482 1.128 1.128 0 01-.11-.645c-.226.209-.469.328-.728.357-.26.03-.51-.029-.75-.173a1.44 1.44 0 01-.472-.466 1.294 1.294 0 01-.212-.618 1.388 1.388 0 01.143-.679c.069-.149.263-.492.58-1.03l.852-1.414L63.53 51.5zm-1.197.422l-.96-.578-.332.55a8.582 8.582 0 00-.352.617.645.645 0 00-.056.427.51.51 0 00.25.32.522.522 0 00.377.08.551.551 0 00.337-.225c.06-.078.208-.314.446-.709l.29-.482zm-1.652-.995l-1.112-.669-.467.777c-.182.302-.29.5-.321.59a.604.604 0 00-.018.403.598.598 0 00.282.332.633.633 0 00.372.1.599.599 0 00.35-.148c.107-.09.276-.326.506-.707l.408-.678zM45.785 34.335c2.71 0 3.163-.903 3.614-2.71-1.355.452-2.258.452-3.614 2.71z" fill="#fff"/><path fill-rule="evenodd" clip-rule="evenodd" d="M49.4 31.625c-.176.058-.343.109-.505.158-.18.054-.352.107-.52.165-.667.23-1.269.553-1.969 1.464a9.686 9.686 0 00-.62.923c.423 0 .792-.022 1.114-.066 1.291-.177 1.833-.71 2.183-1.597a8.78 8.78 0 00.316-1.047z" fill="#fff"/><path d="M42.171 37.008c.393-2.682 1.352-2.999 3.206-3.184-.644 1.276-.774 2.17-3.206 3.184z" fill="#fff"/><path fill-rule="evenodd" clip-rule="evenodd" d="M45.377 33.824c-.084.165-.158.323-.23.476-.08.17-.156.332-.238.49-.325.628-.732 1.176-1.734 1.737a9.71 9.71 0 01-1.004.48c.062-.419.137-.78.227-1.093.362-1.252.968-1.71 1.897-1.928a8.56 8.56 0 011.082-.162z" fill="#fff"/><path d="M31.824 37.008c-.393-2.683-1.352-2.999-3.205-3.184.643 1.275.773 2.17 3.205 3.184z" fill="#fff"/><path fill-rule="evenodd" clip-rule="evenodd" d="M28.619 33.824c.083.165.157.323.23.476.079.17.155.332.237.49.325.627.732 1.176 1.734 1.737.283.158.614.318 1.004.48a8.256 8.256 0 00-.227-1.093c-.362-1.252-.968-1.711-1.896-1.929a8.562 8.562 0 00-1.082-.161z" fill="#fff"/><path d="M47.593 30.721c2.71 0 2.71-1.807 2.71-3.614-.903.904-2.258 1.807-2.71 3.614z" fill="#fff"/><path fill-rule="evenodd" clip-rule="evenodd" d="M50.303 27.107a16.43 16.43 0 01-.562.528c-.116.106-.235.214-.354.326-.536.503-1.083 1.078-1.46 1.845a4.579 4.579 0 00-.334.915c.372 0 .693-.034.97-.097 1.255-.288 1.605-1.178 1.703-2.238.038-.41.038-.844.038-1.28z" fill="#fff"/><path d="M48.045 29.366c-1.356-.904-1.807-.904-1.805-3.162 1.807.903 2.257 1.806 1.805 3.162z" fill="#fff"/><path fill-rule="evenodd" clip-rule="evenodd" d="M46.24 26.204c.357.178.66.356.915.538.7.5 1.026 1.026 1.051 1.65.013.3-.044.622-.161.974-.154-.102-.296-.193-.427-.277a16.213 16.213 0 01-.364-.237c-.566-.384-.857-.705-.964-1.595a8.9 8.9 0 01-.05-1.053z" fill="#fff"/><path d="M26.342 29.366c1.356-.904 1.807-.904 1.804-3.163-1.807.904-2.256 1.807-1.804 3.163z" fill="#fff"/><path fill-rule="evenodd" clip-rule="evenodd" d="M28.146 26.203c-.356.179-.66.357-.914.539-.7.5-1.026 1.025-1.052 1.65-.012.3.045.621.162.974.154-.103.296-.194.427-.277.132-.085.253-.162.364-.237.565-.384.857-.705.964-1.595.034-.286.05-.63.05-1.054z" fill="#fff"/><path d="M26.81 30.721c-2.71 0-2.71-1.807-2.71-3.614.903.904 2.259 1.807 2.71 3.614z" fill="#fff"/><path fill-rule="evenodd" clip-rule="evenodd" d="M24.1 27.107c.174.174.365.348.563.528.116.106.234.214.353.326.537.503 1.083 1.078 1.46 1.845.137.278.251.581.335.915-.372 0-.693-.034-.97-.097-1.256-.288-1.606-1.178-1.703-2.238-.038-.41-.038-.844-.038-1.28z" fill="#fff"/><path d="M25.908 26.204c-2.348-1.356-2.259-2.953-1.355-4.518.33 1.234 1.867 2.727 1.355 4.518z" fill="#fff"/><path fill-rule="evenodd" clip-rule="evenodd" d="M24.553 21.686c.09.34.273.698.478 1.077l.114.209c.371.677.777 1.417.854 2.224.03.325.008.66-.091 1.008a6.063 6.063 0 01-.81-.552c-1.071-.877-1.29-1.832-1.042-2.801.099-.388.273-.777.497-1.165z" fill="#fff"/><path d="M26.358 25.751c2.259-1.355 2.259-1.355 2.257-3.614-.45.904-2.257.904-2.257 3.614z" fill="#fff"/><path fill-rule="evenodd" clip-rule="evenodd" d="M28.615 22.137c-.143.288-.423.484-.739.704l-.17.12c-.471.338-.98.772-1.215 1.655a4.407 4.407 0 00-.133 1.135c.371-.222.681-.408.94-.574.579-.37.904-.636 1.086-.979.11-.208.168-.445.199-.75.033-.336.033-.755.032-1.31z" fill="#fff"/><path d="M47.948 25.751c-2.26-1.355-2.26-1.355-2.258-3.614.45.904 2.258.904 2.258 3.614z" fill="#fff"/><path fill-rule="evenodd" clip-rule="evenodd" d="M45.69 22.137c.143.288.424.484.74.704l.17.12c.471.338.98.772 1.215 1.655.084.315.133.689.133 1.135a41.91 41.91 0 01-.94-.574c-.58-.37-.904-.636-1.086-.979-.11-.208-.169-.445-.199-.75-.033-.336-.033-.755-.033-1.31z" fill="#fff"/><path d="M48.306 26.204c2.347-1.356 2.259-2.953 1.355-4.518-.33 1.234-1.867 2.727-1.355 4.518z" fill="#fff"/><path fill-rule="evenodd" clip-rule="evenodd" d="M49.661 21.686c-.09.34-.273.698-.478 1.077l-.114.209c-.372.677-.777 1.417-.854 2.224-.03.325-.008.66.09 1.008.313-.18.581-.364.81-.552 1.072-.877 1.291-1.832 1.043-2.801a4.685 4.685 0 00-.497-1.165z" fill="#fff"/><path d="M47.56 21.823c1.52-2.245.742-3.642-.754-4.655.242 1.255-.489 3.269.755 4.655z" fill="#fff"/><path fill-rule="evenodd" clip-rule="evenodd" d="M46.806 17.168c.066.345.06.747.04 1.178l-.011.237c-.038.772-.08 1.614.204 2.374.114.306.281.598.522.866.202-.297.363-.58.487-.85.58-1.256.36-2.211-.287-2.975a4.683 4.683 0 00-.955-.83z" fill="#fff"/><path d="M47.141 21.686c-2.26 0-2.716-.903-3.62-2.259 1.361.451 2.909.537 3.62 2.259z" fill="#fff"/><path fill-rule="evenodd" clip-rule="evenodd" d="M43.521 19.427c.249.083.504.153.758.223.202.056.405.111.604.173.617.192 1.204.442 1.668.932a3 3 0 01.59.93c-.41 0-.761-.03-1.066-.086-.818-.152-1.305-.5-1.721-.99-.233-.275-.444-.594-.678-.949l-.155-.233z" fill="#fff"/><path d="M27.399 21.685c2.26 0 2.716-.902 3.62-2.258-1.361.451-2.909.537-3.62 2.258z" fill="#fff"/><path fill-rule="evenodd" clip-rule="evenodd" d="M31.019 19.427a15.76 15.76 0 01-.758.223c-.203.056-.405.111-.604.173-.617.192-1.204.442-1.668.932a2.99 2.99 0 00-.59.93c.41 0 .761-.03 1.066-.086.818-.153 1.305-.5 1.721-.99.233-.275.444-.594.678-.949l.155-.233z" fill="#fff"/><path d="M26.927 21.823c-1.519-2.245-.741-3.642.756-4.655-.242 1.255.488 3.269-.756 4.655z" fill="#fff"/><path fill-rule="evenodd" clip-rule="evenodd" d="M27.683 17.168c-.067.345-.06.747-.04 1.178l.01.237c.039.772.08 1.614-.204 2.374a2.695 2.695 0 01-.522.866 6.073 6.073 0 01-.487-.85c-.58-1.256-.36-2.211.287-2.975.258-.305.585-.58.956-.83z" fill="#fff"/><path d="M29.07 18.975c-.451-2.259-.326-2.956 1.357-3.614-.513 1.17.162 2.535-1.356 3.614z" fill="#fff"/><path fill-rule="evenodd" clip-rule="evenodd" d="M30.427 15.36c-.155.355-.202.727-.233 1.104l-.014.183c-.04.506-.078 1.017-.343 1.499a2.48 2.48 0 01-.766.829c-.079-.393-.14-.738-.178-1.045-.12-.948-.023-1.52.444-1.955.25-.232.605-.425 1.09-.614z" fill="#fff"/><path d="M45.476 18.975c.452-2.259.327-2.956-1.356-3.614.513 1.17-.162 2.535 1.356 3.614z" fill="#fff"/><path fill-rule="evenodd" clip-rule="evenodd" d="M44.12 15.36c.155.355.202.727.233 1.104l.014.183c.039.506.078 1.017.343 1.499.158.288.398.567.766.829.079-.393.14-.738.178-1.045.12-.948.022-1.52-.444-1.955-.25-.232-.605-.425-1.09-.614z" fill="#fff"/><path d="M45.117 18.975c-2.288.267-1.807-.452-2.71-1.356.903.453 1.93.241 2.71 1.356z" fill="#fff"/><path fill-rule="evenodd" clip-rule="evenodd" d="M42.406 17.62c.302.15.617.227.931.304.17.042.34.083.507.136.048.015.096.032.144.049.403.147.79.38 1.13.866-.65.076-1.077.072-1.376.007a1.223 1.223 0 01-.273-.091c-.264-.128-.39-.334-.547-.588a3.429 3.429 0 00-.516-.684z" fill="#fff"/><path d="M29.523 18.975c2.288.267 1.807-.452 2.71-1.356-.903.453-1.93.241-2.71 1.356z" fill="#fff"/><path fill-rule="evenodd" clip-rule="evenodd" d="M32.233 17.62c-.3.15-.616.227-.93.304-.17.042-.34.083-.507.136a3.515 3.515 0 00-.145.049c-.402.147-.789.38-1.128.866.65.076 1.076.072 1.374.007.106-.023.196-.054.274-.091.263-.128.39-.334.547-.588.125-.203.268-.436.515-.684z" fill="#fff"/><path d="M43.072 17.168c.002-1.355-.453-2.36-2.257-2.259.904.452.904 1.807 2.257 2.26z" fill="#fff"/><path fill-rule="evenodd" clip-rule="evenodd" d="M40.815 14.909c.391.196.613.56.849.948l.029.048c.125.205.256.415.42.608.23.272.525.51.96.655 0-.409-.041-.785-.148-1.11-.112-.34-.297-.622-.582-.822-.345-.243-.838-.366-1.528-.327z" fill="#fff"/><path d="M31.338 17.168c-.002-1.355.453-2.36 2.257-2.259-.903.452-.903 1.807-2.257 2.26z" fill="#fff"/><path fill-rule="evenodd" clip-rule="evenodd" d="M33.595 14.91c-.391.195-.613.56-.849.947l-.029.048a4.7 4.7 0 01-.42.608 2.07 2.07 0 01-.96.655c0-.409.041-.785.148-1.11.112-.34.297-.621.582-.822.345-.243.838-.366 1.528-.327z" fill="#fff"/><path d="M28.618 34.335c-2.71 0-3.162-.903-3.614-2.71 1.355.452 2.259.452 3.614 2.71z" fill="#fff"/><path fill-rule="evenodd" clip-rule="evenodd" d="M25.004 31.625c.175.058.342.109.505.158.179.054.35.107.519.165.668.23 1.269.553 1.97 1.464.197.257.403.561.62.923-.424 0-.792-.022-1.115-.066-1.29-.177-1.833-.71-2.183-1.597a8.578 8.578 0 01-.316-1.047z" fill="#fff"/><path d="M28.242 33.38c.932-1.973.43-2.612-.73-3.563-.138 1.142-.449 1.8.73 3.564z" fill="#fff"/><path fill-rule="evenodd" clip-rule="evenodd" d="M27.511 29.817a15.55 15.55 0 01-.058.422c-.034.227-.065.44-.078.658-.025.44.028.892.301 1.494.132.29.316.615.566.99.194-.411.326-.764.402-1.074.189-.76.045-1.262-.327-1.724-.205-.255-.48-.498-.806-.765z" fill="#fff"/><path d="M46.124 33.38c-.932-1.973-.43-2.612.731-3.563.137 1.143.448 1.8-.73 3.564z" fill="#fff"/><path fill-rule="evenodd" clip-rule="evenodd" d="M46.855 29.817c.018.148.038.288.058.422.034.227.065.44.078.658.025.44-.027.892-.301 1.494a7.06 7.06 0 01-.566.99 5.855 5.855 0 01-.402-1.074c-.188-.76-.045-1.262.327-1.724.205-.255.48-.498.806-.765z" fill="#fff"/></svg>