<svg width="67" height="72" fill="none" xmlns="http://www.w3.org/2000/svg"><g clip-path="url(#clip0_2_2090)"><mask id="a" style="mask-type:luminance" maskUnits="userSpaceOnUse" x="0" y="0" width="66" height="72"><path d="M65.353.096H.673v71.503h64.68V.096z" fill="#fff"/></mask><g mask="url(#a)" fill-rule="evenodd" clip-rule="evenodd" fill="#fff"><path d="M.674 22.477h63.975v-2.701H.674v2.7zm49.011 4.92h-7.072V52.65H39.23V35.516c0-1.435-.081-2.342-.347-3.23-.512-1.771-1.702-3.665-3.198-4.426-.903-.463-1.948-.653-3.034-.653-1.27 0-2.46.274-3.463.907-1.334.823-2.359 2.611-2.83 4.342-.225.802-.286 1.688-.286 3.06V52.65H22.69V27.397h-7.072V52.65h-3.341l-.042-25.253H5.39V52.65H2.027V27.397H.674v-2.701h63.974v2.7h-1.352V52.65h-3.361V27.397h-6.888V52.65h-3.362V27.397zM1.63 15.588l1.968-2.701 1.947 2.7-1.947 2.702-1.968-2.701zm8.917 48.044c1.146.507 2.13 1.731 2.13 3.503 0 2.28-1.209 3.735-2.746 4.178-.943.295-1.926.295-2.828.295H1.63V56.184h5.8c.717 0 1.517.02 2.316.232 1.374.379 2.644 1.561 2.644 3.735 0 2.004-1.107 2.975-1.844 3.376v.105zm-3.015-.76c.535 0 1.025-.063 1.436-.316.594-.337 1.005-1.055 1.005-2.131 0-1.055-.493-1.752-1.21-2.004-.348-.148-.778-.191-1.332-.191H4.007v4.643h3.525zm2.666 4.263c0-1.118-.533-1.751-1.169-2.026-.41-.169-.88-.21-1.291-.21h-3.73v4.684h3.69c.45 0 .88-.042 1.23-.168.8-.318 1.27-1.056 1.27-2.28zm3.193-51.653a1.343 1.343 0 01-.88-1.265c0-.74.573-1.33 1.311-1.33.718 0 1.292.59 1.292 1.33 0 .59-.35 1.075-.861 1.244l1.25 2.617H12.14l1.25-2.596zM31.657 69.35l-1.599 2.258H15.012l8.158-15.425h5.002v13.23l3.485-.063zm-5.822.169V58.06h-1.557l-5.925 11.458h7.482zm-3.177-51.635H42.58v-2.7H22.658v2.7zm6.052-4.919h8.077v-2.701H28.71v2.7zm.957-9.862h5.945V.423h-5.945v2.68zm.637 2.24h4.387L32.497 8.38l-2.193-3.038zm17.122 50.84v15.425h-2.378v-7.153h-7.604v7.153h-2.359V56.183h2.359v6.162h7.604v-6.162h2.378zm3.568-40.722c-.512-.17-.86-.655-.86-1.245 0-.739.573-1.33 1.291-1.33a1.31 1.31 0 011.312 1.33c0 .59-.37 1.076-.881 1.266l1.25 2.596h-3.362l1.25-2.617zM57.83 65.32l-4.119 6.288h-2.378l5.371-7.955-5.124-7.47h2.849l3.73 5.444 3.545-5.444h2.297l-4.735 7.09 5.698 8.335h-2.829l-4.304-6.289zm1.787-49.732l1.947-2.701 1.968 2.7-1.968 2.702-1.947-2.701z"/></g></g><defs><clipPath id="clip0_2_2090"><path fill="#fff" transform="translate(.545)" d="M0 0h66v72H0z"/></clipPath></defs></svg>