<svg width="183" height="72" fill="none" xmlns="http://www.w3.org/2000/svg"><g clip-path="url(#clip0_2_2087)" fill="#fff"><path d="M121.201 48.086h-.025V43.67h-.938v5.952h.852l3.269-4.416h.015v4.416h.937V43.67h-.85l-3.26 4.416zm5.263-3.57h1.789v5.1h.936v-5.1h1.788v-.851h-4.513v.85zm-9.881 4.335a2.212 2.212 0 010-4.416 2.249 2.249 0 011.771.825l.655-.535a3.12 3.12 0 00-2.434-1.141c-1.788 0-3.152 1.361-3.152 3.062 0 1.701 1.364 3.06 3.152 3.06a3.201 3.201 0 002.469-1.165l-.656-.541a2.307 2.307 0 01-1.813.85h.008zm-16.522-2.431a1.282 1.282 0 00.74-1.183c0-.85-.724-1.572-1.788-1.572h-2.392v5.952h2.511c1.154 0 1.96-.809 1.96-1.744a1.606 1.606 0 00-1.039-1.453h.008zm-2.5-1.947h1.448a.813.813 0 01.85.807.808.808 0 01-.85.808h-1.448v-1.615zm1.575 4.335h-1.575v-1.96h1.575a.98.98 0 01.979.977.977.977 0 01-.979.978v.005zm13.291-3.231c0-1.062-.852-1.92-2.001-1.92h-2.385v5.952h.938v-2.118h1.447c1.157 0 2.001-.85 2.001-1.914zm-2.001 1.064h-1.447v-2.126h1.447a1.07 1.07 0 011.025.645 1.069 1.069 0 01-.243 1.186 1.071 1.071 0 01-.782.295zm-3.654 2.125h-3.365v-1.81h2.598v-.851h-2.59v-1.59h3.269v-.85h-4.206v5.952h4.302l-.008-.85zm-12.843-3.571h.017v4.416h.937v-5.952h-.852l-3.252 4.416h-.027v-4.416h-.936v5.952h.852l3.261-4.416zm-14.722 2.85c-.23.466-.511.78-1.08.78a1.96 1.96 0 01-.495-.067v.816c.195.078.404.115.614.11.834 0 1.404-.484 1.813-1.386l2.087-4.633h-.962l-1.463 3.323h-.017l-1.798-3.323h-1.039l2.377 4.32-.037.06zm5-1.022h2.936v2.594h.937v-5.952h-.937v2.507H84.22v-2.507h-.938v5.952h.938l-.013-2.594zm52.208 1.745h-3.363v-1.81h2.596v-.851h-2.596v-1.59h3.269v-.85h-4.205v5.952h4.299v-.851zm2.692.85h.937v-5.103h1.788v-.85h-4.513v.85h1.788v5.104zm-38.217 3.839h-1.192l-2.683 2.891v-2.891h-.932v5.952h.936v-1.786l.937-1.021 1.959 2.807h1.154l-2.487-3.487 2.308-2.465zm-8.367 3.323h-.017L90.7 53.457h-1.04l2.385 4.32-.035.06c-.23.466-.511.78-1.083.78a1.988 1.988 0 01-.494-.067v.816c.195.077.404.115.614.11.834 0 1.405-.484 1.815-1.386l2.086-4.633h-.961l-1.464 3.323zm86.938-3.96c.852 0 1.381-.577 1.381-1.278h-.715a.668.668 0 01-1.122.447.662.662 0 01-.207-.447h-.715c-.004.7.523 1.277 1.374 1.277h.004zm-98.067 3.144h-2.946v-2.507h-.937v5.952h.937v-2.594h2.938v2.594h.936v-5.952h-.936l.008 2.507zm4.45-2.507l-2.385 5.952h.961l.596-1.536h2.64l.597 1.536h.996l-2.385-5.952h-1.02zm-.493 3.567l.961-2.496h.016l.961 2.496h-1.938zm95.785-3.571l-3.253 4.416h-.025v-4.416h-.937v5.952h.85l3.269-4.416h.015v4.416h.939v-5.952h-.858zm-77.987 4.416h-.027v-4.416h-.936v5.952h.852l3.269-4.416h.017v4.416h.936v-5.952h-.851l-3.26 4.416zm57.529-4.493a3.081 3.081 0 00-2.905 1.873 3.06 3.06 0 00-.244 1.19c0 1.7 1.361 3.06 3.149 3.06 1.789 0 3.152-1.36 3.152-3.06 0-1.702-1.363-3.063-3.152-3.063zm0 5.272a2.215 2.215 0 01-2.172-2.644 2.216 2.216 0 113.741 1.998 2.201 2.201 0 01-1.569.64v.006zm-13.762-5.272c-1.788 0-3.151 1.361-3.151 3.062 0 1.701 1.363 3.06 3.151 3.06 1.789 0 3.15-1.358 3.15-3.06a3.06 3.06 0 00-.93-2.192 3.084 3.084 0 00-2.22-.87zm0 5.272a2.215 2.215 0 01-2.174-2.643 2.206 2.206 0 011.741-1.738 2.218 2.218 0 012.481 3.018 2.193 2.193 0 01-2.048 1.358v.005zm18.268.768h.936v-5.109h2.898v-.85h-3.832l-.002 5.96zm5.899-1.536h-.025v-4.416h-.936v5.952h.852L174.243 55h.017v4.416h.936v-5.952h-.852l-3.261 4.416zm-18.91-2.636c-.069 2.848-.511 3.358-1.065 3.358a1.46 1.46 0 01-.467-.084v.85c.172.084.362.127.554.127 1.115 0 1.813-.768 1.898-4.25l.025-.936h2.115v5.102h.936v-5.952h-3.951l-.045 1.785zm-32.121-.935h1.797v5.102h.937v-5.104h1.788v-.85h-4.521l-.001.852zm-7.625 3.57h-.027v-4.417h-.934v5.952h.852l3.269-4.416h.017v4.416h.936v-5.952h-.852l-3.261 4.416zm23.844-4.417h-1.098l-1.44 2.15h-.017l-1.439-2.15h-1.115l1.958 2.857-2.129 3.095h1.098l1.609-2.407h.018l1.594 2.402h1.117l-2.131-3.122 1.975-2.825zm-9.614 3.291h2.597v-.85h-2.597v-1.59h3.269v-.85h-4.213v5.951h4.299v-.854h-3.355v-1.807zm14.827-.783h-2.946v-2.513h-.936v5.952h.936v-2.594h2.938v2.594h.937v-5.952h-.937l.008 2.513zM37.146 28.128c-1.56 0-3.083.462-4.38 1.327a7.874 7.874 0 00-3.352 8.08 7.868 7.868 0 002.157 4.031 7.888 7.888 0 008.592 1.707 7.882 7.882 0 003.538-2.9 7.864 7.864 0 00-.98-9.94 7.89 7.89 0 00-5.575-2.305zM9.072 36a28.01 28.01 0 018.223-19.822 28.095 28.095 0 0119.851-8.21V0C17.244 0 1.092 16.128 1.092 36s16.152 36 36.054 36v-7.968a28.095 28.095 0 01-19.851-8.21A28.01 28.01 0 019.072 36zm28.074 9.984a10.01 10.01 0 01-5.555-1.683 9.987 9.987 0 01-3.683-4.48 9.968 9.968 0 012.168-10.88 10.005 10.005 0 0110.896-2.165 9.996 9.996 0 014.488 3.677A9.973 9.973 0 0147.145 36h7.98c0-3.55-1.054-7.021-3.03-9.974a17.974 17.974 0 00-8.069-6.611 18.005 18.005 0 00-19.593 3.891 17.927 17.927 0 00-3.897 19.564 17.957 17.957 0 006.621 8.056 17.998 17.998 0 009.99 3.026v-7.968zm0-38.016v7.968a20.11 20.11 0 0114.209 5.877A20.05 20.05 0 0157.24 36a20.05 20.05 0 01-5.885 14.188 20.11 20.11 0 01-14.209 5.876v7.968a28.096 28.096 0 0019.852-8.21A28.011 28.011 0 0065.22 36a28.011 28.011 0 00-8.222-19.822 28.096 28.096 0 00-19.852-8.21zm51.191 18.624l-9.343-10.028h-1.467V36h4.098V25.056l6.14 6.432h1.153l6.14-6.436v10.944h4.098V16.571h-1.477l-9.342 10.021zm18.691 1.743V16.8h-4.096v19.428h1.585l11.948-11.77V36h4.096V16.572h-1.584l-11.949 11.763zm26.176-8.04c2.129 0 4.027 1.151 5.273 3.04l2.884-2.783a10.086 10.086 0 00-8.157-4.184c-5.534 0-10.191 4.358-10.191 10.024 0 5.666 4.667 10.025 10.191 10.025a10.087 10.087 0 008.157-4.184l-2.884-2.784c-1.246 1.89-3.144 3.041-5.273 3.041-3.305 0-5.997-2.53-5.997-6.098 0-3.567 2.692-6.09 5.997-6.09v-.008zm14.874 8.04V16.8h-4.098v19.428h1.587l11.952-11.77V36h4.098V16.572h-1.586l-11.953 11.763zm26.176 4.155c-3.307 0-5.997-2.53-5.997-6.098 0-3.567 2.692-6.098 5.997-6.098 2.129 0 4.027 1.152 5.271 3.042l2.884-2.784a10.096 10.096 0 00-8.157-4.184c-5.536 0-10.203 4.358-10.203 10.024 0 5.666 4.667 10.025 10.203 10.025a10.111 10.111 0 008.169-4.176l-2.885-2.784c-1.255 1.889-3.153 3.04-5.282 3.04v-.007z"/></g><defs><clipPath id="clip0_2_2087"><path fill="#fff" transform="translate(.904)" d="M0 0h181.521v72H0z"/></clipPath></defs></svg>