<svg width="138" height="35" fill="none" xmlns="http://www.w3.org/2000/svg"><path d="M22.946 2.453V14.67H12.231V2.453h-4.87v30.073h4.87V19.368h10.715v13.158h4.872V2.453h-4.872zm26.302 0L38.533 21.835V2.453h-4.87v30.073h4.87L49.248 11.85v20.676h4.87V2.453h-4.87zm26.302 0L64.834 21.835V2.453h-4.87v30.073h4.87L75.55 11.85v20.676h4.87V2.453h-4.87zm28.249 30.073h4.87l-9.74-15.977 6.818-14.096h-4.87l-5.91 12.217h-3.832V2.453h-4.87v30.073h4.87V19.368h4.642l8.022 13.158zm24.32-30.073h-13.152l-4.349 4.195V28.33l4.349 4.196h13.288l4.768-4.601v-4.797h-4.871v2.85l-1.916 1.848h-9.252l-1.495-1.443V8.594l1.495-1.443h9.118l2.05 1.979v3.504h4.871V7.183l-4.904-4.73z" fill="#fff"/></svg>