<svg width="394" height="385" fill="none" xmlns="http://www.w3.org/2000/svg"><path d="M1 117.995c48.998-29.5 95.135 37.197 128.187 24.288 8.537-3.334 24.48-38.009 15.632-41.954-10.141-4.521-8.005 29.934-1.844 46.178 3.128 8.247 5.949 20.172 10.961 29.421 25.736 47.498 167.376 69.778 208.862 7.158 35.099-52.978 26.028-128.674-49.99-159.548-25.012-10.158-42.075-9.509-69.289-8.18-29.511 1.442-62.494 19.142-65.827 35.624m138.583 217.469c-45.039-26.718-42.07-14.844-79.685-14.844-33.16-1.484-32.666-17.15-61.868-18.306-50.158-1.987-43.71 23.719-31.747 13.358 22.852-19.79 10.96-34.634-13.788-9.4-17.345 17.685-72.774 71.399-113.338 114.787-8.796 9.409 24.113 30.303 24.747 25.233 1.485-11.874-30.191-24.738-27.222-15.832 4.864 14.587 24.25 24.244 30.034 17.2 2.925-3.562 108.786-129.195 113.396-136.365 4.609-7.169 6.133-15.094 0-24.814-20.292-32.161-24.15-33.15-34.049-68.773-10.406-37.451-3.697-74.552 20.22-103.408C188.086-7.138 254.903-2.19 301.922 9.685 348.411 21.425 392 63.615 392 113.092c0 40.088-12.373 85.101-60.382 108.355-52.067 25.22-129.096 14.078-168.278-17.317-30.282-24.264-47.378-99.449-20.365-141.505 18.728-29.157 59.892-48.996 94.109-51.72 31.676-2.52 83.644 20.318 51.968 12.633-31.676-7.684-43.059 13.995-58.402 18.872-15.343 4.877-25.346 22.298-16.333 17.973 13.625-6.538 27.612-18.439 32.171-21.927 8.413-6.436-8.607-6.95-13.859-7.265-27.288-1.629-38.957 9.322-54.937 19.791m0 0c-4.558 11.54-7.48 24.833-24.423 29.439-3.973 1.08 4.231-16.21 24.423-29.439z" stroke="#2B2B2B" stroke-width="3"/></svg>