<svg width="661" height="381" fill="none" xmlns="http://www.w3.org/2000/svg"><path d="M1.046 178.211s48.953-40.073 98.24-7.073c14.582 9.763 21.807 21.948 38.279 28 16.095 5.914 38.317-3.348 52.721-12.801 5.273-3.461 10-18.108-4.102-21.887-17.959-4.812-41.434 119.156-36.898 129.688 4 9.289 131.812 48.43 140 44.5 5.63-2.702 7.056-54.254 11.948-62.05 4.301-6.851 14.984 5.799 23.067 5.475 16.116-.648 28.685-25.96 6.191-36.187-7.221-3.284-18.787 2.631-19.62-5.257-.99-9.384 10.412-36.481 10.412-45.481 0-4.969-33.499-12-41.612-13.348-4.446-.739-1.864-8.742 6.613-20.152 13-17.5-34-33.046-34-7.003 0 8.5 1.467 19.288-6 16.503-7.467-2.786-55.873-12.952-63.499-18.5-7.67-5.58 26.171-132.462 39-136.5 10.214-3.215 133.247 28.745 137 35 3 5-10.062 35-10.062 48.217 0 6.451.24 7.418 15.062 6.783 35-1.5 15 48.497-5 32-8.292-6.839-13-13.657-17.948-9.353-13.052 11.353-18.527 50.831-15.421 57.552 2.219 4.8 39.326 14.136 46.085 13.744 16.284-.943.471-9.914 5.784-18.291 12.92-20.371 33.238-12.853 35 9.348.919 11.588-16.5 8-4.511 20.065 5.767 5.803 52.716 9.925 57.201 16.734 4.499 6.832-29.584 144.095-40.305 150.42-14.888 8.781-281.429-62.719-287.106-76.93-6.706-16.789 50.556-289.916 77.217-298.289 26.661-8.373 292.755 60.736 290.5 79.5-1.947 16.197-23.498 116.065-31.998 128.565-11.799 17.351-19.247-8.24-2.5-18.065 37.499-22 73.509 47.376 97.998 52.738 46 10.072 91.001-10.738 91.001-10.738" stroke="#2B2B2B" stroke-width="3"/></svg>