<svg width="176" height="30" fill="none" xmlns="http://www.w3.org/2000/svg"><circle cx="139" cy="15" r="13.5" transform="rotate(90 139 15)" stroke="#5B5B5B" stroke-width="3"/><circle cx="77" cy="15" r="14" transform="rotate(90 77 15)" stroke="#272727" stroke-width="2"/><circle cx="15" cy="15" r="14.5" transform="rotate(90 15 15)" stroke="#232323"/><path fill-rule="evenodd" clip-rule="evenodd" d="M159 16H0v2h159v-2z" fill="url(#paint0_linear_6_2)"/><path d="M152 15l3.558.764a10 10 0 017.678 7.678L164 27l.764-3.558a10 10 0 017.678-7.678L176 15l-3.558-.764a10 10 0 01-7.678-7.678L164 3l-.764 3.558a10 10 0 01-7.678 7.678L152 15z" fill="#727272"/><defs><linearGradient id="paint0_linear_6_2" x1="150.178" y1="17" x2="46.9" y2="17" gradientUnits="userSpaceOnUse"><stop stop-color="#363636"/><stop offset="1" stop-color="#727272" stop-opacity="0"/></linearGradient></defs></svg>