<svg width="444" height="539" fill="none" xmlns="http://www.w3.org/2000/svg"><path d="M318 285l3.416 15.907a10 10 0 007.677 7.677L345 312l-15.907 3.416a10 10 0 00-7.677 7.677L318 339l-3.416-15.907a10 10 0 00-7.677-7.677L291 312l15.907-3.416a10 10 0 007.677-7.677L318 285zM8 523l.057.265a10 10 0 007.678 7.678L16 531l-.265.057a10 10 0 00-7.678 7.678L8 539l-.057-.265a10 10 0 00-7.678-7.678L0 531l.265-.057a10 10 0 007.678-7.678L8 523zm140-289l.234 1.089a10 10 0 007.677 7.677L157 243l-1.089.234a10 10 0 00-7.677 7.677L148 252l-.234-1.089a10 10 0 00-7.677-7.677L139 243l1.089-.234a10 10 0 007.677-7.677L148 234zM331 0l.234 1.089a10 10 0 007.677 7.677L340 9l-1.089.234a10 10 0 00-7.677 7.677L331 18l-.234-1.089a10 10 0 00-7.677-7.677L322 9l1.089-.234a10 10 0 007.677-7.677L331 0z" fill="#232323"/><path d="M304.18 300.483a1 1 0 00.804-1.164l-1.625-8.852a1 1 0 10-1.967.361l1.444 7.869-7.869 1.443a1 1 0 00.361 1.968l8.852-1.625zM8.246 511.657a1 1 0 001.411.097l6.784-5.915a.999.999 0 10-1.314-1.507l-6.03 5.257-5.257-6.03a1 1 0 00-1.508 1.314l5.914 6.784zm296.322-212.98c-16.363-11.289-42.162-17.336-71.785-16.7-29.649.636-63.245 7.966-95.283 23.561-64.115 31.21-121.972 95.515-129.498 205.394l1.996.136c7.474-109.121 64.867-172.816 128.377-203.731 31.774-15.467 65.085-22.731 94.451-23.361 29.393-.63 54.719 5.386 70.606 16.347l1.136-1.646zm-155.027-70.392c.158.529.714.831 1.244.674l8.627-2.563a1 1 0 00-.569-1.917l-7.669 2.278-2.277-7.669a1 1 0 00-1.918.569l2.562 8.628zm168.115 47.345c-5.655-42.682-40.389-68.234-77.169-76.386-18.401-4.079-37.39-3.827-53.635.838-16.245 4.665-29.819 13.767-37.231 27.441l1.758.954c7.088-13.076 20.139-21.911 36.025-26.473 15.884-4.561 34.531-4.824 52.65-.808 36.262 8.038 70.11 33.118 75.619 74.697l1.983-.263zm11.116-248.765a1 1 0 00-1.407-.137l-6.952 5.716a1 1 0 001.27 1.544l6.18-5.08 5.081 6.179a1 1 0 101.544-1.27l-5.716-6.952zm.158 268.502c17.348-43.997 14.816-85.461 9.25-128.62-5.572-43.196-14.17-88.044-9.185-139.15l-1.99-.194c-5.014 51.394 3.638 96.546 9.191 139.6 5.558 43.091 8.026 84.127-9.126 127.63l1.86.734z" fill="#232323"/></svg>