<svg width="161" height="39" fill="none" xmlns="http://www.w3.org/2000/svg"><path d="M1.682 26.808l.665 3.935-.343.058-.6-3.556-.87.767-.202-.227 1.055-.927.295-.05zm4.016 2.012l.048.284-.532.09.175 1.035-.338.057-.175-1.036-1.721.291-.043-.254.743-2.913.31.07-.691 2.751 1.354-.229-.153-1.16.296-.05.195 1.154.532-.09zM7.7 25.79l.045.267-.922 3.977-.337-.052.908-3.842-1.84.311-.049-.29 2.195-.37zm3.479-.654c.406-.069.743.053 1.01.364.268.308.457.795.57 1.462.112.663.09 1.185-.063 1.569a1.024 1.024 0 01-.83.67 1.03 1.03 0 01-1.01-.36c-.268-.311-.458-.8-.57-1.467-.114-.667-.094-1.19.057-1.567.15-.379.43-.603.836-.671zm.048.284c-.588.1-.784.73-.587 1.894.197 1.167.59 1.701 1.178 1.602.287-.049.48-.227.578-.536.102-.309.103-.762.002-1.357-.1-.596-.25-1.023-.448-1.281-.194-.264-.435-.37-.723-.322zm3.028-.804c.399-.067.72.022.965.269.247.242.414.614.498 1.114.086.51.084.938-.008 1.286a1.85 1.85 0 01-.514.884c-.247.24-.59.47-1.027.69l-.133-.25c.516-.258.892-.555 1.127-.891.24-.337.33-.758.273-1.263a1.372 1.372 0 01-.357.48c-.15.123-.323.2-.52.234a1.05 1.05 0 01-.575-.055 1.094 1.094 0 01-.458-.367 1.539 1.539 0 01-.248-.64 1.451 1.451 0 01.04-.706 1.12 1.12 0 01.355-.522c.163-.138.357-.225.582-.263zm.315 2.259a.879.879 0 00.472-.232c.133-.128.246-.299.34-.514-.076-.47-.2-.804-.37-1.002-.173-.202-.405-.279-.697-.23-.264.046-.458.17-.582.373-.12.199-.154.46-.099.784.051.303.16.526.326.669a.72.72 0 00.61.152zm3.556-.942c.325.071.57.178.736.32.17.138.276.335.319.591a1.025 1.025 0 01-.46 1.058 1.58 1.58 0 01-.646.249 1.577 1.577 0 01-.691-.023 1.086 1.086 0 01-.508-.304 1.07 1.07 0 01-.25-.542c-.085-.505.135-.917.661-1.237-.25-.067-.443-.16-.576-.28a.885.885 0 01-.251-.511.923.923 0 01.065-.553.962.962 0 01.35-.406c.157-.108.332-.178.525-.21.194-.033.381-.026.564.02a.979.979 0 01.464.262.891.891 0 01.25.506.865.865 0 01-.082.561c-.09.165-.246.332-.47.5zm-1.322-.732c.032.19.11.33.236.423.129.092.336.164.62.218l.195.034c.2-.156.338-.305.411-.447a.737.737 0 00.07-.487c-.038-.224-.138-.388-.302-.49-.16-.103-.355-.135-.588-.095a.808.808 0 00-.518.282c-.12.15-.162.338-.124.562zm1.228 2.659c.28-.047.491-.154.634-.32.145-.17.197-.382.154-.635a.784.784 0 00-.155-.375.76.76 0 00-.318-.226 2.813 2.813 0 00-.556-.156l-.214-.043c-.247.147-.418.312-.512.494a.972.972 0 00-.078.622c.043.252.159.434.348.544.188.11.421.142.697.095zm3.944-4.549c.33-.056.61-.004.835.157.23.16.37.392.422.696.043.256.031.506-.038.748a3.511 3.511 0 01-.377.825c-.18.306-.477.768-.892 1.386l1.864-.315.003.31-2.218.375-.05-.29c.444-.668.758-1.159.944-1.474.19-.32.315-.589.375-.806.064-.222.077-.449.037-.682-.04-.232-.14-.406-.3-.52a.727.727 0 00-.574-.117 1.04 1.04 0 00-.466.194 1.424 1.424 0 00-.34.405l-.266-.138a1.6 1.6 0 01.437-.512c.17-.122.37-.202.604-.242zm2.95-.498c.399-.068.72.022.965.269.247.242.414.613.498 1.114.086.509.084.937-.008 1.286a1.85 1.85 0 01-.514.883c-.247.241-.59.471-1.027.691l-.134-.251c.517-.258.893-.554 1.128-.89.24-.337.33-.758.273-1.264a1.37 1.37 0 01-.357.48 1.1 1.1 0 01-.52.235 1.052 1.052 0 01-.575-.055 1.096 1.096 0 01-.458-.367 1.538 1.538 0 01-.248-.64 1.451 1.451 0 01.039-.706c.073-.215.192-.39.356-.523.163-.137.357-.224.582-.262zm.315 2.259a.879.879 0 00.472-.232c.133-.128.246-.3.34-.514-.076-.47-.2-.804-.371-1.002-.172-.202-.404-.279-.696-.23-.264.045-.458.17-.582.373-.12.199-.154.46-.099.783.052.304.16.527.326.67a.72.72 0 00.61.152zm2.866-2.797c.406-.069.743.053 1.01.365.268.308.457.795.57 1.461.112.663.09 1.186-.064 1.569a1.024 1.024 0 01-.83.67 1.03 1.03 0 01-1.01-.36c-.267-.311-.457-.8-.57-1.467-.113-.666-.093-1.189.058-1.567a1.03 1.03 0 01.836-.67zm.048.284c-.588.1-.784.73-.587 1.894.197 1.168.59 1.702 1.177 1.602.288-.048.481-.227.58-.535.101-.31.102-.762.001-1.358-.1-.595-.25-1.022-.448-1.281-.194-.263-.435-.37-.723-.322zm6.362-1.422l-.867 2.106 1.653 1.93-.408.069-1.52-1.788-.639.108.336 1.988-.355.06-.684-4.053.355-.06.298 1.769.645-.11.813-1.956.373-.063zm5.007 3.322l-.343.058-.511-1.91a54.584 54.584 0 01-.452-1.736l-.473 3.396-.337.057-1.598-3.046c.045.386.091.899.139 1.54l.02.234.153 1.982-.337.057-.3-4.117.49-.083 1.54 2.983.437-3.317.497-.084 1.075 3.986zm3.009-4.622c.406-.068.743.053 1.01.365.268.308.458.795.57 1.461.112.663.091 1.186-.063 1.569a1.024 1.024 0 01-.83.67 1.03 1.03 0 01-1.01-.36c-.268-.31-.458-.8-.57-1.467-.113-.666-.094-1.189.057-1.567a1.03 1.03 0 01.836-.67zm.048.284c-.588.1-.783.73-.587 1.894.198 1.168.59 1.702 1.178 1.603.288-.049.48-.228.579-.536.102-.31.102-.762.002-1.358-.101-.595-.25-1.022-.448-1.28-.195-.264-.436-.371-.724-.323zm2.779 2.84a.266.266 0 01.215.05.258.258 0 01.116.181c.015.087.003.2-.034.34l-.198.843-.249.042.09-.91a.25.25 0 01-.117-.083.296.296 0 01-.06-.136.259.259 0 01.05-.21.278.278 0 01.187-.116zm1.365-3.832c.398-.067.72.022.964.269.248.242.414.614.499 1.114.086.51.083.938-.008 1.286a1.852 1.852 0 01-.514.884c-.248.24-.59.47-1.027.69l-.134-.25c.516-.258.892-.555 1.127-.891.24-.337.33-.758.274-1.263a1.37 1.37 0 01-.357.48c-.15.123-.324.2-.52.234a1.05 1.05 0 01-.576-.055 1.094 1.094 0 01-.457-.367 1.54 1.54 0 01-.248-.64 1.451 1.451 0 01.038-.706 1.12 1.12 0 01.356-.522c.164-.137.358-.225.583-.263zm.314 2.259a.879.879 0 00.472-.232c.133-.128.246-.299.34-.514-.076-.47-.2-.804-.37-1.002-.173-.202-.405-.278-.697-.23-.264.045-.458.17-.582.373-.12.199-.153.46-.099.784.052.303.16.526.326.668a.72.72 0 00.61.153zm3.557-.942c.324.071.57.178.735.32.17.138.276.335.32.591a1.025 1.025 0 01-.46 1.058 1.578 1.578 0 01-.647.249 1.577 1.577 0 01-.691-.023 1.087 1.087 0 01-.508-.304 1.072 1.072 0 01-.25-.542c-.085-.505.136-.917.662-1.237-.251-.068-.443-.16-.577-.28a.885.885 0 01-.25-.512.922.922 0 01.064-.552.962.962 0 01.351-.406 1.28 1.28 0 01.525-.21 1.35 1.35 0 01.563.02.978.978 0 01.464.262.89.89 0 01.25.506.864.864 0 01-.082.561c-.09.165-.246.332-.47.5zm-1.323-.732c.032.19.11.33.236.423.13.092.336.164.621.218l.194.034c.201-.156.338-.305.412-.447a.738.738 0 00.07-.487c-.038-.224-.14-.388-.302-.49-.16-.103-.356-.135-.588-.095a.809.809 0 00-.519.282c-.12.15-.162.338-.124.562zm1.228 2.659c.28-.047.492-.154.634-.32.146-.17.197-.382.154-.635a.785.785 0 00-.154-.375.76.76 0 00-.319-.226 2.813 2.813 0 00-.555-.156l-.214-.043c-.247.147-.418.312-.513.494a.972.972 0 00-.078.622c.043.253.159.434.348.544.189.11.421.142.697.095zm2.268-4.265a1.2 1.2 0 01.596.033c.18.058.326.155.438.29.112.132.183.29.215.476.043.256.005.477-.113.664a.95.95 0 01-.507.39.91.91 0 01.68.17c.199.141.323.362.374.662.038.228.022.44-.051.635s-.197.36-.373.495c-.172.13-.383.217-.631.259a1.454 1.454 0 01-1.216-.318l.186-.232c.158.123.314.206.468.25.156.038.323.042.5.012.285-.048.494-.166.628-.356.135-.189.18-.415.135-.68-.093-.552-.436-.778-1.027-.678l-.26.044v-.286l.189-.032a.868.868 0 00.54-.298c.134-.165.18-.373.137-.626a.669.669 0 00-.294-.48c-.16-.106-.354-.14-.583-.102a1.161 1.161 0 00-.44.166 1.428 1.428 0 00-.373.35l-.22-.183c.133-.176.28-.315.441-.415.161-.104.348-.174.56-.21zm2.843-.481c.331-.056.61-.004.836.157.23.16.37.392.422.695.043.257.03.506-.038.75a3.51 3.51 0 01-.378.824c-.18.306-.477.768-.892 1.386l1.864-.315.004.31-2.219.374-.049-.29a37.24 37.24 0 00.944-1.473c.189-.32.314-.589.375-.806.064-.222.076-.45.037-.682-.04-.233-.14-.406-.301-.521a.73.73 0 00-.574-.116 1.03 1.03 0 00-.466.194 1.422 1.422 0 00-.34.405l-.266-.138a1.6 1.6 0 01.437-.512c.17-.122.371-.203.604-.242zm2.95-.499c.399-.067.72.023.965.27.248.242.414.613.499 1.114.086.509.083.937-.008 1.285a1.852 1.852 0 01-.514.884c-.248.24-.59.471-1.027.691l-.134-.251c.516-.258.892-.555 1.127-.89.24-.337.33-.758.274-1.264a1.37 1.37 0 01-.357.48c-.15.123-.324.201-.52.235a1.05 1.05 0 01-.576-.055 1.094 1.094 0 01-.457-.367 1.538 1.538 0 01-.248-.64 1.452 1.452 0 01.038-.706c.074-.215.192-.39.356-.523.164-.137.358-.225.583-.263zm.316 2.26a.88.88 0 00.471-.232c.133-.128.246-.3.34-.514-.076-.47-.2-.804-.37-1.002-.173-.202-.405-.279-.697-.23-.264.045-.458.17-.582.373-.12.199-.153.46-.099.783.052.304.16.527.327.669a.72.72 0 00.61.152zm2.861-2.73l.665 3.935-.343.058-.601-3.556-.868.768-.203-.228 1.054-.926.296-.05zm2.013-.406a1.2 1.2 0 01.596.033c.18.058.326.155.438.29.112.132.183.29.215.476.043.256.005.477-.113.664a.951.951 0 01-.507.39.91.91 0 01.68.17c.199.142.323.362.374.662.038.228.022.44-.051.635s-.197.36-.373.495c-.172.13-.383.217-.631.259a1.453 1.453 0 01-1.216-.318l.185-.232c.16.123.315.206.469.25.156.038.323.042.5.012.285-.048.494-.167.628-.356.135-.189.18-.415.135-.68-.094-.552-.436-.778-1.028-.678l-.26.044v-.286l.19-.032a.868.868 0 00.54-.298c.134-.165.18-.373.137-.626a.669.669 0 00-.294-.48c-.16-.106-.354-.14-.583-.102a1.16 1.16 0 00-.44.166 1.428 1.428 0 00-.374.35l-.219-.183c.133-.176.28-.315.441-.415a1.46 1.46 0 01.56-.21zm4.834 1.94l.048.283-.533.09.175 1.035-.337.057-.175-1.035-1.721.291-.044-.254.744-2.913.31.07-.692 2.751 1.355-.229-.153-1.16.295-.05.195 1.153.533-.09zm4.949.52l-.542-1.047-1.704.288-.168 1.167-.36.06.67-4.28.443-.076 2.034 3.825-.373.063zm-2.196-1.077l1.508-.255-1.149-2.228-.36 2.483zm3.209.395a.266.266 0 01.215.048.259.259 0 01.116.181.276.276 0 01-.236.332.278.278 0 01-.216-.048.278.278 0 01-.116-.188.258.258 0 01.05-.209.277.277 0 01.187-.116zm2.73-4.119l.008.303-1.662.28.255 1.51 1.438-.244.05.296-1.438.243.28 1.657 1.745-.295.05.296-2.1.354-.685-4.052 2.059-.348zm1.522 3.4a.266.266 0 01.215.049.259.259 0 01.116.181.85.85 0 01-.034.34l-.198.843-.249.042.09-.91a.25.25 0 01-.118-.083.296.296 0 01-.06-.136.258.258 0 01.05-.21.278.278 0 01.188-.116zm-.39-2.307a.266.266 0 01.215.048.26.26 0 01.116.182.276.276 0 01-.236.332.278.278 0 01-.215-.05.278.278 0 01-.117-.186.259.259 0 01.05-.21.277.277 0 01.187-.116zm3.804-1.806l.665 3.935-.343.058-.6-3.556-.869.768-.203-.228 1.055-.927.295-.05zm3.16-.242l-1.597.27.227 1.343c.197-.159.411-.258.644-.297.339-.057.626.008.86.195.238.183.39.464.453.843.043.256.03.496-.043.719a1.16 1.16 0 01-.363.548 1.31 1.31 0 01-.635.278 1.507 1.507 0 01-1.192-.286l.178-.243c.149.113.3.19.452.228.153.04.324.043.513.01.28-.047.485-.177.616-.39.13-.216.167-.486.112-.81-.053-.315-.168-.537-.344-.665-.172-.133-.385-.179-.637-.136a1.12 1.12 0 00-.33.104 1.56 1.56 0 00-.295.196l-.272.046-.323-1.91 1.982-.335-.005.293zm1.696-.645c.332-.056.61-.004.836.157.23.16.37.392.422.695.043.257.03.506-.038.75a3.51 3.51 0 01-.378.824c-.18.306-.477.768-.891 1.386l1.863-.315.004.31-2.219.374-.049-.29a37.24 37.24 0 00.944-1.473c.19-.32.314-.59.375-.806.064-.222.076-.45.037-.682-.04-.233-.14-.406-.301-.521-.158-.116-.349-.154-.573-.116-.182.03-.337.095-.467.194a1.422 1.422 0 00-.339.404l-.267-.137a1.6 1.6 0 01.437-.512c.17-.122.372-.203.604-.242zm4.78-.808c.406-.068.743.053 1.01.365.267.308.457.795.57 1.462.112.662.09 1.185-.064 1.568a1.024 1.024 0 01-.83.67 1.03 1.03 0 01-1.01-.359c-.267-.312-.457-.801-.57-1.468-.113-.666-.094-1.189.057-1.567.151-.379.43-.602.836-.67zm.047.284c-.587.1-.783.731-.586 1.894.197 1.168.59 1.702 1.177 1.603.288-.049.481-.228.579-.536.102-.31.103-.762.002-1.357-.1-.596-.25-1.023-.448-1.282-.194-.263-.436-.37-.724-.322zm3.029-.804c.398-.067.72.023.964.27.248.242.414.613.499 1.114.086.509.083.937-.008 1.285a1.85 1.85 0 01-.514.884c-.247.24-.59.471-1.027.691l-.134-.251c.516-.258.892-.555 1.128-.89.239-.337.33-.758.273-1.264a1.371 1.371 0 01-.357.48c-.15.123-.323.201-.52.234a1.05 1.05 0 01-.576-.054 1.094 1.094 0 01-.457-.367 1.54 1.54 0 01-.248-.64 1.453 1.453 0 01.039-.706c.073-.215.192-.39.356-.523.163-.137.357-.225.582-.263zm.315 2.26a.879.879 0 00.472-.232c.132-.128.245-.3.339-.514-.075-.47-.199-.804-.37-1.002-.172-.203-.404-.279-.696-.23-.264.045-.459.17-.582.373-.12.198-.154.46-.1.783.052.304.16.527.327.669a.72.72 0 00.61.152zm3.556-.942c.325.07.57.177.736.32.169.137.275.334.319.59a1.025 1.025 0 01-.46 1.058 1.577 1.577 0 01-.646.25 1.577 1.577 0 01-.692-.024 1.087 1.087 0 01-.507-.303 1.071 1.071 0 01-.25-.542c-.085-.505.135-.918.66-1.238-.25-.067-.442-.16-.576-.28a.886.886 0 01-.25-.511.922.922 0 01.064-.553.961.961 0 01.352-.406c.156-.107.33-.177.524-.21a1.35 1.35 0 01.563.02.978.978 0 01.464.263.892.892 0 01.25.505.865.865 0 01-.082.562c-.09.165-.246.331-.469.499zm-1.322-.732c.032.19.11.33.235.422.13.092.337.165.621.218l.195.034c.2-.155.338-.304.411-.447a.736.736 0 00.07-.486c-.038-.225-.139-.388-.302-.49-.16-.104-.355-.135-.588-.096a.808.808 0 00-.518.282c-.121.15-.162.338-.124.563zm1.228 2.658c.28-.047.491-.154.633-.32.146-.17.197-.382.155-.634a.785.785 0 00-.155-.376.76.76 0 00-.318-.226 2.813 2.813 0 00-.556-.155l-.214-.043c-.247.147-.418.312-.513.494a.972.972 0 00-.077.622c.042.252.158.433.347.543.19.11.422.142.698.095zm3.943-4.548c.332-.056.61-.004.836.157.23.16.371.391.422.695.043.257.031.506-.038.749a3.47 3.47 0 01-.378.824c-.179.307-.476.768-.891 1.386l1.863-.315.004.31-2.219.375-.049-.29c.443-.667.758-1.158.944-1.474.189-.32.314-.588.375-.806a1.52 1.52 0 00.037-.681c-.039-.233-.14-.407-.301-.521a.727.727 0 00-.573-.116c-.182.03-.337.095-.467.194a1.43 1.43 0 00-.339.404l-.267-.137a1.6 1.6 0 01.437-.512c.17-.122.372-.203.604-.242zm2.779-.47c.221-.037.419-.026.596.033a.94.94 0 01.438.291.96.96 0 01.214.475c.044.257.006.478-.113.665a.95.95 0 01-.506.39.91.91 0 01.68.17c.199.141.323.362.374.661.038.23.021.44-.051.636a1.11 1.11 0 01-.373.495c-.173.13-.383.217-.632.259a1.455 1.455 0 01-1.216-.318l.186-.232c.159.123.315.206.468.249.157.039.324.043.502.013.284-.048.493-.167.627-.356.134-.189.179-.415.135-.68-.094-.552-.436-.778-1.028-.678l-.26.044v-.286l.19-.032a.874.874 0 00.54-.298c.134-.165.18-.373.137-.626a.668.668 0 00-.294-.48c-.16-.106-.354-.14-.583-.102a1.16 1.16 0 00-.441.166 1.439 1.439 0 00-.373.349l-.219-.182a1.62 1.62 0 01.441-.415 1.47 1.47 0 01.561-.21zm2.843-.48c.331-.056.61-.004.836.157.229.16.37.391.421.695.044.257.031.506-.037.749a3.55 3.55 0 01-.378.824c-.18.307-.477.769-.892 1.386l1.864-.315.003.31-2.218.375-.049-.29c.443-.667.757-1.158.944-1.474.189-.32.314-.588.374-.805a1.51 1.51 0 00.037-.682c-.039-.233-.139-.407-.301-.521-.157-.116-.348-.154-.573-.116a1.03 1.03 0 00-.466.194 1.431 1.431 0 00-.34.404l-.266-.137a1.6 1.6 0 01.437-.512c.17-.122.371-.203.604-.242zm6.284-1.117l-.867 2.106 1.653 1.93-.408.069-1.52-1.788-.638.108.335 1.987-.355.06-.684-4.052.355-.06.299 1.769.644-.11.814-1.956.372-.063zm5.007 3.322l-.343.058-.511-1.91a57.63 57.63 0 01-.452-1.736l-.473 3.396-.337.057-1.598-3.046c.045.385.091.899.139 1.54l.021.234.152 1.982-.337.057-.3-4.118.491-.082 1.539 2.983.437-3.317.497-.084 1.075 3.986zm3.121-4.574l.665 3.935-.344.058-.6-3.556-.869.767-.202-.227 1.054-.927.296-.05zm1.906 3.213a.264.264 0 01.215.05.257.257 0 01.116.18.83.83 0 01-.033.34l-.199.844-.248.042.089-.91a.25.25 0 01-.117-.083.3.3 0 01-.06-.136.262.262 0 01.05-.21.277.277 0 01.187-.117zm1.587-3.87c.407-.069.743.053 1.011.365.267.307.457.795.57 1.461.112.663.09 1.186-.064 1.569a1.024 1.024 0 01-.83.67 1.03 1.03 0 01-1.01-.36c-.267-.311-.458-.8-.57-1.467-.113-.666-.094-1.189.057-1.567a1.03 1.03 0 01.836-.671zm.048.284c-.587.1-.783.73-.586 1.894.197 1.168.589 1.702 1.177 1.602.288-.048.481-.227.579-.536.102-.309.102-.761.002-1.357-.101-.595-.25-1.023-.448-1.281-.195-.263-.436-.37-.724-.322zm3.149-.757l.665 3.934-.343.058-.601-3.556-.868.768-.203-.228 1.054-.926.296-.05zm2.699.955a.994.994 0 01.806.193c.232.175.383.464.451.867.047.28.037.535-.029.765a1.158 1.158 0 01-.332.555 1.09 1.09 0 01-.564.266c-.434.073-.779-.039-1.036-.336-.254-.302-.429-.733-.523-1.293a3.734 3.734 0 01-.029-1.212c.058-.355.178-.639.361-.852.183-.218.42-.351.712-.4a1.29 1.29 0 01.772.106l-.108.262a1.088 1.088 0 00-.622-.083c-.32.054-.547.256-.682.608-.136.351-.166.786-.09 1.305.199-.431.503-.681.913-.75zm.284 2.362c.26-.044.443-.176.548-.397.108-.225.134-.503.078-.834-.056-.328-.166-.559-.33-.693a.682.682 0 00-.579-.146.93.93 0 00-.514.27 1.505 1.505 0 00-.34.544c.089.455.225.792.407 1.008.183.217.426.3.73.248zm3.058-4.338l.045.266-.922 3.977-.338-.052.909-3.841-1.84.31-.049-.29 2.195-.37zm1.805-.305l.665 3.934-.343.058-.601-3.556-.869.768-.202-.228 1.054-.926.296-.05zm2.013-.407a1.21 1.21 0 01.595.033.927.927 0 01.439.29.96.96 0 01.214.476c.044.256.006.478-.113.664a.95.95 0 01-.506.39.91.91 0 01.68.17c.198.142.323.362.374.662.038.229.021.44-.051.635-.073.195-.197.36-.373.495-.173.13-.383.217-.632.26a1.454 1.454 0 01-1.216-.319l.186-.232c.159.123.315.206.468.25.157.038.324.042.501.012.284-.048.494-.166.628-.355.134-.19.179-.416.135-.68-.094-.552-.436-.779-1.028-.679l-.26.044v-.286l.19-.032a.868.868 0 00.539-.298c.135-.164.181-.373.138-.625-.037-.217-.135-.377-.294-.48-.16-.107-.354-.141-.583-.102a1.16 1.16 0 00-.441.165 1.439 1.439 0 00-.373.35l-.219-.183a1.62 1.62 0 01.441-.415 1.47 1.47 0 01.561-.21zm3.887 1.314c.324.071.57.178.736.32.169.138.275.335.319.591.036.217.013.418-.069.602-.079.18-.21.332-.392.456a1.58 1.58 0 01-.645.249 1.58 1.58 0 01-.692-.023 1.084 1.084 0 01-.507-.304 1.068 1.068 0 01-.25-.542c-.086-.505.135-.917.661-1.237-.251-.067-.443-.16-.577-.28a.89.89 0 01-.251-.511.924.924 0 01.065-.553.967.967 0 01.351-.406c.157-.108.332-.178.525-.21.193-.033.381-.026.563.02a.977.977 0 01.464.262.89.89 0 01.25.506.863.863 0 01-.082.561c-.089.165-.246.332-.469.5zm-1.322-.732c.032.19.11.33.235.423.129.092.336.164.621.218l.195.034c.2-.156.338-.305.411-.447a.737.737 0 00.07-.486c-.038-.225-.139-.389-.302-.491-.159-.103-.356-.135-.588-.095a.806.806 0 00-.518.282c-.121.15-.162.338-.124.563zm1.228 2.659c.28-.047.491-.154.633-.32.146-.17.197-.382.155-.635a.792.792 0 00-.155-.375.758.758 0 00-.318-.226 2.821 2.821 0 00-.556-.156l-.214-.043c-.247.147-.418.312-.513.495a.976.976 0 00-.077.621c.042.253.158.434.347.544.189.11.422.142.698.095zm3.277-2.465c.325.071.57.178.736.32.169.138.276.335.319.591.037.217.014.418-.069.602a1.07 1.07 0 01-.391.456 1.578 1.578 0 01-.646.249 1.577 1.577 0 01-.691-.023 1.087 1.087 0 01-.508-.304 1.068 1.068 0 01-.25-.542c-.085-.505.135-.917.661-1.237-.25-.067-.443-.16-.576-.28a.878.878 0 01-.251-.511.917.917 0 01.065-.553.96.96 0 01.351-.406c.156-.108.331-.178.524-.21.193-.033.381-.026.563.02a.98.98 0 01.465.262.89.89 0 01.249.506.862.862 0 01-.081.561c-.09.165-.246.332-.47.5zm-1.322-.731a.63.63 0 00.236.422c.129.092.336.164.621.218l.194.034c.201-.156.338-.305.411-.447a.73.73 0 00.07-.486c-.038-.225-.138-.389-.302-.49-.159-.104-.355-.136-.588-.096a.808.808 0 00-.518.282c-.121.15-.162.338-.124.563zm1.228 2.658c.28-.047.491-.154.634-.32.145-.17.197-.382.154-.635a.783.783 0 00-.155-.375.758.758 0 00-.318-.226 2.801 2.801 0 00-.556-.156l-.214-.043c-.247.148-.418.312-.512.495a.97.97 0 00-.078.621c.043.253.159.434.348.544.188.11.421.142.697.095zm6.158-.81l-.542-1.046-1.704.288-.168 1.167-.361.06.67-4.28.444-.076 2.033 3.825-.372.063zm-2.197-1.076l1.509-.255-1.149-2.228-.36 2.483zm3.209.394a.268.268 0 01.216.05.26.26 0 01.115.18.288.288 0 01-.047.222.278.278 0 01-.189.11.278.278 0 01-.215-.048.282.282 0 01-.117-.188.262.262 0 01.05-.209.28.28 0 01.187-.117zm2.73-4.118l.009.303-1.662.28.255 1.51 1.437-.244.05.296-1.437.243.279 1.657 1.746-.295.05.296-2.1.354-.685-4.052 2.058-.348zm1.523 3.4a.266.266 0 01.215.049.26.26 0 01.116.18.278.278 0 01-.236.332.28.28 0 01-.216-.048.277.277 0 01-.116-.187.258.258 0 01.049-.21.28.28 0 01.188-.116zm1.224-.207a.268.268 0 01.216.049.26.26 0 01.115.181.83.83 0 01-.033.34l-.199.843-.248.042.089-.91a.251.251 0 01-.117-.083.3.3 0 01-.06-.136.262.262 0 01.05-.21.28.28 0 01.187-.116zm-.389-2.307a.266.266 0 01.215.048.256.256 0 01.115.182.284.284 0 01-.047.22.278.278 0 01-.189.112.279.279 0 01-.215-.05.277.277 0 01-.116-.186.258.258 0 01.049-.21.28.28 0 01.188-.116zM2.849 33.71l.665 3.934-.344.058-.6-3.556-.869.768-.202-.228 1.054-.926.296-.05zm4.015 2.01l.048.285-.532.09.175 1.035-.337.057-.175-1.035-1.722.29-.043-.254.743-2.912.31.069-.691 2.752 1.355-.23-.154-1.16.296-.05.195 1.154.532-.09zm1.145-2.95c.399-.067.72.023.965.27.247.242.414.613.498 1.114.086.509.084.937-.008 1.285a1.85 1.85 0 01-.514.885c-.247.24-.59.47-1.027.69l-.134-.25c.517-.258.892-.555 1.128-.891.24-.337.33-.758.273-1.263a1.371 1.371 0 01-.357.48c-.15.122-.323.2-.52.234a1.05 1.05 0 01-.575-.055 1.094 1.094 0 01-.458-.367 1.54 1.54 0 01-.248-.64 1.451 1.451 0 01.039-.706 1.12 1.12 0 01.356-.523c.163-.137.357-.224.582-.262zm.315 2.26a.88.88 0 00.472-.232c.133-.128.246-.3.34-.514-.076-.47-.2-.804-.371-1.002-.172-.202-.404-.279-.696-.23-.264.045-.458.17-.582.373-.12.199-.154.46-.099.783.051.304.16.527.326.67a.72.72 0 00.61.152zm5.346-2.857l-1.597.27.227 1.343c.196-.159.41-.258.643-.297.34-.058.626.007.86.195.238.183.39.464.453.842a1.5 1.5 0 01-.042.72c-.069.218-.19.4-.364.548-.17.142-.382.235-.635.277a1.506 1.506 0 01-1.192-.285l.178-.243c.149.113.3.189.452.228.153.039.324.042.513.01.28-.047.486-.177.616-.39.13-.216.167-.486.112-.81-.053-.315-.168-.537-.343-.666-.173-.133-.385-.178-.638-.135a1.121 1.121 0 00-.33.104 1.56 1.56 0 00-.295.196l-.272.046-.323-1.911 1.982-.335-.005.293zm1.85-.672c.398-.067.72.023.964.27.248.242.414.613.499 1.114.086.509.083.937-.008 1.285a1.851 1.851 0 01-.514.884c-.247.24-.59.471-1.027.691l-.134-.251c.516-.258.892-.554 1.127-.89.24-.337.33-.758.274-1.264a1.37 1.37 0 01-.357.48 1.1 1.1 0 01-.52.235 1.05 1.05 0 01-.576-.055 1.093 1.093 0 01-.457-.367 1.539 1.539 0 01-.248-.64 1.451 1.451 0 01.039-.706 1.12 1.12 0 01.355-.523c.164-.137.358-.225.583-.263zm.315 2.26a.88.88 0 00.472-.232c.132-.128.245-.3.339-.514-.076-.47-.199-.804-.37-1.002-.172-.203-.404-.279-.696-.23-.264.045-.459.17-.582.373-.12.199-.154.46-.1.783.052.304.16.527.327.669a.72.72 0 00.61.152zm3.556-.942c.324.07.57.177.736.32.169.137.275.334.319.59a1.026 1.026 0 01-.46 1.058 1.577 1.577 0 01-.646.25 1.577 1.577 0 01-.692-.024 1.087 1.087 0 01-.507-.303 1.072 1.072 0 01-.25-.542c-.085-.505.135-.918.66-1.238-.25-.067-.442-.16-.576-.28a.885.885 0 01-.25-.511.923.923 0 01.064-.553.962.962 0 01.351-.406c.157-.107.331-.177.525-.21a1.35 1.35 0 01.563.02.978.978 0 01.464.263.891.891 0 01.25.505.865.865 0 01-.082.562c-.09.165-.246.331-.469.499zm-1.322-.732c.032.19.11.33.235.423.13.091.336.164.621.217l.195.034c.2-.155.338-.304.41-.447a.737.737 0 00.07-.486c-.037-.225-.138-.388-.301-.49-.16-.103-.355-.135-.588-.096a.808.808 0 00-.518.282c-.121.15-.162.338-.124.563zm1.228 2.658c.28-.047.49-.154.633-.32.146-.17.197-.382.155-.634a.785.785 0 00-.155-.376.76.76 0 00-.318-.226 2.813 2.813 0 00-.556-.155l-.214-.043c-.247.147-.418.312-.513.494a.972.972 0 00-.077.622c.042.252.158.433.347.543.19.11.422.142.698.095zm3.943-4.548c.332-.056.61-.004.836.157.23.16.37.391.422.695.043.256.03.506-.038.749a3.515 3.515 0 01-.378.824c-.18.307-.477.769-.891 1.386l1.863-.315.004.31-2.219.375-.049-.29c.443-.667.758-1.158.944-1.474.19-.32.314-.588.375-.806.064-.221.076-.448.037-.681-.04-.233-.14-.407-.301-.521-.158-.116-.349-.154-.573-.116-.182.03-.337.095-.467.194a1.424 1.424 0 00-.34.404l-.266-.137a1.6 1.6 0 01.437-.512c.17-.122.372-.203.604-.242zm3.494.888a.993.993 0 01.805.193c.233.175.383.464.451.866.048.28.038.536-.029.766-.063.226-.174.41-.332.555a1.1 1.1 0 01-.563.266c-.434.073-.78-.039-1.037-.336-.254-.302-.428-.733-.523-1.293a3.724 3.724 0 01-.028-1.212c.058-.355.178-.639.361-.852.182-.218.42-.351.711-.4a1.29 1.29 0 01.773.106l-.108.262a1.09 1.09 0 00-.622-.084c-.32.054-.547.257-.683.609-.135.351-.165.786-.09 1.305.2-.431.504-.682.914-.751zm.284 2.362c.26-.044.442-.176.547-.397.108-.225.134-.503.078-.835-.055-.327-.165-.558-.33-.692a.68.68 0 00-.578-.146.93.93 0 00-.514.27 1.519 1.519 0 00-.34.544c.089.455.224.791.407 1.008.183.216.426.3.73.248zm2.303-4.21l.665 3.933-.343.058-.601-3.555-.868.767-.203-.227 1.054-.927.296-.05zm5.49-1.05l-.867 2.106 1.653 1.93-.409.068-1.519-1.788-.639.108.336 1.988-.355.06-.684-4.052.354-.06.3 1.769.644-.11.813-1.956.373-.063zm5.007 3.322l-.343.058-.511-1.91a54.51 54.51 0 01-.452-1.737l-.473 3.396-.337.058-1.598-3.047c.045.386.091.9.139 1.54l.02.234.153 1.983-.337.057-.3-4.118.49-.083 1.54 2.983.437-3.317.497-.084 1.075 3.987zm3.12-4.574l.665 3.934-.343.058-.6-3.556-.869.768-.203-.227 1.055-.927.295-.05zm1.907 3.213a.265.265 0 01.215.049.258.258 0 01.116.181c.015.087.003.2-.034.34l-.198.843-.248.042.09-.91a.25.25 0 01-.118-.083.296.296 0 01-.06-.136.258.258 0 01.05-.209.278.278 0 01.187-.117zm1.587-3.87c.406-.07.743.052 1.011.364.267.308.457.795.57 1.462.111.662.09 1.185-.064 1.568a1.024 1.024 0 01-.83.67 1.03 1.03 0 01-1.01-.359c-.268-.312-.458-.8-.57-1.467-.113-.667-.094-1.19.057-1.568.151-.378.43-.602.836-.67zm.048.284c-.588.099-.783.73-.586 1.894.197 1.167.59 1.701 1.177 1.602.288-.049.48-.227.579-.536.102-.31.102-.762.002-1.357-.101-.596-.25-1.023-.448-1.282-.195-.263-.436-.37-.724-.321zm3.205-.834c.406-.069.743.053 1.01.365.268.307.458.795.57 1.461.112.663.091 1.186-.063 1.569a1.024 1.024 0 01-.83.67 1.03 1.03 0 01-1.01-.36c-.268-.311-.458-.8-.57-1.467-.113-.666-.094-1.189.057-1.567a1.03 1.03 0 01.836-.671zm.048.284c-.588.1-.783.73-.587 1.894.197 1.168.59 1.702 1.178 1.602.288-.048.48-.227.579-.536.101-.309.102-.761.001-1.357-.1-.596-.25-1.023-.447-1.281-.195-.264-.436-.37-.724-.322zm3.205-.834c.406-.068.743.053 1.01.365.267.308.457.795.57 1.461.112.663.09 1.186-.064 1.569a1.024 1.024 0 01-.83.67 1.029 1.029 0 01-1.01-.36c-.267-.31-.457-.8-.57-1.467-.113-.666-.093-1.189.058-1.567a1.03 1.03 0 01.836-.67zm.047.284c-.587.1-.783.73-.586 1.894.197 1.168.59 1.702 1.177 1.603.288-.049.481-.228.58-.536.101-.31.102-.762.001-1.358-.1-.595-.25-1.022-.448-1.28-.194-.264-.436-.371-.724-.323zm3.205-.833c.407-.07.743.053 1.011.364.267.308.457.795.57 1.462.112.662.09 1.185-.064 1.568a1.024 1.024 0 01-.83.67 1.029 1.029 0 01-1.01-.359c-.267-.312-.458-.8-.57-1.467-.113-.667-.094-1.19.057-1.568a1.03 1.03 0 01.836-.67zm.048.284c-.587.099-.783.73-.586 1.894.197 1.167.59 1.701 1.177 1.602.288-.049.48-.227.579-.536.102-.31.102-.762.002-1.357-.1-.596-.25-1.023-.448-1.282-.195-.263-.436-.37-.724-.322zm3.205-.834c.406-.069.743.053 1.01.365.268.307.458.794.57 1.461.112.663.091 1.186-.063 1.569a1.024 1.024 0 01-.83.67 1.03 1.03 0 01-1.01-.36c-.268-.311-.458-.8-.57-1.467-.113-.667-.094-1.189.057-1.567a1.03 1.03 0 01.836-.671zm.048.284c-.588.1-.783.73-.587 1.894.198 1.168.59 1.702 1.178 1.602.288-.048.48-.227.579-.536.102-.309.102-.761.002-1.357-.101-.595-.25-1.023-.448-1.281-.195-.264-.436-.37-.724-.322zm2.828-.77c.331-.056.61-.004.836.157.23.16.37.392.422.695.043.257.03.506-.038.749a3.515 3.515 0 01-.378.825c-.18.306-.477.768-.892 1.385l1.864-.315.004.31-2.219.375-.049-.29c.443-.667.758-1.158.944-1.474.189-.32.314-.588.375-.805.064-.222.076-.45.037-.682-.04-.233-.14-.406-.301-.521-.158-.116-.349-.154-.574-.116a1.03 1.03 0 00-.466.194 1.421 1.421 0 00-.34.404l-.266-.137a1.6 1.6 0 01.437-.512c.17-.122.371-.203.604-.242zm3.494.888a.993.993 0 01.805.193c.233.175.383.464.451.867.047.28.038.535-.029.765-.063.226-.174.41-.332.555a1.09 1.09 0 01-.564.266c-.434.073-.779-.039-1.036-.336-.254-.302-.428-.733-.523-1.293a3.722 3.722 0 01-.028-1.212c.058-.355.178-.639.36-.852.183-.218.42-.351.712-.4a1.29 1.29 0 01.773.106l-.108.262a1.09 1.09 0 00-.623-.083c-.32.053-.547.256-.682.608-.135.351-.165.786-.09 1.305.2-.431.504-.682.914-.75zm.283 2.362c.26-.044.443-.176.548-.397.108-.225.134-.503.078-.835-.055-.327-.165-.558-.33-.692a.68.68 0 00-.578-.146.929.929 0 00-.515.27 1.519 1.519 0 00-.34.544c.09.455.225.791.408 1.008.182.217.426.3.73.248zm2.304-4.21l.665 3.933-.343.058-.601-3.555-.869.767-.202-.227 1.054-.927.296-.05zm5.903 3.048l-.542-1.046-1.704.288-.168 1.166-.361.061.67-4.281.444-.075 2.033 3.824-.372.063zm-2.197-1.077l1.51-.255-1.15-2.227-.36 2.482zm3.21.395a.266.266 0 01.215.049.258.258 0 01.115.181.276.276 0 01-.236.332.278.278 0 01-.215-.049.278.278 0 01-.116-.187.258.258 0 01.05-.21.278.278 0 01.186-.116zm2.73-4.119l.008.303-1.662.281.255 1.509 1.437-.243.05.296-1.437.243.28 1.656 1.745-.295.05.296-2.1.355-.685-4.053 2.059-.348zm1.522 3.4a.266.266 0 01.215.05.258.258 0 01.116.18.276.276 0 01-.236.332.277.277 0 01-.215-.048.278.278 0 01-.117-.188.258.258 0 01.05-.209.278.278 0 01.187-.117zm3.303-4.16c.406-.069.743.053 1.01.364.267.308.457.796.57 1.462.112.663.09 1.186-.064 1.569a1.024 1.024 0 01-.83.67 1.03 1.03 0 01-1.01-.36c-.267-.311-.457-.8-.57-1.467-.113-.667-.093-1.189.058-1.567a1.03 1.03 0 01.836-.671zm.047.284c-.587.1-.783.73-.586 1.894.197 1.168.59 1.702 1.177 1.602.288-.048.481-.227.58-.536.101-.309.102-.761.001-1.357-.1-.595-.25-1.023-.448-1.281-.194-.264-.435-.37-.724-.322zm2.78 2.84a.265.265 0 01.215.05.258.258 0 01.115.18c.015.087.004.2-.033.341l-.199.843-.248.042.09-.91a.25.25 0 01-.118-.083.296.296 0 01-.06-.136.258.258 0 01.05-.21.278.278 0 01.188-.116zm1.587-3.87c.406-.069.743.053 1.01.365.267.307.457.795.57 1.461.112.663.09 1.186-.064 1.569a1.024 1.024 0 01-.83.67 1.029 1.029 0 01-1.01-.36c-.267-.311-.457-.8-.57-1.467-.113-.666-.094-1.189.058-1.567a1.03 1.03 0 01.835-.671zm.047.284c-.587.1-.783.73-.586 1.894.197 1.168.59 1.702 1.177 1.602.288-.048.481-.227.58-.536.101-.309.102-.761.001-1.357-.1-.595-.25-1.023-.448-1.281-.194-.263-.436-.37-.724-.322zm3.15-.757l.664 3.934-.343.058-.6-3.556-.87.768-.202-.228 1.055-.926.295-.05zm2.699.955a.993.993 0 01.805.193c.233.175.383.465.45.867.048.28.039.535-.028.765a1.15 1.15 0 01-.332.555 1.09 1.09 0 01-.564.266c-.434.073-.78-.039-1.036-.336-.254-.302-.428-.733-.523-1.293a3.724 3.724 0 01-.028-1.212c.057-.355.178-.639.36-.852.183-.218.42-.351.712-.4.264-.045.522-.01.773.106l-.108.262a1.091 1.091 0 00-.623-.083c-.32.054-.547.256-.682.608-.135.351-.165.786-.09 1.305.199-.431.504-.681.914-.75zm.283 2.362c.26-.044.443-.176.548-.397.108-.225.134-.503.078-.834-.056-.328-.166-.559-.33-.693a.68.68 0 00-.579-.146.93.93 0 00-.514.27 1.517 1.517 0 00-.34.544c.09.456.225.791.408 1.008.182.217.425.3.73.248zm3.058-4.338l.045.266-.922 3.977-.337-.052.908-3.841-1.84.31-.049-.29 2.195-.37zm1.805-.305l.665 3.934-.343.058-.601-3.556-.868.768-.203-.228 1.054-.926.296-.05zm2.375-.401l.664 3.934-.343.058-.601-3.556-.868.768-.203-.228 1.055-.926.296-.05zm2.036-.412c.331-.056.61-.003.836.157.23.16.37.392.422.696a1.7 1.7 0 01-.038.749 3.55 3.55 0 01-.378.824c-.179.306-.477.768-.892 1.386l1.864-.315.004.31-2.219.375-.049-.29c.443-.667.758-1.159.944-1.474.189-.32.314-.589.375-.806.064-.221.076-.449.037-.681-.04-.233-.14-.407-.301-.521a.726.726 0 00-.574-.117 1.047 1.047 0 00-.466.195 1.428 1.428 0 00-.339.404l-.267-.138c.125-.22.271-.39.437-.511.17-.122.371-.203.604-.242zm2.778-.469c.221-.037.42-.026.596.033a.927.927 0 01.439.291c.111.131.183.29.214.475.043.256.006.478-.113.664a.95.95 0 01-.506.39.91.91 0 01.68.171c.198.141.323.361.373.661.039.229.022.44-.05.635-.073.195-.197.36-.373.495a1.42 1.42 0 01-.632.26 1.453 1.453 0 01-1.216-.319l.186-.232c.159.124.315.207.468.25.157.038.324.042.501.012.284-.047.493-.166.628-.355.134-.19.179-.416.134-.68-.093-.552-.435-.778-1.027-.678l-.26.044v-.286l.189-.032a.868.868 0 00.54-.299c.135-.164.181-.373.138-.625-.037-.217-.135-.377-.294-.48-.16-.107-.355-.14-.583-.102a1.16 1.16 0 00-.441.166 1.423 1.423 0 00-.373.349l-.219-.182a1.62 1.62 0 01.441-.416c.161-.104.348-.174.56-.21z" fill="#363636"/></svg>