<svg width="141" height="79" fill="none" xmlns="http://www.w3.org/2000/svg"><path d="M6.998 5.33l-.127.258-.484-.238-.463.942-.307-.15.463-.943-1.568-.77.114-.231 2.305-1.93.21.237-2.168 1.83 1.234.605.553-1.031.27.132-.516 1.05.484.238zm2.67-1.644L7.91 7.267l-.313-.153 1.59-3.237-1.153.116-.032-.303 1.397-.136.27.132zm-.33 3.722a.265.265 0 01.147.165.258.258 0 01-.012.215.276.276 0 01-.385.132.278.278 0 01-.147-.166.278.278 0 01.015-.22.258.258 0 01.163-.141.278.278 0 01.22.015zm3.085-.278c.222.248.358.477.41.69.057.21.028.433-.087.666a1.025 1.025 0 01-.99.59 1.579 1.579 0 01-.67-.176 1.58 1.58 0 01-.548-.422 1.088 1.088 0 01-.235-.543 1.077 1.077 0 01.114-.586c.226-.46.646-.666 1.26-.618-.165-.201-.266-.39-.305-.564a.884.884 0 01.095-.562.922.922 0 01.376-.41.962.962 0 01.522-.125c.19.004.372.05.548.136.176.086.325.201.446.345.12.144.195.306.223.484a.89.89 0 01-.093.556.865.865 0 01-.394.409c-.169.081-.393.125-.672.13zm-.646-1.366a.629.629 0 00-.056.48c.052.15.177.33.377.54l.138.141c.254-.009.452-.05.595-.122a.737.737 0 00.34-.354c.101-.205.115-.396.042-.575-.069-.176-.21-.317-.421-.42a.809.809 0 00-.586-.074c-.185.051-.329.18-.43.384zm-.556 2.875c.255.125.488.162.7.11.219-.053.384-.195.497-.424a.784.784 0 00.094-.396.76.76 0 00-.126-.369 2.817 2.817 0 00-.36-.45l-.15-.16c-.286-.026-.52.008-.704.1a.972.972 0 00-.426.46c-.113.23-.125.445-.036.644.09.2.26.362.51.485zm3.23 1.84l.135-.275 1.912.94-.135.274-1.912-.939zm2.474-2.248l-.402.819.808.397-.133.269-.808-.397-.402.819-.296-.145.402-.82-.808-.396.133-.27.808.398.401-.819.297.145zm4.583 1.195c.37.181.573.477.608.886.037.406-.094.913-.392 1.52-.296.602-.619 1.014-.968 1.235a1.024 1.024 0 01-1.065.059 1.03 1.03 0 01-.61-.881c-.035-.41.097-.918.395-1.524.297-.607.618-1.02.962-1.24a1.03 1.03 0 011.07-.055zm-.127.258c-.535-.262-1.062.136-1.582 1.195-.522 1.063-.516 1.726.02 1.988.262.13.522.097.782-.097.264-.191.528-.558.795-1.1.266-.542.394-.976.385-1.302-.005-.327-.138-.555-.4-.684zm.596 3.93a.266.266 0 01.146.165.258.258 0 01-.011.214.276.276 0 01-.385.132.278.278 0 01-.147-.165.278.278 0 01.015-.22.259.259 0 01.162-.141.278.278 0 01.22.014zm3.337-2.32c.202.1.356.225.465.376a.93.93 0 01.186.492.967.967 0 01-.104.51c-.114.234-.274.392-.48.474a.951.951 0 01-.638.02.91.91 0 01.452.537c.079.23.05.481-.083.754-.102.208-.24.37-.412.486-.173.116-.37.177-.592.184a1.42 1.42 0 01-.664-.159 1.453 1.453 0 01-.801-.968l.286-.08c.057.193.135.352.234.476.105.123.238.224.4.303.258.127.497.153.717.078.22-.075.388-.232.506-.473.247-.503.101-.886-.438-1.15l-.236-.117.167-.232.172.085a.87.87 0 00.613.073c.205-.055.364-.198.477-.427a.673.673 0 00.041-.561c-.067-.18-.205-.322-.413-.424a1.16 1.16 0 00-.455-.123 1.41 1.41 0 00-.506.065l-.072-.276c.21-.065.41-.092.6-.079.192.01.385.062.578.157zm4.834 2.24c.205.1.363.214.475.34.117.125.22.28.306.465l-.278.131a1.5 1.5 0 00-.255-.393 1.243 1.243 0 00-.361-.257 1.172 1.172 0 00-1.047-.02c-.346.16-.655.517-.926 1.07-.176.359-.274.685-.294.979-.019.293.029.541.143.744.12.202.29.357.513.466.176.087.337.135.484.144.148.007.31-.01.485-.049l.064.292c-.394.123-.79.087-1.184-.106a1.538 1.538 0 01-.662-.6 1.661 1.661 0 01-.21-.905c.015-.349.122-.726.322-1.132.199-.406.434-.718.707-.936.273-.222.557-.35.85-.385.299-.036.588.015.868.152zm2.312 3.362c.237.152.398.342.482.57.086.225.056.485-.089.78-.169.344-.412.543-.728.597-.316.055-.682-.02-1.099-.225l-1.007-.495 1.812-3.689.823.405c.428.21.718.448.872.715.158.27.162.556.012.862-.111.226-.264.378-.458.456a.906.906 0 01-.62.024zm-.439-2.034l-.663 1.352.743.365c.23.113.444.144.642.095a.704.704 0 00.456-.398c.118-.24.12-.454.006-.639-.11-.183-.327-.354-.65-.513l-.534-.262zm-.863 3.487c.661.324 1.115.235 1.362-.268.13-.265.144-.503.043-.714-.098-.209-.282-.379-.551-.511l-.781-.384-.757 1.54.684.337zm2.259.881a.266.266 0 01.146.166.258.258 0 01-.012.214.276.276 0 01-.386.132.278.278 0 01-.145-.165.278.278 0 01.014-.22.259.259 0 01.163-.141.278.278 0 01.22.014zm6.336-.906l-.189.262-1.712-.841-1.672 3.404-.323-.159 1.812-3.69 2.084 1.024zm1.62.722c.3.148.529.351.682.61.156.254.226.556.21.905-.014.349-.122.726-.321 1.132-.196.398-.427.71-.694.936a1.61 1.61 0 01-.842.395c-.299.036-.6-.02-.906-.17a1.569 1.569 0 01-.677-.607 1.606 1.606 0 01-.21-.906c.013-.345.118-.719.316-1.121.195-.399.427-.71.693-.936.267-.226.55-.358.85-.398a1.56 1.56 0 01.898.16zm-.136.274c-.359-.176-.71-.177-1.054-.003-.343.17-.647.527-.913 1.07-.263.534-.357.99-.283 1.365.078.377.295.652.65.827.37.181.724.188 1.06.019.339-.172.642-.53.908-1.072.268-.546.364-1.004.288-1.376-.071-.373-.29-.65-.656-.83zm3.15 5.518l-.517 1.055-.248-.121.319-.813-2.322-1.14-.448.75-.248-.122.519-1.056.237.117c.134-.046.26-.12.377-.223.12-.101.27-.269.447-.503.179-.237.422-.587.73-1.051l.839-1.286 1.723.846-1.677 3.415.27.132zm.95-3.431l-1.115-.547-.674 1.032c-.292.45-.526.791-.704 1.025a3.045 3.045 0 01-.465.513 1.065 1.065 0 01-.415.218l1.831.899 1.542-3.14zm1.854 5.148l.172-1.165-1.551-.762-.818.848-.329-.161 3.045-3.084.404.199-.583 4.292-.34-.167zm-1.153-2.157l1.373.675.369-2.48-1.742 1.805zm5.19-1.295c-.329.19-.606.369-.83.535-.223.163-.44.368-.65.616-.208.25-.402.56-.584.93-.181.37-.308.714-.379 1.03a3.957 3.957 0 00-.093.898c.008.275.037.602.088.979l-.263.031a11.87 11.87 0 01-.134-1.062 3.874 3.874 0 01.071-.934 4.36 4.36 0 01.387-1.1 4.36 4.36 0 01.634-.979c.23-.257.461-.466.696-.627.239-.16.546-.34.922-.544l.136.227zm1.369 1.661l-1.759 3.582-.312-.154 1.59-3.236-1.154.115-.032-.303 1.397-.136.27.132zm1.893.856c.301.148.497.354.587.616.093.264.071.534-.064.81-.115.234-.271.43-.468.587-.198.157-.46.306-.789.448a29.86 29.86 0 01-1.533.604l1.697.833-.178.253-2.02-.991.13-.264a37.53 37.53 0 001.626-.645c.34-.15.6-.294.775-.435.182-.143.325-.32.428-.532.105-.212.125-.411.06-.599-.06-.185-.192-.328-.397-.429a1.038 1.038 0 00-.492-.114c-.159.006-.33.05-.511.13l-.136-.268c.23-.105.447-.159.653-.16.21 0 .42.052.632.156zm.354 4.131a.266.266 0 01.146.166.258.258 0 01-.011.215.276.276 0 01-.386.132.278.278 0 01-.146-.166.278.278 0 01.014-.22.259.259 0 01.163-.141.278.278 0 01.22.015zm3.084-.277c.222.247.359.477.41.69.057.21.029.432-.086.666a1.026 1.026 0 01-.407.448c-.17.1-.364.147-.584.141a1.58 1.58 0 01-.67-.175 1.578 1.578 0 01-.547-.422 1.088 1.088 0 01-.235-.543c-.02-.197.019-.392.114-.586.225-.46.645-.666 1.26-.618-.165-.201-.267-.39-.305-.564a.884.884 0 01.095-.562.922.922 0 01.375-.41.962.962 0 01.523-.125c.19.004.372.05.548.136.176.086.324.201.445.345a.98.98 0 01.224.484.9.9 0 01-.093.556.864.864 0 01-.394.409c-.17.081-.394.125-.673.13zm-.645-1.366c-.085.172-.104.332-.056.48.051.15.177.33.377.54l.138.141c.254-.009.452-.05.595-.122a.737.737 0 00.34-.354c.101-.205.115-.396.042-.575-.07-.176-.21-.317-.422-.42a.809.809 0 00-.585-.074c-.186.051-.329.18-.43.384zm-.557 2.875c.255.125.489.162.702.11.217-.053.383-.195.496-.424a.784.784 0 00.093-.396.76.76 0 00-.126-.369 2.809 2.809 0 00-.36-.45l-.149-.16c-.286-.026-.521.008-.705.1a.972.972 0 00-.426.46c-.112.23-.124.445-.035.644.089.2.259.362.51.485zm4.332-2.137a1.2 1.2 0 01.465.375.93.93 0 01.186.492.967.967 0 01-.104.51c-.114.234-.274.392-.48.474a.95.95 0 01-.638.02.911.911 0 01.452.537c.078.23.05.481-.083.754-.102.208-.24.37-.413.486-.172.116-.37.177-.591.184a1.423 1.423 0 01-.664-.159 1.454 1.454 0 01-.802-.968l.287-.08c.057.193.135.352.234.476.105.123.238.224.4.303.258.127.497.153.717.078.22-.075.388-.233.506-.473.247-.503.101-.886-.438-1.15l-.237-.117.168-.232.172.084c.205.1.409.125.612.074.206-.055.365-.198.478-.428a.67.67 0 00.041-.56c-.067-.18-.205-.322-.413-.424a1.163 1.163 0 00-.455-.123 1.43 1.43 0 00-.506.065l-.072-.276c.21-.066.41-.092.6-.08.192.01.385.063.578.158zm1.518 5.263l.135-.275 1.911.94-.134.274-1.912-.939zm2.473-2.248l-.401.82.807.396-.132.27-.808-.398-.402.82-.296-.146.402-.819-.808-.397.133-.269.807.397.402-.819.296.145zm4.584 1.195c.37.181.572.477.608.886.036.406-.094.913-.392 1.52-.296.603-.619 1.015-.968 1.235a1.024 1.024 0 01-1.065.059 1.03 1.03 0 01-.61-.881c-.035-.41.096-.918.394-1.524.298-.607.62-1.02.963-1.239a1.03 1.03 0 011.07-.056zm-.127.259c-.535-.263-1.062.135-1.582 1.194-.522 1.063-.516 1.726.02 1.989.261.128.522.096.782-.097.263-.192.528-.559.794-1.101.267-.542.395-.976.386-1.301-.005-.328-.138-.556-.4-.684zm.596 3.928a.266.266 0 01.146.166.258.258 0 01-.011.215.276.276 0 01-.385.132.277.277 0 01-.147-.166.278.278 0 01.014-.22.258.258 0 01.163-.141.278.278 0 01.22.014zm3.55-2.214c.37.182.572.477.607.886.037.406-.094.913-.392 1.52-.296.603-.618 1.015-.968 1.235a1.024 1.024 0 01-1.064.059 1.03 1.03 0 01-.61-.881c-.036-.41.096-.918.394-1.524.298-.607.618-1.02.962-1.239a1.03 1.03 0 011.07-.056zm-.128.258c-.535-.262-1.062.136-1.582 1.195-.522 1.063-.515 1.726.02 1.989.262.128.523.096.782-.097.264-.192.528-.559.795-1.1.266-.543.394-.977.385-1.302-.004-.328-.138-.556-.4-.684zm2.928 1.117c.363.178.571.439.626.782.06.341-.023.74-.247 1.196-.227.463-.48.81-.757 1.038a1.85 1.85 0 01-.933.418c-.342.05-.754.037-1.238-.04l.038-.282c.57.093 1.048.071 1.436-.064.39-.133.71-.422.96-.865a1.372 1.372 0 01-.57.18 1.093 1.093 0 01-.56-.113 1.05 1.05 0 01-.434-.38 1.094 1.094 0 01-.158-.566 1.54 1.54 0 01.173-.664 1.45 1.45 0 01.444-.55 1.12 1.12 0 01.594-.217 1.2 1.2 0 01.626.127zm-1.064 2.018a.88.88 0 00.518.087c.183-.026.375-.099.576-.219.213-.425.308-.768.285-1.03-.022-.264-.165-.462-.431-.592-.24-.118-.47-.13-.69-.038-.214.091-.393.284-.538.578-.136.277-.178.521-.126.734a.72.72 0 00.406.48zm6.99.832l-1.811 3.69-.323-.16 1.673-3.409-1.74-.854-1.673 3.41-.323-.16 1.811-3.689 2.386 1.172zm3.458 1.698l-1.934 1.202.214 2.532-.372-.183-.188-2.338-.582-.286-.888 1.81-.323-.159 1.811-3.689.323.159-.79 1.61.586.288 1.804-1.113.339.167zm1.051-.5c.07.422.112.775.129 1.059a3.68 3.68 0 01-.066.937 4.36 4.36 0 01-.387 1.1 4.359 4.359 0 01-.634.979 3.687 3.687 0 01-.701.625c-.235.16-.54.343-.917.546l-.135-.227a9.3 9.3 0 00.828-.53c.224-.166.44-.374.647-.624a4.51 4.51 0 00.59-.928c.18-.37.305-.714.373-1.033.07-.317.103-.613.095-.889a8.769 8.769 0 00-.085-.984l.263-.031zm-.18 4.945a.265.265 0 01.146.165.258.258 0 01-.012.215.839.839 0 01-.226.256l-.654.568-.226-.11.604-.687a.25.25 0 01-.046-.136.295.295 0 01.03-.145.258.258 0 01.164-.141.278.278 0 01.22.015zm1.031-2.101a.265.265 0 01.146.165.259.259 0 01-.012.215.276.276 0 01-.385.132.278.278 0 01-.146-.166.278.278 0 01.014-.22.259.259 0 01.163-.14.278.278 0 01.22.014zm3.543.33l-1.811 3.689-.323-.159 1.811-3.69.323.16zm1.934.949l-2.363.945.643 2.79-.393-.194-.64-2.767 2.381-.957.372.183zm1.279.688c.302.148.497.353.587.616.093.264.071.534-.064.81-.115.234-.27.43-.468.586-.198.157-.46.307-.789.449-.324.143-.835.345-1.533.604l1.697.833-.178.253-2.02-.992.13-.263a37.53 37.53 0 001.626-.645c.341-.15.6-.295.775-.435.182-.143.325-.32.429-.532.104-.212.124-.411.06-.599-.06-.185-.193-.328-.398-.429a1.038 1.038 0 00-.492-.114c-.159.006-.33.05-.511.13l-.136-.268a1.6 1.6 0 01.653-.16c.21 0 .42.052.632.156zm.355 4.131a.265.265 0 01.145.166.259.259 0 01-.011.214.276.276 0 01-.385.132.278.278 0 01-.147-.165.278.278 0 01.015-.22.259.259 0 01.162-.141.278.278 0 01.22.014zm4.203-1.498l-1.454-.715-.6 1.223c.252-.014.484.03.696.135.308.151.503.372.584.66.086.288.045.604-.125.949a1.5 1.5 0 01-.455.559 1.158 1.158 0 01-.615.232 1.31 1.31 0 01-.677-.145 1.506 1.506 0 01-.801-.928l.286-.093c.055.178.133.328.234.449.101.12.238.223.41.308.255.125.498.14.728.043.232-.1.42-.297.564-.592.142-.287.178-.534.11-.741-.062-.209-.208-.37-.438-.483a1.123 1.123 0 00-.328-.107 1.56 1.56 0 00-.354-.014l-.248-.122.854-1.74 1.805.887-.176.235zm3.315 1.172l-3.013 3.1-.36-.177.604-4.282.35.172-.608 3.866 2.693-2.843.334.164zm-1.002 3.526a.266.266 0 01.146.165.257.257 0 01-.012.215.84.84 0 01-.226.257l-.653.568-.226-.111.604-.686a.249.249 0 01-.047-.137.296.296 0 01.031-.145.258.258 0 01.163-.14.277.277 0 01.22.014zm1.031-2.1a.263.263 0 01.146.165.257.257 0 01-.011.215.278.278 0 01-.386.132.278.278 0 01-.146-.166.273.273 0 01.015-.22.257.257 0 01.162-.141.277.277 0 01.22.014zm1.992 2.1l.135-.274 1.912.939-.135.274-1.912-.939zm4.744-.143c.37.181.573.477.608.886.037.406-.094.912-.392 1.52-.296.602-.619 1.014-.968 1.235a1.024 1.024 0 01-1.065.059 1.03 1.03 0 01-.61-.881c-.035-.41.097-.918.395-1.525.298-.606.618-1.02.962-1.238.344-.22.7-.238 1.07-.056zm-.127.258c-.535-.263-1.062.136-1.582 1.195-.522 1.063-.516 1.725.019 1.988.263.129.523.097.783-.097.264-.191.528-.558.795-1.1.266-.542.394-.976.385-1.302-.004-.327-.138-.555-.4-.684zm.596 3.93a.265.265 0 01.147.164.26.26 0 01-.012.215.277.277 0 01-.386.131.278.278 0 01-.146-.165.277.277 0 01.015-.22.257.257 0 01.162-.14.277.277 0 01.22.014zm3.338-2.32c.201.1.355.224.464.376a.93.93 0 01.186.492.964.964 0 01-.104.51c-.114.234-.274.392-.479.474a.952.952 0 01-.639.02.91.91 0 01.452.536c.079.23.051.482-.083.755-.102.208-.24.37-.412.486-.173.116-.37.177-.592.184a1.424 1.424 0 01-.664-.159 1.45 1.45 0 01-.801-.968l.286-.08c.057.193.135.352.234.476.105.123.238.224.4.303.258.127.497.153.717.078.219-.075.388-.233.506-.473.247-.503.101-.886-.437-1.15l-.237-.117.167-.232.172.084a.87.87 0 00.613.074c.205-.055.364-.198.477-.428.097-.197.111-.384.041-.56-.067-.18-.205-.322-.413-.424a1.16 1.16 0 00-.454-.123c-.151-.012-.32.01-.507.065l-.072-.276c.211-.066.411-.092.601-.08.191.01.384.063.578.158zm2.82 1.459L114 59.359l-.312-.153 1.589-3.237-1.153.116-.032-.303 1.397-.136.27.132zm.769 4.823l.135-.275 1.912.939-.135.274-1.912-.938zm2.474-2.248l-.402.819.808.396-.132.27-.808-.397-.402.819-.296-.146.402-.819-.808-.396.132-.27.808.397.402-.818.296.145zm4.584 1.194c.369.182.572.478.607.887.037.406-.094.912-.392 1.519-.296.603-.618 1.015-.967 1.236a1.024 1.024 0 01-1.065.059 1.029 1.029 0 01-.61-.882c-.036-.409.096-.917.394-1.524.298-.607.619-1.02.962-1.239a1.03 1.03 0 011.071-.056zm-.127.259c-.535-.263-1.063.136-1.583 1.195-.522 1.063-.515 1.725.02 1.988.262.129.523.096.783-.097.263-.191.528-.558.794-1.1.266-.543.394-.976.385-1.302-.004-.327-.137-.555-.399-.684zm.596 3.929a.266.266 0 01.146.165.26.26 0 01-.012.215.277.277 0 01-.386.132.281.281 0 01-.146-.166.281.281 0 01.015-.22.256.256 0 01.163-.14.277.277 0 01.22.014zm3.549-2.215c.37.182.572.478.607.887.037.406-.093.912-.391 1.519-.296.603-.619 1.015-.968 1.236a1.025 1.025 0 01-1.065.059 1.029 1.029 0 01-.61-.882c-.035-.409.096-.917.394-1.524.298-.607.619-1.02.963-1.238.343-.22.7-.238 1.07-.056zm-.127.259c-.535-.263-1.063.136-1.583 1.195-.522 1.063-.515 1.725.02 1.988.262.129.523.096.783-.097.263-.191.528-.558.794-1.1.266-.543.395-.976.385-1.302-.004-.327-.137-.555-.399-.684zm2.744 1.027c.202.099.356.224.465.375a.93.93 0 01.186.492.964.964 0 01-.104.51c-.114.234-.274.392-.479.474a.953.953 0 01-.639.02.91.91 0 01.452.537c.079.23.051.481-.083.754a1.21 1.21 0 01-.413.486 1.097 1.097 0 01-.591.184 1.418 1.418 0 01-.664-.159 1.45 1.45 0 01-.801-.968l.286-.08c.057.193.135.352.234.476.105.123.238.224.4.303.258.127.497.153.717.078.219-.075.388-.232.506-.473.247-.503.101-.886-.438-1.15l-.236-.117.167-.232.172.085a.87.87 0 00.613.073c.205-.055.364-.198.477-.427.097-.198.111-.385.041-.561-.067-.18-.205-.322-.413-.424a1.165 1.165 0 00-.455-.123c-.15-.011-.319.01-.506.065l-.072-.276c.211-.065.411-.092.6-.079.192.01.385.062.578.157zm.419 4.162a.266.266 0 01.146.166.26.26 0 01-.012.214.84.84 0 01-.226.257l-.654.568-.226-.11.604-.687a.248.248 0 01-.046-.136.296.296 0 01.031-.145.256.256 0 01.163-.141.277.277 0 01.22.014zm1.031-2.1a.267.267 0 01.146.165.257.257 0 01-.012.215.275.275 0 01-.385.132.275.275 0 01-.146-.166.277.277 0 01.014-.22.259.259 0 01.163-.14.278.278 0 01.22.014zm4.142.757l-1.758 3.582-.313-.154 1.59-3.237-1.153.116-.032-.303 1.397-.136.269.132zm-.329 3.722a.266.266 0 01.146.165.26.26 0 01-.012.215.277.277 0 01-.386.132.281.281 0 01-.146-.166.281.281 0 01.015-.22.256.256 0 01.163-.14.277.277 0 01.22.014zm3.337-2.319c.302.149.498.354.587.616.093.264.072.534-.064.811a1.68 1.68 0 01-.468.586c-.197.157-.46.306-.788.448-.325.144-.836.345-1.533.604l1.696.833-.178.254-2.02-.992.13-.264a36.916 36.916 0 001.627-.645c.34-.149.599-.294.775-.435.181-.142.324-.32.428-.531.104-.212.124-.412.06-.6-.06-.185-.193-.328-.397-.428a1.042 1.042 0 00-.492-.115c-.159.007-.33.05-.512.13l-.136-.268c.23-.105.448-.158.654-.16.209 0 .42.052.631.156zM4.326 7.872a8.69 8.69 0 00-.83.534 3.76 3.76 0 00-.65.617c-.208.25-.403.56-.584.93-.182.37-.308.713-.38 1.03a3.96 3.96 0 00-.092.897c.007.276.036.602.087.979l-.262.031c-.07-.421-.114-.775-.134-1.061a3.869 3.869 0 01.07-.935c.065-.338.193-.705.387-1.1a4.34 4.34 0 01.635-.978c.229-.258.46-.467.695-.628.239-.16.546-.34.922-.543l.136.227zm.036 1.822l1.427 1.83-.143.291-2.326.001.014-.314 2.104.03-1.319-1.63.243-.208zM2.84 12.576l.135-.274 1.912.938-.135.275-1.912-.939zm7.078-1.043c.37.182.573.477.608.887.037.406-.094.912-.392 1.519-.296.603-.619 1.015-.968 1.236a1.024 1.024 0 01-1.065.058 1.03 1.03 0 01-.61-.88c-.035-.41.097-.918.395-1.525.298-.607.618-1.02.962-1.239a1.03 1.03 0 011.07-.056zm-.127.259c-.535-.263-1.062.135-1.582 1.195-.522 1.062-.516 1.725.02 1.988.262.129.522.096.782-.097.264-.192.528-.558.795-1.1.266-.543.394-.977.385-1.302-.005-.327-.138-.556-.4-.684zm.596 3.929a.265.265 0 01.147.165.259.259 0 01-.012.215.276.276 0 01-.385.132.278.278 0 01-.147-.166.278.278 0 01.015-.22.258.258 0 01.162-.14.278.278 0 01.22.014zm3.338-2.318c.302.148.497.353.587.615.093.264.072.534-.064.811a1.69 1.69 0 01-.468.586c-.198.157-.46.306-.788.448-.325.144-.836.345-1.534.604l1.697.833-.178.254-2.02-.992.13-.264c.75-.282 1.291-.497 1.627-.645.34-.149.599-.294.775-.435.181-.142.324-.32.428-.531.104-.212.124-.412.06-.6-.06-.185-.193-.328-.398-.428a1.039 1.039 0 00-.492-.115c-.159.006-.33.05-.511.13l-.136-.268c.23-.105.448-.158.653-.16.21 0 .42.053.632.157zm2.281.043c.07.422.112.775.129 1.06a3.68 3.68 0 01-.066.937 4.358 4.358 0 01-.386 1.1 4.357 4.357 0 01-.635.978 3.69 3.69 0 01-.7.625c-.236.161-.541.343-.917.546l-.136-.227c.33-.19.605-.366.828-.53.224-.165.44-.373.647-.624.212-.248.408-.557.59-.927.181-.37.306-.714.373-1.033.071-.317.103-.614.095-.889a8.793 8.793 0 00-.084-.984l.262-.031zm4.323 7.718l-.313-.154.7-1.848c.27-.72.485-1.277.649-1.674l-2.368 2.48-.307-.15.483-3.406c-.19.34-.452.783-.788 1.33l-.119.203-1.034 1.698-.307-.15 2.161-3.518.447.22-.494 3.32 2.293-2.437.453.222-1.456 3.864zm5.067-2.091l-1.812 3.69-.323-.16 1.674-3.409-1.34-.658-1.105 1.69c-.265.414-.473.71-.624.89-.149.177-.293.293-.432.35-.136.058-.31.072-.523.044l.046-.299a.642.642 0 00.362-.056c.098-.054.2-.153.306-.297.11-.142.289-.402.537-.78l1.284-1.962 1.95.957zm2.065 1.014c.438.215.729.471.873.77.148.295.131.63-.052 1.003-.194.395-.46.625-.8.69-.334.063-.715-.01-1.142-.22l-.528-.259-.706 1.438-.323-.158 1.811-3.69.867.426zm-.992 1.98c.334.163.623.223.868.178.245-.044.446-.227.603-.546.148-.302.166-.56.053-.776-.107-.217-.33-.409-.667-.575l-.538-.264-.847 1.723.528.26zm3.552 3.515l-.518 1.055-.248-.121.319-.813-2.322-1.14-.448.75-.247-.122.518-1.056.237.116c.134-.045.26-.12.377-.222.12-.101.27-.269.447-.503.179-.237.422-.588.73-1.051l.839-1.286 1.723.846-1.677 3.415.27.132zm.95-3.431l-1.116-.547-.674 1.032c-.292.45-.526.791-.704 1.025a3.044 3.044 0 01-.465.513 1.065 1.065 0 01-.415.218l1.831.899 1.542-3.14zM31 25.84a.266.266 0 01.146.166.259.259 0 01-.012.215.276.276 0 01-.386.132.278.278 0 01-.146-.166.278.278 0 01.015-.22.259.259 0 01.162-.14.278.278 0 01.22.014zm6.54-.805l-1.811 3.69-.323-.16 1.674-3.409-1.341-.658-1.104 1.69c-.266.414-.474.71-.625.89-.149.177-.293.293-.432.35-.135.058-.31.073-.523.044l.046-.299a.64.64 0 00.362-.056c.098-.054.2-.153.307-.297.11-.142.288-.402.536-.78l1.285-1.962 1.95.957zm3.073 1.509l-.17.25-1.514-.743-.674 1.374 1.309.642-.133.27-1.308-.643-.74 1.508 1.588.78-.132.27-1.912-.94 1.811-3.689 1.875.92zm2.896 1.422l-.178.267-1.083-.532-1.671 3.404-.318-.156 1.672-3.404-1.094-.537.14-.285 2.532 1.243zm-1.196 3.43a.266.266 0 01.146.165.259.259 0 01-.012.215.838.838 0 01-.226.256l-.653.569-.227-.111.605-.686a.25.25 0 01-.047-.137.296.296 0 01.031-.145.259.259 0 01.163-.14.278.278 0 01.22.014zm1.031-2.1a.265.265 0 01.146.165.258.258 0 01-.012.214.275.275 0 01-.385.132.277.277 0 01-.146-.165.277.277 0 01.014-.22.258.258 0 01.163-.141.278.278 0 01.22.014zm4.002 3.642l-.127.259-.484-.238-.463.942-.307-.15.463-.943-1.567-.77.113-.231 2.305-1.93.21.237-2.168 1.83 1.234.605.553-1.031.27.132-.516 1.05.484.238zM50 31.213c.362.179.57.44.625.782.06.341-.022.74-.246 1.196-.227.463-.48.81-.757 1.039a1.85 1.85 0 01-.934.417c-.341.05-.754.038-1.237-.04l.038-.282c.57.093 1.048.072 1.435-.064.391-.133.711-.421.96-.865a1.37 1.37 0 01-.57.181 1.094 1.094 0 01-.56-.114 1.051 1.051 0 01-.434-.38 1.095 1.095 0 01-.157-.566 1.55 1.55 0 01.172-.664c.117-.237.265-.42.444-.55.186-.132.384-.204.595-.216.212-.016.421.026.626.127zm-1.064 2.018a.88.88 0 00.518.087 1.58 1.58 0 00.575-.218c.214-.426.309-.77.285-1.03-.021-.265-.165-.462-.43-.593-.241-.118-.471-.13-.69-.038-.214.091-.394.284-.538.578-.136.277-.178.521-.126.734a.72.72 0 00.406.48zm4.514-.25l-.12.242-3.071 2.69-.243-.24 2.981-2.587-1.675-.822.13-.264 1.998.981zm2.35 1.154l-.118.243-3.072 2.69-.243-.24 2.981-2.587-1.675-.823.13-.264 1.998.981zm.31 4.597l.134-.275 1.912.94-.135.274-1.912-.939zm2.473-2.248l-.402.819.808.397-.132.269-.808-.397-.402.819-.296-.146.402-.818-.808-.397.132-.27.808.398.402-.82.296.146zm5.128 1.856l-1.454-.714-.6 1.223c.252-.014.484.03.696.134.308.152.503.373.584.662.086.287.044.603-.125.948a1.5 1.5 0 01-.455.558 1.157 1.157 0 01-.615.233 1.31 1.31 0 01-.677-.145 1.506 1.506 0 01-.801-.928l.286-.094c.055.179.133.328.234.45.101.12.238.223.41.308.255.125.498.14.728.043.232-.1.42-.297.564-.592.141-.287.178-.534.11-.741-.062-.21-.208-.37-.438-.483a1.124 1.124 0 00-.328-.108 1.554 1.554 0 00-.354-.013l-.248-.122.854-1.74 1.804.887-.175.234zm1.894.536c.362.178.571.439.625.782.06.34-.022.74-.246 1.195-.227.464-.48.81-.757 1.039a1.85 1.85 0 01-.934.417c-.341.051-.754.038-1.237-.04l.038-.281c.57.092 1.048.071 1.435-.064.391-.134.711-.422.96-.866a1.373 1.373 0 01-.57.181 1.093 1.093 0 01-.56-.114 1.05 1.05 0 01-.434-.38 1.094 1.094 0 01-.157-.565 1.55 1.55 0 01.172-.664c.117-.237.265-.42.444-.55a1.12 1.12 0 01.595-.217c.212-.016.421.026.626.127zm-1.064 2.017a.88.88 0 00.518.088c.182-.026.374-.1.575-.219.214-.425.309-.769.286-1.03-.022-.264-.166-.462-.431-.592-.24-.118-.47-.131-.69-.038-.214.09-.394.283-.538.578-.136.276-.178.52-.126.733a.72.72 0 00.406.48zm4.927-.18l-1.811 3.689-.324-.159 1.812-3.69.323.16zm1.933.949l-2.362.945.643 2.79-.394-.194-.64-2.767 2.382-.956.371.182z" fill="#363636"/></svg>