<svg width="401" height="600" viewBox="0 0 401 600" fill="none" xmlns="http://www.w3.org/2000/svg">
  <rect x="0.168945" width="400" height="600" rx="12" fill="#E8E8E8"/>
  <path d="M22.9129 22.464C24.9609 22.464 26.5449 22.896 27.6649 23.76C28.7849 24.608 29.3449 25.88 29.3449 27.576C29.3449 29.384 28.7609 30.728 27.5929 31.608C26.4249 32.488 24.8729 32.928 22.9369 32.928H20.8489V39H18.5689V22.464H22.9129ZM22.8409 31.128C24.1689 31.128 25.1769 30.872 25.8649 30.36C26.5689 29.848 26.9209 28.928 26.9209 27.6C26.9209 26.416 26.5689 25.56 25.8649 25.032C25.1769 24.504 24.1849 24.24 22.8889 24.24H20.8489V31.128H22.8409ZM39.6018 36.048C39.6018 36.56 39.6898 36.944 39.8658 37.2C40.0418 37.44 40.3058 37.624 40.6578 37.752L40.1538 39.288C39.4978 39.208 38.9698 39.024 38.5698 38.736C38.1698 38.448 37.8738 38 37.6818 37.392C36.8338 38.656 35.5778 39.288 33.9138 39.288C32.6658 39.288 31.6818 38.936 30.9618 38.232C30.2418 37.528 29.8818 36.608 29.8818 35.472C29.8818 34.128 30.3618 33.096 31.3218 32.376C32.2978 31.656 33.6738 31.296 35.4498 31.296H37.3938V30.36C37.3938 29.464 37.1778 28.824 36.7458 28.44C36.3138 28.056 35.6498 27.864 34.7538 27.864C33.8258 27.864 32.6898 28.088 31.3458 28.536L30.7938 26.928C32.3618 26.352 33.8178 26.064 35.1618 26.064C36.6498 26.064 37.7618 26.432 38.4978 27.168C39.2338 27.888 39.6018 28.92 39.6018 30.264V36.048ZM34.4178 37.632C35.6818 37.632 36.6738 36.976 37.3938 35.664V32.76H35.7378C33.4018 32.76 32.2338 33.624 32.2338 35.352C32.2338 36.104 32.4178 36.672 32.7858 37.056C33.1538 37.44 33.6978 37.632 34.4178 37.632ZM47.2564 26.064C48.0564 26.064 48.8004 26.2 49.4884 26.472C50.1924 26.728 50.7524 27.112 51.1684 27.624C51.6004 28.136 51.8164 28.752 51.8164 29.472C51.8164 30.176 51.6084 30.752 51.1924 31.2C50.7924 31.648 50.1524 31.992 49.2724 32.232C50.3284 32.408 51.1284 32.736 51.6724 33.216C52.2164 33.696 52.4884 34.384 52.4884 35.28C52.4884 36.592 51.9764 37.592 50.9524 38.28C49.9444 38.952 48.6564 39.288 47.0884 39.288C45.1844 39.288 43.5604 38.76 42.2164 37.704L43.3684 36.336C43.9284 36.736 44.4884 37.032 45.0484 37.224C45.6244 37.416 46.2804 37.512 47.0164 37.512C49.0804 37.512 50.1124 36.76 50.1124 35.256C50.1124 34.52 49.8164 34.008 49.2244 33.72C48.6484 33.416 47.8404 33.264 46.8004 33.264H45.1204L45.2644 31.536H46.5604C47.4564 31.536 48.1764 31.376 48.7204 31.056C49.2644 30.736 49.5364 30.24 49.5364 29.568C49.5364 28.944 49.3044 28.496 48.8404 28.224C48.3764 27.936 47.7684 27.792 47.0164 27.792C46.3604 27.792 45.7764 27.88 45.2644 28.056C44.7684 28.216 44.2644 28.472 43.7524 28.824L42.6964 27.504C43.3364 27.024 44.0244 26.664 44.7604 26.424C45.4964 26.184 46.3284 26.064 47.2564 26.064ZM62.8084 32.136C64.9524 32.344 66.0244 33.336 66.0244 35.112C66.0244 36.44 65.5364 37.424 64.5604 38.064C63.6004 38.688 62.3124 39 60.6964 39H56.1364V26.52C57.6244 26.216 59.0084 26.064 60.2884 26.064C61.8564 26.064 63.0964 26.36 64.0084 26.952C64.9204 27.544 65.3764 28.392 65.3764 29.496C65.3764 30.216 65.1604 30.8 64.7284 31.248C64.2964 31.696 63.6564 31.992 62.8084 32.136ZM60.3124 27.768C59.6404 27.768 58.9844 27.816 58.3444 27.912V31.488H60.7204C61.4884 31.488 62.0804 31.344 62.4964 31.056C62.9124 30.768 63.1204 30.28 63.1204 29.592C63.1204 28.952 62.8884 28.488 62.4244 28.2C61.9604 27.912 61.2564 27.768 60.3124 27.768ZM60.6964 37.272C61.6404 37.272 62.3764 37.112 62.9044 36.792C63.4324 36.472 63.6964 35.896 63.6964 35.064C63.6964 34.376 63.4724 33.88 63.0244 33.576C62.5764 33.272 61.8164 33.12 60.7444 33.12H58.3444V37.272H60.6964ZM79.5233 39H77.3393V33.288C77.3393 32.328 77.3713 31.416 77.4353 30.552C77.4993 29.688 77.5553 29.12 77.6033 28.848L72.2993 39H69.6833V26.352H71.8673V32.064C71.8673 32.912 71.8353 33.792 71.7713 34.704C71.7073 35.6 71.6593 36.176 71.6273 36.432L76.8593 26.352H79.5233V39ZM92.6179 26.352L92.3539 28.152H88.2979V39H86.0899V28.152H81.9139V26.352H92.6179ZM104.742 39H102.558V33.288C102.558 32.328 102.59 31.416 102.654 30.552C102.718 29.688 102.774 29.12 102.822 28.848L97.5181 39H94.9021V26.352H97.0861V32.064C97.0861 32.912 97.0541 33.792 96.9901 34.704C96.9261 35.6 96.8781 36.176 96.8461 36.432L102.078 26.352H104.742V39ZM118.845 32.304C118.845 32.672 118.829 33.048 118.797 33.432H110.733C110.829 34.824 111.181 35.848 111.789 36.504C112.397 37.16 113.181 37.488 114.141 37.488C114.749 37.488 115.309 37.4 115.821 37.224C116.333 37.048 116.869 36.768 117.429 36.384L118.389 37.704C117.045 38.76 115.573 39.288 113.973 39.288C112.213 39.288 110.837 38.712 109.845 37.56C108.869 36.408 108.381 34.824 108.381 32.808C108.381 31.496 108.589 30.336 109.005 29.328C109.437 28.304 110.045 27.504 110.829 26.928C111.629 26.352 112.565 26.064 113.637 26.064C115.317 26.064 116.605 26.616 117.501 27.72C118.397 28.824 118.845 30.352 118.845 32.304ZM116.661 31.656C116.661 30.408 116.413 29.456 115.917 28.8C115.421 28.144 114.677 27.816 113.685 27.816C111.877 27.816 110.893 29.144 110.733 31.8H116.661V31.656ZM138.874 37.224V42.6H137.074L136.714 39H128.602L128.242 42.6H126.442V37.224H127.33C127.714 36.968 128.018 36.68 128.242 36.36C128.466 36.024 128.666 35.448 128.842 34.632C129.034 33.816 129.186 32.624 129.298 31.056L129.634 26.352H137.554V37.224H138.874ZM135.346 28.104H131.626L131.434 30.768C131.322 32.256 131.194 33.4 131.05 34.2C130.906 35 130.698 35.616 130.426 36.048C130.17 36.48 129.794 36.872 129.298 37.224H135.346V28.104ZM151.945 39H149.761V33.288C149.761 32.328 149.793 31.416 149.857 30.552C149.921 29.688 149.977 29.12 150.025 28.848L144.721 39H142.105V26.352H144.289V32.064C144.289 32.912 144.257 33.792 144.193 34.704C144.129 35.6 144.081 36.176 144.049 36.432L149.281 26.352H151.945V39ZM165.016 36.048C165.016 36.56 165.104 36.944 165.28 37.2C165.456 37.44 165.72 37.624 166.072 37.752L165.568 39.288C164.912 39.208 164.384 39.024 163.984 38.736C163.584 38.448 163.288 38 163.096 37.392C162.248 38.656 160.992 39.288 159.328 39.288C158.08 39.288 157.096 38.936 156.376 38.232C155.656 37.528 155.296 36.608 155.296 35.472C155.296 34.128 155.776 33.096 156.736 32.376C157.712 31.656 159.088 31.296 160.864 31.296H162.808V30.36C162.808 29.464 162.592 28.824 162.16 28.44C161.728 28.056 161.064 27.864 160.168 27.864C159.24 27.864 158.104 28.088 156.76 28.536L156.208 26.928C157.776 26.352 159.232 26.064 160.576 26.064C162.064 26.064 163.176 26.432 163.912 27.168C164.648 27.888 165.016 28.92 165.016 30.264V36.048ZM159.832 37.632C161.096 37.632 162.088 36.976 162.808 35.664V32.76H161.152C158.816 32.76 157.648 33.624 157.648 35.352C157.648 36.104 157.832 36.672 158.2 37.056C158.568 37.44 159.112 37.632 159.832 37.632ZM178.814 26.352V39H176.606V28.152H172.694L172.334 32.376C172.19 34.088 172.006 35.368 171.782 36.216C171.574 37.064 171.238 37.72 170.774 38.184C170.326 38.632 169.638 39 168.71 39.288L168.158 37.536C168.702 37.344 169.086 37.096 169.31 36.792C169.534 36.488 169.702 36.024 169.814 35.4C169.926 34.776 170.046 33.688 170.174 32.136L170.678 26.352H178.814ZM188.131 26.064C189.907 26.064 191.283 26.656 192.259 27.84C193.251 29.024 193.747 30.632 193.747 32.664C193.747 33.976 193.523 35.136 193.075 36.144C192.627 37.136 191.979 37.912 191.131 38.472C190.283 39.016 189.275 39.288 188.107 39.288C186.331 39.288 184.947 38.696 183.955 37.512C182.963 36.328 182.467 34.72 182.467 32.688C182.467 31.376 182.691 30.224 183.139 29.232C183.587 28.224 184.235 27.448 185.083 26.904C185.931 26.344 186.947 26.064 188.131 26.064ZM188.131 27.84C185.939 27.84 184.843 29.456 184.843 32.688C184.843 35.904 185.931 37.512 188.107 37.512C190.283 37.512 191.371 35.896 191.371 32.664C191.371 29.448 190.291 27.84 188.131 27.84ZM199.602 39H197.394V26.352H205.29L205.002 28.176H199.602V39ZM215.242 36.048C215.242 36.56 215.33 36.944 215.506 37.2C215.682 37.44 215.946 37.624 216.298 37.752L215.794 39.288C215.138 39.208 214.61 39.024 214.21 38.736C213.81 38.448 213.514 38 213.322 37.392C212.474 38.656 211.218 39.288 209.554 39.288C208.306 39.288 207.322 38.936 206.602 38.232C205.882 37.528 205.522 36.608 205.522 35.472C205.522 34.128 206.002 33.096 206.962 32.376C207.938 31.656 209.314 31.296 211.09 31.296H213.034V30.36C213.034 29.464 212.818 28.824 212.386 28.44C211.954 28.056 211.29 27.864 210.394 27.864C209.466 27.864 208.33 28.088 206.986 28.536L206.434 26.928C208.002 26.352 209.458 26.064 210.802 26.064C212.29 26.064 213.402 26.432 214.138 27.168C214.874 27.888 215.242 28.92 215.242 30.264V36.048ZM210.058 37.632C211.322 37.632 212.314 36.976 213.034 35.664V32.76H211.378C209.042 32.76 207.874 33.624 207.874 35.352C207.874 36.104 208.058 36.672 208.426 37.056C208.794 37.44 209.338 37.632 210.058 37.632ZM28.2889 68H26.1049V62.288C26.1049 61.328 26.1369 60.416 26.2009 59.552C26.2649 58.688 26.3209 58.12 26.3689 57.848L21.0649 68H18.4489V55.352H20.6329V61.064C20.6329 61.912 20.6009 62.792 20.5369 63.704C20.4729 64.6 20.4249 65.176 20.3929 65.432L25.6249 55.352H28.2889V68ZM43.9431 55.064C45.7191 55.064 47.0951 55.656 48.0711 56.84C49.0631 58.024 49.5591 59.632 49.5591 61.664C49.5591 62.976 49.3351 64.136 48.8871 65.144C48.4391 66.136 47.7911 66.912 46.9431 67.472C46.0951 68.016 45.0871 68.288 43.9191 68.288C42.1431 68.288 40.7591 67.696 39.7671 66.512C38.7751 65.328 38.2791 63.72 38.2791 61.688C38.2791 60.376 38.5031 59.224 38.9511 58.232C39.3991 57.224 40.0471 56.448 40.8951 55.904C41.7431 55.344 42.7591 55.064 43.9431 55.064ZM43.9431 56.84C41.7511 56.84 40.6551 58.456 40.6551 61.688C40.6551 64.904 41.7431 66.512 43.9191 66.512C46.0951 66.512 47.1831 64.896 47.1831 61.664C47.1831 58.448 46.1031 56.84 43.9431 56.84ZM58.7268 56.168C60.1668 56.168 61.3108 56.688 62.1588 57.728C63.0228 58.768 63.4548 60.184 63.4548 61.976C63.4548 63.976 62.9508 65.528 61.9428 66.632C60.9348 67.736 59.5828 68.288 57.8868 68.288C56.1908 68.288 54.8308 67.688 53.8068 66.488C52.7988 65.288 52.2948 63.472 52.2948 61.04C52.2948 59.2 52.4308 57.696 52.7028 56.528C52.9908 55.344 53.4788 54.376 54.1668 53.624C54.8708 52.856 55.8548 52.256 57.1188 51.824C58.0628 51.504 58.8148 51.216 59.3748 50.96C59.9508 50.704 60.5348 50.376 61.1268 49.976L62.0628 51.632C61.5028 51.984 60.9188 52.312 60.3108 52.616C59.7188 52.904 59.0068 53.184 58.1748 53.456C57.3748 53.728 56.7428 54.04 56.2788 54.392C55.8148 54.728 55.4388 55.224 55.1508 55.88C54.8788 56.52 54.6948 57.4 54.5988 58.52C55.0468 57.784 55.6228 57.208 56.3268 56.792C57.0308 56.376 57.8308 56.168 58.7268 56.168ZM57.8868 66.512C58.8628 66.512 59.6388 66.184 60.2148 65.528C60.7908 64.856 61.0788 63.696 61.0788 62.048C61.0788 60.592 60.8388 59.544 60.3588 58.904C59.8948 58.264 59.2148 57.944 58.3188 57.944C57.5828 57.944 56.8948 58.144 56.2548 58.544C55.6148 58.928 55.0868 59.52 54.6708 60.32V61.856C54.6708 63.344 54.9508 64.496 55.5108 65.312C56.0868 66.112 56.8788 66.512 57.8868 66.512ZM81.6492 66.224H83.5692V71.6H81.7692L81.4092 68H67.1052V55.352H69.2652V66.224H73.3212V55.352H75.4332V66.224H79.4892V55.352H81.6492V66.224ZM95.5244 61.304C95.5244 61.672 95.5084 62.048 95.4764 62.432H87.4124C87.5084 63.824 87.8604 64.848 88.4684 65.504C89.0764 66.16 89.8604 66.488 90.8204 66.488C91.4284 66.488 91.9884 66.4 92.5004 66.224C93.0124 66.048 93.5484 65.768 94.1084 65.384L95.0684 66.704C93.7244 67.76 92.2524 68.288 90.6524 68.288C88.8924 68.288 87.5164 67.712 86.5244 66.56C85.5484 65.408 85.0604 63.824 85.0604 61.808C85.0604 60.496 85.2684 59.336 85.6844 58.328C86.1164 57.304 86.7244 56.504 87.5084 55.928C88.3084 55.352 89.2444 55.064 90.3164 55.064C91.9964 55.064 93.2844 55.616 94.1804 56.72C95.0764 57.824 95.5244 59.352 95.5244 61.304ZM93.3404 60.656C93.3404 59.408 93.0924 58.456 92.5964 57.8C92.1004 57.144 91.3564 56.816 90.3644 56.816C88.5564 56.816 87.5724 58.144 87.4124 60.8H93.3404V60.656ZM103.659 55.064C104.411 55.064 105.099 55.176 105.723 55.4C106.347 55.608 106.947 55.952 107.523 56.432L106.467 57.824C106.019 57.504 105.579 57.272 105.147 57.128C104.731 56.968 104.267 56.888 103.755 56.888C102.731 56.888 101.931 57.296 101.355 58.112C100.795 58.928 100.515 60.136 100.515 61.736C100.515 63.336 100.795 64.52 101.355 65.288C101.915 66.04 102.715 66.416 103.755 66.416C104.251 66.416 104.707 66.344 105.123 66.2C105.539 66.04 106.003 65.792 106.515 65.456L107.523 66.896C106.371 67.824 105.083 68.288 103.659 68.288C101.947 68.288 100.595 67.712 99.6025 66.56C98.6265 65.408 98.1385 63.816 98.1385 61.784C98.1385 60.44 98.3625 59.264 98.8105 58.256C99.2585 57.248 99.8905 56.464 100.707 55.904C101.539 55.344 102.523 55.064 103.659 55.064ZM119.055 55.352L118.791 57.152H114.735V68H112.527V57.152H108.351V55.352H119.055ZM128.012 61.136C130.156 61.344 131.228 62.336 131.228 64.112C131.228 65.44 130.74 66.424 129.764 67.064C128.804 67.688 127.516 68 125.9 68H121.34V55.52C122.828 55.216 124.212 55.064 125.492 55.064C127.06 55.064 128.3 55.36 129.212 55.952C130.124 56.544 130.58 57.392 130.58 58.496C130.58 59.216 130.364 59.8 129.932 60.248C129.5 60.696 128.86 60.992 128.012 61.136ZM125.516 56.768C124.844 56.768 124.188 56.816 123.548 56.912V60.488H125.924C126.692 60.488 127.284 60.344 127.7 60.056C128.116 59.768 128.324 59.28 128.324 58.592C128.324 57.952 128.092 57.488 127.628 57.2C127.164 56.912 126.46 56.768 125.516 56.768ZM125.9 66.272C126.844 66.272 127.58 66.112 128.108 65.792C128.636 65.472 128.9 64.896 128.9 64.064C128.9 63.376 128.676 62.88 128.228 62.576C127.78 62.272 127.02 62.12 125.948 62.12H123.548V66.272H125.9ZM144.345 61.304C144.345 61.672 144.329 62.048 144.297 62.432H136.233C136.329 63.824 136.681 64.848 137.289 65.504C137.897 66.16 138.681 66.488 139.641 66.488C140.249 66.488 140.809 66.4 141.321 66.224C141.833 66.048 142.369 65.768 142.929 65.384L143.889 66.704C142.545 67.76 141.073 68.288 139.473 68.288C137.713 68.288 136.337 67.712 135.345 66.56C134.369 65.408 133.881 63.824 133.881 61.808C133.881 60.496 134.089 59.336 134.505 58.328C134.937 57.304 135.545 56.504 136.329 55.928C137.129 55.352 138.065 55.064 139.137 55.064C140.817 55.064 142.105 55.616 143.001 56.72C143.897 57.824 144.345 59.352 144.345 61.304ZM142.161 60.656C142.161 59.408 141.913 58.456 141.417 57.8C140.921 57.144 140.177 56.816 139.185 56.816C137.377 56.816 136.393 58.144 136.233 60.8H142.161V60.656ZM155.335 68V62.432H150.079V68H147.871V55.352H150.079V60.656H155.335V55.352H157.543V68H155.335ZM169.561 68V62.432H164.305V68H162.097V55.352H164.305V60.656H169.561V55.352H171.769V68H169.561ZM181.076 55.064C182.852 55.064 184.228 55.656 185.204 56.84C186.196 58.024 186.692 59.632 186.692 61.664C186.692 62.976 186.468 64.136 186.02 65.144C185.572 66.136 184.924 66.912 184.076 67.472C183.228 68.016 182.22 68.288 181.052 68.288C179.276 68.288 177.892 67.696 176.9 66.512C175.908 65.328 175.412 63.72 175.412 61.688C175.412 60.376 175.636 59.224 176.084 58.232C176.532 57.224 177.18 56.448 178.028 55.904C178.876 55.344 179.892 55.064 181.076 55.064ZM181.076 56.84C178.884 56.84 177.788 58.456 177.788 61.688C177.788 64.904 178.876 66.512 181.052 66.512C183.228 66.512 184.316 64.896 184.316 61.664C184.316 58.448 183.236 56.84 181.076 56.84ZM192.548 68H190.34V55.352H198.236L197.948 57.176H192.548V68ZM204.771 55.064C206.547 55.064 207.923 55.656 208.899 56.84C209.891 58.024 210.387 59.632 210.387 61.664C210.387 62.976 210.163 64.136 209.715 65.144C209.267 66.136 208.619 66.912 207.771 67.472C206.923 68.016 205.915 68.288 204.747 68.288C202.971 68.288 201.587 67.696 200.595 66.512C199.603 65.328 199.107 63.72 199.107 61.688C199.107 60.376 199.331 59.224 199.779 58.232C200.227 57.224 200.875 56.448 201.723 55.904C202.571 55.344 203.587 55.064 204.771 55.064ZM204.771 56.84C202.579 56.84 201.483 58.456 201.483 61.688C201.483 64.904 202.571 66.512 204.747 66.512C206.923 66.512 208.011 64.896 208.011 61.664C208.011 58.448 206.931 56.84 204.771 56.84ZM232.77 68H230.61L230.034 62.024C229.97 61.4 229.93 60.712 229.914 59.96C229.898 59.192 229.89 58.368 229.89 57.488L227.01 66.608H224.922L222.234 57.512C222.234 59.624 222.202 61.12 222.138 62L221.682 68H219.546L220.674 55.352H223.53L226.002 64.4L228.714 55.352H231.618L232.77 68ZM243.952 68V62.432H238.696V68H236.488V55.352H238.696V60.656H243.952V55.352H246.16V68H243.952ZM260.267 61.304C260.267 61.672 260.251 62.048 260.219 62.432H252.155C252.251 63.824 252.603 64.848 253.211 65.504C253.819 66.16 254.603 66.488 255.563 66.488C256.171 66.488 256.731 66.4 257.243 66.224C257.755 66.048 258.291 65.768 258.851 65.384L259.811 66.704C258.467 67.76 256.995 68.288 255.395 68.288C253.635 68.288 252.259 67.712 251.267 66.56C250.291 65.408 249.803 63.824 249.803 61.808C249.803 60.496 250.011 59.336 250.427 58.328C250.859 57.304 251.467 56.504 252.251 55.928C253.051 55.352 253.987 55.064 255.059 55.064C256.739 55.064 258.027 55.616 258.923 56.72C259.819 57.824 260.267 59.352 260.267 61.304ZM258.083 60.656C258.083 59.408 257.835 58.456 257.339 57.8C256.843 57.144 256.099 56.816 255.107 56.816C253.299 56.816 252.315 58.144 252.155 60.8H258.083V60.656ZM271.257 68V62.432H266.001V68H263.793V55.352H266.001V60.656H271.257V55.352L273.465 55.352V68H271.257ZM287.859 68H285.675V62.288C285.675 61.328 285.707 60.416 285.771 59.552C285.835 58.688 285.891 58.12 285.939 57.848L280.635 68H278.019V55.352H280.203V61.064C280.203 61.912 280.171 62.792 280.107 63.704C280.043 64.6 279.995 65.176 279.963 65.432L285.195 55.352H287.859V68ZM301.074 55.352V68H298.866V63.152H296.106L293.442 68H290.97L293.994 62.648C292.506 61.944 291.762 60.8 291.762 59.216C291.762 57.968 292.21 57.016 293.106 56.36C294.002 55.688 295.258 55.352 296.874 55.352H301.074ZM298.866 61.472V57.056H296.826C295.914 57.056 295.226 57.232 294.762 57.584C294.314 57.92 294.09 58.464 294.09 59.216C294.09 60.016 294.298 60.592 294.714 60.944C295.146 61.296 295.834 61.472 296.778 61.472H298.866Z" fill="#202020"/>
  <path d="M169.169 516C169.169 511.582 172.751 508 177.169 508H373.169C377.587 508 381.169 511.582 381.169 516V563.859C381.169 565.197 381.837 566.446 382.95 567.187L384.169 568H380.113C379.492 568 378.88 567.855 378.324 567.578L377.169 567L376.014 567.578C375.458 567.855 374.846 568 374.225 568H177.169C172.751 568 169.169 564.418 169.169 560L169.169 516Z" fill="#ABABAB"/>
  <path d="M230.169 346C230.169 341.582 233.751 338 238.169 338H373.169C377.587 338 381.169 341.582 381.169 346V369.859C381.169 371.197 381.837 372.446 382.95 373.187L384.169 374H380.113C379.492 374 378.88 373.855 378.324 373.578L377.169 373L376.014 373.578C375.458 373.855 374.846 374 374.225 374H238.169C233.751 374 230.169 370.418 230.169 366V346Z" fill="#ABABAB"/>
  <path d="M202.169 452C202.169 447.582 198.587 444 194.169 444H27.1689C22.7507 444 19.1689 447.582 19.1689 452V487.859C19.1689 489.197 18.5005 490.445 17.3877 491.187L16.1689 492H20.2247C20.8457 492 21.4581 491.855 22.0135 491.578L23.1689 491L24.3244 491.578C24.8798 491.855 25.4922 492 26.1132 492H194.169C198.587 492 202.169 488.418 202.169 484V452Z" fill="#C8C8C8"/>
  <path d="M259.169 282C259.169 277.582 255.587 274 251.169 274H27.169C22.7507 274 19.169 277.582 19.169 282V317.859C19.169 319.197 18.5006 320.446 17.3878 321.187L16.169 322H20.2247C20.8457 322 21.4581 321.855 22.0136 321.578L23.169 321L24.3244 321.578C24.8798 321.855 25.4923 322 26.1133 322H251.169C255.587 322 259.169 318.418 259.169 314V282Z" fill="#C8C8C8"/>
  <path d="M259.169 398C259.169 393.582 255.587 390 251.169 390H27.1689C22.7507 390 19.1689 393.582 19.1689 398V430C19.1689 434.418 22.7507 438 27.1689 438H251.169C255.587 438 259.169 434.418 259.169 430V398Z" fill="#C8C8C8"/>
  <path d="M259.169 114C259.169 109.582 255.587 106 251.169 106H27.1689C22.7507 106 19.1689 109.582 19.1689 114V262C19.1689 266.418 22.7507 270 27.1689 270H251.169C255.587 270 259.169 266.418 259.169 262V114Z" fill="#C8C8C8"/>
  <rect x="27.1689" y="114" width="224" height="112" rx="4" fill="#E8E8E8"/>
  <rect x="27.1689" y="230" width="224" height="8" rx="4" fill="#E8E8E8"/>
  <rect x="27.1689" y="282" width="224" height="8" rx="4" fill="#E8E8E8"/>
  <rect x="238.169" y="346" width="135" height="8" rx="4" fill="#E8E8E8"/>
  <rect x="27.1689" y="410" width="224" height="8" rx="4" fill="#E8E8E8"/>
  <rect x="27.1689" y="464" width="167" height="8" rx="4" fill="#E8E8E8"/>
  <rect x="27.1689" y="398" width="224" height="8" rx="4" fill="#E8E8E8"/>
  <rect x="27.1689" y="452" width="167" height="8" rx="4" fill="#E8E8E8"/>
  <rect x="177.169" y="540" width="196" height="8" rx="4" fill="#E8E8E8"/>
  <rect x="177.169" y="528" width="196" height="8" rx="4" fill="#E8E8E8"/>
  <rect x="177.169" y="516" width="196" height="8" rx="4" fill="#E8E8E8"/>
  <rect x="27.1689" y="242" width="224" height="8" rx="4" fill="#E8E8E8"/>
  <rect x="27.1689" y="294" width="224" height="8" rx="4" fill="#E8E8E8"/>
  <rect x="238.169" y="358" width="70" height="8" rx="4" fill="#E8E8E8"/>
  <rect x="27.1689" y="422" width="70" height="8" rx="4" fill="#E8E8E8"/>
  <rect x="27.1689" y="476" width="107" height="8" rx="4" fill="#E8E8E8"/>
  <rect x="177.169" y="552" width="24" height="8" rx="4" fill="#E8E8E8"/>
  <rect x="27.1689" y="254" width="110" height="8" rx="4" fill="#E8E8E8"/>
  <rect x="27.1689" y="306" width="188" height="8" rx="4" fill="#E8E8E8"/>
  <path d="M139.169 143L142.585 158.907C143.411 162.753 146.416 165.758 150.262 166.584L166.169 170L150.262 173.416C146.416 174.242 143.411 177.247 142.585 181.093L139.169 197L135.753 181.093C134.927 177.247 131.922 174.242 128.076 173.416L112.169 170L128.076 166.584C131.922 165.758 134.927 162.753 135.753 158.907L139.169 143Z" fill="#ABABAB"/>
  <path d="M142.169 476C142.599 478.004 144.165 479.57 146.169 480C144.165 480.43 142.599 481.996 142.169 484C141.739 481.996 140.173 480.43 138.169 480C140.173 479.57 141.739 478.004 142.169 476Z" fill="#ABABAB"/>
  <path d="M154.169 476C154.599 478.004 156.165 479.57 158.169 480C156.165 480.43 154.599 481.996 154.169 484C153.739 481.996 152.173 480.43 150.169 480C152.173 479.57 153.739 478.004 154.169 476Z" fill="#ABABAB"/>
</svg>
