<svg width="401" height="600" viewBox="0 0 401 600" fill="none" xmlns="http://www.w3.org/2000/svg">
  <rect x="0.168945" width="400" height="600" rx="12" fill="#F4F4F4"/>
  <path d="M33.3529 39H31.1449L30.5689 31.536C30.3289 28.608 30.1929 26.36 30.1609 24.792L26.5849 37.128H24.4489L20.6809 24.768C20.6809 26.768 20.5769 29.08 20.3689 31.704L19.8169 39H17.6569L19.0249 22.464H22.0969L25.5769 34.488L28.8889 22.464H31.9849L33.3529 39ZM46.6806 32.304C46.6806 32.672 46.6646 33.048 46.6326 33.432H38.5686C38.6646 34.824 39.0166 35.848 39.6246 36.504C40.2326 37.16 41.0166 37.488 41.9766 37.488C42.5846 37.488 43.1446 37.4 43.6566 37.224C44.1686 37.048 44.7046 36.768 45.2646 36.384L46.2246 37.704C44.8806 38.76 43.4086 39.288 41.8086 39.288C40.0486 39.288 38.6726 38.712 37.6806 37.56C36.7046 36.408 36.2166 34.824 36.2166 32.808C36.2166 31.496 36.4246 30.336 36.8406 29.328C37.2726 28.304 37.8806 27.504 38.6646 26.928C39.4646 26.352 40.4006 26.064 41.4726 26.064C43.1526 26.064 44.4406 26.616 45.3366 27.72C46.2326 28.824 46.6806 30.352 46.6806 32.304ZM44.4966 31.656C44.4966 30.408 44.2486 29.456 43.7526 28.8C43.2566 28.144 42.5126 27.816 41.5206 27.816C39.7126 27.816 38.7286 29.144 38.5686 31.8H44.4966V31.656ZM60.1244 37.224V42.6H58.3244L57.9644 39H49.8524L49.4924 42.6H47.6924V37.224H48.5804C48.9644 36.968 49.2684 36.68 49.4924 36.36C49.7164 36.024 49.9164 35.448 50.0924 34.632C50.2844 33.816 50.4364 32.624 50.5484 31.056L50.8844 26.352H58.8044V37.224H60.1244ZM56.5964 28.104H52.8764L52.6844 30.768C52.5724 32.256 52.4444 33.4 52.3004 34.2C52.1564 35 51.9484 35.616 51.6764 36.048C51.4204 36.48 51.0444 36.872 50.5484 37.224H56.5964V28.104ZM73.1952 39H71.0112V33.288C71.0112 32.328 71.0432 31.416 71.1072 30.552C71.1712 29.688 71.2272 29.12 71.2752 28.848L65.9712 39H63.3552V26.352H65.5392V32.064C65.5392 32.912 65.5072 33.792 65.4432 34.704C65.3792 35.6 65.3312 36.176 65.2992 36.432L70.5312 26.352H73.1952V39ZM86.2658 36.048C86.2658 36.56 86.3538 36.944 86.5298 37.2C86.7058 37.44 86.9698 37.624 87.3218 37.752L86.8178 39.288C86.1618 39.208 85.6338 39.024 85.2338 38.736C84.8338 38.448 84.5378 38 84.3458 37.392C83.4978 38.656 82.2418 39.288 80.5778 39.288C79.3298 39.288 78.3458 38.936 77.6258 38.232C76.9058 37.528 76.5458 36.608 76.5458 35.472C76.5458 34.128 77.0258 33.096 77.9858 32.376C78.9618 31.656 80.3378 31.296 82.1138 31.296H84.0578V30.36C84.0578 29.464 83.8418 28.824 83.4098 28.44C82.9778 28.056 82.3138 27.864 81.4178 27.864C80.4898 27.864 79.3538 28.088 78.0098 28.536L77.4578 26.928C79.0258 26.352 80.4818 26.064 81.8258 26.064C83.3138 26.064 84.4258 26.432 85.1618 27.168C85.8978 27.888 86.2658 28.92 86.2658 30.264V36.048ZM81.0818 37.632C82.3458 37.632 83.3378 36.976 84.0578 35.664V32.76H82.4018C80.0658 32.76 78.8978 33.624 78.8978 35.352C78.8978 36.104 79.0818 36.672 79.4498 37.056C79.8178 37.44 80.3618 37.632 81.0818 37.632ZM89.7261 32.424V30.552H96.5181V32.424H89.7261ZM108.414 36.048C108.414 36.56 108.502 36.944 108.678 37.2C108.854 37.44 109.118 37.624 109.47 37.752L108.966 39.288C108.31 39.208 107.782 39.024 107.382 38.736C106.982 38.448 106.686 38 106.494 37.392C105.646 38.656 104.39 39.288 102.726 39.288C101.478 39.288 100.494 38.936 99.7743 38.232C99.0543 37.528 98.6943 36.608 98.6943 35.472C98.6943 34.128 99.1743 33.096 100.134 32.376C101.11 31.656 102.486 31.296 104.262 31.296H106.206V30.36C106.206 29.464 105.99 28.824 105.558 28.44C105.126 28.056 104.462 27.864 103.566 27.864C102.638 27.864 101.502 28.088 100.158 28.536L99.6063 26.928C101.174 26.352 102.63 26.064 103.974 26.064C105.462 26.064 106.574 26.432 107.31 27.168C108.046 27.888 108.414 28.92 108.414 30.264V36.048ZM103.23 37.632C104.494 37.632 105.486 36.976 106.206 35.664V32.76H104.55C102.214 32.76 101.046 33.624 101.046 35.352C101.046 36.104 101.23 36.672 101.598 37.056C101.966 37.44 102.51 37.632 103.23 37.632ZM120.413 39V33.432H115.157V39H112.949V26.352H115.157V31.656H120.413V26.352H122.621V39H120.413ZM135.696 36.048C135.696 36.56 135.784 36.944 135.96 37.2C136.136 37.44 136.4 37.624 136.752 37.752L136.248 39.288C135.592 39.208 135.064 39.024 134.664 38.736C134.264 38.448 133.968 38 133.776 37.392C132.928 38.656 131.672 39.288 130.008 39.288C128.76 39.288 127.776 38.936 127.056 38.232C126.336 37.528 125.976 36.608 125.976 35.472C125.976 34.128 126.456 33.096 127.416 32.376C128.392 31.656 129.768 31.296 131.544 31.296H133.488V30.36C133.488 29.464 133.272 28.824 132.84 28.44C132.408 28.056 131.744 27.864 130.848 27.864C129.92 27.864 128.784 28.088 127.44 28.536L126.888 26.928C128.456 26.352 129.912 26.064 131.256 26.064C132.744 26.064 133.856 26.432 134.592 27.168C135.328 27.888 135.696 28.92 135.696 30.264V36.048ZM130.512 37.632C131.776 37.632 132.768 36.976 133.488 35.664V32.76H131.832C129.496 32.76 128.328 33.624 128.328 35.352C128.328 36.104 128.512 36.672 128.88 37.056C129.248 37.44 129.792 37.632 130.512 37.632ZM149.494 26.352V39H147.286V28.152H143.374L143.014 32.376C142.87 34.088 142.686 35.368 142.462 36.216C142.254 37.064 141.918 37.72 141.454 38.184C141.006 38.632 140.318 39 139.39 39.288L138.838 37.536C139.382 37.344 139.766 37.096 139.99 36.792C140.214 36.488 140.382 36.024 140.494 35.4C140.606 34.776 140.726 33.688 140.854 32.136L141.358 26.352H149.494ZM163.898 39H161.714V33.288C161.714 32.328 161.746 31.416 161.81 30.552C161.874 29.688 161.93 29.12 161.978 28.848L156.674 39H154.058V26.352H156.242V32.064C156.242 32.912 156.21 33.792 156.146 34.704C156.082 35.6 156.034 36.176 156.002 36.432L161.234 26.352H163.898V39ZM176.993 26.352L176.729 28.152L172.673 28.152V39H170.465V28.152H166.289V26.352L176.993 26.352ZM189.117 39H186.933V33.288C186.933 32.328 186.965 31.416 187.029 30.552C187.093 29.688 187.149 29.12 187.197 28.848L181.893 39H179.277V26.352H181.461V32.064C181.461 32.912 181.429 33.792 181.365 34.704C181.301 35.6 181.253 36.176 181.221 36.432L186.453 26.352H189.117V39ZM203.148 26.352L199.308 32.208L203.604 39H200.988L197.484 33.168H195.876V39H193.668V26.352H195.876V31.44H197.532L200.724 26.352H203.148ZM214.281 36.048C214.281 36.56 214.369 36.944 214.545 37.2C214.721 37.44 214.985 37.624 215.337 37.752L214.833 39.288C214.177 39.208 213.649 39.024 213.249 38.736C212.849 38.448 212.553 38 212.361 37.392C211.513 38.656 210.257 39.288 208.593 39.288C207.345 39.288 206.361 38.936 205.641 38.232C204.921 37.528 204.561 36.608 204.561 35.472C204.561 34.128 205.041 33.096 206.001 32.376C206.977 31.656 208.353 31.296 210.129 31.296H212.073V30.36C212.073 29.464 211.857 28.824 211.425 28.44C210.993 28.056 210.329 27.864 209.433 27.864C208.505 27.864 207.369 28.088 206.025 28.536L205.473 26.928C207.041 26.352 208.497 26.064 209.841 26.064C211.329 26.064 212.441 26.432 213.177 27.168C213.913 27.888 214.281 28.92 214.281 30.264V36.048ZM209.097 37.632C210.361 37.632 211.353 36.976 212.073 35.664V32.76H210.417C208.081 32.76 206.913 33.624 206.913 35.352C206.913 36.104 207.097 36.672 207.465 37.056C207.833 37.44 208.377 37.632 209.097 37.632Z" fill="#202020"/>
  <rect x="76.168" y="430" width="8" height="34" rx="4" fill="#C8C8C8"/>
  <rect x="100.168" y="382" width="8" height="82" rx="4" fill="#C8C8C8"/>
  <path d="M200.169 268L203.585 283.907C204.411 287.754 207.416 290.758 211.262 291.584L227.169 295L211.262 298.416C207.416 299.242 204.411 302.247 203.585 306.094L200.169 322L196.753 306.094C195.927 302.247 192.922 299.242 189.076 298.416L173.169 295L189.076 291.584C192.922 290.758 195.927 287.754 196.753 283.907L200.169 268Z" fill="#ABABAB"/>
  <rect x="124.17" y="413" width="8" height="74" rx="4" fill="#C8C8C8"/>
  <rect x="148.168" y="398" width="8" height="74" rx="4" fill="#C8C8C8"/>
  <rect x="172.169" y="398" width="8" height="66" rx="4" fill="#C8C8C8"/>
  <rect x="196.169" y="374" width="8" height="90" rx="4" fill="#C8C8C8"/>
  <rect x="220.168" y="428" width="8" height="36" rx="4" fill="#C8C8C8"/>
  <rect x="244.168" y="404" width="8" height="60" rx="4" fill="#C8C8C8"/>
  <rect x="268.169" y="428" width="8" height="59" rx="4" fill="#C8C8C8"/>
  <rect x="292.169" y="404" width="8" height="59" rx="4" fill="#C8C8C8"/>
  <rect x="316.169" y="388" width="8" height="75" rx="4" fill="#C8C8C8"/>
  <path d="M370.527 403.74C370.936 402.713 370.435 401.55 369.409 401.142L352.685 394.485C351.659 394.076 350.496 394.577 350.087 395.603C349.678 396.63 350.179 397.793 351.206 398.201L366.071 404.119L360.154 418.984C359.745 420.01 360.246 421.173 361.272 421.582C362.298 421.99 363.462 421.49 363.87 420.463L370.527 403.74ZM296.348 434.435L294.739 433.247L296.348 434.435ZM297.166 433.786L296.375 431.949L297.166 433.786ZM271.066 464.276L272.689 463.106L271.066 464.276ZM274.298 464.295L272.689 463.106L274.298 464.295ZM246.572 433.531L245.487 431.851L246.572 433.531ZM249.28 434.042L247.657 435.211L249.28 434.042ZM223.05 446.508L224.65 445.308L223.05 446.508ZM225.735 446.988L224.65 445.308L225.735 446.988ZM201.221 417.403L202.821 416.203L201.221 417.403ZM176.511 429.307L175.531 427.564L176.511 429.307ZM151.713 432.889L153.012 434.41L151.713 432.889ZM152.764 432.426L152.516 430.441L152.764 432.426ZM126.911 451.166L128.561 450.035L126.911 451.166ZM129.86 451.556L128.561 450.035L129.86 451.556ZM102.467 419.761L103.904 421.151L102.467 419.761ZM105.554 420.02L103.904 421.151L105.554 420.02ZM32.6068 494.89L103.904 421.151L101.029 418.37L29.7311 492.11L32.6068 494.89ZM103.904 421.151L125.262 452.297L128.561 450.035L107.203 418.889L103.904 421.151ZM131.159 453.076L153.012 434.41L150.414 431.369L128.561 450.035L131.159 453.076ZM153.012 434.41L176.027 431.533L175.531 427.564L152.516 430.441L153.012 434.41ZM177.492 431.05L199.621 418.603L197.66 415.117L175.531 427.564L177.492 431.05ZM199.621 418.603L221.45 447.708L224.65 445.308L202.821 416.203L199.621 418.603ZM226.82 448.669L247.657 435.211L245.487 431.851L224.65 445.308L226.82 448.669ZM247.657 435.211L269.444 465.445L272.689 463.106L250.903 432.873L247.657 435.211ZM275.906 465.483L297.957 435.623L294.739 433.247L272.689 463.106L275.906 465.483ZM297.957 435.623L369.46 404.837L367.878 401.163L296.375 431.949L297.957 435.623ZM297.957 435.623L296.375 431.949C295.724 432.229 295.16 432.677 294.739 433.247L297.957 435.623ZM269.444 465.445C271.028 467.644 274.296 467.663 275.906 465.483L272.689 463.106V463.106L269.444 465.445ZM247.657 435.211L250.903 432.873C249.657 431.145 247.277 430.695 245.487 431.851L247.657 435.211ZM221.45 447.708C222.71 449.389 225.056 449.808 226.82 448.669L224.65 445.308L221.45 447.708ZM199.621 418.603V418.603L202.821 416.203C201.617 414.597 199.409 414.133 197.66 415.117L199.621 418.603ZM176.027 431.533C176.542 431.469 177.04 431.305 177.492 431.05L175.531 427.564L176.027 431.533ZM153.012 434.41L152.516 430.441C151.74 430.538 151.009 430.861 150.414 431.369L153.012 434.41ZM125.262 452.297C126.606 454.257 129.352 454.62 131.159 453.076L128.561 450.035L125.262 452.297ZM103.904 421.151L103.904 421.151L107.203 418.889C105.772 416.802 102.788 416.551 101.029 418.37L103.904 421.151Z" fill="#ABABAB"/>
  <path d="M160.169 275C160.167 220.333 240.169 220.334 240.169 275" stroke="#C8C8C8" stroke-opacity="0.3" stroke-width="4"/>
  <path d="M116.169 275C116.165 153.666 284.169 153.667 284.169 275" stroke="#C8C8C8" stroke-opacity="0.3" stroke-width="8"/>
  <path d="M68.1689 275C68.1625 81.6659 332.169 81.6674 332.169 275" stroke="#C8C8C8" stroke-opacity="0.3" stroke-width="12"/>
</svg>
