<svg width="400" height="600" viewBox="0 0 400 600" fill="none" xmlns="http://www.w3.org/2000/svg">
  <rect width="400" height="600" rx="12" fill="#D9D9D9"/>
  <path d="M27.208 39L25.96 34.848H19.696L18.448 39H16.144L21.448 22.464H24.328L29.608 39H27.208ZM20.248 33H25.408L22.84 24.36L20.248 33ZM41.5178 26.352L37.6778 32.208L41.9738 39H39.3578L35.8538 33.168H34.2458V39H32.0378V26.352H34.2458V31.44H35.9018L39.0938 26.352H41.5178ZM53.0271 26.352L52.7631 28.152H48.7071V39H46.4991V28.152H42.3231V26.352H53.0271ZM60.3752 39.072C59.8792 40.544 59.1832 41.704 58.2872 42.552C57.4072 43.416 56.1432 43.936 54.4952 44.112L54.2552 42.384C55.0872 42.24 55.7512 42.032 56.2472 41.76C56.7432 41.488 57.1352 41.136 57.4232 40.704C57.7272 40.288 58.0072 39.72 58.2632 39H57.5192L53.2712 26.352H55.6232L59.0072 37.392L62.3192 26.352H64.5992L60.3752 39.072ZM75.2687 36.048C75.2687 36.56 75.3567 36.944 75.5327 37.2C75.7087 37.44 75.9727 37.624 76.3247 37.752L75.8207 39.288C75.1647 39.208 74.6367 39.024 74.2367 38.736C73.8367 38.448 73.5407 38 73.3487 37.392C72.5007 38.656 71.2447 39.288 69.5807 39.288C68.3327 39.288 67.3487 38.936 66.6287 38.232C65.9087 37.528 65.5487 36.608 65.5487 35.472C65.5487 34.128 66.0287 33.096 66.9887 32.376C67.9647 31.656 69.3407 31.296 71.1167 31.296H73.0607V30.36C73.0607 29.464 72.8447 28.824 72.4127 28.44C71.9807 28.056 71.3167 27.864 70.4207 27.864C69.4927 27.864 68.3567 28.088 67.0127 28.536L66.4607 26.928C68.0287 26.352 69.4847 26.064 70.8287 26.064C72.3167 26.064 73.4287 26.432 74.1647 27.168C74.9007 27.888 75.2687 28.92 75.2687 30.264V36.048ZM70.0847 37.632C71.3487 37.632 72.3407 36.976 73.0607 35.664V32.76H71.4047C69.0687 32.76 67.9007 33.624 67.9007 35.352C67.9007 36.104 68.0847 36.672 68.4527 37.056C68.8207 37.44 69.3647 37.632 70.0847 37.632ZM89.0674 26.352V39H86.8594V28.152H82.9474L82.5874 32.376C82.4434 34.088 82.2594 35.368 82.0354 36.216C81.8274 37.064 81.4914 37.72 81.0274 38.184C80.5794 38.632 79.8914 39 78.9634 39.288L78.4114 37.536C78.9554 37.344 79.3394 37.096 79.5634 36.792C79.7874 36.488 79.9554 36.024 80.0674 35.4C80.1794 34.776 80.2994 33.688 80.4274 32.136L80.9314 26.352H89.0674ZM97.5196 30.432C99.4076 30.432 100.776 30.8 101.624 31.536C102.472 32.272 102.896 33.32 102.896 34.68C102.896 36.104 102.416 37.184 101.456 37.92C100.512 38.64 99.3356 39 97.9276 39H93.6316V26.352H95.8396V30.432H97.5196ZM97.7356 37.272C98.6316 37.272 99.3196 37.072 99.7996 36.672C100.296 36.272 100.544 35.608 100.544 34.68C100.544 33.8 100.312 33.152 99.8476 32.736C99.3996 32.32 98.6156 32.112 97.4956 32.112H95.8396V37.272H97.7356ZM113.471 39V33.432H108.215V39H106.007V26.352H108.215V31.656H113.471V26.352H115.679V39H113.471ZM123.881 30.432C125.769 30.432 127.137 30.8 127.985 31.536C128.833 32.272 129.257 33.32 129.257 34.68C129.257 36.104 128.777 37.184 127.817 37.92C126.873 38.64 125.697 39 124.289 39H120.233V26.352H122.441V30.432H123.881ZM131.081 26.352H133.289V39H131.081V26.352ZM124.097 37.272C124.993 37.272 125.681 37.072 126.161 36.672C126.657 36.272 126.905 35.608 126.905 34.68C126.905 33.8 126.673 33.152 126.209 32.736C125.761 32.32 124.977 32.112 123.857 32.112H122.441V37.272H124.097ZM147.41 32.304C147.41 32.672 147.394 33.048 147.362 33.432H139.298C139.394 34.824 139.746 35.848 140.354 36.504C140.962 37.16 141.746 37.488 142.706 37.488C143.314 37.488 143.874 37.4 144.386 37.224C144.898 37.048 145.434 36.768 145.994 36.384L146.954 37.704C145.61 38.76 144.138 39.288 142.538 39.288C140.778 39.288 139.402 38.712 138.41 37.56C137.434 36.408 136.946 34.824 136.946 32.808C136.946 31.496 137.154 30.336 137.57 29.328C138.002 28.304 138.61 27.504 139.394 26.928C140.194 26.352 141.13 26.064 142.202 26.064C143.882 26.064 145.17 26.616 146.066 27.72C146.962 28.824 147.41 30.352 147.41 32.304ZM145.226 31.656C145.226 30.408 144.978 29.456 144.482 28.8C143.986 28.144 143.242 27.816 142.25 27.816C140.442 27.816 139.458 29.144 139.298 31.8H145.226V31.656ZM166.768 26.352L162.928 32.208L167.224 39H164.608L161.104 33.168H159.496V39H157.288V26.352H159.496V31.44H161.152L164.344 26.352H166.768ZM174.274 26.064C176.05 26.064 177.426 26.656 178.402 27.84C179.394 29.024 179.89 30.632 179.89 32.664C179.89 33.976 179.666 35.136 179.218 36.144C178.77 37.136 178.122 37.912 177.274 38.472C176.426 39.016 175.418 39.288 174.25 39.288C172.474 39.288 171.09 38.696 170.098 37.512C169.106 36.328 168.61 34.72 168.61 32.688C168.61 31.376 168.834 30.224 169.282 29.232C169.73 28.224 170.378 27.448 171.226 26.904C172.074 26.344 173.09 26.064 174.274 26.064ZM174.274 27.84C172.082 27.84 170.986 29.456 170.986 32.688C170.986 35.904 172.074 37.512 174.25 37.512C176.426 37.512 177.514 35.896 177.514 32.664C177.514 29.448 176.434 27.84 174.274 27.84ZM195.922 39H193.762L193.186 33.024C193.122 32.4 193.082 31.712 193.066 30.96C193.05 30.192 193.042 29.368 193.042 28.488L190.162 37.608H188.074L185.386 28.512C185.386 30.624 185.354 32.12 185.29 33L184.834 39H182.698L183.826 26.352H186.682L189.154 35.4L191.866 26.352H194.77L195.922 39ZM212.023 39H209.863L209.287 33.024C209.223 32.4 209.183 31.712 209.167 30.96C209.151 30.192 209.143 29.368 209.143 28.488L206.263 37.608H204.175L201.487 28.512C201.487 30.624 201.455 32.12 201.391 33L200.935 39H198.799L199.927 26.352H202.783L205.255 35.4L207.967 26.352H210.871L212.023 39ZM220.711 39.072C220.215 40.544 219.519 41.704 218.623 42.552C217.743 43.416 216.479 43.936 214.831 44.112L214.591 42.384C215.423 42.24 216.087 42.032 216.583 41.76C217.079 41.488 217.471 41.136 217.759 40.704C218.063 40.288 218.343 39.72 218.599 39H217.855L213.607 26.352H215.959L219.343 37.392L222.655 26.352H224.935L220.711 39.072ZM234.924 39V33.432H229.668V39H227.46V26.352H229.668V31.656H234.924V26.352H237.132V39H234.924ZM251.526 39H249.342V33.288C249.342 32.328 249.374 31.416 249.438 30.552C249.502 29.688 249.558 29.12 249.606 28.848L244.302 39H241.686V26.352H243.87V32.064C243.87 32.912 243.838 33.792 243.774 34.704C243.71 35.6 243.662 36.176 243.63 36.432L248.862 26.352H251.526V39ZM265.557 26.352L261.717 32.208L266.013 39H263.397L259.893 33.168H258.285V39H256.077V26.352H258.285V31.44H259.941L263.133 26.352H265.557ZM276.691 36.048C276.691 36.56 276.779 36.944 276.955 37.2C277.131 37.44 277.395 37.624 277.747 37.752L277.243 39.288C276.587 39.208 276.059 39.024 275.659 38.736C275.259 38.448 274.963 38 274.771 37.392C273.923 38.656 272.667 39.288 271.003 39.288C269.755 39.288 268.771 38.936 268.051 38.232C267.331 37.528 266.971 36.608 266.971 35.472C266.971 34.128 267.451 33.096 268.411 32.376C269.387 31.656 270.763 31.296 272.539 31.296H274.483V30.36C274.483 29.464 274.267 28.824 273.835 28.44C273.403 28.056 272.739 27.864 271.843 27.864C270.915 27.864 269.779 28.088 268.435 28.536L267.883 26.928C269.451 26.352 270.907 26.064 272.251 26.064C273.739 26.064 274.851 26.432 275.587 27.168C276.323 27.888 276.691 28.92 276.691 30.264V36.048ZM271.507 37.632C272.771 37.632 273.763 36.976 274.483 35.664V32.76H272.827C270.491 32.76 269.323 33.624 269.323 35.352C269.323 36.104 269.507 36.672 269.875 37.056C270.243 37.44 270.787 37.632 271.507 37.632ZM290.705 37.224H292.625V42.6H290.825L290.465 39H281.225V26.352H283.433V37.2H288.497V26.352H290.705V37.224ZM305.104 39H302.92V33.288C302.92 32.328 302.952 31.416 303.016 30.552C303.08 29.688 303.136 29.12 303.184 28.848L297.88 39H295.264V26.352H297.448V32.064C297.448 32.912 297.416 33.792 297.352 34.704C297.288 35.6 297.24 36.176 297.208 36.432L302.44 26.352H305.104V39ZM314.407 26.064C316.183 26.064 317.559 26.656 318.535 27.84C319.527 29.024 320.023 30.632 320.023 32.664C320.023 33.976 319.799 35.136 319.351 36.144C318.903 37.136 318.255 37.912 317.407 38.472C316.559 39.016 315.551 39.288 314.383 39.288C312.607 39.288 311.223 38.696 310.231 37.512C309.239 36.328 308.743 34.72 308.743 32.688C308.743 31.376 308.967 30.224 309.415 29.232C309.863 28.224 310.511 27.448 311.359 26.904C312.207 26.344 313.223 26.064 314.407 26.064ZM314.407 27.84C312.215 27.84 311.119 29.456 311.119 32.688C311.119 35.904 312.207 37.512 314.383 37.512C316.559 37.512 317.647 35.896 317.647 32.664C317.647 29.448 316.567 27.84 314.407 27.84ZM331.135 39V33.432H325.879V39H323.671V26.352H325.879V31.656H331.135V26.352H333.343V39H331.135ZM345.361 39V33.432H340.105V39H337.897V26.352H340.105V31.656H345.361V26.352H347.569V39H345.361ZM355.772 30.432C357.66 30.432 359.028 30.8 359.876 31.536C360.724 32.272 361.148 33.32 361.148 34.68C361.148 36.104 360.668 37.184 359.708 37.92C358.764 38.64 357.588 39 356.18 39H352.124V26.352H354.332V30.432H355.772ZM362.972 26.352H365.18V39H362.972V26.352ZM355.988 37.272C356.884 37.272 357.572 37.072 358.052 36.672C358.548 36.272 358.796 35.608 358.796 34.68C358.796 33.8 358.564 33.152 358.1 32.736C357.652 32.32 356.868 32.112 355.748 32.112H354.332V37.272H355.988ZM379.301 32.304C379.301 32.672 379.285 33.048 379.253 33.432H371.189C371.285 34.824 371.637 35.848 372.245 36.504C372.853 37.16 373.637 37.488 374.597 37.488C375.205 37.488 375.765 37.4 376.277 37.224C376.789 37.048 377.325 36.768 377.885 36.384L378.845 37.704C377.501 38.76 376.029 39.288 374.429 39.288C372.669 39.288 371.293 38.712 370.301 37.56C369.325 36.408 368.837 34.824 368.837 32.808C368.837 31.496 369.045 30.336 369.461 29.328C369.893 28.304 370.501 27.504 371.285 26.928C372.085 26.352 373.021 26.064 374.093 26.064C375.773 26.064 377.061 26.616 377.957 27.72C378.853 28.824 379.301 30.352 379.301 32.304ZM377.117 31.656C377.117 30.408 376.869 29.456 376.373 28.8C375.877 28.144 375.133 27.816 374.141 27.816C372.333 27.816 371.349 29.144 371.189 31.8H377.117V31.656ZM25.672 68V57.152H20.488V68H18.28V55.352H27.88V68H25.672ZM38.2442 55.064C39.8602 55.064 41.0442 55.64 41.7962 56.792C42.5482 57.944 42.9242 59.568 42.9242 61.664C42.9242 63.648 42.4922 65.248 41.6282 66.464C40.7642 67.68 39.5402 68.288 37.9562 68.288C36.5482 68.288 35.4442 67.808 34.6442 66.848V72.848L32.4362 73.112V55.352H34.3322L34.5002 57.056C34.9642 56.416 35.5242 55.928 36.1802 55.592C36.8362 55.24 37.5242 55.064 38.2442 55.064ZM37.4282 66.488C39.5082 66.488 40.5482 64.88 40.5482 61.664C40.5482 58.432 39.5962 56.816 37.6922 56.816C37.0682 56.816 36.5002 57 35.9882 57.368C35.4762 57.736 35.0282 58.208 34.6442 58.784V64.952C34.9642 65.448 35.3642 65.832 35.8442 66.104C36.3242 66.36 36.8522 66.488 37.4282 66.488ZM51.4382 55.064C53.2142 55.064 54.5902 55.656 55.5662 56.84C56.5582 58.024 57.0542 59.632 57.0542 61.664C57.0542 62.976 56.8302 64.136 56.3822 65.144C55.9342 66.136 55.2862 66.912 54.4382 67.472C53.5902 68.016 52.5822 68.288 51.4142 68.288C49.6382 68.288 48.2542 67.696 47.2622 66.512C46.2702 65.328 45.7742 63.72 45.7742 61.688C45.7742 60.376 45.9982 59.224 46.4462 58.232C46.8942 57.224 47.5422 56.448 48.3902 55.904C49.2382 55.344 50.2542 55.064 51.4382 55.064ZM51.4382 56.84C49.2462 56.84 48.1502 58.456 48.1502 61.688C48.1502 64.904 49.2382 66.512 51.4142 66.512C53.5902 66.512 54.6782 64.896 54.6782 61.664C54.6782 58.448 53.5982 56.84 51.4382 56.84ZM70.1819 66.224H72.1019V71.6H70.3019L69.9419 68H60.7019V55.352H62.9099V66.2H67.9739V55.352H70.1819V66.224ZM84.0586 61.304C84.0586 61.672 84.0426 62.048 84.0106 62.432H75.9466C76.0426 63.824 76.3946 64.848 77.0026 65.504C77.6106 66.16 78.3946 66.488 79.3546 66.488C79.9626 66.488 80.5226 66.4 81.0346 66.224C81.5466 66.048 82.0826 65.768 82.6426 65.384L83.6026 66.704C82.2586 67.76 80.7866 68.288 79.1866 68.288C77.4266 68.288 76.0506 67.712 75.0586 66.56C74.0826 65.408 73.5946 63.824 73.5946 61.808C73.5946 60.496 73.8026 59.336 74.2186 58.328C74.6506 57.304 75.2586 56.504 76.0426 55.928C76.8426 55.352 77.7786 55.064 78.8506 55.064C80.5306 55.064 81.8186 55.616 82.7146 56.72C83.6106 57.824 84.0586 59.352 84.0586 61.304ZM81.8746 60.656C81.8746 59.408 81.6266 58.456 81.1306 57.8C80.6346 57.144 79.8906 56.816 78.8986 56.816C77.0906 56.816 76.1066 58.144 75.9466 60.8H81.8746V60.656ZM92.1927 55.064C92.9447 55.064 93.6327 55.176 94.2567 55.4C94.8807 55.608 95.4807 55.952 96.0567 56.432L95.0007 57.824C94.5527 57.504 94.1127 57.272 93.6807 57.128C93.2647 56.968 92.8007 56.888 92.2887 56.888C91.2647 56.888 90.4647 57.296 89.8887 58.112C89.3287 58.928 89.0487 60.136 89.0487 61.736C89.0487 63.336 89.3287 64.52 89.8887 65.288C90.4487 66.04 91.2487 66.416 92.2887 66.416C92.7847 66.416 93.2407 66.344 93.6567 66.2C94.0727 66.04 94.5367 65.792 95.0487 65.456L96.0567 66.896C94.9047 67.824 93.6167 68.288 92.1927 68.288C90.4807 68.288 89.1287 67.712 88.1367 66.56C87.1607 65.408 86.6727 63.816 86.6727 61.784C86.6727 60.44 86.8967 59.264 87.3447 58.256C87.7927 57.248 88.4247 56.464 89.2407 55.904C90.0727 55.344 91.0567 55.064 92.1927 55.064ZM103.185 55.064C103.937 55.064 104.625 55.176 105.249 55.4C105.873 55.608 106.473 55.952 107.049 56.432L105.993 57.824C105.545 57.504 105.105 57.272 104.673 57.128C104.257 56.968 103.793 56.888 103.281 56.888C102.257 56.888 101.457 57.296 100.881 58.112C100.321 58.928 100.041 60.136 100.041 61.736C100.041 63.336 100.321 64.52 100.881 65.288C101.441 66.04 102.241 66.416 103.281 66.416C103.777 66.416 104.233 66.344 104.649 66.2C105.065 66.04 105.529 65.792 106.041 65.456L107.049 66.896C105.897 67.824 104.609 68.288 103.185 68.288C101.473 68.288 100.121 67.712 99.1289 66.56C98.1529 65.408 97.6649 63.816 97.6649 61.784C97.6649 60.44 97.8889 59.264 98.3369 58.256C98.7849 57.248 99.4169 56.464 100.233 55.904C101.065 55.344 102.049 55.064 103.185 55.064ZM113.686 59.432C115.574 59.432 116.942 59.8 117.79 60.536C118.638 61.272 119.062 62.32 119.062 63.68C119.062 65.104 118.582 66.184 117.622 66.92C116.678 67.64 115.502 68 114.094 68H110.038V55.352H112.246V59.432H113.686ZM120.886 55.352H123.094V68H120.886V55.352ZM113.902 66.272C114.798 66.272 115.486 66.072 115.966 65.672C116.462 65.272 116.71 64.608 116.71 63.68C116.71 62.8 116.478 62.152 116.014 61.736C115.566 61.32 114.782 61.112 113.662 61.112H112.246V66.272H113.902Z" fill="#202020"/>
  <path d="M57 211L58.2944 217.028C59.1205 220.875 62.1253 223.88 65.972 224.706L72 226L65.972 227.294C62.1253 228.12 59.1205 231.125 58.2944 234.972L57 241L55.7056 234.972C54.8795 231.125 51.8747 228.12 48.028 227.294L42 226L48.028 224.706C51.8747 223.88 54.8795 220.875 55.7056 217.028L57 211Z" fill="#ABABAB"/>
  <path d="M184 347L184.764 350.558C185.59 354.405 188.595 357.41 192.442 358.236L196 359L192.442 359.764C188.595 360.59 185.59 363.595 184.764 367.442L184 371L183.236 367.442C182.41 363.595 179.405 360.59 175.558 359.764L172 359L175.558 358.236C179.405 357.41 182.41 354.405 183.236 350.558L184 347Z" fill="#ABABAB"/>
  <path d="M145 254L145.764 257.558C146.59 261.405 149.595 264.41 153.442 265.236L157 266L153.442 266.764C149.595 267.59 146.59 270.595 145.764 274.442L145 278L144.236 274.442C143.41 270.595 140.405 267.59 136.558 266.764L133 266L136.558 265.236C140.405 264.41 143.41 261.405 144.236 257.558L145 254Z" fill="#ABABAB"/>
  <path d="M305 406L305.764 409.558C306.59 413.405 309.595 416.41 313.442 417.236L317 418L313.442 418.764C309.595 419.59 306.59 422.595 305.764 426.442L305 430L304.236 426.442C303.41 422.595 300.405 419.59 296.558 418.764L293 418L296.558 417.236C300.405 416.41 303.41 413.405 304.236 409.558L305 406Z" fill="#ABABAB"/>
  <path d="M185 460L185.764 463.558C186.59 467.405 189.595 470.41 193.442 471.236L197 472L193.442 472.764C189.595 473.59 186.59 476.595 185.764 480.442L185 484L184.236 480.442C183.41 476.595 180.405 473.59 176.558 472.764L173 472L176.558 471.236C180.405 470.41 183.41 467.405 184.236 463.558L185 460Z" fill="#ABABAB"/>
  <path d="M62 333L64.3551 343.967C65.1811 347.814 68.186 350.819 72.0327 351.645L83 354L72.0327 356.355C68.186 357.181 65.1811 360.186 64.3551 364.033L62 375L59.6449 364.033C58.8189 360.186 55.814 357.181 51.9673 356.355L41 354L51.9673 351.645C55.814 350.819 58.8189 347.814 59.6449 343.967L62 333Z" fill="#ABABAB"/>
  <path d="M112 120L114.355 130.967C115.181 134.814 118.186 137.819 122.033 138.645L133 141L122.033 143.355C118.186 144.181 115.181 147.186 114.355 151.033L112 162L109.645 151.033C108.819 147.186 105.814 144.181 101.967 143.355L91 141L101.967 138.645C105.814 137.819 108.819 134.814 109.645 130.967L112 120Z" fill="#ABABAB"/>
  <path d="M330 197C330.753 200.507 333.493 203.247 337 204C333.493 204.753 330.753 207.493 330 211C329.247 207.493 326.507 204.753 323 204C326.507 203.247 329.247 200.507 330 197Z" fill="#ABABAB"/>
  <path d="M92 513C92.7531 516.507 95.4928 519.247 99 520C95.4928 520.753 92.7531 523.493 92 527C91.2469 523.493 88.5072 520.753 85 520C88.5072 519.247 91.2469 516.507 92 513Z" fill="#ABABAB"/>
  <path d="M308 513C308.753 516.507 311.493 519.247 315 520C311.493 520.753 308.753 523.493 308 527C307.247 523.493 304.507 520.753 301 520C304.507 519.247 307.247 516.507 308 513Z" fill="#ABABAB"/>
  <path d="M89 430C89.7531 433.507 92.4928 436.247 96 437C92.4928 437.753 89.7531 440.493 89 444C88.2469 440.493 85.5072 437.753 82 437C85.5072 436.247 88.2469 433.507 89 430Z" fill="#ABABAB"/>
  <path d="M264 258L265.294 264.028C266.12 267.875 269.125 270.88 272.972 271.706L279 273L272.972 274.294C269.125 275.12 266.12 278.125 265.294 281.972L264 288L262.706 281.972C261.88 278.125 258.875 275.12 255.028 274.294L249 273L255.028 271.706C258.875 270.88 261.88 267.875 262.706 264.028L264 258Z" fill="#ABABAB"/>
  <path d="M297 98L300.416 113.907C301.242 117.753 304.247 120.758 308.093 121.584L324 125L308.093 128.416C304.247 129.242 301.242 132.247 300.416 136.093L297 152L293.584 136.093C292.758 132.247 289.753 129.242 285.907 128.416L270 125L285.907 121.584C289.753 120.758 292.758 117.753 293.584 113.907L297 98Z" fill="#ABABAB"/>
  <path d="M262.695 125.719C263.092 125.335 263.102 124.702 262.718 124.305L256.462 117.835C256.078 117.438 255.445 117.427 255.048 117.811C254.651 118.195 254.64 118.828 255.024 119.225L260.585 124.976L254.834 130.538C254.437 130.921 254.427 131.555 254.811 131.952C255.195 132.349 255.828 132.359 256.225 131.975L262.695 125.719ZM184.817 341.5C184.819 303.663 181.996 249.314 190.332 204.558C194.498 182.188 201.433 162.346 212.807 148.205C224.141 134.114 239.922 125.63 261.983 126L262.016 124C239.329 123.62 222.964 132.386 211.249 146.951C199.574 161.467 192.557 181.687 188.366 204.192C179.985 249.187 182.819 303.837 182.817 341.5L184.817 341.5Z" fill="#C8C8C8"/>
  <path d="M264.707 290.293C264.317 289.902 263.683 289.902 263.293 290.293L256.929 296.657C256.538 297.047 256.538 297.681 256.929 298.071C257.319 298.462 257.953 298.462 258.343 298.071L264 292.414L269.657 298.071C270.047 298.462 270.681 298.462 271.071 298.071C271.462 297.681 271.462 297.047 271.071 296.657L264.707 290.293ZM90 427.5C90 425.334 90.6173 423.609 91.7474 422.19C92.8918 420.754 94.6118 419.571 96.9095 418.598C101.531 416.64 108.221 415.641 116.425 414.973C132.718 413.647 154.744 413.651 176.684 409.545C198.666 405.432 220.78 397.166 237.391 379.17C254.014 361.162 265 333.549 265 291H263C263 333.201 252.111 360.275 235.921 377.814C219.72 395.366 198.084 403.506 176.316 407.58C154.506 411.661 132.782 411.635 116.263 412.98C108.06 413.648 101.078 414.66 96.1296 416.756C93.6421 417.809 91.6023 419.163 90.1832 420.944C88.7499 422.743 88 424.916 88 427.5L90 427.5Z" fill="#C8C8C8"/>
  <path d="M308.707 510.707C308.317 511.098 307.683 511.098 307.293 510.707L300.929 504.343C300.538 503.953 300.538 503.32 300.929 502.929C301.32 502.538 301.953 502.538 302.343 502.929L308 508.586L313.657 502.929C314.047 502.538 314.681 502.538 315.071 502.929C315.462 503.319 315.462 503.953 315.071 504.343L308.707 510.707ZM98.7074 435.963C174.428 435.963 226.909 438.715 260.466 449.278C277.269 454.567 289.431 461.844 297.384 471.808C305.348 481.785 309 494.34 309 510L307 510C307 494.66 303.428 482.586 295.821 473.056C288.204 463.512 276.449 456.406 259.866 451.186C226.652 440.73 174.487 437.963 98.7074 437.963L98.7074 435.963Z" fill="#C8C8C8"/>
  <path d="M64.7908 233.022C64.2507 233.137 63.9065 233.669 64.022 234.209L65.9043 243.01C66.0198 243.55 66.5512 243.894 67.0913 243.778C67.6314 243.663 67.9755 243.131 67.86 242.591L66.1869 234.768L74.01 233.095C74.5501 232.98 74.8943 232.448 74.7788 231.908C74.6633 231.368 74.1318 231.024 73.5918 231.139L64.7908 233.022ZM177.588 349.503C160.417 348.145 148.184 342.382 138.648 334.007C129.085 325.607 122.184 314.538 115.759 302.468C102.962 278.429 92.0719 250.341 65.5435 233.16L64.4563 234.839C90.4281 251.659 101.038 279.071 113.993 303.407C120.444 315.525 127.483 326.862 137.328 335.509C147.201 344.181 159.846 350.106 177.43 351.497L177.588 349.503Z" fill="#C8C8C8"/>
</svg>
