<svg width="586" height="502" viewBox="0 0 586 502" fill="none" xmlns="http://www.w3.org/2000/svg">
  <path d="M1.77699 382.023C1.77699 382.023 13.7503 357.591 40.9038 350.315C63.1201 344.363 79.2101 361.274 99.8184 355.752C123.484 349.411 144.87 321.042 142.506 312.221C137.459 293.385 115.748 371.906 106.3 416.65C95.8063 466.351 160.409 496.879 195.031 487.602C221.262 480.574 294.611 460.92 313.466 455.868C341.52 448.351 389.313 394.133 349.749 353.489C325.306 328.378 229.194 245.511 225.7 232.471C222.983 222.329 169.357 22.1969 169.357 22.1969C169.357 22.1969 166.829 12.761 176.285 5.21281C176.604 4.95866 176.77 4.52654 176.555 4.18075C170.61 -5.36279 90.6515 16.7636 89.6808 27.4195C89.6419 27.8469 90.036 28.1471 90.4636 28.1836C104.631 29.3931 107.168 38.8604 107.168 38.8604C107.168 38.8604 160.923 239.475 163.511 249.135C166.746 261.209 133.87 363.495 120.496 409.74C107.122 455.986 161.627 480.618 191.047 472.735C220.467 464.852 283.079 448.075 309.482 441C335.885 433.926 363.902 394.731 345.645 369.082C340.586 361.975 315.638 334.676 302.302 323.238C273.402 298.45 137.041 347.849 141.959 366.202C146.876 384.554 309.383 346.652 291.799 334.281C274.216 321.91 251.532 357.002 269.431 416.938C289.597 484.469 343.804 512.908 413.35 494.273C482.897 475.638 512.612 410.735 497.872 355.728C485.934 311.178 445.823 279.313 389.873 274.725C381.707 274.055 376.41 271.673 374.579 264.839L361.172 214.806C360.712 208.209 364.542 204.52 371.11 199.746C371.446 199.502 371.611 199.045 371.319 198.749C365.718 193.08 302.257 208.976 301.454 217.552C301.42 217.917 301.726 218.196 302.083 218.282C309.172 219.986 313.707 221.351 317.085 226.62L330.491 276.652C331.823 281.622 329.855 289.181 322.81 292.694C288.172 309.966 262.219 347.8 272.675 394.275C275.598 405.181 283.27 409.977 293.096 410.597C366.931 415.26 431.256 304.161 471.695 335.307C483.61 344.484 490.813 362.225 490.263 387.219C489.283 431.768 451.74 471.405 410.503 483.648C369.267 495.891 319.265 488.942 289.648 436.368C280.501 420.13 261.523 387.428 285.214 375.386C324.85 355.239 382.673 363.766 413.592 363.246C444.511 362.726 469.294 351.72 483.154 339.43C500.72 323.853 514.68 323.789 533.476 324.393C554.489 325.069 569.07 327.797 584.636 308.615" stroke="#2B2B2B" stroke-width="3"/>
</svg>
