<svg width="499" height="428" viewBox="0 0 499 428" fill="none" xmlns="http://www.w3.org/2000/svg">
  <path d="M122.984 153.909C101.081 133.691 99.2353 88.7228 95.8655 81.4024C92.4958 74.082 89.4505 67.5358 84.7399 66.0579C80.0292 64.58 76.0609 70.2797 75.0049 74.7792C73.6142 80.7052 72.6851 93.9492 79.1771 102.318C81.6108 105.455 83.8502 99.7462 84.7399 94.6489C87.1736 80.7053 83.1078 64.8496 79.1771 66.413C75.2463 67.9763 72.2235 72.8711 72.2235 78.2651C72.2235 100.226 71.8073 111.73 75.0049 128.462C78.2026 145.194 84.3922 145.543 95.8655 195.391M319.537 427C284.557 331.64 240.633 316.071 245.714 302.408C253.363 281.841 277.7 251.166 279.091 256.394C280.482 261.623 274.224 276.612 269.356 282.19C265.675 286.408 239.572 287.535 220.334 288.813C201.096 290.091 189.738 289.51 161.924 287.419C150.238 286.54 145.587 275.276 136.196 268.246C128.407 262.416 120.118 264.196 114.292 256.394C109.841 250.432 111.837 244.861 108.382 238.268C103.284 228.54 87.2965 224.328 90.6504 213.867C93.7795 204.106 94.5504 188.914 104.905 174.476C115.702 159.421 127.02 155.759 142.454 145.543C155.921 136.629 180.741 122.187 188.348 120.444C195.954 118.702 201.433 121.457 202.602 128.114C203.337 132.297 199.821 137.177 191.477 143.103C183.133 149.029 167.623 150.308 170.964 139.617C173.99 129.934 185.566 122.378 194.954 123.233C206.427 124.279 208.123 135.329 199.156 143.8C182.64 159.402 154.275 170.293 132.372 202.015C127.152 209.574 123.332 231.645 120.551 222.581C114.923 204.245 174.715 175.664 220.334 141.36C227.288 136.131 248.703 144.497 232.155 163.67C227.465 169.104 207.859 173.742 208.861 160.184C209.556 150.772 220.908 144.846 229.6 143.103C240.03 141.011 243.976 157.284 237.37 163.67C227.491 173.22 201.559 196.088 183.48 209.683C166.444 222.494 150.572 256.277 146.279 252.211C140.021 246.285 169.493 233.067 197.387 213.867C220.338 198.069 232.85 181.099 242.933 181.099C253.016 181.099 251.277 188.42 250.234 192.254C248.51 198.592 244.127 203.005 238.066 205.5C229.6 208.986 224.037 199.212 227.983 193.997C236.159 183.191 246.961 181.083 253.363 188.42C258.231 193.997 252.32 201.666 247.453 207.592C223.523 236.726 194.083 253.628 181.394 274.869C173.398 288.256 216.839 284.911 230.417 296.482C243.994 308.053 261.012 319.837 265.879 319.837C273.88 319.837 289.869 298.922 298.213 285.676C304.124 276.293 308.644 258.99 304.124 249.423C299.604 239.856 275.726 221.719 264.141 200.62C255.899 185.61 258.231 177.613 248.148 162.624C238.066 147.635 197.737 111.032 193.216 106.152C185.567 97.8959 168.185 98.4821 158.101 92.9054C148.017 87.3287 56.5277 19.8821 55.978 16.0242C55.2827 11.1436 64.6699 6.96045 62.9315 5.21756C61.4565 3.73866 20.515 5.91436 15.9951 5.91474C14.3402 5.91488 4.11164 16.0242 6.19768 16.0242C7.0885 16.0242 5.18597 16.407 14.6032 16.0242C17.0382 15.9252 32.6484 16.634 34.422 17.7668C35.8127 18.655 61.0389 45.5488 59.4548 46.0026C57.021 46.6997 38.0726 46.0026 36.5081 46.6997C34.9435 47.3969 7.85827 19.0706 8.55362 19.0706C9.24898 19.0706 17.7335 16.721 23.2964 16.0242C30.1372 15.1673 55.3082 14.4005 57.021 14.6295C62.3722 15.3448 243.171 213.518 245.02 214.215C246.362 214.72 256.84 204.803 255.103 203.409C253.366 202.014 242.934 212.124 241.196 212.82C239.457 213.517 178.962 203.078 175.484 202.015C170.925 200.62 3.19706 19.1611 2.07447 17.7668C0.95189 16.3725 12.8648 3.47489 14.6032 3.47489C16.3416 3.4749 60.8442 0.68643 64.321 2.77776C68.4894 5.28512 229.6 179.705 255.449 202.015C261.289 207.054 292.407 254.793 334.262 268.246C339.969 270.081 361.355 307.506 364.889 352.242C366.052 366.958 300.686 319.867 271.829 352.242C267.769 356.798 245.714 326.655 245.714 317.922C245.714 312.785 259.166 322.466 284.556 298.402C306.275 277.818 307.191 245.829 309.228 247.032C318.241 255.732 347.07 262.38 379.614 274.869C402.619 283.698 396.449 264.044 406.118 261.591C411.419 260.247 420.707 280.503 435.567 285.676C454.269 292.186 471.496 283.703 498 291.024" stroke="#2B2B2B" stroke-width="3"/>
</svg>
