<svg width="189" height="185" viewBox="0 0 189 185" fill="none" xmlns="http://www.w3.org/2000/svg">
  <path d="M1 56.7139C24.4336 42.5451 46.4996 74.5805 62.3069 68.3801C66.3896 66.7787 74.0146 50.1236 69.7829 48.2289C64.9329 46.0572 65.9544 62.6067 68.9011 70.4089C70.3971 74.3699 71.7463 80.0976 74.1432 84.5402C86.4521 107.354 154.193 118.056 174.034 87.9785C190.82 62.5322 186.482 26.1742 150.126 11.3452C138.163 6.46586 130.003 6.77792 116.987 7.41645C102.873 8.10883 87.0988 16.6103 85.5047 24.527M151.784 128.98C130.243 116.147 131.663 121.851 113.674 121.851C97.8142 121.138 98.0508 113.613 84.0846 113.058C60.0959 112.104 63.1795 124.451 68.9011 119.474C79.8305 109.968 74.1428 102.839 62.3069 114.959C54.0114 123.454 27.502 149.253 8.10169 170.093C3.89481 174.612 19.6339 184.648 19.9371 182.213C20.6472 176.509 5.49791 170.331 6.91816 174.608C9.24445 181.615 18.5161 186.253 21.2821 182.87C22.6812 181.159 73.3103 120.816 75.5149 117.372C77.7195 113.928 78.4481 110.122 75.5149 105.453C65.8099 90.0059 63.9648 89.5308 59.2306 72.4203C54.2537 54.4322 57.4624 36.6118 68.9011 22.7522C90.4761 -3.38892 122.432 -1.01248 144.919 4.69112C167.153 10.3305 188 30.5946 188 54.3592C188 73.6142 182.082 95.2344 159.122 106.404C134.22 118.517 97.3801 113.166 78.6407 98.0861C64.1581 86.4319 55.9817 50.3192 68.9011 30.1193C77.858 16.1148 97.545 6.58566 113.91 5.27763C129.059 4.06676 153.913 15.0363 138.764 11.3452C123.615 7.65409 118.17 18.0672 110.832 20.4097C103.495 22.7522 98.7105 31.1195 103.021 29.0422C109.537 25.902 116.227 20.1857 118.407 18.5106C122.431 15.419 114.291 15.1718 111.779 15.0211C98.7283 14.2385 93.1473 19.4983 85.5047 24.527M85.5047 24.527C83.3251 30.0698 81.9275 36.4544 73.8243 38.6667C71.9243 39.1854 75.8479 30.8809 85.5047 24.527Z" stroke="#1F1F1F" stroke-width="2"/>
</svg>
