<svg width="284" height="390" viewBox="0 0 284 390" fill="none" xmlns="http://www.w3.org/2000/svg">
  <g opacity="0.4">
    <circle cx="378.5" cy="162.5" r="227" stroke="url(#paint0_linear_11_7)"/>
    <circle cx="378.5" cy="162.5" r="227" stroke="url(#paint1_linear_11_7)"/>
    <path d="M182.196 63.7098V63.8434H181.951V64.3308H181.795V63.8434H181V63.7237L181.555 62.4483L181.688 62.504L181.169 63.7098H181.795L181.814 63.1668H181.951V63.7098H182.196Z" fill="#363636"/>
    <path d="M182.958 62.479V64.3308H182.799V62.6572L182.351 62.9412L182.278 62.8215L182.821 62.479H182.958Z" fill="#363636"/>
    <path d="M183.57 64.0968C183.608 64.0968 183.639 64.1098 183.663 64.1358C183.688 64.16 183.701 64.1906 183.701 64.2277C183.701 64.2667 183.688 64.2992 183.663 64.3252C183.639 64.3493 183.608 64.3614 183.57 64.3614C183.534 64.3614 183.503 64.3484 183.477 64.3224C183.452 64.2964 183.439 64.2649 183.439 64.2277C183.439 64.1906 183.452 64.16 183.477 64.1358C183.503 64.1098 183.534 64.0968 183.57 64.0968Z" fill="#363636"/>
    <path d="M184.775 63.3506C184.915 63.4081 185.017 63.4759 185.081 63.5538C185.146 63.63 185.179 63.7283 185.179 63.849C185.179 63.9511 185.154 64.0412 185.103 64.1191C185.053 64.1952 184.983 64.2546 184.892 64.2973C184.803 64.34 184.7 64.3614 184.584 64.3614C184.467 64.3614 184.364 64.34 184.275 64.2973C184.187 64.2546 184.119 64.1952 184.07 64.1191C184.023 64.0412 183.999 63.952 183.999 63.8518C183.999 63.6142 184.129 63.4425 184.39 63.3366C184.282 63.2865 184.203 63.229 184.152 63.164C184.103 63.0972 184.078 63.0127 184.078 62.9106C184.078 62.8159 184.102 62.7333 184.149 62.6627C184.197 62.5922 184.259 62.5393 184.338 62.504C184.416 62.4669 184.5 62.4483 184.589 62.4483C184.678 62.4483 184.762 62.466 184.84 62.5012C184.919 62.5365 184.982 62.5885 185.029 62.6572C185.078 62.7259 185.103 62.8094 185.103 62.9078C185.103 63.0043 185.076 63.0879 185.023 63.1584C184.971 63.2271 184.888 63.2912 184.775 63.3506ZM184.237 62.9134C184.237 63.0025 184.261 63.073 184.31 63.125C184.361 63.177 184.449 63.2262 184.573 63.2726L184.657 63.3032C184.759 63.2475 184.832 63.19 184.876 63.1306C184.921 63.0712 184.944 62.9988 184.944 62.9134C184.944 62.8075 184.911 62.7249 184.846 62.6655C184.782 62.6061 184.697 62.5764 184.589 62.5764C184.485 62.5764 184.401 62.6061 184.335 62.6655C184.269 62.7249 184.237 62.8075 184.237 62.9134ZM184.586 64.2249C184.716 64.2249 184.819 64.1925 184.895 64.1275C184.973 64.0606 185.012 63.9678 185.012 63.849C185.012 63.7748 184.999 63.7135 184.971 63.6652C184.944 63.6151 184.902 63.5724 184.846 63.5371C184.789 63.5 184.71 63.4619 184.608 63.423L184.515 63.3868C184.393 63.435 184.304 63.4972 184.248 63.5733C184.193 63.6476 184.166 63.7404 184.166 63.8518C184.166 63.9706 184.204 64.0625 184.28 64.1275C184.357 64.1925 184.459 64.2249 184.586 64.2249Z" fill="#363636"/>
    <path d="M186.276 64.3308V64.1887H187.245V64.3308H186.276ZM186.836 62.8883V63.3116H187.245V63.4508H186.836V63.8741H186.685V63.4508H186.276V63.3116H186.685V62.8883H186.836Z" fill="#363636"/>
    <path d="M188.948 62.4483C189.136 62.4483 189.278 62.53 189.375 62.6934C189.471 62.8549 189.519 63.0925 189.519 63.4062C189.519 63.7181 189.47 63.9558 189.372 64.1191C189.275 64.2806 189.134 64.3614 188.948 64.3614C188.761 64.3614 188.619 64.2806 188.522 64.1191C188.426 63.9558 188.378 63.7172 188.378 63.4035C188.378 63.0897 188.426 62.8521 188.522 62.6906C188.619 62.5291 188.761 62.4483 188.948 62.4483ZM188.948 62.582C188.677 62.582 188.541 62.8558 188.541 63.4035C188.541 63.953 188.677 64.2277 188.948 64.2277C189.081 64.2277 189.182 64.1609 189.249 64.0272C189.318 63.8936 189.353 63.6866 189.353 63.4062C189.353 63.1259 189.318 62.9189 189.249 62.7853C189.182 62.6498 189.081 62.582 188.948 62.582Z" fill="#363636"/>
    <path d="M189.981 64.0968C190.019 64.0968 190.05 64.1098 190.073 64.1358C190.099 64.16 190.112 64.1906 190.112 64.2277C190.112 64.2667 190.099 64.2992 190.073 64.3252C190.05 64.3493 190.019 64.3614 189.981 64.3614C189.944 64.3614 189.913 64.3484 189.888 64.3224C189.862 64.2964 189.849 64.2649 189.849 64.2277C189.849 64.1906 189.862 64.16 189.888 64.1358C189.913 64.1098 189.944 64.0968 189.981 64.0968Z" fill="#363636"/>
    <path d="M190.879 62.4483C190.981 62.4483 191.069 62.4687 191.144 62.5096C191.221 62.5504 191.279 62.6061 191.319 62.6767C191.359 62.7454 191.379 62.8233 191.379 62.9106C191.379 63.0312 191.345 63.1296 191.278 63.2058C191.212 63.28 191.127 63.3264 191.021 63.345C191.14 63.3506 191.237 63.3942 191.313 63.4759C191.392 63.5557 191.431 63.6662 191.431 63.8072C191.431 63.9149 191.407 64.0105 191.36 64.0941C191.313 64.1776 191.244 64.2435 191.155 64.2918C191.068 64.3382 190.966 64.3614 190.852 64.3614C190.641 64.3614 190.467 64.2816 190.33 64.1219L190.431 64.03C190.493 64.0987 190.557 64.1488 190.622 64.1804C190.69 64.2101 190.764 64.2249 190.846 64.2249C190.977 64.2249 191.08 64.1869 191.155 64.1108C191.23 64.0347 191.267 63.9344 191.267 63.81C191.267 63.5501 191.13 63.4202 190.857 63.4202H190.737L190.759 63.2893H190.846C190.95 63.2893 191.038 63.2577 191.111 63.1946C191.184 63.1296 191.221 63.0377 191.221 62.9189C191.221 62.8168 191.189 62.7361 191.125 62.6767C191.061 62.6154 190.977 62.5848 190.871 62.5848C190.794 62.5848 190.724 62.5987 190.661 62.6265C190.597 62.6525 190.532 62.6962 190.467 62.7574L190.382 62.6572C190.455 62.5866 190.531 62.5347 190.611 62.5012C190.692 62.466 190.781 62.4483 190.879 62.4483Z" fill="#363636"/>
    <path d="M193.304 62.3926C193.408 62.3926 193.495 62.4075 193.566 62.4372C193.639 62.465 193.712 62.5087 193.785 62.5681L193.697 62.6795C193.633 62.6275 193.572 62.5903 193.514 62.5681C193.456 62.5458 193.389 62.5347 193.315 62.5347C193.138 62.5347 192.994 62.6033 192.883 62.7407C192.774 62.8781 192.719 63.0897 192.719 63.3756C192.719 63.5613 192.745 63.7172 192.796 63.8434C192.847 63.9697 192.916 64.0634 193.003 64.1247C193.093 64.1841 193.194 64.2138 193.307 64.2138C193.396 64.2138 193.471 64.2008 193.533 64.1748C193.595 64.147 193.658 64.1071 193.722 64.0551L193.806 64.1637C193.67 64.2955 193.501 64.3614 193.301 64.3614C193.155 64.3614 193.025 64.3233 192.91 64.2472C192.798 64.1711 192.708 64.0597 192.643 63.9131C192.579 63.7645 192.547 63.5854 192.547 63.3756C192.547 63.1658 192.581 62.9876 192.648 62.841C192.716 62.6925 192.806 62.5811 192.919 62.5068C193.033 62.4307 193.162 62.3926 193.304 62.3926Z" fill="#363636"/>
    <path d="M194.923 63.3199C195.051 63.3348 195.154 63.3812 195.235 63.4592C195.315 63.5353 195.355 63.6494 195.355 63.8017C195.355 63.9799 195.296 64.1126 195.177 64.1999C195.059 64.2871 194.894 64.3308 194.683 64.3308H194.172V62.4233H194.59C194.807 62.4233 194.973 62.4632 195.09 62.543C195.208 62.6228 195.267 62.7416 195.267 62.8994C195.267 63.0164 195.236 63.1111 195.172 63.1835C195.11 63.2559 195.027 63.3014 194.923 63.3199ZM194.336 62.5625V63.2614H194.713C194.829 63.2614 194.923 63.2308 194.994 63.1696C195.065 63.1064 195.101 63.0201 195.101 62.9106C195.101 62.7862 195.059 62.6971 194.975 62.6433C194.893 62.5894 194.77 62.5625 194.606 62.5625H194.336ZM194.683 64.1915C195.018 64.1915 195.185 64.0616 195.185 63.8017C195.185 63.6643 195.144 63.5622 195.06 63.4954C194.978 63.4285 194.869 63.3951 194.732 63.3951H194.336V64.1915H194.683Z" fill="#363636"/>
    <path d="M195.783 64.0968C195.821 64.0968 195.852 64.1098 195.876 64.1358C195.901 64.16 195.914 64.1906 195.914 64.2277C195.914 64.2667 195.901 64.2992 195.876 64.3252C195.852 64.3493 195.821 64.3614 195.783 64.3614C195.746 64.3614 195.715 64.3484 195.69 64.3224C195.664 64.2964 195.652 64.2649 195.652 64.2277C195.652 64.1906 195.664 64.16 195.69 64.1358C195.715 64.1098 195.746 64.0968 195.783 64.0968Z" fill="#363636"/>
    <path d="M198.19 62.4233L198.166 62.5709H197.297V64.3308H197.133V62.4233H198.19Z" fill="#363636"/>
    <path d="M198.997 62.3926C199.15 62.3926 199.284 62.4307 199.398 62.5068C199.513 62.5811 199.602 62.6925 199.666 62.841C199.73 62.9895 199.762 63.1686 199.762 63.3784C199.762 63.5845 199.73 63.7618 199.666 63.9103C199.604 64.0569 199.516 64.1692 199.401 64.2472C199.286 64.3233 199.152 64.3614 198.997 64.3614C198.846 64.3614 198.713 64.3233 198.598 64.2472C198.483 64.1711 198.394 64.0597 198.33 63.9131C198.267 63.7664 198.235 63.5891 198.235 63.3812C198.235 63.1751 198.267 62.9978 198.33 62.8493C198.394 62.7008 198.483 62.5876 198.598 62.5096C198.715 62.4316 198.847 62.3926 198.997 62.3926ZM198.997 62.5347C198.815 62.5347 198.671 62.6061 198.565 62.7491C198.46 62.8902 198.407 63.1009 198.407 63.3812C198.407 63.6578 198.46 63.8666 198.565 64.0077C198.673 64.1488 198.817 64.2194 198.997 64.2194C199.184 64.2194 199.33 64.1498 199.434 64.0105C199.538 63.8694 199.59 63.6587 199.59 63.3784C199.59 63.0962 199.537 62.8855 199.431 62.7463C199.327 62.6052 199.183 62.5347 198.997 62.5347Z" fill="#363636"/>
    <path d="M201.392 64.1887V64.7345H201.266L201.233 64.3308H200.056L200.023 64.7345H199.897V64.1887H200.018C200.063 64.1423 200.099 64.0857 200.127 64.0189C200.156 63.952 200.183 63.8518 200.209 63.7181C200.234 63.5826 200.263 63.3868 200.296 63.1306L200.381 62.4233H201.255V64.1887H201.392ZM201.091 62.5653H200.526L200.457 63.1334C200.428 63.3803 200.401 63.5705 200.375 63.7042C200.35 63.8379 200.321 63.9409 200.288 64.0133C200.257 64.0838 200.215 64.1423 200.162 64.1887H201.091V62.5653Z" fill="#363636"/>
    <path d="M202.882 64.3308L202.718 63.81H201.931L201.767 64.3308H201.601L202.226 62.4233H202.431L203.054 64.3308H202.882ZM201.978 63.668H202.674L202.327 62.5597L201.978 63.668Z" fill="#363636"/>
    <path d="M203.839 62.0668C203.743 62.2135 203.665 62.3444 203.607 62.4595C203.549 62.5727 203.501 62.7027 203.465 62.8493C203.43 62.996 203.413 63.1649 203.413 63.3561C203.413 63.5473 203.43 63.7163 203.465 63.8629C203.501 64.0096 203.549 64.1405 203.607 64.2556C203.665 64.3688 203.743 64.4988 203.839 64.6454L203.738 64.7123C203.625 64.5507 203.536 64.4124 203.47 64.2973C203.407 64.1822 203.354 64.0476 203.312 63.8936C203.27 63.7395 203.249 63.5603 203.249 63.3561C203.249 63.1519 203.27 62.9728 203.312 62.8187C203.354 62.6646 203.407 62.53 203.47 62.4149C203.536 62.2998 203.625 62.1615 203.738 62L203.839 62.0668Z" fill="#363636"/>
    <path d="M204.732 62.479V64.3308H204.573V62.6572L204.125 62.9412L204.051 62.8215L204.595 62.479H204.732Z" fill="#363636"/>
    <path d="M205.677 62.4483C205.83 62.4483 205.951 62.4938 206.04 62.5848C206.131 62.6757 206.177 62.7927 206.177 62.9356C206.177 63.0563 206.152 63.1696 206.103 63.2754C206.054 63.3812 205.977 63.4972 205.871 63.6235C205.767 63.7497 205.599 63.9381 205.366 64.1887H206.226L206.204 64.3308H205.18V64.1943C205.429 63.9233 205.608 63.7228 205.715 63.5928C205.825 63.461 205.901 63.3478 205.945 63.2531C205.99 63.1566 206.013 63.0535 206.013 62.944C206.013 62.8345 205.981 62.7472 205.917 62.6822C205.856 62.6173 205.773 62.5848 205.669 62.5848C205.585 62.5848 205.51 62.6024 205.445 62.6377C205.381 62.673 205.32 62.7259 205.262 62.7964L205.153 62.7129C205.225 62.6219 205.304 62.5551 205.387 62.5124C205.473 62.4697 205.57 62.4483 205.677 62.4483Z" fill="#363636"/>
    <path d="M206.651 64.0968C206.689 64.0968 206.72 64.1098 206.744 64.1358C206.769 64.16 206.782 64.1906 206.782 64.2277C206.782 64.2667 206.769 64.2992 206.744 64.3252C206.72 64.3493 206.689 64.3614 206.651 64.3614C206.615 64.3614 206.584 64.3484 206.558 64.3224C206.533 64.2964 206.52 64.2649 206.52 64.2277C206.52 64.1906 206.533 64.16 206.558 64.1358C206.584 64.1098 206.615 64.0968 206.651 64.0968Z" fill="#363636"/>
    <path d="M207.856 63.3506C207.996 63.4081 208.098 63.4759 208.162 63.5538C208.227 63.63 208.26 63.7283 208.26 63.849C208.26 63.9511 208.235 64.0412 208.184 64.1191C208.134 64.1952 208.064 64.2546 207.973 64.2973C207.884 64.34 207.781 64.3614 207.665 64.3614C207.548 64.3614 207.445 64.34 207.356 64.2973C207.268 64.2546 207.2 64.1952 207.151 64.1191C207.104 64.0412 207.08 63.952 207.08 63.8518C207.08 63.6142 207.21 63.4425 207.471 63.3366C207.363 63.2865 207.284 63.229 207.233 63.164C207.184 63.0972 207.159 63.0127 207.159 62.9106C207.159 62.8159 207.183 62.7333 207.23 62.6627C207.278 62.5922 207.34 62.5393 207.419 62.504C207.497 62.4669 207.581 62.4483 207.67 62.4483C207.759 62.4483 207.843 62.466 207.921 62.5012C208 62.5365 208.062 62.5885 208.11 62.6572C208.159 62.7259 208.184 62.8094 208.184 62.9078C208.184 63.0043 208.157 63.0879 208.104 63.1584C208.052 63.2271 207.969 63.2912 207.856 63.3506ZM207.318 62.9134C207.318 63.0025 207.342 63.073 207.391 63.125C207.442 63.177 207.53 63.2262 207.654 63.2726L207.738 63.3032C207.84 63.2475 207.913 63.19 207.957 63.1306C208.002 63.0712 208.025 62.9988 208.025 62.9134C208.025 62.8075 207.992 62.7249 207.927 62.6655C207.863 62.6061 207.777 62.5764 207.67 62.5764C207.566 62.5764 207.481 62.6061 207.416 62.6655C207.35 62.7249 207.318 62.8075 207.318 62.9134ZM207.667 64.2249C207.797 64.2249 207.899 64.1925 207.976 64.1275C208.054 64.0606 208.093 63.9678 208.093 63.849C208.093 63.7748 208.08 63.7135 208.052 63.6652C208.025 63.6151 207.983 63.5724 207.927 63.5371C207.87 63.5 207.791 63.4619 207.689 63.423L207.596 63.3868C207.474 63.435 207.385 63.4972 207.329 63.5733C207.274 63.6476 207.247 63.7404 207.247 63.8518C207.247 63.9706 207.285 64.0625 207.361 64.1275C207.438 64.1925 207.54 64.2249 207.667 64.2249Z" fill="#363636"/>
    <path d="M209.009 62.4483C209.111 62.4483 209.199 62.4687 209.274 62.5096C209.35 62.5504 209.408 62.6061 209.449 62.6767C209.489 62.7454 209.509 62.8233 209.509 62.9106C209.509 63.0312 209.475 63.1296 209.408 63.2058C209.342 63.28 209.256 63.3264 209.151 63.345C209.269 63.3506 209.367 63.3942 209.443 63.4759C209.521 63.5557 209.561 63.6662 209.561 63.8072C209.561 63.9149 209.537 64.0105 209.49 64.0941C209.442 64.1776 209.374 64.2435 209.285 64.2918C209.197 64.3382 209.096 64.3614 208.981 64.3614C208.77 64.3614 208.596 64.2816 208.46 64.1219L208.561 64.03C208.623 64.0987 208.686 64.1488 208.752 64.1804C208.819 64.2101 208.894 64.2249 208.976 64.2249C209.107 64.2249 209.21 64.1869 209.285 64.1108C209.359 64.0347 209.397 63.9344 209.397 63.81C209.397 63.5501 209.26 63.4202 208.987 63.4202H208.867L208.889 63.2893H208.976C209.08 63.2893 209.168 63.2577 209.241 63.1946C209.314 63.1296 209.35 63.0377 209.35 62.9189C209.35 62.8168 209.318 62.7361 209.255 62.6767C209.191 62.6154 209.106 62.5848 209.001 62.5848C208.924 62.5848 208.854 62.5987 208.79 62.6265C208.726 62.6525 208.662 62.6962 208.596 62.7574L208.512 62.6572C208.584 62.5866 208.661 62.5347 208.741 62.5012C208.821 62.466 208.91 62.4483 209.009 62.4483Z" fill="#363636"/>
    <path d="M210.685 64.3308V64.1887H211.655V64.3308H210.685ZM211.245 62.8883V63.3116H211.655V63.4508H211.245V63.8741H211.095V63.4508H210.685V63.3116H211.095V62.8883H211.245Z" fill="#363636"/>
    <path d="M213.358 62.4483C213.545 62.4483 213.688 62.53 213.784 62.6934C213.881 62.8549 213.929 63.0925 213.929 63.4062C213.929 63.7181 213.88 63.9558 213.781 64.1191C213.685 64.2806 213.544 64.3614 213.358 64.3614C213.17 64.3614 213.028 64.2806 212.932 64.1191C212.835 63.9558 212.787 63.7172 212.787 63.4035C212.787 63.0897 212.835 62.8521 212.932 62.6906C213.028 62.5291 213.17 62.4483 213.358 62.4483ZM213.358 62.582C213.087 62.582 212.951 62.8558 212.951 63.4035C212.951 63.953 213.087 64.2277 213.358 64.2277C213.491 64.2277 213.591 64.1609 213.658 64.0272C213.728 63.8936 213.762 63.6866 213.762 63.4062C213.762 63.1259 213.728 62.9189 213.658 62.7853C213.591 62.6498 213.491 62.582 213.358 62.582Z" fill="#363636"/>
    <path d="M214.39 64.0968C214.428 64.0968 214.459 64.1098 214.483 64.1358C214.508 64.16 214.521 64.1906 214.521 64.2277C214.521 64.2667 214.508 64.2992 214.483 64.3252C214.459 64.3493 214.428 64.3614 214.39 64.3614C214.354 64.3614 214.323 64.3484 214.297 64.3224C214.272 64.2964 214.259 64.2649 214.259 64.2277C214.259 64.1906 214.272 64.16 214.297 64.1358C214.323 64.1098 214.354 64.0968 214.39 64.0968Z" fill="#363636"/>
    <path d="M215.396 62.4483C215.584 62.4483 215.726 62.53 215.822 62.6934C215.919 62.8549 215.967 63.0925 215.967 63.4062C215.967 63.7181 215.918 63.9558 215.819 64.1191C215.723 64.2806 215.582 64.3614 215.396 64.3614C215.208 64.3614 215.066 64.2806 214.97 64.1191C214.873 63.9558 214.825 63.7172 214.825 63.4035C214.825 63.0897 214.873 62.8521 214.97 62.6906C215.066 62.5291 215.208 62.4483 215.396 62.4483ZM215.396 62.582C215.125 62.582 214.989 62.8558 214.989 63.4035C214.989 63.953 215.125 64.2277 215.396 64.2277C215.529 64.2277 215.629 64.1609 215.697 64.0272C215.766 63.8936 215.8 63.6866 215.8 63.4062C215.8 63.1259 215.766 62.9189 215.697 62.7853C215.629 62.6498 215.529 62.582 215.396 62.582Z" fill="#363636"/>
    <path d="M216.817 62.4483C217.001 62.4483 217.138 62.5142 217.229 62.646C217.322 62.776 217.368 62.9588 217.368 63.1946C217.368 63.4341 217.335 63.63 217.267 63.7822C217.2 63.9344 217.101 64.056 216.97 64.147C216.84 64.2379 216.669 64.3168 216.456 64.3837L216.415 64.2584C216.666 64.1804 216.858 64.0736 216.989 63.9381C217.122 63.8026 217.195 63.617 217.207 63.3812C217.153 63.4629 217.087 63.5269 217.011 63.5733C216.934 63.6179 216.85 63.6402 216.759 63.6402C216.665 63.6402 216.58 63.617 216.505 63.5705C216.431 63.5223 216.371 63.4545 216.328 63.3673C216.286 63.2782 216.265 63.1742 216.265 63.0554C216.265 62.9329 216.288 62.8261 216.336 62.7351C216.385 62.6423 216.451 62.5718 216.535 62.5235C216.619 62.4734 216.713 62.4483 216.817 62.4483ZM216.787 63.5065C216.872 63.5065 216.949 63.4833 217.016 63.4369C217.085 63.3886 217.149 63.319 217.207 63.228C217.209 63.0071 217.179 62.8447 217.117 62.7407C217.055 62.6349 216.957 62.582 216.822 62.582C216.7 62.582 216.604 62.6238 216.533 62.7073C216.463 62.789 216.429 62.9059 216.429 63.0582C216.429 63.2011 216.461 63.3116 216.524 63.3895C216.59 63.4675 216.677 63.5065 216.787 63.5065Z" fill="#363636"/>
    <path d="M219.81 62.4233V64.3308H219.646V62.5681H218.764V64.3308H218.6V62.4233H219.81Z" fill="#363636"/>
    <path d="M221.564 62.4233L221.015 63.3199L221.611 64.3308H221.422L220.876 63.3951H220.581V64.3308H220.417V62.4233H220.581V63.2559H220.878L221.392 62.4233H221.564Z" fill="#363636"/>
    <path d="M221.893 62C222.006 62.1615 222.095 62.2998 222.158 62.4149C222.224 62.53 222.278 62.6646 222.32 62.8187C222.361 62.9728 222.382 63.1519 222.382 63.3561C222.382 63.5603 222.361 63.7395 222.32 63.8936C222.278 64.0476 222.224 64.1822 222.158 64.2973C222.095 64.4124 222.006 64.5507 221.893 64.7123L221.792 64.6454C221.889 64.4988 221.966 64.3688 222.025 64.2556C222.083 64.1405 222.129 64.0096 222.164 63.8629C222.2 63.7163 222.218 63.5473 222.218 63.3561C222.218 63.1649 222.2 62.996 222.164 62.8493C222.129 62.7027 222.083 62.5727 222.025 62.4595C221.966 62.3444 221.889 62.2135 221.792 62.0668L221.893 62Z" fill="#363636"/>
    <path d="M222.812 64.0968C222.85 64.0968 222.881 64.1098 222.905 64.1358C222.93 64.16 222.943 64.1906 222.943 64.2277C222.943 64.2686 222.929 64.3196 222.902 64.3809L222.749 64.7512H222.634L222.744 64.3419C222.724 64.3308 222.708 64.315 222.697 64.2946C222.686 64.2741 222.681 64.2519 222.681 64.2277C222.681 64.1906 222.694 64.16 222.719 64.1358C222.744 64.1098 222.775 64.0968 222.812 64.0968ZM222.812 63.0108C222.85 63.0108 222.881 63.0238 222.905 63.0498C222.93 63.0739 222.943 63.1046 222.943 63.1417C222.943 63.1807 222.93 63.2132 222.905 63.2392C222.881 63.2633 222.85 63.2754 222.812 63.2754C222.775 63.2754 222.744 63.2624 222.719 63.2364C222.694 63.2104 222.681 63.1788 222.681 63.1417C222.681 63.1046 222.694 63.0739 222.719 63.0498C222.744 63.0238 222.775 63.0108 222.812 63.0108Z" fill="#363636"/>
    <path d="M224.326 62.4233V64.3308H224.162V62.4233H224.326ZM225.307 62.4233L224.531 63.3004L225.353 64.3308H225.154L224.337 63.3088L225.118 62.4233H225.307Z" fill="#363636"/>
    <path d="M225.968 62.4483C226.121 62.4483 226.242 62.4938 226.331 62.5848C226.422 62.6757 226.467 62.7927 226.467 62.9356C226.467 63.0563 226.443 63.1696 226.394 63.2754C226.345 63.3812 226.267 63.4972 226.162 63.6235C226.058 63.7497 225.889 63.9381 225.656 64.1887H226.517L226.495 64.3308H225.47V64.1943C225.72 63.9233 225.898 63.7228 226.006 63.5928C226.115 63.461 226.192 63.3478 226.235 63.2531C226.281 63.1566 226.304 63.0535 226.304 62.944C226.304 62.8345 226.272 62.7472 226.208 62.6822C226.146 62.6173 226.063 62.5848 225.959 62.5848C225.876 62.5848 225.801 62.6024 225.735 62.6377C225.672 62.673 225.611 62.7259 225.552 62.7964L225.443 62.7129C225.516 62.6219 225.594 62.5551 225.678 62.5124C225.764 62.4697 225.86 62.4483 225.968 62.4483Z" fill="#363636"/>
    <path d="M226.941 64.0968C226.98 64.0968 227.011 64.1098 227.034 64.1358C227.06 64.16 227.073 64.1906 227.073 64.2277C227.073 64.2667 227.06 64.2992 227.034 64.3252C227.011 64.3493 226.98 64.3614 226.941 64.3614C226.905 64.3614 226.874 64.3484 226.849 64.3224C226.823 64.2964 226.81 64.2649 226.81 64.2277C226.81 64.1906 226.823 64.16 226.849 64.1358C226.874 64.1098 226.905 64.0968 226.941 64.0968Z" fill="#363636"/>
    <path d="M228.359 62.6126H227.621V63.2447C227.721 63.1872 227.825 63.1584 227.933 63.1584C228.089 63.1584 228.213 63.2104 228.304 63.3144C228.397 63.4165 228.443 63.5566 228.443 63.7348C228.443 63.8555 228.419 63.9641 228.37 64.0606C228.322 64.1553 228.254 64.2296 228.165 64.2834C228.077 64.3354 227.975 64.3614 227.859 64.3614C227.657 64.3614 227.485 64.2871 227.345 64.1386L227.444 64.0412C227.502 64.1043 227.564 64.1507 227.629 64.1804C227.695 64.2101 227.771 64.2249 227.859 64.2249C227.988 64.2249 228.09 64.1813 228.165 64.0941C228.239 64.005 228.277 63.8843 228.277 63.7321C228.277 63.5835 228.242 63.4731 228.173 63.4007C228.106 63.3264 228.014 63.2893 227.897 63.2893C227.839 63.2893 227.787 63.2967 227.741 63.3116C227.698 63.3246 227.648 63.3468 227.594 63.3784H227.468V62.479H228.383L228.359 62.6126Z" fill="#363636"/>
    <path d="M229.949 62.4233L229.339 64.3308H229.156L228.545 62.4233H228.722L229.249 64.1581L229.779 62.4233H229.949Z" fill="#363636"/>
    <path d="M230.247 64.0968C230.285 64.0968 230.316 64.1098 230.34 64.1358C230.365 64.16 230.378 64.1906 230.378 64.2277C230.378 64.2686 230.364 64.3196 230.337 64.3809L230.184 64.7512H230.069L230.178 64.3419C230.158 64.3308 230.143 64.315 230.132 64.2946C230.121 64.2741 230.116 64.2519 230.116 64.2277C230.116 64.1906 230.128 64.16 230.154 64.1358C230.179 64.1098 230.21 64.0968 230.247 64.0968ZM230.247 63.0108C230.285 63.0108 230.316 63.0238 230.34 63.0498C230.365 63.0739 230.378 63.1046 230.378 63.1417C230.378 63.1807 230.365 63.2132 230.34 63.2392C230.316 63.2633 230.285 63.2754 230.247 63.2754C230.21 63.2754 230.179 63.2624 230.154 63.2364C230.128 63.2104 230.116 63.1788 230.116 63.1417C230.116 63.1046 230.128 63.0739 230.154 63.0498C230.179 63.0238 230.21 63.0108 230.247 63.0108Z" fill="#363636"/>
    <path d="M231.482 63.4787V63.3366H232.452V63.4787H231.482Z" fill="#363636"/>
    <path d="M233.392 62.4483C233.58 62.4483 233.722 62.53 233.818 62.6934C233.915 62.8549 233.963 63.0925 233.963 63.4062C233.963 63.7181 233.914 63.9558 233.816 64.1191C233.719 64.2806 233.578 64.3614 233.392 64.3614C233.205 64.3614 233.063 64.2806 232.966 64.1191C232.87 63.9558 232.821 63.7172 232.821 63.4035C232.821 63.0897 232.87 62.8521 232.966 62.6906C233.063 62.5291 233.205 62.4483 233.392 62.4483ZM233.392 62.582C233.121 62.582 232.985 62.8558 232.985 63.4035C232.985 63.953 233.121 64.2277 233.392 64.2277C233.525 64.2277 233.625 64.1609 233.693 64.0272C233.762 63.8936 233.797 63.6866 233.797 63.4062C233.797 63.1259 233.762 62.9189 233.693 62.7853C233.625 62.6498 233.525 62.582 233.392 62.582Z" fill="#363636"/>
    <path d="M234.424 64.0968C234.463 64.0968 234.494 64.1098 234.517 64.1358C234.543 64.16 234.555 64.1906 234.555 64.2277C234.555 64.2667 234.543 64.2992 234.517 64.3252C234.494 64.3493 234.463 64.3614 234.424 64.3614C234.388 64.3614 234.357 64.3484 234.331 64.3224C234.306 64.2964 234.293 64.2649 234.293 64.2277C234.293 64.1906 234.306 64.16 234.331 64.1358C234.357 64.1098 234.388 64.0968 234.424 64.0968Z" fill="#363636"/>
    <path d="M235.323 62.4483C235.425 62.4483 235.513 62.4687 235.588 62.5096C235.664 62.5504 235.723 62.6061 235.763 62.6767C235.803 62.7454 235.823 62.8233 235.823 62.9106C235.823 63.0312 235.789 63.1296 235.722 63.2058C235.656 63.28 235.571 63.3264 235.465 63.345C235.583 63.3506 235.681 63.3942 235.757 63.4759C235.836 63.5557 235.875 63.6662 235.875 63.8072C235.875 63.9149 235.851 64.0105 235.804 64.0941C235.756 64.1776 235.688 64.2435 235.599 64.2918C235.511 64.3382 235.41 64.3614 235.296 64.3614C235.084 64.3614 234.91 64.2816 234.774 64.1219L234.875 64.03C234.937 64.0987 235.001 64.1488 235.066 64.1804C235.134 64.2101 235.208 64.2249 235.29 64.2249C235.421 64.2249 235.524 64.1869 235.599 64.1108C235.674 64.0347 235.711 63.9344 235.711 63.81C235.711 63.5501 235.574 63.4202 235.301 63.4202H235.181L235.203 63.2893H235.29C235.394 63.2893 235.482 63.2577 235.555 63.1946C235.628 63.1296 235.664 63.0377 235.664 62.9189C235.664 62.8168 235.633 62.7361 235.569 62.6767C235.505 62.6154 235.42 62.5848 235.315 62.5848C235.238 62.5848 235.168 62.5987 235.104 62.6265C235.041 62.6525 234.976 62.6962 234.91 62.7574L234.826 62.6572C234.899 62.5866 234.975 62.5347 235.055 62.5012C235.135 62.466 235.225 62.4483 235.323 62.4483Z" fill="#363636"/>
    <path d="M236.768 62.479V64.3308H236.61V62.6572L236.162 62.9412L236.088 62.8215L236.631 62.479H236.768Z" fill="#363636"/>
    <path d="M238.05 64.3308V64.1887H239.02V64.3308H238.05ZM238.61 62.8883V63.3116H239.02V63.4508H238.61V63.8741H238.46V63.4508H238.05V63.3116H238.46V62.8883H238.61Z" fill="#363636"/>
    <path d="M240.723 62.4483C240.911 62.4483 241.053 62.53 241.149 62.6934C241.246 62.8549 241.294 63.0925 241.294 63.4062C241.294 63.7181 241.245 63.9558 241.147 64.1191C241.05 64.2806 240.909 64.3614 240.723 64.3614C240.536 64.3614 240.394 64.2806 240.297 64.1191C240.2 63.9558 240.152 63.7172 240.152 63.4035C240.152 63.0897 240.2 62.8521 240.297 62.6906C240.394 62.5291 240.536 62.4483 240.723 62.4483ZM240.723 62.582C240.452 62.582 240.316 62.8558 240.316 63.4035C240.316 63.953 240.452 64.2277 240.723 64.2277C240.856 64.2277 240.956 64.1609 241.024 64.0272C241.093 63.8936 241.127 63.6866 241.127 63.4062C241.127 63.1259 241.093 62.9189 241.024 62.7853C240.956 62.6498 240.856 62.582 240.723 62.582Z" fill="#363636"/>
    <path d="M241.755 64.0968C241.793 64.0968 241.824 64.1098 241.848 64.1358C241.874 64.16 241.886 64.1906 241.886 64.2277C241.886 64.2667 241.874 64.2992 241.848 64.3252C241.824 64.3493 241.793 64.3614 241.755 64.3614C241.719 64.3614 241.688 64.3484 241.662 64.3224C241.637 64.2964 241.624 64.2649 241.624 64.2277C241.624 64.1906 241.637 64.16 241.662 64.1358C241.688 64.1098 241.719 64.0968 241.755 64.0968Z" fill="#363636"/>
    <path d="M242.761 62.4483C242.949 62.4483 243.091 62.53 243.187 62.6934C243.284 62.8549 243.332 63.0925 243.332 63.4062C243.332 63.7181 243.283 63.9558 243.185 64.1191C243.088 64.2806 242.947 64.3614 242.761 64.3614C242.574 64.3614 242.432 64.2806 242.335 64.1191C242.239 63.9558 242.19 63.7172 242.19 63.4035C242.19 63.0897 242.239 62.8521 242.335 62.6906C242.432 62.5291 242.574 62.4483 242.761 62.4483ZM242.761 62.582C242.49 62.582 242.354 62.8558 242.354 63.4035C242.354 63.953 242.49 64.2277 242.761 64.2277C242.894 64.2277 242.994 64.1609 243.062 64.0272C243.131 63.8936 243.166 63.6866 243.166 63.4062C243.166 63.1259 243.131 62.9189 243.062 62.7853C242.994 62.6498 242.894 62.582 242.761 62.582Z" fill="#363636"/>
    <path d="M244.089 62.4483C244.191 62.4483 244.279 62.4687 244.354 62.5096C244.43 62.5504 244.489 62.6061 244.529 62.6767C244.569 62.7454 244.589 62.8233 244.589 62.9106C244.589 63.0312 244.555 63.1296 244.488 63.2058C244.422 63.28 244.337 63.3264 244.231 63.345C244.349 63.3506 244.447 63.3942 244.523 63.4759C244.602 63.5557 244.641 63.6662 244.641 63.8072C244.641 63.9149 244.617 64.0105 244.57 64.0941C244.522 64.1776 244.454 64.2435 244.365 64.2918C244.277 64.3382 244.176 64.3614 244.062 64.3614C243.85 64.3614 243.676 64.2816 243.54 64.1219L243.641 64.03C243.703 64.0987 243.767 64.1488 243.832 64.1804C243.9 64.2101 243.974 64.2249 244.056 64.2249C244.187 64.2249 244.29 64.1869 244.365 64.1108C244.44 64.0347 244.477 63.9344 244.477 63.81C244.477 63.5501 244.34 63.4202 244.067 63.4202H243.947L243.969 63.2893H244.056C244.16 63.2893 244.248 63.2577 244.321 63.1946C244.394 63.1296 244.43 63.0377 244.43 62.9189C244.43 62.8168 244.399 62.7361 244.335 62.6767C244.271 62.6154 244.186 62.5848 244.081 62.5848C244.004 62.5848 243.934 62.5987 243.87 62.6265C243.807 62.6525 243.742 62.6962 243.676 62.7574L243.592 62.6572C243.665 62.5866 243.741 62.5347 243.821 62.5012C243.901 62.466 243.991 62.4483 244.089 62.4483Z" fill="#363636"/>
    <path d="M245.095 64.0968C245.133 64.0968 245.164 64.1098 245.188 64.1358C245.214 64.16 245.226 64.1906 245.226 64.2277C245.226 64.2686 245.213 64.3196 245.185 64.3809L245.032 64.7512H244.918L245.027 64.3419C245.007 64.3308 244.991 64.315 244.98 64.2946C244.969 64.2741 244.964 64.2519 244.964 64.2277C244.964 64.1906 244.977 64.16 245.002 64.1358C245.028 64.1098 245.059 64.0968 245.095 64.0968ZM245.095 63.0108C245.133 63.0108 245.164 63.0238 245.188 63.0498C245.214 63.0739 245.226 63.1046 245.226 63.1417C245.226 63.1807 245.214 63.2132 245.188 63.2392C245.164 63.2633 245.133 63.2754 245.095 63.2754C245.059 63.2754 245.028 63.2624 245.002 63.2364C244.977 63.2104 244.964 63.1788 244.964 63.1417C244.964 63.1046 244.977 63.0739 245.002 63.0498C245.028 63.0238 245.059 63.0108 245.095 63.0108Z" fill="#363636"/>
    <path d="M246.94 62.479V64.3308H246.782V62.6572L246.334 62.9412L246.26 62.8215L246.803 62.479H246.94Z" fill="#363636"/>
    <path d="M247.552 64.0968C247.59 64.0968 247.621 64.1098 247.645 64.1358C247.67 64.16 247.683 64.1906 247.683 64.2277C247.683 64.2667 247.67 64.2992 247.645 64.3252C247.621 64.3493 247.59 64.3614 247.552 64.3614C247.516 64.3614 247.485 64.3484 247.459 64.3224C247.434 64.2964 247.421 64.2649 247.421 64.2277C247.421 64.1906 247.434 64.16 247.459 64.1358C247.485 64.1098 247.516 64.0968 247.552 64.0968Z" fill="#363636"/>
    <path d="M248.451 62.4483C248.604 62.4483 248.725 62.4938 248.814 62.5848C248.905 62.6757 248.951 62.7927 248.951 62.9356C248.951 63.0563 248.926 63.1696 248.877 63.2754C248.828 63.3812 248.751 63.4972 248.645 63.6235C248.541 63.7497 248.373 63.9381 248.14 64.1887H249L248.978 64.3308H247.954V64.1943C248.203 63.9233 248.382 63.7228 248.489 63.5928C248.598 63.461 248.675 63.3478 248.719 63.2531C248.764 63.1566 248.787 63.0535 248.787 62.944C248.787 62.8345 248.755 62.7472 248.691 62.6822C248.629 62.6173 248.547 62.5848 248.443 62.5848C248.359 62.5848 248.284 62.6024 248.219 62.6377C248.155 62.673 248.094 62.7259 248.036 62.7964L247.926 62.7129C247.999 62.6219 248.078 62.5551 248.161 62.5124C248.247 62.4697 248.343 62.4483 248.451 62.4483Z" fill="#363636"/>
    <path d="M181.615 65.3156C181.518 65.4623 181.441 65.5931 181.382 65.7082C181.324 65.8215 181.277 65.9514 181.24 66.0981C181.206 66.2447 181.188 66.4137 181.188 66.6049C181.188 66.7961 181.206 66.965 181.24 67.1117C181.277 67.2584 181.324 67.3892 181.382 67.5043C181.441 67.6176 181.518 67.7475 181.615 67.8942L181.514 67.961C181.401 67.7995 181.311 67.6612 181.246 67.5461C181.182 67.431 181.129 67.2964 181.087 67.1423C181.046 66.9882 181.025 66.8091 181.025 66.6049C181.025 66.4007 181.046 66.2215 181.087 66.0675C181.129 65.9134 181.182 65.7788 181.246 65.6637C181.311 65.5486 181.401 65.4103 181.514 65.2488L181.615 65.3156Z" fill="#363636"/>
    <path d="M181.995 66.0675L182.946 66.5381V66.6884L181.995 67.1646L181.938 67.0309L182.804 66.6132L181.938 66.2039L181.995 66.0675ZM181.951 67.5795V67.4375H182.921V67.5795H181.951Z" fill="#363636"/>
    <path d="M184.635 65.6971C184.822 65.6971 184.964 65.7788 185.061 65.9421C185.157 66.1037 185.206 66.3413 185.206 66.655C185.206 66.9669 185.157 67.2045 185.058 67.3679C184.962 67.5294 184.821 67.6101 184.635 67.6101C184.447 67.6101 184.305 67.5294 184.209 67.3679C184.112 67.2045 184.064 66.966 184.064 66.6522C184.064 66.3385 184.112 66.1009 184.209 65.9394C184.305 65.7778 184.447 65.6971 184.635 65.6971ZM184.635 65.8308C184.363 65.8308 184.228 66.1046 184.228 66.6522C184.228 67.2017 184.363 67.4765 184.635 67.4765C184.768 67.4765 184.868 67.4097 184.935 67.276C185.004 67.1423 185.039 66.9353 185.039 66.655C185.039 66.3747 185.004 66.1677 184.935 66.034C184.868 65.8985 184.768 65.8308 184.635 65.8308Z" fill="#363636"/>
    <path d="M185.667 67.3456C185.705 67.3456 185.736 67.3586 185.76 67.3846C185.785 67.4087 185.798 67.4394 185.798 67.4765C185.798 67.5155 185.785 67.548 185.76 67.5739C185.736 67.5981 185.705 67.6101 185.667 67.6101C185.63 67.6101 185.599 67.5972 185.574 67.5712C185.548 67.5452 185.536 67.5136 185.536 67.4765C185.536 67.4394 185.548 67.4087 185.574 67.3846C185.599 67.3586 185.63 67.3456 185.667 67.3456Z" fill="#363636"/>
    <path d="M186.566 65.6971C186.719 65.6971 186.84 65.7426 186.929 65.8335C187.02 65.9245 187.066 66.0415 187.066 66.1844C187.066 66.3051 187.041 66.4183 186.992 66.5241C186.943 66.63 186.865 66.746 186.76 66.8722C186.656 66.9985 186.487 67.1869 186.254 67.4375H187.115L187.093 67.5795H186.068V67.4431C186.318 67.172 186.496 66.9715 186.604 66.8416C186.713 66.7098 186.79 66.5965 186.833 66.5019C186.879 66.4053 186.902 66.3023 186.902 66.1928C186.902 66.0832 186.87 65.996 186.806 65.931C186.744 65.866 186.661 65.8335 186.557 65.8335C186.474 65.8335 186.399 65.8512 186.333 65.8864C186.27 65.9217 186.209 65.9746 186.15 66.0452L186.041 65.9616C186.114 65.8707 186.192 65.8038 186.276 65.7611C186.362 65.7184 186.458 65.6971 186.566 65.6971Z" fill="#363636"/>
    <path d="M187.507 65.2488C187.62 65.4103 187.708 65.5486 187.772 65.6637C187.837 65.7788 187.891 65.9134 187.933 66.0675C187.975 66.2215 187.996 66.4007 187.996 66.6049C187.996 66.8091 187.975 66.9882 187.933 67.1423C187.891 67.2964 187.837 67.431 187.772 67.5461C187.708 67.6612 187.62 67.7995 187.507 67.961L187.406 67.8942C187.502 67.7475 187.58 67.6176 187.638 67.5043C187.696 67.3892 187.743 67.2584 187.777 67.1117C187.814 66.965 187.832 66.7961 187.832 66.6049C187.832 66.4137 187.814 66.2447 187.777 66.0981C187.743 65.9514 187.696 65.8215 187.638 65.7082C187.58 65.5931 187.502 65.4623 187.406 65.3156L187.507 65.2488Z" fill="#363636"/>
    <path d="M190.822 67.5795H190.663L190.579 66.6662C190.544 66.3116 190.52 66.035 190.508 65.8363L190.038 67.354H189.882L189.396 65.8363C189.387 66.0164 189.369 66.255 189.341 66.552L189.333 66.6606L189.251 67.5795H189.095L189.273 65.672H189.5L189.964 67.1562L190.412 65.672H190.641L190.822 67.5795Z" fill="#363636"/>
    <path d="M192.473 65.672V67.5795H192.309V65.8168H191.629L191.517 66.7469C191.492 66.9734 191.466 67.1395 191.441 67.2454C191.415 67.3493 191.38 67.4273 191.334 67.4793C191.29 67.5312 191.222 67.573 191.129 67.6046L191.088 67.4709C191.15 67.4468 191.196 67.4143 191.225 67.3735C191.254 67.3308 191.276 67.2686 191.29 67.1869C191.307 67.1052 191.328 66.9604 191.353 66.7525L191.484 65.672H192.473Z" fill="#363636"/>
    <path d="M193.521 65.672C193.743 65.672 193.913 65.7194 194.032 65.814C194.152 65.9069 194.212 66.0498 194.212 66.2429C194.212 66.4471 194.149 66.5975 194.023 66.694C193.899 66.7887 193.729 66.836 193.513 66.836H193.245V67.5795H193.081V65.672H193.521ZM193.513 66.6996C193.682 66.6996 193.812 66.6652 193.903 66.5965C193.994 66.5278 194.04 66.4109 194.04 66.2457C194.04 66.0897 193.995 65.9783 193.906 65.9115C193.818 65.8428 193.689 65.8085 193.518 65.8085H193.245V66.6996H193.513Z" fill="#363636"/>
    <path d="M195.669 67.4375V67.9833H195.544L195.511 67.5795H194.334L194.301 67.9833H194.175V67.4375H194.295C194.341 67.3911 194.377 67.3345 194.405 67.2676C194.434 67.2008 194.461 67.1006 194.487 66.9669C194.512 66.8314 194.541 66.6355 194.574 66.3793L194.659 65.672H195.533V67.4375H195.669ZM195.369 65.814H194.803L194.735 66.3821C194.706 66.629 194.679 66.8193 194.653 66.953C194.628 67.0866 194.599 67.1897 194.566 67.2621C194.535 67.3326 194.493 67.3911 194.44 67.4375H195.369V65.814Z" fill="#363636"/>
    <path d="M196.122 67.3456C196.16 67.3456 196.191 67.3586 196.214 67.3846C196.24 67.4087 196.253 67.4394 196.253 67.4765C196.253 67.5155 196.24 67.548 196.214 67.5739C196.191 67.5981 196.16 67.6101 196.122 67.6101C196.085 67.6101 196.054 67.5972 196.029 67.5712C196.003 67.5452 195.99 67.5136 195.99 67.4765C195.99 67.4394 196.003 67.4087 196.029 67.3846C196.054 67.3586 196.085 67.3456 196.122 67.3456Z" fill="#363636"/>
    <path d="M198.633 65.672V67.5795H198.469V65.8168H197.789L197.677 66.7469C197.651 66.9734 197.626 67.1395 197.6 67.2454C197.575 67.3493 197.539 67.4273 197.494 67.4793C197.45 67.5312 197.382 67.573 197.289 67.6046L197.248 67.4709C197.31 67.4468 197.355 67.4143 197.385 67.3735C197.414 67.3308 197.436 67.2686 197.45 67.1869C197.466 67.1052 197.487 66.9604 197.513 66.7525L197.644 65.672H198.633Z" fill="#363636"/>
    <path d="M200.191 65.672L200.172 65.8113H199.405V66.5213H200.068V66.6606H199.405V67.4403H200.21V67.5795H199.241V65.672H200.191Z" fill="#363636"/>
    <path d="M201.66 65.672L201.641 65.8196H201.092V67.5795H200.931V65.8196H200.376V65.672H201.66Z" fill="#363636"/>
    <path d="M201.86 67.3456C201.898 67.3456 201.929 67.3586 201.953 67.3846C201.978 67.4087 201.991 67.4394 201.991 67.4765C201.991 67.5173 201.977 67.5684 201.95 67.6296L201.797 68H201.682L201.791 67.5907C201.771 67.5795 201.756 67.5637 201.745 67.5433C201.734 67.5229 201.729 67.5006 201.729 67.4765C201.729 67.4394 201.741 67.4087 201.767 67.3846C201.792 67.3586 201.823 67.3456 201.86 67.3456ZM201.86 66.2596C201.898 66.2596 201.929 66.2726 201.953 66.2986C201.978 66.3227 201.991 66.3533 201.991 66.3905C201.991 66.4295 201.978 66.4619 201.953 66.4879C201.929 66.5121 201.898 66.5241 201.86 66.5241C201.823 66.5241 201.792 66.5111 201.767 66.4851C201.741 66.4592 201.729 66.4276 201.729 66.3905C201.729 66.3533 201.741 66.3227 201.767 66.2986C201.792 66.2726 201.823 66.2596 201.86 66.2596Z" fill="#363636"/>
    <path d="M204.226 66.9585V67.0922H203.98V67.5795H203.825V67.0922H203.03V66.9725L203.584 65.6971L203.718 65.7528L203.199 66.9585H203.825L203.844 66.4155H203.98V66.9585H204.226Z" fill="#363636"/>
    <path d="M204.964 65.6971C205.148 65.6971 205.285 65.763 205.377 65.8948C205.469 66.0248 205.516 66.2076 205.516 66.4434C205.516 66.6829 205.482 66.8787 205.415 67.0309C205.347 67.1832 205.248 67.3048 205.117 67.3957C204.988 67.4867 204.817 67.5656 204.603 67.6324L204.562 67.5071C204.814 67.4291 205.005 67.3224 205.136 67.1869C205.269 67.0514 205.342 66.8657 205.355 66.63C205.3 66.7116 205.234 66.7757 205.158 66.8221C205.082 66.8666 204.998 66.8889 204.907 66.8889C204.812 66.8889 204.727 66.8657 204.653 66.8193C204.578 66.771 204.519 66.7033 204.475 66.616C204.433 66.5269 204.412 66.423 204.412 66.3041C204.412 66.1816 204.436 66.0749 204.483 65.9839C204.532 65.8911 204.599 65.8205 204.683 65.7723C204.766 65.7222 204.86 65.6971 204.964 65.6971ZM204.934 66.7553C205.02 66.7553 205.096 66.7321 205.163 66.6856C205.233 66.6374 205.296 66.5678 205.355 66.4768C205.356 66.2559 205.326 66.0934 205.265 65.9895C205.203 65.8837 205.104 65.8308 204.969 65.8308C204.847 65.8308 204.751 65.8725 204.68 65.9561C204.611 66.0377 204.576 66.1547 204.576 66.3069C204.576 66.4499 204.608 66.5603 204.672 66.6383C204.737 66.7163 204.825 66.7553 204.934 66.7553Z" fill="#363636"/>
    <path d="M206.729 65.7277V65.853L206.013 67.6018L205.866 67.5517L206.565 65.8642H205.715V65.7277H206.729Z" fill="#363636"/>
    <path d="M207.921 65.7277V65.853L207.205 67.6018L207.058 67.5517L207.757 65.8642H206.908V65.7277H207.921Z" fill="#363636"/>
    <path d="M208.97 67.5795V67.4375H209.939V67.5795H208.97ZM209.53 66.1371V66.5603H209.939V66.6996H209.53V67.1228H209.379V66.6996H208.97V66.5603H209.379V66.1371H209.53Z" fill="#363636"/>
    <path d="M211.998 65.8614H211.26V66.4935C211.36 66.436 211.464 66.4072 211.572 66.4072C211.728 66.4072 211.852 66.4592 211.943 66.5631C212.036 66.6652 212.082 66.8054 212.082 66.9836C212.082 67.1043 212.058 67.2129 212.009 67.3094C211.961 67.4041 211.893 67.4783 211.804 67.5322C211.716 67.5842 211.614 67.6101 211.498 67.6101C211.296 67.6101 211.124 67.5359 210.984 67.3874L211.083 67.2899C211.141 67.353 211.203 67.3994 211.268 67.4291C211.334 67.4588 211.41 67.4737 211.498 67.4737C211.627 67.4737 211.729 67.4301 211.804 67.3428C211.878 67.2537 211.916 67.133 211.916 66.9808C211.916 66.8323 211.881 66.7218 211.812 66.6494C211.745 66.5752 211.653 66.5381 211.536 66.5381C211.478 66.5381 211.426 66.5455 211.38 66.5603C211.337 66.5733 211.287 66.5956 211.233 66.6272H211.107V65.7277H212.022L211.998 65.8614Z" fill="#363636"/>
    <path d="M212.879 65.6971C213.063 65.6971 213.201 65.763 213.292 65.8948C213.384 66.0248 213.431 66.2076 213.431 66.4434C213.431 66.6829 213.397 66.8787 213.33 67.0309C213.262 67.1832 213.163 67.3048 213.032 67.3957C212.903 67.4867 212.732 67.5656 212.519 67.6324L212.478 67.5071C212.729 67.4291 212.92 67.3224 213.051 67.1869C213.184 67.0514 213.257 66.8657 213.27 66.63C213.215 66.7116 213.15 66.7757 213.073 66.8221C212.997 66.8666 212.913 66.8889 212.822 66.8889C212.727 66.8889 212.642 66.8657 212.568 66.8193C212.493 66.771 212.434 66.7033 212.39 66.616C212.348 66.5269 212.327 66.423 212.327 66.3041C212.327 66.1816 212.351 66.0749 212.398 65.9839C212.447 65.8911 212.514 65.8205 212.598 65.7723C212.682 65.7222 212.775 65.6971 212.879 65.6971ZM212.849 66.7553C212.935 66.7553 213.011 66.7321 213.079 66.6856C213.148 66.6374 213.211 66.5678 213.27 66.4768C213.272 66.2559 213.242 66.0934 213.18 65.9895C213.118 65.8837 213.019 65.8308 212.885 65.8308C212.763 65.8308 212.666 65.8725 212.595 65.9561C212.526 66.0377 212.491 66.1547 212.491 66.3069C212.491 66.4499 212.523 66.5603 212.587 66.6383C212.652 66.7163 212.74 66.7553 212.849 66.7553Z" fill="#363636"/>
    <path d="M214.826 65.672V67.5795H214.663V65.672H214.826ZM215.807 65.672L215.031 66.5492L215.854 67.5795H215.654L214.837 66.5575L215.619 65.672H215.807Z" fill="#363636"/>
    <circle cx="177" cy="59" r="2" fill="#CD3232"/>
  </g>
  <path d="M11.9296 108.219C11.9296 108.219 36.2162 88.3384 60.668 104.71C67.9025 109.554 71.4869 115.599 79.6591 118.601C87.644 121.535 98.6687 116.94 105.815 112.25C108.431 110.534 110.776 103.267 103.78 101.392C94.8699 99.0049 83.2237 160.508 85.4738 165.733C87.4582 170.341 150.868 189.759 154.93 187.81C157.724 186.469 158.431 160.894 160.858 157.026C162.991 153.627 168.292 159.903 172.302 159.742C180.297 159.42 186.533 146.863 175.373 141.789C171.791 140.16 166.053 143.094 165.64 139.181C165.148 134.525 170.805 121.082 170.805 116.617C170.805 114.152 154.185 110.663 150.16 109.995C147.955 109.628 149.236 105.658 153.441 99.9969C159.891 91.3148 136.573 83.6024 136.573 96.5228C136.573 100.74 137.301 106.092 133.597 104.71C129.892 103.328 105.877 98.2846 102.094 95.5321C98.2889 92.7639 115.078 29.8154 121.442 27.8122C126.51 26.2172 187.548 42.0732 189.41 45.1763C190.899 47.6569 184.418 62.5404 184.418 69.0975C184.418 72.2979 184.538 72.7778 191.891 72.4627C209.255 71.7185 199.332 96.5229 189.41 88.3384C185.296 84.9452 182.961 81.5631 180.506 83.6981C174.031 89.3306 171.315 108.916 172.856 112.25C173.956 114.632 192.366 119.264 195.719 119.069C203.798 118.601 195.952 114.151 198.588 109.995C204.998 99.8885 215.078 103.618 215.952 114.633C216.409 120.382 207.766 118.601 213.715 124.587C216.576 127.466 239.868 129.511 242.093 132.889C244.325 136.279 227.416 204.377 222.097 207.515C214.711 211.871 82.4753 176.399 79.6591 169.349C76.332 161.02 104.741 25.5169 117.968 21.3627C131.195 17.2086 263.208 51.4946 262.089 60.804C261.123 68.8395 250.431 118.386 246.214 124.587C240.361 133.195 236.666 120.499 244.974 115.625C263.578 104.71 281.443 139.129 293.593 141.789C316.414 146.786 338.74 136.462 338.74 136.462" stroke="#1F1F1F" stroke-width="2"/>
  <defs>
    <linearGradient id="paint0_linear_11_7" x1="378.5" y1="-65" x2="378.5" y2="390" gradientUnits="userSpaceOnUse">
      <stop stop-color="#C0C0C0"/>
      <stop offset="1" stop-opacity="0"/>
    </linearGradient>
    <linearGradient id="paint1_linear_11_7" x1="177.354" y1="57.5346" x2="146.045" y2="151.688" gradientUnits="userSpaceOnUse">
      <stop stop-color="#C0C0C0" stop-opacity="0"/>
      <stop offset="0.0208432" stop-color="#FF0000"/>
      <stop offset="1" stop-opacity="0"/>
    </linearGradient>
  </defs>
</svg>
