<svg width="18" height="18" viewBox="0 0 18 18" fill="none" xmlns="http://www.w3.org/2000/svg">
    <path d="M1.35007 2.25C0.604401 2.25 0 2.8544 0 3.60007C0 4.34557 0.604401 4.95014 1.35007 4.95014H16.6499C17.3956 4.95014 18 4.34574 18 3.60007C18 2.8544 17.3956 2.25 16.6499 2.25H1.35007ZM1.35007 7.42495C0.604401 7.42495 0 8.02935 0 8.77502C0 9.52053 0.604401 10.1251 1.35007 10.1251H16.6499C17.3956 10.1251 18 9.52069 18 8.77502C18 8.02935 17.3956 7.42495 16.6499 7.42495H1.35007ZM1.35007 12.5999C0.604401 12.5999 0 13.2043 0 13.95C0 14.6955 0.604401 15.3 1.35007 15.3H16.6499C17.3956 15.3 18 14.6956 18 13.95C18 13.2043 17.3956 12.5999 16.6499 12.5999H1.35007Z" fill="white"/>
</svg>