<svg width="215" height="294" viewBox="0 0 215 294" fill="none" xmlns="http://www.w3.org/2000/svg">
  <g opacity="0.4">
    <circle cx="-49" cy="187" r="186.5" stroke="url(#paint0_linear_11_6)"/>
    <circle cx="-49" cy="187" r="186.5" stroke="url(#paint1_linear_11_6)"/>
    <path d="M139.558 151.04V152.368H139.428V151.168L139.061 151.372L139 151.286L139.446 151.04H139.558Z" fill="#363636"/>
    <path d="M140.912 151.923V152.019H140.711V152.368H140.583V152.019H139.931V151.933L140.386 151.018L140.495 151.058L140.069 151.923H140.583L140.599 151.533H140.711V151.923H140.912Z" fill="#363636"/>
    <path d="M141.838 151.04V151.13L141.251 152.384L141.13 152.348L141.704 151.138H141.007V151.04H141.838Z" fill="#363636"/>
    <path d="M143.161 151.018C143.315 151.018 143.431 151.077 143.51 151.194C143.59 151.31 143.629 151.48 143.629 151.705C143.629 151.929 143.589 152.099 143.508 152.216C143.429 152.332 143.313 152.39 143.161 152.39C143.007 152.39 142.89 152.332 142.811 152.216C142.732 152.099 142.692 151.928 142.692 151.703C142.692 151.478 142.732 151.308 142.811 151.192C142.89 151.076 143.007 151.018 143.161 151.018ZM143.161 151.114C142.938 151.114 142.827 151.31 142.827 151.703C142.827 152.097 142.938 152.294 143.161 152.294C143.27 152.294 143.352 152.246 143.407 152.15C143.464 152.055 143.492 151.906 143.492 151.705C143.492 151.504 143.464 151.356 143.407 151.26C143.352 151.162 143.27 151.114 143.161 151.114Z" fill="#363636"/>
    <path d="M144.326 151.018C144.477 151.018 144.59 151.065 144.665 151.16C144.741 151.253 144.779 151.384 144.779 151.553C144.779 151.725 144.752 151.866 144.696 151.975C144.641 152.084 144.56 152.171 144.452 152.236C144.346 152.302 144.205 152.358 144.031 152.406L143.997 152.316C144.203 152.26 144.36 152.184 144.468 152.087C144.577 151.989 144.637 151.856 144.647 151.687C144.602 151.746 144.548 151.792 144.486 151.825C144.423 151.857 144.354 151.873 144.279 151.873C144.202 151.873 144.132 151.856 144.071 151.823C144.01 151.788 143.961 151.74 143.925 151.677C143.891 151.613 143.874 151.539 143.874 151.453C143.874 151.366 143.893 151.289 143.932 151.224C143.972 151.157 144.027 151.107 144.096 151.072C144.164 151.036 144.241 151.018 144.326 151.018ZM144.302 151.777C144.372 151.777 144.435 151.76 144.49 151.727C144.547 151.692 144.599 151.642 144.647 151.577C144.649 151.419 144.624 151.302 144.573 151.228C144.522 151.152 144.442 151.114 144.331 151.114C144.231 151.114 144.152 151.144 144.093 151.204C144.037 151.262 144.008 151.346 144.008 151.455C144.008 151.558 144.034 151.637 144.087 151.693C144.14 151.749 144.212 151.777 144.302 151.777Z" fill="#363636"/>
    <path d="M145.671 151.665C145.786 151.706 145.869 151.755 145.922 151.811C145.975 151.866 146.002 151.936 146.002 152.023C146.002 152.096 145.981 152.16 145.94 152.216C145.899 152.271 145.842 152.314 145.767 152.344C145.694 152.375 145.609 152.39 145.514 152.39C145.418 152.39 145.334 152.375 145.26 152.344C145.189 152.314 145.133 152.271 145.092 152.216C145.053 152.16 145.034 152.097 145.034 152.025C145.034 151.854 145.141 151.731 145.354 151.655C145.266 151.619 145.201 151.578 145.159 151.531C145.119 151.483 145.099 151.423 145.099 151.35C145.099 151.282 145.118 151.222 145.157 151.172C145.196 151.121 145.248 151.083 145.312 151.058C145.376 151.031 145.445 151.018 145.518 151.018C145.591 151.018 145.66 151.031 145.724 151.056C145.789 151.081 145.84 151.119 145.879 151.168C145.919 151.217 145.94 151.277 145.94 151.348C145.94 151.417 145.918 151.477 145.875 151.527C145.831 151.577 145.763 151.623 145.671 151.665ZM145.229 151.352C145.229 151.415 145.249 151.466 145.289 151.503C145.331 151.541 145.403 151.576 145.505 151.609L145.574 151.631C145.658 151.591 145.718 151.55 145.753 151.507C145.791 151.465 145.81 151.413 145.81 151.352C145.81 151.276 145.783 151.216 145.729 151.174C145.677 151.131 145.606 151.11 145.518 151.11C145.433 151.11 145.363 151.131 145.31 151.174C145.256 151.216 145.229 151.276 145.229 151.352ZM145.516 152.292C145.622 152.292 145.706 152.269 145.769 152.222C145.833 152.174 145.866 152.108 145.866 152.023C145.866 151.969 145.854 151.925 145.832 151.891C145.81 151.855 145.775 151.824 145.729 151.799C145.682 151.772 145.617 151.745 145.534 151.717L145.458 151.691C145.357 151.726 145.284 151.77 145.238 151.825C145.193 151.878 145.171 151.945 145.171 152.025C145.171 152.11 145.202 152.176 145.265 152.222C145.328 152.269 145.411 152.292 145.516 152.292Z" fill="#363636"/>
    <path d="M147.252 151.018C147.377 151.018 147.477 151.051 147.55 151.116C147.625 151.181 147.662 151.265 147.662 151.368C147.662 151.454 147.642 151.535 147.602 151.611C147.561 151.687 147.498 151.77 147.411 151.861C147.326 151.951 147.188 152.087 146.996 152.266H147.702L147.684 152.368H146.844V152.27C147.049 152.076 147.195 151.932 147.283 151.839C147.373 151.744 147.436 151.663 147.471 151.595C147.509 151.526 147.528 151.452 147.528 151.374C147.528 151.295 147.501 151.232 147.449 151.186C147.398 151.139 147.33 151.116 147.245 151.116C147.176 151.116 147.115 151.128 147.061 151.154C147.009 151.179 146.959 151.217 146.911 151.268L146.821 151.208C146.881 151.142 146.945 151.095 147.014 151.064C147.084 151.033 147.164 151.018 147.252 151.018Z" fill="#363636"/>
    <path d="M148.37 151.018C148.521 151.018 148.634 151.065 148.708 151.16C148.785 151.253 148.823 151.384 148.823 151.553C148.823 151.725 148.795 151.866 148.74 151.975C148.684 152.084 148.603 152.171 148.495 152.236C148.389 152.302 148.249 152.358 148.074 152.406L148.04 152.316C148.247 152.26 148.403 152.184 148.511 152.087C148.62 151.989 148.68 151.856 148.69 151.687C148.646 151.746 148.592 151.792 148.529 151.825C148.466 151.857 148.398 151.873 148.323 151.873C148.245 151.873 148.176 151.856 148.114 151.823C148.053 151.788 148.004 151.74 147.969 151.677C147.934 151.613 147.917 151.539 147.917 151.453C147.917 151.366 147.936 151.289 147.975 151.224C148.016 151.157 148.07 151.107 148.139 151.072C148.208 151.036 148.285 151.018 148.37 151.018ZM148.345 151.777C148.415 151.777 148.478 151.76 148.534 151.727C148.59 151.692 148.643 151.642 148.69 151.577C148.692 151.419 148.667 151.302 148.616 151.228C148.566 151.152 148.485 151.114 148.374 151.114C148.274 151.114 148.195 151.144 148.137 151.204C148.08 151.262 148.052 151.346 148.052 151.455C148.052 151.558 148.078 151.637 148.13 151.693C148.184 151.749 148.256 151.777 148.345 151.777Z" fill="#363636"/>
    <path d="M149.575 151.018C149.729 151.018 149.845 151.077 149.925 151.194C150.004 151.31 150.043 151.48 150.043 151.705C150.043 151.929 150.003 152.099 149.922 152.216C149.843 152.332 149.727 152.39 149.575 152.39C149.421 152.39 149.304 152.332 149.225 152.216C149.146 152.099 149.106 151.928 149.106 151.703C149.106 151.478 149.146 151.308 149.225 151.192C149.304 151.076 149.421 151.018 149.575 151.018ZM149.575 151.114C149.352 151.114 149.241 151.31 149.241 151.703C149.241 152.097 149.352 152.294 149.575 152.294C149.684 152.294 149.766 152.246 149.822 152.15C149.878 152.055 149.907 151.906 149.907 151.705C149.907 151.504 149.878 151.356 149.822 151.26C149.766 151.162 149.684 151.114 149.575 151.114Z" fill="#363636"/>
    <path d="M152.007 151L151.557 151.643L152.046 152.368H151.891L151.443 151.697H151.2V152.368H151.066V151H151.2V151.597H151.445L151.866 151H152.007Z" fill="#363636"/>
    <path d="M153.645 152.368H153.515L153.446 151.713C153.417 151.459 153.398 151.26 153.387 151.118L153.002 152.206H152.874L152.475 151.118C152.467 151.247 152.453 151.418 152.43 151.631L152.423 151.709L152.356 152.368H152.228L152.374 151H152.56L152.941 152.065L153.309 151H153.497L153.645 152.368Z" fill="#363636"/>
    <path d="M155.041 151.018C155.195 151.018 155.312 151.077 155.391 151.194C155.47 151.31 155.51 151.48 155.51 151.705C155.51 151.929 155.469 152.099 155.389 152.216C155.31 152.332 155.194 152.39 155.041 152.39C154.887 152.39 154.771 152.332 154.692 152.216C154.612 152.099 154.573 151.928 154.573 151.703C154.573 151.478 154.612 151.308 154.692 151.192C154.771 151.076 154.887 151.018 155.041 151.018ZM155.041 151.114C154.819 151.114 154.707 151.31 154.707 151.703C154.707 152.097 154.819 152.294 155.041 152.294C155.15 152.294 155.233 152.246 155.288 152.15C155.345 152.055 155.373 151.906 155.373 151.705C155.373 151.504 155.345 151.356 155.288 151.26C155.233 151.162 155.15 151.114 155.041 151.114Z" fill="#363636"/>
    <path d="M155.888 152.2C155.92 152.2 155.945 152.21 155.964 152.228C155.985 152.246 155.996 152.268 155.996 152.294C155.996 152.324 155.985 152.36 155.962 152.404L155.837 152.67H155.743L155.832 152.376C155.816 152.368 155.803 152.357 155.794 152.342C155.785 152.328 155.781 152.312 155.781 152.294C155.781 152.268 155.791 152.246 155.812 152.228C155.833 152.21 155.858 152.2 155.888 152.2Z" fill="#363636"/>
    <path d="M156.63 151.018C156.781 151.018 156.893 151.065 156.968 151.16C157.044 151.253 157.082 151.384 157.082 151.553C157.082 151.725 157.055 151.866 156.999 151.975C156.944 152.084 156.863 152.171 156.755 152.236C156.649 152.302 156.509 152.358 156.334 152.406L156.3 152.316C156.506 152.26 156.663 152.184 156.771 152.087C156.88 151.989 156.94 151.856 156.95 151.687C156.905 151.746 156.852 151.792 156.789 151.825C156.726 151.857 156.657 151.873 156.583 151.873C156.505 151.873 156.435 151.856 156.374 151.823C156.313 151.788 156.264 151.74 156.228 151.677C156.194 151.613 156.177 151.539 156.177 151.453C156.177 151.366 156.196 151.289 156.235 151.224C156.275 151.157 156.33 151.107 156.399 151.072C156.467 151.036 156.544 151.018 156.63 151.018ZM156.605 151.777C156.675 151.777 156.738 151.76 156.793 151.727C156.85 151.692 156.902 151.642 156.95 151.577C156.952 151.419 156.927 151.302 156.876 151.228C156.825 151.152 156.745 151.114 156.634 151.114C156.534 151.114 156.455 151.144 156.396 151.204C156.34 151.262 156.311 151.346 156.311 151.455C156.311 151.558 156.337 151.637 156.39 151.693C156.444 151.749 156.515 151.777 156.605 151.777Z" fill="#363636"/>
    <path d="M157.974 151.665C158.089 151.706 158.172 151.755 158.225 151.811C158.279 151.866 158.305 151.936 158.305 152.023C158.305 152.096 158.285 152.16 158.243 152.216C158.202 152.271 158.145 152.314 158.07 152.344C157.997 152.375 157.912 152.39 157.817 152.39C157.721 152.39 157.637 152.375 157.563 152.344C157.492 152.314 157.436 152.271 157.395 152.216C157.356 152.16 157.337 152.097 157.337 152.025C157.337 151.854 157.444 151.731 157.658 151.655C157.569 151.619 157.504 151.578 157.463 151.531C157.422 151.483 157.402 151.423 157.402 151.35C157.402 151.282 157.421 151.222 157.46 151.172C157.499 151.121 157.551 151.083 157.615 151.058C157.679 151.031 157.748 151.018 157.821 151.018C157.894 151.018 157.963 151.031 158.027 151.056C158.092 151.081 158.143 151.119 158.182 151.168C158.223 151.217 158.243 151.277 158.243 151.348C158.243 151.417 158.221 151.477 158.178 151.527C158.134 151.577 158.066 151.623 157.974 151.665ZM157.532 151.352C157.532 151.415 157.552 151.466 157.593 151.503C157.634 151.541 157.706 151.576 157.808 151.609L157.877 151.631C157.961 151.591 158.021 151.55 158.057 151.507C158.094 151.465 158.113 151.413 158.113 151.352C158.113 151.276 158.086 151.216 158.032 151.174C157.98 151.131 157.909 151.11 157.821 151.11C157.736 151.11 157.667 151.131 157.613 151.174C157.559 151.216 157.532 151.276 157.532 151.352ZM157.819 152.292C157.925 152.292 158.01 152.269 158.072 152.222C158.137 152.174 158.169 152.108 158.169 152.023C158.169 151.969 158.158 151.925 158.135 151.891C158.113 151.855 158.078 151.824 158.032 151.799C157.986 151.772 157.921 151.745 157.837 151.717L157.761 151.691C157.661 151.726 157.587 151.77 157.541 151.825C157.496 151.878 157.474 151.945 157.474 152.025C157.474 152.11 157.505 152.176 157.568 152.222C157.631 152.269 157.714 152.292 157.819 152.292Z" fill="#363636"/>
    <path d="M158.92 151.018C159.004 151.018 159.076 151.033 159.137 151.062C159.2 151.091 159.248 151.131 159.281 151.182C159.314 151.231 159.33 151.287 159.33 151.35C159.33 151.436 159.302 151.507 159.247 151.561C159.193 151.615 159.123 151.648 159.036 151.661C159.134 151.665 159.214 151.696 159.276 151.755C159.341 151.812 159.373 151.891 159.373 151.993C159.373 152.07 159.353 152.138 159.314 152.198C159.276 152.258 159.22 152.306 159.146 152.34C159.075 152.374 158.992 152.39 158.897 152.39C158.724 152.39 158.581 152.333 158.469 152.218L158.552 152.152C158.603 152.202 158.655 152.238 158.709 152.26C158.764 152.282 158.826 152.292 158.893 152.292C159.001 152.292 159.085 152.265 159.146 152.21C159.208 152.156 159.238 152.084 159.238 151.995C159.238 151.808 159.126 151.715 158.902 151.715H158.803L158.821 151.621H158.893C158.978 151.621 159.051 151.599 159.11 151.553C159.17 151.507 159.2 151.441 159.2 151.356C159.2 151.282 159.174 151.224 159.122 151.182C159.069 151.138 159 151.116 158.913 151.116C158.85 151.116 158.793 151.126 158.741 151.146C158.688 151.164 158.635 151.196 158.581 151.24L158.512 151.168C158.572 151.117 158.634 151.08 158.7 151.056C158.766 151.031 158.839 151.018 158.92 151.018Z" fill="#363636"/>
    <path d="M159.997 151.018C160.123 151.018 160.222 151.051 160.295 151.116C160.37 151.181 160.407 151.265 160.407 151.368C160.407 151.454 160.387 151.535 160.347 151.611C160.307 151.687 160.243 151.77 160.156 151.861C160.071 151.951 159.933 152.087 159.742 152.266H160.448L160.43 152.368H159.589V152.27C159.794 152.076 159.94 151.932 160.029 151.839C160.118 151.744 160.181 151.663 160.217 151.595C160.254 151.526 160.273 151.452 160.273 151.374C160.273 151.295 160.247 151.232 160.194 151.186C160.144 151.139 160.076 151.116 159.99 151.116C159.922 151.116 159.86 151.128 159.807 151.154C159.754 151.179 159.704 151.217 159.656 151.268L159.567 151.208C159.627 151.142 159.691 151.095 159.76 151.064C159.83 151.033 159.909 151.018 159.997 151.018Z" fill="#363636"/>
    <path d="M161.115 151.018C161.266 151.018 161.379 151.065 161.454 151.16C161.53 151.253 161.568 151.384 161.568 151.553C161.568 151.725 161.54 151.866 161.485 151.975C161.43 152.084 161.348 152.171 161.241 152.236C161.135 152.302 160.994 152.358 160.819 152.406L160.786 152.316C160.992 152.26 161.149 152.184 161.256 152.087C161.366 151.989 161.425 151.856 161.436 151.687C161.391 151.746 161.337 151.792 161.274 151.825C161.212 151.857 161.143 151.873 161.068 151.873C160.99 151.873 160.921 151.856 160.86 151.823C160.798 151.788 160.75 151.74 160.714 151.677C160.68 151.613 160.662 151.539 160.662 151.453C160.662 151.366 160.682 151.289 160.721 151.224C160.761 151.157 160.816 151.107 160.884 151.072C160.953 151.036 161.03 151.018 161.115 151.018ZM161.091 151.777C161.161 151.777 161.224 151.76 161.279 151.727C161.336 151.692 161.388 151.642 161.436 151.577C161.437 151.419 161.413 151.302 161.362 151.228C161.311 151.152 161.23 151.114 161.12 151.114C161.02 151.114 160.94 151.144 160.882 151.204C160.825 151.262 160.797 151.346 160.797 151.455C160.797 151.558 160.823 151.637 160.875 151.693C160.929 151.749 161.001 151.777 161.091 151.777Z" fill="#363636"/>
    <path d="M162.315 151.04V152.368H162.185V151.168L161.817 151.372L161.756 151.286L162.203 151.04H162.315Z" fill="#363636"/>
    <path d="M163.082 151.018C163.165 151.018 163.238 151.033 163.299 151.062C163.362 151.091 163.41 151.131 163.442 151.182C163.475 151.231 163.492 151.287 163.492 151.35C163.492 151.436 163.464 151.507 163.409 151.561C163.355 151.615 163.285 151.648 163.198 151.661C163.295 151.665 163.375 151.696 163.438 151.755C163.502 151.812 163.534 151.891 163.534 151.993C163.534 152.07 163.515 152.138 163.476 152.198C163.437 152.258 163.381 152.306 163.308 152.34C163.236 152.374 163.153 152.39 163.059 152.39C162.886 152.39 162.743 152.333 162.631 152.218L162.714 152.152C162.765 152.202 162.817 152.238 162.871 152.26C162.926 152.282 162.987 152.292 163.055 152.292C163.162 152.292 163.247 152.265 163.308 152.21C163.369 152.156 163.4 152.084 163.4 151.995C163.4 151.808 163.288 151.715 163.064 151.715H162.965L162.983 151.621H163.055C163.14 151.621 163.212 151.599 163.272 151.553C163.332 151.507 163.362 151.441 163.362 151.356C163.362 151.282 163.336 151.224 163.283 151.182C163.231 151.138 163.161 151.116 163.075 151.116C163.012 151.116 162.954 151.126 162.902 151.146C162.85 151.164 162.797 151.196 162.743 151.24L162.674 151.168C162.733 151.117 162.796 151.08 162.862 151.056C162.928 151.031 163.001 151.018 163.082 151.018Z" fill="#363636"/>
    <path d="M164.742 151.923V152.019H164.54V152.368H164.412V152.019H163.76V151.933L164.215 151.018L164.325 151.058L163.899 151.923H164.412L164.428 151.533H164.54V151.923H164.742Z" fill="#363636"/>
    <path d="M166.532 152.368L166.398 151.995H165.752L165.618 152.368H165.481L165.994 151H166.163L166.674 152.368H166.532ZM165.79 151.893H166.362L166.077 151.098L165.79 151.893Z" fill="#363636"/>
    <path d="M166.948 152.2C166.979 152.2 167.005 152.21 167.024 152.228C167.045 152.246 167.056 152.268 167.056 152.294C167.056 152.322 167.045 152.346 167.024 152.364C167.005 152.381 166.979 152.39 166.948 152.39C166.918 152.39 166.893 152.381 166.872 152.362C166.851 152.344 166.84 152.321 166.84 152.294C166.84 152.268 166.851 152.246 166.872 152.228C166.893 152.21 166.918 152.2 166.948 152.2Z" fill="#363636"/>
    <path d="M168.21 151L168.194 151.1H167.565V151.609H168.109V151.709H167.565V152.268H168.226V152.368H167.43V151H168.21Z" fill="#363636"/>
    <path d="M168.559 152.2C168.591 152.2 168.616 152.21 168.635 152.228C168.656 152.246 168.667 152.268 168.667 152.294C168.667 152.324 168.656 152.36 168.633 152.404L168.508 152.67H168.413L168.503 152.376C168.487 152.368 168.474 152.357 168.465 152.342C168.456 152.328 168.452 152.312 168.452 152.294C168.452 152.268 168.462 152.246 168.483 152.228C168.504 152.21 168.529 152.2 168.559 152.2ZM168.559 151.421C168.591 151.421 168.616 151.431 168.635 151.449C168.656 151.467 168.667 151.489 168.667 151.515C168.667 151.543 168.656 151.567 168.635 151.585C168.616 151.603 168.591 151.611 168.559 151.611C168.529 151.611 168.504 151.602 168.483 151.583C168.462 151.565 168.452 151.542 168.452 151.515C168.452 151.489 168.462 151.467 168.483 151.449C168.504 151.431 168.529 151.421 168.559 151.421Z" fill="#363636"/>
    <path d="M170.073 151.04V152.368H169.943V151.168L169.575 151.372L169.515 151.286L169.961 151.04H170.073Z" fill="#363636"/>
    <path d="M171.252 151.136H170.647V151.589C170.729 151.548 170.815 151.527 170.903 151.527C171.031 151.527 171.133 151.565 171.208 151.639C171.284 151.712 171.322 151.813 171.322 151.941C171.322 152.027 171.302 152.105 171.261 152.174C171.223 152.242 171.166 152.296 171.093 152.334C171.022 152.372 170.938 152.39 170.842 152.39C170.676 152.39 170.536 152.337 170.421 152.23L170.501 152.16C170.549 152.206 170.6 152.239 170.654 152.26C170.708 152.282 170.77 152.292 170.842 152.292C170.948 152.292 171.032 152.261 171.093 152.198C171.155 152.134 171.185 152.048 171.185 151.939C171.185 151.832 171.157 151.753 171.1 151.701C171.045 151.648 170.969 151.621 170.874 151.621C170.826 151.621 170.783 151.626 170.746 151.637C170.71 151.646 170.67 151.662 170.625 151.685H170.522V151.04H171.273L171.252 151.136Z" fill="#363636"/>
    <path d="M171.917 151.018C172.043 151.018 172.142 151.051 172.215 151.116C172.29 151.181 172.327 151.265 172.327 151.368C172.327 151.454 172.307 151.535 172.267 151.611C172.227 151.687 172.163 151.77 172.076 151.861C171.991 151.951 171.853 152.087 171.662 152.266H172.368L172.35 152.368H171.509V152.27C171.714 152.076 171.86 151.932 171.949 151.839C172.038 151.744 172.101 151.663 172.137 151.595C172.174 151.526 172.193 151.452 172.193 151.374C172.193 151.295 172.167 151.232 172.114 151.186C172.064 151.139 171.996 151.116 171.911 151.116C171.842 151.116 171.78 151.128 171.727 151.154C171.674 151.179 171.624 151.217 171.576 151.268L171.487 151.208C171.547 151.142 171.611 151.095 171.68 151.064C171.75 151.033 171.829 151.018 171.917 151.018Z" fill="#363636"/>
    <path d="M173.728 151.018C173.882 151.018 173.999 151.077 174.078 151.194C174.157 151.31 174.197 151.48 174.197 151.705C174.197 151.929 174.156 152.099 174.076 152.216C173.996 152.332 173.881 152.39 173.728 152.39C173.574 152.39 173.458 152.332 173.378 152.216C173.299 152.099 173.26 151.928 173.26 151.703C173.26 151.478 173.299 151.308 173.378 151.192C173.458 151.076 173.574 151.018 173.728 151.018ZM173.728 151.114C173.505 151.114 173.394 151.31 173.394 151.703C173.394 152.097 173.505 152.294 173.728 152.294C173.837 152.294 173.919 152.246 173.975 152.15C174.031 152.055 174.06 151.906 174.06 151.705C174.06 151.504 174.031 151.356 173.975 151.26C173.919 151.162 173.837 151.114 173.728 151.114Z" fill="#363636"/>
    <path d="M174.894 151.018C175.045 151.018 175.158 151.065 175.232 151.16C175.309 151.253 175.347 151.384 175.347 151.553C175.347 151.725 175.319 151.866 175.264 151.975C175.208 152.084 175.127 152.171 175.019 152.236C174.913 152.302 174.773 152.358 174.598 152.406L174.564 152.316C174.771 152.26 174.928 152.184 175.035 152.087C175.144 151.989 175.204 151.856 175.214 151.687C175.17 151.746 175.116 151.792 175.053 151.825C174.99 151.857 174.922 151.873 174.847 151.873C174.769 151.873 174.7 151.856 174.638 151.823C174.577 151.788 174.528 151.74 174.493 151.677C174.458 151.613 174.441 151.539 174.441 151.453C174.441 151.366 174.46 151.289 174.499 151.224C174.54 151.157 174.594 151.107 174.663 151.072C174.732 151.036 174.809 151.018 174.894 151.018ZM174.869 151.777C174.939 151.777 175.002 151.76 175.058 151.727C175.114 151.692 175.167 151.642 175.214 151.577C175.216 151.419 175.191 151.302 175.14 151.228C175.09 151.152 175.009 151.114 174.898 151.114C174.798 151.114 174.719 151.144 174.661 151.204C174.604 151.262 174.576 151.346 174.576 151.455C174.576 151.558 174.602 151.637 174.654 151.693C174.708 151.749 174.78 151.777 174.869 151.777Z" fill="#363636"/>
    <path d="M176.238 151.665C176.353 151.706 176.437 151.755 176.489 151.811C176.543 151.866 176.57 151.936 176.57 152.023C176.57 152.096 176.549 152.16 176.507 152.216C176.467 152.271 176.409 152.314 176.334 152.344C176.261 152.375 176.177 152.39 176.081 152.39C175.985 152.39 175.901 152.375 175.828 152.344C175.756 152.314 175.7 152.271 175.66 152.216C175.621 152.16 175.601 152.097 175.601 152.025C175.601 151.854 175.708 151.731 175.922 151.655C175.834 151.619 175.769 151.578 175.727 151.531C175.687 151.483 175.666 151.423 175.666 151.35C175.666 151.282 175.686 151.222 175.725 151.172C175.763 151.121 175.815 151.083 175.879 151.058C175.944 151.031 176.012 151.018 176.086 151.018C176.159 151.018 176.228 151.031 176.292 151.056C176.356 151.081 176.408 151.119 176.446 151.168C176.487 151.217 176.507 151.277 176.507 151.348C176.507 151.417 176.485 151.477 176.442 151.527C176.399 151.577 176.331 151.623 176.238 151.665ZM175.796 151.352C175.796 151.415 175.817 151.466 175.857 151.503C175.899 151.541 175.97 151.576 176.072 151.609L176.142 151.631C176.225 151.591 176.285 151.55 176.321 151.507C176.358 151.465 176.377 151.413 176.377 151.352C176.377 151.276 176.35 151.216 176.296 151.174C176.244 151.131 176.174 151.11 176.086 151.11C176 151.11 175.931 151.131 175.877 151.174C175.823 151.216 175.796 151.276 175.796 151.352ZM176.083 152.292C176.189 152.292 176.274 152.269 176.337 152.222C176.401 152.174 176.433 152.108 176.433 152.023C176.433 151.969 176.422 151.925 176.399 151.891C176.377 151.855 176.343 151.824 176.296 151.799C176.25 151.772 176.185 151.745 176.101 151.717L176.025 151.691C175.925 151.726 175.852 151.77 175.805 151.825C175.76 151.878 175.738 151.945 175.738 152.025C175.738 152.11 175.769 152.176 175.832 152.222C175.895 152.269 175.979 152.292 176.083 152.292Z" fill="#363636"/>
    <path d="M177.819 151.018C177.945 151.018 178.044 151.051 178.117 151.116C178.192 151.181 178.229 151.265 178.229 151.368C178.229 151.454 178.209 151.535 178.169 151.611C178.129 151.687 178.065 151.77 177.978 151.861C177.893 151.951 177.755 152.087 177.564 152.266H178.27L178.252 152.368H177.411V152.27C177.616 152.076 177.762 151.932 177.851 151.839C177.94 151.744 178.003 151.663 178.039 151.595C178.076 151.526 178.095 151.452 178.095 151.374C178.095 151.295 178.069 151.232 178.017 151.186C177.966 151.139 177.898 151.116 177.813 151.116C177.744 151.116 177.682 151.128 177.629 151.154C177.576 151.179 177.526 151.217 177.479 151.268L177.389 151.208C177.449 151.142 177.513 151.095 177.582 151.064C177.652 151.033 177.731 151.018 177.819 151.018Z" fill="#363636"/>
    <path d="M178.872 151.018C178.956 151.018 179.028 151.033 179.089 151.062C179.152 151.091 179.2 151.131 179.233 151.182C179.266 151.231 179.282 151.287 179.282 151.35C179.282 151.436 179.255 151.507 179.199 151.561C179.146 151.615 179.075 151.648 178.989 151.661C179.086 151.665 179.166 151.696 179.228 151.755C179.293 151.812 179.325 151.891 179.325 151.993C179.325 152.07 179.305 152.138 179.267 152.198C179.228 152.258 179.172 152.306 179.098 152.34C179.027 152.374 178.944 152.39 178.85 152.39C178.676 152.39 178.534 152.333 178.421 152.218L178.504 152.152C178.555 152.202 178.608 152.238 178.661 152.26C178.717 152.282 178.778 152.292 178.845 152.292C178.953 152.292 179.037 152.265 179.098 152.21C179.16 152.156 179.19 152.084 179.19 151.995C179.19 151.808 179.078 151.715 178.854 151.715H178.755L178.773 151.621H178.845C178.93 151.621 179.003 151.599 179.063 151.553C179.122 151.507 179.152 151.441 179.152 151.356C179.152 151.282 179.126 151.224 179.074 151.182C179.021 151.138 178.952 151.116 178.865 151.116C178.803 151.116 178.745 151.126 178.693 151.146C178.64 151.164 178.587 151.196 178.534 151.24L178.464 151.168C178.524 151.117 178.587 151.08 178.652 151.056C178.718 151.031 178.791 151.018 178.872 151.018Z" fill="#363636"/>
    <path d="M179.949 151.018C180.075 151.018 180.174 151.051 180.247 151.116C180.322 151.181 180.36 151.265 180.36 151.368C180.36 151.454 180.339 151.535 180.299 151.611C180.259 151.687 180.195 151.77 180.108 151.861C180.023 151.951 179.885 152.087 179.694 152.266H180.4L180.382 152.368H179.541V152.27C179.746 152.076 179.893 151.932 179.981 151.839C180.07 151.744 180.133 151.663 180.169 151.595C180.206 151.526 180.225 151.452 180.225 151.374C180.225 151.295 180.199 151.232 180.147 151.186C180.096 151.139 180.028 151.116 179.943 151.116C179.874 151.116 179.813 151.128 179.759 151.154C179.706 151.179 179.656 151.217 179.609 151.268L179.519 151.208C179.579 151.142 179.643 151.095 179.712 151.064C179.782 151.033 179.861 151.018 179.949 151.018Z" fill="#363636"/>
    <path d="M182.334 151L181.883 151.643L182.372 152.368H182.218L181.769 151.697H181.527V152.368H181.393V151H181.527V151.597H181.771L182.193 151H182.334Z" fill="#363636"/>
    <path d="M183.972 152.368H183.842L183.772 151.713C183.744 151.459 183.724 151.26 183.714 151.118L183.328 152.206H183.201L182.802 151.118C182.794 151.247 182.779 151.418 182.757 151.631L182.75 151.709L182.683 152.368H182.555L182.701 151H182.887L183.268 152.065L183.635 151H183.824L183.972 152.368Z" fill="#363636"/>
    <path d="M185.406 151.04V152.368H185.276V151.168L184.908 151.372L184.848 151.286L185.294 151.04H185.406Z" fill="#363636"/>
    <path d="M185.908 152.2C185.94 152.2 185.965 152.21 185.985 152.228C186.006 152.246 186.016 152.268 186.016 152.294C186.016 152.324 186.005 152.36 185.982 152.404L185.857 152.67H185.763L185.852 152.376C185.836 152.368 185.823 152.357 185.814 152.342C185.805 152.328 185.801 152.312 185.801 152.294C185.801 152.268 185.811 152.246 185.832 152.228C185.853 152.21 185.879 152.2 185.908 152.2Z" fill="#363636"/>
    <path d="M186.734 151.018C186.888 151.018 187.005 151.077 187.084 151.194C187.163 151.31 187.203 151.48 187.203 151.705C187.203 151.929 187.162 152.099 187.081 152.216C187.002 152.332 186.886 152.39 186.734 152.39C186.58 152.39 186.463 152.332 186.384 152.216C186.305 152.099 186.265 151.928 186.265 151.703C186.265 151.478 186.305 151.308 186.384 151.192C186.463 151.076 186.58 151.018 186.734 151.018ZM186.734 151.114C186.511 151.114 186.4 151.31 186.4 151.703C186.4 152.097 186.511 152.294 186.734 152.294C186.843 152.294 186.925 152.246 186.981 152.15C187.037 152.055 187.066 151.906 187.066 151.705C187.066 151.504 187.037 151.356 186.981 151.26C186.925 151.162 186.843 151.114 186.734 151.114Z" fill="#363636"/>
    <path d="M187.941 151.04V152.368H187.811V151.168L187.443 151.372L187.383 151.286L187.829 151.04H187.941Z" fill="#363636"/>
    <path d="M188.876 151.503C188.991 151.503 189.086 151.539 189.161 151.611C189.236 151.682 189.273 151.785 189.273 151.921C189.273 152.015 189.253 152.099 189.215 152.17C189.177 152.241 189.125 152.296 189.058 152.334C188.992 152.372 188.917 152.39 188.834 152.39C188.669 152.39 188.549 152.334 188.473 152.222C188.398 152.109 188.361 151.958 188.361 151.769C188.361 151.616 188.382 151.483 188.426 151.37C188.469 151.256 188.531 151.17 188.612 151.11C188.692 151.049 188.788 151.018 188.899 151.018C188.999 151.018 189.091 151.044 189.177 151.096L189.12 151.176C189.049 151.134 188.974 151.114 188.896 151.114C188.775 151.114 188.679 151.168 188.607 151.276C188.535 151.383 188.497 151.525 188.493 151.699C188.593 151.569 188.721 151.503 188.876 151.503ZM188.834 152.294C188.932 152.294 189.008 152.261 189.06 152.194C189.114 152.126 189.141 152.037 189.141 151.925C189.141 151.814 189.114 151.732 189.062 151.679C189.011 151.626 188.943 151.599 188.858 151.599C188.783 151.599 188.715 151.619 188.652 151.659C188.591 151.698 188.538 151.751 188.493 151.819C188.497 151.973 188.526 152.091 188.58 152.172C188.634 152.254 188.718 152.294 188.834 152.294Z" fill="#363636"/>
    <path d="M190.23 151.04V151.13L189.643 152.384L189.522 152.348L190.096 151.138H189.398V151.04H190.23Z" fill="#363636"/>
    <path d="M190.914 151.04V152.368H190.784V151.168L190.416 151.372L190.356 151.286L190.802 151.04H190.914Z" fill="#363636"/>
    <path d="M191.681 151.018C191.765 151.018 191.837 151.033 191.898 151.062C191.961 151.091 192.009 151.131 192.042 151.182C192.075 151.231 192.091 151.287 192.091 151.35C192.091 151.436 192.063 151.507 192.008 151.561C191.954 151.615 191.884 151.648 191.797 151.661C191.895 151.665 191.975 151.696 192.037 151.755C192.102 151.812 192.134 151.891 192.134 151.993C192.134 152.07 192.114 152.138 192.075 152.198C192.037 152.258 191.981 152.306 191.907 152.34C191.836 152.374 191.753 152.39 191.658 152.39C191.485 152.39 191.342 152.333 191.23 152.218L191.313 152.152C191.364 152.202 191.416 152.238 191.47 152.26C191.525 152.282 191.587 152.292 191.654 152.292C191.762 152.292 191.846 152.265 191.907 152.21C191.969 152.156 191.999 152.084 191.999 151.995C191.999 151.808 191.887 151.715 191.663 151.715H191.564L191.582 151.621H191.654C191.739 151.621 191.812 151.599 191.871 151.553C191.931 151.507 191.961 151.441 191.961 151.356C191.961 151.282 191.935 151.224 191.883 151.182C191.83 151.138 191.761 151.116 191.674 151.116C191.611 151.116 191.554 151.126 191.502 151.146C191.449 151.164 191.396 151.196 191.342 151.24L191.273 151.168C191.333 151.117 191.395 151.08 191.461 151.056C191.527 151.031 191.6 151.018 191.681 151.018Z" fill="#363636"/>
    <path d="M193.031 151.665C193.146 151.706 193.23 151.755 193.282 151.811C193.336 151.866 193.363 151.936 193.363 152.023C193.363 152.096 193.342 152.16 193.3 152.216C193.26 152.271 193.202 152.314 193.128 152.344C193.054 152.375 192.97 152.39 192.874 152.39C192.779 152.39 192.694 152.375 192.621 152.344C192.549 152.314 192.493 152.271 192.453 152.216C192.414 152.16 192.394 152.097 192.394 152.025C192.394 151.854 192.501 151.731 192.715 151.655C192.627 151.619 192.562 151.578 192.52 151.531C192.48 151.483 192.459 151.423 192.459 151.35C192.459 151.282 192.479 151.222 192.518 151.172C192.557 151.121 192.608 151.083 192.672 151.058C192.737 151.031 192.805 151.018 192.879 151.018C192.952 151.018 193.021 151.031 193.085 151.056C193.149 151.081 193.201 151.119 193.24 151.168C193.28 151.217 193.3 151.277 193.3 151.348C193.3 151.417 193.278 151.477 193.235 151.527C193.192 151.577 193.124 151.623 193.031 151.665ZM192.59 151.352C192.59 151.415 192.61 151.466 192.65 151.503C192.692 151.541 192.764 151.576 192.865 151.609L192.935 151.631C193.018 151.591 193.078 151.55 193.114 151.507C193.151 151.465 193.17 151.413 193.17 151.352C193.17 151.276 193.143 151.216 193.089 151.174C193.037 151.131 192.967 151.11 192.879 151.11C192.794 151.11 192.724 151.131 192.67 151.174C192.616 151.216 192.59 151.276 192.59 151.352ZM192.876 152.292C192.983 152.292 193.067 152.269 193.13 152.222C193.194 152.174 193.226 152.108 193.226 152.023C193.226 151.969 193.215 151.925 193.193 151.891C193.17 151.855 193.136 151.824 193.089 151.799C193.043 151.772 192.978 151.745 192.894 151.717L192.818 151.691C192.718 151.726 192.645 151.77 192.598 151.825C192.554 151.878 192.531 151.945 192.531 152.025C192.531 152.11 192.563 152.176 192.625 152.222C192.688 152.269 192.772 152.292 192.876 152.292Z" fill="#363636"/>
    <path d="M194.237 151.665C194.352 151.706 194.436 151.755 194.488 151.811C194.542 151.866 194.569 151.936 194.569 152.023C194.569 152.096 194.548 152.16 194.506 152.216C194.466 152.271 194.408 152.314 194.334 152.344C194.261 152.375 194.176 152.39 194.08 152.39C193.985 152.39 193.9 152.375 193.827 152.344C193.755 152.314 193.699 152.271 193.659 152.216C193.62 152.16 193.601 152.097 193.601 152.025C193.601 151.854 193.708 151.731 193.921 151.655C193.833 151.619 193.768 151.578 193.726 151.531C193.686 151.483 193.666 151.423 193.666 151.35C193.666 151.282 193.685 151.222 193.724 151.172C193.763 151.121 193.814 151.083 193.879 151.058C193.943 151.031 194.012 151.018 194.085 151.018C194.158 151.018 194.227 151.031 194.291 151.056C194.355 151.081 194.407 151.119 194.446 151.168C194.486 151.217 194.506 151.277 194.506 151.348C194.506 151.417 194.485 151.477 194.441 151.527C194.398 151.577 194.33 151.623 194.237 151.665ZM193.796 151.352C193.796 151.415 193.816 151.466 193.856 151.503C193.898 151.541 193.97 151.576 194.071 151.609L194.141 151.631C194.225 151.591 194.284 151.55 194.32 151.507C194.358 151.465 194.376 151.413 194.376 151.352C194.376 151.276 194.349 151.216 194.296 151.174C194.243 151.131 194.173 151.11 194.085 151.11C194 151.11 193.93 151.131 193.876 151.174C193.823 151.216 193.796 151.276 193.796 151.352ZM194.083 152.292C194.189 152.292 194.273 152.269 194.336 152.222C194.4 152.174 194.432 152.108 194.432 152.023C194.432 151.969 194.421 151.925 194.399 151.891C194.376 151.855 194.342 151.824 194.296 151.799C194.249 151.772 194.184 151.745 194.101 151.717L194.024 151.691C193.924 151.726 193.851 151.77 193.805 151.825C193.76 151.878 193.737 151.945 193.737 152.025C193.737 152.11 193.769 152.176 193.832 152.222C193.894 152.269 193.978 152.292 194.083 152.292Z" fill="#363636"/>
    <path d="M196.401 152.368L196.267 151.995H195.621L195.487 152.368H195.35L195.863 151H196.032L196.543 152.368H196.401ZM195.659 151.893H196.231L195.946 151.098L195.659 151.893Z" fill="#363636"/>
    <path d="M196.817 152.2C196.848 152.2 196.874 152.21 196.893 152.228C196.914 152.246 196.925 152.268 196.925 152.294C196.925 152.322 196.914 152.346 196.893 152.364C196.874 152.381 196.848 152.39 196.817 152.39C196.787 152.39 196.762 152.381 196.741 152.362C196.72 152.344 196.709 152.321 196.709 152.294C196.709 152.268 196.72 152.246 196.741 152.228C196.762 152.21 196.787 152.2 196.817 152.2Z" fill="#363636"/>
    <path d="M198.079 151L198.064 151.1H197.434V151.609H197.978V151.709H197.434V152.268H198.095V152.368H197.299V151H198.079Z" fill="#363636"/>
    <path d="M198.428 152.2C198.46 152.2 198.485 152.21 198.505 152.228C198.525 152.246 198.536 152.268 198.536 152.294C198.536 152.322 198.525 152.346 198.505 152.364C198.485 152.381 198.46 152.39 198.428 152.39C198.398 152.39 198.373 152.381 198.352 152.362C198.331 152.344 198.321 152.321 198.321 152.294C198.321 152.268 198.331 152.246 198.352 152.228C198.373 152.21 198.398 152.2 198.428 152.2Z" fill="#363636"/>
    <path d="M198.892 152.2C198.924 152.2 198.949 152.21 198.969 152.228C198.99 152.246 199 152.268 199 152.294C199 152.324 198.989 152.36 198.966 152.404L198.841 152.67H198.747L198.836 152.376C198.82 152.368 198.807 152.357 198.798 152.342C198.789 152.328 198.785 152.312 198.785 152.294C198.785 152.268 198.795 152.246 198.816 152.228C198.837 152.21 198.863 152.2 198.892 152.2ZM198.892 151.421C198.924 151.421 198.949 151.431 198.969 151.449C198.99 151.467 199 151.489 199 151.515C199 151.543 198.99 151.567 198.969 151.585C198.949 151.603 198.924 151.611 198.892 151.611C198.863 151.611 198.837 151.602 198.816 151.583C198.795 151.565 198.785 151.542 198.785 151.515C198.785 151.489 198.795 151.467 198.816 151.449C198.837 151.431 198.863 151.421 198.892 151.421Z" fill="#363636"/>
    <path d="M139.558 153.37V154.698H139.428V153.498L139.061 153.702L139 153.616L139.446 153.37H139.558Z" fill="#363636"/>
    <path d="M140.912 154.253V154.349H140.711V154.698H140.583V154.349H139.931V154.263L140.386 153.348L140.495 153.388L140.069 154.253H140.583L140.599 153.864H140.711V154.253H140.912Z" fill="#363636"/>
    <path d="M141.518 153.348C141.669 153.348 141.782 153.395 141.856 153.49C141.932 153.583 141.971 153.714 141.971 153.883C141.971 154.055 141.943 154.196 141.888 154.305C141.832 154.414 141.751 154.501 141.643 154.567C141.537 154.632 141.397 154.688 141.222 154.736L141.188 154.646C141.394 154.591 141.551 154.514 141.659 154.417C141.768 154.32 141.828 154.186 141.838 154.017C141.793 154.076 141.74 154.122 141.677 154.155C141.614 154.187 141.545 154.203 141.471 154.203C141.393 154.203 141.323 154.186 141.262 154.153C141.201 154.119 141.152 154.07 141.116 154.007C141.082 153.943 141.065 153.869 141.065 153.784C141.065 153.696 141.084 153.619 141.123 153.554C141.164 153.487 141.218 153.437 141.287 153.402C141.356 153.366 141.433 153.348 141.518 153.348ZM141.493 154.107C141.563 154.107 141.626 154.091 141.681 154.057C141.738 154.023 141.79 153.973 141.838 153.907C141.84 153.749 141.815 153.632 141.764 153.558C141.714 153.482 141.633 153.444 141.522 153.444C141.422 153.444 141.343 153.474 141.285 153.534C141.228 153.593 141.199 153.676 141.199 153.786C141.199 153.888 141.226 153.967 141.278 154.023C141.332 154.079 141.403 154.107 141.493 154.107Z" fill="#363636"/>
    <path d="M143.64 153.466H143.035V153.919C143.117 153.878 143.202 153.858 143.291 153.858C143.419 153.858 143.521 153.895 143.596 153.969C143.672 154.043 143.71 154.143 143.71 154.271C143.71 154.358 143.69 154.435 143.649 154.505C143.61 154.573 143.554 154.626 143.481 154.664C143.409 154.702 143.326 154.72 143.23 154.72C143.064 154.72 142.924 154.667 142.809 154.561L142.889 154.491C142.937 154.536 142.988 154.569 143.042 154.591C143.096 154.612 143.158 154.623 143.23 154.623C143.336 154.623 143.42 154.591 143.481 154.529C143.542 154.465 143.573 154.378 143.573 154.269C143.573 154.162 143.545 154.083 143.488 154.031C143.433 153.978 143.357 153.951 143.262 153.951C143.214 153.951 143.171 153.957 143.134 153.967C143.098 153.977 143.058 153.993 143.013 154.015H142.91V153.37H143.661L143.64 153.466Z" fill="#363636"/>
    <path d="M144.364 153.348C144.515 153.348 144.627 153.395 144.702 153.49C144.778 153.583 144.816 153.714 144.816 153.883C144.816 154.055 144.789 154.196 144.734 154.305C144.678 154.414 144.597 154.501 144.489 154.567C144.383 154.632 144.243 154.688 144.068 154.736L144.034 154.646C144.24 154.591 144.397 154.514 144.505 154.417C144.614 154.32 144.674 154.186 144.684 154.017C144.639 154.076 144.586 154.122 144.523 154.155C144.46 154.187 144.391 154.203 144.317 154.203C144.239 154.203 144.169 154.186 144.108 154.153C144.047 154.119 143.998 154.07 143.962 154.007C143.928 153.943 143.911 153.869 143.911 153.784C143.911 153.696 143.93 153.619 143.969 153.554C144.009 153.487 144.064 153.437 144.133 153.402C144.202 153.366 144.278 153.348 144.364 153.348ZM144.339 154.107C144.409 154.107 144.472 154.091 144.527 154.057C144.584 154.023 144.636 153.973 144.684 153.907C144.686 153.749 144.661 153.632 144.61 153.558C144.559 153.482 144.479 153.444 144.368 153.444C144.268 153.444 144.189 153.474 144.131 153.534C144.074 153.593 144.045 153.676 144.045 153.786C144.045 153.888 144.071 153.967 144.124 154.023C144.178 154.079 144.249 154.107 144.339 154.107Z" fill="#363636"/>
    <path d="M145.708 153.995C145.823 154.037 145.907 154.085 145.959 154.141C146.013 154.196 146.04 154.266 146.04 154.353C146.04 154.426 146.019 154.491 145.977 154.547C145.936 154.601 145.879 154.644 145.804 154.674C145.731 154.705 145.646 154.72 145.551 154.72C145.455 154.72 145.371 154.705 145.298 154.674C145.226 154.644 145.17 154.601 145.129 154.547C145.091 154.491 145.071 154.427 145.071 154.355C145.071 154.184 145.178 154.061 145.392 153.985C145.303 153.949 145.238 153.908 145.197 153.862C145.156 153.814 145.136 153.753 145.136 153.68C145.136 153.612 145.156 153.553 145.194 153.502C145.233 153.451 145.285 153.413 145.349 153.388C145.413 153.362 145.482 153.348 145.555 153.348C145.629 153.348 145.697 153.361 145.762 153.386C145.826 153.411 145.877 153.449 145.916 153.498C145.957 153.547 145.977 153.607 145.977 153.678C145.977 153.747 145.955 153.807 145.912 153.858C145.868 153.907 145.8 153.953 145.708 153.995ZM145.266 153.682C145.266 153.746 145.286 153.796 145.327 153.834C145.369 153.871 145.44 153.906 145.542 153.939L145.611 153.961C145.695 153.921 145.755 153.88 145.791 153.838C145.828 153.795 145.847 153.743 145.847 153.682C145.847 153.606 145.82 153.547 145.766 153.504C145.714 153.461 145.643 153.44 145.555 153.44C145.47 153.44 145.401 153.461 145.347 153.504C145.293 153.547 145.266 153.606 145.266 153.682ZM145.553 154.623C145.659 154.623 145.744 154.599 145.806 154.553C145.871 154.505 145.903 154.438 145.903 154.353C145.903 154.3 145.892 154.256 145.869 154.221C145.847 154.185 145.812 154.154 145.766 154.129C145.72 154.103 145.655 154.075 145.571 154.047L145.495 154.021C145.395 154.056 145.321 154.101 145.275 154.155C145.23 154.208 145.208 154.275 145.208 154.355C145.208 154.44 145.239 154.506 145.302 154.553C145.365 154.599 145.448 154.623 145.553 154.623Z" fill="#363636"/>
    <path d="M147.289 153.348C147.415 153.348 147.514 153.381 147.587 153.446C147.662 153.511 147.699 153.595 147.699 153.698C147.699 153.784 147.679 153.866 147.639 153.941C147.598 154.017 147.535 154.101 147.448 154.191C147.363 154.282 147.225 154.417 147.033 154.597H147.74L147.722 154.698H146.881V154.601C147.086 154.406 147.232 154.262 147.32 154.169C147.41 154.075 147.473 153.993 147.509 153.925C147.546 153.856 147.565 153.782 147.565 153.704C147.565 153.625 147.539 153.563 147.486 153.516C147.435 153.469 147.367 153.446 147.282 153.446C147.214 153.446 147.152 153.459 147.098 153.484C147.046 153.509 146.996 153.547 146.948 153.598L146.859 153.538C146.918 153.473 146.983 153.425 147.051 153.394C147.122 153.364 147.201 153.348 147.289 153.348Z" fill="#363636"/>
    <path d="M148.521 153.834C148.636 153.834 148.731 153.87 148.806 153.941C148.88 154.012 148.918 154.115 148.918 154.251C148.918 154.346 148.898 154.429 148.859 154.501C148.822 154.571 148.77 154.626 148.702 154.664C148.637 154.702 148.562 154.72 148.478 154.72C148.314 154.72 148.194 154.664 148.117 154.553C148.043 154.439 148.005 154.288 148.005 154.099C148.005 153.946 148.027 153.813 148.07 153.7C148.114 153.587 148.176 153.5 148.256 153.44C148.337 153.379 148.433 153.348 148.543 153.348C148.643 153.348 148.736 153.374 148.821 153.426L148.765 153.506C148.693 153.465 148.619 153.444 148.541 153.444C148.42 153.444 148.324 153.498 148.252 153.606C148.18 153.714 148.142 153.855 148.138 154.029C148.238 153.899 148.365 153.834 148.521 153.834ZM148.478 154.625C148.577 154.625 148.652 154.591 148.705 154.525C148.758 154.457 148.785 154.367 148.785 154.255C148.785 154.144 148.759 154.063 148.707 154.009C148.656 153.956 148.588 153.929 148.503 153.929C148.428 153.929 148.359 153.949 148.297 153.989C148.235 154.028 148.182 154.081 148.138 154.149C148.142 154.304 148.171 154.421 148.225 154.503C148.279 154.584 148.363 154.625 148.478 154.625Z" fill="#363636"/>
    <path d="M149.589 153.37V154.698H149.459V153.498L149.091 153.702L149.031 153.616L149.477 153.37H149.589Z" fill="#363636"/>
    <path d="M151.677 153.33L151.226 153.973L151.715 154.698H151.56L151.112 154.027H150.87V154.698H150.735V153.33H150.87V153.927H151.114L151.536 153.33H151.677Z" fill="#363636"/>
    <path d="M153.315 154.698H153.185L153.115 154.043C153.087 153.789 153.067 153.591 153.057 153.448L152.671 154.537H152.543L152.144 153.448C152.137 153.577 152.122 153.748 152.1 153.961L152.093 154.039L152.026 154.698H151.898L152.044 153.33H152.23L152.611 154.395L152.978 153.33H153.167L153.315 154.698Z" fill="#363636"/>
    <path d="M154.749 153.37V154.698H154.619V153.498L154.251 153.702L154.191 153.616L154.637 153.37H154.749Z" fill="#363636"/>
    <path d="M155.251 154.531C155.283 154.531 155.308 154.54 155.327 154.559C155.348 154.576 155.359 154.598 155.359 154.625C155.359 154.654 155.348 154.69 155.325 154.734L155.2 155H155.105L155.195 154.706C155.179 154.698 155.166 154.687 155.157 154.672C155.148 154.658 155.144 154.642 155.144 154.625C155.144 154.598 155.154 154.576 155.175 154.559C155.196 154.54 155.221 154.531 155.251 154.531Z" fill="#363636"/>
    <path d="M156.077 153.348C156.231 153.348 156.347 153.407 156.427 153.524C156.506 153.64 156.545 153.81 156.545 154.035C156.545 154.259 156.505 154.429 156.424 154.547C156.345 154.662 156.229 154.72 156.077 154.72C155.923 154.72 155.806 154.662 155.727 154.547C155.648 154.429 155.608 154.258 155.608 154.033C155.608 153.808 155.648 153.638 155.727 153.522C155.806 153.406 155.923 153.348 156.077 153.348ZM156.077 153.444C155.854 153.444 155.743 153.64 155.743 154.033C155.743 154.427 155.854 154.625 156.077 154.625C156.186 154.625 156.268 154.577 156.323 154.481C156.38 154.385 156.409 154.236 156.409 154.035C156.409 153.834 156.38 153.686 156.323 153.59C156.268 153.493 156.186 153.444 156.077 153.444Z" fill="#363636"/>
    <path d="M157.309 153.348C157.463 153.348 157.58 153.407 157.659 153.524C157.738 153.64 157.778 153.81 157.778 154.035C157.778 154.259 157.737 154.429 157.657 154.547C157.578 154.662 157.462 154.72 157.309 154.72C157.155 154.72 157.039 154.662 156.96 154.547C156.88 154.429 156.841 154.258 156.841 154.033C156.841 153.808 156.88 153.638 156.96 153.522C157.039 153.406 157.155 153.348 157.309 153.348ZM157.309 153.444C157.087 153.444 156.975 153.64 156.975 154.033C156.975 154.427 157.087 154.625 157.309 154.625C157.418 154.625 157.501 154.577 157.556 154.481C157.613 154.385 157.641 154.236 157.641 154.035C157.641 153.834 157.613 153.686 157.556 153.59C157.501 153.493 157.418 153.444 157.309 153.444Z" fill="#363636"/>
    <path d="M158.542 153.348C158.696 153.348 158.812 153.407 158.892 153.524C158.971 153.64 159.01 153.81 159.01 154.035C159.01 154.259 158.97 154.429 158.889 154.547C158.81 154.662 158.694 154.72 158.542 154.72C158.388 154.72 158.271 154.662 158.192 154.547C158.113 154.429 158.073 154.258 158.073 154.033C158.073 153.808 158.113 153.638 158.192 153.522C158.271 153.406 158.388 153.348 158.542 153.348ZM158.542 153.444C158.319 153.444 158.208 153.64 158.208 154.033C158.208 154.427 158.319 154.625 158.542 154.625C158.651 154.625 158.733 154.577 158.788 154.481C158.845 154.385 158.874 154.236 158.874 154.035C158.874 153.834 158.845 153.686 158.788 153.59C158.733 153.493 158.651 153.444 158.542 153.444Z" fill="#363636"/>
    <path d="M159.774 153.348C159.928 153.348 160.045 153.407 160.124 153.524C160.203 153.64 160.243 153.81 160.243 154.035C160.243 154.259 160.202 154.429 160.122 154.547C160.043 154.662 159.927 154.72 159.774 154.72C159.62 154.72 159.504 154.662 159.425 154.547C159.345 154.429 159.306 154.258 159.306 154.033C159.306 153.808 159.345 153.638 159.425 153.522C159.504 153.406 159.62 153.348 159.774 153.348ZM159.774 153.444C159.552 153.444 159.44 153.64 159.44 154.033C159.44 154.427 159.552 154.625 159.774 154.625C159.883 154.625 159.966 154.577 160.021 154.481C160.078 154.385 160.106 154.236 160.106 154.035C160.106 153.834 160.078 153.686 160.021 153.59C159.966 153.493 159.883 153.444 159.774 153.444Z" fill="#363636"/>
    <path d="M161.007 153.348C161.161 153.348 161.277 153.407 161.357 153.524C161.436 153.64 161.475 153.81 161.475 154.035C161.475 154.259 161.435 154.429 161.354 154.547C161.275 154.662 161.159 154.72 161.007 154.72C160.853 154.72 160.736 154.662 160.657 154.547C160.578 154.429 160.538 154.258 160.538 154.033C160.538 153.808 160.578 153.638 160.657 153.522C160.736 153.406 160.853 153.348 161.007 153.348ZM161.007 153.444C160.784 153.444 160.673 153.64 160.673 154.033C160.673 154.427 160.784 154.625 161.007 154.625C161.116 154.625 161.198 154.577 161.253 154.481C161.31 154.385 161.339 154.236 161.339 154.035C161.339 153.834 161.31 153.686 161.253 153.59C161.198 153.493 161.116 153.444 161.007 153.444Z" fill="#363636"/>
    <path d="M162.097 153.348C162.222 153.348 162.322 153.381 162.395 153.446C162.469 153.511 162.507 153.595 162.507 153.698C162.507 153.784 162.487 153.866 162.446 153.941C162.406 154.017 162.342 154.101 162.256 154.191C162.171 154.282 162.032 154.417 161.841 154.597H162.547L162.529 154.698H161.689V154.601C161.893 154.406 162.04 154.262 162.128 154.169C162.218 154.075 162.28 153.993 162.316 153.925C162.354 153.856 162.372 153.782 162.372 153.704C162.372 153.625 162.346 153.563 162.294 153.516C162.243 153.469 162.175 153.446 162.09 153.446C162.021 153.446 161.96 153.459 161.906 153.484C161.854 153.509 161.804 153.547 161.756 153.598L161.666 153.538C161.726 153.473 161.79 153.425 161.859 153.394C161.929 153.364 162.008 153.348 162.097 153.348Z" fill="#363636"/>
    <path d="M163.328 153.834C163.444 153.834 163.538 153.87 163.613 153.941C163.688 154.012 163.725 154.115 163.725 154.251C163.725 154.346 163.706 154.429 163.667 154.501C163.63 154.571 163.577 154.626 163.51 154.664C163.444 154.702 163.37 154.72 163.286 154.72C163.121 154.72 163.001 154.664 162.925 154.553C162.85 154.439 162.813 154.288 162.813 154.099C162.813 153.946 162.835 153.813 162.878 153.7C162.921 153.587 162.983 153.5 163.064 153.44C163.145 153.379 163.24 153.348 163.351 153.348C163.451 153.348 163.544 153.374 163.629 153.426L163.573 153.506C163.501 153.465 163.426 153.444 163.349 153.444C163.228 153.444 163.131 153.498 163.059 153.606C162.988 153.714 162.95 153.855 162.945 154.029C163.045 153.899 163.173 153.834 163.328 153.834ZM163.286 154.625C163.384 154.625 163.46 154.591 163.512 154.525C163.566 154.457 163.593 154.367 163.593 154.255C163.593 154.144 163.567 154.063 163.515 154.009C163.464 153.956 163.396 153.929 163.311 153.929C163.236 153.929 163.167 153.949 163.104 153.989C163.043 154.028 162.99 154.081 162.945 154.149C162.95 154.304 162.979 154.421 163.033 154.503C163.086 154.584 163.171 154.625 163.286 154.625Z" fill="#363636"/>
    <path d="M164.397 153.37V154.698H164.267V153.498L163.899 153.702L163.838 153.616L164.284 153.37H164.397Z" fill="#363636"/>
    <path d="M166.381 154.698L166.247 154.325H165.601L165.467 154.698H165.33L165.843 153.33H166.011L166.523 154.698H166.381ZM165.639 154.223H166.211L165.926 153.428L165.639 154.223Z" fill="#363636"/>
    <path d="M166.797 154.531C166.828 154.531 166.854 154.54 166.873 154.559C166.894 154.576 166.905 154.598 166.905 154.625C166.905 154.652 166.894 154.676 166.873 154.694C166.854 154.712 166.828 154.72 166.797 154.72C166.767 154.72 166.742 154.711 166.721 154.692C166.7 154.674 166.689 154.651 166.689 154.625C166.689 154.598 166.7 154.576 166.721 154.559C166.742 154.54 166.767 154.531 166.797 154.531Z" fill="#363636"/>
    <path d="M168.059 153.33L168.043 153.43H167.413V153.939H167.958V154.039H167.413V154.599H168.075V154.698H167.279V153.33H168.059Z" fill="#363636"/>
    <path d="M168.408 154.531C168.44 154.531 168.465 154.54 168.484 154.559C168.505 154.576 168.516 154.598 168.516 154.625C168.516 154.652 168.505 154.676 168.484 154.694C168.465 154.712 168.44 154.72 168.408 154.72C168.378 154.72 168.353 154.711 168.332 154.692C168.311 154.674 168.301 154.651 168.301 154.625C168.301 154.598 168.311 154.576 168.332 154.559C168.353 154.54 168.378 154.531 168.408 154.531Z" fill="#363636"/>
    <path d="M169.884 153.348C170.038 153.348 170.154 153.407 170.234 153.524C170.313 153.64 170.352 153.81 170.352 154.035C170.352 154.259 170.312 154.429 170.231 154.547C170.152 154.662 170.036 154.72 169.884 154.72C169.73 154.72 169.613 154.662 169.534 154.547C169.455 154.429 169.415 154.258 169.415 154.033C169.415 153.808 169.455 153.638 169.534 153.522C169.613 153.406 169.73 153.348 169.884 153.348ZM169.884 153.444C169.661 153.444 169.55 153.64 169.55 154.033C169.55 154.427 169.661 154.625 169.884 154.625C169.993 154.625 170.075 154.577 170.131 154.481C170.187 154.385 170.216 154.236 170.216 154.035C170.216 153.834 170.187 153.686 170.131 153.59C170.075 153.493 169.993 153.444 169.884 153.444Z" fill="#363636"/>
    <path d="M170.731 154.531C170.762 154.531 170.788 154.54 170.807 154.559C170.828 154.576 170.838 154.598 170.838 154.625C170.838 154.654 170.827 154.69 170.805 154.734L170.679 155H170.585L170.675 154.706C170.658 154.698 170.646 154.687 170.637 154.672C170.628 154.658 170.623 154.642 170.623 154.625C170.623 154.598 170.634 154.576 170.655 154.559C170.676 154.54 170.701 154.531 170.731 154.531Z" fill="#363636"/>
    <path d="M171.556 153.348C171.71 153.348 171.827 153.407 171.906 153.524C171.985 153.64 172.025 153.81 172.025 154.035C172.025 154.259 171.985 154.429 171.904 154.547C171.825 154.662 171.709 154.72 171.556 154.72C171.403 154.72 171.286 154.662 171.207 154.547C171.128 154.429 171.088 154.258 171.088 154.033C171.088 153.808 171.128 153.638 171.207 153.522C171.286 153.406 171.403 153.348 171.556 153.348ZM171.556 153.444C171.334 153.444 171.222 153.64 171.222 154.033C171.222 154.427 171.334 154.625 171.556 154.625C171.666 154.625 171.748 154.577 171.803 154.481C171.86 154.385 171.888 154.236 171.888 154.035C171.888 153.834 171.86 153.686 171.803 153.59C171.748 153.493 171.666 153.444 171.556 153.444Z" fill="#363636"/>
    <path d="M172.764 153.37V154.698H172.634V153.498L172.266 153.702L172.205 153.616L172.651 153.37H172.764Z" fill="#363636"/>
    <path d="M173.699 153.834C173.814 153.834 173.909 153.87 173.983 153.941C174.058 154.012 174.095 154.115 174.095 154.251C174.095 154.346 174.076 154.429 174.037 154.501C174 154.571 173.947 154.626 173.88 154.664C173.814 154.702 173.74 154.72 173.656 154.72C173.492 154.72 173.371 154.664 173.295 154.553C173.22 154.439 173.183 154.288 173.183 154.099C173.183 153.946 173.205 153.813 173.248 153.7C173.291 153.587 173.353 153.5 173.434 153.44C173.515 153.379 173.61 153.348 173.721 153.348C173.821 153.348 173.914 153.374 173.999 153.426L173.943 153.506C173.871 153.465 173.796 153.444 173.719 153.444C173.598 153.444 173.501 153.498 173.43 153.606C173.358 153.714 173.32 153.855 173.315 154.029C173.415 153.899 173.543 153.834 173.699 153.834ZM173.656 154.625C173.755 154.625 173.83 154.591 173.882 154.525C173.936 154.457 173.963 154.367 173.963 154.255C173.963 154.144 173.937 154.063 173.885 154.009C173.834 153.956 173.766 153.929 173.681 153.929C173.606 153.929 173.537 153.949 173.474 153.989C173.413 154.028 173.36 154.081 173.315 154.149C173.32 154.304 173.349 154.421 173.403 154.503C173.456 154.584 173.541 154.625 173.656 154.625Z" fill="#363636"/>
    <path d="M175.053 153.37V153.46L174.465 154.714L174.344 154.678L174.918 153.468H174.221V153.37H175.053Z" fill="#363636"/>
    <path d="M175.736 153.37V154.698H175.606V153.498L175.239 153.702L175.178 153.616L175.624 153.37H175.736Z" fill="#363636"/>
    <path d="M176.636 153.37V154.698H176.506V153.498L176.139 153.702L176.078 153.616L176.524 153.37H176.636Z" fill="#363636"/>
    <path d="M177.412 153.348C177.538 153.348 177.637 153.381 177.71 153.446C177.785 153.511 177.822 153.595 177.822 153.698C177.822 153.784 177.802 153.866 177.762 153.941C177.721 154.017 177.658 154.101 177.571 154.191C177.486 154.282 177.348 154.417 177.157 154.597H177.863L177.845 154.698H177.004V154.601C177.209 154.406 177.355 154.262 177.443 154.169C177.533 154.075 177.596 153.993 177.632 153.925C177.669 153.856 177.688 153.782 177.688 153.704C177.688 153.625 177.662 153.563 177.609 153.516C177.559 153.469 177.491 153.446 177.405 153.446C177.337 153.446 177.275 153.459 177.222 153.484C177.169 153.509 177.119 153.547 177.071 153.598L176.982 153.538C177.041 153.473 177.106 153.425 177.174 153.394C177.245 153.364 177.324 153.348 177.412 153.348Z" fill="#363636"/>
    <path d="M178.465 153.348C178.549 153.348 178.621 153.363 178.682 153.392C178.745 153.421 178.793 153.461 178.826 153.512C178.859 153.561 178.875 153.617 178.875 153.68C178.875 153.766 178.847 153.837 178.792 153.891C178.738 153.945 178.668 153.978 178.581 153.991C178.679 153.995 178.759 154.027 178.821 154.085C178.886 154.142 178.918 154.222 178.918 154.323C178.918 154.4 178.898 154.469 178.859 154.529C178.821 154.589 178.764 154.636 178.691 154.67C178.62 154.704 178.537 154.72 178.442 154.72C178.269 154.72 178.126 154.663 178.014 154.549L178.097 154.483C178.148 154.532 178.2 154.568 178.254 154.591C178.309 154.612 178.371 154.623 178.438 154.623C178.546 154.623 178.63 154.595 178.691 154.541C178.753 154.486 178.783 154.414 178.783 154.325C178.783 154.138 178.671 154.045 178.447 154.045H178.348L178.366 153.951H178.438C178.523 153.951 178.596 153.929 178.655 153.883C178.715 153.837 178.745 153.771 178.745 153.686C178.745 153.613 178.719 153.555 178.667 153.512C178.614 153.468 178.545 153.446 178.458 153.446C178.395 153.446 178.338 153.456 178.286 153.476C178.233 153.495 178.18 153.526 178.126 153.57L178.057 153.498C178.117 153.447 178.179 153.41 178.245 153.386C178.311 153.361 178.384 153.348 178.465 153.348Z" fill="#363636"/>
    <circle cx="134.5" cy="152.5" r="1.5" fill="#CD3232"/>
  </g>
  <path d="M-60.2412 269.01C-60.2412 269.01 -54.9083 258.129 -42.8142 254.888C-32.9192 252.237 -25.7527 259.769 -16.5739 257.31C-6.03346 254.485 3.49187 241.85 2.43911 237.921C0.191206 229.531 -9.47905 264.504 -13.6869 284.433C-18.3608 306.57 10.4129 320.167 25.8333 316.035C37.5168 312.905 70.1863 304.151 78.5839 301.901C91.0794 298.553 112.366 274.404 94.7442 256.301C83.8576 245.117 41.0497 208.209 39.4935 202.401C38.283 197.883 14.3986 108.745 14.3986 108.745C14.3986 108.745 13.3246 104.737 17.1965 101.418C17.5058 101.153 17.6717 100.71 17.3635 100.444C13.4069 97.0235 -18.9 105.946 -20.9873 110.696C-21.1599 111.088 -20.772 111.402 -20.3456 111.451C-14.3828 112.127 -13.3003 116.167 -13.3003 116.167C-13.3003 116.167 10.6419 205.52 11.7946 209.822C13.2356 215.2 -1.40732 260.758 -7.36409 281.356C-13.3209 301.953 10.9553 312.924 24.059 309.413C37.1626 305.902 65.0499 298.43 76.8096 295.279C88.5693 292.128 101.048 274.67 92.9164 263.247C90.6631 260.081 79.5516 247.922 73.6119 242.828C60.7396 231.787 0.00506604 253.79 2.19533 261.964C4.3856 270.138 76.7655 253.256 68.9339 247.746C61.1022 242.237 50.999 257.866 58.9709 284.562C67.9528 314.639 92.0963 327.306 123.072 319.006C154.048 310.706 167.283 281.799 160.718 257.299C155.401 237.456 137.535 223.264 112.615 221.22C108.978 220.922 106.619 219.861 105.803 216.817L99.8324 194.533C99.6274 191.594 101.333 189.951 104.259 187.825C104.408 187.716 104.482 187.513 104.352 187.381C101.857 184.856 73.5916 191.936 73.2342 195.756C73.2189 195.918 73.3553 196.042 73.5142 196.081C76.6716 196.84 78.6915 197.448 80.1959 199.794L86.167 222.079C86.7602 224.292 85.8837 227.659 82.7459 229.224C67.318 236.917 55.7589 253.768 60.4161 274.467C61.7177 279.325 65.1349 281.461 69.5112 281.737C102.397 283.814 131.047 234.331 149.059 248.203C154.366 252.291 157.574 260.192 157.329 271.325C156.892 291.167 140.171 308.821 121.804 314.274C103.438 319.727 81.1668 316.632 67.9757 293.215C63.9017 285.983 55.449 271.418 66.0007 266.054C83.6545 257.081 109.409 260.879 123.18 260.647C136.951 260.415 147.99 255.514 154.162 250.04C161.987 243.102 168.204 243.073 176.576 243.342C185.935 243.643 192.429 244.858 199.362 236.315" stroke="#1F1F1F" stroke-width="2"/>
  <defs>
    <linearGradient id="paint0_linear_11_6" x1="-49" y1="0" x2="-49" y2="374" gradientUnits="userSpaceOnUse">
      <stop stop-color="#C0C0C0"/>
      <stop offset="1" stop-opacity="0"/>
    </linearGradient>
    <linearGradient id="paint1_linear_11_6" x1="134.852" y1="153.488" x2="119.115" y2="96.6475" gradientUnits="userSpaceOnUse">
      <stop stop-color="#C0C0C0" stop-opacity="0"/>
      <stop offset="0.0579311" stop-color="#FF0000"/>
      <stop offset="1" stop-opacity="0"/>
    </linearGradient>
  </defs>
</svg>
