<svg width="138" height="35" viewBox="0 0 138 35" fill="none" xmlns="http://www.w3.org/2000/svg">
  <path d="M22.9464 2.45264V14.6698H12.2311V2.45264H7.36084V32.5258H12.2311V19.3684H22.9464V32.5258H27.8176V2.45264H22.9464Z" fill="white"/>
  <path d="M49.2481 2.45264L38.5329 21.8351V2.45264H33.6626V32.5258H38.5329L49.2481 11.8498V32.5258H54.1184V2.45264H49.2481Z" fill="white"/>
  <path d="M75.5499 2.45264L64.8337 21.8351V2.45264H59.9634V32.5258H64.8337L75.5499 11.8498V32.5258H80.4202V2.45264H75.5499Z" fill="white"/>
  <path d="M103.799 32.5258H108.669L98.9287 16.5494L105.747 2.45264H100.877L94.9668 14.6698H91.1354V2.45264H86.2651V14.6698V19.3684V32.5258H91.1354V19.3684H95.7769L103.799 32.5258Z" fill="white"/>
  <path d="M128.119 2.45264H125.332H117.755H115.489H114.967L110.618 6.64775V10.407V25.6404V28.3297L114.967 32.5258H115.489H118.864H124.358H128.152H128.255L133.023 27.9249V26.0452V23.1276H128.152V25.9785L126.236 27.8262H116.984L115.489 26.3834V8.59407L116.984 7.15124H126.102L128.152 9.1295V12.6342H133.023V9.87252V7.18318L128.119 2.45264Z" fill="white"/>
</svg>
