<svg width="67" height="72" viewBox="0 0 67 72" fill="none" xmlns="http://www.w3.org/2000/svg">
  <g clip-path="url(#clip0_2_2090)">
    <mask id="mask0_2_2090" style="mask-type:luminance" maskUnits="userSpaceOnUse" x="0" y="0" width="66" height="72">
      <path d="M65.3532 0.0956116H0.673828V71.5992H65.3532V0.0956116Z" fill="white"/>
    </mask>
    <g mask="url(#mask0_2_2090)">
      <path fill-rule="evenodd" clip-rule="evenodd" d="M0.673828 22.4765H64.6486V19.7755H0.673828V22.4765Z" fill="white"/>
      <path fill-rule="evenodd" clip-rule="evenodd" d="M49.6852 27.3966H42.6135V52.6501H39.2304V35.5156C39.2304 34.0809 39.1486 33.1736 38.8832 32.2869C38.3708 30.5149 37.1808 28.6207 35.6852 27.8604C34.7823 27.3966 33.7375 27.2066 32.6511 27.2066C31.381 27.2066 30.191 27.4808 29.1876 28.1138C27.8541 28.9368 26.8291 30.7254 26.3585 32.4563C26.1333 33.2579 26.0716 34.1435 26.0716 35.5156V52.6501H22.6901V27.3966H15.6176V52.6501H12.2769L12.2352 27.3966H5.38873V52.6501H2.02733V27.3966H0.673828V24.6956H64.6481V27.3966H63.2963V52.6501H59.9349V27.3966H53.0466V52.6501H49.6852V27.3966Z" fill="white"/>
      <path fill-rule="evenodd" clip-rule="evenodd" d="M1.62988 15.5877L3.59767 12.8867L5.54538 15.5877L3.59767 18.2889L1.62988 15.5877Z" fill="white"/>
      <path fill-rule="evenodd" clip-rule="evenodd" d="M10.5467 63.6319C11.6934 64.1386 12.6779 65.363 12.6779 67.1352C12.6779 69.4145 11.4682 70.8697 9.93083 71.313C8.98772 71.6084 8.00477 71.6084 7.1034 71.6084H1.62891V56.1836H7.43062C8.14815 56.1836 8.94789 56.204 9.74729 56.4156C11.1209 56.795 12.3909 57.9771 12.3909 60.1508C12.3909 62.1551 11.2843 63.1257 10.5467 63.5269V63.6319ZM7.53226 62.8725C8.06658 62.8725 8.55725 62.8089 8.96764 62.5563C9.56186 62.2185 9.97256 61.5011 9.97256 60.425C9.97256 59.3697 9.48029 58.6732 8.76245 58.4206C8.41547 58.2726 7.9847 58.2297 7.43062 58.2297H4.00738V62.8725H7.53226ZM10.1978 67.1352C10.1978 66.0166 9.66541 65.3836 9.02945 65.1094C8.61906 64.9402 8.14815 64.8982 7.73778 64.8982H4.00738V69.5827H7.69763C8.14815 69.5827 8.57892 69.5407 8.92781 69.4145C9.72722 69.0972 10.1978 68.3587 10.1978 67.1352Z" fill="white"/>
      <path fill-rule="evenodd" clip-rule="evenodd" d="M13.3914 15.4819C12.879 15.2919 12.5101 14.8065 12.5101 14.2165C12.5101 13.4775 13.0842 12.8864 13.8221 12.8864C14.5397 12.8864 15.1138 13.4775 15.1138 14.2165C15.1138 14.8065 14.7649 15.2919 14.2526 15.4613L15.5028 18.078H12.1411L13.3914 15.4819Z" fill="white"/>
      <path fill-rule="evenodd" clip-rule="evenodd" d="M31.6571 69.3504L30.0581 71.6079H15.0117L23.17 56.1832H28.172V69.4139L31.6571 69.3504ZM25.8353 69.5186V58.0609H24.2781L18.3532 69.5186H25.8353Z" fill="white"/>
      <path fill-rule="evenodd" clip-rule="evenodd" d="M22.6577 17.8842H42.5811V15.1832H22.6577V17.8842Z" fill="white"/>
      <path fill-rule="evenodd" clip-rule="evenodd" d="M28.71 12.9648H36.7866V10.2638H28.71V12.9648Z" fill="white"/>
      <path fill-rule="evenodd" clip-rule="evenodd" d="M29.667 3.10331H35.612V0.422913H29.667V3.10331Z" fill="white"/>
      <path fill-rule="evenodd" clip-rule="evenodd" d="M30.3042 5.3428H34.6906L32.4973 8.38139L30.3042 5.3428Z" fill="white"/>
      <path fill-rule="evenodd" clip-rule="evenodd" d="M47.4264 56.1832V71.6083H45.048V64.4547H37.4438V71.6083H35.0854V56.1832H37.4438V62.3446H45.048V56.1832H47.4264Z" fill="white"/>
      <path fill-rule="evenodd" clip-rule="evenodd" d="M50.9944 15.4613C50.482 15.2919 50.1331 14.8065 50.1331 14.2165C50.1331 13.4775 50.7073 12.8864 51.4251 12.8864C52.1628 12.8864 52.7368 13.4775 52.7368 14.2165C52.7368 14.8065 52.3679 15.2919 51.8556 15.4819L53.1058 18.078H49.7441L50.9944 15.4613Z" fill="white"/>
      <path fill-rule="evenodd" clip-rule="evenodd" d="M57.8306 65.3194L53.7114 71.6079H51.333L56.704 63.6529L51.5799 56.183H54.429L58.1594 61.6272L61.7043 56.183H64.001L59.2659 63.273L64.9642 71.6079H62.1351L57.8306 65.3194Z" fill="white"/>
      <path fill-rule="evenodd" clip-rule="evenodd" d="M59.6167 15.5877L61.5644 12.8866L63.5322 15.5877L61.5644 18.2887L59.6167 15.5877Z" fill="white"/>
    </g>
  </g>
  <defs>
    <clipPath id="clip0_2_2090">
      <rect width="66" height="72" fill="white" transform="translate(0.544922)"/>
    </clipPath>
  </defs>
</svg>
