<svg width="183" height="72" viewBox="0 0 183 72" fill="none" xmlns="http://www.w3.org/2000/svg">
  <g clip-path="url(#clip0_2_2087)">
    <path d="M121.201 48.0864H121.176V43.6704H120.238V49.6224H121.09L124.359 45.2064H124.374V49.6224H125.311V43.6704H124.461L121.201 48.0864ZM126.464 44.5152H128.253V49.6166H129.189V44.5152H130.977V43.6646H126.464V44.5152ZM116.583 48.8506C116.019 48.8173 115.489 48.5702 115.101 48.1599C114.714 47.7494 114.498 47.2067 114.498 46.6426C114.498 46.0787 114.714 45.5359 115.101 45.1254C115.489 44.7149 116.019 44.4678 116.583 44.4346C116.921 44.43 117.256 44.5018 117.563 44.6448C117.87 44.7878 118.14 44.9981 118.354 45.2602L119.009 44.7245C118.714 44.3652 118.343 44.0763 117.922 43.8789C117.5 43.6815 117.04 43.5807 116.575 43.584C114.787 43.584 113.423 44.9453 113.423 46.6464C113.423 48.3475 114.787 49.7069 116.575 49.7069C117.047 49.7071 117.513 49.6028 117.941 49.4012C118.367 49.1996 118.744 48.906 119.044 48.5414L118.388 48C118.169 48.2688 117.893 48.4848 117.579 48.6321C117.265 48.7793 116.922 48.854 116.575 48.8506H116.583ZM100.061 46.4198C100.285 46.3146 100.474 46.1472 100.606 45.9373C100.737 45.7277 100.805 45.4846 100.801 45.2371C100.801 44.3866 100.077 43.6646 99.0131 43.6646H96.6211V49.6166H99.1324C100.286 49.6166 101.092 48.8083 101.092 47.8733C101.082 47.5557 100.978 47.2481 100.793 46.9895C100.609 46.7307 100.351 46.5325 100.053 46.4198H100.061ZM97.5614 44.473H99.0093C99.1187 44.4678 99.2283 44.4847 99.331 44.5229C99.4337 44.5609 99.5277 44.6196 99.6071 44.6951C99.6864 44.7706 99.7496 44.8614 99.7929 44.962C99.836 45.0626 99.8583 45.1709 99.8583 45.2803C99.8583 45.39 99.836 45.4982 99.7929 45.5988C99.7496 45.6995 99.6864 45.7903 99.6071 45.8657C99.5277 45.9412 99.4337 45.9997 99.331 46.038C99.2283 46.0762 99.1187 46.0931 99.0093 46.0877H97.5614V44.473ZM99.1362 48.8083H97.5614V46.848H99.1362C99.3958 46.848 99.6448 46.9511 99.8283 47.1343C100.012 47.3176 100.115 47.5661 100.115 47.8253C100.115 48.0845 100.012 48.3331 99.8283 48.5165C99.6448 48.6996 99.3958 48.8026 99.1362 48.8026V48.8083ZM112.427 45.577C112.427 44.5152 111.575 43.657 110.426 43.657H108.041V49.609H108.979V47.4912H110.426C111.583 47.4912 112.427 46.6406 112.427 45.577ZM110.426 46.6406H108.979V44.5152H110.426C110.569 44.5092 110.712 44.5321 110.847 44.5828C110.981 44.6335 111.104 44.7108 111.208 44.8101C111.312 44.9094 111.394 45.0286 111.451 45.1605C111.507 45.2924 111.536 45.4345 111.536 45.5779C111.536 45.7215 111.507 45.8634 111.451 45.9955C111.394 46.1274 111.312 46.2467 111.208 46.3459C111.104 46.4452 110.981 46.5226 110.847 46.5732C110.712 46.6237 110.569 46.6468 110.426 46.6406ZM106.772 48.7661H103.407V46.9555H106.005V46.105H103.415V44.5152H106.684V43.6646H102.478V49.6166H106.78L106.772 48.7661ZM93.929 45.1949H93.9463V49.6109H94.8828V43.6589H94.0309L90.7793 48.0749H90.7524V43.6589H89.8159V49.6109H90.6678L93.929 45.1949ZM79.2073 48.0442C78.9766 48.5107 78.6959 48.8256 78.1267 48.8256C77.9598 48.8243 77.7936 48.8018 77.6325 48.7584V49.5744C77.8275 49.652 78.0361 49.6892 78.2459 49.6838C79.0804 49.6838 79.6496 49.2 80.0592 48.2976L82.1455 43.6646H81.1841L79.7208 46.9882H79.7035L77.9055 43.6646H76.8672L79.2439 47.9846L79.2073 48.0442ZM84.2069 47.0227H87.1431V49.6166H88.0796V43.6646H87.1431V46.1722H84.2203V43.6646H83.282V49.6166H84.2203L84.2069 47.0227ZM136.415 48.768H133.052V46.9574H135.648V46.1069H133.052V44.5171H136.321V43.6666H132.116V49.6186H136.415V48.768ZM139.107 49.6186H140.044V44.5152H141.832V43.6646H137.319V44.5152H139.107V49.6186ZM100.89 53.4566H99.6977L97.0153 56.3482V53.4566H96.0827V59.4086H97.0191V57.623L97.9556 56.6016L99.915 59.4086H101.069L98.5824 55.9219L100.89 53.4566ZM92.5234 56.7802H92.5061L90.6986 53.4566H89.6602L92.0446 57.7766L92.01 57.8362C91.7792 58.3027 91.4985 58.6176 90.9274 58.6176C90.7605 58.6161 90.5945 58.5934 90.4332 58.5504V59.3664C90.6284 59.4434 90.8368 59.4806 91.0466 59.4758C91.8811 59.4758 92.4522 58.992 92.8618 58.0896L94.9482 53.4566H93.9867L92.5234 56.7802ZM179.461 52.8192C180.313 52.8192 180.842 52.2432 180.842 51.5424H180.127C180.117 51.7123 180.043 51.8721 179.92 51.989C179.796 52.1059 179.632 52.171 179.462 52.171C179.292 52.171 179.128 52.1059 179.005 51.989C178.881 51.8721 178.807 51.7123 178.798 51.5424H178.083C178.079 52.2413 178.606 52.8192 179.457 52.8192H179.461ZM81.3937 55.9642H78.4478V53.4566H77.5114V59.4086H78.4478V56.8147H81.386V59.4086H82.3224V53.4566H81.386L81.3937 55.9642ZM85.8433 53.4566L83.4589 59.4086H84.4203L85.0164 57.8726H87.6565L88.2526 59.4086H89.2487L86.8643 53.4566H85.8433ZM85.351 57.024L86.3124 54.528H86.3278L87.2893 57.024H85.351ZM181.136 53.4528L177.883 57.8688H177.858V53.4528H176.921V59.4048H177.771L181.04 54.9888H181.055V59.4048H181.994V53.4528H181.136ZM103.149 57.8688H103.122V53.4528H102.186V59.4048H103.038L106.307 54.9888H106.324V59.4048H107.26V53.4528H106.409L103.149 57.8688ZM160.678 53.376C160.269 53.3664 159.862 53.4384 159.481 53.5878C159.1 53.7372 158.752 53.961 158.459 54.2463C158.166 54.5315 157.932 54.8723 157.773 55.2488C157.613 55.6251 157.53 56.0296 157.529 56.4384C157.529 58.1395 158.89 59.4989 160.678 59.4989C162.467 59.4989 163.83 58.1395 163.83 56.4384C163.83 54.7373 162.467 53.376 160.678 53.376ZM160.678 58.6483C160.24 58.6483 159.812 58.5185 159.448 58.2755C159.083 58.0324 158.799 57.6868 158.632 57.2826C158.464 56.8783 158.42 56.4334 158.506 56.0043C158.591 55.5752 158.803 55.1812 159.113 54.8719C159.423 54.5626 159.818 54.3521 160.247 54.2671C160.677 54.1818 161.123 54.226 161.527 54.3936C161.932 54.5614 162.278 54.8452 162.521 55.2092C162.764 55.5731 162.894 56.001 162.894 56.4384C162.895 56.7289 162.838 57.0167 162.727 57.2853C162.616 57.5537 162.453 57.7976 162.247 58.0026C162.041 58.2077 161.796 58.3697 161.527 58.4797C161.258 58.5896 160.969 58.6449 160.678 58.6426V58.6483ZM146.916 53.376C145.128 53.376 143.765 54.7373 143.765 56.4384C143.765 58.1395 145.128 59.4989 146.916 59.4989C148.705 59.4989 150.066 58.1395 150.066 56.4384C150.065 56.0296 149.982 55.6251 149.822 55.2488C149.662 54.8723 149.429 54.5315 149.136 54.2463C148.842 53.961 148.495 53.7372 148.114 53.5878C147.733 53.4384 147.326 53.3664 146.916 53.376ZM146.916 58.6483C146.478 58.6487 146.049 58.5193 145.685 58.2764C145.32 58.0335 145.036 57.6881 144.868 57.284C144.7 56.8796 144.656 56.4348 144.742 56.0054C144.827 55.5763 145.038 55.182 145.348 54.8726C145.658 54.5631 146.053 54.3523 146.483 54.2671C146.913 54.1818 147.358 54.2258 147.763 54.3934C148.168 54.561 148.514 54.8448 148.757 55.2088C149 55.5729 149.13 56.0008 149.13 56.4384C149.131 56.7287 149.074 57.0165 148.964 57.2847C148.853 57.5532 148.69 57.797 148.484 58.0019C148.278 58.2069 148.033 58.3692 147.764 58.4792C147.495 58.5892 147.207 58.6447 146.916 58.6426V58.6483ZM165.184 59.4163H166.12V54.3072H169.018V53.4566H165.186L165.184 59.4163ZM171.083 57.8803H171.058V53.4643H170.122V59.4163H170.974L174.243 55.0003H174.26V59.4163H175.196V53.4643H174.344L171.083 57.8803ZM152.173 55.2442C152.104 58.0915 151.662 58.6022 151.108 58.6022C150.949 58.5997 150.791 58.5713 150.641 58.5178V59.3683C150.813 59.4522 151.003 59.4954 151.195 59.495C152.31 59.495 153.008 58.727 153.093 55.2442L153.118 54.3091H155.233V59.4106H156.169V53.4586H152.218L152.173 55.2442ZM120.052 54.3091H121.849V59.4106H122.786V54.3072H124.574V53.4566H120.053L120.052 54.3091ZM112.427 57.8784H112.4V53.4624H111.466V59.4144H112.318L115.587 54.9984H115.604V59.4144H116.54V53.4624H115.688L112.427 57.8784ZM136.271 53.4624H135.173L133.733 55.6128H133.716L132.277 53.4624H131.162L133.12 56.3194L130.991 59.4144H132.089L133.698 57.0067H133.716L135.31 59.4086H136.427L134.296 56.2867L136.271 53.4624ZM126.657 56.7533H129.254V55.9027H126.657V54.313H129.926V53.4624H125.713V59.4144H130.012V58.56H126.657V56.7533ZM141.484 55.9699H138.538V53.4566H137.602V59.4086H138.538V56.8147H141.476V59.4086H142.413V53.4566H141.476L141.484 55.9699Z" fill="white"/>
    <path d="M37.1461 28.128C35.5868 28.128 34.0626 28.5898 32.766 29.4547C31.4695 30.3197 30.4591 31.5491 29.8624 32.9875C29.2655 34.426 29.1094 36.0086 29.4136 37.5358C29.7178 39.0628 30.4687 40.4653 31.5713 41.5663C32.6739 42.6672 34.0787 43.417 35.608 43.7207C37.1373 44.0244 38.7225 43.8685 40.1631 43.2728C41.6036 42.677 42.835 41.668 43.7013 40.3734C44.5675 39.0789 45.03 37.5569 45.03 36C45.03 33.9122 44.1993 31.91 42.7208 30.4337C41.2423 28.9574 39.2369 28.128 37.1461 28.128ZM9.0718 36C9.0718 28.5654 12.0296 21.4355 17.2946 16.1784C22.5594 10.9214 29.7003 7.968 37.1461 7.968V0C17.2441 0 1.0918 16.128 1.0918 36C1.0918 55.872 17.2441 72 37.1461 72V64.032C29.7003 64.032 22.5594 61.0787 17.2946 55.8217C12.0296 50.5645 9.0718 43.4346 9.0718 36ZM37.1461 45.984C35.1684 45.984 33.2351 45.3984 31.5909 44.3013C29.9466 43.2044 28.665 41.645 27.9082 39.8208C27.1513 37.9964 26.9532 35.9889 27.3392 34.0522C27.7249 32.1155 28.6773 30.3366 30.0756 28.9402C31.474 27.5439 33.2557 26.5932 35.1953 26.2078C37.135 25.8227 39.1454 26.0204 40.9725 26.7759C42.7996 27.5316 44.3612 28.8113 45.4599 30.4531C46.5587 32.0951 47.1452 34.0253 47.1452 36H55.1252C55.1252 32.4493 54.0707 28.9786 52.0951 26.0264C50.1195 23.0742 47.3115 20.7732 44.0264 19.4145C40.7412 18.0558 37.1261 17.7003 33.6386 18.3929C30.1508 19.0856 26.9473 20.7953 24.4329 23.3061C21.9185 25.8167 20.2062 29.0154 19.5125 32.4977C18.8187 35.98 19.1748 39.5896 20.5356 42.87C21.8964 46.1503 24.2008 48.9539 27.1575 50.9265C30.1141 52.8991 33.5901 53.952 37.1461 53.952V45.984ZM37.1461 7.968V15.936C42.4754 15.936 47.5865 18.0499 51.3548 21.8125C55.1232 25.5754 57.2404 30.6787 57.2404 36C57.2404 41.3213 55.1232 46.4246 51.3548 50.1875C47.5865 53.9501 42.4754 56.064 37.1461 56.064V64.032C44.5918 64.032 51.7326 61.0787 56.9975 55.8217C62.2624 50.5645 65.2204 43.4346 65.2204 36C65.2204 28.5654 62.2624 21.4355 56.9975 16.1784C51.7326 10.9214 44.5918 7.968 37.1461 7.968ZM88.3374 26.592L78.994 16.5638H77.5269V36H81.6246V25.056L87.7644 31.488H88.9181L95.0579 25.0522V35.9962H99.1556V16.5715H97.6788L88.3374 26.592ZM107.028 28.3354V16.8H102.932V36.2285H104.517L116.465 24.4589V36H120.561V16.5715H118.977L107.028 28.3354ZM133.204 20.2944C135.333 20.2944 137.231 21.4464 138.477 23.3357L141.361 20.5517C140.429 19.2609 139.204 18.2087 137.786 17.4815C136.368 16.7543 134.798 16.3727 133.204 16.368C127.67 16.368 123.013 20.7264 123.013 26.3923C123.013 32.0582 127.68 36.4166 133.204 36.4166C134.798 36.4118 136.368 36.0303 137.786 35.3032C139.204 34.5759 140.429 33.5238 141.361 32.233L138.477 29.449C137.231 31.3382 135.333 32.4902 133.204 32.4902C129.899 32.4902 127.207 29.9597 127.207 26.3923C127.207 22.825 129.899 20.3021 133.204 20.3021V20.2944ZM148.078 28.3354V16.8H143.98V36.2285H145.567L157.519 24.4589V36H161.617V16.5715H160.031L148.078 28.3354ZM174.254 32.4902C170.947 32.4902 168.257 29.9597 168.257 26.3923C168.257 22.825 170.949 20.2944 174.254 20.2944C176.383 20.2944 178.281 21.4464 179.525 23.3357L182.409 20.5517C181.477 19.2611 180.251 18.2091 178.834 17.4819C177.416 16.7547 175.846 16.3731 174.252 16.368C168.716 16.368 164.049 20.7264 164.049 26.3923C164.049 32.0582 168.716 36.4166 174.252 36.4166C175.847 36.4143 177.419 36.0346 178.839 35.3088C180.259 34.5828 181.486 33.5315 182.421 32.2406L179.536 29.4566C178.281 31.3459 176.383 32.4979 174.254 32.4979V32.4902Z" fill="white"/>
  </g>
  <defs>
    <clipPath id="clip0_2_2087">
      <rect width="181.521" height="72" fill="white" transform="translate(0.904297)"/>
    </clipPath>
  </defs>
</svg>
