<svg width="186" height="69" viewBox="0 0 186 69" fill="none" xmlns="http://www.w3.org/2000/svg">
  <path d="M18.5393 28L18.5511 15.88L9.39106 15.88L9.37931 28H3.49931L3.52614 0.319998L9.40614 0.319998L9.39556 11.24H18.5556L18.5661 0.319998L24.4461 0.319998L24.4193 28H18.5393ZM46.3428 22.12C46.342 22.9467 46.4614 23.56 46.701 23.96C46.9407 24.3333 47.3404 24.6133 47.9002 24.8L46.6966 28.56C45.4434 28.4533 44.417 28.16 43.6174 27.68C42.8446 27.2 42.2453 26.4533 41.8196 25.44C40.4309 27.5733 38.3098 28.64 35.4565 28.64C33.3498 28.64 31.6704 28.04 30.4183 26.84C29.1928 25.6133 28.581 24.0267 28.5829 22.08C28.5851 19.76 29.4268 17.9867 31.108 16.76C32.7892 15.5333 35.2031 14.92 38.3498 14.92L40.7898 14.92L40.7908 13.88C40.7921 12.5733 40.4996 11.6667 39.9134 11.16C39.3273 10.6533 38.3542 10.4 36.9942 10.4C35.5009 10.4 33.6338 10.7733 31.3931 11.52L30.1168 7.71999C32.7578 6.68 35.3716 6.16 37.9583 6.16C40.8383 6.16 42.9577 6.78666 44.3165 8.04C45.6753 9.26666 46.3535 11.1067 46.3511 13.56L46.3428 22.12ZM37.0205 24.56C38.6205 24.56 39.8746 23.7733 40.7827 22.2L40.7867 18.16H38.9067C35.84 18.16 34.3056 19.3067 34.3033 21.6C34.3024 22.5333 34.5284 23.2667 34.9812 23.8C35.4607 24.3067 36.1405 24.56 37.0205 24.56ZM74.6121 28H69.2121L68.62 19.84C68.5412 18.6667 68.5023 17.5467 68.5033 16.48C68.504 15.7333 68.5588 14.1867 68.6678 11.84L64.8943 25.8H60.0543L56.4678 11.88C56.5731 13.2667 56.6249 14.7733 56.6234 16.4C56.6226 17.1733 56.5949 18.3067 56.5401 19.8L56.0521 28H50.6521L52.5127 6.8L59.3127 6.8L62.4991 20.84L65.9127 6.8L72.7527 6.8L74.6121 28ZM22.1124 55.76L22.102 66.48H18.062L17.3883 60H5.2683L4.58202 66.48H0.542017L0.552408 55.76H1.91241C2.41944 55.3866 2.83321 54.9333 3.15373 54.4C3.50091 53.8666 3.80845 52.96 4.07636 51.68C4.34427 50.4 4.57272 48.56 4.76171 46.16L5.32885 38.8H19.8888L19.8724 55.76H22.1124ZM14.5251 42.68H10.2451L10.0023 45.6C9.81342 47.84 9.5717 49.6133 9.2771 50.92C9.00919 52.2 8.63488 53.2133 8.15415 53.96C7.70012 54.68 7.07287 55.28 6.27241 55.76H14.5124L14.5251 42.68ZM34.3988 38.16C37.5722 38.16 40.0512 39.16 41.8359 41.16C43.6207 43.1333 44.5114 45.88 44.5079 49.4C44.5058 51.64 44.0905 53.6133 43.2622 55.32C42.4606 57 41.286 58.3066 39.7384 59.24C38.2175 60.1733 36.4171 60.64 34.3371 60.64C31.1637 60.64 28.6713 59.6533 26.8599 57.68C25.0752 55.68 24.1845 52.92 24.1879 49.4C24.1901 47.16 24.592 45.2 25.3936 43.52C26.222 41.8133 27.3966 40.4933 28.9175 39.56C30.4651 38.6266 32.2922 38.16 34.3988 38.16ZM34.3947 42.4C32.9547 42.4 31.8742 42.9733 31.1531 44.12C30.4586 45.24 30.1103 47 30.1079 49.4C30.1056 51.8 30.4506 53.5733 31.1428 54.72C31.8617 55.84 32.9278 56.4 34.3412 56.4C35.7545 56.4 36.8084 55.84 37.5028 54.72C38.2239 53.5733 38.5856 51.8 38.5879 49.4C38.5903 47 38.2453 45.24 37.5531 44.12C36.8608 42.9733 35.8081 42.4 34.3947 42.4ZM61.4283 48.4C65.0279 48.8 66.8263 50.5066 66.8233 53.52C66.8212 55.7066 65.9796 57.3333 64.2986 58.4C62.6176 59.4666 60.337 60 57.457 60H48.817L48.8374 39.04C51.8246 38.4533 54.5049 38.16 56.8782 38.16C59.6782 38.16 61.8777 38.6533 63.4768 39.64C65.0759 40.6 65.8745 42.0266 65.8726 43.92C65.8715 45.12 65.4838 46.1066 64.7098 46.88C63.9624 47.6266 62.8686 48.1333 61.4283 48.4ZM56.7946 41.92C56.0746 41.92 55.3145 41.96 54.5145 42.04L54.5095 47.16H57.1495C58.1095 47.16 58.8564 46.9466 59.3901 46.52C59.9505 46.0933 60.2312 45.4266 60.2321 44.52C60.2329 43.64 59.9402 42.9866 59.354 42.56C58.7944 42.1333 57.9412 41.92 56.7946 41.92ZM57.3408 56.16C59.7674 56.16 60.9818 55.1466 60.9837 53.12C60.9846 52.1866 60.692 51.4933 60.1057 51.04C59.5462 50.5866 58.6397 50.36 57.3864 50.36H54.5064L54.5008 56.16H57.3408ZM88.779 48.92C88.7788 49.1866 88.7381 49.92 88.6569 51.12H75.4169C75.6017 53.04 76.1204 54.4 76.973 55.2C77.8255 56 78.9851 56.4 80.4518 56.4C81.3585 56.4 82.2119 56.2533 83.0122 55.96C83.8125 55.6666 84.6796 55.2 85.6136 54.56L87.9705 57.76C85.5953 59.68 82.9143 60.64 79.9277 60.64C76.5943 60.64 74.0353 59.64 72.2506 57.64C70.4659 55.64 69.5751 52.9333 69.5785 49.52C69.5805 47.36 69.9558 45.4266 70.7041 43.72C71.4791 41.9866 72.5871 40.6266 74.028 39.64C75.4957 38.6533 77.2295 38.16 79.2295 38.16C82.2428 38.16 84.5885 39.1066 86.2667 41C87.9449 42.8933 88.7823 45.5333 88.779 48.92ZM83.1406 47.32C83.144 43.8 81.879 42.04 79.3457 42.04C78.1724 42.04 77.2519 42.48 76.5844 43.36C75.9436 44.2133 75.5556 45.6133 75.4204 47.56H83.1404L83.1406 47.32ZM104.341 38.16C107.007 38.16 108.98 39.1466 110.258 41.12C111.563 43.0666 112.213 45.8133 112.21 49.36C112.208 51.52 111.873 53.4533 111.204 55.16C110.536 56.8666 109.561 58.2133 108.28 59.2C107.026 60.16 105.532 60.64 103.799 60.64C101.639 60.64 99.893 59.88 98.5611 58.36L98.5516 68.16L92.871 68.8L92.9001 38.8L97.9001 38.8L98.1777 41.28C98.9787 40.24 99.9128 39.4666 100.98 38.96C102.074 38.4266 103.194 38.16 104.341 38.16ZM102.123 56.4C104.896 56.4 106.285 54.0666 106.29 49.4C106.292 46.84 105.987 45.0266 105.375 43.96C104.763 42.8933 103.83 42.36 102.577 42.36C101.777 42.36 101.03 42.6133 100.336 43.12C99.6688 43.6 99.0815 44.2533 98.574 45.08L98.5651 54.32C99.4704 55.7066 100.656 56.4 102.123 56.4ZM132.938 38.8L132.917 60H127.237L127.244 52.44H124.124L120.077 60H113.957L118.926 51.12C116.66 49.9733 115.529 48.1333 115.531 45.6C115.533 43.36 116.348 41.6666 117.976 40.52C119.63 39.3733 122.004 38.8 125.098 38.8H132.938ZM127.248 48.92L127.254 42.56H125.054C122.601 42.56 121.373 43.5866 121.371 45.64C121.369 47.8266 122.554 48.92 124.928 48.92H127.248ZM156.646 38.16C158.566 38.16 160.245 38.6133 161.684 39.52C163.124 40.4 164.242 41.6933 165.041 43.4C165.839 45.08 166.237 47.08 166.235 49.4C166.233 51.5866 165.844 53.5333 165.069 55.24C164.294 56.92 163.173 58.24 161.705 59.2C160.264 60.16 158.557 60.64 156.584 60.64C153.917 60.64 151.771 59.8133 150.146 58.16C148.521 56.48 147.537 54.1733 147.193 51.24H144.193L144.185 60H138.505L138.525 38.8H144.205L144.197 47.2H147.277C147.68 44.4533 148.682 42.2666 150.283 40.64C151.912 38.9866 154.032 38.16 156.646 38.16ZM156.588 56.4C157.948 56.4 158.922 55.8266 159.51 54.68C160.124 53.5333 160.433 51.7733 160.435 49.4C160.439 44.76 159.175 42.44 156.642 42.44C155.362 42.44 154.401 43 153.76 44.12C153.146 45.24 152.837 47 152.835 49.4C152.833 51.7466 153.138 53.5066 153.75 54.68C154.362 55.8266 155.308 56.4 156.588 56.4ZM185.66 38.8L184.936 43.08H178.936L178.919 60H173.239L173.256 43.08H166.896L166.9 38.8H185.66Z" fill="white" fill-opacity="0.5"/>
</svg>
