<svg width="264" height="72" viewBox="0 0 264 72" fill="none" xmlns="http://www.w3.org/2000/svg">
  <path d="M68.7695 25.0401V21.5151H69.2795C69.5595 21.5151 69.7995 21.4051 69.9995 21.1851C70.2095 20.9651 70.3845 20.6151 70.5245 20.1351C70.6745 19.6551 70.7895 19.0251 70.8695 18.2451C70.9595 17.4551 71.0245 16.4901 71.0645 15.3501L71.1395 12.3501H77.9945V21.5151H79.3445V25.0401H77.8595V23.0001H70.2545V25.0401H68.7695ZM71.4095 21.5151H76.2995V13.8351H72.6995L72.6545 15.5751C72.6245 16.7251 72.5645 17.7001 72.4745 18.5001C72.3845 19.2901 72.2545 19.9301 72.0845 20.4201C71.9145 20.9101 71.6895 21.2751 71.4095 21.5151Z" fill="white"/>
  <path d="M84.4064 23.1501C83.7964 23.1501 83.2414 23.0451 82.7414 22.8351C82.2514 22.6151 81.8264 22.3201 81.4664 21.9501C81.1064 21.5701 80.8264 21.1401 80.6264 20.6601C80.4364 20.1701 80.3414 19.6501 80.3414 19.1001C80.3414 18.3601 80.5114 17.6851 80.8514 17.0751C81.1914 16.4551 81.6664 15.9601 82.2764 15.5901C82.8864 15.2101 83.6014 15.0201 84.4214 15.0201C85.2414 15.0201 85.9464 15.2101 86.5364 15.5901C87.1364 15.9601 87.6014 16.4501 87.9314 17.0601C88.2614 17.6701 88.4264 18.3251 88.4264 19.0251C88.4264 19.1451 88.4214 19.2601 88.4114 19.3701C88.4014 19.4701 88.3914 19.5551 88.3814 19.6251H82.0964C82.1264 20.0851 82.2514 20.4901 82.4714 20.8401C82.7014 21.1801 82.9914 21.4501 83.3414 21.6501C83.6914 21.8401 84.0664 21.9351 84.4664 21.9351C84.9064 21.9351 85.3214 21.8251 85.7114 21.6051C86.1114 21.3851 86.3814 21.0951 86.5214 20.7351L87.9314 21.1401C87.7614 21.5201 87.5014 21.8651 87.1514 22.1751C86.8114 22.4751 86.4064 22.7151 85.9364 22.8951C85.4664 23.0651 84.9564 23.1501 84.4064 23.1501ZM82.0514 18.5301H86.7914C86.7614 18.0801 86.6314 17.6851 86.4014 17.3451C86.1814 16.9951 85.8964 16.7251 85.5464 16.5351C85.2064 16.3351 84.8264 16.2351 84.4064 16.2351C83.9964 16.2351 83.6164 16.3351 83.2664 16.5351C82.9264 16.7251 82.6464 16.9951 82.4264 17.3451C82.2064 17.6851 82.0814 18.0801 82.0514 18.5301Z" fill="white"/>
  <path d="M89.7723 23.0001V15.1551H96.5223V23.0001H94.8723V16.6101H91.4223V23.0001H89.7723Z" fill="white"/>
  <path d="M97.9475 20.7051C97.9475 20.2051 98.0875 19.7701 98.3675 19.4001C98.6575 19.0201 99.0525 18.7301 99.5525 18.5301C100.052 18.3201 100.632 18.2151 101.292 18.2151C101.642 18.2151 101.997 18.2401 102.357 18.2901C102.727 18.3401 103.052 18.4201 103.332 18.5301V18.0351C103.332 17.4851 103.167 17.0551 102.837 16.7451C102.507 16.4351 102.032 16.2801 101.412 16.2801C100.972 16.2801 100.557 16.3601 100.167 16.5201C99.7775 16.6701 99.3625 16.8851 98.9225 17.1651L98.3675 16.0551C98.8875 15.7051 99.4075 15.4451 99.9275 15.2751C100.457 15.1051 101.012 15.0201 101.592 15.0201C102.642 15.0201 103.467 15.3001 104.067 15.8601C104.677 16.4101 104.982 17.1951 104.982 18.2151V21.1401C104.982 21.3301 105.012 21.4651 105.072 21.5451C105.142 21.6251 105.257 21.6701 105.417 21.6801V23.0001C105.267 23.0301 105.132 23.0501 105.012 23.0601C104.892 23.0701 104.792 23.0751 104.712 23.0751C104.362 23.0751 104.097 22.9901 103.917 22.8201C103.737 22.6501 103.632 22.4501 103.602 22.2201L103.557 21.7701C103.217 22.2101 102.782 22.5501 102.252 22.7901C101.722 23.0301 101.187 23.1501 100.647 23.1501C100.127 23.1501 99.6625 23.0451 99.2525 22.8351C98.8425 22.6151 98.5225 22.3201 98.2925 21.9501C98.0625 21.5801 97.9475 21.1651 97.9475 20.7051ZM102.942 21.1851C103.062 21.0551 103.157 20.9251 103.227 20.7951C103.297 20.6651 103.332 20.5501 103.332 20.4501V19.5501C103.052 19.4401 102.757 19.3601 102.447 19.3101C102.137 19.2501 101.832 19.2201 101.532 19.2201C100.932 19.2201 100.442 19.3401 100.062 19.5801C99.6925 19.8201 99.5075 20.1501 99.5075 20.5701C99.5075 20.8001 99.5675 21.0201 99.6875 21.2301C99.8175 21.4401 99.9975 21.6101 100.227 21.7401C100.467 21.8701 100.762 21.9351 101.112 21.9351C101.472 21.9351 101.817 21.8651 102.147 21.7251C102.477 21.5851 102.742 21.4051 102.942 21.1851Z" fill="white"/>
  <path d="M111.439 23.1501C110.809 23.1501 110.254 23.0001 109.774 22.7001C109.294 22.4001 108.914 22.0101 108.634 21.5301V26.1951H106.984V15.1551H108.439V16.5651C108.739 16.0951 109.129 15.7201 109.609 15.4401C110.089 15.1601 110.624 15.0201 111.214 15.0201C111.754 15.0201 112.249 15.1301 112.699 15.3501C113.149 15.5601 113.539 15.8551 113.869 16.2351C114.199 16.6151 114.454 17.0501 114.634 17.5401C114.824 18.0201 114.919 18.5301 114.919 19.0701C114.919 19.8201 114.769 20.5051 114.469 21.1251C114.179 21.7451 113.769 22.2401 113.239 22.6101C112.719 22.9701 112.119 23.1501 111.439 23.1501ZM110.899 21.7401C111.249 21.7401 111.564 21.6651 111.844 21.5151C112.134 21.3651 112.379 21.1651 112.579 20.9151C112.789 20.6651 112.949 20.3801 113.059 20.0601C113.169 19.7401 113.224 19.4101 113.224 19.0701C113.224 18.7101 113.164 18.3701 113.044 18.0501C112.924 17.7301 112.749 17.4501 112.519 17.2101C112.299 16.9701 112.039 16.7801 111.739 16.6401C111.449 16.5001 111.129 16.4301 110.779 16.4301C110.569 16.4301 110.349 16.4701 110.119 16.5501C109.889 16.6301 109.674 16.7401 109.474 16.8801C109.274 17.0201 109.099 17.1851 108.949 17.3751C108.799 17.5651 108.694 17.7651 108.634 17.9751V20.0301C108.774 20.3501 108.959 20.6401 109.189 20.9001C109.419 21.1501 109.684 21.3551 109.984 21.5151C110.284 21.6651 110.589 21.7401 110.899 21.7401Z" fill="white"/>
  <path d="M118.263 23.0001V16.6101H115.668V15.1551H122.523V16.6101H119.913V23.0001H118.263Z" fill="white"/>
  <path d="M123.172 20.7051C123.172 20.2051 123.312 19.7701 123.592 19.4001C123.882 19.0201 124.277 18.7301 124.777 18.5301C125.277 18.3201 125.857 18.2151 126.517 18.2151C126.867 18.2151 127.222 18.2401 127.582 18.2901C127.952 18.3401 128.277 18.4201 128.557 18.5301V18.0351C128.557 17.4851 128.392 17.0551 128.062 16.7451C127.732 16.4351 127.257 16.2801 126.637 16.2801C126.197 16.2801 125.782 16.3601 125.392 16.5201C125.002 16.6701 124.587 16.8851 124.147 17.1651L123.592 16.0551C124.112 15.7051 124.632 15.4451 125.152 15.2751C125.682 15.1051 126.237 15.0201 126.817 15.0201C127.867 15.0201 128.692 15.3001 129.292 15.8601C129.902 16.4101 130.207 17.1951 130.207 18.2151V21.1401C130.207 21.3301 130.237 21.4651 130.297 21.5451C130.367 21.6251 130.482 21.6701 130.642 21.6801V23.0001C130.492 23.0301 130.357 23.0501 130.237 23.0601C130.117 23.0701 130.017 23.0751 129.937 23.0751C129.587 23.0751 129.322 22.9901 129.142 22.8201C128.962 22.6501 128.857 22.4501 128.827 22.2201L128.782 21.7701C128.442 22.2101 128.007 22.5501 127.477 22.7901C126.947 23.0301 126.412 23.1501 125.872 23.1501C125.352 23.1501 124.887 23.0451 124.477 22.8351C124.067 22.6151 123.747 22.3201 123.517 21.9501C123.287 21.5801 123.172 21.1651 123.172 20.7051ZM128.167 21.1851C128.287 21.0551 128.382 20.9251 128.452 20.7951C128.522 20.6651 128.557 20.5501 128.557 20.4501V19.5501C128.277 19.4401 127.982 19.3601 127.672 19.3101C127.362 19.2501 127.057 19.2201 126.757 19.2201C126.157 19.2201 125.667 19.3401 125.287 19.5801C124.917 19.8201 124.732 20.1501 124.732 20.5701C124.732 20.8001 124.792 21.0201 124.912 21.2301C125.042 21.4401 125.222 21.6101 125.452 21.7401C125.692 21.8701 125.987 21.9351 126.337 21.9351C126.697 21.9351 127.042 21.8651 127.372 21.7251C127.702 21.5851 127.967 21.4051 128.167 21.1851Z" fill="white"/>
  <path d="M132.209 23.0001V15.1551H133.919L136.619 20.0001L139.334 15.1551H141.014V23.0001H139.439V17.4801L137.129 21.6051H136.094L133.769 17.4801V23.0001H132.209Z" fill="white"/>
  <path d="M146.545 23.1501C145.935 23.1501 145.38 23.0451 144.88 22.8351C144.39 22.6151 143.965 22.3201 143.605 21.9501C143.245 21.5701 142.965 21.1401 142.765 20.6601C142.575 20.1701 142.48 19.6501 142.48 19.1001C142.48 18.3601 142.65 17.6851 142.99 17.0751C143.33 16.4551 143.805 15.9601 144.415 15.5901C145.025 15.2101 145.74 15.0201 146.56 15.0201C147.38 15.0201 148.085 15.2101 148.675 15.5901C149.275 15.9601 149.74 16.4501 150.07 17.0601C150.4 17.6701 150.565 18.3251 150.565 19.0251C150.565 19.1451 150.56 19.2601 150.55 19.3701C150.54 19.4701 150.53 19.5551 150.52 19.6251H144.235C144.265 20.0851 144.39 20.4901 144.61 20.8401C144.84 21.1801 145.13 21.4501 145.48 21.6501C145.83 21.8401 146.205 21.9351 146.605 21.9351C147.045 21.9351 147.46 21.8251 147.85 21.6051C148.25 21.3851 148.52 21.0951 148.66 20.7351L150.07 21.1401C149.9 21.5201 149.64 21.8651 149.29 22.1751C148.95 22.4751 148.545 22.7151 148.075 22.8951C147.605 23.0651 147.095 23.1501 146.545 23.1501ZM144.19 18.5301H148.93C148.9 18.0801 148.77 17.6851 148.54 17.3451C148.32 16.9951 148.035 16.7251 147.685 16.5351C147.345 16.3351 146.965 16.2351 146.545 16.2351C146.135 16.2351 145.755 16.3351 145.405 16.5351C145.065 16.7251 144.785 16.9951 144.565 17.3451C144.345 17.6851 144.22 18.0801 144.19 18.5301Z" fill="white"/>
  <path d="M151.911 23.0001V15.1551H153.561V18.2751H157.206V15.1551H158.856V23.0001H157.206V19.7001H153.561V23.0001H151.911Z" fill="white"/>
  <path d="M162.707 23.0001V16.6101H160.112V15.1551H166.967V16.6101H164.357V23.0001H162.707Z" fill="white"/>
  <path d="M72.2945 41.1351C71.7845 41.1351 71.3045 41.0601 70.8545 40.9101C70.4045 40.7601 69.9995 40.5451 69.6395 40.2651C69.2895 39.9751 69.0095 39.6251 68.7995 39.2151L70.1195 38.6151C70.3495 39.0151 70.6445 39.3151 71.0045 39.5151C71.3645 39.7151 71.7595 39.8151 72.1895 39.8151C72.6195 39.8151 73.0045 39.7151 73.3445 39.5151C73.6845 39.3151 73.9695 39.0451 74.1995 38.7051C74.4295 38.3651 74.5695 37.9901 74.6195 37.5801H71.5445V36.4851H74.6045C74.5445 36.1051 74.4095 35.7551 74.1995 35.4351C73.9995 35.1151 73.7295 34.8551 73.3895 34.6551C73.0495 34.4551 72.6545 34.3551 72.2045 34.3551C71.7845 34.3551 71.3995 34.4451 71.0495 34.6251C70.6995 34.7951 70.4095 35.0851 70.1795 35.4951L68.9195 34.8351C69.2295 34.2851 69.6645 33.8451 70.2245 33.5151C70.7945 33.1851 71.4745 33.0201 72.2645 33.0201C72.9245 33.0201 73.5045 33.1351 74.0045 33.3651C74.5045 33.5851 74.9245 33.8851 75.2645 34.2651C75.6145 34.6451 75.8745 35.0801 76.0445 35.5701C76.2245 36.0501 76.3145 36.5451 76.3145 37.0551C76.3145 37.5751 76.2245 38.0801 76.0445 38.5701C75.8645 39.0601 75.5995 39.5001 75.2495 39.8901C74.8995 40.2701 74.4745 40.5751 73.9745 40.8051C73.4845 41.0251 72.9245 41.1351 72.2945 41.1351Z" fill="white"/>
  <path d="M77.7899 41.0001V33.1551H79.4249V36.2601H80.2049L82.5149 33.1551H84.3449L81.4799 36.9501L84.6749 41.0001H82.7699L80.1899 37.7451H79.4249V41.0001H77.7899Z" fill="white"/>
  <path d="M89.0493 41.1501C88.4293 41.1501 87.8743 41.0451 87.3843 40.8351C86.8943 40.6151 86.4693 40.3151 86.1093 39.9351C85.7593 39.5551 85.4893 39.1251 85.2993 38.6451C85.1093 38.1551 85.0143 37.6351 85.0143 37.0851C85.0143 36.5351 85.1093 36.0151 85.2993 35.5251C85.4893 35.0351 85.7593 34.6051 86.1093 34.2351C86.4693 33.8551 86.8943 33.5601 87.3843 33.3501C87.8843 33.1301 88.4393 33.0201 89.0493 33.0201C89.6593 33.0201 90.2093 33.1301 90.6993 33.3501C91.1993 33.5601 91.6243 33.8551 91.9743 34.2351C92.3343 34.6051 92.6093 35.0351 92.7993 35.5251C92.9893 36.0151 93.0843 36.5351 93.0843 37.0851C93.0843 37.6351 92.9893 38.1551 92.7993 38.6451C92.6093 39.1251 92.3343 39.5551 91.9743 39.9351C91.6243 40.3151 91.1993 40.6151 90.6993 40.8351C90.2093 41.0451 89.6593 41.1501 89.0493 41.1501ZM86.7093 37.1001C86.7093 37.6001 86.8143 38.0501 87.0243 38.4501C87.2343 38.8501 87.5143 39.1651 87.8643 39.3951C88.2143 39.6251 88.6093 39.7401 89.0493 39.7401C89.4793 39.7401 89.8693 39.6251 90.2193 39.3951C90.5793 39.1551 90.8643 38.8351 91.0743 38.4351C91.2843 38.0251 91.3893 37.5751 91.3893 37.0851C91.3893 36.5851 91.2843 36.1351 91.0743 35.7351C90.8643 35.3351 90.5793 35.0201 90.2193 34.7901C89.8693 34.5501 89.4793 34.4301 89.0493 34.4301C88.6093 34.4301 88.2143 34.5501 87.8643 34.7901C87.5143 35.0301 87.2343 35.3501 87.0243 35.7501C86.8143 36.1401 86.7093 36.5901 86.7093 37.1001Z" fill="white"/>
  <path d="M94.5477 41.0001V33.1551H96.1977V36.2751H99.8427V33.1551H101.493V41.0001H99.8427V37.7001H96.1977V41.0001H94.5477Z" fill="white"/>
  <path d="M107.008 41.1501C106.388 41.1501 105.833 41.0451 105.343 40.8351C104.853 40.6151 104.428 40.3151 104.068 39.9351C103.718 39.5551 103.448 39.1251 103.258 38.6451C103.068 38.1551 102.973 37.6351 102.973 37.0851C102.973 36.5351 103.068 36.0151 103.258 35.5251C103.448 35.0351 103.718 34.6051 104.068 34.2351C104.428 33.8551 104.853 33.5601 105.343 33.3501C105.843 33.1301 106.398 33.0201 107.008 33.0201C107.618 33.0201 108.168 33.1301 108.658 33.3501C109.158 33.5601 109.583 33.8551 109.933 34.2351C110.293 34.6051 110.568 35.0351 110.758 35.5251C110.948 36.0151 111.043 36.5351 111.043 37.0851C111.043 37.6351 110.948 38.1551 110.758 38.6451C110.568 39.1251 110.293 39.5551 109.933 39.9351C109.583 40.3151 109.158 40.6151 108.658 40.8351C108.168 41.0451 107.618 41.1501 107.008 41.1501ZM104.668 37.1001C104.668 37.6001 104.773 38.0501 104.983 38.4501C105.193 38.8501 105.473 39.1651 105.823 39.3951C106.173 39.6251 106.568 39.7401 107.008 39.7401C107.438 39.7401 107.828 39.6251 108.178 39.3951C108.538 39.1551 108.823 38.8351 109.033 38.4351C109.243 38.0251 109.348 37.5751 109.348 37.0851C109.348 36.5851 109.243 36.1351 109.033 35.7351C108.823 35.3351 108.538 35.0201 108.178 34.7901C107.828 34.5501 107.438 34.4301 107.008 34.4301C106.568 34.4301 106.173 34.5501 105.823 34.7901C105.473 35.0301 105.193 35.3501 104.983 35.7501C104.773 36.1401 104.668 36.5901 104.668 37.1001Z" fill="white"/>
  <path d="M112.507 41.0001V33.1551H114.217L116.917 38.0001L119.632 33.1551H121.312V41.0001H119.737V35.4801L117.427 39.6051H116.392L114.067 35.4801V41.0001H112.507Z" fill="white"/>
  <path d="M123.288 41.0001V33.1701H124.938V38.7951L128.913 33.1551H130.413V41.0001H128.763V35.4951L124.833 41.0001H123.288Z" fill="white"/>
  <path d="M136.795 41.0001V38.0151C136.495 38.1551 136.185 38.2601 135.865 38.3301C135.545 38.3901 135.185 38.4201 134.785 38.4201C133.945 38.4201 133.295 38.2001 132.835 37.7601C132.385 37.3101 132.16 36.6451 132.16 35.7651V33.1551H133.81V35.5551C133.81 36.1051 133.925 36.5101 134.155 36.7701C134.385 37.0201 134.755 37.1451 135.265 37.1451C135.545 37.1451 135.825 37.1151 136.105 37.0551C136.385 36.9951 136.615 36.9151 136.795 36.8151V33.1551H138.46V41.0001H136.795Z" fill="white"/>
  <path d="M144.011 41.1501C143.401 41.1501 142.846 41.0451 142.346 40.8351C141.856 40.6151 141.431 40.3201 141.071 39.9501C140.711 39.5701 140.431 39.1401 140.231 38.6601C140.041 38.1701 139.946 37.6501 139.946 37.1001C139.946 36.3601 140.116 35.6851 140.456 35.0751C140.796 34.4551 141.271 33.9601 141.881 33.5901C142.491 33.2101 143.206 33.0201 144.026 33.0201C144.846 33.0201 145.551 33.2101 146.141 33.5901C146.741 33.9601 147.206 34.4501 147.536 35.0601C147.866 35.6701 148.031 36.3251 148.031 37.0251C148.031 37.1451 148.026 37.2601 148.016 37.3701C148.006 37.4701 147.996 37.5551 147.986 37.6251H141.701C141.731 38.0851 141.856 38.4901 142.076 38.8401C142.306 39.1801 142.596 39.4501 142.946 39.6501C143.296 39.8401 143.671 39.9351 144.071 39.9351C144.511 39.9351 144.926 39.8251 145.316 39.6051C145.716 39.3851 145.986 39.0951 146.126 38.7351L147.536 39.1401C147.366 39.5201 147.106 39.8651 146.756 40.1751C146.416 40.4751 146.011 40.7151 145.541 40.8951C145.071 41.0651 144.561 41.1501 144.011 41.1501ZM141.656 36.5301H146.396C146.366 36.0801 146.236 35.6851 146.006 35.3451C145.786 34.9951 145.501 34.7251 145.151 34.5351C144.811 34.3351 144.431 34.2351 144.011 34.2351C143.601 34.2351 143.221 34.3351 142.871 34.5351C142.531 34.7251 142.251 34.9951 142.031 35.3451C141.811 35.6851 141.686 36.0801 141.656 36.5301Z" fill="white"/>
  <path d="M152.932 41.1501C152.322 41.1501 151.767 41.0451 151.267 40.8351C150.777 40.6151 150.352 40.3151 149.992 39.9351C149.632 39.5551 149.352 39.1201 149.152 38.6301C148.962 38.1401 148.867 37.6201 148.867 37.0701C148.867 36.3301 149.032 35.6551 149.362 35.0451C149.702 34.4351 150.172 33.9451 150.772 33.5751C151.382 33.2051 152.102 33.0201 152.932 33.0201C153.732 33.0201 154.427 33.2001 155.017 33.5601C155.617 33.9101 156.057 34.3801 156.337 34.9701L154.732 35.4801C154.552 35.1501 154.297 34.8951 153.967 34.7151C153.647 34.5251 153.292 34.4301 152.902 34.4301C152.462 34.4301 152.062 34.5451 151.702 34.7751C151.352 34.9951 151.072 35.3051 150.862 35.7051C150.662 36.0951 150.562 36.5501 150.562 37.0701C150.562 37.5701 150.667 38.0251 150.877 38.4351C151.087 38.8351 151.367 39.1551 151.717 39.3951C152.077 39.6251 152.477 39.7401 152.917 39.7401C153.187 39.7401 153.447 39.6951 153.697 39.6051C153.957 39.5051 154.182 39.3751 154.372 39.2151C154.562 39.0451 154.697 38.8601 154.777 38.6601L156.397 39.1401C156.227 39.5301 155.972 39.8751 155.632 40.1751C155.302 40.4751 154.907 40.7151 154.447 40.8951C153.997 41.0651 153.492 41.1501 152.932 41.1501Z" fill="white"/>
  <path d="M157.756 41.0001V33.1551H159.391V36.2601H160.171L162.481 33.1551H164.311L161.446 36.9501L164.641 41.0001H162.736L160.156 37.7451H159.391V41.0001H157.756Z" fill="white"/>
  <path d="M169.015 41.1501C168.395 41.1501 167.84 41.0451 167.35 40.8351C166.86 40.6151 166.435 40.3151 166.075 39.9351C165.725 39.5551 165.455 39.1251 165.265 38.6451C165.075 38.1551 164.98 37.6351 164.98 37.0851C164.98 36.5351 165.075 36.0151 165.265 35.5251C165.455 35.0351 165.725 34.6051 166.075 34.2351C166.435 33.8551 166.86 33.5601 167.35 33.3501C167.85 33.1301 168.405 33.0201 169.015 33.0201C169.625 33.0201 170.175 33.1301 170.665 33.3501C171.165 33.5601 171.59 33.8551 171.94 34.2351C172.3 34.6051 172.575 35.0351 172.765 35.5251C172.955 36.0151 173.05 36.5351 173.05 37.0851C173.05 37.6351 172.955 38.1551 172.765 38.6451C172.575 39.1251 172.3 39.5551 171.94 39.9351C171.59 40.3151 171.165 40.6151 170.665 40.8351C170.175 41.0451 169.625 41.1501 169.015 41.1501ZM166.675 37.1001C166.675 37.6001 166.78 38.0501 166.99 38.4501C167.2 38.8501 167.48 39.1651 167.83 39.3951C168.18 39.6251 168.575 39.7401 169.015 39.7401C169.445 39.7401 169.835 39.6251 170.185 39.3951C170.545 39.1551 170.83 38.8351 171.04 38.4351C171.25 38.0251 171.355 37.5751 171.355 37.0851C171.355 36.5851 171.25 36.1351 171.04 35.7351C170.83 35.3351 170.545 35.0201 170.185 34.7901C169.835 34.5501 169.445 34.4301 169.015 34.4301C168.575 34.4301 168.18 34.5501 167.83 34.7901C167.48 35.0301 167.2 35.3501 166.99 35.7501C166.78 36.1401 166.675 36.5901 166.675 37.1001Z" fill="white"/>
  <path d="M174.514 41.0001V33.1701H176.164V38.7951L180.139 33.1551H181.639V41.0001H179.989V35.4951L176.059 41.0001H174.514ZM178.084 32.3451C177.344 32.3451 176.769 32.1601 176.359 31.7901C175.959 31.4201 175.759 30.9551 175.759 30.3951H176.839C176.839 30.6851 176.934 30.9251 177.124 31.1151C177.324 31.3051 177.644 31.4001 178.084 31.4001C178.514 31.4001 178.819 31.3101 178.999 31.1301C179.189 30.9501 179.304 30.7051 179.344 30.3951H180.424C180.424 30.9551 180.219 31.4201 179.809 31.7901C179.409 32.1601 178.834 32.3451 178.084 32.3451Z" fill="white"/>
  <path d="M187.316 41.0001V33.1551H194.066V41.0001H192.416V34.6101H188.966V41.0001H187.316Z" fill="white"/>
  <path d="M199.586 41.1501C198.966 41.1501 198.411 41.0451 197.921 40.8351C197.431 40.6151 197.006 40.3151 196.646 39.9351C196.296 39.5551 196.026 39.1251 195.836 38.6451C195.646 38.1551 195.551 37.6351 195.551 37.0851C195.551 36.5351 195.646 36.0151 195.836 35.5251C196.026 35.0351 196.296 34.6051 196.646 34.2351C197.006 33.8551 197.431 33.5601 197.921 33.3501C198.421 33.1301 198.976 33.0201 199.586 33.0201C200.196 33.0201 200.746 33.1301 201.236 33.3501C201.736 33.5601 202.161 33.8551 202.511 34.2351C202.871 34.6051 203.146 35.0351 203.336 35.5251C203.526 36.0151 203.621 36.5351 203.621 37.0851C203.621 37.6351 203.526 38.1551 203.336 38.6451C203.146 39.1251 202.871 39.5551 202.511 39.9351C202.161 40.3151 201.736 40.6151 201.236 40.8351C200.746 41.0451 200.196 41.1501 199.586 41.1501ZM197.246 37.1001C197.246 37.6001 197.351 38.0501 197.561 38.4501C197.771 38.8501 198.051 39.1651 198.401 39.3951C198.751 39.6251 199.146 39.7401 199.586 39.7401C200.016 39.7401 200.406 39.6251 200.756 39.3951C201.116 39.1551 201.401 38.8351 201.611 38.4351C201.821 38.0251 201.926 37.5751 201.926 37.0851C201.926 36.5851 201.821 36.1351 201.611 35.7351C201.401 35.3351 201.116 35.0201 200.756 34.7901C200.406 34.5501 200.016 34.4301 199.586 34.4301C199.146 34.4301 198.751 34.5501 198.401 34.7901C198.051 35.0301 197.771 35.3501 197.561 35.7501C197.351 36.1401 197.246 36.5901 197.246 37.1001Z" fill="white"/>
  <path d="M204.455 41.0751V39.6051C204.705 39.6051 204.93 39.5451 205.13 39.4251C205.33 39.2951 205.505 39.0851 205.655 38.7951C205.805 38.4951 205.925 38.0801 206.015 37.5501C206.105 37.0201 206.165 36.3451 206.195 35.5251L206.3 33.1551H211.895V41.0001H210.245V34.6101H207.755L207.725 35.6751C207.685 36.7251 207.59 37.6001 207.44 38.3001C207.29 38.9901 207.08 39.5401 206.81 39.9501C206.55 40.3501 206.22 40.6401 205.82 40.8201C205.43 40.9901 204.975 41.0751 204.455 41.0751Z" fill="white"/>
  <path d="M213.874 41.0001V33.1701H215.524V38.7951L219.499 33.1551H220.999V41.0001H219.349V35.4951L215.419 41.0001H213.874Z" fill="white"/>
  <path d="M224.831 41.0001V34.6101H222.236V33.1551H229.091V34.6101H226.481V41.0001H224.831Z" fill="white"/>
  <path d="M230.324 41.0001V33.1701H231.974V38.7951L235.949 33.1551H237.449V41.0001H235.799V35.4951L231.869 41.0001H230.324Z" fill="white"/>
  <path d="M239.421 41.0001V33.1551H241.056V36.2601H241.836L244.146 33.1551H245.976L243.111 36.9501L246.306 41.0001H244.401L241.821 37.7451H241.056V41.0001H239.421Z" fill="white"/>
  <path d="M247.565 41.0001V33.1701H249.215V38.7951L253.19 33.1551H254.69V41.0001H253.04V35.4951L249.11 41.0001H247.565Z" fill="white"/>
  <path d="M69.2645 59.0001V51.1701H70.9145V56.7951L74.8895 51.1551H76.3895V59.0001H74.7395V53.4951L70.8095 59.0001H69.2645Z" fill="white"/>
  <path d="M86.5223 59.1501C85.8923 59.1501 85.3373 59.0001 84.8573 58.7001C84.3773 58.4001 83.9973 58.0101 83.7173 57.5301V62.1951H82.0673V51.1551H83.5223V52.5651C83.8223 52.0951 84.2123 51.7201 84.6923 51.4401C85.1723 51.1601 85.7073 51.0201 86.2973 51.0201C86.8373 51.0201 87.3323 51.1301 87.7823 51.3501C88.2323 51.5601 88.6223 51.8551 88.9523 52.2351C89.2823 52.6151 89.5373 53.0501 89.7173 53.5401C89.9073 54.0201 90.0023 54.5301 90.0023 55.0701C90.0023 55.8201 89.8523 56.5051 89.5523 57.1251C89.2623 57.7451 88.8523 58.2401 88.3223 58.6101C87.8023 58.9701 87.2023 59.1501 86.5223 59.1501ZM85.9823 57.7401C86.3323 57.7401 86.6473 57.6651 86.9273 57.5151C87.2173 57.3651 87.4623 57.1651 87.6623 56.9151C87.8723 56.6651 88.0323 56.3801 88.1423 56.0601C88.2523 55.7401 88.3073 55.4101 88.3073 55.0701C88.3073 54.7101 88.2473 54.3701 88.1273 54.0501C88.0073 53.7301 87.8323 53.4501 87.6023 53.2101C87.3823 52.9701 87.1223 52.7801 86.8223 52.6401C86.5323 52.5001 86.2123 52.4301 85.8623 52.4301C85.6523 52.4301 85.4323 52.4701 85.2023 52.5501C84.9723 52.6301 84.7573 52.7401 84.5573 52.8801C84.3573 53.0201 84.1823 53.1851 84.0323 53.3751C83.8823 53.5651 83.7773 53.7651 83.7173 53.9751V56.0301C83.8573 56.3501 84.0423 56.6401 84.2723 56.9001C84.5023 57.1501 84.7673 57.3551 85.0673 57.5151C85.3673 57.6651 85.6723 57.7401 85.9823 57.7401Z" fill="white"/>
  <path d="M90.9162 56.7051C90.9162 56.2051 91.0562 55.7701 91.3362 55.4001C91.6262 55.0201 92.0212 54.7301 92.5212 54.5301C93.0212 54.3201 93.6012 54.2151 94.2612 54.2151C94.6112 54.2151 94.9662 54.2401 95.3262 54.2901C95.6962 54.3401 96.0212 54.4201 96.3012 54.5301V54.0351C96.3012 53.4851 96.1362 53.0551 95.8062 52.7451C95.4762 52.4351 95.0012 52.2801 94.3812 52.2801C93.9412 52.2801 93.5262 52.3601 93.1362 52.5201C92.7462 52.6701 92.3312 52.8851 91.8912 53.1651L91.3362 52.0551C91.8562 51.7051 92.3762 51.4451 92.8962 51.2751C93.4262 51.1051 93.9812 51.0201 94.5612 51.0201C95.6112 51.0201 96.4362 51.3001 97.0362 51.8601C97.6462 52.4101 97.9512 53.1951 97.9512 54.2151V57.1401C97.9512 57.3301 97.9812 57.4651 98.0412 57.5451C98.1112 57.6251 98.2262 57.6701 98.3862 57.6801V59.0001C98.2362 59.0301 98.1012 59.0501 97.9812 59.0601C97.8612 59.0701 97.7612 59.0751 97.6812 59.0751C97.3312 59.0751 97.0662 58.9901 96.8862 58.8201C96.7062 58.6501 96.6012 58.4501 96.5712 58.2201L96.5262 57.7701C96.1862 58.2101 95.7512 58.5501 95.2212 58.7901C94.6912 59.0301 94.1562 59.1501 93.6162 59.1501C93.0962 59.1501 92.6312 59.0451 92.2212 58.8351C91.8112 58.6151 91.4912 58.3201 91.2612 57.9501C91.0312 57.5801 90.9162 57.1651 90.9162 56.7051ZM95.9112 57.1851C96.0312 57.0551 96.1262 56.9251 96.1962 56.7951C96.2662 56.6651 96.3012 56.5501 96.3012 56.4501V55.5501C96.0212 55.4401 95.7262 55.3601 95.4162 55.3101C95.1062 55.2501 94.8012 55.2201 94.5012 55.2201C93.9012 55.2201 93.4112 55.3401 93.0312 55.5801C92.6612 55.8201 92.4762 56.1501 92.4762 56.5701C92.4762 56.8001 92.5362 57.0201 92.6562 57.2301C92.7862 57.4401 92.9662 57.6101 93.1962 57.7401C93.4362 57.8701 93.7312 57.9351 94.0812 57.9351C94.4412 57.9351 94.7862 57.8651 95.1162 57.7251C95.4462 57.5851 95.7112 57.4051 95.9112 57.1851Z" fill="white"/>
  <path d="M102.578 59.1201C101.778 59.1201 101.103 58.9751 100.553 58.6851C100.013 58.3851 99.598 57.9751 99.308 57.4551L100.643 56.8551C100.813 57.1451 101.053 57.3751 101.363 57.5451C101.673 57.7051 102.048 57.7851 102.488 57.7851C103.018 57.7851 103.428 57.6751 103.718 57.4551C104.008 57.2351 104.153 56.9451 104.153 56.5851C104.153 56.2551 104.033 55.9901 103.793 55.7901C103.553 55.5801 103.213 55.4701 102.773 55.4601H101.963V54.4101H102.803C103.003 54.4101 103.178 54.3651 103.328 54.2751C103.478 54.1851 103.593 54.0651 103.673 53.9151C103.763 53.7551 103.808 53.5751 103.808 53.3751C103.808 53.0751 103.693 52.8351 103.463 52.6551C103.243 52.4651 102.908 52.3701 102.458 52.3701C102.068 52.3701 101.748 52.4451 101.498 52.5951C101.248 52.7351 101.043 52.9451 100.883 53.2251L99.638 52.5651C99.898 52.0851 100.278 51.7101 100.778 51.4401C101.278 51.1701 101.863 51.0351 102.533 51.0351C103.063 51.0351 103.533 51.1201 103.943 51.2901C104.363 51.4501 104.688 51.6901 104.918 52.0101C105.158 52.3201 105.278 52.7051 105.278 53.1651C105.278 53.5251 105.193 53.8651 105.023 54.1851C104.853 54.4951 104.588 54.7251 104.228 54.8751C104.708 55.0151 105.068 55.2601 105.308 55.6101C105.558 55.9501 105.683 56.3551 105.683 56.8251C105.683 57.3051 105.548 57.7201 105.278 58.0701C105.018 58.4101 104.653 58.6701 104.183 58.8501C103.713 59.0301 103.178 59.1201 102.578 59.1201Z" fill="white"/>
  <path d="M107.204 59.0001V51.1551H111.404C111.904 51.1551 112.314 51.2501 112.634 51.4401C112.964 51.6201 113.209 51.8551 113.369 52.1451C113.529 52.4251 113.609 52.7351 113.609 53.0751C113.609 53.5051 113.509 53.8851 113.309 54.2151C113.109 54.5451 112.814 54.7951 112.424 54.9651C112.874 55.0951 113.239 55.3251 113.519 55.6551C113.809 55.9751 113.954 56.3901 113.954 56.9001C113.954 57.3601 113.844 57.7501 113.624 58.0701C113.404 58.3801 113.089 58.6151 112.679 58.7751C112.279 58.9251 111.809 59.0001 111.269 59.0001H107.204ZM108.764 57.8601H111.224C111.434 57.8601 111.624 57.8101 111.794 57.7101C111.974 57.6001 112.114 57.4601 112.214 57.2901C112.314 57.1101 112.364 56.9201 112.364 56.7201C112.364 56.5001 112.314 56.3051 112.214 56.1351C112.124 55.9651 111.994 55.8301 111.824 55.7301C111.664 55.6301 111.474 55.5801 111.254 55.5801H108.764V57.8601ZM108.764 54.5151H110.984C111.194 54.5151 111.379 54.4651 111.539 54.3651C111.699 54.2551 111.824 54.1101 111.914 53.9301C112.004 53.7501 112.049 53.5601 112.049 53.3601C112.049 53.0701 111.954 52.8201 111.764 52.6101C111.574 52.4001 111.324 52.2951 111.014 52.2951H108.764V54.5151Z" fill="white"/>
  <path d="M115.524 59.0001V51.1701H117.174V56.7951L121.149 51.1551H122.649V59.0001H120.999V53.4951L117.069 59.0001H115.524Z" fill="white"/>
  <path d="M126.481 59.0001V52.6101H123.886V51.1551H130.741V52.6101H128.131V59.0001H126.481Z" fill="white"/>
  <path d="M131.974 59.0001V51.1701H133.624V56.7951L137.599 51.1551H139.099V59.0001H137.449V53.4951L133.519 59.0001H131.974Z" fill="white"/>
  <path d="M140.576 59.0001L142.676 55.8951C142.186 55.7751 141.796 55.5251 141.506 55.1451C141.216 54.7651 141.071 54.2551 141.071 53.6151C141.071 53.1251 141.181 52.6951 141.401 52.3251C141.631 51.9551 141.951 51.6651 142.361 51.4551C142.771 51.2451 143.246 51.1401 143.786 51.1401H147.236V59.0001H145.586V56.1651H144.296L142.376 59.0001H140.576ZM143.951 54.9651H145.586V52.4151H144.056C143.636 52.4151 143.301 52.5301 143.051 52.7601C142.811 52.9901 142.691 53.2901 142.691 53.6601C142.691 54.0301 142.796 54.3401 143.006 54.5901C143.226 54.8401 143.541 54.9651 143.951 54.9651Z" fill="white"/>
  <path d="M152.936 59.0001V51.1551H157.946V52.6101H154.586V59.0001H152.936Z" fill="white"/>
  <path d="M162.716 59.1501C162.096 59.1501 161.541 59.0451 161.051 58.8351C160.561 58.6151 160.136 58.3151 159.776 57.9351C159.426 57.5551 159.156 57.1251 158.966 56.6451C158.776 56.1551 158.681 55.6351 158.681 55.0851C158.681 54.5351 158.776 54.0151 158.966 53.5251C159.156 53.0351 159.426 52.6051 159.776 52.2351C160.136 51.8551 160.561 51.5601 161.051 51.3501C161.551 51.1301 162.106 51.0201 162.716 51.0201C163.326 51.0201 163.876 51.1301 164.366 51.3501C164.866 51.5601 165.291 51.8551 165.641 52.2351C166.001 52.6051 166.276 53.0351 166.466 53.5251C166.656 54.0151 166.751 54.5351 166.751 55.0851C166.751 55.6351 166.656 56.1551 166.466 56.6451C166.276 57.1251 166.001 57.5551 165.641 57.9351C165.291 58.3151 164.866 58.6151 164.366 58.8351C163.876 59.0451 163.326 59.1501 162.716 59.1501ZM160.376 55.1001C160.376 55.6001 160.481 56.0501 160.691 56.4501C160.901 56.8501 161.181 57.1651 161.531 57.3951C161.881 57.6251 162.276 57.7401 162.716 57.7401C163.146 57.7401 163.536 57.6251 163.886 57.3951C164.246 57.1551 164.531 56.8351 164.741 56.4351C164.951 56.0251 165.056 55.5751 165.056 55.0851C165.056 54.5851 164.951 54.1351 164.741 53.7351C164.531 53.3351 164.246 53.0201 163.886 52.7901C163.536 52.5501 163.146 52.4301 162.716 52.4301C162.276 52.4301 161.881 52.5501 161.531 52.7901C161.181 53.0301 160.901 53.3501 160.691 53.7501C160.481 54.1401 160.376 54.5901 160.376 55.1001Z" fill="white"/>
  <path d="M172.67 59.1501C172.04 59.1501 171.485 59.0001 171.005 58.7001C170.525 58.4001 170.145 58.0101 169.865 57.5301V62.1951H168.215V51.1551H169.67V52.5651C169.97 52.0951 170.36 51.7201 170.84 51.4401C171.32 51.1601 171.855 51.0201 172.445 51.0201C172.985 51.0201 173.48 51.1301 173.93 51.3501C174.38 51.5601 174.77 51.8551 175.1 52.2351C175.43 52.6151 175.685 53.0501 175.865 53.5401C176.055 54.0201 176.15 54.5301 176.15 55.0701C176.15 55.8201 176 56.5051 175.7 57.1251C175.41 57.7451 175 58.2401 174.47 58.6101C173.95 58.9701 173.35 59.1501 172.67 59.1501ZM172.13 57.7401C172.48 57.7401 172.795 57.6651 173.075 57.5151C173.365 57.3651 173.61 57.1651 173.81 56.9151C174.02 56.6651 174.18 56.3801 174.29 56.0601C174.4 55.7401 174.455 55.4101 174.455 55.0701C174.455 54.7101 174.395 54.3701 174.275 54.0501C174.155 53.7301 173.98 53.4501 173.75 53.2101C173.53 52.9701 173.27 52.7801 172.97 52.6401C172.68 52.5001 172.36 52.4301 172.01 52.4301C171.8 52.4301 171.58 52.4701 171.35 52.5501C171.12 52.6301 170.905 52.7401 170.705 52.8801C170.505 53.0201 170.33 53.1851 170.18 53.3751C170.03 53.5651 169.925 53.7651 169.865 53.9751V56.0301C170.005 56.3501 170.19 56.6401 170.42 56.9001C170.65 57.1501 170.915 57.3551 171.215 57.5151C171.515 57.6651 171.82 57.7401 172.13 57.7401Z" fill="white"/>
  <path d="M181.159 59.1501C180.539 59.1501 179.984 59.0451 179.494 58.8351C179.004 58.6151 178.579 58.3151 178.219 57.9351C177.869 57.5551 177.599 57.1251 177.409 56.6451C177.219 56.1551 177.124 55.6351 177.124 55.0851C177.124 54.5351 177.219 54.0151 177.409 53.5251C177.599 53.0351 177.869 52.6051 178.219 52.2351C178.579 51.8551 179.004 51.5601 179.494 51.3501C179.994 51.1301 180.549 51.0201 181.159 51.0201C181.769 51.0201 182.319 51.1301 182.809 51.3501C183.309 51.5601 183.734 51.8551 184.084 52.2351C184.444 52.6051 184.719 53.0351 184.909 53.5251C185.099 54.0151 185.194 54.5351 185.194 55.0851C185.194 55.6351 185.099 56.1551 184.909 56.6451C184.719 57.1251 184.444 57.5551 184.084 57.9351C183.734 58.3151 183.309 58.6151 182.809 58.8351C182.319 59.0451 181.769 59.1501 181.159 59.1501ZM178.819 55.1001C178.819 55.6001 178.924 56.0501 179.134 56.4501C179.344 56.8501 179.624 57.1651 179.974 57.3951C180.324 57.6251 180.719 57.7401 181.159 57.7401C181.589 57.7401 181.979 57.6251 182.329 57.3951C182.689 57.1551 182.974 56.8351 183.184 56.4351C183.394 56.0251 183.499 55.5751 183.499 55.0851C183.499 54.5851 183.394 54.1351 183.184 53.7351C182.974 53.3351 182.689 53.0201 182.329 52.7901C181.979 52.5501 181.589 52.4301 181.159 52.4301C180.719 52.4301 180.324 52.5501 179.974 52.7901C179.624 53.0301 179.344 53.3501 179.134 53.7501C178.924 54.1401 178.819 54.5901 178.819 55.1001Z" fill="white"/>
  <path d="M185.907 60.8751V57.5451H186.087C186.297 57.5451 186.492 57.4851 186.672 57.3651C186.852 57.2451 187.012 57.0401 187.152 56.7501C187.292 56.4501 187.407 56.0401 187.497 55.5201C187.587 54.9901 187.642 54.3251 187.662 53.5251L187.752 51.1551H193.347V57.5451H194.427V60.8751H192.972V59.0001H187.347V60.8751H185.907ZM188.262 57.5451H191.697V52.5801H189.207L189.162 53.6751C189.132 54.4351 189.077 55.0751 188.997 55.5951C188.927 56.1151 188.827 56.5301 188.697 56.8401C188.577 57.1501 188.432 57.3851 188.262 57.5451Z" fill="white"/>
  <path d="M195.257 56.7051C195.257 56.2051 195.397 55.7701 195.677 55.4001C195.967 55.0201 196.362 54.7301 196.862 54.5301C197.362 54.3201 197.942 54.2151 198.602 54.2151C198.952 54.2151 199.307 54.2401 199.667 54.2901C200.037 54.3401 200.362 54.4201 200.642 54.5301V54.0351C200.642 53.4851 200.477 53.0551 200.147 52.7451C199.817 52.4351 199.342 52.2801 198.722 52.2801C198.282 52.2801 197.867 52.3601 197.477 52.5201C197.087 52.6701 196.672 52.8851 196.232 53.1651L195.677 52.0551C196.197 51.7051 196.717 51.4451 197.237 51.2751C197.767 51.1051 198.322 51.0201 198.902 51.0201C199.952 51.0201 200.777 51.3001 201.377 51.8601C201.987 52.4101 202.292 53.1951 202.292 54.2151V57.1401C202.292 57.3301 202.322 57.4651 202.382 57.5451C202.452 57.6251 202.567 57.6701 202.727 57.6801V59.0001C202.577 59.0301 202.442 59.0501 202.322 59.0601C202.202 59.0701 202.102 59.0751 202.022 59.0751C201.672 59.0751 201.407 58.9901 201.227 58.8201C201.047 58.6501 200.942 58.4501 200.912 58.2201L200.867 57.7701C200.527 58.2101 200.092 58.5501 199.562 58.7901C199.032 59.0301 198.497 59.1501 197.957 59.1501C197.437 59.1501 196.972 59.0451 196.562 58.8351C196.152 58.6151 195.832 58.3201 195.602 57.9501C195.372 57.5801 195.257 57.1651 195.257 56.7051ZM200.252 57.1851C200.372 57.0551 200.467 56.9251 200.537 56.7951C200.607 56.6651 200.642 56.5501 200.642 56.4501V55.5501C200.362 55.4401 200.067 55.3601 199.757 55.3101C199.447 55.2501 199.142 55.2201 198.842 55.2201C198.242 55.2201 197.752 55.3401 197.372 55.5801C197.002 55.8201 196.817 56.1501 196.817 56.5701C196.817 56.8001 196.877 57.0201 196.997 57.2301C197.127 57.4401 197.307 57.6101 197.537 57.7401C197.777 57.8701 198.072 57.9351 198.422 57.9351C198.782 57.9351 199.127 57.8651 199.457 57.7251C199.787 57.5851 200.052 57.4051 200.252 57.1851Z" fill="white"/>
  <path d="M217.165 59.0001V51.4101L214.03 57.1701H213.04L209.89 51.4101V59.0001H208.21V48.3501H210.01L213.535 54.8601L217.06 48.3501H218.86V59.0001H217.165Z" fill="white"/>
  <path d="M224.445 59.1501C223.825 59.1501 223.27 59.0451 222.78 58.8351C222.29 58.6151 221.865 58.3151 221.505 57.9351C221.155 57.5551 220.885 57.1251 220.695 56.6451C220.505 56.1551 220.41 55.6351 220.41 55.0851C220.41 54.5351 220.505 54.0151 220.695 53.5251C220.885 53.0351 221.155 52.6051 221.505 52.2351C221.865 51.8551 222.29 51.5601 222.78 51.3501C223.28 51.1301 223.835 51.0201 224.445 51.0201C225.055 51.0201 225.605 51.1301 226.095 51.3501C226.595 51.5601 227.02 51.8551 227.37 52.2351C227.73 52.6051 228.005 53.0351 228.195 53.5251C228.385 54.0151 228.48 54.5351 228.48 55.0851C228.48 55.6351 228.385 56.1551 228.195 56.6451C228.005 57.1251 227.73 57.5551 227.37 57.9351C227.02 58.3151 226.595 58.6151 226.095 58.8351C225.605 59.0451 225.055 59.1501 224.445 59.1501ZM222.105 55.1001C222.105 55.6001 222.21 56.0501 222.42 56.4501C222.63 56.8501 222.91 57.1651 223.26 57.3951C223.61 57.6251 224.005 57.7401 224.445 57.7401C224.875 57.7401 225.265 57.6251 225.615 57.3951C225.975 57.1551 226.26 56.8351 226.47 56.4351C226.68 56.0251 226.785 55.5751 226.785 55.0851C226.785 54.5851 226.68 54.1351 226.47 53.7351C226.26 53.3351 225.975 53.0201 225.615 52.7901C225.265 52.5501 224.875 52.4301 224.445 52.4301C224.005 52.4301 223.61 52.5501 223.26 52.7901C222.91 53.0301 222.63 53.3501 222.42 53.7501C222.21 54.1401 222.105 54.5901 222.105 55.1001Z" fill="white"/>
  <path d="M233.498 59.1501C232.888 59.1501 232.333 59.0451 231.833 58.8351C231.343 58.6151 230.918 58.3151 230.558 57.9351C230.198 57.5551 229.918 57.1201 229.718 56.6301C229.528 56.1401 229.433 55.6201 229.433 55.0701C229.433 54.3301 229.598 53.6551 229.928 53.0451C230.268 52.4351 230.738 51.9451 231.338 51.5751C231.948 51.2051 232.668 51.0201 233.498 51.0201C234.298 51.0201 234.993 51.2001 235.583 51.5601C236.183 51.9101 236.623 52.3801 236.903 52.9701L235.298 53.4801C235.118 53.1501 234.863 52.8951 234.533 52.7151C234.213 52.5251 233.858 52.4301 233.468 52.4301C233.028 52.4301 232.628 52.5451 232.268 52.7751C231.918 52.9951 231.638 53.3051 231.428 53.7051C231.228 54.0951 231.128 54.5501 231.128 55.0701C231.128 55.5701 231.233 56.0251 231.443 56.4351C231.653 56.8351 231.933 57.1551 232.283 57.3951C232.643 57.6251 233.043 57.7401 233.483 57.7401C233.753 57.7401 234.013 57.6951 234.263 57.6051C234.523 57.5051 234.748 57.3751 234.938 57.2151C235.128 57.0451 235.263 56.8601 235.343 56.6601L236.963 57.1401C236.793 57.5301 236.538 57.8751 236.198 58.1751C235.868 58.4751 235.473 58.7151 235.013 58.8951C234.563 59.0651 234.058 59.1501 233.498 59.1501Z" fill="white"/>
  <path d="M238.322 59.0001V51.1551H239.957V54.2601H240.737L243.047 51.1551H244.877L242.012 54.9501L245.207 59.0001H243.302L240.722 55.7451H239.957V59.0001H238.322Z" fill="white"/>
  <path d="M246.467 59.0001V51.1551H250.667C251.167 51.1551 251.577 51.2501 251.897 51.4401C252.227 51.6201 252.472 51.8551 252.632 52.1451C252.792 52.4251 252.872 52.7351 252.872 53.0751C252.872 53.5051 252.772 53.8851 252.572 54.2151C252.372 54.5451 252.077 54.7951 251.687 54.9651C252.137 55.0951 252.502 55.3251 252.782 55.6551C253.072 55.9751 253.217 56.3901 253.217 56.9001C253.217 57.3601 253.107 57.7501 252.887 58.0701C252.667 58.3801 252.352 58.6151 251.942 58.7751C251.542 58.9251 251.072 59.0001 250.532 59.0001H246.467ZM248.027 57.8601H250.487C250.697 57.8601 250.887 57.8101 251.057 57.7101C251.237 57.6001 251.377 57.4601 251.477 57.2901C251.577 57.1101 251.627 56.9201 251.627 56.7201C251.627 56.5001 251.577 56.3051 251.477 56.1351C251.387 55.9651 251.257 55.8301 251.087 55.7301C250.927 55.6301 250.737 55.5801 250.517 55.5801H248.027V57.8601ZM248.027 54.5151H250.247C250.457 54.5151 250.642 54.4651 250.802 54.3651C250.962 54.2551 251.087 54.1101 251.177 53.9301C251.267 53.7501 251.312 53.5601 251.312 53.3601C251.312 53.0701 251.217 52.8201 251.027 52.6101C250.837 52.4001 250.587 52.2951 250.277 52.2951H248.027V54.5151Z" fill="white"/>
  <path d="M254.787 59.0001V51.1551H256.437V53.7351H257.922C258.852 53.7351 259.562 53.9701 260.052 54.4401C260.542 54.9101 260.787 55.5301 260.787 56.3001C260.787 56.8201 260.682 57.2851 260.472 57.6951C260.262 58.1051 259.952 58.4251 259.542 58.6551C259.142 58.8851 258.642 59.0001 258.042 59.0001H254.787ZM256.437 57.7251H257.787C258.117 57.7251 258.382 57.6651 258.582 57.5451C258.782 57.4151 258.927 57.2451 259.017 57.0351C259.117 56.8151 259.167 56.5801 259.167 56.3301C259.167 56.0801 259.122 55.8551 259.032 55.6551C258.942 55.4451 258.792 55.2801 258.582 55.1601C258.382 55.0301 258.112 54.9651 257.772 54.9651H256.437V57.7251ZM262.077 59.0001V51.1701H263.727V59.0001H262.077Z" fill="white"/>
  <path d="M43.8345 5.14286V0H56.7692V13.5918H51.739V9.18367L28.3846 28.2857L15.4499 17.6327L7.54528 24.2449V17.6327L15.4499 11.0204L28.3846 21.6735L48.1461 5.14286H43.8345Z" fill="white"/>
  <path fill-rule="evenodd" clip-rule="evenodd" d="M0 0V54.3673C0 62.449 5.38948 66.4898 11.4976 66.8571C12.5863 66.9226 13.593 66.9719 14.5301 67.0177C21.1461 67.3413 24.2932 67.4952 28.3846 72C32.476 67.4952 35.6231 67.3413 42.2392 67.0177C43.1762 66.9719 44.1829 66.9226 45.2717 66.8571C51.3797 66.4898 56.7692 62.449 56.7692 54.3673V16.1633H51.739L46.3496 20.5714V31.2245L44.5531 32.6939V41.8776L43.1159 42.9796V49.2245L40.9601 50.3265V42.6122H37.0078L32.6962 40.4082L28.3846 42.6122H24.7916V55.102L22.2765 55.8367V48.8571L20.48 49.2245V41.5102L18.3242 41.8776L15.8092 27.551L17.2463 28.6531C17.0068 28.1633 16.5278 27.1102 16.5278 26.8163C16.5278 26.5224 17.4859 25.9592 17.9649 25.7143H16.1685L15.4499 23.5102L14.7313 25.7143H12.9348L14.372 26.8163L14.0127 28.6531L15.4499 27.551L12.9348 41.8776L10.779 41.5102V49.2245L8.98247 48.8571V59.8776L7.90458 60.2449C6.02095 59.0674 5.03018 58.0408 5.03018 55.102V5.14286H41.3194V0H0ZM14.7313 54V46.2857H16.5278V54L18.3242 53.6327V61.3469L28.3846 58.0408V46.6531H29.4625L32.6962 44.8163L35.9299 46.6531H37.0078V55.4694L47.0682 52.5306V45.9184L49.9425 43.3469V37.4694L48.5054 38.5714V35.6327L51.0204 33.4286V27.1837L50.3018 28.2857V24.9796L51.739 23.5102V53.6327C51.739 58.4082 49.9426 61.7143 44.5531 61.7143C36.192 61.2704 33.0932 62.3702 28.3846 65.0204C23.7493 61.9733 20.0193 61.6854 12.9348 61.7143V53.6327L14.7313 54Z" fill="white"/>
</svg>
