<svg width="276" height="73" viewBox="0 0 276 73" fill="none" xmlns="http://www.w3.org/2000/svg">
  <path fill-rule="evenodd" clip-rule="evenodd" d="M36.7499 71.3813C56.2118 71.3813 71.9888 55.6044 71.9888 36.1425C71.9888 16.6806 56.2118 0.903561 36.7499 0.903561C17.288 0.903561 1.51098 16.6806 1.51098 36.1425C1.51098 55.6044 17.288 71.3813 36.7499 71.3813ZM36.7499 72.2849C56.7108 72.2849 72.8923 56.1034 72.8923 36.1425C72.8923 16.1815 56.7108 0 36.7499 0C16.7889 0 0.607422 16.1815 0.607422 36.1425C0.607422 56.1034 16.7889 72.2849 36.7499 72.2849Z" fill="white"/>
  <path fill-rule="evenodd" clip-rule="evenodd" d="M36.7501 68.6707C54.715 68.6707 69.2783 54.1073 69.2783 36.1425C69.2783 18.1776 54.715 3.61425 36.7501 3.61425C18.7853 3.61425 4.22192 18.1776 4.22192 36.1425C4.22192 54.1073 18.7853 68.6707 36.7501 68.6707ZM36.7501 69.5742C55.214 69.5742 70.1819 54.6063 70.1819 36.1425C70.1819 17.6786 55.214 2.71069 36.7501 2.71069C18.2863 2.71069 3.31836 17.6786 3.31836 36.1425C3.31836 54.6063 18.2863 69.5742 36.7501 69.5742Z" fill="white"/>
  <path d="M89.8759 17.4404L88.2833 17.1644V15.8479H91.4896C91.7869 15.8479 92.247 15.8338 92.8698 15.8054C93.6909 15.7488 94.434 15.7205 95.0994 15.7205C96.5716 15.7205 97.7323 15.9045 98.5817 16.2726C99.4452 16.6265 100.054 17.1432 100.408 17.8226C100.776 18.488 100.96 19.3373 100.96 20.3707C100.96 22.1543 100.401 23.5416 99.2824 24.5325C98.1782 25.5234 96.6423 26.0189 94.6747 26.0189C93.8961 26.0189 93.337 25.9976 92.9972 25.9552V30.1382L95.8425 30.3505V31.6245H88.1984V30.3505L89.8759 30.1382V17.4404ZM92.976 24.5962C93.3016 24.667 93.8537 24.7024 94.6322 24.7024C95.5807 24.7024 96.338 24.3768 96.9042 23.7256C97.4846 23.0603 97.7748 21.9632 97.7748 20.4344C97.7748 19.2453 97.5129 18.3818 96.9892 17.8439C96.4796 17.2918 95.6939 17.0158 94.6322 17.0158C94.2359 17.0158 93.8253 17.0441 93.4007 17.1007C93.2025 17.129 93.0609 17.1432 92.976 17.1432V24.5962Z" fill="white"/>
  <path d="M108.925 31.8581C106.618 31.8581 104.891 31.1362 103.744 29.6923C102.598 28.2484 102.024 26.2807 102.024 23.7893C102.024 22.1614 102.322 20.7317 102.916 19.5001C103.525 18.2686 104.374 17.3201 105.464 16.6548C106.554 15.9895 107.807 15.6568 109.223 15.6568C111.558 15.6568 113.307 16.3504 114.467 17.7377C115.642 19.1108 116.23 21.036 116.23 23.5133C116.23 25.1554 115.918 26.6134 115.295 27.8874C114.687 29.1473 113.83 30.124 112.726 30.8177C111.622 31.5113 110.355 31.8581 108.925 31.8581ZM109.138 16.9521C107.977 16.9521 107.071 17.5254 106.42 18.672C105.769 19.8186 105.443 21.5173 105.443 23.7681C105.443 25.9905 105.754 27.6822 106.377 28.8429C107.014 29.9896 107.92 30.5629 109.095 30.5629C110.242 30.5629 111.141 29.9612 111.792 28.758C112.443 27.5406 112.769 25.7924 112.769 23.5133C112.769 21.305 112.457 19.6629 111.834 18.5871C111.211 17.4971 110.313 16.9521 109.138 16.9521Z" fill="white"/>
  <path d="M124.883 31.8581C122.477 31.8581 120.637 31.1432 119.363 29.7135C118.088 28.2696 117.451 26.302 117.451 23.8105C117.451 22.1685 117.784 20.7387 118.449 19.5213C119.129 18.2898 120.056 17.3414 121.231 16.676C122.406 16.0107 123.737 15.678 125.223 15.678C125.846 15.678 126.447 15.7205 127.028 15.8054C127.608 15.8762 128.295 15.9753 129.088 16.1027C129.682 16.2018 130.008 16.2514 130.064 16.2514L129.831 20.6255H127.877L127.219 17.5891C127.063 17.4334 126.794 17.306 126.412 17.2069C126.03 17.1078 125.542 17.0582 124.947 17.0582C123.744 17.0582 122.774 17.6174 122.038 18.7357C121.316 19.8398 120.955 21.4465 120.955 23.5557C120.955 25.5942 121.302 27.2575 121.995 28.5457C122.689 29.8338 123.701 30.4779 125.032 30.4779C125.669 30.4779 126.157 30.4213 126.497 30.3081C126.851 30.1807 127.148 30.0037 127.389 29.7772L128.323 27.5901L130.107 27.76L129.682 31.0512C129.385 31.0795 129.088 31.1362 128.79 31.2211C128.507 31.2919 128.33 31.3344 128.259 31.3485C127.693 31.5042 127.162 31.6245 126.667 31.7095C126.186 31.8086 125.591 31.8581 124.883 31.8581Z" fill="white"/>
  <path d="M138.859 31.8581C136.453 31.8581 134.613 31.1432 133.339 29.7135C132.065 28.2696 131.428 26.302 131.428 23.8105C131.428 22.1685 131.76 20.7387 132.426 19.5213C133.105 18.2898 134.032 17.3414 135.207 16.676C136.382 16.0107 137.713 15.678 139.199 15.678C139.822 15.678 140.424 15.7205 141.004 15.8054C141.584 15.8762 142.271 15.9753 143.064 16.1027C143.658 16.2018 143.984 16.2514 144.04 16.2514L143.807 20.6255H141.853L141.195 17.5891C141.039 17.4334 140.77 17.306 140.388 17.2069C140.006 17.1078 139.518 17.0582 138.923 17.0582C137.72 17.0582 136.75 17.6174 136.014 18.7357C135.292 19.8398 134.931 21.4465 134.931 23.5557C134.931 25.5942 135.278 27.2575 135.972 28.5457C136.665 29.8338 137.677 30.4779 139.008 30.4779C139.645 30.4779 140.133 30.4213 140.473 30.3081C140.827 30.1807 141.124 30.0037 141.365 29.7772L142.299 27.5901L144.083 27.76L143.658 31.0512C143.361 31.0795 143.064 31.1362 142.766 31.2211C142.483 31.2919 142.306 31.3344 142.236 31.3485C141.669 31.5042 141.138 31.6245 140.643 31.7095C140.162 31.8086 139.567 31.8581 138.859 31.8581Z" fill="white"/>
  <path d="M152.347 15.8479V17.1644L150.394 17.4404V27.3353L151.816 24.9572L157.231 17.9501V17.4404L155.447 17.1644V15.8479H161.945V17.1644L160.31 17.4404V30.1382L162.008 30.3505V31.6245H155.447V30.3505L157.231 30.1382V20.1159L155.957 22.4091L150.394 29.4799V30.1382L152.283 30.3505V31.6245H145.658V30.3505L147.336 30.1382V17.4404L145.701 17.1644V15.8479H152.347Z" fill="white"/>
  <path d="M170.408 15.8479V17.1644L168.455 17.4404V27.3353L169.877 24.9572L175.292 17.9501V17.4404L173.508 17.1644V15.8479H180.006V17.1644L178.371 17.4404V30.1382L180.069 30.3505V31.6245H173.508V30.3505L175.292 30.1382V20.1159L174.018 22.4091L168.455 29.4799V30.1382L170.344 30.3505V31.6245H163.72V30.3505L165.397 30.1382V17.4404L163.762 17.1644V15.8479H170.408ZM169.814 10.7518C170.04 10.7518 170.153 11.0845 170.153 11.7498C170.153 12.2877 170.302 12.7053 170.599 13.0026C170.896 13.2857 171.385 13.4273 172.064 13.4273C172.73 13.4273 173.204 13.2857 173.487 13.0026C173.784 12.7053 173.933 12.2877 173.933 11.7498C173.933 11.495 173.954 11.2685 173.997 11.0703C174.053 10.858 174.145 10.7518 174.273 10.7518H176.354L176.375 11.3251C176.375 12.3727 175.993 13.1795 175.228 13.7458C174.464 14.312 173.402 14.5951 172.043 14.5951C170.712 14.5951 169.658 14.312 168.879 13.7458C168.115 13.1654 167.733 12.3585 167.733 11.3251L167.754 10.7518H169.814Z" fill="white"/>
  <path d="M188.958 31.8581C186.551 31.8581 184.711 31.1432 183.437 29.7135C182.163 28.2696 181.526 26.302 181.526 23.8105C181.526 22.1685 181.858 20.7387 182.524 19.5213C183.203 18.2898 184.13 17.3414 185.305 16.676C186.48 16.0107 187.811 15.678 189.297 15.678C189.92 15.678 190.522 15.7205 191.102 15.8054C191.683 15.8762 192.369 15.9753 193.162 16.1027C193.756 16.2018 194.082 16.2514 194.139 16.2514L193.905 20.6255H191.952L191.293 17.5891C191.138 17.4334 190.869 17.306 190.486 17.2069C190.104 17.1078 189.616 17.0582 189.021 17.0582C187.818 17.0582 186.848 17.6174 186.112 18.7357C185.39 19.8398 185.029 21.4465 185.029 23.5557C185.029 25.5942 185.376 27.2575 186.07 28.5457C186.763 29.8338 187.776 30.4779 189.106 30.4779C189.743 30.4779 190.232 30.4213 190.571 30.3081C190.925 30.1807 191.223 30.0037 191.463 29.7772L192.397 27.5901L194.181 27.76L193.756 31.0512C193.459 31.0795 193.162 31.1362 192.865 31.2211C192.581 31.2919 192.405 31.3344 192.334 31.3485C191.768 31.5042 191.237 31.6245 190.741 31.7095C190.26 31.8086 189.665 31.8581 188.958 31.8581Z" fill="white"/>
  <path d="M203.868 23.1948C204.378 23.3222 204.859 23.6265 205.312 24.1078C205.779 24.575 206.182 25.0916 206.522 25.6579C206.876 26.21 207.301 26.939 207.796 27.8449C208.178 28.5669 208.483 29.1119 208.709 29.4799C208.95 29.848 209.169 30.0603 209.367 30.117L210.153 30.3505V31.6245H206.798C206.444 31.6245 206.097 31.3556 205.758 30.8177C205.432 30.2797 205 29.4375 204.462 28.2909C203.868 27.0027 203.344 26.0189 202.891 25.3394C202.452 24.6599 201.985 24.3202 201.49 24.3202H200.492V30.117L202.382 30.3718V31.6245H195.778V30.3505L197.413 30.117V17.4404L195.778 17.1644V15.8479H202.106V17.1644L200.492 17.4404V23.1311H202.042L205.843 17.4404L204.25 17.1644V15.8479H209.856V17.1644L208.093 17.4404L203.868 23.1948Z" fill="white"/>
  <path d="M217.748 15.8479V17.1644L215.795 17.4404V27.3353L217.218 24.9572L222.632 17.9501V17.4404L220.849 17.1644V15.8479H227.346V17.1644L225.711 17.4404V30.1382L227.41 30.3505V31.6245H220.849V30.3505L222.632 30.1382V20.1159L221.358 22.4091L215.795 29.4799V30.1382L217.685 30.3505V31.6245H211.06V30.3505L212.737 30.1382V17.4404L211.102 17.1644V15.8479H217.748Z" fill="white"/>
  <path d="M235.81 15.8479V17.1644L233.856 17.4404V27.3353L235.279 24.9572L240.693 17.9501V17.4404L238.91 17.1644V15.8479H245.407V17.1644L243.772 17.4404V30.1382L245.471 30.3505V31.6245H238.91V30.3505L240.693 30.1382V20.1159L239.419 22.4091L233.856 29.4799V30.1382L235.746 30.3505V31.6245H229.121V30.3505L230.798 30.1382V17.4404L229.163 17.1644V15.8479H235.81ZM235.215 10.7518C235.442 10.7518 235.555 11.0845 235.555 11.7498C235.555 12.2877 235.703 12.7053 236.001 13.0026C236.298 13.2857 236.786 13.4273 237.466 13.4273C238.131 13.4273 238.605 13.2857 238.888 13.0026C239.186 12.7053 239.334 12.2877 239.334 11.7498C239.334 11.495 239.356 11.2685 239.398 11.0703C239.455 10.858 239.547 10.7518 239.674 10.7518H241.755L241.776 11.3251C241.776 12.3727 241.394 13.1795 240.63 13.7458C239.865 14.312 238.804 14.5951 237.445 14.5951C236.114 14.5951 235.059 14.312 234.281 13.7458C233.516 13.1654 233.134 12.3585 233.134 11.3251L233.155 10.7518H235.215Z" fill="white"/>
  <path d="M95.3966 58.965C92.9901 58.965 91.1499 58.2501 89.8759 56.8204C88.6019 55.3765 87.9648 53.4088 87.9648 50.9174C87.9648 49.2753 88.2975 47.8456 88.9628 46.6282C89.6423 45.3966 90.5695 44.4482 91.7444 43.7829C92.9194 43.1175 94.25 42.7849 95.7364 42.7849C96.3592 42.7849 96.9609 42.8274 97.5412 42.9123C98.1216 42.9831 98.8082 43.0822 99.6009 43.2096C100.195 43.3086 100.521 43.3582 100.578 43.3582L100.344 47.7323H98.3906L97.7323 44.6959C97.5766 44.5402 97.3077 44.4128 96.9255 44.3137C96.5433 44.2146 96.0549 44.1651 95.4603 44.1651C94.2571 44.1651 93.2874 44.7242 92.5513 45.8425C91.8294 46.9467 91.4684 48.5534 91.4684 50.6626C91.4684 52.701 91.8152 54.3643 92.5089 55.6525C93.2025 56.9407 94.2146 57.5848 95.5453 57.5848C96.1823 57.5848 96.6707 57.5281 97.0104 57.4149C97.3643 57.2875 97.6616 57.1105 97.9022 56.8841L98.8365 54.697L100.62 54.8669L100.195 58.1581C99.8982 58.1864 99.6009 58.243 99.3036 58.3279C99.0205 58.3987 98.8436 58.4412 98.7728 58.4553C98.2066 58.6111 97.6757 58.7314 97.1803 58.8163C96.699 58.9154 96.1044 58.965 95.3966 58.965Z" fill="white"/>
  <path d="M108.863 58.965C106.556 58.965 104.829 58.243 103.682 56.7991C102.535 55.3552 101.962 53.3876 101.962 50.8962C101.962 49.2682 102.259 47.8385 102.854 46.6069C103.463 45.3754 104.312 44.427 105.402 43.7616C106.492 43.0963 107.745 42.7636 109.16 42.7636C111.496 42.7636 113.244 43.4573 114.405 44.8446C115.58 46.2177 116.167 48.1428 116.167 50.6201C116.167 52.2622 115.856 53.7202 115.233 54.9943C114.625 56.2541 113.768 57.2309 112.664 57.9245C111.56 58.6181 110.293 58.965 108.863 58.965ZM109.075 44.0589C107.915 44.0589 107.009 44.6322 106.358 45.7788C105.706 46.9255 105.381 48.6241 105.381 50.8749C105.381 53.0974 105.692 54.789 106.315 55.9498C106.952 57.0964 107.858 57.6697 109.033 57.6697C110.18 57.6697 111.078 57.0681 111.73 55.8648C112.381 54.6474 112.706 52.8992 112.706 50.6201C112.706 48.4118 112.395 46.7697 111.772 45.6939C111.149 44.6039 110.25 44.0589 109.075 44.0589Z" fill="white"/>
  <path d="M125.522 49.8557C125.663 48.3977 126.053 47.1378 126.69 46.0761C127.341 45.0003 128.169 44.1792 129.174 43.613C130.193 43.0468 131.326 42.7636 132.571 42.7636C134.836 42.7636 136.542 43.4431 137.689 44.8021C138.835 46.161 139.409 48.0508 139.409 50.4715C139.409 52.1843 139.111 53.6848 138.517 54.973C137.922 56.247 137.094 57.2309 136.032 57.9245C134.971 58.604 133.76 58.9437 132.401 58.9437C130.165 58.9437 128.466 58.2855 127.305 56.969C126.145 55.6383 125.536 53.8052 125.479 51.4695H122.4V57.2238L124.184 57.4574V58.7314H117.644V57.4574L119.3 57.2238V44.5473L117.687 44.2712V42.9548H124.12V44.2712L122.4 44.5473V49.8557H125.522ZM132.508 44.0801C131.375 44.0801 130.483 44.6534 129.832 45.8001C129.195 46.9325 128.877 48.6383 128.877 50.9174C128.877 53.0832 129.188 54.7395 129.811 55.8861C130.434 57.0327 131.333 57.606 132.508 57.606C133.626 57.606 134.482 57.0185 135.077 55.8436C135.686 54.6545 135.99 52.9134 135.99 50.6201C135.99 48.4684 135.693 46.8405 135.098 45.7364C134.504 44.6322 133.64 44.0801 132.508 44.0801Z" fill="white"/>
  <path d="M141.419 43.4431C141.56 43.429 142.041 43.3511 142.862 43.2096C143.57 43.0822 144.179 42.9831 144.688 42.9123C145.212 42.8274 145.694 42.7849 146.132 42.7849C148.015 42.7849 149.452 43.0892 150.443 43.6979C151.448 44.2925 151.95 45.1914 151.95 46.3946C151.95 47.5271 151.589 48.433 150.867 49.1125C150.16 49.7778 149.289 50.2096 148.256 50.4078C149.586 50.4502 150.606 50.8041 151.313 51.4695C152.035 52.1206 152.396 52.9771 152.396 54.0387C152.396 55.5959 151.901 56.792 150.91 57.6272C149.919 58.4483 148.284 58.8588 146.005 58.8588C145.226 58.8588 144.54 58.8022 143.945 58.6889C143.365 58.5757 142.763 58.42 142.14 58.2218C141.772 58.0944 141.489 58.0165 141.291 57.9882L141.737 54.0812H143.245L143.903 56.969C144.497 57.3653 145.304 57.5635 146.323 57.5635C147.159 57.5635 147.789 57.2804 148.213 56.7142C148.638 56.1338 148.85 55.2986 148.85 54.2086C148.85 53.3734 148.624 52.6727 148.171 52.1065C147.718 51.5402 146.939 51.2571 145.835 51.2571H144.434V49.8132H145.602C146.465 49.8132 147.194 49.5513 147.789 49.0276C148.383 48.4897 148.68 47.6899 148.68 46.6282C148.68 45.7647 148.44 45.1277 147.958 44.7171C147.477 44.2925 146.826 44.0801 146.005 44.0801C145.453 44.0801 144.993 44.1509 144.625 44.2925C144.257 44.434 144.009 44.611 143.882 44.8233L143.457 46.883H141.716L141.419 43.4431Z" fill="white"/>
  <path d="M160.835 44.5473L159.242 44.2712V42.9548H162.448C162.746 42.9548 163.206 42.9406 163.829 42.9123C164.65 42.8557 165.393 42.8274 166.058 42.8274C167.53 42.8274 168.691 43.0114 169.54 43.3794C170.404 43.7333 171.013 44.25 171.366 44.9295C171.735 45.5948 171.919 46.4442 171.919 47.4775C171.919 49.2612 171.359 50.6484 170.241 51.6393C169.137 52.6302 167.601 53.1257 165.633 53.1257C164.855 53.1257 164.296 53.1045 163.956 53.062V57.245L166.801 57.4574V58.7314H159.157V57.4574L160.835 57.245V44.5473ZM163.935 51.703C164.26 51.7738 164.812 51.8092 165.591 51.8092C166.539 51.8092 167.297 51.4836 167.863 50.8325C168.443 50.1671 168.733 49.0701 168.733 47.5412C168.733 46.3521 168.472 45.4886 167.948 44.9507C167.438 44.3986 166.653 44.1226 165.591 44.1226C165.195 44.1226 164.784 44.1509 164.359 44.2075C164.161 44.2359 164.02 44.25 163.935 44.25V51.703Z" fill="white"/>
  <path d="M174.852 44.5473L173.153 44.2712V42.9548H184.47L184.747 46.522H183.26L182.559 44.4199L177.973 44.2288V49.9406L180.924 49.8769L181.264 48.1358H182.623V53.2743H181.264L180.924 51.4482L177.973 51.3845V57.3724L183.112 57.1176L184.343 54.3997L185.936 54.8456L185.384 58.7314H173.174V57.4574L174.852 57.245V44.5473Z" fill="white"/>
  <path d="M195.242 50.3016C195.751 50.429 196.233 50.7334 196.686 51.2147C197.153 51.6818 197.556 52.1985 197.896 52.7647C198.25 53.3168 198.675 54.0458 199.17 54.9518C199.552 55.6737 199.857 56.2187 200.083 56.5868C200.324 56.9548 200.543 57.1672 200.741 57.2238L201.527 57.4574V58.7314H198.172C197.818 58.7314 197.471 58.4624 197.132 57.9245C196.806 57.3866 196.374 56.5443 195.836 55.3977C195.242 54.1095 194.718 53.1257 194.265 52.4462C193.826 51.7667 193.359 51.427 192.864 51.427H191.866V57.2238L193.755 57.4786V58.7314H187.152V57.4574L188.787 57.2238V44.5473L187.152 44.2712V42.9548H193.479V44.2712L191.866 44.5473V50.2379H193.416L197.216 44.5473L195.624 44.2712V42.9548H201.23V44.2712L199.467 44.5473L195.242 50.3016Z" fill="white"/>
  <path d="M207.551 44.3562L204.515 44.4623L203.686 49.0913H201.903L202.264 42.9548H215.96L216.214 49.0913H214.537L213.709 44.4623L210.715 44.3562V57.245L213.688 57.4574V58.7314H204.833V57.4574L207.551 57.245V44.3562Z" fill="white"/>
  <path d="M224.218 58.965C221.91 58.965 220.183 58.243 219.037 56.7991C217.89 55.3552 217.317 53.3876 217.317 50.8962C217.317 49.2682 217.614 47.8385 218.208 46.6069C218.817 45.3754 219.667 44.427 220.757 43.7616C221.847 43.0963 223.099 42.7636 224.515 42.7636C226.851 42.7636 228.599 43.4573 229.76 44.8446C230.935 46.2177 231.522 48.1428 231.522 50.6201C231.522 52.2622 231.211 53.7202 230.588 54.9943C229.979 56.2541 229.123 57.2309 228.018 57.9245C226.914 58.6181 225.647 58.965 224.218 58.965ZM224.43 44.0589C223.269 44.0589 222.363 44.6322 221.712 45.7788C221.061 46.9255 220.735 48.6241 220.735 50.8749C220.735 53.0974 221.047 54.789 221.67 55.9498C222.307 57.0964 223.213 57.6697 224.387 57.6697C225.534 57.6697 226.433 57.0681 227.084 55.8648C227.735 54.6474 228.061 52.8992 228.061 50.6201C228.061 48.4118 227.749 46.7697 227.127 45.6939C226.504 44.6039 225.605 44.0589 224.43 44.0589Z" fill="white"/>
  <path d="M234.655 44.5473L233.062 44.2712V42.9548H236.269C236.566 42.9548 237.026 42.9406 237.649 42.9123C238.47 42.8557 239.213 42.8274 239.878 42.8274C241.35 42.8274 242.511 43.0114 243.361 43.3794C244.224 43.7333 244.833 44.25 245.187 44.9295C245.555 45.5948 245.739 46.4442 245.739 47.4775C245.739 49.2612 245.18 50.6484 244.061 51.6393C242.957 52.6302 241.421 53.1257 239.454 53.1257C238.675 53.1257 238.116 53.1045 237.776 53.062V57.245L240.621 57.4574V58.7314H232.977V57.4574L234.655 57.245V44.5473ZM237.755 51.703C238.081 51.7738 238.633 51.8092 239.411 51.8092C240.36 51.8092 241.117 51.4836 241.683 50.8325C242.264 50.1671 242.554 49.0701 242.554 47.5412C242.554 46.3521 242.292 45.4886 241.768 44.9507C241.258 44.3986 240.473 44.1226 239.411 44.1226C239.015 44.1226 238.604 44.1509 238.18 44.2075C237.981 44.2359 237.84 44.25 237.755 44.25V51.703Z" fill="white"/>
  <path d="M253.704 58.965C251.397 58.965 249.67 58.243 248.523 56.7991C247.377 55.3552 246.803 53.3876 246.803 50.8962C246.803 49.2682 247.101 47.8385 247.695 46.6069C248.304 45.3754 249.153 44.427 250.243 43.7616C251.333 43.0963 252.586 42.7636 254.002 42.7636C256.337 42.7636 258.085 43.4573 259.246 44.8446C260.421 46.2177 261.009 48.1428 261.009 50.6201C261.009 52.2622 260.697 53.7202 260.074 54.9943C259.466 56.2541 258.609 57.2309 257.505 57.9245C256.401 58.6181 255.134 58.965 253.704 58.965ZM253.917 44.0589C252.756 44.0589 251.85 44.6322 251.199 45.7788C250.548 46.9255 250.222 48.6241 250.222 50.8749C250.222 53.0974 250.533 54.789 251.156 55.9498C251.793 57.0964 252.699 57.6697 253.874 57.6697C255.021 57.6697 255.92 57.0681 256.571 55.8648C257.222 54.6474 257.548 52.8992 257.548 50.6201C257.548 48.4118 257.236 46.7697 256.613 45.6939C255.99 44.6039 255.092 44.0589 253.917 44.0589Z" fill="white"/>
  <path d="M264.12 44.5473L262.464 44.2712V42.9548H265.628C266.109 42.9548 266.732 42.9264 267.496 42.8698C267.68 42.8557 267.9 42.8415 268.155 42.8274C268.409 42.8132 268.707 42.8061 269.046 42.8061C271.184 42.8061 272.677 43.1105 273.527 43.7192C274.39 44.3137 274.822 45.2055 274.822 46.3946C274.822 47.4421 274.503 48.3198 273.866 49.0276C273.244 49.7212 272.423 50.1459 271.403 50.3016C272.805 50.2875 273.902 50.606 274.695 51.2571C275.501 51.9083 275.905 52.8143 275.905 53.975C275.905 55.4472 275.388 56.6292 274.355 57.5211C273.321 58.4129 271.594 58.8588 269.174 58.8588C268.537 58.8588 267.949 58.8376 267.411 58.7951C267.27 58.7951 267.029 58.7809 266.689 58.7526C266.35 58.7385 266.003 58.7314 265.649 58.7314H262.443V57.4574L264.12 57.245V44.5473ZM267.199 49.8345C267.355 49.8486 267.673 49.8557 268.155 49.8557H269.153C270.016 49.8557 270.66 49.5867 271.085 49.0488C271.51 48.5109 271.722 47.7536 271.722 46.7768C271.722 45.8425 271.502 45.1631 271.064 44.7384C270.625 44.3137 269.896 44.1014 268.877 44.1014C268.608 44.1014 268.048 44.1297 267.199 44.1863V49.8345ZM267.199 57.33C267.525 57.4574 268.148 57.5211 269.068 57.5211C270.271 57.5211 271.141 57.2379 271.679 56.6717C272.217 56.1055 272.486 55.2844 272.486 54.2086C272.486 53.1752 272.239 52.4391 271.743 52.0003C271.262 51.5473 270.49 51.3208 269.429 51.3208C268.24 51.3208 267.496 51.335 267.199 51.3633V57.33Z" fill="white"/>
  <path d="M24.2683 56.3172L23.2381 56.1346V55.2215H25.5073C25.6558 55.2215 25.9435 55.2128 26.3705 55.1954C26.9088 55.1606 27.396 55.1432 27.8323 55.1432C28.8346 55.1432 29.6235 55.2563 30.199 55.4824C30.7744 55.7085 31.1828 56.0346 31.4241 56.4606C31.6654 56.878 31.786 57.4085 31.786 58.052C31.786 59.165 31.4241 60.0302 30.7001 60.6476C29.9762 61.265 28.946 61.5737 27.6095 61.5737C27.1918 61.5737 26.8716 61.5607 26.6489 61.5346V63.9085L28.4866 64.052V64.9129H23.1963V64.052L24.2683 63.9215V56.3172ZM26.635 60.6346C26.8206 60.6781 27.1269 60.6998 27.5538 60.6998C28.7604 60.6998 29.3636 59.8346 29.3636 58.1041C29.3636 57.3824 29.2105 56.8563 28.9042 56.5259C28.6072 56.1867 28.1571 56.0172 27.5538 56.0172C27.2939 56.0172 27.0898 56.0302 26.9413 56.0563C26.7928 56.0737 26.6907 56.0867 26.635 56.0954V60.6346Z" fill="white"/>
  <path d="M37.2847 65.0563C35.6791 65.0563 34.4586 64.6215 33.6233 63.752C32.788 62.8737 32.3703 61.6737 32.3703 60.152C32.3703 59.1259 32.5931 58.2346 33.0386 57.478C33.4841 56.7128 34.0966 56.1302 34.8762 55.7302C35.6559 55.3215 36.5376 55.1172 37.5214 55.1172C37.9112 55.1172 38.2871 55.1389 38.6491 55.1824C39.011 55.2172 39.4472 55.2693 39.9577 55.3389C40.3568 55.3998 40.6306 55.4345 40.7791 55.4432L40.612 58.352H39.1224L38.6491 56.3563C38.4449 56.1476 38.0179 56.0432 37.3682 56.0432C36.6536 56.0432 36.0874 56.378 35.6698 57.0476C35.2614 57.7085 35.0572 58.6824 35.0572 59.9694C35.0572 61.2215 35.2568 62.2259 35.6559 62.9824C36.0642 63.7389 36.6536 64.1172 37.4239 64.1172C37.8045 64.1172 38.0922 64.0824 38.2871 64.0128C38.4913 63.9433 38.663 63.8433 38.8022 63.7128L39.4287 62.3172L40.793 62.4346L40.5424 64.5607C40.2733 64.5781 39.9438 64.6433 39.554 64.7563C39.1827 64.852 38.83 64.9259 38.4959 64.9781C38.1711 65.0302 37.7673 65.0563 37.2847 65.0563Z" fill="white"/>
  <path d="M42.7854 56.3172L41.7551 56.1346V55.2215H44.0244C44.1729 55.2215 44.4606 55.2128 44.8875 55.1954C45.4259 55.1606 45.9131 55.1432 46.3493 55.1432C47.3517 55.1432 48.1406 55.2563 48.716 55.4824C49.2915 55.7085 49.6999 56.0346 49.9412 56.4606C50.1825 56.878 50.3031 57.4085 50.3031 58.052C50.3031 59.165 49.9412 60.0302 49.2172 60.6476C48.4933 61.265 47.4631 61.5737 46.1266 61.5737C45.7089 61.5737 45.3887 61.5607 45.166 61.5346V63.9085L47.0037 64.052V64.9129H41.7134V64.052L42.7854 63.9215V56.3172ZM45.1521 60.6346C45.3377 60.6781 45.644 60.6998 46.0709 60.6998C47.2775 60.6998 47.8807 59.8346 47.8807 58.1041C47.8807 57.3824 47.7276 56.8563 47.4213 56.5259C47.1243 56.1867 46.6742 56.0172 46.0709 56.0172C45.811 56.0172 45.6068 56.0302 45.4583 56.0563C45.3098 56.0737 45.2077 56.0867 45.1521 56.0954V60.6346Z" fill="white"/>
  <path fill-rule="evenodd" clip-rule="evenodd" d="M30.8758 26.2032V23.9443C33.4668 21.6412 34.903 21.4945 37.2751 21.2523C38.6256 21.1144 40.2793 20.9455 42.6221 20.3301V22.589C40.2793 23.2044 38.6256 23.3733 37.2751 23.5112C34.903 23.7535 33.4668 23.9001 30.8758 26.2032Z" fill="white"/>
  <path fill-rule="evenodd" clip-rule="evenodd" d="M43.0732 19.7446V22.9377L42.7362 23.0263C40.3595 23.6506 38.678 23.8223 37.3218 23.9608L37.3204 23.961C36.125 24.0831 35.2291 24.1768 34.3108 24.5095C33.4011 24.8391 32.4428 25.4145 31.1753 26.5412L30.4234 27.2096V23.7418L30.575 23.607C31.8985 22.4306 32.9538 21.7812 34.003 21.4011C35.0351 21.0272 36.0354 20.925 37.1996 20.8061L37.2286 20.8032C38.573 20.6659 40.1987 20.4997 42.5067 19.8935L43.0732 19.7446ZM42.1697 20.911C40.088 21.4194 38.5677 21.5747 37.3218 21.7019L37.3204 21.7021C36.125 21.8241 35.2291 21.9179 34.3108 22.2506C33.4378 22.5669 32.5199 23.1097 31.3269 24.1489V25.2308C32.3135 24.4444 33.1602 23.9653 34.003 23.66C35.0351 23.2861 36.0354 23.1839 37.1996 23.065L37.2286 23.0621C38.5066 22.9316 40.0388 22.775 42.1697 22.239V20.911Z" fill="white"/>
  <path fill-rule="evenodd" clip-rule="evenodd" d="M30.8758 29.3658L30.8687 26.2034C33.4597 23.9003 34.896 23.7536 37.2681 23.5113C38.6185 23.3734 40.2722 23.2045 42.615 22.5891L42.6221 25.7516C40.2793 26.367 38.6256 26.5359 37.2751 26.6738C34.903 26.916 33.4668 27.0627 30.8758 29.3658Z" fill="#0053A1"/>
  <path fill-rule="evenodd" clip-rule="evenodd" d="M30.8758 31.1728V28.9139C33.4668 26.6108 34.903 26.4641 37.2751 26.2219C38.6256 26.0839 40.2793 25.915 42.6221 25.2997V27.5586C40.2793 28.1739 38.6256 28.3428 37.2751 28.4808C34.903 28.723 33.4668 28.8697 30.8758 31.1728Z" fill="#D12925"/>
  <path fill-rule="evenodd" clip-rule="evenodd" d="M43.0732 19.7446V28.3591L42.7362 28.4476C40.3564 29.0728 38.6471 29.2474 37.291 29.386C36.7903 29.4371 36.3378 29.4833 35.9174 29.5455C35.1356 29.6611 34.4467 29.8313 33.7123 30.1817C32.9745 30.5338 32.1709 31.0776 31.1753 31.9626L30.4234 32.631V23.7418L30.575 23.607C31.6125 22.6848 32.4864 22.0853 33.3232 21.686C34.1634 21.285 34.946 21.0955 35.7853 20.9714C36.2552 20.9019 36.7374 20.8527 37.2578 20.7996C38.6014 20.6624 40.2006 20.4992 42.5067 19.8935L43.0732 19.7446ZM42.1697 20.9109C40.0812 21.4206 38.537 21.5784 37.291 21.7057C36.7903 21.7568 36.3378 21.8031 35.9174 21.8652C35.1356 21.9809 34.4467 22.151 33.7123 22.5014C33.0123 22.8355 32.2531 23.3421 31.3269 24.1489V30.6522C32.0486 30.0769 32.6963 29.6654 33.3232 29.3663C34.1634 28.9653 34.946 28.7758 35.7853 28.6517C36.2552 28.5822 36.7374 28.533 37.2578 28.4798C38.5349 28.3495 40.043 28.1956 42.1697 27.6604V20.9109Z" fill="white"/>
  <path fill-rule="evenodd" clip-rule="evenodd" d="M53.0136 54.2138L20.4854 54.2138L20.4854 53.491L53.0136 53.491L53.0136 54.2138Z" fill="white"/>
  <path fill-rule="evenodd" clip-rule="evenodd" d="M37.1115 13.5535V50.5995H36.3887V13.5535H37.1115Z" fill="white"/>
  <path fill-rule="evenodd" clip-rule="evenodd" d="M52.9237 40.6602L52.9237 52.3162L20.5762 52.3162L20.5762 40.6602L21.299 40.6602L21.299 51.5933L52.2008 51.5933L52.2008 40.6602L52.9237 40.6602Z" fill="white"/>
  <path fill-rule="evenodd" clip-rule="evenodd" d="M34.852 24.3961L34.852 50.5091L22.3828 50.5091L22.3828 40.6603L23.1057 40.6603L23.1057 49.7863L34.1291 49.7863L34.1291 24.3961L34.852 24.3961Z" fill="white"/>
  <path fill-rule="evenodd" clip-rule="evenodd" d="M38.6471 24.3961L38.6471 50.5091L51.1162 50.5091L51.1162 40.6603L50.3934 40.6603L50.3934 49.7863L39.3699 49.7863L39.3699 24.3961L38.6471 24.3961Z" fill="white"/>
  <path fill-rule="evenodd" clip-rule="evenodd" d="M40.4547 32.5283L40.4547 48.7021L49.3096 48.7024L49.3096 40.6607L48.5867 40.6607L48.5867 47.9796L41.1775 47.9793L41.1775 32.5283L40.4547 32.5283Z" fill="white"/>
  <path fill-rule="evenodd" clip-rule="evenodd" d="M33.0453 32.5283L33.0453 48.7024L24.1904 48.7024L24.1904 40.6607L24.9133 40.6607L24.9133 47.9796L32.3225 47.9796L32.3225 32.5283L33.0453 32.5283Z" fill="white"/>
  <path d="M15.5509 51.3346L11.4668 53.9521L10.6187 52.6288C10.2973 52.1274 10.1083 51.7874 10.0515 51.6089C9.96283 51.3356 9.97097 51.054 10.076 50.764C10.1791 50.4752 10.3931 50.2266 10.7182 50.0183C10.9689 49.8576 11.2089 49.768 11.4381 49.7495C11.6673 49.731 11.8763 49.7608 12.0652 49.8389C12.251 49.9163 12.4062 50.0173 12.5306 50.1419C12.6958 50.3138 12.898 50.5864 13.1372 50.9597L13.4818 51.4974L15.0224 50.51L15.5509 51.3346ZM11.6292 52.6847L12.7881 51.9419L12.4989 51.4906C12.2906 51.1656 12.13 50.962 12.017 50.8798C11.9041 50.7976 11.7825 50.755 11.6522 50.752C11.5207 50.7472 11.3946 50.7835 11.2739 50.8609C11.1253 50.9561 11.0307 51.0783 10.9901 51.2275C10.9494 51.3767 10.9599 51.5259 11.0214 51.6751C11.066 51.7854 11.1834 51.9892 11.3739 52.2863L11.6292 52.6847Z" fill="white"/>
  <path d="M10.979 48.1153C10.5199 48.2981 10.1073 48.3829 9.74107 48.3696C9.47072 48.3585 9.20926 48.3012 8.95667 48.1976C8.70327 48.0919 8.49047 47.9511 8.31829 47.7751C8.08761 47.5416 7.89923 47.2415 7.75314 46.8747C7.48871 46.2106 7.4833 45.5978 7.73691 45.0362C7.9897 44.4725 8.48295 44.0446 9.21665 43.7524C9.9442 43.4627 10.5927 43.4336 11.1621 43.6651C11.7295 43.8974 12.1451 44.3445 12.4087 45.0065C12.6755 45.6766 12.6838 46.2907 12.4335 46.8487C12.1811 47.4074 11.6963 47.8296 10.979 48.1153ZM10.5749 47.1899C11.0852 46.9867 11.4256 46.7146 11.5961 46.3736C11.7646 46.0335 11.7766 45.682 11.6321 45.3193C11.4877 44.9565 11.2392 44.7112 10.8867 44.5832C10.5313 44.4541 10.0923 44.4935 9.56973 44.7017C9.05327 44.9073 8.71328 45.1745 8.54974 45.5032C8.38538 45.8298 8.37788 46.1807 8.52723 46.5557C8.67658 46.9308 8.92607 47.1816 9.27571 47.3083C9.6233 47.4359 10.0563 47.3964 10.5749 47.1899Z" fill="white"/>
  <path d="M9.23725 39.657L9.35557 38.6678C9.90288 38.7119 10.3351 38.8767 10.6521 39.1622C10.9666 39.4459 11.1724 39.8435 11.2697 40.3549C11.3901 40.9877 11.2735 41.5488 10.9197 42.0383C10.5638 42.5282 10.0109 42.8444 9.26112 42.9871C8.46797 43.138 7.81355 43.0503 7.29788 42.724C6.78004 42.3981 6.45763 41.9014 6.33065 41.2339C6.21974 40.651 6.30194 40.1447 6.57725 39.7151C6.73972 39.4596 7.00136 39.2414 7.36215 39.0605L7.7709 39.9697C7.53457 40.073 7.362 40.2282 7.25319 40.4353C7.14397 40.6402 7.11368 40.8705 7.16233 41.1262C7.22953 41.4795 7.41094 41.7425 7.70654 41.9153C8.00173 42.0859 8.43321 42.1172 9.00099 42.0092C9.60344 41.8946 10.0119 41.7046 10.2264 41.4393C10.4409 41.1739 10.5152 40.8679 10.4492 40.5211C10.4005 40.2654 10.2774 40.0609 10.0798 39.9076C9.88227 39.7543 9.60141 39.6708 9.23725 39.657Z" fill="white"/>
  <path d="M9.14616 34.3802L9.4501 33.4314C9.97909 33.5786 10.3721 33.8224 10.6292 34.1629C10.8841 34.5011 11.0108 34.9306 11.0092 35.4512C11.0073 36.0953 10.7862 36.6241 10.346 37.0375C9.90361 37.4509 9.30077 37.6565 8.53751 37.6542C7.73013 37.6518 7.10426 37.4415 6.6599 37.0232C6.21333 36.605 5.99106 36.0561 5.99308 35.3767C5.99484 34.7833 6.17164 34.3018 6.52349 33.9323C6.73151 33.7123 7.0298 33.5477 7.41838 33.4386L7.64712 34.4088C7.39547 34.4654 7.19658 34.585 7.05044 34.7677C6.90431 34.9482 6.83086 35.1685 6.83009 35.4288C6.82902 35.7884 6.9572 36.0811 7.21462 36.3069C7.47206 36.5304 7.88975 36.6431 8.46771 36.6448C9.08097 36.6466 9.51807 36.5376 9.77903 36.3178C10.04 36.098 10.171 35.8116 10.172 35.4586C10.1728 35.1983 10.0908 34.9742 9.92587 34.7862C9.76098 34.5982 9.50108 34.4628 9.14616 34.3802Z" fill="white"/>
  <path d="M6.4541 31.6234L6.63075 30.724L9.79973 31.3464L7.00957 28.7953L7.1977 27.8375L11.9577 28.7724L11.781 29.6718L8.67372 29.0615L11.4028 31.5972L11.2141 32.5583L6.4541 31.6234Z" fill="white"/>
  <path d="M7.93873 25.9646L8.28288 25.1151L11.2761 26.3277L9.0209 23.2934L9.38742 22.3887L13.8834 24.2101L13.5392 25.0596L10.6043 23.8706L12.8025 26.8783L12.4347 27.786L7.93873 25.9646ZM7.7636 23.1803L7.93381 22.7602C8.20193 22.8974 8.38094 23.0841 8.47084 23.3205C8.55952 23.5539 8.54878 23.8066 8.43861 24.0786C8.32845 24.3505 8.15986 24.5404 7.93286 24.6484C7.70463 24.7535 7.44652 24.762 7.15852 24.6739L7.32874 24.2537C7.4797 24.2982 7.61081 24.2918 7.72208 24.2346C7.8313 24.1765 7.91987 24.0636 7.98779 23.8959C8.05571 23.7283 8.07068 23.5856 8.03269 23.4678C7.99266 23.3493 7.90296 23.2534 7.7636 23.1803Z" fill="white"/>
  <path d="M14.7268 19.7692L15.4965 19.1367C15.8612 19.5472 16.0593 19.9651 16.0908 20.3906C16.1216 20.813 15.9953 21.2426 15.7118 21.6792C15.361 22.2194 14.8886 22.5439 14.2945 22.6527C13.6987 22.7603 13.0806 22.6062 12.4405 22.1906C11.7633 21.7509 11.3514 21.2349 11.2047 20.6425C11.0562 20.049 11.1669 19.4673 11.5369 18.8974C11.8601 18.3997 12.2697 18.091 12.7657 17.9712C13.0597 17.8991 13.3996 17.9225 13.7853 18.0414L13.4516 18.9807C13.2094 18.8919 12.9774 18.8846 12.7556 18.9588C12.535 19.0313 12.3538 19.1766 12.212 19.395C12.0162 19.6965 11.9653 20.012 12.0592 20.3412C12.1544 20.6686 12.4443 20.9897 12.929 21.3045C13.4434 21.6384 13.8698 21.7838 14.2082 21.7405C14.5467 21.6973 14.812 21.5276 15.0042 21.2316C15.146 21.0133 15.1985 20.7805 15.1619 20.5331C15.1252 20.2857 14.9802 20.0311 14.7268 19.7692Z" fill="white"/>
  <path d="M13.9557 16.0071L14.6291 15.296L16.1283 16.7157C16.2625 16.542 16.3233 16.396 16.3107 16.2777C16.2981 16.1595 16.1974 15.9001 16.0086 15.4995C15.767 14.9911 15.6702 14.6185 15.7184 14.3815C15.765 14.1462 15.9438 13.8644 16.2548 13.536C16.2699 13.52 16.3018 13.4848 16.3502 13.4304L16.8764 13.9287L16.7784 14.0273C16.6404 14.1731 16.5579 14.2971 16.5311 14.3992C16.5026 14.4999 16.5055 14.6059 16.5397 14.7173C16.574 14.8287 16.6669 15.0337 16.8186 15.3323C16.8994 15.4908 16.9564 15.6344 16.9895 15.763C17.0242 15.89 17.0169 16.0517 16.9676 16.2481C17.1626 16.132 17.3767 16.0872 17.61 16.1136C17.8447 16.1384 18.1446 16.2067 18.5097 16.3185L19.9306 16.7526L19.1388 17.5887L17.83 17.1469C17.8111 17.1411 17.7734 17.1312 17.7169 17.1172C17.6965 17.1131 17.6132 17.0904 17.4669 17.0491C17.2075 16.9766 17.0281 16.9495 16.9287 16.9678C16.8308 16.9845 16.7242 17.0521 16.6089 17.1708L18.1513 18.6315L17.4779 19.3426L13.9557 16.0071Z" fill="white"/>
  <path d="M17.8525 12.3679L18.593 11.8277L20.4965 14.4366L20.1808 10.6692L20.9694 10.0939L23.8285 14.0126L23.0881 14.5528L21.2216 11.9947L21.5029 15.7094L20.7117 16.2867L17.8525 12.3679Z" fill="white"/>
  <path d="M22.7862 9.22343L23.6157 8.83356L24.9894 11.7564L25.3946 7.99753L26.278 7.58232L28.3413 11.9725L27.5118 12.3624L26.1649 9.49649L25.736 13.197L24.8495 13.6136L22.7862 9.22343ZM24.5484 7.0607L24.9587 6.86787C25.0623 7.15065 25.0669 7.40931 24.9724 7.64385C24.8789 7.87546 24.6995 8.05366 24.4339 8.17846C24.1684 8.30325 23.9157 8.32819 23.6757 8.25329C23.4368 8.17544 23.2416 8.00639 23.09 7.74613L23.5003 7.55331C23.5809 7.68849 23.6815 7.77284 23.802 7.80636C23.9216 7.83789 24.0633 7.81518 24.227 7.73824C24.3907 7.6613 24.4986 7.56671 24.5507 7.4545C24.6018 7.34028 24.6011 7.20901 24.5484 7.0607Z" fill="white"/>
  <path d="M35.7967 8.88895L36.7736 9.08449C36.6868 9.62666 36.4886 10.0446 36.1791 10.3383C35.8716 10.6295 35.4591 10.8036 34.9416 10.8604C34.3013 10.9308 33.751 10.7705 33.2908 10.3795C32.8304 9.98623 32.5585 9.41027 32.4751 8.65158C32.3868 7.84903 32.5256 7.20351 32.8913 6.71502C33.2568 6.22433 33.7773 5.94186 34.4526 5.86762C35.0425 5.80278 35.5408 5.92443 35.9475 6.23258C36.1894 6.4146 36.3864 6.69254 36.5385 7.06641L35.6001 7.40259C35.5156 7.15889 35.3744 6.97468 35.1765 6.84996C34.9807 6.72501 34.7535 6.67675 34.4948 6.70519C34.1374 6.74449 33.8609 6.9047 33.6655 7.18584C33.4722 7.46674 33.4071 7.89444 33.4703 8.46894C33.5373 9.07852 33.6947 9.50063 33.9424 9.73527C34.1901 9.96991 34.4894 10.0679 34.8402 10.0294C35.099 10.0009 35.3125 9.89424 35.4808 9.7093C35.6491 9.52435 35.7544 9.2509 35.7967 8.88895Z" fill="white"/>
  <path d="M37.8227 8.33435C37.8629 7.84185 37.9704 7.43452 38.145 7.11236C38.275 6.87509 38.4425 6.66633 38.6476 6.48609C38.8549 6.30604 39.0756 6.17798 39.3098 6.10193C39.6214 5.99901 39.974 5.96362 40.3676 5.99576C41.0799 6.05393 41.6313 6.3214 42.0218 6.79815C42.4144 7.27509 42.5786 7.90712 42.5143 8.69423C42.4506 9.47475 42.1885 10.0686 41.7281 10.4759C41.2678 10.881 40.6826 11.0545 39.9725 10.9965C39.2535 10.9378 38.6997 10.6724 38.3111 10.2002C37.9227 9.72582 37.7599 9.10387 37.8227 8.33435ZM38.8313 8.38351C38.7866 8.93097 38.8791 9.35684 39.1088 9.66111C39.3386 9.96318 39.6481 10.1301 40.0373 10.1619C40.4265 10.1937 40.7567 10.0801 41.0279 9.82115C41.3015 9.56019 41.4612 9.14939 41.507 8.58874C41.5523 8.03468 41.464 7.61137 41.2422 7.31881C41.0226 7.02643 40.7117 6.86381 40.3093 6.83095C39.907 6.79809 39.5713 6.91012 39.3025 7.16704C39.0338 7.42176 38.8767 7.82725 38.8313 8.38351Z" fill="white"/>
  <path d="M44.0496 6.72991L44.9882 7.00981L44.4095 8.95043L45.1642 9.17548C45.39 8.61899 45.735 8.19933 46.1991 7.91649C46.6633 7.63365 47.2283 7.59152 47.8942 7.7901C48.5348 7.98111 48.9825 8.34021 49.2373 8.86739C49.4921 9.39457 49.5048 10.0429 49.2753 10.8124C49.1253 11.3155 48.9146 11.7211 48.6431 12.0292C48.3724 12.3352 48.0565 12.5414 47.6956 12.6478C47.3374 12.7528 46.9342 12.7385 46.4861 12.6048C46.0294 12.4686 45.6873 12.2883 45.4595 12.0639C45.2339 11.8401 45.0676 11.5373 44.9605 11.1554C44.8555 10.7742 44.8458 10.3742 44.9316 9.95554L44.1769 9.73048L43.6019 11.6584L42.6633 11.3785L44.0496 6.72991ZM45.9865 9.84541C45.8326 10.3612 45.8163 10.7903 45.9375 11.1326C46.0594 11.4728 46.3063 11.6983 46.6784 11.8093C47.061 11.9234 47.3888 11.8704 47.6616 11.6502C47.9372 11.4285 48.1579 11.0397 48.3237 10.4837C48.4825 9.95098 48.4879 9.52785 48.3397 9.21433C48.1936 8.90143 47.9482 8.6936 47.6036 8.59085C47.2675 8.49061 46.9552 8.53444 46.6667 8.72233C46.3809 8.90874 46.1542 9.2831 45.9865 9.84541Z" fill="white"/>
  <path d="M50.4677 10.6188L49.7309 9.97506C50.2833 9.37451 50.9839 9.30033 51.8327 9.75252C52.3351 10.0201 52.6546 10.3328 52.7914 10.6906C52.9312 11.0475 52.9218 11.3749 52.7631 11.6728C52.6542 11.8772 52.4973 12.0311 52.2923 12.1343C52.0884 12.2357 51.8364 12.2864 51.5364 12.2865C51.7688 12.5353 51.9083 12.7871 51.955 13.0419C52.0028 13.2948 51.9572 13.5517 51.8182 13.8126C51.618 14.1884 51.318 14.4184 50.9181 14.5029C50.5202 14.5883 50.0467 14.4848 49.4976 14.1923C49.0498 13.9538 48.7359 13.6915 48.5558 13.4056C48.3767 13.1178 48.3308 12.7347 48.4182 12.2563L49.3481 12.418C49.2929 12.7186 49.3123 12.9426 49.4062 13.0901C49.502 13.2386 49.6493 13.3658 49.8478 13.4716C50.1204 13.6168 50.3501 13.6642 50.5369 13.6137C50.7248 13.5613 50.8592 13.4592 50.9401 13.3073C51.0334 13.1321 51.0376 12.9531 50.9525 12.7703C50.8693 12.5886 50.6857 12.422 50.4014 12.2705L50.2057 12.1663L50.5495 11.5209L50.6488 11.5738C50.9136 11.7149 51.1477 11.7633 51.3512 11.7192C51.5546 11.6752 51.7087 11.5548 51.8135 11.3581C51.8965 11.2024 51.909 11.0404 51.8512 10.8721C51.7953 10.7049 51.6613 10.5647 51.4491 10.4517C51.0869 10.2588 50.7598 10.3145 50.4677 10.6188Z" fill="white"/>
  <path d="M54.7461 18.0267L58.2617 14.6843L59.3447 15.8234C59.7551 16.2551 60.005 16.5532 60.0945 16.7177C60.2332 16.9693 60.2785 17.2474 60.2302 17.552C60.1836 17.8551 60.0203 18.1397 59.7406 18.4057C59.5247 18.6108 59.306 18.7442 59.0845 18.8057C58.8629 18.8672 58.652 18.8775 58.4518 18.8365C58.2546 18.7957 58.0832 18.7258 57.9375 18.6269C57.7428 18.4894 57.4927 18.2599 57.1872 17.9386L56.7471 17.4758L55.421 18.7366L54.7461 18.0267ZM58.3419 15.9596L57.3442 16.9081L57.7136 17.2965C57.9796 17.5763 58.1758 17.7459 58.3023 17.8053C58.4287 17.8646 58.5562 17.8835 58.6847 17.8617C58.8147 17.8416 58.9317 17.7822 59.0356 17.6834C59.1635 17.5618 59.2333 17.4239 59.245 17.2697C59.2567 17.1155 59.2182 16.971 59.1295 16.8361C59.065 16.7362 58.9111 16.5583 58.6679 16.3025L58.3419 15.9596Z" fill="white"/>
  <path d="M57.9353 21.7814L62.0215 19.1671L63.9599 22.1968L63.2687 22.6391L61.8581 20.4344L60.9522 21.014L62.2648 23.0654L61.5763 23.5059L60.2638 21.4544L59.1517 22.166L60.6122 24.4488L59.9237 24.8892L57.9353 21.7814Z" fill="white"/>
  <path d="M64.8551 24.2871L65.2246 25.1942L63.3125 25.9732C63.4153 26.1672 63.5232 26.2828 63.6361 26.3202C63.7489 26.3576 64.0268 26.373 64.4696 26.3665C65.0324 26.3564 65.4117 26.4221 65.6076 26.5639C65.8027 26.7035 65.9855 26.9828 66.1561 27.4016C66.1644 27.422 66.1834 27.4655 66.2129 27.5321L65.5418 27.8055L65.4924 27.6756C65.4167 27.4896 65.3378 27.3634 65.2559 27.2967C65.176 27.2292 65.0782 27.1881 64.9626 27.1732C64.847 27.1584 64.6219 27.1584 64.2873 27.1732C64.1096 27.1813 63.9553 27.1739 63.8245 27.151C63.6945 27.1301 63.5502 27.0567 63.3917 26.9307C63.4169 27.1563 63.3693 27.3698 63.2489 27.5713C63.1294 27.7748 62.9433 28.0197 62.6908 28.306L61.7086 29.4208L61.2741 28.3544L62.217 27.345C62.23 27.3301 62.2546 27.2999 62.2908 27.2542C62.303 27.2373 62.3581 27.1708 62.456 27.0546C62.6292 26.8483 62.728 26.6961 62.7524 26.598C62.7776 26.502 62.76 26.377 62.6996 26.2229L60.7323 27.0245L60.3627 26.1174L64.8551 24.2871Z" fill="white"/>
  <path d="M62.0383 31.4064L65.9772 30.5534L65.6726 29.1466L66.4746 28.9729L67.2905 32.7405L66.4885 32.9142L66.1846 31.5106L62.2456 32.3637L62.0383 31.4064Z" fill="white"/>
  <path d="M64.8959 34.4626C65.3898 34.4473 65.8066 34.5083 66.1463 34.6457C66.3967 34.7483 66.6229 34.8913 66.825 35.0749C67.0272 35.2606 67.1792 35.4656 67.2811 35.6897C67.4183 35.9878 67.4931 36.3342 67.5053 36.7289C67.5274 37.4433 67.3235 38.0212 66.8936 38.4627C66.4637 38.9064 65.8541 39.1405 65.0648 39.165C64.282 39.1892 63.6625 38.9954 63.2061 38.5836C62.7519 38.1717 62.5138 37.6097 62.4918 36.8975C62.4694 36.1765 62.671 35.5965 63.0966 35.1573C63.5244 34.7181 64.1242 34.4865 64.8959 34.4626ZM64.9602 35.4703C64.4112 35.4874 63.9984 35.627 63.7218 35.8894C63.4475 36.1517 63.3163 36.478 63.3284 36.8683C63.3405 37.2586 63.4904 37.5739 63.7782 37.8144C64.0682 38.057 64.4943 38.1696 65.0566 38.1522C65.6122 38.135 66.0229 37.9998 66.2888 37.7465C66.5546 37.4955 66.6813 37.1683 66.6688 36.7648C66.6563 36.3613 66.5073 36.0404 66.2219 35.802C65.9386 35.5636 65.5181 35.453 64.9602 35.4703Z" fill="white"/>
  <path d="M62.3839 39.6595L67.1729 40.4323L66.9225 41.9839C66.8276 42.5719 66.7418 42.9514 66.665 43.1222C66.5489 43.385 66.355 43.5895 66.0834 43.7356C65.814 43.882 65.4887 43.9245 65.1076 43.863C64.8136 43.8155 64.575 43.7223 64.3919 43.5833C64.2088 43.4442 64.0728 43.2826 63.9841 43.0985C63.8972 42.9169 63.849 42.7382 63.8394 42.5623C63.8309 42.3241 63.862 41.9861 63.9326 41.5484L64.0343 40.9179L62.2279 40.6264L62.3839 39.6595ZM66.2067 41.2685L64.8477 41.0492L64.7623 41.5784C64.7008 41.9595 64.6848 42.2183 64.7141 42.3549C64.7435 42.4915 64.8057 42.6043 64.9008 42.6934C64.9956 42.7846 65.1138 42.8417 65.2553 42.8645C65.4295 42.8927 65.5815 42.8647 65.7113 42.7806C65.841 42.6965 65.9327 42.5784 65.9863 42.4261C66.0268 42.3142 66.0751 42.084 66.1313 41.7356L66.2067 41.2685Z" fill="white"/>
  <path d="M63.6451 45.1082C64.1091 45.278 64.4731 45.49 64.7372 45.7441C64.9313 45.9326 65.0879 46.1497 65.207 46.3953C65.3254 46.6431 65.3901 46.8899 65.401 47.1359C65.4173 47.4637 65.3575 47.8129 65.2217 48.1837C64.976 48.8549 64.5714 49.3152 64.0079 49.5646C63.4436 49.8161 62.7907 49.8061 62.0491 49.5346C61.3137 49.2654 60.8111 48.8546 60.5411 48.3024C60.2731 47.7509 60.2617 47.1406 60.5066 46.4715C60.7546 45.7942 61.1579 45.331 61.7165 45.0822C62.2772 44.834 62.9201 44.8427 63.6451 45.1082ZM63.3292 46.0672C62.8134 45.8784 62.3782 45.8542 62.0238 45.9946C61.6714 46.1357 61.4281 46.3896 61.2939 46.7562C61.1597 47.1229 61.1812 47.4714 61.3586 47.8018C61.5373 48.1351 61.8908 48.3984 62.419 48.5918C62.941 48.7829 63.3725 48.8105 63.7136 48.6746C64.0539 48.5408 64.2934 48.2843 64.4322 47.9052C64.571 47.5262 64.5524 47.1728 64.3763 46.8453C64.2023 46.5185 63.8533 46.2591 63.3292 46.0672Z" fill="white"/>
  <path d="M63.5303 51.4995L62.5301 53.1606C62.3321 53.4895 62.1706 53.7257 62.0456 53.8693C61.9212 54.0159 61.7775 54.1263 61.6143 54.2006C61.45 54.2768 61.2695 54.3136 61.0728 54.311C60.878 54.3096 60.6908 54.2548 60.5112 54.1467C60.3166 54.0295 60.1699 53.8691 60.071 53.6654C59.9711 53.4636 59.9345 53.2485 59.9614 53.02C59.7352 53.2289 59.4923 53.3479 59.2327 53.377C58.9732 53.4061 58.7234 53.3484 58.4834 53.2039C58.2944 53.0901 58.1369 52.9348 58.0108 52.7378C57.8855 52.5439 57.8151 52.338 57.7995 52.1201C57.7847 51.9052 57.8321 51.6788 57.9418 51.441C58.0109 51.2921 58.2046 50.9491 58.5228 50.4119L59.3744 48.9974L63.5303 51.4995ZM62.3334 51.9221L61.3724 51.3435L61.0413 51.8935C60.8444 52.2204 60.7268 52.4264 60.6885 52.5115C60.619 52.6654 60.6005 52.8074 60.6328 52.9376C60.6659 53.0708 60.7495 53.1778 60.8837 53.2586C61.0122 53.336 61.1378 53.3626 61.2604 53.3386C61.3838 53.3176 61.4961 53.2423 61.5973 53.1127C61.6568 53.0352 61.8054 52.799 62.0432 52.404L62.3334 51.9221ZM60.6807 50.9271L59.5694 50.258L59.1018 51.0348C58.9198 51.3372 58.8128 51.5341 58.7808 51.6256C58.7284 51.764 58.7224 51.8981 58.7626 52.0279C58.8037 52.1608 58.8979 52.2716 59.0453 52.3603C59.17 52.4354 59.2941 52.4689 59.4174 52.4608C59.5408 52.4526 59.657 52.4029 59.7661 52.3115C59.874 52.222 60.0429 51.9864 60.2728 51.6046L60.6807 50.9271Z" fill="white"/>
  <path d="M45.7852 34.3354C48.4958 34.3354 48.9476 33.4319 49.3994 31.6248C48.0441 32.0765 47.1405 32.0765 45.7852 34.3354Z" fill="white"/>
  <path fill-rule="evenodd" clip-rule="evenodd" d="M49.3994 31.6248C49.2243 31.6831 49.0568 31.7339 48.8949 31.7831C48.7158 31.8374 48.5435 31.8896 48.3754 31.9477C47.7077 32.1785 47.1064 32.5013 46.4062 33.4117C46.2083 33.669 46.0025 33.9731 45.7852 34.3354C46.2091 34.3354 46.5778 34.3133 46.8999 34.2691C48.1911 34.0919 48.7332 33.5595 49.0829 32.6719C49.2037 32.3652 49.3015 32.0162 49.3994 31.6248Z" fill="white"/>
  <path d="M42.1714 37.0077C42.5636 34.3256 43.5231 34.0093 45.3766 33.8238C44.7334 35.0995 44.6026 35.9936 42.1714 37.0077Z" fill="white"/>
  <path fill-rule="evenodd" clip-rule="evenodd" d="M45.3766 33.8238C45.2935 33.9886 45.2189 34.147 45.1469 34.3002C45.0672 34.4695 44.9906 34.6324 44.9088 34.7903C44.5838 35.4176 44.1774 35.9659 43.1753 36.527C42.8921 36.6855 42.5613 36.8451 42.1714 37.0077C42.2327 36.5883 42.3079 36.2266 42.3983 35.9143C42.7605 34.6624 43.3658 34.2031 44.2947 33.9855C44.6156 33.9103 44.9751 33.864 45.3766 33.8238Z" fill="white"/>
  <path d="M31.8238 37.0076C31.4315 34.3255 30.472 34.0092 28.6186 33.8237C29.2617 35.0994 29.3925 35.9934 31.8238 37.0076Z" fill="white"/>
  <path fill-rule="evenodd" clip-rule="evenodd" d="M28.6186 33.8237C28.7016 33.9885 28.7762 34.1469 28.8482 34.3C28.9279 34.4694 29.0045 34.6323 29.0863 34.7902C29.4113 35.4174 29.8177 35.9658 30.8199 36.5268C31.103 36.6854 31.4338 36.845 31.8238 37.0076C31.7624 36.5881 31.6872 36.2265 31.5968 35.9142C31.2346 34.6622 30.6294 34.2029 29.7005 33.9854C29.3796 33.9102 29.02 33.8639 28.6186 33.8237Z" fill="white"/>
  <path d="M47.5928 30.7212C50.3035 30.7212 50.3035 28.9141 50.3035 27.1069C49.3999 28.0105 48.0446 28.9141 47.5928 30.7212Z" fill="white"/>
  <path fill-rule="evenodd" clip-rule="evenodd" d="M50.3035 27.1069C50.1294 27.2809 49.9387 27.455 49.7408 27.6354C49.6248 27.7413 49.5062 27.8494 49.3872 27.9611C48.8507 28.4644 48.3043 29.0394 47.9275 29.8057C47.7907 30.0838 47.6763 30.387 47.5928 30.7212C47.9647 30.7212 48.2857 30.6872 48.5625 30.6238C49.8179 30.3364 50.1681 29.4455 50.2657 28.3862C50.3035 27.9766 50.3035 27.5418 50.3035 27.1069Z" fill="white"/>
  <path d="M48.0446 29.3659C46.6892 28.4623 46.2377 28.4623 46.2403 26.2036C48.0474 27.107 48.4966 28.0105 48.0446 29.3659Z" fill="white"/>
  <path fill-rule="evenodd" clip-rule="evenodd" d="M46.2403 26.2036C46.5969 26.3819 46.9006 26.5602 47.1549 26.7419C47.8544 27.2417 48.1806 27.7678 48.2063 28.3924C48.2187 28.6916 48.1621 29.0135 48.0446 29.3659C47.891 29.2635 47.7491 29.1728 47.6181 29.089C47.4857 29.0044 47.3645 28.9269 47.2538 28.8518C46.6885 28.4683 46.3971 28.1474 46.2897 27.2574C46.2553 26.9717 46.2398 26.6274 46.2403 26.2036Z" fill="white"/>
  <path d="M26.3421 29.3656C27.6975 28.4621 28.1491 28.4621 28.1464 26.2034C26.3393 27.1067 25.8902 28.0103 26.3421 29.3656Z" fill="white"/>
  <path fill-rule="evenodd" clip-rule="evenodd" d="M28.1464 26.2034C27.7898 26.3816 27.4861 26.5599 27.2318 26.7416C26.5323 27.2414 26.2061 27.7675 26.1804 28.3921C26.168 28.6914 26.2246 29.0132 26.3421 29.3656C26.4957 29.2633 26.6376 29.1725 26.7686 29.0887C26.901 29.0041 27.0222 28.9266 27.1329 28.8515C27.6982 28.468 27.9896 28.1471 28.097 27.2571C28.1314 26.9714 28.1469 26.6272 28.1464 26.2034Z" fill="white"/>
  <path d="M26.8105 30.7212C24.0999 30.7212 24.0999 28.9141 24.0999 27.1069C25.0034 28.0105 26.3588 28.9141 26.8105 30.7212Z" fill="white"/>
  <path fill-rule="evenodd" clip-rule="evenodd" d="M24.0999 27.1069C24.2739 27.2809 24.4646 27.455 24.6625 27.6354C24.7786 27.7413 24.8971 27.8494 25.0161 27.9611C25.5527 28.4644 26.099 29.0394 26.4758 29.8057C26.6126 30.0838 26.727 30.387 26.8105 30.7212C26.4386 30.7212 26.1177 30.6872 25.8408 30.6238C24.5854 30.3364 24.2353 29.4455 24.1376 28.3862C24.0999 27.9766 24.0999 27.5418 24.0999 27.1069Z" fill="white"/>
  <path d="M25.908 26.2036C23.5604 24.8483 23.6491 23.251 24.5527 21.6859C24.8834 22.9202 26.4203 24.4127 25.908 26.2036Z" fill="white"/>
  <path fill-rule="evenodd" clip-rule="evenodd" d="M24.5527 21.6859C24.6436 22.0253 24.8257 22.3841 25.0313 22.7633C25.0686 22.8321 25.1067 22.9017 25.1452 22.9719C25.5163 23.6489 25.9219 24.3888 25.9987 25.1961C26.0296 25.5209 26.0072 25.8567 25.908 26.2036C25.5964 26.0237 25.3277 25.8396 25.0982 25.6518C24.0267 24.7753 23.8078 23.8199 24.0559 22.8508C24.155 22.4633 24.3289 22.0736 24.5527 21.6859Z" fill="white"/>
  <path d="M26.3579 25.7514C28.6169 24.3962 28.6169 24.3962 28.6154 22.1375C28.1652 23.0409 26.358 23.0409 26.3579 25.7514Z" fill="white"/>
  <path fill-rule="evenodd" clip-rule="evenodd" d="M28.6154 22.1375C28.4723 22.4247 28.1921 22.6206 27.8764 22.8412C27.8205 22.8803 27.7635 22.9201 27.706 22.9613C27.2345 23.2994 26.7262 23.7328 26.4911 24.6157C26.4071 24.9314 26.3579 25.3046 26.3579 25.7514C26.7291 25.5287 27.0394 25.3426 27.2986 25.1771C27.8769 24.8078 28.2015 24.5408 28.3835 24.1981C28.4943 23.9896 28.5523 23.7531 28.5826 23.4485C28.6161 23.1124 28.6158 22.6934 28.6154 22.1375Z" fill="white"/>
  <path d="M47.9478 25.7514C45.6887 24.3962 45.6887 24.3962 45.6902 22.1375C46.1405 23.0409 47.9476 23.0409 47.9478 25.7514Z" fill="white"/>
  <path fill-rule="evenodd" clip-rule="evenodd" d="M45.6902 22.1375C45.8334 22.4247 46.1136 22.6206 46.4293 22.8412C46.4852 22.8803 46.5421 22.9201 46.5997 22.9613C47.0711 23.2994 47.5794 23.7328 47.8145 24.6157C47.8986 24.9314 47.9477 25.3046 47.9478 25.7514C47.5765 25.5287 47.2663 25.3426 47.0071 25.1771C46.4288 24.8078 46.1042 24.5408 45.9221 24.1981C45.8114 23.9896 45.7533 23.7531 45.723 23.4485C45.6896 23.1124 45.6899 22.6934 45.6902 22.1375Z" fill="white"/>
  <path d="M48.3059 26.2036C50.6534 24.8483 50.5647 23.251 49.6612 21.6859C49.3304 22.9202 47.7936 24.4127 48.3059 26.2036Z" fill="white"/>
  <path fill-rule="evenodd" clip-rule="evenodd" d="M49.6612 21.6859C49.5703 22.0253 49.3882 22.3841 49.1826 22.7633C49.1452 22.8321 49.1071 22.9017 49.0686 22.9719C48.6975 23.6489 48.292 24.3888 48.2152 25.1961C48.1843 25.5209 48.2066 25.8567 48.3059 26.2036C48.6175 26.0237 48.8861 25.8396 49.1157 25.6518C50.1871 24.7753 50.406 23.8199 50.158 22.8508C50.0588 22.4633 49.885 22.0736 49.6612 21.6859Z" fill="white"/>
  <path d="M47.5609 21.8235C49.0801 19.5785 48.3022 18.1806 46.8056 17.1678C47.0475 18.4225 46.3174 20.4366 47.5609 21.8235Z" fill="white"/>
  <path fill-rule="evenodd" clip-rule="evenodd" d="M46.8056 17.1678C46.8721 17.5127 46.8651 17.915 46.8459 18.3459C46.8424 18.4242 46.8385 18.5034 46.8346 18.5834C46.7967 19.3545 46.7553 20.1973 47.039 20.9569C47.1532 21.2626 47.32 21.5548 47.5609 21.8235C47.7625 21.5255 47.9237 21.2425 48.0481 20.9733C48.6287 19.7166 48.4081 18.7616 47.7615 17.9984C47.503 17.6932 47.1763 17.4187 46.8056 17.1678Z" fill="white"/>
  <path d="M47.1411 21.6855C44.8807 21.6856 44.425 20.7827 43.5214 19.4273C44.8825 19.8783 46.43 19.9638 47.1411 21.6855Z" fill="white"/>
  <path fill-rule="evenodd" clip-rule="evenodd" d="M43.5214 19.4273C43.7699 19.5097 44.0245 19.5798 44.2792 19.65C44.4815 19.7057 44.6839 19.7614 44.8831 19.8233C45.5 20.0147 46.0869 20.2648 46.5511 20.7547C46.7819 20.9983 46.9823 21.3011 47.1411 21.6855C46.7308 21.6855 46.38 21.6558 46.0752 21.599C45.2567 21.4465 44.7697 21.099 44.3536 20.6087C44.1207 20.3343 43.91 20.0151 43.6758 19.6604C43.6255 19.5843 43.5742 19.5066 43.5214 19.4273Z" fill="white"/>
  <path d="M27.399 21.6854C29.6593 21.6855 30.1151 20.7826 31.0186 19.4272C29.6575 19.8782 28.11 19.9637 27.399 21.6854Z" fill="white"/>
  <path fill-rule="evenodd" clip-rule="evenodd" d="M31.0186 19.4272C30.7702 19.5095 30.5155 19.5797 30.2608 19.6498C30.0585 19.7056 29.8562 19.7613 29.6569 19.8231C29.0401 20.0146 28.4532 20.2647 27.9889 20.7546C27.7582 20.9982 27.5577 21.301 27.399 21.6854C27.8092 21.6854 28.16 21.6557 28.4649 21.5989C29.2833 21.4464 29.7703 21.0989 30.1865 20.6085C30.4194 20.3341 30.6301 20.015 30.8643 19.6603C30.9145 19.5842 30.9658 19.5065 31.0186 19.4272Z" fill="white"/>
  <path d="M26.9274 21.8235C25.4082 19.5785 26.186 18.1806 27.6827 17.1678C27.4408 18.4225 28.1709 20.4366 26.9274 21.8235Z" fill="white"/>
  <path fill-rule="evenodd" clip-rule="evenodd" d="M27.6827 17.1678C27.6162 17.5127 27.6232 17.915 27.6424 18.3459C27.6459 18.4242 27.6498 18.5034 27.6537 18.5834C27.6916 19.3545 27.733 20.1973 27.4493 20.9569C27.3351 21.2626 27.1683 21.5548 26.9274 21.8235C26.7258 21.5255 26.5646 21.2425 26.4402 20.9733C25.8595 19.7166 26.0802 18.7616 26.7268 17.9984C26.9853 17.6932 27.312 17.4187 27.6827 17.1678Z" fill="white"/>
  <path d="M29.0708 18.9748C28.619 16.716 28.7436 16.0187 30.4266 15.3606C29.9142 16.5312 30.5893 17.896 29.0708 18.9748Z" fill="white"/>
  <path fill-rule="evenodd" clip-rule="evenodd" d="M30.4266 15.3606C30.2715 15.7149 30.2252 16.087 30.1939 16.4636C30.1889 16.5247 30.1842 16.5859 30.1795 16.6472C30.1408 17.1533 30.1018 17.6636 29.8369 18.146C29.6784 18.4345 29.4392 18.7131 29.0708 18.9748C28.9922 18.5821 28.9311 18.2366 28.8926 17.9302C28.7733 16.9818 28.8704 16.4092 29.3373 15.9749C29.5869 15.7427 29.9422 15.55 30.4266 15.3606Z" fill="white"/>
  <path d="M45.4761 18.9748C45.9278 16.716 45.8033 16.0187 44.1202 15.3606C44.6327 16.5312 43.9576 17.896 45.4761 18.9748Z" fill="white"/>
  <path fill-rule="evenodd" clip-rule="evenodd" d="M44.1202 15.3606C44.2753 15.7149 44.3217 16.087 44.3529 16.4636C44.358 16.5247 44.3627 16.5859 44.3674 16.6472C44.406 17.1533 44.445 17.6636 44.71 18.146C44.8684 18.4345 45.1077 18.7131 45.4761 18.9748C45.5547 18.5821 45.6158 18.2366 45.6543 17.9302C45.7736 16.9818 45.6764 16.4092 45.2096 15.9749C44.96 15.7427 44.6047 15.55 44.1202 15.3606Z" fill="white"/>
  <path d="M45.1171 18.975C42.829 19.2416 43.31 18.5233 42.4063 17.6195C43.31 18.0715 44.3366 17.8604 45.1171 18.975Z" fill="white"/>
  <path fill-rule="evenodd" clip-rule="evenodd" d="M42.4063 17.6195C42.7076 17.7702 43.0225 17.8472 43.3375 17.9242C43.5069 17.9656 43.6764 18.007 43.8437 18.0599C43.8921 18.0752 43.9403 18.0915 43.9883 18.109C44.3909 18.2558 44.7773 18.4898 45.1171 18.975C44.4672 19.0507 44.0407 19.047 43.7424 18.9821C43.6366 18.9591 43.547 18.9284 43.4692 18.8909C43.2053 18.7634 43.0782 18.5568 42.922 18.3031C42.797 18.1 42.6534 17.8667 42.4063 17.6195Z" fill="white"/>
  <path d="M29.5226 18.975C31.8107 19.2416 31.3297 18.5233 32.2333 17.6195C31.3297 18.0715 30.3031 17.8604 29.5226 18.975Z" fill="white"/>
  <path fill-rule="evenodd" clip-rule="evenodd" d="M32.2333 17.6195C31.9321 17.7702 31.6171 17.8472 31.3022 17.9242C31.1327 17.9656 30.9633 18.007 30.796 18.0599C30.7476 18.0752 30.6994 18.0915 30.6514 18.109C30.2488 18.2558 29.8624 18.4898 29.5226 18.975C30.1725 19.0507 30.599 19.047 30.8972 18.9821C31.003 18.9591 31.0927 18.9284 31.1705 18.8909C31.4344 18.7634 31.5615 18.5568 31.7177 18.3031C31.8426 18.1 31.9862 17.8667 32.2333 17.6195Z" fill="white"/>
  <path d="M43.0723 17.1681C43.0739 15.8126 42.6194 14.808 40.8151 14.909C41.7186 15.3608 41.7186 16.7161 43.0723 17.1681Z" fill="white"/>
  <path fill-rule="evenodd" clip-rule="evenodd" d="M40.8151 14.909C41.2062 15.1046 41.428 15.4695 41.6636 15.8572C41.6733 15.8731 41.683 15.8891 41.6928 15.905C41.8177 16.1103 41.9486 16.3201 42.1123 16.5132C42.3426 16.7847 42.6377 17.023 43.0723 17.1681C43.0728 16.7595 43.0318 16.3827 42.9249 16.0585C42.8128 15.7186 42.6282 15.4364 42.3429 15.236C41.9977 14.9934 41.5051 14.8704 40.8151 14.909Z" fill="white"/>
  <path d="M31.3378 17.1682C31.3363 15.8126 31.7907 14.8081 33.595 14.9091C32.6916 15.3609 32.6916 16.7162 31.3378 17.1682Z" fill="white"/>
  <path fill-rule="evenodd" clip-rule="evenodd" d="M33.595 14.9091C33.2039 15.1047 32.9821 15.4696 32.7465 15.8573C32.7368 15.8732 32.7271 15.8891 32.7174 15.9051C32.5924 16.1104 32.4615 16.3202 32.2978 16.5133C32.0676 16.7848 31.7725 17.0231 31.3378 17.1682C31.3374 16.7595 31.3783 16.3828 31.4852 16.0586C31.5973 15.7187 31.7819 15.4365 32.0673 15.2361C32.4124 14.9935 32.905 14.8705 33.595 14.9091Z" fill="white"/>
  <path d="M28.6182 34.3354C25.9075 34.3354 25.4557 33.4319 25.0039 31.6248C26.3593 32.0765 27.2628 32.0765 28.6182 34.3354Z" fill="white"/>
  <path fill-rule="evenodd" clip-rule="evenodd" d="M25.0039 31.6248C25.179 31.6831 25.3465 31.7339 25.5085 31.7831C25.6876 31.8374 25.8598 31.8896 26.0279 31.9477C26.6956 32.1785 27.297 32.5013 27.9972 33.4117C28.195 33.669 28.4008 33.9731 28.6182 34.3354C28.1942 34.3354 27.8255 34.3133 27.5034 34.2691C26.2122 34.0919 25.6702 33.5595 25.3204 32.6719C25.1996 32.3652 25.1018 32.0162 25.0039 31.6248Z" fill="white"/>
  <path d="M28.2419 33.3806C29.1738 31.4072 28.6714 30.7677 27.5111 29.8175C27.374 30.9595 27.0634 31.6173 28.2419 33.3806Z" fill="white"/>
  <path fill-rule="evenodd" clip-rule="evenodd" d="M27.5111 29.8175C27.4934 29.965 27.4728 30.1045 27.4529 30.2392C27.4194 30.4661 27.3878 30.6798 27.3753 30.8966C27.3498 31.3363 27.4027 31.7891 27.6764 32.3911C27.8083 32.6812 27.9915 33.0059 28.2419 33.3806C28.4358 32.97 28.5676 32.6171 28.6443 32.3072C28.8325 31.5469 28.689 31.045 28.3172 30.5827C28.1122 30.3278 27.8377 30.085 27.5111 29.8175Z" fill="white"/>
  <path d="M46.1243 33.3806C45.1924 31.4072 45.6948 30.7677 46.8551 29.8175C46.9922 30.9596 47.3028 31.6174 46.1243 33.3806Z" fill="white"/>
  <path fill-rule="evenodd" clip-rule="evenodd" d="M46.8551 29.8175C46.8728 29.9651 46.8934 30.1045 46.9133 30.2393C46.9468 30.4661 46.9784 30.6798 46.9909 30.8966C47.0164 31.3364 46.9635 31.7891 46.6898 32.3911C46.5579 32.6812 46.3747 33.006 46.1243 33.3806C45.9304 32.97 45.7986 32.6172 45.7219 32.3073C45.5337 31.5469 45.6772 31.045 46.049 30.5827C46.254 30.3278 46.5285 30.085 46.8551 29.8175Z" fill="white"/>
</svg>
