<svg width="394" height="385" viewBox="0 0 394 385" fill="none" xmlns="http://www.w3.org/2000/svg">
  <path d="M1 117.995C49.9976 88.4954 96.1354 155.192 129.187 142.283C137.724 138.949 153.667 104.274 144.819 100.329C134.678 95.8076 136.814 130.263 142.975 146.507C146.103 154.754 148.924 166.679 153.936 175.928C179.672 223.426 321.312 245.706 362.798 183.086C397.897 130.108 388.826 54.4119 312.808 23.5383C287.796 13.3797 270.733 14.0294 243.519 15.3588C214.008 16.8003 181.025 34.5001 177.692 50.9824M316.275 268.451C271.236 241.733 274.205 253.607 236.59 253.607C203.43 252.123 203.924 236.457 174.722 235.301C124.564 233.314 131.012 259.02 142.975 248.659C165.827 228.869 153.935 214.025 129.187 239.259C111.842 256.944 56.4132 310.658 15.849 354.046C7.05279 363.455 39.9618 384.349 40.5957 379.279C42.0805 367.405 10.4047 354.541 13.3743 363.447C18.2384 378.034 37.6245 387.691 43.4081 380.647C46.3333 377.085 152.194 251.452 156.804 244.282C161.413 237.113 162.937 229.188 156.804 219.468C136.512 187.307 132.654 186.318 122.755 150.695C112.349 113.244 119.058 76.1427 142.975 47.2873C188.086 -7.13758 254.903 -2.18992 301.922 9.68478C348.411 21.4258 392 63.615 392 113.092C392 153.18 379.627 198.193 331.618 221.447C279.551 246.667 202.522 235.525 163.34 204.13C133.058 179.866 115.962 104.681 142.975 62.6253C161.703 33.4685 202.867 13.6292 237.084 10.9059C268.76 8.3849 320.728 31.2231 289.052 23.5383C257.376 15.8536 245.993 37.5333 230.65 42.4103C215.307 47.2873 205.304 64.7079 214.317 60.383C227.942 53.8452 241.929 41.9441 246.488 38.4565C254.901 32.0199 237.881 31.5051 232.629 31.1915C205.341 29.562 193.672 40.5129 177.692 50.9824M177.692 50.9824C173.134 62.5223 170.212 75.8149 153.269 80.4208C149.296 81.5008 157.5 64.211 177.692 50.9824Z" stroke="#2B2B2B" stroke-width="3"/>
</svg>
