<svg width="661" height="381" viewBox="0 0 661 381" fill="none" xmlns="http://www.w3.org/2000/svg">
  <path d="M1.0458 178.211C1.0458 178.211 49.9994 138.138 99.2858 171.138C113.868 180.901 121.093 193.086 137.565 199.138C153.66 205.052 175.882 195.79 190.286 186.337C195.559 182.876 200.286 168.229 186.184 164.45C168.225 159.638 144.75 283.606 149.286 294.138C153.286 303.427 281.098 342.568 289.286 338.638C294.916 335.936 296.342 284.384 301.234 276.588C305.535 269.737 316.218 282.387 324.301 282.063C340.417 281.415 352.986 256.103 330.492 245.876C323.271 242.592 311.705 248.507 310.872 240.619C309.882 231.235 321.284 204.138 321.284 195.138C321.284 190.169 287.785 183.138 279.672 181.79C275.226 181.051 277.808 173.048 286.285 161.638C299.285 144.138 252.285 128.592 252.285 154.635C252.285 163.135 253.752 173.923 246.285 171.138C238.818 168.352 190.412 158.186 182.786 152.638C175.116 147.058 208.957 20.1759 221.786 16.1382C232 12.9233 355.033 44.8835 358.786 51.1382C361.786 56.1382 348.724 86.1382 348.724 99.3551C348.724 105.806 348.964 106.773 363.786 106.138C398.786 104.638 378.786 154.635 358.786 138.138C350.494 131.299 345.786 124.481 340.838 128.785C327.786 140.138 322.311 179.616 325.417 186.337C327.636 191.137 364.743 200.473 371.502 200.081C387.786 199.138 371.973 190.167 377.286 181.79C390.206 161.419 410.524 168.937 412.286 191.138C413.205 202.726 395.786 199.138 407.775 211.203C413.542 217.006 460.491 221.128 464.976 227.937C469.475 234.769 435.392 372.032 424.671 378.357C409.783 387.138 143.242 315.638 137.565 301.427C130.859 284.638 188.121 11.5115 214.782 3.13818C241.443 -5.23516 507.537 63.8737 505.282 82.6383C503.335 98.8351 481.784 198.703 473.284 211.203C461.485 228.554 454.037 202.963 470.784 193.138C508.283 171.138 544.293 240.514 568.782 245.876C614.782 255.948 659.783 235.138 659.783 235.138" stroke="#2B2B2B" stroke-width="3"/>
</svg>
