<svg width="444" height="539" viewBox="0 0 444 539" fill="none" xmlns="http://www.w3.org/2000/svg">
  <path d="M318 285L321.416 300.907C322.242 304.753 325.247 307.758 329.093 308.584L345 312L329.093 315.416C325.247 316.242 322.242 319.247 321.416 323.093L318 339L314.584 323.093C313.758 319.247 310.753 316.242 306.907 315.416L291 312L306.907 308.584C310.753 307.758 313.758 304.753 314.584 300.907L318 285Z" fill="#232323"/>
  <path d="M8 523L8.05699 523.265C8.88302 527.112 11.8879 530.117 15.7346 530.943L16 531L15.7346 531.057C11.8879 531.883 8.88302 534.888 8.05699 538.735L8 539L7.94301 538.735C7.11698 534.888 4.11211 531.883 0.265401 531.057L0 531L0.265401 530.943C4.11211 530.117 7.11698 527.112 7.94301 523.265L8 523Z" fill="#232323"/>
  <path d="M148 234L148.234 235.089C149.06 238.935 152.065 241.94 155.911 242.766L157 243L155.911 243.234C152.065 244.06 149.06 247.065 148.234 250.911L148 252L147.766 250.911C146.94 247.065 143.935 244.06 140.089 243.234L139 243L140.089 242.766C143.935 241.94 146.94 238.935 147.766 235.089L148 234Z" fill="#232323"/>
  <path d="M331 0L331.234 1.08863C332.06 4.93533 335.065 7.9402 338.911 8.76623L340 9L338.911 9.23377C335.065 10.0598 332.06 13.0647 331.234 16.9114L331 18L330.766 16.9114C329.94 13.0647 326.935 10.0598 323.089 9.23377L322 9L323.089 8.76623C326.935 7.9402 329.94 4.93533 330.766 1.08863L331 0Z" fill="#232323"/>
  <path d="M304.18 300.483C304.724 300.384 305.083 299.862 304.984 299.319L303.359 290.467C303.26 289.924 302.738 289.564 302.195 289.664C301.652 289.764 301.292 290.285 301.392 290.828L302.836 298.697L294.967 300.14C294.424 300.24 294.064 300.761 294.164 301.304C294.264 301.848 294.785 302.207 295.328 302.108L304.18 300.483ZM8.24623 511.657C8.60915 512.073 9.24084 512.117 9.65714 511.754L16.4411 505.839C16.8574 505.477 16.9007 504.845 16.5377 504.429C16.1748 504.012 15.5431 503.969 15.1268 504.332L9.09664 509.589L3.83956 503.559C3.47663 503.143 2.84495 503.099 2.42865 503.462C2.01235 503.825 1.96908 504.457 2.33201 504.873L8.24623 511.657ZM304.568 298.677C288.205 287.388 262.406 281.341 232.783 281.977C203.134 282.613 169.538 289.943 137.5 305.538C73.3851 336.748 15.5283 401.053 8.00234 510.932L9.99766 511.068C17.4717 401.947 74.8649 338.252 138.375 307.337C170.149 291.87 203.46 284.606 232.826 283.976C262.219 283.346 287.545 289.362 303.432 300.323L304.568 298.677Z" fill="#232323"/>
  <path d="M149.541 228.285C149.699 228.814 150.255 229.116 150.785 228.959L159.412 226.396C159.942 226.239 160.244 225.683 160.086 225.153C159.929 224.624 159.372 224.322 158.843 224.479L151.174 226.757L148.897 219.088C148.739 218.558 148.183 218.257 147.653 218.414C147.124 218.571 146.822 219.128 146.979 219.657L149.541 228.285ZM317.656 275.63C312.001 232.948 277.267 207.396 240.487 199.244C222.086 195.165 203.097 195.417 186.852 200.082C170.607 204.747 157.033 213.849 149.621 227.523L151.379 228.477C158.467 215.401 171.518 206.566 187.404 202.004C203.288 197.443 221.935 197.18 240.054 201.196C276.316 209.234 310.164 234.314 315.673 275.893L317.656 275.63Z" fill="#232323"/>
  <path d="M328.772 26.8649C328.422 26.4383 327.791 26.3768 327.365 26.7276L320.413 32.4436C319.987 32.7944 319.925 33.4245 320.276 33.8511C320.627 34.2777 321.257 34.3392 321.683 33.9884L327.863 28.9075L332.944 35.0869C333.294 35.5135 333.925 35.575 334.351 35.2242C334.778 34.8734 334.839 34.2433 334.488 33.8167L328.772 26.8649ZM328.93 295.367C346.278 251.37 343.746 209.906 338.18 166.747C332.608 123.551 324.01 78.7029 328.995 27.5971L327.005 27.4029C321.991 78.7971 330.643 123.949 336.196 167.003C341.754 210.094 344.222 251.13 327.07 294.633L328.93 295.367Z" fill="#232323"/>
</svg>
