<svg width="141" height="79" viewBox="0 0 141 79" fill="none" xmlns="http://www.w3.org/2000/svg">
    <path d="M6.99827 5.32923L6.87134 5.58775L6.38662 5.34974L5.92383 6.29226L5.61684 6.14152L6.07963 5.19901L4.51237 4.42946L4.62608 4.19787L6.93057 2.26802L7.14159 2.50531L4.97322 4.3349L6.20656 4.94049L6.75994 3.90877L7.02923 4.041L6.51355 5.09123L6.99827 5.32923ZM9.6683 3.68581L7.90971 7.26735L7.59733 7.11397L9.18668 3.87712L8.03367 3.99277L8.00197 3.68978L9.39901 3.55359L9.6683 3.68581ZM9.33872 7.40754C9.41412 7.44457 9.46282 7.49967 9.48482 7.57286C9.51216 7.64422 9.50821 7.7158 9.47295 7.78761C9.43592 7.86301 9.37994 7.91351 9.30499 7.93909C9.23539 7.96285 9.16289 7.95622 9.08749 7.91919C9.01568 7.88393 8.96699 7.82883 8.9414 7.75388C8.91582 7.67893 8.92065 7.60555 8.95591 7.53374C8.99117 7.46193 9.0454 7.41503 9.11858 7.39303C9.19353 7.36745 9.26691 7.37228 9.33872 7.40754ZM12.4227 7.13047C12.6446 7.37752 12.7813 7.60731 12.8329 7.81981C12.8899 8.03049 12.8611 8.25252 12.7465 8.48591C12.6495 8.68338 12.5137 8.83284 12.3392 8.93428C12.1699 9.03389 11.9753 9.08091 11.7552 9.07534C11.5387 9.07154 11.3156 9.01322 11.0858 8.90039C10.856 8.78756 10.6734 8.64665 10.538 8.47769C10.4062 8.31048 10.328 8.12947 10.3033 7.93466C10.284 7.73802 10.322 7.54275 10.4172 7.34887C10.6428 6.88928 11.0626 6.68321 11.6766 6.73066C11.5123 6.5297 11.4108 6.3417 11.372 6.16667C11.3385 5.98981 11.3702 5.80264 11.4672 5.60516C11.5571 5.42205 11.6822 5.28519 11.8426 5.19459C12.0029 5.10399 12.1771 5.06248 12.365 5.07007C12.5546 5.07407 12.7374 5.11926 12.9133 5.20565C13.0893 5.29203 13.2377 5.40724 13.3586 5.55127C13.4795 5.6953 13.554 5.85666 13.5821 6.03535C13.6138 6.2158 13.583 6.40117 13.4895 6.59147C13.3978 6.77817 13.2664 6.91418 13.0953 6.9995C12.926 7.08122 12.7018 7.12488 12.4227 7.13047ZM11.7769 5.76393C11.6923 5.93628 11.6738 6.09652 11.7214 6.24465C11.7725 6.39455 11.8982 6.57432 12.0982 6.78397L12.2361 6.92519C12.4901 6.91621 12.6883 6.87542 12.8309 6.80284C12.9771 6.73201 13.0908 6.61402 13.1719 6.44886C13.2723 6.2442 13.2862 6.05269 13.2133 5.87432C13.1441 5.69772 13.0035 5.55741 12.7917 5.45339C12.587 5.3529 12.3919 5.32837 12.2062 5.3798C12.0205 5.43123 11.8774 5.55927 11.7769 5.76393ZM11.2208 8.63913C11.4757 8.7643 11.7094 8.80108 11.9219 8.74946C12.1398 8.69601 12.3051 8.55438 12.4179 8.32459C12.4885 8.18097 12.5197 8.04926 12.5117 7.92946C12.5054 7.80607 12.4634 7.68294 12.3856 7.56007C12.3095 7.43361 12.1895 7.28331 12.0255 7.10918L11.8767 6.94925C11.5903 6.92449 11.3553 6.95838 11.1717 7.05094C10.9935 7.14167 10.8515 7.29475 10.7457 7.51018C10.6329 7.73997 10.621 7.95473 10.7101 8.15444C10.7992 8.35416 10.9694 8.51572 11.2208 8.63913ZM14.4507 10.4791L14.5856 10.2044L16.4976 11.1432L16.3627 11.4179L14.4507 10.4791ZM16.9247 8.2314L16.5227 9.05003L17.3306 9.44671L17.1983 9.716L16.3905 9.31932L15.9885 10.138L15.6923 9.99251L16.0943 9.17387L15.2864 8.7772L15.4186 8.50791L16.2265 8.90459L16.6285 8.08595L16.9247 8.2314ZM21.5082 9.42586C21.878 9.60745 22.0805 9.90295 22.1157 10.3124C22.1526 10.7182 22.0221 11.2245 21.7241 11.8313C21.4279 12.4345 21.1053 12.8465 20.7563 13.0672C20.4126 13.2862 20.0576 13.3057 19.6914 13.1259C19.3216 12.9443 19.1182 12.6506 19.0813 12.2448C19.0462 11.8354 19.1776 11.3273 19.4755 10.7205C19.7734 10.1137 20.0943 9.70082 20.4379 9.48188C20.7816 9.26295 21.1384 9.24427 21.5082 9.42586ZM21.3813 9.68438C20.8463 9.42169 20.3187 9.81995 19.7986 10.8792C19.2768 11.9419 19.2834 12.6047 19.8184 12.8674C20.0805 12.9961 20.3414 12.9638 20.6012 12.7705C20.8646 12.579 21.1294 12.2121 21.3956 11.67C21.6618 11.1278 21.7901 10.6939 21.7806 10.3684C21.7765 10.0411 21.6434 9.81308 21.3813 9.68438ZM21.9774 13.6133C22.0528 13.6504 22.1015 13.7055 22.1235 13.7787C22.1509 13.85 22.1469 13.9216 22.1116 13.9934C22.0746 14.0688 22.0186 14.1193 21.9437 14.1449C21.8741 14.1687 21.8016 14.162 21.7262 14.125C21.6544 14.0897 21.6057 14.0346 21.5801 13.9597C21.5545 13.8847 21.5593 13.8114 21.5946 13.7395C21.6299 13.6677 21.6841 13.6208 21.7573 13.5988C21.8322 13.5733 21.9056 13.5781 21.9774 13.6133ZM25.3145 11.2948C25.5156 11.3936 25.6704 11.5186 25.7788 11.6698C25.8908 11.8229 25.9528 11.987 25.9648 12.1622C25.9786 12.3339 25.944 12.5041 25.8612 12.6728C25.7466 12.9062 25.5867 13.0639 25.3816 13.1459C25.1818 13.226 24.969 13.2329 24.7431 13.1666C24.9712 13.2919 25.1218 13.4706 25.1951 13.7027C25.2736 13.9329 25.2459 14.1844 25.112 14.4573C25.0097 14.6655 24.8722 14.8275 24.6995 14.9433C24.5269 15.059 24.3296 15.1204 24.1078 15.1273C23.8914 15.1325 23.6701 15.0795 23.4439 14.9684C23.0274 14.7639 22.7603 14.4412 22.6427 14.0002L22.9292 13.9203C22.986 14.1131 23.0641 14.2717 23.1634 14.3962C23.268 14.5189 23.4012 14.6199 23.5627 14.6992C23.8212 14.8262 24.0602 14.8522 24.2797 14.7773C24.4992 14.7023 24.668 14.5446 24.7862 14.304C25.033 13.8013 24.8871 13.4178 24.3485 13.1533L24.1116 13.037L24.2789 12.805L24.4513 12.8896C24.6559 12.9901 24.86 13.0146 25.0636 12.963C25.2689 12.9079 25.428 12.7654 25.5408 12.5356C25.6378 12.3381 25.6517 12.1511 25.5824 11.9745C25.5149 11.7943 25.3771 11.6531 25.1688 11.5508C25.018 11.4768 24.8665 11.4358 24.7144 11.428C24.5641 11.4165 24.3952 11.4383 24.2078 11.4933L24.136 11.2175C24.3466 11.1516 24.5468 11.1251 24.7365 11.138C24.928 11.1474 25.1207 11.1996 25.3145 11.2948ZM30.148 13.5345C30.3526 13.6349 30.5109 13.7483 30.6227 13.8745C30.7399 13.9989 30.8421 14.1538 30.9293 14.3392L30.6512 14.47C30.5749 14.3078 30.4898 14.1769 30.3961 14.0774C30.3023 13.9779 30.1819 13.892 30.0347 13.8197C29.6864 13.6487 29.3375 13.6423 28.988 13.8004C28.6421 13.9603 28.3334 14.3168 28.0619 14.8697C27.8856 15.2288 27.7878 15.5551 27.7684 15.8486C27.7491 16.1421 27.7965 16.3904 27.9107 16.5935C28.0302 16.7948 28.2013 16.9501 28.4239 17.0594C28.5998 17.1458 28.7612 17.1938 28.9079 17.2035C29.0564 17.2096 29.2182 17.1932 29.3932 17.1544L29.4571 17.4464C29.0626 17.5691 28.6679 17.5335 28.2729 17.3396C27.9857 17.1985 27.7651 16.9989 27.6112 16.7406C27.4609 16.4841 27.3907 16.1822 27.4007 15.8351C27.4161 15.4862 27.5234 15.1088 27.7226 14.7031C27.9218 14.2974 28.1575 13.9853 28.4296 13.7669C28.7035 13.5449 28.987 13.4167 29.2802 13.3824C29.5787 13.3463 29.8679 13.3969 30.148 13.5345ZM32.4601 16.8956C32.6973 17.0477 32.8579 17.238 32.9418 17.4664C33.0275 17.6911 32.9981 17.9507 32.8535 18.2452C32.6843 18.5899 32.4415 18.7893 32.1253 18.8434C31.8091 18.8976 31.4427 18.8224 31.0262 18.6179L30.019 18.1234L31.8305 14.4341L32.6545 14.8387C33.0818 15.0485 33.3724 15.2871 33.5264 15.5543C33.684 15.8233 33.6879 16.1104 33.538 16.4156C33.4269 16.6418 33.2742 16.794 33.0798 16.8723C32.8889 16.9524 32.6824 16.9602 32.4601 16.8956ZM32.0214 14.8621L31.3577 16.2139L32.1009 16.5789C32.3307 16.6917 32.5447 16.7233 32.7429 16.6735C32.9429 16.6202 33.0949 16.4876 33.1989 16.2758C33.317 16.0352 33.3191 15.8223 33.205 15.6371C33.0946 15.4536 32.8778 15.2826 32.5546 15.1239L32.0214 14.8621ZM31.1584 18.3486C31.8191 18.673 32.2728 18.5839 32.5196 18.0812C32.6501 17.8155 32.6645 17.5775 32.5628 17.3671C32.4647 17.1585 32.281 16.9881 32.0117 16.8559L31.2307 16.4724L30.4744 18.0128L31.1584 18.3486ZM33.4169 19.2303C33.4923 19.2674 33.541 19.3225 33.563 19.3957C33.5904 19.467 33.5864 19.5386 33.5512 19.6104C33.5141 19.6858 33.4581 19.7363 33.3832 19.7619C33.3136 19.7856 33.2411 19.779 33.1657 19.742C33.0939 19.7067 33.0452 19.6516 33.0196 19.5767C32.994 19.5017 32.9989 19.4283 33.0341 19.3565C33.0694 19.2847 33.1236 19.2378 33.1968 19.2158C33.2717 19.1902 33.3451 19.1951 33.4169 19.2303ZM39.7529 18.3242L39.5643 18.5858L37.8516 17.7449L36.1803 21.1487L35.8571 20.99L37.6686 17.3007L39.7529 18.3242ZM41.3721 19.0457C41.6737 19.1938 41.9015 19.397 42.0554 19.6552C42.2111 19.9099 42.2812 20.2118 42.2659 20.5607C42.2505 20.9096 42.1432 21.287 41.944 21.6927C41.7483 22.0913 41.5171 22.4033 41.2504 22.6288C40.989 22.8525 40.7082 22.9843 40.408 23.024C40.1095 23.0601 39.8076 23.0033 39.5025 22.8534C39.2044 22.7071 38.9785 22.5048 38.8246 22.2465C38.6706 21.9882 38.6005 21.6864 38.6141 21.3411C38.6277 20.9957 38.7332 20.622 38.9307 20.2198C39.1264 19.8213 39.3576 19.5092 39.6243 19.2837C39.891 19.0582 40.1745 18.9255 40.4747 18.8858C40.7786 18.8478 41.0777 18.9011 41.3721 19.0457ZM41.2372 19.3204C40.8782 19.1441 40.5267 19.143 40.1827 19.3172C39.8404 19.4879 39.5362 19.8443 39.27 20.3864C39.0073 20.9214 38.9131 21.3765 38.9874 21.7516C39.0652 22.1285 39.2819 22.4042 39.6373 22.5788C40.0071 22.7603 40.3605 22.7667 40.6974 22.5979C41.036 22.4256 41.3385 22.0683 41.6047 21.5261C41.8727 20.9804 41.9686 20.5217 41.8926 20.1502C41.8219 19.7768 41.6035 19.5002 41.2372 19.3204ZM44.3878 24.8378L43.8695 25.8934L43.6217 25.7718L43.9406 24.9591L41.6193 23.8193L41.1712 24.5685L40.9235 24.4469L41.4418 23.3913L41.6788 23.5076C41.8126 23.4619 41.9382 23.3877 42.0555 23.2849C42.1764 23.1838 42.3255 23.0164 42.5027 22.7825C42.6816 22.5451 42.9251 22.1945 43.233 21.7308L44.0717 20.4447L45.7951 21.291L44.1185 24.7056L44.3878 24.8378ZM45.3371 21.407L44.2223 20.8596L43.5481 21.8922C43.2562 22.3415 43.0216 22.6831 42.8444 22.9169C42.6672 23.1507 42.5119 23.3218 42.3786 23.4301C42.2505 23.5366 42.1124 23.6091 41.9642 23.6478L43.7954 24.5469L45.3371 21.407ZM47.1913 26.5553L47.3627 25.3895L45.8116 24.6278L44.9939 25.4763L44.6654 25.315L47.7102 22.2313L48.1142 22.4297L47.5306 26.7219L47.1913 26.5553ZM46.038 24.3981L47.4114 25.0725L47.7799 22.5931L46.038 24.3981ZM51.2287 23.1033C50.8991 23.2936 50.6222 23.4718 50.398 23.638C50.1755 23.8006 49.9588 24.0061 49.7477 24.2545C49.5402 24.5046 49.3457 24.8146 49.1641 25.1844C48.9825 25.5542 48.8562 25.8977 48.7851 26.2149C48.7176 26.5338 48.6867 26.8328 48.6923 27.1118C48.6996 27.3872 48.7288 27.7135 48.7798 28.0906L48.5171 28.122C48.4479 27.7003 48.4033 27.3464 48.3833 27.0603C48.367 26.776 48.3907 26.4646 48.4544 26.126C48.5182 25.7875 48.647 25.4207 48.8409 25.0258C49.0349 24.6308 49.2463 24.3046 49.4752 24.0471C49.7041 23.7897 49.936 23.5805 50.171 23.4196C50.4096 23.2604 50.7169 23.0793 51.0928 22.8762L51.2287 23.1033ZM52.5967 24.7644L50.8381 28.3459L50.5258 28.1925L52.1151 24.9557L50.9621 25.0713L50.9304 24.7683L52.3274 24.6321L52.5967 24.7644ZM54.4898 25.6204C54.7914 25.7684 54.9869 25.9737 55.0765 26.236C55.1696 26.5001 55.1483 26.7703 55.0126 27.0468C54.898 27.2802 54.742 27.4754 54.5445 27.6325C54.3471 27.7895 54.0843 27.939 53.7562 28.0809C53.4316 28.2246 52.9206 28.4259 52.223 28.685L53.9195 29.518L53.7415 29.7715L51.7219 28.7798L51.8514 28.5159C52.6007 28.2333 53.143 28.0182 53.4783 27.8709C53.8189 27.7218 54.0772 27.5768 54.2533 27.436C54.4347 27.2934 54.5775 27.1161 54.6815 26.9043C54.7855 26.6925 54.8055 26.4928 54.7416 26.3055C54.6812 26.1199 54.5487 25.9768 54.344 25.8763C54.1789 25.7952 54.0149 25.7571 53.8521 25.7618C53.693 25.7683 53.5225 25.8116 53.3406 25.8916L53.2045 25.6243C53.4345 25.5188 53.6523 25.4654 53.858 25.4639C54.0674 25.4642 54.2779 25.5163 54.4898 25.6204ZM54.8443 29.7515C54.9197 29.7886 54.9684 29.8437 54.9904 29.9169C55.0178 29.9882 55.0138 30.0598 54.9786 30.1316C54.9415 30.207 54.8855 30.2575 54.8106 30.2831C54.741 30.3068 54.6685 30.3002 54.5931 30.2632C54.5213 30.2279 54.4726 30.1728 54.447 30.0979C54.4214 30.0229 54.4263 29.9495 54.4615 29.8777C54.4968 29.8059 54.551 29.759 54.6242 29.737C54.6991 29.7114 54.7725 29.7163 54.8443 29.7515ZM57.9284 29.4745C58.1502 29.7215 58.2869 29.9513 58.3385 30.1638C58.3955 30.3745 58.3667 30.5965 58.2521 30.8299C58.1551 31.0274 58.0193 31.1768 57.8448 31.2783C57.6755 31.3779 57.4809 31.4249 57.2608 31.4193C57.0443 31.4155 56.8212 31.3572 56.5914 31.2444C56.3616 31.1316 56.179 30.9907 56.0436 30.8217C55.9118 30.6545 55.8336 30.4735 55.8089 30.2787C55.7896 30.082 55.8276 29.8867 55.9228 29.6929C56.1484 29.2333 56.5682 29.0272 57.1822 29.0747C57.0179 28.8737 56.9164 28.6857 56.8776 28.5107C56.8441 28.3338 56.8758 28.1466 56.9728 27.9492C57.0627 27.766 57.1879 27.6292 57.3482 27.5386C57.5086 27.448 57.6827 27.4065 57.8706 27.4141C58.0602 27.4181 58.243 27.4633 58.4189 27.5496C58.5949 27.636 58.7433 27.7512 58.8642 27.8953C58.9851 28.0393 59.0596 28.2007 59.0877 28.3793C59.1194 28.5598 59.0886 28.7452 58.9951 28.9355C58.9034 29.1222 58.7721 29.2582 58.6009 29.3435C58.4316 29.4252 58.2074 29.4689 57.9284 29.4745ZM57.2825 28.1079C57.1979 28.2803 57.1794 28.4405 57.227 28.5886C57.2781 28.7385 57.4038 28.9183 57.6039 29.128L57.7417 29.2692C57.9957 29.2602 58.194 29.2194 58.3365 29.1468C58.4827 29.076 58.5964 28.958 58.6775 28.7929C58.778 28.5882 58.7918 28.3967 58.7189 28.2183C58.6497 28.0417 58.5091 27.9014 58.2973 27.7974C58.0926 27.6969 57.8975 27.6724 57.7118 27.7238C57.5261 27.7752 57.383 27.9033 57.2825 28.1079ZM56.7264 30.9831C56.9813 31.1083 57.215 31.1451 57.4275 31.0935C57.6454 31.04 57.8107 30.8984 57.9236 30.6686C57.9941 30.525 58.0253 30.3933 58.0173 30.2735C58.011 30.1501 57.969 30.0269 57.8912 29.9041C57.8152 29.7776 57.6951 29.6273 57.5311 29.4532L57.3823 29.2932C57.0959 29.2685 56.8609 29.3024 56.6773 29.3949C56.4991 29.4857 56.3571 29.6387 56.2513 29.8542C56.1385 30.084 56.1266 30.2987 56.2157 30.4984C56.3048 30.6982 56.475 30.8597 56.7264 30.9831ZM61.0584 28.8457C61.2595 28.9444 61.4143 29.0694 61.5227 29.2207C61.6347 29.3737 61.6967 29.5379 61.7087 29.7131C61.7225 29.8847 61.6879 30.0549 61.605 30.2237C61.4905 30.457 61.3306 30.6147 61.1255 30.6967C60.9257 30.7769 60.7128 30.7838 60.487 30.7174C60.7151 30.8428 60.8657 31.0215 60.939 31.2535C61.0175 31.4837 60.9898 31.7352 60.8558 32.0081C60.7536 32.2164 60.6161 32.3784 60.4434 32.4941C60.2707 32.6098 60.0735 32.6712 59.8517 32.6782C59.6353 32.6833 59.414 32.6303 59.1878 32.5193C58.7713 32.3148 58.5042 31.992 58.3865 31.551L58.6731 31.4711C58.7299 31.6639 58.808 31.8225 58.9073 31.947C59.0119 32.0697 59.145 32.1707 59.3066 32.2501C59.5651 32.377 59.8041 32.403 60.0236 32.3281C60.2431 32.2532 60.4119 32.0954 60.5301 31.8548C60.7769 31.3522 60.631 30.9686 60.0924 30.7042L59.8554 30.5878L60.0228 30.3558L60.1952 30.4404C60.3998 30.5409 60.6039 30.5654 60.8075 30.5138C61.0128 30.4587 61.1719 30.3162 61.2847 30.0864C61.3817 29.889 61.3956 29.7019 61.3263 29.5253C61.2588 29.3451 61.1209 29.2039 60.9127 29.1016C60.7619 29.0276 60.6104 28.9867 60.4583 28.9788C60.308 28.9674 60.1391 28.9892 59.9516 29.0442L59.8799 28.7683C60.0905 28.7024 60.2907 28.6759 60.4804 28.6888C60.6719 28.6982 60.8645 28.7505 61.0584 28.8457ZM62.5756 34.1092L62.7105 33.8345L64.6224 34.7733L64.4876 35.048L62.5756 34.1092ZM65.0495 31.8615L64.6476 32.6801L65.4554 33.0768L65.3232 33.3461L64.5153 32.9494L64.1134 33.7681L63.8172 33.6226L64.2191 32.804L63.4113 32.4073L63.5435 32.138L64.3514 32.5347L64.7533 31.716L65.0495 31.8615ZM69.6331 33.056C70.0029 33.2375 70.2054 33.533 70.2405 33.9424C70.2774 34.3483 70.1469 34.8546 69.849 35.4614C69.5528 36.0646 69.2302 36.4766 68.8811 36.6973C68.5375 36.9163 68.1825 36.9358 67.8163 36.756C67.4465 36.5744 67.2431 36.2807 67.2062 35.8749C67.171 35.4655 67.3024 34.9574 67.6004 34.3506C67.8983 33.7438 68.2191 33.3309 68.5628 33.112C68.9065 32.893 69.2632 32.8744 69.6331 33.056ZM69.5061 33.3145C68.9711 33.0518 68.4436 33.45 67.9235 34.5092C67.4017 35.572 67.4082 36.2348 67.9432 36.4975C68.2053 36.6262 68.4663 36.5939 68.7261 36.4006C68.9894 36.2091 69.2542 35.8422 69.5204 35.3C69.7867 34.7579 69.915 34.324 69.9055 33.9985C69.9014 33.6712 69.7682 33.4432 69.5061 33.3145ZM70.1023 37.2434C70.1777 37.2805 70.2264 37.3356 70.2484 37.4088C70.2757 37.4801 70.2718 37.5517 70.2365 37.6235C70.1995 37.6989 70.1435 37.7494 70.0685 37.775C69.999 37.7987 69.9265 37.7921 69.8511 37.7551C69.7792 37.7198 69.7305 37.6647 69.705 37.5898C69.6794 37.5148 69.6842 37.4414 69.7195 37.3696C69.7547 37.2978 69.809 37.2509 69.8821 37.2289C69.9571 37.2033 70.0305 37.2082 70.1023 37.2434ZM73.6514 35.029C74.0212 35.2106 74.2237 35.5061 74.2588 35.9155C74.2957 36.3213 74.1652 36.8276 73.8673 37.4344C73.5711 38.0376 73.2485 38.4496 72.8994 38.6704C72.5558 38.8893 72.2008 38.9089 71.8346 38.729C71.4648 38.5474 71.2614 38.2537 71.2245 37.8479C71.1893 37.4385 71.3207 36.9304 71.6187 36.3236C71.9166 35.7168 72.2374 35.304 72.5811 35.085C72.9248 34.8661 73.2815 34.8474 73.6514 35.029ZM73.5244 35.2875C72.9894 35.0248 72.4619 35.4231 71.9418 36.4823C71.42 37.5451 71.4265 38.2078 71.9615 38.4705C72.2236 38.5992 72.4846 38.5669 72.7444 38.3736C73.0077 38.1821 73.2725 37.8153 73.5387 37.2731C73.805 36.7309 73.9333 36.2971 73.9238 35.9716C73.9197 35.6442 73.7865 35.4162 73.5244 35.2875ZM76.4522 36.4042C76.8148 36.5823 77.0233 36.8429 77.0777 37.186C77.1374 37.5272 77.0553 37.9258 76.8314 38.3818C76.6039 38.845 76.3515 39.1912 76.0741 39.4204C75.7967 39.6496 75.4855 39.7887 75.1406 39.8377C74.7993 39.8884 74.3869 39.8753 73.9033 39.7983L73.9415 39.5163C74.5111 39.6088 74.9894 39.5874 75.3767 39.4522C75.7675 39.3188 76.0874 39.0303 76.3364 38.5866C76.1511 38.6917 75.9611 38.7521 75.7662 38.7679C75.5731 38.78 75.3867 38.742 75.2072 38.6538C75.0205 38.5622 74.8756 38.4353 74.7725 38.2732C74.6711 38.1076 74.6187 37.9193 74.6154 37.7082C74.6175 37.4953 74.6749 37.274 74.7877 37.0442C74.9041 36.8072 75.0521 36.6236 75.2319 36.4936C75.417 36.3616 75.615 36.2895 75.826 36.2773C76.0388 36.2614 76.2475 36.3038 76.4522 36.4042ZM75.388 38.4218C75.5568 38.5046 75.7296 38.5338 75.9065 38.5092C76.0888 38.4829 76.2806 38.41 76.4819 38.2904C76.6953 37.8649 76.7903 37.5217 76.7669 37.2607C76.7453 36.996 76.6017 36.7985 76.336 36.6681C76.0954 36.5499 75.8655 36.5373 75.6461 36.6301C75.4321 36.7211 75.2528 36.9138 75.1082 37.2082C74.9725 37.4847 74.9304 37.7292 74.982 37.9417C75.0373 38.1559 75.1726 38.316 75.388 38.4218ZM82.3781 39.2538L80.5666 42.9431L80.2435 42.7844L81.9174 39.3752L80.1778 38.521L78.5039 41.9302L78.1807 41.7716L79.9922 38.0823L82.3781 39.2538ZM85.836 40.9517L83.9019 42.1544L84.1161 44.6859L83.7444 44.5034L83.5558 42.1649L82.9742 41.8793L82.0856 43.6889L81.7625 43.5303L83.574 39.841L83.8971 39.9997L83.1064 41.61L83.6934 41.8983L85.4967 40.7851L85.836 40.9517ZM86.8872 40.4518C86.9564 40.8735 86.9992 41.2265 87.0156 41.5108C87.0355 41.7969 87.0136 42.1092 86.9499 42.4478C86.8861 42.7864 86.7573 43.1531 86.5634 43.5481C86.3694 43.943 86.158 44.2693 85.9291 44.5267C85.7002 44.7842 85.4665 44.9925 85.2279 45.1516C84.9929 45.3125 84.6874 45.4945 84.3114 45.6976L84.1756 45.4705C84.5052 45.2803 84.7812 45.1039 85.0037 44.9413C85.2279 44.7751 85.4437 44.5669 85.6512 44.3167C85.8623 44.0683 86.0586 43.7592 86.2402 43.3894C86.4218 43.0196 86.5463 42.6752 86.6138 42.3563C86.6849 42.0392 86.7167 41.7429 86.7094 41.4674C86.7038 41.1884 86.6755 40.8603 86.6244 40.4833L86.8872 40.4518ZM86.7067 45.3965C86.7821 45.4335 86.8308 45.4886 86.8528 45.5618C86.8801 45.6331 86.8762 45.7047 86.8409 45.7765C86.8021 45.8555 86.7267 45.941 86.6147 46.0331L85.9613 46.6013L85.7351 46.4902L86.3393 45.8043C86.3104 45.7634 86.2949 45.7179 86.2927 45.6678C86.2906 45.6177 86.3009 45.5693 86.3239 45.5227C86.3591 45.4509 86.4134 45.404 86.4865 45.382C86.5615 45.3564 86.6349 45.3612 86.7067 45.3965ZM87.738 43.296C87.8134 43.333 87.8621 43.3881 87.8841 43.4613C87.9115 43.5327 87.9075 43.6043 87.8723 43.6761C87.8352 43.7515 87.7792 43.802 87.7043 43.8276C87.6347 43.8513 87.5622 43.8447 87.4868 43.8077C87.415 43.7724 87.3663 43.7173 87.3407 43.6424C87.3151 43.5674 87.32 43.494 87.3552 43.4222C87.3905 43.3504 87.4447 43.3035 87.5179 43.2815C87.5928 43.2559 87.6662 43.2608 87.738 43.296ZM91.2815 43.6255L89.47 47.3148L89.1469 47.1561L90.9584 43.4669L91.2815 43.6255ZM93.215 44.5749L90.8524 45.5204L91.4951 48.3091L91.1019 48.1161L90.4621 45.3488L92.8434 44.3924L93.215 44.5749ZM94.4939 45.263C94.7955 45.4111 94.9911 45.6163 95.0806 45.8787C95.1738 46.1427 95.1524 46.413 95.0167 46.6895C94.9021 46.9229 94.7461 47.1181 94.5487 47.2751C94.3512 47.4322 94.0884 47.5817 93.7603 47.7236C93.4358 47.8673 92.9247 48.0686 92.2271 48.3277L93.9236 49.1607L93.7457 49.4142L91.726 48.4225L91.8556 48.1586C92.6049 47.8759 93.1471 47.6609 93.4824 47.5136C93.823 47.3645 94.0813 47.2195 94.2574 47.0787C94.4389 46.936 94.5816 46.7588 94.6856 46.547C94.7896 46.3351 94.8097 46.1355 94.7457 45.9482C94.6853 45.7625 94.5528 45.6195 94.3482 45.519C94.183 45.4379 94.019 45.3997 93.8563 45.4045C93.6971 45.411 93.5266 45.4543 93.3447 45.5343L93.2086 45.2669C93.4386 45.1615 93.6565 45.1081 93.8622 45.1066C94.0715 45.1069 94.282 45.159 94.4939 45.263ZM94.8485 49.3942C94.9239 49.4312 94.9726 49.4863 94.9945 49.5595C95.0219 49.6309 95.0179 49.7025 94.9827 49.7743C94.9457 49.8497 94.8897 49.9002 94.8147 49.9258C94.7451 49.9495 94.6726 49.9429 94.5972 49.9059C94.5254 49.8706 94.4767 49.8155 94.4511 49.7406C94.4256 49.6656 94.4304 49.5922 94.4656 49.5204C94.5009 49.4486 94.5551 49.4017 94.6283 49.3797C94.7033 49.3541 94.7766 49.359 94.8485 49.3942ZM99.0521 47.8956L97.5979 47.1815L96.9976 48.4041C97.2498 48.3898 97.4818 48.4346 97.6936 48.5386C98.0024 48.6902 98.1972 48.9107 98.278 49.1999C98.3641 49.4873 98.3226 49.8033 98.1533 50.148C98.0387 50.3814 97.8871 50.5676 97.6985 50.7067C97.5152 50.844 97.3101 50.9215 97.083 50.9393C96.8613 50.9552 96.6355 50.9067 96.4058 50.7939C96.0072 50.5982 95.7402 50.2888 95.6048 49.8659L95.8912 49.7726C95.9462 49.951 96.0242 50.1008 96.1252 50.2217C96.2263 50.3426 96.363 50.4454 96.5353 50.53C96.7903 50.6552 97.0328 50.6695 97.2628 50.573C97.4947 50.473 97.6829 50.2757 97.8274 49.9813C97.9685 49.6941 98.0052 49.4469 97.9375 49.2399C97.8751 49.0311 97.7291 48.8702 97.4993 48.7574C97.3844 48.701 97.275 48.6651 97.1711 48.6497C97.0726 48.6326 96.9545 48.628 96.8168 48.6362L96.5691 48.5145L97.4233 46.7749L99.2275 47.6608L99.0521 47.8956ZM102.367 49.0685L99.3541 52.168L98.9933 51.9909L99.5983 47.7092L99.9484 47.8811L99.3403 51.7469L102.033 48.9045L102.367 49.0685ZM101.365 52.594C101.44 52.631 101.489 52.6861 101.511 52.7593C101.538 52.8306 101.535 52.9022 101.499 52.974C101.46 53.053 101.385 53.1385 101.273 53.2306L100.62 53.7988L100.394 53.6877L100.998 53.0018C100.969 52.9609 100.953 52.9154 100.951 52.8653C100.949 52.8152 100.959 52.7668 100.982 52.7202C101.017 52.6483 101.072 52.6014 101.145 52.5795C101.22 52.5539 101.293 52.5587 101.365 52.594ZM102.396 50.4935C102.472 50.5305 102.52 50.5856 102.542 50.6588C102.57 50.7302 102.566 50.8018 102.531 50.8736C102.494 50.949 102.438 50.9995 102.363 51.0251C102.293 51.0488 102.221 51.0422 102.145 51.0052C102.073 50.9699 102.025 50.9148 101.999 50.8398C101.973 50.7649 101.978 50.6915 102.014 50.6197C102.049 50.5479 102.103 50.501 102.176 50.479C102.251 50.4534 102.325 50.4582 102.396 50.4935ZM104.388 52.5945L104.523 52.3198L106.435 53.2586L106.3 53.5333L104.388 52.5945ZM109.132 52.4507C109.502 52.6323 109.705 52.9278 109.74 53.3372C109.777 53.743 109.646 54.2493 109.348 54.8561C109.052 55.4593 108.729 55.8713 108.38 56.0921C108.037 56.311 107.682 56.3306 107.315 56.1507C106.946 55.9691 106.742 55.6754 106.705 55.2696C106.67 54.8602 106.802 54.3521 107.1 53.7453C107.398 53.1385 107.718 52.7257 108.062 52.5067C108.406 52.2878 108.762 52.2691 109.132 52.4507ZM109.005 52.7092C108.47 52.4465 107.943 52.8448 107.423 53.904C106.901 54.9668 106.907 55.6295 107.442 55.8922C107.705 56.0209 107.965 55.9886 108.225 55.7953C108.489 55.6038 108.753 55.237 109.02 54.6948C109.286 54.1526 109.414 53.7188 109.405 53.3933C109.401 53.0659 109.267 52.8379 109.005 52.7092ZM109.601 56.6382C109.677 56.6752 109.726 56.7303 109.748 56.8035C109.775 56.8749 109.771 56.9465 109.736 57.0183C109.699 57.0937 109.643 57.1442 109.568 57.1697C109.498 57.1935 109.426 57.1869 109.35 57.1498C109.278 57.1146 109.23 57.0595 109.204 56.9845C109.179 56.9096 109.183 56.8362 109.219 56.7644C109.254 56.6926 109.308 56.6457 109.381 56.6237C109.456 56.5981 109.53 56.6029 109.601 56.6382ZM112.939 54.3197C113.14 54.4184 113.294 54.5434 113.403 54.6947C113.515 54.8477 113.577 55.0119 113.589 55.1871C113.603 55.3587 113.568 55.5289 113.485 55.6977C113.371 55.9311 113.211 56.0887 113.006 56.1707C112.806 56.2509 112.593 56.2578 112.367 56.1914C112.595 56.3168 112.746 56.4955 112.819 56.7275C112.898 56.9577 112.87 57.2093 112.736 57.4821C112.634 57.6904 112.496 57.8524 112.324 57.9681C112.151 58.0839 111.954 58.1452 111.732 58.1522C111.516 58.1573 111.294 58.1043 111.068 57.9933C110.651 57.7888 110.384 57.466 110.267 57.025L110.553 56.9451C110.61 57.1379 110.688 57.2966 110.787 57.4211C110.892 57.5437 111.025 57.6447 111.187 57.7241C111.445 57.851 111.684 57.877 111.904 57.8021C112.123 57.7272 112.292 57.5694 112.41 57.3289C112.657 56.8262 112.511 56.4426 111.973 56.1782L111.736 56.0618L111.903 55.8298L112.075 55.9145C112.28 56.015 112.484 56.0394 112.688 55.9879C112.893 55.9327 113.052 55.7902 113.165 55.5605C113.262 55.363 113.276 55.1759 113.206 54.9993C113.139 54.8191 113.001 54.6779 112.793 54.5757C112.642 54.5016 112.491 54.4607 112.339 54.4528C112.188 54.4414 112.019 54.4632 111.832 54.5182L111.76 54.2423C111.971 54.1764 112.171 54.1499 112.361 54.1629C112.552 54.1722 112.745 54.2245 112.939 54.3197ZM115.759 55.7779L114 59.3594L113.688 59.2061L115.277 55.9692L114.124 56.0849L114.092 55.7819L115.489 55.6457L115.759 55.7779ZM116.528 60.6007L116.663 60.3261L118.575 61.2648L118.44 61.5395L116.528 60.6007ZM119.002 58.353L118.6 59.1717L119.408 59.5683L119.276 59.8376L118.468 59.4409L118.066 60.2596L117.77 60.1141L118.172 59.2955L117.364 58.8988L117.496 58.6295L118.304 59.0262L118.706 58.2076L119.002 58.353ZM123.586 59.5475C123.955 59.7291 124.158 60.0246 124.193 60.434C124.23 60.8398 124.099 61.3461 123.801 61.9529C123.505 62.5561 123.183 62.9681 122.834 63.1888C122.49 63.4078 122.135 63.4273 121.769 63.2475C121.399 63.0659 121.196 62.7722 121.159 62.3664C121.123 61.957 121.255 61.4489 121.553 60.8421C121.851 60.2353 122.172 59.8224 122.515 59.6035C122.859 59.3846 123.216 59.3659 123.586 59.5475ZM123.459 59.806C122.924 59.5433 122.396 59.9416 121.876 61.0008C121.354 62.0636 121.361 62.7263 121.896 62.989C122.158 63.1177 122.419 63.0854 122.679 62.8921C122.942 62.7006 123.207 62.3337 123.473 61.7916C123.739 61.2494 123.867 60.8156 123.858 60.4901C123.854 60.1627 123.721 59.9347 123.459 59.806ZM124.055 63.735C124.13 63.772 124.179 63.8271 124.201 63.9003C124.228 63.9716 124.224 64.0432 124.189 64.115C124.152 64.1904 124.096 64.2409 124.021 64.2665C123.951 64.2903 123.879 64.2836 123.803 64.2466C123.732 64.2114 123.683 64.1563 123.657 64.0813C123.632 64.0064 123.637 63.933 123.672 63.8612C123.707 63.7894 123.761 63.7425 123.835 63.7205C123.91 63.6949 123.983 63.6997 124.055 63.735ZM127.604 61.5205C127.974 61.7021 128.176 61.9976 128.211 62.407C128.248 62.8128 128.118 63.3191 127.82 63.9259C127.524 64.5291 127.201 64.9411 126.852 65.1619C126.508 65.3808 126.153 65.4004 125.787 65.2206C125.417 65.039 125.214 64.7453 125.177 64.3395C125.142 63.9301 125.273 63.4219 125.571 62.8152C125.869 62.2084 126.19 61.7955 126.534 61.5766C126.877 61.3576 127.234 61.3389 127.604 61.5205ZM127.477 61.779C126.942 61.5164 126.414 61.9146 125.894 62.9738C125.372 64.0366 125.379 64.6994 125.914 64.962C126.176 65.0907 126.437 65.0584 126.697 64.8652C126.96 64.6736 127.225 64.3068 127.491 63.7646C127.757 63.2225 127.886 62.7886 127.876 62.4631C127.872 62.1358 127.739 61.9077 127.477 61.779ZM130.221 62.8059C130.423 62.9046 130.577 63.0296 130.686 63.1809C130.798 63.3339 130.86 63.498 130.872 63.6733C130.886 63.8449 130.851 64.0151 130.768 64.1838C130.654 64.4172 130.494 64.5749 130.289 64.6569C130.089 64.737 129.876 64.7439 129.65 64.6776C129.878 64.803 130.029 64.9817 130.102 65.2137C130.181 65.4439 130.153 65.6954 130.019 65.9683C129.917 66.1766 129.779 66.3386 129.606 66.4543C129.434 66.57 129.237 66.6314 129.015 66.6383C128.798 66.6435 128.577 66.5905 128.351 66.4794C127.934 66.2749 127.667 65.9522 127.55 65.5112L127.836 65.4313C127.893 65.6241 127.971 65.7827 128.07 65.9072C128.175 66.0299 128.308 66.1309 128.47 66.2103C128.728 66.3372 128.967 66.3632 129.187 66.2883C129.406 66.2133 129.575 66.0556 129.693 65.815C129.94 65.3124 129.794 64.9288 129.255 64.6643L129.019 64.548L129.186 64.316L129.358 64.4006C129.563 64.5011 129.767 64.5256 129.971 64.474C130.176 64.4189 130.335 64.2764 130.448 64.0466C130.545 63.8491 130.559 63.6621 130.489 63.4855C130.422 63.3053 130.284 63.1641 130.076 63.0618C129.925 62.9878 129.773 62.9468 129.621 62.939C129.471 62.9276 129.302 62.9493 129.115 63.0044L129.043 62.7285C129.254 62.6626 129.454 62.6361 129.643 62.649C129.835 62.6584 130.028 62.7107 130.221 62.8059ZM130.64 66.9683C130.715 67.0053 130.764 67.0604 130.786 67.1336C130.813 67.205 130.809 67.2765 130.774 67.3484C130.735 67.4273 130.66 67.5129 130.548 67.6049L129.894 68.1731L129.668 68.0621L130.272 67.3761C130.243 67.3352 130.228 67.2897 130.226 67.2396C130.224 67.1895 130.234 67.1412 130.257 67.0945C130.292 67.0227 130.346 66.9758 130.42 66.9538C130.494 66.9282 130.568 66.933 130.64 66.9683ZM131.671 64.8678C131.746 64.9049 131.795 64.96 131.817 65.0332C131.844 65.1045 131.841 65.1761 131.805 65.2479C131.768 65.3233 131.712 65.3738 131.637 65.3994C131.568 65.4231 131.495 65.4165 131.42 65.3795C131.348 65.3442 131.299 65.2891 131.274 65.2142C131.248 65.1392 131.253 65.0658 131.288 64.994C131.323 64.9222 131.378 64.8753 131.451 64.8533C131.526 64.8277 131.599 64.8326 131.671 64.8678ZM135.813 65.6251L134.055 69.2066L133.742 69.0532L135.332 65.8164L134.179 65.932L134.147 65.629L135.544 65.4928L135.813 65.6251ZM135.484 69.3468C135.559 69.3838 135.608 69.4389 135.63 69.5121C135.657 69.5835 135.653 69.6551 135.618 69.7269C135.581 69.8023 135.525 69.8528 135.45 69.8783C135.38 69.9021 135.308 69.8955 135.232 69.8584C135.161 69.8232 135.112 69.7681 135.086 69.6931C135.061 69.6182 135.066 69.5448 135.101 69.473C135.136 69.4012 135.19 69.3543 135.264 69.3323C135.339 69.3067 135.412 69.3115 135.484 69.3468ZM138.821 67.0285C139.123 67.1766 139.319 67.3818 139.408 67.6442C139.501 67.9082 139.48 68.1785 139.344 68.455C139.23 68.6884 139.074 68.8836 138.876 69.0407C138.679 69.1977 138.416 69.3472 138.088 69.4891C137.763 69.6328 137.252 69.8341 136.555 70.0932L138.251 70.9262L138.073 71.1797L136.053 70.188L136.183 69.9241C136.932 69.6414 137.475 69.4264 137.81 69.2791C138.15 69.13 138.409 68.985 138.585 68.8442C138.766 68.7016 138.909 68.5243 139.013 68.3125C139.117 68.1006 139.137 67.901 139.073 67.7137C139.013 67.5281 138.88 67.385 138.676 67.2845C138.51 67.2034 138.346 67.1652 138.184 67.17C138.025 67.1765 137.854 67.2198 137.672 67.2998L137.536 67.0324C137.766 66.927 137.984 66.8736 138.19 66.8721C138.399 66.8724 138.61 66.9245 138.821 67.0285ZM4.3261 7.87175C3.99653 8.06196 3.71964 8.24017 3.49544 8.40636C3.273 8.56897 3.05623 8.77447 2.84515 9.02286C2.63765 9.27301 2.44311 9.583 2.26152 9.95282C2.07993 10.3226 1.9536 10.6661 1.88255 10.9833C1.81508 11.3022 1.78414 11.6012 1.78973 11.8802C1.79709 12.1556 1.82627 12.4819 1.87729 12.859L1.61455 12.8904C1.54532 12.4687 1.50073 12.1148 1.48078 11.8288C1.46441 11.5444 1.48811 11.233 1.55185 10.8944C1.6156 10.5559 1.74444 10.1891 1.93837 9.79415C2.1323 9.3992 2.34372 9.07299 2.57263 8.81552C2.80154 8.55806 3.03349 8.34887 3.26846 8.18796C3.50703 8.02882 3.8143 7.84771 4.1903 7.64465L4.3261 7.87175ZM4.36189 9.69408L5.78922 11.5246L5.64642 11.8154L3.31995 11.8161L3.33379 11.502L5.43776 11.5325L4.11921 9.90244L4.36189 9.69408ZM2.83975 12.5762L2.97462 12.3016L4.88657 13.2404L4.7517 13.515L2.83975 12.5762ZM9.91825 11.5333C10.2881 11.7149 10.4906 12.0104 10.5257 12.4198C10.5626 12.8256 10.4321 13.3319 10.1342 13.9387C9.83798 14.5419 9.51537 14.9539 9.16634 15.1747C8.82266 15.3936 8.4677 15.4132 8.10147 15.2334C7.73165 15.0518 7.52828 14.7581 7.49136 14.3523C7.45621 13.9428 7.58761 13.4347 7.88555 12.8279C8.1835 12.2212 8.50431 11.8083 8.84799 11.5893C9.19167 11.3704 9.54842 11.3517 9.91825 11.5333ZM9.79131 11.7918C9.25632 11.5292 8.72879 11.9274 8.2087 12.9866C7.68685 14.0494 7.69342 14.7122 8.22841 14.9748C8.49052 15.1035 8.75146 15.0712 9.01125 14.878C9.27462 14.6864 9.53942 14.3196 9.80563 13.7774C10.0718 13.2353 10.2002 12.8014 10.1907 12.4759C10.1865 12.1486 10.0534 11.9205 9.79131 11.7918ZM10.3875 15.7208C10.4629 15.7578 10.5116 15.8129 10.5336 15.8861C10.5609 15.9575 10.557 16.0291 10.5217 16.1009C10.4847 16.1763 10.4287 16.2268 10.3537 16.2524C10.2841 16.2761 10.2116 16.2695 10.1362 16.2325C10.0644 16.1972 10.0157 16.1421 9.99015 16.0672C9.96457 15.9922 9.9694 15.9188 10.0047 15.847C10.0399 15.7752 10.0941 15.7283 10.1673 15.7063C10.2423 15.6807 10.3157 15.6856 10.3875 15.7208ZM13.7251 13.4026C14.0267 13.5507 14.2223 13.7559 14.3118 14.0182C14.405 14.2823 14.3837 14.5525 14.2479 14.829C14.1333 15.0624 13.9773 15.2576 13.7799 15.4147C13.5824 15.5717 13.3197 15.7212 12.9915 15.8631C12.667 16.0068 12.1559 16.2081 11.4583 16.4672L13.1548 17.3002L12.9769 17.5537L10.9572 16.562L11.0868 16.2981C11.8361 16.0155 12.3784 15.8005 12.7136 15.6531C13.0542 15.504 13.3126 15.359 13.4887 15.2182C13.6701 15.0756 13.8128 14.8983 13.9168 14.6865C14.0209 14.4747 14.0409 14.2751 13.9769 14.0877C13.9165 13.9021 13.784 13.759 13.5794 13.6585C13.4142 13.5774 13.2502 13.5393 13.0875 13.544C12.9283 13.5505 12.7578 13.5938 12.5759 13.6738L12.4398 13.4065C12.6698 13.301 12.8877 13.2476 13.0934 13.2461C13.3027 13.2464 13.5133 13.2985 13.7251 13.4026ZM16.0064 13.4465C16.0756 13.8682 16.1184 14.2212 16.1347 14.5055C16.1547 14.7916 16.1328 15.1039 16.0691 15.4425C16.0053 15.781 15.8765 16.1478 15.6825 16.5428C15.4886 16.9377 15.2772 17.2639 15.0483 17.5214C14.8194 17.7789 14.5856 17.9872 14.3471 18.1463C14.1121 18.3072 13.8066 18.4892 13.4306 18.6923L13.2948 18.4652C13.6244 18.275 13.9004 18.0985 14.1228 17.9359C14.347 17.7697 14.5629 17.5616 14.7704 17.3114C14.9815 17.063 15.1778 16.7539 15.3594 16.3841C15.541 16.0143 15.6655 15.6699 15.733 15.351C15.804 15.0338 15.8359 14.7375 15.8285 14.4621C15.8229 14.1831 15.7946 13.855 15.7436 13.4779L16.0064 13.4465ZM20.3286 21.1636L20.0163 21.0102L20.7167 19.1617C20.9852 18.4424 21.2012 17.8845 21.3647 17.488L18.9971 19.9683L18.6901 19.8176L19.1727 16.4116C18.9838 16.7511 18.7213 17.1949 18.3854 17.7429L18.2661 17.945L17.2318 19.643L16.9248 19.4922L19.0864 15.9749L19.5334 16.1944L19.0395 19.5146L21.3323 17.0776L21.7847 17.2998L20.3286 21.1636ZM25.396 19.073L23.5845 22.7623L23.2614 22.6036L24.9353 19.1944L23.5943 18.5359L22.4902 20.2263C22.2248 20.6397 22.0168 20.9364 21.866 21.1163C21.717 21.2927 21.573 21.4091 21.4338 21.4656C21.2983 21.5238 21.124 21.5385 20.9109 21.5096L20.957 21.2114C21.102 21.2247 21.2227 21.2059 21.3189 21.1552C21.4169 21.1008 21.519 21.0017 21.6253 20.8578C21.7352 20.7157 21.914 20.4559 22.1618 20.0784L23.4463 18.1157L25.396 19.073ZM27.4612 20.0871C27.8993 20.3021 28.19 20.5585 28.3335 20.8563C28.4823 21.1521 28.4651 21.4868 28.2817 21.8602C28.0878 22.2552 27.8211 22.4852 27.4817 22.5502C27.1476 22.6135 26.7669 22.5402 26.3397 22.3304L25.8119 22.0712L25.1058 23.5092L24.7826 23.3506L26.5941 19.6613L27.4612 20.0871ZM26.4692 22.0665C26.8032 22.2304 27.0925 22.2901 27.3373 22.2454C27.582 22.2007 27.7828 22.0185 27.9398 21.699C28.0878 21.3974 28.1057 21.1388 27.9932 20.9231C27.8861 20.7056 27.6638 20.514 27.3263 20.3483L26.7877 20.0839L25.9414 21.8073L26.4692 22.0665ZM30.0208 25.5817L29.5025 26.6373L29.2547 26.5157L29.5736 25.703L27.2523 24.5632L26.8042 25.3124L26.5565 25.1908L27.0748 24.1351L27.3118 24.2515C27.4456 24.2058 27.5712 24.1316 27.6885 24.0288C27.8094 23.9277 27.9585 23.7603 28.1357 23.5264C28.3147 23.289 28.5581 22.9384 28.866 22.4746L29.7047 21.1886L31.4281 22.0349L29.7515 25.4495L30.0208 25.5817ZM30.9701 22.1509L29.8553 21.6035L29.1811 22.6361C28.8892 23.0854 28.6547 23.427 28.4775 23.6608C28.3002 23.8946 28.145 24.0657 28.0116 24.174C27.8835 24.2805 27.7454 24.353 27.5972 24.3917L29.4284 25.2908L30.9701 22.1509ZM30.9996 25.8417C31.075 25.8787 31.1237 25.9339 31.1457 26.007C31.1731 26.0784 31.1691 26.15 31.1339 26.2218C31.0968 26.2972 31.0409 26.3477 30.9659 26.3733C30.8963 26.397 30.8238 26.3904 30.7484 26.3534C30.6766 26.3181 30.6279 26.263 30.6023 26.1881C30.5767 26.1131 30.5816 26.0397 30.6168 25.9679C30.6521 25.8961 30.7063 25.8492 30.7795 25.8272C30.8545 25.8016 30.9278 25.8065 30.9996 25.8417ZM37.5403 25.036L35.7288 28.7253L35.4057 28.5666L37.0796 25.1574L35.7386 24.4989L34.6345 26.1894C34.3691 26.6027 34.1611 26.8994 34.0103 27.0794C33.8613 27.2558 33.7173 27.3722 33.5781 27.4287C33.4426 27.4869 33.2683 27.5015 33.0552 27.4727L33.1013 27.1745C33.2463 27.1878 33.367 27.169 33.4632 27.1182C33.5612 27.0638 33.6633 26.9647 33.7696 26.8208C33.8795 26.6787 34.0583 26.4189 34.306 26.0415L35.5906 24.0787L37.5403 25.036ZM40.6127 26.5446L40.4427 26.7954L38.9293 26.0523L38.255 27.4257L39.5637 28.0683L39.4315 28.3376L38.1228 27.695L37.3823 29.203L38.9711 29.9831L38.8389 30.2524L36.9269 29.3136L38.7384 25.6243L40.6127 26.5446ZM43.5087 27.9666L43.3308 28.2336L42.2483 27.702L40.577 31.1058L40.2592 30.9498L41.9305 27.546L40.8372 27.0092L40.9774 26.7237L43.5087 27.9666ZM42.3129 31.3967C42.3883 31.4338 42.437 31.4889 42.459 31.562C42.4864 31.6334 42.4824 31.705 42.4472 31.7768C42.4084 31.8558 42.333 31.9413 42.2209 32.0334L41.5676 32.6016L41.3414 32.4905L41.9456 31.8046C41.9167 31.7636 41.9011 31.7181 41.899 31.6681C41.8968 31.618 41.9072 31.5696 41.9301 31.5229C41.9654 31.4511 42.0196 31.4042 42.0928 31.3822C42.1677 31.3566 42.2411 31.3615 42.3129 31.3967ZM43.3443 29.2963C43.4197 29.3333 43.4684 29.3884 43.4904 29.4616C43.5177 29.533 43.5138 29.6045 43.4785 29.6763C43.4415 29.7518 43.3855 29.8022 43.3106 29.8278C43.241 29.8516 43.1685 29.845 43.0931 29.8079C43.0212 29.7727 42.9725 29.7176 42.947 29.6426C42.9214 29.5677 42.9262 29.4943 42.9615 29.4225C42.9967 29.3507 43.051 29.3038 43.1241 29.2818C43.1991 29.2562 43.2725 29.261 43.3443 29.2963ZM47.3464 32.9391L47.2194 33.1976L46.7347 32.9596L46.2719 33.9021L45.9649 33.7514L46.4277 32.8089L44.8605 32.0393L44.9742 31.8078L47.2787 29.8779L47.4897 30.1152L45.3213 31.9448L46.5547 32.5504L47.108 31.5187L47.3773 31.6509L46.8616 32.7011L47.3464 32.9391ZM49.9987 31.2135C50.3614 31.3916 50.5699 31.6521 50.6242 31.9952C50.6839 32.3365 50.6018 32.7351 50.3779 33.1911C50.1505 33.6543 49.8981 34.0004 49.6207 34.2296C49.3433 34.4588 49.0321 34.5979 48.6872 34.6469C48.3459 34.6977 47.9334 34.6846 47.4499 34.6075L47.4881 34.3255C48.0576 34.418 48.536 34.3967 48.9232 34.2615C49.314 34.1281 49.634 33.8396 49.883 33.3959C49.6977 33.501 49.5076 33.5614 49.3127 33.5771C49.1196 33.5892 48.9333 33.5512 48.7538 33.4631C48.5671 33.3714 48.4222 33.2445 48.319 33.0825C48.2177 32.9169 48.1653 32.7285 48.162 32.5174C48.164 32.3045 48.2215 32.0832 48.3343 31.8534C48.4507 31.6164 48.5987 31.4329 48.7785 31.3028C48.9636 31.1709 49.1616 31.0988 49.3726 31.0865C49.5854 31.0707 49.7941 31.113 49.9987 31.2135ZM48.9346 33.231C49.1033 33.3139 49.2762 33.343 49.4531 33.3185C49.6354 33.2921 49.8272 33.2192 50.0284 33.0997C50.2418 32.6742 50.3369 32.3309 50.3135 32.0699C50.2919 31.8053 50.1483 31.6078 49.8826 31.4773C49.642 31.3592 49.412 31.3465 49.1927 31.4394C48.9787 31.5303 48.7994 31.723 48.6548 32.0175C48.5191 32.2939 48.477 32.5384 48.5286 32.7509C48.5838 32.9652 48.7192 33.1252 48.9346 33.231ZM53.4489 32.9811L53.3299 33.2235L50.258 35.9129L50.0148 35.6731L52.9961 33.0863L51.3212 32.2639L51.4507 32L53.4489 32.9811ZM55.7999 34.1355L55.6809 34.3778L52.6091 37.0673L52.3658 36.8275L55.3472 34.2407L53.6722 33.4183L53.8018 33.1544L55.7999 34.1355ZM56.1085 38.732L56.2433 38.4574L58.1553 39.3962L58.0204 39.6708L56.1085 38.732ZM58.5824 36.4843L58.1804 37.303L58.9883 37.6996L58.8561 37.9689L58.0482 37.5723L57.6462 38.3909L57.35 38.2454L57.752 37.4268L56.9441 37.0301L57.0763 36.7608L57.8842 37.1575L58.2862 36.3389L58.5824 36.4843ZM63.71 38.3403L62.2559 37.6263L61.6556 38.8489C61.9077 38.8346 62.1397 38.8794 62.3515 38.9834C62.6603 39.135 62.8551 39.3555 62.9359 39.6447C63.0221 39.9321 62.9805 40.2481 62.8113 40.5928C62.6967 40.8262 62.5451 41.0124 62.3564 41.1515C62.1732 41.2888 61.968 41.3663 61.7409 41.3841C61.5192 41.4 61.2935 41.3515 61.0637 41.2387C60.6651 41.043 60.3982 40.7336 60.2627 40.3106L60.5492 40.2173C60.6041 40.3958 60.6821 40.5455 60.7832 40.6665C60.8842 40.7874 61.0209 40.8901 61.1933 40.9748C61.4482 41.0999 61.6907 41.1143 61.9208 41.0178C62.1526 40.9178 62.3408 40.7205 62.4854 40.4261C62.6264 40.1389 62.6631 39.8917 62.5954 39.6847C62.5331 39.4758 62.387 39.315 62.1572 39.2022C62.0423 39.1458 61.9329 39.1099 61.8291 39.0945C61.7306 39.0773 61.6125 39.0728 61.4748 39.081L61.227 38.9593L62.0812 37.2197L63.8854 38.1056L63.71 38.3403ZM65.6038 38.8759C65.9665 39.0539 66.175 39.3145 66.2293 39.6576C66.289 39.9988 66.2069 40.3974 65.983 40.8534C65.7556 41.3166 65.5032 41.6628 65.2258 41.892C64.9483 42.1212 64.6372 42.2603 64.2923 42.3093C63.951 42.36 63.5385 42.3469 63.055 42.2699L63.0932 41.9879C63.6627 42.0804 64.1411 42.059 64.5283 41.9238C64.9191 41.7904 65.239 41.5019 65.4881 41.0583C65.3028 41.1633 65.1127 41.2237 64.9178 41.2395C64.7247 41.2516 64.5384 41.2136 64.3589 41.1254C64.1722 41.0338 64.0272 40.9069 63.9241 40.7448C63.8227 40.5792 63.7704 40.3909 63.7671 40.1798C63.7691 39.9669 63.8266 39.7456 63.9394 39.5158C64.0557 39.2788 64.2038 39.0953 64.3835 38.9652C64.5686 38.8332 64.7667 38.7611 64.9777 38.7489C65.1904 38.733 65.3992 38.7754 65.6038 38.8759ZM64.5397 40.8934C64.7084 40.9762 64.8813 41.0054 65.0582 40.9809C65.2405 40.9545 65.4322 40.8816 65.6335 40.762C65.8469 40.3365 65.9419 39.9933 65.9186 39.7323C65.897 39.4677 65.7534 39.2701 65.4877 39.1397C65.2471 39.0215 65.0171 39.0089 64.7978 39.1017C64.5837 39.1927 64.4045 39.3854 64.2599 39.6798C64.1241 39.9563 64.0821 40.2008 64.1337 40.4133C64.1889 40.6276 64.3242 40.7876 64.5397 40.8934ZM69.467 40.7126L67.6555 44.4018L67.3324 44.2432L69.1439 40.5539L69.467 40.7126ZM71.4005 41.662L69.0379 42.6074L69.6806 45.3962L69.2874 45.2031L68.6476 42.4358L71.0289 41.4795L71.4005 41.662Z" fill="#363636"/>
</svg>
