<svg width="161" height="39" viewBox="0 0 161 39" fill="none" xmlns="http://www.w3.org/2000/svg">
    <path d="M1.68235 26.8085L2.34719 30.7427L2.00406 30.8007L1.4032 27.2451L0.534935 28.0125L0.33221 27.7851L1.38655 26.8585L1.68235 26.8085ZM5.69809 28.8195L5.74608 29.1035L5.21363 29.1934L5.38859 30.2288L5.05137 30.2857L4.87641 29.2504L3.15482 29.5414L3.11183 29.287L3.85491 26.3744L4.1648 26.4438L3.47363 29.1954L4.82842 28.9664L4.67488 27.8058L4.97069 27.7558L5.16564 28.9095L5.69809 28.8195ZM7.70025 25.7915L7.74524 26.0578L6.82306 30.035L6.4856 29.9825L7.39427 26.1414L5.55436 26.4523L5.50537 26.1625L7.70025 25.7915ZM11.1787 25.1368C11.5849 25.0681 11.9219 25.1897 12.1896 25.5014C12.4566 25.8093 12.6464 26.2964 12.7591 26.963C12.8711 27.6256 12.8499 28.1484 12.6956 28.5315C12.5445 28.91 12.2678 29.1332 11.8655 29.2012C11.4593 29.2698 11.1227 29.1502 10.8556 28.8424C10.588 28.5307 10.3978 28.0415 10.2851 27.375C10.1725 26.7084 10.1917 26.1859 10.3428 25.8075C10.4938 25.429 10.7725 25.2054 11.1787 25.1368ZM11.2267 25.4208C10.639 25.5201 10.4435 26.1515 10.6401 27.315C10.8374 28.4824 11.2299 29.0165 11.8175 28.9172C12.1055 28.8685 12.2984 28.6899 12.3963 28.3813C12.4982 28.072 12.4988 27.6195 12.3982 27.024C12.2976 26.4284 12.1483 26.0013 11.9504 25.7427C11.7559 25.4794 11.5146 25.3721 11.2267 25.4208ZM14.2553 24.6169C14.6537 24.5496 14.9751 24.6392 15.2196 24.886C15.4674 25.128 15.6337 25.4995 15.7183 26.0004C15.8043 26.5092 15.8016 26.9377 15.7104 27.2857C15.6191 27.6338 15.4478 27.9285 15.1965 28.1697C14.9491 28.4103 14.6067 28.6406 14.1692 28.8605L14.0355 28.6093C14.5518 28.3517 14.9276 28.0549 15.1629 27.719C15.4022 27.3824 15.4933 26.9614 15.4362 26.4558C15.3472 26.6493 15.2282 26.8094 15.0793 26.936C14.9296 27.0587 14.7562 27.1366 14.559 27.17C14.3539 27.2046 14.1621 27.1863 13.9838 27.115C13.8047 27.0398 13.6522 26.9175 13.5262 26.7481C13.4035 26.5742 13.3209 26.361 13.2782 26.1085C13.2342 25.8482 13.2472 25.6128 13.3171 25.4022C13.3902 25.187 13.5088 25.0128 13.6729 24.8796C13.8364 24.7424 14.0305 24.6549 14.2553 24.6169ZM14.5701 26.876C14.7555 26.8447 14.9128 26.7674 15.0421 26.6441C15.1747 26.5162 15.2877 26.345 15.3813 26.1304C15.3059 25.6604 15.1825 25.3263 15.0111 25.1281C14.839 24.9259 14.607 24.8495 14.3151 24.8988C14.0509 24.9435 13.8568 25.0676 13.733 25.271C13.6125 25.4699 13.5795 25.7311 13.6342 26.0545C13.6855 26.3582 13.7942 26.5812 13.9602 26.7235C14.1302 26.8652 14.3335 26.916 14.5701 26.876ZM18.1264 25.9343C18.4508 26.0052 18.696 26.1118 18.862 26.2542C19.0313 26.3919 19.1376 26.5889 19.181 26.8453C19.2176 27.0622 19.1947 27.2628 19.1123 27.4471C19.0331 27.6268 18.9026 27.7787 18.7207 27.9028C18.5428 28.0261 18.3276 28.1091 18.0752 28.1518C17.8228 28.1945 17.5923 28.1868 17.3837 28.1287C17.179 28.07 17.0098 27.9688 16.876 27.825C16.7454 27.6767 16.6622 27.4961 16.6262 27.2831C16.5409 26.7783 16.7612 26.3658 17.2872 26.0456C17.0365 25.9785 16.8443 25.8852 16.7106 25.7658C16.5801 25.6418 16.4965 25.4714 16.4598 25.2545C16.4258 25.0533 16.4475 24.8691 16.5247 24.7019C16.6019 24.5347 16.719 24.3993 16.8759 24.2957C17.0322 24.1882 17.2069 24.1181 17.4002 24.0854C17.5935 24.0528 17.7812 24.0596 17.9635 24.1058C18.1457 24.1521 18.3005 24.2396 18.4277 24.3682C18.5588 24.4961 18.6421 24.6646 18.6774 24.8736C18.712 25.0787 18.6848 25.2659 18.5958 25.4351C18.5061 25.6003 18.3496 25.7667 18.1264 25.9343ZM16.804 25.2024C16.836 25.3917 16.9145 25.5326 17.0397 25.625C17.1688 25.7168 17.3758 25.7893 17.6606 25.8426L17.855 25.8767C18.0559 25.721 18.193 25.5721 18.2663 25.4299C18.3436 25.287 18.3669 25.1249 18.3362 24.9434C18.2983 24.7186 18.1976 24.5551 18.0343 24.4529C17.8749 24.35 17.6789 24.3182 17.4462 24.3576C17.2214 24.3956 17.0486 24.4897 16.928 24.6399C16.8073 24.7901 16.766 24.9776 16.804 25.2024ZM18.0321 27.8609C18.3122 27.8136 18.5233 27.7069 18.6657 27.5409C18.8113 27.3702 18.8627 27.1587 18.8201 26.9063C18.7934 26.7485 18.7418 26.6233 18.6653 26.5308C18.5882 26.4343 18.4821 26.3589 18.3472 26.3046C18.2116 26.2464 18.0264 26.1946 17.7915 26.1491L17.5774 26.1061C17.3305 26.2533 17.1595 26.4181 17.0646 26.6005C16.9729 26.7783 16.9471 26.9855 16.9871 27.2221C17.0297 27.4745 17.1455 27.6558 17.3345 27.7658C17.5235 27.8759 17.756 27.9076 18.0321 27.8609ZM21.9756 23.3122C22.3069 23.2562 22.5855 23.3085 22.8115 23.4691C23.0413 23.6291 23.1819 23.8609 23.2332 24.1646C23.2765 24.421 23.264 24.6705 23.1955 24.9133C23.127 25.1562 23.001 25.431 22.8176 25.7378C22.6381 26.044 22.3409 26.506 21.926 27.1238L23.7896 26.8088L23.7933 27.1186L21.5747 27.4935L21.5257 27.2036C21.9688 26.5364 22.2833 26.0452 22.4693 25.7298C22.6587 25.4097 22.7837 25.1411 22.8443 24.924C22.9083 24.7023 22.9206 24.475 22.8813 24.2423C22.8419 24.0096 22.7416 23.8359 22.5802 23.7212C22.4228 23.6058 22.2317 23.5671 22.0069 23.6051C21.8254 23.6358 21.6701 23.7006 21.5407 23.7995C21.4154 23.8978 21.3022 24.0325 21.2013 24.2037L20.9347 24.0662C21.0598 23.8463 21.2054 23.6756 21.3715 23.5543C21.5415 23.4322 21.7429 23.3515 21.9756 23.3122ZM24.9263 22.8136C25.3246 22.7463 25.6461 22.836 25.8906 23.0827C26.1384 23.3248 26.3046 23.6963 26.3893 24.1972C26.4753 24.7059 26.4726 25.1344 26.3813 25.4825C26.2901 25.8305 26.1188 26.1252 25.8674 26.3664C25.6201 26.607 25.2777 26.8373 24.8402 27.0573L24.7065 26.806C25.2227 26.5484 25.5986 26.2516 25.8339 25.9157C26.0731 25.5792 26.1642 25.1581 26.1072 24.6525C26.0182 24.8461 25.8992 25.0061 25.7502 25.1327C25.6006 25.2554 25.4271 25.3334 25.2299 25.3667C25.0249 25.4013 24.8331 25.383 24.6547 25.3118C24.4757 25.2365 24.3232 25.1142 24.1972 24.9449C24.0745 24.7709 23.9918 24.5577 23.9492 24.3053C23.9052 24.0449 23.9181 23.8095 23.988 23.5989C24.0612 23.3837 24.1798 23.2095 24.3439 23.0763C24.5073 22.9392 24.7015 22.8516 24.9263 22.8136ZM25.2411 25.0727C25.4265 25.0414 25.5838 24.9641 25.7131 24.8408C25.8456 24.713 25.9587 24.5417 26.0522 24.3271C25.9769 23.8571 25.8535 23.523 25.682 23.3248C25.5099 23.1227 25.278 23.0462 24.9861 23.0956C24.7219 23.1402 24.5278 23.2643 24.404 23.4678C24.2834 23.6666 24.2505 23.9278 24.3051 24.2512C24.3565 24.5549 24.4651 24.7779 24.6312 24.9202C24.8012 25.0619 25.0045 25.1127 25.2411 25.0727ZM28.1067 22.2761C28.5129 22.2075 28.8499 22.329 29.1176 22.6408C29.3846 22.9486 29.5744 23.4358 29.687 24.1023C29.799 24.7649 29.7778 25.2878 29.6235 25.6709C29.4725 26.0493 29.1958 26.2725 28.7935 26.3405C28.3873 26.4092 28.0506 26.2896 27.7836 25.9818C27.5159 25.67 27.3257 25.1809 27.2131 24.5143C27.1005 23.8478 27.1197 23.3253 27.2707 22.9468C27.4218 22.5683 27.7004 22.3448 28.1067 22.2761ZM28.1546 22.5601C27.567 22.6594 27.3715 23.2908 27.5681 24.4543C27.7654 25.6218 28.1578 26.1559 28.7455 26.0565C29.0334 26.0079 29.2264 25.8292 29.3243 25.5206C29.4262 25.2113 29.4268 24.7589 29.3262 24.1633C29.2255 23.5678 29.0763 23.1407 28.8784 22.882C28.6838 22.6188 28.4426 22.5115 28.1546 22.5601ZM34.5173 21.1381L33.65 23.244L35.3027 25.1736L34.8945 25.2426L33.3753 23.4547L32.7364 23.5627L33.0723 25.5505L32.7173 25.6105L32.0325 21.558L32.3875 21.498L32.6864 23.2669L33.3312 23.1579L34.1445 21.201L34.5173 21.1381ZM39.5241 24.4602L39.181 24.5182L38.6696 22.6087C38.4674 21.8681 38.3168 21.2891 38.2179 20.8717L37.7452 24.268L37.408 24.3249L35.81 21.2786C35.855 21.6645 35.9012 22.178 35.9486 22.8191L35.9699 23.0528L36.1223 25.0351L35.7851 25.0921L35.4848 20.9746L35.9759 20.8916L37.5145 23.8749L37.9518 20.5577L38.4488 20.4737L39.5241 24.4602ZM42.533 19.8383C42.9392 19.7696 43.2762 19.8912 43.5439 20.2029C43.8109 20.5107 44.0007 20.9979 44.1134 21.6644C44.2253 22.3271 44.2042 22.8499 44.0498 23.233C43.8988 23.6114 43.6221 23.8346 43.2198 23.9026C42.8136 23.9713 42.4769 23.8517 42.2099 23.5439C41.9422 23.2321 41.7521 22.743 41.6394 22.0764C41.5268 21.4099 41.546 20.8874 41.697 20.5089C41.8481 20.1305 42.1267 19.9069 42.533 19.8383ZM42.581 20.1222C41.9933 20.2215 41.7978 20.8529 41.9944 22.0164C42.1917 23.1839 42.5842 23.718 43.1718 23.6187C43.4597 23.57 43.6527 23.3914 43.7506 23.0827C43.8525 22.7734 43.8531 22.321 43.7525 21.7254C43.6518 21.1299 43.5026 20.7028 43.3047 20.4441C43.1101 20.1809 42.8689 20.0736 42.581 20.1222ZM45.36 22.9629C45.4428 22.9489 45.5145 22.9652 45.5751 23.0117C45.639 23.0537 45.6776 23.1141 45.6909 23.193C45.7056 23.2797 45.6944 23.3932 45.6572 23.5333L45.4588 24.3762L45.2104 24.4182L45.3001 23.5085C45.2527 23.4922 45.2135 23.4643 45.1825 23.4249C45.1515 23.3855 45.1317 23.3402 45.123 23.2889C45.1097 23.21 45.1263 23.1403 45.1728 23.0797C45.2187 23.0152 45.2811 22.9762 45.36 22.9629ZM46.7246 19.1299C47.123 19.0626 47.4444 19.1523 47.689 19.399C47.9368 19.6411 48.103 20.0126 48.1876 20.5135C48.2736 21.0223 48.271 21.4507 48.1797 21.7988C48.0884 22.1468 47.9171 22.4415 47.6658 22.6828C47.4184 22.9233 47.076 23.1536 46.6385 23.3736L46.5048 23.1224C47.0211 22.8647 47.3969 22.568 47.6322 22.232C47.8715 21.8955 47.9626 21.4744 47.9056 20.9688C47.8166 21.1624 47.6976 21.3224 47.5486 21.449C47.3989 21.5717 47.2255 21.6497 47.0283 21.683C46.8232 21.7177 46.6315 21.6994 46.4531 21.6281C46.2741 21.5529 46.1216 21.4306 45.9956 21.2612C45.8729 21.0872 45.7902 20.874 45.7475 20.6216C45.7035 20.3613 45.7165 20.1258 45.7864 19.9152C45.8595 19.7 45.9782 19.5258 46.1423 19.3926C46.3057 19.2555 46.4998 19.1679 46.7246 19.1299ZM47.0395 21.389C47.2248 21.3577 47.3822 21.2804 47.5114 21.1571C47.644 21.0293 47.757 20.858 47.8506 20.6435C47.7752 20.1734 47.6518 19.8393 47.4804 19.6411C47.3083 19.439 47.0763 19.3626 46.7845 19.4119C46.5202 19.4565 46.3262 19.5806 46.2023 19.7841C46.0818 19.9829 46.0488 20.2441 46.1035 20.5675C46.1548 20.8712 46.2635 21.0942 46.4295 21.2365C46.5995 21.3782 46.8028 21.429 47.0395 21.389ZM50.5957 20.4473C50.9201 20.5182 51.1653 20.6249 51.3313 20.7672C51.5006 20.9049 51.607 21.102 51.6503 21.3583C51.6869 21.5752 51.6641 21.7759 51.5816 21.9602C51.5024 22.1399 51.3719 22.2917 51.1901 22.4158C51.0121 22.5392 50.7969 22.6222 50.5445 22.6648C50.2921 22.7075 50.0616 22.6998 49.853 22.6417C49.6484 22.583 49.4791 22.4818 49.3453 22.3381C49.2148 22.1898 49.1315 22.0091 49.0955 21.7961C49.0102 21.2913 49.2306 20.8788 49.7566 20.5587C49.5059 20.4915 49.3136 20.3982 49.1799 20.2789C49.0494 20.1549 48.9658 19.9844 48.9292 19.7675C48.8952 19.5663 48.9168 19.3822 48.994 19.215C49.0712 19.0478 49.1883 18.9124 49.3452 18.8088C49.5015 18.7012 49.6763 18.6311 49.8695 18.5985C50.0628 18.5658 50.2505 18.5726 50.4328 18.6189C50.6151 18.6652 50.7698 18.7526 50.897 18.8812C51.0282 19.0091 51.1114 19.1776 51.1467 19.3867C51.1814 19.5918 51.1542 19.7789 51.0651 19.9481C50.9754 20.1134 50.8189 20.2798 50.5957 20.4473ZM49.2733 19.7154C49.3053 19.9047 49.3839 20.0456 49.509 20.138C49.6381 20.2298 49.8451 20.3023 50.13 20.3556L50.3244 20.3897C50.5252 20.2341 50.6623 20.0851 50.7357 19.9429C50.8129 19.8001 50.8362 19.6379 50.8056 19.4565C50.7676 19.2317 50.6669 19.0682 50.5036 18.9659C50.3443 18.8631 50.1482 18.8313 49.9155 18.8706C49.6907 18.9086 49.518 19.0027 49.3973 19.1529C49.2766 19.3031 49.2353 19.4906 49.2733 19.7154ZM50.5015 22.3739C50.7815 22.3266 50.9927 22.2199 51.135 22.0539C51.2806 21.8833 51.3321 21.6717 51.2894 21.4193C51.2627 21.2615 51.2112 21.1364 51.1347 21.0438C51.0575 20.9473 50.9515 20.872 50.8165 20.8177C50.6809 20.7595 50.4957 20.7076 50.2609 20.6621L50.0467 20.6192C49.7998 20.7664 49.6289 20.9312 49.5339 21.1135C49.4423 21.2913 49.4164 21.4985 49.4564 21.7351C49.4991 21.9876 49.6149 22.1688 49.8039 22.2789C49.9928 22.3889 50.2254 22.4206 50.5015 22.3739ZM52.7689 18.1085C52.9898 18.0712 53.1884 18.0822 53.3648 18.1417C53.5451 18.2004 53.6913 18.2974 53.8034 18.4326C53.9148 18.5639 53.9862 18.7222 54.0175 18.9076C54.0609 19.164 54.0232 19.3853 53.9046 19.5717C53.7893 19.7535 53.6206 19.8834 53.3985 19.9615C53.6569 19.93 53.8835 19.987 54.0785 20.1326C54.2768 20.2735 54.4012 20.4939 54.4519 20.7936C54.4905 21.0224 54.4736 21.2341 54.401 21.429C54.3285 21.6238 54.2042 21.7888 54.0283 21.924C53.8556 22.0546 53.6451 22.1409 53.3966 22.1829C52.9391 22.2602 52.5338 22.1542 52.1806 21.865L52.3666 21.6328C52.5253 21.7561 52.6813 21.8392 52.8347 21.8823C52.9913 21.9207 53.1583 21.925 53.3358 21.895C53.6198 21.847 53.8289 21.7285 53.9633 21.5394C54.0977 21.3504 54.1426 21.1238 54.0979 20.8595C54.0046 20.3073 53.6621 20.0812 53.0705 20.1812L52.8102 20.2252L52.8106 19.9391L52.9999 19.9072C53.2247 19.8692 53.4046 19.7698 53.5397 19.609C53.6742 19.4443 53.7201 19.2358 53.6774 18.9833C53.6407 18.7664 53.5427 18.6065 53.3834 18.5036C53.2233 18.3968 53.0289 18.3627 52.8002 18.4014C52.6345 18.4294 52.4877 18.4846 52.3596 18.5671C52.2309 18.6456 52.1066 18.762 51.9866 18.9161L51.7672 18.7342C51.8996 18.5576 52.0466 18.4192 52.2081 18.3189C52.369 18.2146 52.556 18.1445 52.7689 18.1085ZM55.612 17.628C55.9433 17.5721 56.2219 17.6244 56.4478 17.785C56.6777 17.9449 56.8183 18.1767 56.8696 18.4804C56.9129 18.7368 56.9003 18.9864 56.8318 19.2292C56.7633 19.472 56.6374 19.7468 56.4539 20.0537C56.2745 20.3598 55.9773 20.8218 55.5624 21.4396L57.426 21.1247L57.4296 21.4344L55.2111 21.8093L55.1621 21.5194C55.6051 20.8523 55.9197 20.361 56.1057 20.0456C56.295 19.7255 56.42 19.457 56.4807 19.2398C56.5447 19.0181 56.557 18.7908 56.5176 18.5581C56.4783 18.3254 56.378 18.1517 56.2166 18.037C56.0592 17.9216 55.868 17.8829 55.6432 17.9209C55.4618 17.9516 55.3064 18.0164 55.1771 18.1153C55.0517 18.2136 54.9386 18.3483 54.8377 18.5195L54.5711 18.382C54.6962 18.1621 54.8418 17.9915 55.0079 17.8701C55.1779 17.748 55.3793 17.6674 55.612 17.628ZM58.5627 17.1294C58.961 17.0621 59.2825 17.1518 59.527 17.3985C59.7748 17.6406 59.941 18.0121 60.0257 18.513C60.1116 19.0218 60.109 19.4502 60.0177 19.7983C59.9264 20.1463 59.7551 20.441 59.5038 20.6823C59.2564 20.9228 58.914 21.1531 58.4766 21.3731L58.3428 21.1219C58.8591 20.8642 59.2349 20.5675 59.4702 20.2316C59.7095 19.895 59.8006 19.4739 59.7436 18.9683C59.6546 19.1619 59.5356 19.3219 59.3866 19.4485C59.237 19.5712 59.0635 19.6492 58.8663 19.6825C58.6612 19.7172 58.4695 19.6989 58.2911 19.6276C58.1121 19.5524 57.9596 19.4301 57.8336 19.2607C57.7109 19.0867 57.6282 18.8735 57.5856 18.6211C57.5416 18.3608 57.5545 18.1253 57.6244 17.9147C57.6976 17.6995 57.8162 17.5253 57.9803 17.3921C58.1437 17.255 58.3378 17.1674 58.5627 17.1294ZM58.8775 19.3885C59.0629 19.3572 59.2202 19.2799 59.3495 19.1567C59.482 19.0288 59.595 18.8575 59.6886 18.643C59.6132 18.1729 59.4898 17.8388 59.3184 17.6406C59.1463 17.4385 58.9143 17.3621 58.6225 17.4114C58.3582 17.456 58.1642 17.5801 58.0404 17.7836C57.9198 17.9825 57.8869 18.2436 57.9415 18.567C57.9928 18.8707 58.1015 19.0937 58.2676 19.236C58.4375 19.3777 58.6408 19.4285 58.8775 19.3885ZM61.7391 16.6596L62.4039 20.5938L62.0608 20.6518L61.4599 17.0962L60.5916 17.8636L60.3889 17.6362L61.4433 16.7096L61.7391 16.6596ZM63.7519 16.2525C63.9728 16.2152 64.1714 16.2262 64.3477 16.2857C64.5281 16.3444 64.6743 16.4414 64.7864 16.5766C64.8978 16.7079 64.9692 16.8662 65.0005 17.0516C65.0438 17.308 65.0062 17.5293 64.8876 17.7157C64.7722 17.8975 64.6035 18.0274 64.3814 18.1055C64.6398 18.074 64.8665 18.131 65.0615 18.2766C65.2597 18.4175 65.3842 18.6379 65.4348 18.9376C65.4735 19.1664 65.4565 19.3781 65.384 19.573C65.3114 19.7678 65.1872 19.9328 65.0113 20.068C64.8386 20.1986 64.628 20.2849 64.3796 20.3269C63.922 20.4042 63.5167 20.2982 63.1636 20.009L63.3495 19.7768C63.5083 19.9001 63.6643 19.9832 63.8176 20.0263C63.9742 20.0647 64.1413 20.069 64.3187 20.039C64.6027 19.991 64.8119 19.8725 64.9463 19.6834C65.0807 19.4944 65.1255 19.2678 65.0809 19.0035C64.9875 18.4513 64.6451 18.2252 64.0535 18.3252L63.7932 18.3692L63.7935 18.0831L63.9828 18.0512C64.2076 18.0132 64.3876 17.9138 64.5227 17.753C64.6571 17.5883 64.703 17.3798 64.6604 17.1273C64.6237 16.9104 64.5257 16.7505 64.3663 16.6476C64.2063 16.5408 64.0119 16.5067 63.7831 16.5454C63.6175 16.5734 63.4706 16.6286 63.3426 16.7111C63.2139 16.7896 63.0895 16.906 62.9695 17.0601L62.7501 16.8782C62.8826 16.7016 63.0296 16.5632 63.1911 16.4629C63.352 16.3586 63.5389 16.2885 63.7519 16.2525ZM68.5858 18.1922L68.6337 18.4761L68.1013 18.5661L68.2763 19.6014L67.939 19.6584L67.7641 18.6231L66.0425 18.914L65.9995 18.6596L66.7426 15.7471L67.0525 15.8164L66.3613 18.5681L67.7161 18.3391L67.5625 17.1785L67.8584 17.1285L68.0533 18.2821L68.5858 18.1922ZM73.5349 18.7128L72.993 17.6664L71.2892 17.9544L71.1212 19.1207L70.7603 19.1817L71.4302 14.9002L71.8739 14.8252L73.9077 18.6498L73.5349 18.7128ZM71.3388 17.6356L72.8474 17.3807L71.6981 15.1531L71.3388 17.6356ZM74.5477 18.0305C74.6305 18.0165 74.7023 18.0328 74.7629 18.0793C74.8267 18.1212 74.8653 18.1817 74.8787 18.2605C74.8927 18.3434 74.8767 18.4171 74.8308 18.4816C74.7882 18.5415 74.7255 18.5785 74.6427 18.5925C74.5638 18.6058 74.4921 18.5896 74.4275 18.5437C74.363 18.4978 74.3241 18.4354 74.3107 18.3565C74.2974 18.2776 74.314 18.2079 74.3606 18.1473C74.4064 18.0827 74.4688 18.0438 74.5477 18.0305ZM77.2778 13.912L77.2864 14.2148L75.624 14.4957L75.8789 16.0043L77.3165 15.7614L77.3665 16.0572L75.9289 16.3001L76.2088 17.9567L77.9541 17.6617L78.0041 17.9575L75.9038 18.3124L75.219 14.2599L77.2778 13.912ZM78.7999 17.3119C78.8827 17.2979 78.9545 17.3142 79.0151 17.3607C79.0789 17.4027 79.1176 17.4631 79.1309 17.542C79.1455 17.6287 79.1343 17.7422 79.0971 17.8823L78.8988 18.7252L78.6503 18.7672L78.74 17.8575C78.6926 17.8412 78.6534 17.8133 78.6224 17.7739C78.5914 17.7345 78.5716 17.6892 78.5629 17.6379C78.5496 17.5591 78.5662 17.4893 78.6128 17.4287C78.6587 17.3642 78.721 17.3252 78.7999 17.3119ZM78.41 15.0046C78.4928 14.9906 78.5646 15.0069 78.6252 15.0534C78.689 15.0954 78.7276 15.1558 78.741 15.2347C78.755 15.3175 78.739 15.3912 78.6931 15.4557C78.6505 15.5157 78.5878 15.5526 78.505 15.5666C78.4261 15.58 78.3544 15.5637 78.2898 15.5178C78.2253 15.4719 78.1864 15.4095 78.173 15.3307C78.1597 15.2518 78.1763 15.182 78.2229 15.1214C78.2687 15.0569 78.3311 15.0179 78.41 15.0046ZM82.2144 13.1995L82.8792 17.1337L82.5361 17.1917L81.9352 13.6361L81.067 14.4035L80.8642 14.1761L81.9186 13.2495L82.2144 13.1995ZM85.3748 12.9575L83.7774 13.2274L84.0044 14.5704C84.2006 14.4114 84.4151 14.3123 84.6478 14.273C84.987 14.2157 85.2738 14.2808 85.5084 14.4683C85.7462 14.6513 85.8971 14.932 85.9611 15.3107C86.0044 15.567 85.9901 15.8068 85.9183 16.0299C85.8497 16.2483 85.7285 16.4311 85.5546 16.5781C85.3839 16.7206 85.1724 16.8131 84.92 16.8558C84.4822 16.9297 84.0848 16.8346 83.7277 16.5704L83.9057 16.3274C84.0546 16.4401 84.2054 16.5161 84.358 16.5552C84.5107 16.5943 84.6817 16.5979 84.871 16.5659C85.151 16.5185 85.3562 16.3885 85.4866 16.1758C85.6163 15.9592 85.6538 15.6892 85.5992 15.3658C85.5459 15.0502 85.4313 14.8282 85.2554 14.6997C85.0828 14.5666 84.8703 14.5214 84.6179 14.5641C84.4917 14.5854 84.3819 14.6202 84.2887 14.6684C84.1987 14.712 84.1002 14.7773 83.9932 14.8643L83.721 14.9103L83.3981 12.9994L85.38 12.6645L85.3748 12.9575ZM87.0703 12.3119C87.4016 12.2559 87.6802 12.3083 87.9061 12.4689C88.136 12.6288 88.2766 12.8606 88.3279 13.1643C88.3712 13.4207 88.3586 13.6703 88.2901 13.9131C88.2216 14.1559 88.0957 14.4307 87.9122 14.7376C87.7327 15.0437 87.4355 15.5057 87.0207 16.1235L88.8843 15.8086L88.8879 16.1183L86.6694 16.4932L86.6204 16.2033C87.0634 15.5362 87.378 15.0449 87.564 14.7295C87.7533 14.4094 87.8783 14.1409 87.939 13.9237C88.0029 13.702 88.0152 13.4747 87.9759 13.242C87.9366 13.0093 87.8362 12.8356 87.6749 12.7209C87.5174 12.6055 87.3263 12.5668 87.1015 12.6048C86.9201 12.6355 86.7647 12.7003 86.6354 12.7992C86.51 12.8975 86.3969 13.0322 86.296 13.2034L86.0294 13.0659C86.1545 12.846 86.3001 12.6754 86.4662 12.554C86.6362 12.4319 86.8376 12.3513 87.0703 12.3119ZM91.8494 11.5043C92.2556 11.4357 92.5926 11.5572 92.8603 11.869C93.1273 12.1768 93.3171 12.664 93.4298 13.3305C93.5417 13.9931 93.5206 14.516 93.3662 14.899C93.2152 15.2775 92.9385 15.5007 92.5362 15.5687C92.13 15.6373 91.7934 15.5178 91.5263 15.21C91.2586 14.8982 91.0685 14.409 90.9558 13.7425C90.8432 13.0759 90.8624 12.5534 91.0135 12.175C91.1645 11.7965 91.4431 11.573 91.8494 11.5043ZM91.8974 11.7883C91.3097 11.8876 91.1142 12.519 91.3108 13.6825C91.5081 14.85 91.9006 15.384 92.4882 15.2847C92.7762 15.2361 92.9691 15.0574 93.067 14.7488C93.1689 14.4395 93.1695 13.9871 93.0689 13.3915C92.9682 12.7959 92.819 12.3688 92.6211 12.1102C92.4265 11.8469 92.1853 11.7396 91.8974 11.7883ZM94.926 10.9844C95.3244 10.9171 95.6458 11.0068 95.8903 11.2535C96.1381 11.4956 96.3043 11.8671 96.389 12.368C96.475 12.8768 96.4723 13.3052 96.381 13.6533C96.2898 14.0013 96.1185 14.296 95.8672 14.5372C95.6198 14.7778 95.2774 15.0081 94.8399 15.2281L94.7062 14.9768C95.2225 14.7192 95.5983 14.4224 95.8336 14.0865C96.0729 13.75 96.164 13.3289 96.1069 12.8233C96.0179 13.0169 95.8989 13.1769 95.75 13.3035C95.6003 13.4262 95.4269 13.5042 95.2297 13.5375C95.0246 13.5722 94.8328 13.5538 94.6545 13.4826C94.4754 13.4074 94.3229 13.2851 94.1969 13.1157C94.0742 12.9417 93.9916 12.7285 93.9489 12.4761C93.9049 12.2158 93.9179 11.9803 93.9877 11.7697C94.0609 11.5545 94.1795 11.3803 94.3436 11.2471C94.5071 11.11 94.7012 11.0224 94.926 10.9844ZM95.2408 13.2435C95.4262 13.2122 95.5835 13.1349 95.7128 13.0116C95.8453 12.8838 95.9584 12.7125 96.0519 12.4979C95.9766 12.0279 95.8532 11.6938 95.6818 11.4956C95.5097 11.2935 95.2777 11.2171 94.9858 11.2664C94.7216 11.311 94.5275 11.4351 94.4037 11.6386C94.2832 11.8374 94.2502 12.0986 94.3049 12.422C94.3562 12.7257 94.4649 12.9487 94.6309 13.091C94.8009 13.2327 95.0042 13.2835 95.2408 13.2435ZM98.7971 12.3018C99.1215 12.3727 99.3667 12.4794 99.5327 12.6217C99.702 12.7594 99.8083 12.9564 99.8516 13.2128C99.8883 13.4297 99.8654 13.6304 99.783 13.8147C99.7038 13.9944 99.5733 14.1462 99.3914 14.2703C99.2135 14.3937 98.9983 14.4767 98.7459 14.5193C98.4935 14.562 98.263 14.5543 98.0544 14.4962C97.8497 14.4375 97.6805 14.3363 97.5467 14.1926C97.4161 14.0443 97.3329 13.8636 97.2969 13.6506C97.2116 13.1458 97.4319 12.7333 97.9579 12.4132C97.7072 12.346 97.515 12.2527 97.3812 12.1334C97.2508 12.0094 97.1672 11.8389 97.1305 11.622C97.0965 11.4208 97.1181 11.2367 97.1954 11.0695C97.2726 10.9022 97.3897 10.7668 97.5466 10.6633C97.7029 10.5557 97.8776 10.4856 98.0709 10.453C98.2641 10.4203 98.4519 10.4271 98.6342 10.4734C98.8164 10.5197 98.9712 10.6071 99.0984 10.7357C99.2295 10.8636 99.3127 11.0321 99.3481 11.2412C99.3827 11.4462 99.3555 11.6334 99.2665 11.8026C99.1768 11.9679 99.0203 12.1343 98.7971 12.3018ZM97.4747 11.5699C97.5067 11.7592 97.5852 11.9001 97.7104 11.9925C97.8395 12.0843 98.0465 12.1568 98.3313 12.2101L98.5257 12.2442C98.7266 12.0886 98.8637 11.9396 98.937 11.7974C99.0143 11.6546 99.0376 11.4924 99.0069 11.311C98.9689 11.0862 98.8683 10.9226 98.705 10.8204C98.5456 10.7175 98.3496 10.6858 98.1169 10.7251C97.8921 10.7631 97.7193 10.8572 97.5987 11.0074C97.478 11.1576 97.4367 11.3451 97.4747 11.5699ZM98.7028 14.2284C98.9828 14.1811 99.194 14.0744 99.3363 13.9084C99.4819 13.7378 99.5334 13.5262 99.4908 13.2738C99.4641 13.116 99.4125 12.9909 99.336 12.8983C99.2589 12.8018 99.1528 12.7265 99.0179 12.6722C98.8823 12.614 98.6971 12.5621 98.4622 12.5166L98.2481 12.4737C98.0011 12.6209 97.8302 12.7857 97.7353 12.968C97.6436 13.1458 97.6178 13.353 97.6578 13.5896C97.7004 13.8421 97.8162 14.0233 98.0052 14.1333C98.1942 14.2434 98.4267 14.2751 98.7028 14.2284ZM102.646 9.67975C102.978 9.62377 103.256 9.67607 103.482 9.83668C103.712 9.99661 103.853 10.2284 103.904 10.5321C103.947 10.7885 103.935 11.0381 103.866 11.2809C103.798 11.5237 103.672 11.7985 103.488 12.1054C103.309 12.4116 103.012 12.8735 102.597 13.4913L104.46 13.1764L104.464 13.4861L102.245 13.861L102.196 13.5711C102.639 12.904 102.954 12.4127 103.14 12.0973C103.329 11.7773 103.454 11.5087 103.515 11.2915C103.579 11.0698 103.591 10.8426 103.552 10.6099C103.513 10.3772 103.412 10.2034 103.251 10.0887C103.093 9.97335 102.902 9.93465 102.678 9.97264C102.496 10.0033 102.341 10.0681 102.211 10.167C102.086 10.2653 101.973 10.4 101.872 10.5712L101.605 10.4337C101.73 10.2138 101.876 10.0432 102.042 9.9218C102.212 9.79976 102.414 9.71908 102.646 9.67975ZM105.425 9.21023C105.646 9.17291 105.844 9.18397 106.021 9.24341C106.201 9.30219 106.347 9.39918 106.459 9.53439C106.571 9.66566 106.642 9.82398 106.673 10.0094C106.717 10.2657 106.679 10.4871 106.56 10.6735C106.445 10.8552 106.276 10.9851 106.054 11.0632C106.313 11.0317 106.539 11.0888 106.734 11.2343C106.933 11.3753 107.057 11.5956 107.108 11.8953C107.146 12.1241 107.129 12.3359 107.057 12.5307C106.984 12.7255 106.86 12.8905 106.684 13.0257C106.511 13.1563 106.301 13.2426 106.052 13.2846C105.595 13.3619 105.19 13.256 104.836 12.9668L105.022 12.7346C105.181 12.8578 105.337 12.941 105.49 12.984C105.647 13.0225 105.814 13.0267 105.992 12.9967C106.276 12.9487 106.485 12.8302 106.619 12.6412C106.753 12.4521 106.798 12.2255 106.754 11.9613C106.66 11.4091 106.318 11.183 105.726 11.283L105.466 11.3269L105.466 11.0409L105.656 11.0089C105.88 10.9709 106.06 10.8715 106.196 10.7108C106.33 10.5461 106.376 10.3375 106.333 10.0851C106.297 9.86816 106.199 9.70826 106.039 9.60538C105.879 9.49855 105.685 9.46447 105.456 9.50312C105.29 9.53112 105.143 9.58636 105.015 9.66885C104.887 9.74739 104.762 9.86374 104.642 10.0179L104.423 9.8359C104.555 9.65936 104.702 9.52094 104.864 9.42062C105.025 9.31635 105.212 9.24623 105.425 9.21023ZM108.268 8.72979C108.599 8.6738 108.878 8.72611 109.104 8.88671C109.333 9.04664 109.474 9.27846 109.525 9.58215C109.569 9.83852 109.556 10.0881 109.488 10.3309C109.419 10.5737 109.293 10.8486 109.11 11.1554C108.93 11.4616 108.633 11.9236 108.218 12.5413L110.082 12.2264L110.085 12.5361L107.867 12.911L107.818 12.6212C108.261 11.954 108.575 11.4627 108.762 11.1473C108.951 10.8273 109.076 10.5587 109.136 10.3416C109.2 10.1198 109.213 9.89259 109.173 9.65989C109.134 9.42719 109.034 9.25348 108.872 9.13876C108.715 9.02338 108.524 8.98469 108.299 9.02268C108.118 9.05334 107.962 9.11813 107.833 9.21706C107.708 9.31533 107.594 9.45006 107.493 9.62127L107.227 9.48377C107.352 9.26385 107.498 9.09321 107.664 8.97183C107.834 8.84979 108.035 8.76911 108.268 8.72979ZM114.552 7.61298L113.685 9.71893L115.338 11.6485L114.93 11.7175L113.41 9.92965L112.772 10.0376L113.107 12.0254L112.752 12.0854L112.068 8.03288L112.423 7.9729L112.722 9.74182L113.366 9.63284L114.18 7.67597L114.552 7.61298ZM119.559 10.9352L119.216 10.9931L118.705 9.08365C118.503 8.34299 118.352 7.76399 118.253 7.34664L117.78 10.7429L117.443 10.7999L115.845 7.75354C115.89 8.13945 115.936 8.65293 115.984 9.29398L116.005 9.52771L116.157 11.51L115.82 11.567L115.52 7.44948L116.011 7.3665L117.55 10.3498L117.987 7.03258L118.484 6.9486L119.559 10.9352ZM122.68 6.36126L123.345 10.2955L123.001 10.3535L122.401 6.79788L121.532 7.56528L121.33 7.33788L122.384 6.41125L122.68 6.36126ZM124.586 9.57449C124.669 9.5605 124.741 9.57678 124.801 9.62333C124.865 9.66527 124.904 9.72568 124.917 9.80456C124.932 9.89133 124.921 10.0048 124.884 10.1449L124.685 10.9878L124.437 11.0298L124.526 10.1201C124.479 10.1038 124.44 10.0759 124.409 10.0365C124.378 9.99714 124.358 9.95181 124.349 9.90054C124.336 9.82166 124.353 9.75192 124.399 9.69131C124.445 9.62676 124.507 9.58783 124.586 9.57449ZM126.173 5.70395C126.58 5.6353 126.916 5.75685 127.184 6.06861C127.451 6.37642 127.641 6.8636 127.754 7.53015C127.866 8.19275 127.844 8.71559 127.69 9.09866C127.539 9.47712 127.262 9.70034 126.86 9.76833C126.454 9.83698 126.117 9.7174 125.85 9.40959C125.583 9.09783 125.392 8.60868 125.28 7.94213C125.167 7.27558 125.186 6.75308 125.337 6.37462C125.488 5.99616 125.767 5.7726 126.173 5.70395ZM126.221 5.98792C125.634 6.08723 125.438 6.71864 125.635 7.88214C125.832 9.04959 126.224 9.58366 126.812 9.48435C127.1 9.4357 127.293 9.25705 127.391 8.94842C127.493 8.63912 127.493 8.18669 127.393 7.59113C127.292 6.99558 127.143 6.56847 126.945 6.30983C126.75 6.04657 126.509 5.93927 126.221 5.98792ZM129.37 5.23067L130.035 9.16489L129.692 9.22288L129.091 5.66729L128.223 6.4347L128.02 6.2073L129.074 5.28066L129.37 5.23067ZM132.069 6.18623C132.373 6.13491 132.642 6.19907 132.875 6.37873C133.107 6.55444 133.258 6.84344 133.326 7.24574C133.373 7.52577 133.363 7.78094 133.297 8.01125C133.233 8.23695 133.123 8.42198 132.965 8.56635C132.81 8.70611 132.622 8.79466 132.401 8.83198C131.967 8.9053 131.622 8.7933 131.365 8.49599C131.111 8.19407 130.936 7.76308 130.842 7.20302C130.765 6.74945 130.756 6.34537 130.813 5.9908C130.871 5.63622 130.991 5.3522 131.174 5.13872C131.357 4.9213 131.594 4.78793 131.886 4.73861C132.15 4.69396 132.407 4.72954 132.658 4.84537L132.55 5.10701C132.34 5.01674 132.133 4.98893 131.928 5.02359C131.608 5.07757 131.381 5.2803 131.246 5.63176C131.11 5.98322 131.08 6.41829 131.156 6.93697C131.355 6.50579 131.659 6.25554 132.069 6.18623ZM132.353 8.54801C132.613 8.50402 132.796 8.37176 132.901 8.15122C133.009 7.92608 133.035 7.64786 132.979 7.31656C132.923 6.9892 132.813 6.7583 132.649 6.62387C132.488 6.48876 132.295 6.44021 132.07 6.4782C131.873 6.51152 131.702 6.60134 131.556 6.74766C131.413 6.88937 131.3 7.07079 131.216 7.29193C131.305 7.74745 131.441 8.0835 131.623 8.3001C131.806 8.51669 132.049 8.59933 132.353 8.54801ZM135.411 4.20981L135.456 4.47603L134.534 8.4533L134.196 8.40079L135.105 4.55968L133.265 4.87061L133.216 4.58072L135.411 4.20981ZM137.216 3.90482L137.881 7.83904L137.538 7.89703L136.937 4.34144L136.068 5.10884L135.866 4.88144L136.92 3.95481L137.216 3.90482ZM139.229 3.49774C139.45 3.46041 139.648 3.47147 139.824 3.53092C140.005 3.58969 140.151 3.68669 140.263 3.8219C140.375 3.95317 140.446 4.11149 140.477 4.29686C140.521 4.55322 140.483 4.77459 140.364 4.96096C140.249 5.14272 140.08 5.27264 139.858 5.35074C140.117 5.31925 140.343 5.37628 140.538 5.52183C140.736 5.66276 140.861 5.8831 140.912 6.18285C140.95 6.41161 140.933 6.6234 140.861 6.81821C140.788 7.01302 140.664 7.17803 140.488 7.31323C140.315 7.44383 140.105 7.53012 139.856 7.57211C139.399 7.64943 138.993 7.54348 138.64 7.25428L138.826 7.02206C138.985 7.14533 139.141 7.22849 139.294 7.27154C139.451 7.30999 139.618 7.31421 139.795 7.28422C140.079 7.23623 140.289 7.11772 140.423 6.92869C140.557 6.73965 140.602 6.51301 140.558 6.24876C140.464 5.69658 140.122 5.47049 139.53 5.57046L139.27 5.61445L139.27 5.3284L139.46 5.2964C139.684 5.25841 139.864 5.15904 139.999 4.99828C140.134 4.83358 140.18 4.62501 140.137 4.37259C140.1 4.15567 140.002 3.99576 139.843 3.89288C139.683 3.78605 139.489 3.75197 139.26 3.79063C139.094 3.81862 138.947 3.87386 138.819 3.95635C138.691 4.0349 138.566 4.15124 138.446 4.30539L138.227 4.1234C138.359 3.94687 138.506 3.80844 138.668 3.70812C138.829 3.60386 139.016 3.53373 139.229 3.49774ZM143.116 4.81238C143.44 4.88332 143.686 4.98996 143.852 5.13228C144.021 5.26999 144.127 5.46703 144.171 5.7234C144.207 5.94032 144.184 6.14094 144.102 6.32526C144.023 6.50496 143.892 6.65683 143.71 6.78087C143.532 6.90424 143.317 6.98726 143.065 7.02991C142.812 7.07257 142.582 7.06487 142.373 7.00681C142.169 6.94809 141.999 6.84688 141.866 6.70317C141.735 6.55484 141.652 6.37419 141.616 6.16121C141.53 5.65637 141.751 5.24389 142.277 4.92376C142.026 4.8566 141.834 4.76332 141.7 4.64394C141.57 4.51995 141.486 4.34949 141.449 4.13257C141.415 3.93142 141.437 3.74725 141.514 3.58004C141.591 3.41284 141.709 3.27744 141.865 3.17384C142.022 3.0663 142.197 2.9962 142.39 2.96354C142.583 2.93088 142.771 2.93769 142.953 2.98397C143.135 3.03024 143.29 3.11768 143.417 3.24629C143.548 3.37422 143.632 3.54271 143.667 3.75174C143.702 3.95684 143.674 4.14398 143.585 4.31319C143.496 4.47845 143.339 4.64484 143.116 4.81238ZM141.794 4.0805C141.826 4.26982 141.904 4.41069 142.029 4.50313C142.158 4.5949 142.365 4.66743 142.65 4.72071L142.845 4.75479C143.045 4.59915 143.183 4.45022 143.256 4.30801C143.333 4.16514 143.357 4.00299 143.326 3.82156C143.288 3.59675 143.187 3.43323 143.024 3.33102C142.865 3.22814 142.668 3.19636 142.436 3.23568C142.211 3.27367 142.038 3.36777 141.918 3.51797C141.797 3.66818 141.756 3.85569 141.794 4.0805ZM143.022 6.73902C143.302 6.6917 143.513 6.58502 143.655 6.41899C143.801 6.24834 143.852 6.03681 143.81 5.78438C143.783 5.62662 143.731 5.50147 143.655 5.40892C143.578 5.31242 143.472 5.23704 143.337 5.18276C143.201 5.12454 143.016 5.07268 142.781 5.02718L142.567 4.98426C142.32 5.13147 142.149 5.29625 142.054 5.47862C141.963 5.65638 141.937 5.86358 141.977 6.10023C142.019 6.35265 142.135 6.53388 142.324 6.64393C142.513 6.75398 142.746 6.78568 143.022 6.73902ZM146.299 4.27442C146.624 4.34537 146.869 4.452 147.035 4.59432C147.204 4.73204 147.311 4.92908 147.354 5.18544C147.391 5.40237 147.368 5.60299 147.285 5.7873C147.206 5.967 147.076 6.11887 146.894 6.24291C146.716 6.36629 146.501 6.4493 146.248 6.49196C145.996 6.53461 145.765 6.52691 145.557 6.46886C145.352 6.41014 145.183 6.30892 145.049 6.16521C144.918 6.01689 144.835 5.83623 144.799 5.62325C144.714 5.11841 144.934 4.70593 145.46 4.38581C145.21 4.31864 145.017 4.22537 144.884 4.10599C144.753 3.982 144.669 3.81154 144.633 3.59461C144.599 3.39346 144.62 3.20929 144.698 3.04208C144.775 2.87488 144.892 2.73948 145.049 2.63588C145.205 2.52834 145.38 2.45824 145.573 2.42558C145.766 2.39292 145.954 2.39973 146.136 2.44601C146.319 2.49229 146.473 2.57973 146.601 2.70833C146.732 2.83626 146.815 3.00475 146.85 3.21379C146.885 3.41888 146.858 3.60603 146.769 3.77523C146.679 3.94049 146.523 4.10689 146.299 4.27442ZM144.977 3.54254C145.009 3.73186 145.088 3.87274 145.213 3.96517C145.342 4.05695 145.549 4.12947 145.834 4.18275L146.028 4.21684C146.229 4.06119 146.366 3.91226 146.439 3.77006C146.517 3.62718 146.54 3.46503 146.509 3.28361C146.471 3.05879 146.371 2.89528 146.207 2.79306C146.048 2.69018 145.852 2.6584 145.619 2.69772C145.394 2.73571 145.222 2.82981 145.101 2.98002C144.98 3.13022 144.939 3.31773 144.977 3.54254ZM146.205 6.20107C146.485 6.15374 146.696 6.04707 146.839 5.88103C146.984 5.71038 147.036 5.49885 146.993 5.24643C146.966 5.08866 146.915 4.96351 146.838 4.87096C146.761 4.77447 146.655 4.69908 146.52 4.64481C146.385 4.58659 146.199 4.53473 145.964 4.48923L145.75 4.44631C145.503 4.59351 145.332 4.7583 145.238 4.94066C145.146 5.11842 145.12 5.32562 145.16 5.56227C145.203 5.81469 145.319 5.99593 145.508 6.10598C145.696 6.21602 145.929 6.24772 146.205 6.20107ZM152.363 5.39174L151.821 4.34542L150.117 4.63335L149.949 5.79965L149.588 5.86063L150.258 1.57914L150.702 1.50416L152.735 5.32876L152.363 5.39174ZM150.166 4.31463L151.675 4.05969L150.526 1.83204L150.166 4.31463ZM153.375 4.70945C153.458 4.69546 153.53 4.71173 153.591 4.75829C153.654 4.80023 153.693 4.86064 153.706 4.93952C153.72 5.02235 153.704 5.09603 153.659 5.16058C153.616 5.22052 153.553 5.25749 153.47 5.27148C153.391 5.28481 153.32 5.26854 153.255 5.22265C153.191 5.17676 153.152 5.11438 153.138 5.0355C153.125 4.95662 153.142 4.88687 153.188 4.82627C153.234 4.76172 153.297 4.72278 153.375 4.70945ZM156.105 0.590967L156.114 0.893772L154.452 1.1747L154.707 2.68332L156.144 2.44037L156.194 2.73618L154.757 2.97912L155.036 4.63563L156.782 4.34071L156.832 4.63651L154.732 4.99143L154.047 0.938884L156.105 0.590967ZM157.628 3.99087C157.71 3.97688 157.782 3.99316 157.843 4.03971C157.907 4.08165 157.945 4.14206 157.959 4.22094C157.973 4.30377 157.957 4.37746 157.911 4.442C157.868 4.50194 157.805 4.53891 157.723 4.55291C157.644 4.56624 157.572 4.54996 157.507 4.50407C157.443 4.45819 157.404 4.3958 157.391 4.31692C157.377 4.23804 157.394 4.1683 157.44 4.10769C157.486 4.04314 157.549 4.0042 157.628 3.99087ZM158.852 3.78389C158.935 3.7699 159.007 3.78617 159.068 3.83273C159.131 3.87467 159.17 3.93508 159.183 4.01396C159.198 4.10073 159.187 4.21419 159.15 4.35435L158.951 5.19718L158.703 5.23917L158.792 4.32951C158.745 4.31317 158.706 4.28531 158.675 4.24593C158.644 4.20654 158.624 4.16121 158.615 4.10994C158.602 4.03106 158.619 3.96131 158.665 3.90071C158.711 3.83616 158.774 3.79722 158.852 3.78389ZM158.463 1.47661C158.545 1.46261 158.617 1.47889 158.678 1.52544C158.742 1.56738 158.78 1.62779 158.793 1.70668C158.807 1.7895 158.792 1.86319 158.746 1.92774C158.703 1.98767 158.64 2.02464 158.557 2.03864C158.479 2.05197 158.407 2.03569 158.342 1.9898C158.278 1.94392 158.239 1.88153 158.226 1.80265C158.212 1.72377 158.229 1.65403 158.275 1.59342C158.321 1.52888 158.384 1.48994 158.463 1.47661ZM2.84874 33.7106L3.51358 37.6449L3.17045 37.7028L2.56959 34.1473L1.70132 34.9147L1.4986 34.6873L2.55293 33.7606L2.84874 33.7106ZM6.86448 35.7216L6.91247 36.0056L6.38002 36.0956L6.55497 37.1309L6.21776 37.1879L6.0428 36.1526L4.32121 36.4435L4.27822 36.1891L5.0213 33.2766L5.33118 33.3459L4.64002 36.0975L5.99481 35.8686L5.84127 34.7079L6.13707 34.658L6.33203 35.8116L6.86448 35.7216ZM8.00922 32.7716C8.40757 32.7043 8.72901 32.794 8.97353 33.0407C9.22134 33.2828 9.38756 33.6543 9.47221 34.1552C9.55819 34.664 9.55554 35.0924 9.46426 35.4405C9.37298 35.7886 9.20169 36.0832 8.95037 36.3245C8.703 36.5651 8.36059 36.7953 7.92312 37.0153L7.78939 36.7641C8.30568 36.5065 8.68149 36.2097 8.9168 35.8738C9.15607 35.5372 9.24718 35.1161 9.19014 34.6106C9.10115 34.8041 8.98215 34.9642 8.83316 35.0908C8.68351 35.2134 8.51008 35.2914 8.31288 35.3247C8.10778 35.3594 7.91605 35.3411 7.73768 35.2698C7.55865 35.1946 7.40614 35.0723 7.28015 34.9029C7.15745 34.7289 7.07476 34.5157 7.03211 34.2633C6.98812 34.003 7.00107 33.7675 7.07096 33.557C7.14412 33.3418 7.26275 33.1676 7.42685 33.0344C7.59028 32.8972 7.7844 32.8096 8.00922 32.7716ZM8.32405 35.0308C8.50942 34.9994 8.66674 34.9221 8.79601 34.7989C8.92855 34.671 9.0416 34.4998 9.13516 34.2852C9.05979 33.8152 8.93639 33.4811 8.76497 33.2829C8.59288 33.0807 8.3609 33.0043 8.06904 33.0536C7.80478 33.0983 7.61074 33.2223 7.48692 33.4258C7.36637 33.6247 7.33342 33.8858 7.38808 34.2092C7.4394 34.5129 7.54808 34.7359 7.71411 34.8783C7.88409 35.0199 8.0874 35.0708 8.32405 35.0308ZM13.67 32.174L12.0727 32.444L12.2996 33.7869C12.4959 33.628 12.7104 33.5289 12.9431 33.4896C13.2823 33.4322 13.5691 33.4974 13.8036 33.6849C14.0415 33.8678 14.1923 34.1486 14.2563 34.5272C14.2997 34.7836 14.2854 35.0233 14.2136 35.2464C14.145 35.4649 14.0238 35.6477 13.8498 35.7947C13.6792 35.9371 13.4676 36.0297 13.2152 36.0723C12.7774 36.1463 12.38 36.0512 12.023 35.787L12.201 35.5439C12.3499 35.6567 12.5006 35.7326 12.6533 35.7718C12.8059 35.8109 12.9769 35.8144 13.1662 35.7824C13.4463 35.7351 13.6515 35.6051 13.7819 35.3924C13.9116 35.1758 13.9491 34.9057 13.8944 34.5823C13.8411 34.2668 13.7265 34.0448 13.5507 33.9163C13.3781 33.7832 13.1656 33.738 12.9131 33.7806C12.7869 33.8019 12.6772 33.8367 12.5839 33.8849C12.4939 33.9285 12.3954 33.9939 12.2884 34.0809L12.0163 34.1269L11.6934 32.216L13.6753 31.8811L13.67 32.174ZM15.5199 31.5024C15.9183 31.4351 16.2397 31.5248 16.4842 31.7715C16.732 32.0136 16.8983 32.3851 16.9829 32.886C17.0689 33.3948 17.0662 33.8232 16.975 34.1713C16.8837 34.5194 16.7124 34.814 16.4611 35.0553C16.2137 35.2958 15.8713 35.5261 15.4338 35.7461L15.3001 35.4949C15.8164 35.2372 16.1922 34.9405 16.4275 34.6046C16.6668 34.268 16.7579 33.8469 16.7008 33.3413C16.6118 33.5349 16.4929 33.6949 16.3439 33.8215C16.1942 33.9442 16.0208 34.0222 15.8236 34.0555C15.6185 34.0902 15.4268 34.0719 15.2484 34.0006C15.0693 33.9254 14.9168 33.8031 14.7909 33.6337C14.6681 33.4597 14.5855 33.2465 14.5428 32.9941C14.4988 32.7338 14.5118 32.4983 14.5817 32.2877C14.6548 32.0725 14.7735 31.8983 14.9375 31.7651C15.101 31.628 15.2951 31.5404 15.5199 31.5024ZM15.8347 33.7615C16.0201 33.7302 16.1774 33.6529 16.3067 33.5297C16.4393 33.4018 16.5523 33.2305 16.6459 33.016C16.5705 32.5459 16.4471 32.2118 16.2757 32.0136C16.1036 31.8115 15.8716 31.7351 15.5797 31.7844C15.3155 31.829 15.1214 31.9531 14.9976 32.1566C14.8771 32.3555 14.8441 32.6166 14.8988 32.94C14.9501 33.2437 15.0588 33.4667 15.2248 33.609C15.3948 33.7507 15.5981 33.8015 15.8347 33.7615ZM19.391 32.8198C19.7154 32.8907 19.9606 32.9974 20.1266 33.1397C20.2959 33.2774 20.4022 33.4745 20.4456 33.7308C20.4822 33.9477 20.4593 34.1484 20.3769 34.3327C20.2977 34.5124 20.1672 34.6643 19.9853 34.7883C19.8074 34.9117 19.5922 34.9947 19.3398 35.0373C19.0874 35.08 18.8569 35.0723 18.6483 35.0142C18.4436 34.9555 18.2744 34.8543 18.1406 34.7106C18.0101 34.5623 17.9268 34.3816 17.8908 34.1686C17.8055 33.6638 18.0258 33.2513 18.5518 32.9312C18.3011 32.864 18.1089 32.7707 17.9752 32.6514C17.8447 32.5274 17.7611 32.3569 17.7244 32.14C17.6905 31.9388 17.7121 31.7547 17.7893 31.5875C17.8665 31.4203 17.9836 31.2849 18.1405 31.1813C18.2968 31.0737 18.4715 31.0036 18.6648 30.971C18.8581 30.9383 19.0458 30.9451 19.2281 30.9914C19.4103 31.0377 19.5651 31.1251 19.6923 31.2537C19.8234 31.3816 19.9067 31.5501 19.942 31.7592C19.9766 31.9643 19.9494 32.1514 19.8604 32.3206C19.7707 32.4859 19.6142 32.6523 19.391 32.8198ZM18.0686 32.0879C18.1006 32.2772 18.1791 32.4181 18.3043 32.5106C18.4334 32.6023 18.6404 32.6749 18.9252 32.7281L19.1196 32.7622C19.3205 32.6066 19.4576 32.4576 19.5309 32.3154C19.6082 32.1726 19.6315 32.0104 19.6009 31.829C19.5629 31.6042 19.4622 31.4407 19.2989 31.3384C19.1395 31.2356 18.9435 31.2038 18.7108 31.2431C18.486 31.2811 18.3132 31.3752 18.1926 31.5254C18.0719 31.6756 18.0306 31.8631 18.0686 32.0879ZM19.2967 34.7464C19.5768 34.6991 19.7879 34.5924 19.9303 34.4264C20.0759 34.2558 20.1273 34.0442 20.0847 33.7918C20.058 33.634 20.0064 33.5089 19.9299 33.4163C19.8528 33.3198 19.7467 33.2445 19.6118 33.1902C19.4762 33.132 19.291 33.0801 19.0561 33.0346L18.842 32.9917C18.5951 33.1389 18.4241 33.3037 18.3292 33.486C18.2375 33.6638 18.2117 33.871 18.2517 34.1077C18.2943 34.3601 18.4102 34.5413 18.5991 34.6514C18.7881 34.7614 19.0206 34.7931 19.2967 34.7464ZM23.2402 30.1978C23.5715 30.1418 23.8501 30.1941 24.0761 30.3547C24.3059 30.5146 24.4465 30.7464 24.4978 31.0501C24.5412 31.3065 24.5286 31.5561 24.4601 31.7989C24.3916 32.0417 24.2656 32.3165 24.0822 32.6234C23.9027 32.9296 23.6055 33.3916 23.1906 34.0093L25.0542 33.6944L25.0579 34.0041L22.8393 34.379L22.7903 34.0891C23.2334 33.422 23.5479 32.9307 23.7339 32.6153C23.9233 32.2953 24.0483 32.0267 24.1089 31.8095C24.1729 31.5878 24.1852 31.3606 24.1459 31.1279C24.1065 30.8952 24.0062 30.7215 23.8448 30.6067C23.6874 30.4914 23.4963 30.4527 23.2715 30.4907C23.09 30.5213 22.9347 30.5861 22.8053 30.685C22.68 30.7833 22.5668 30.918 22.4659 31.0892L22.1993 30.9518C22.3244 30.7318 22.47 30.5612 22.6361 30.4398C22.8062 30.3178 23.0075 30.2371 23.2402 30.1978ZM26.7342 31.086C27.0379 31.0347 27.3063 31.0988 27.5395 31.2785C27.772 31.4542 27.9223 31.7432 27.9903 32.1455C28.0376 32.4255 28.028 32.6807 27.9614 32.911C27.8981 33.1367 27.7874 33.3218 27.6293 33.4661C27.4744 33.6059 27.2865 33.6944 27.0657 33.7318C26.6318 33.8051 26.2863 33.6931 26.0292 33.3958C25.7753 33.0938 25.6011 32.6628 25.5064 32.1028C25.4298 31.6492 25.4203 31.2451 25.478 30.8906C25.5358 30.536 25.6561 30.252 25.8391 30.0385C26.0214 29.8211 26.2585 29.6877 26.5504 29.6384C26.8146 29.5937 27.0722 29.6293 27.323 29.7451L27.2151 30.0068C27.0051 29.9165 26.7975 29.8887 26.5925 29.9234C26.273 29.9773 26.0456 30.1801 25.9103 30.5315C25.7749 30.883 25.745 31.3181 25.8205 31.8367C26.0194 31.4056 26.324 31.1553 26.7342 31.086ZM27.0177 33.4478C27.278 33.4038 27.4605 33.2715 27.5652 33.051C27.6732 32.8259 27.6992 32.5476 27.6432 32.2163C27.5879 31.889 27.4779 31.6581 27.3132 31.5236C27.1524 31.3885 26.9596 31.34 26.7348 31.378C26.5376 31.4113 26.3662 31.5011 26.2205 31.6474C26.0782 31.7891 25.9648 31.9706 25.8805 32.1917C25.9696 32.6472 26.1055 32.9833 26.2882 33.1999C26.4708 33.4165 26.714 33.4991 27.0177 33.4478ZM29.3211 29.2371L29.9859 33.1713L29.6428 33.2293L29.0419 29.6737L28.1736 30.4411L27.9709 30.2137L29.0253 29.2871L29.3211 29.2371ZM34.8112 28.1876L33.944 30.2936L35.5967 32.2232L35.1884 32.2922L33.6693 30.5043L33.0304 30.6123L33.3663 32.6001L33.0113 32.6601L32.3265 28.6075L32.6814 28.5475L32.9804 30.3165L33.6252 30.2075L34.4385 28.2506L34.8112 28.1876ZM39.8181 31.5098L39.4749 31.5678L38.9636 29.6583C38.7614 28.9176 38.6108 28.3386 38.5119 27.9213L38.0392 31.3175L37.702 31.3745L36.104 28.3282C36.1489 28.7141 36.1952 29.2276 36.2426 29.8686L36.2639 30.1023L36.4163 32.0847L36.0791 32.1416L35.7788 28.0241L36.2698 27.9411L37.8085 30.9245L38.2458 27.6072L38.7428 27.5232L39.8181 31.5098ZM42.9385 26.9359L43.6034 30.8701L43.2602 30.9281L42.6594 27.3725L41.7911 28.1399L41.5884 27.9125L42.6427 26.9859L42.9385 26.9359ZM44.8451 30.1491C44.9279 30.1351 44.9997 30.1514 45.0603 30.198C45.1241 30.2399 45.1628 30.3003 45.1761 30.3792C45.1907 30.466 45.1795 30.5794 45.1423 30.7196L44.944 31.5624L44.6955 31.6044L44.7852 30.6947C44.7378 30.6784 44.6986 30.6506 44.6676 30.6112C44.6366 30.5718 44.6168 30.5265 44.6081 30.4752C44.5948 30.3963 44.6114 30.3266 44.658 30.266C44.7039 30.2014 44.7662 30.1625 44.8451 30.1491ZM46.4321 26.2786C46.8383 26.2099 47.1753 26.3315 47.443 26.6432C47.71 26.9511 47.8999 27.4382 48.0125 28.1048C48.1245 28.7674 48.1033 29.2902 47.949 29.6733C47.7979 30.0518 47.5212 30.275 47.1189 30.343C46.7127 30.4116 46.3761 30.292 46.109 29.9842C45.8414 29.6725 45.6512 29.1833 45.5386 28.5168C45.4259 27.8502 45.4451 27.3277 45.5962 26.9493C45.7472 26.5708 46.0259 26.3472 46.4321 26.2786ZM46.4801 26.5626C45.8924 26.6619 45.6969 27.2933 45.8935 28.4568C46.0908 29.6242 46.4833 30.1583 47.071 30.059C47.3589 30.0103 47.5518 29.8317 47.6497 29.5231C47.7516 29.2138 47.7523 28.7613 47.6516 28.1658C47.551 27.5702 47.4017 27.1431 47.2039 26.8845C47.0093 26.6212 46.768 26.5139 46.4801 26.5626ZM49.6848 25.7289C50.0911 25.6603 50.428 25.7818 50.6957 26.0936C50.9627 26.4014 51.1526 26.8886 51.2652 27.5551C51.3772 28.2177 51.356 28.7406 51.2017 29.1236C51.0506 29.5021 50.7739 29.7253 50.3717 29.7933C49.9654 29.8619 49.6288 29.7424 49.3618 29.4346C49.0941 29.1228 48.9039 28.6336 48.7913 27.9671C48.6786 27.3005 48.6978 26.778 48.8489 26.3996C48.9999 26.0211 49.2786 25.7976 49.6848 25.7289ZM49.7328 26.0129C49.1451 26.1122 48.9496 26.7436 49.1462 27.9071C49.3435 29.0746 49.736 29.6086 50.3237 29.5093C50.6116 29.4607 50.8045 29.282 50.9025 28.9734C51.0043 28.6641 51.005 28.2117 50.9043 27.6161C50.8037 27.0205 50.6544 26.5934 50.4566 26.3348C50.262 26.0715 50.0207 25.9642 49.7328 26.0129ZM52.9375 25.1792C53.3438 25.1106 53.6807 25.2321 53.9484 25.5439C54.2154 25.8517 54.4053 26.3389 54.5179 27.0054C54.6299 27.668 54.6087 28.1909 54.4544 28.574C54.3033 28.9524 54.0267 29.1756 53.6244 29.2436C53.2181 29.3123 52.8815 29.1927 52.6145 28.8849C52.3468 28.5731 52.1566 28.084 52.044 27.4174C51.9313 26.7509 51.9505 26.2284 52.1016 25.8499C52.2526 25.4714 52.5313 25.2479 52.9375 25.1792ZM52.9855 25.4632C52.3978 25.5625 52.2023 26.1939 52.3989 27.3574C52.5962 28.5249 52.9887 29.059 53.5764 28.9596C53.8643 28.911 54.0572 28.7323 54.1552 28.4237C54.2571 28.1144 54.2577 27.662 54.157 27.0664C54.0564 26.4709 53.9071 26.0438 53.7093 25.7851C53.5147 25.5219 53.2734 25.4146 52.9855 25.4632ZM56.1902 24.6296C56.5965 24.5609 56.9334 24.6825 57.2011 24.9942C57.4682 25.302 57.658 25.7892 57.7706 26.4558C57.8826 27.1184 57.8614 27.6412 57.7071 28.0243C57.556 28.4027 57.2794 28.626 56.8771 28.6939C56.4708 28.7626 56.1342 28.643 55.8672 28.3352C55.5995 28.0235 55.4093 27.5343 55.2967 26.8678C55.184 26.2012 55.2033 25.6787 55.3543 25.3002C55.5054 24.9218 55.784 24.6982 56.1902 24.6296ZM56.2382 24.9135C55.6506 25.0129 55.455 25.6443 55.6517 26.8078C55.8489 27.9752 56.2414 28.5093 56.8291 28.41C57.117 28.3613 57.3099 28.1827 57.4079 27.874C57.5098 27.5647 57.5104 27.1123 57.4097 26.5168C57.3091 25.9212 57.1598 25.4941 56.962 25.2354C56.7674 24.9722 56.5261 24.8649 56.2382 24.9135ZM59.4429 24.0799C59.8492 24.0112 60.1862 24.1328 60.4538 24.4446C60.7209 24.7524 60.9107 25.2395 61.0233 25.9061C61.1353 26.5687 61.1141 27.0915 60.9598 27.4746C60.8088 27.8531 60.5321 28.0763 60.1298 28.1443C59.7235 28.2129 59.3869 28.0933 59.1199 27.7855C58.8522 27.4738 58.662 26.9846 58.5494 26.3181C58.4368 25.6515 58.456 25.129 58.607 24.7506C58.7581 24.3721 59.0367 24.1485 59.4429 24.0799ZM59.4909 24.3639C58.9033 24.4632 58.7077 25.0946 58.9044 26.2581C59.1017 27.4255 59.4941 27.9596 60.0818 27.8603C60.3697 27.8116 60.5626 27.633 60.6606 27.3244C60.7625 27.0151 60.7631 26.5626 60.6625 25.9671C60.5618 25.3715 60.4126 24.9444 60.2147 24.6858C60.0201 24.4225 59.7789 24.3152 59.4909 24.3639ZM62.319 23.5939C62.6503 23.5379 62.9289 23.5902 63.1548 23.7508C63.3847 23.9107 63.5253 24.1426 63.5766 24.4462C63.6199 24.7026 63.6073 24.9522 63.5388 25.195C63.4703 25.4378 63.3443 25.7126 63.1609 26.0195C62.9814 26.3257 62.6842 26.7877 62.2694 27.4054L64.133 27.0905L64.1366 27.4002L61.9181 27.7751L61.8691 27.4852C62.3121 26.8181 62.6267 26.3268 62.8127 26.0114C63.002 25.6914 63.127 25.4228 63.1877 25.2057C63.2516 24.9839 63.2639 24.7567 63.2246 24.524C63.1853 24.2913 63.0849 24.1176 62.9236 24.0029C62.7661 23.8875 62.575 23.8488 62.3502 23.8868C62.1688 23.9174 62.0134 23.9822 61.8841 24.0812C61.7587 24.1794 61.6456 24.3142 61.5447 24.4854L61.2781 24.3479C61.4032 24.1279 61.5488 23.9573 61.7149 23.8359C61.8849 23.7139 62.0863 23.6332 62.319 23.5939ZM65.8129 24.4821C66.1166 24.4308 66.3851 24.495 66.6182 24.6746C66.8508 24.8503 67.001 25.1393 67.069 25.5416C67.1163 25.8217 67.1067 26.0768 67.0402 26.3071C66.9769 26.5328 66.8662 26.7179 66.708 26.8622C66.5531 27.002 66.3653 27.0905 66.1444 27.1279C65.7105 27.2012 65.3651 27.0892 65.1079 26.7919C64.8541 26.49 64.6798 26.059 64.5852 25.4989C64.5085 25.0453 64.4991 24.6413 64.5568 24.2867C64.6145 23.9321 64.7349 23.6481 64.9179 23.4346C65.1002 23.2172 65.3373 23.0838 65.6291 23.0345C65.8934 22.9898 66.1509 23.0254 66.4017 23.1413L66.2938 23.4029C66.0838 23.3126 65.8763 23.2848 65.6712 23.3195C65.3517 23.3735 65.1243 23.5762 64.989 23.9276C64.8537 24.2791 64.8238 24.7142 64.8992 25.2329C65.0982 24.8017 65.4027 24.5514 65.8129 24.4821ZM66.0964 26.8439C66.3567 26.7999 66.5392 26.6676 66.644 26.4471C66.7519 26.222 66.7779 25.9437 66.722 25.6124C66.6666 25.2851 66.5566 25.0542 66.3919 24.9198C66.2312 24.7847 66.0384 24.7361 65.8136 24.7741C65.6164 24.8074 65.4449 24.8972 65.2993 25.0435C65.1569 25.1853 65.0435 25.3667 64.9592 25.5878C65.0484 26.0433 65.1843 26.3794 65.3669 26.596C65.5495 26.8126 65.7927 26.8952 66.0964 26.8439ZM68.3998 22.6332L69.0647 26.5674L68.7215 26.6254L68.1207 23.0698L67.2524 23.8372L67.0497 23.6098L68.104 22.6832L68.3998 22.6332ZM74.3027 25.6823L73.7608 24.6359L72.0569 24.9239L71.8889 26.0902L71.528 26.1512L72.198 21.8697L72.6417 21.7947L74.6754 25.6193L74.3027 25.6823ZM72.1065 24.6052L73.6151 24.3502L72.4659 22.1226L72.1065 24.6052ZM75.3155 25C75.3983 24.986 75.47 25.0023 75.5306 25.0488C75.5945 25.0908 75.6331 25.1512 75.6464 25.23C75.6604 25.3129 75.6445 25.3866 75.5986 25.4511C75.556 25.511 75.4933 25.548 75.4104 25.562C75.3315 25.5753 75.2598 25.5591 75.1953 25.5132C75.1307 25.4673 75.0918 25.4049 75.0785 25.326C75.0651 25.2471 75.0817 25.1774 75.1283 25.1168C75.1742 25.0522 75.2366 25.0133 75.3155 25ZM78.0456 20.8815L78.0541 21.1843L76.3917 21.4652L76.6466 22.9738L78.0843 22.7309L78.1342 23.0267L76.6966 23.2696L76.9766 24.9262L78.7218 24.6312L78.7718 24.927L76.6716 25.282L75.9867 21.2294L78.0456 20.8815ZM79.5677 24.2814C79.6505 24.2674 79.7222 24.2837 79.7828 24.3302C79.8467 24.3722 79.8853 24.4326 79.8986 24.5115C79.9126 24.5943 79.8967 24.668 79.8508 24.7325C79.8082 24.7925 79.7455 24.8294 79.6626 24.8434C79.5838 24.8568 79.512 24.8405 79.4475 24.7946C79.3829 24.7487 79.344 24.6863 79.3307 24.6074C79.3173 24.5286 79.334 24.4588 79.3805 24.3982C79.4264 24.3337 79.4888 24.2947 79.5677 24.2814ZM82.8706 20.1209C83.2768 20.0522 83.6138 20.1738 83.8814 20.4855C84.1485 20.7934 84.3383 21.2805 84.4509 21.9471C84.5629 22.6097 84.5417 23.1325 84.3874 23.5156C84.2364 23.8941 83.9597 24.1173 83.5574 24.1853C83.1511 24.2539 82.8145 24.1343 82.5475 23.8265C82.2798 23.5148 82.0896 23.0256 81.977 22.3591C81.8644 21.6925 81.8836 21.17 82.0346 20.7916C82.1857 20.4131 82.4643 20.1895 82.8706 20.1209ZM82.9185 20.4049C82.3309 20.5042 82.1354 21.1356 82.332 22.2991C82.5293 23.4665 82.9217 24.0006 83.5094 23.9013C83.7973 23.8526 83.9902 23.674 84.0882 23.3654C84.1901 23.0561 84.1907 22.6036 84.0901 22.0081C83.9894 21.4125 83.8402 20.9854 83.6423 20.7268C83.4477 20.4635 83.2065 20.3562 82.9185 20.4049ZM85.6975 23.2455C85.7804 23.2315 85.8521 23.2478 85.9127 23.2944C85.9766 23.3363 86.0152 23.3967 86.0285 23.4756C86.0432 23.5624 86.0319 23.6758 85.9948 23.816L85.7964 24.6588L85.5479 24.7008L85.6376 23.7911C85.5902 23.7748 85.5511 23.7469 85.5201 23.7076C85.4891 23.6682 85.4692 23.6228 85.4606 23.5716C85.4472 23.4927 85.4638 23.4229 85.5104 23.3623C85.5563 23.2978 85.6187 23.2588 85.6975 23.2455ZM87.2845 19.375C87.6908 19.3063 88.0277 19.4279 88.2954 19.7396C88.5625 20.0474 88.7523 20.5346 88.8649 21.2012C88.9769 21.8638 88.9557 22.3866 88.8014 22.7697C88.6503 23.1481 88.3737 23.3714 87.9714 23.4393C87.5651 23.508 87.2285 23.3884 86.9615 23.0806C86.6938 22.7689 86.5036 22.2797 86.391 21.6132C86.2783 20.9466 86.2975 20.4241 86.4486 20.0456C86.5996 19.6672 86.8783 19.4436 87.2845 19.375ZM87.3325 19.6589C86.7449 19.7583 86.5493 20.3897 86.7459 21.5532C86.9432 22.7206 87.3357 23.2547 87.9234 23.1554C88.2113 23.1067 88.4042 22.9281 88.5022 22.6194C88.6041 22.3101 88.6047 21.8577 88.504 21.2622C88.4034 20.6666 88.2541 20.2395 88.0563 19.9809C87.8617 19.7176 87.6204 19.6103 87.3325 19.6589ZM90.4813 18.9017L91.1461 22.8359L90.803 22.8939L90.2021 19.3383L89.3339 20.1057L89.1311 19.8783L90.1855 18.9517L90.4813 18.9017ZM93.1807 19.8573C93.4844 19.8059 93.7529 19.8701 93.9861 20.0498C94.2186 20.2255 94.3689 20.5145 94.4368 20.9168C94.4842 21.1968 94.4746 21.452 94.408 21.6823C94.3447 21.908 94.234 22.093 94.0759 22.2374C93.921 22.3771 93.7331 22.4657 93.5122 22.503C93.0784 22.5763 92.7329 22.4643 92.4758 22.167C92.2219 21.8651 92.0476 21.4341 91.953 20.874C91.8764 20.4205 91.8669 20.0164 91.9246 19.6618C91.9823 19.3072 92.1027 19.0232 92.2857 18.8097C92.468 18.5923 92.7051 18.459 92.997 18.4096C93.2612 18.365 93.5187 18.4006 93.7696 18.5164L93.6616 18.778C93.4517 18.6878 93.2441 18.66 93.039 18.6946C92.7196 18.7486 92.4922 18.9513 92.3568 19.3028C92.2215 19.6542 92.1916 20.0893 92.2671 20.608C92.466 20.1768 92.7706 19.9266 93.1807 19.8573ZM93.4642 22.219C93.7246 22.175 93.9071 22.0428 94.0118 21.8222C94.1198 21.5971 94.1458 21.3189 94.0898 20.9876C94.0345 20.6602 93.9245 20.4293 93.7598 20.2949C93.599 20.1598 93.4062 20.1112 93.1814 20.1492C92.9842 20.1825 92.8128 20.2724 92.6671 20.4187C92.5247 20.5604 92.4114 20.7418 92.3271 20.963C92.4162 21.4185 92.5521 21.7545 92.7347 21.9711C92.9174 22.1877 93.1605 22.2704 93.4642 22.219ZM96.5223 17.8808L96.5673 18.1471L95.6451 22.1243L95.3076 22.0718L96.2163 18.2307L94.3764 18.5416L94.3274 18.2517L96.5223 17.8808ZM98.3271 17.5758L98.9919 21.5101L98.6488 21.568L98.0479 18.0125L97.1796 18.7799L96.9769 18.5525L98.0313 17.6258L98.3271 17.5758ZM100.702 17.1746L101.366 21.1088L101.023 21.1668L100.422 17.6112L99.5542 18.3786L99.3515 18.1512L100.406 17.2246L100.702 17.1746ZM102.738 16.7635C103.069 16.7075 103.348 16.7598 103.574 16.9204C103.804 17.0803 103.944 17.3122 103.996 17.6159C104.039 17.8722 104.026 18.1218 103.958 18.3646C103.889 18.6074 103.763 18.8823 103.58 19.1891C103.401 19.4953 103.103 19.9573 102.688 20.575L104.552 20.2601L104.556 20.5698L102.337 20.9447L102.288 20.6549C102.731 19.9877 103.046 19.4964 103.232 19.181C103.421 18.861 103.546 18.5924 103.607 18.3753C103.671 18.1535 103.683 17.9263 103.644 17.6936C103.604 17.4609 103.504 17.2872 103.343 17.1725C103.185 17.0571 102.994 17.0184 102.769 17.0564C102.588 17.087 102.433 17.1518 102.303 17.2508C102.178 17.349 102.065 17.4838 101.964 17.655L101.697 17.5175C101.822 17.2976 101.968 17.1269 102.134 17.0055C102.304 16.8835 102.505 16.8028 102.738 16.7635ZM105.516 16.294C105.737 16.2566 105.936 16.2677 106.112 16.3271C106.293 16.3859 106.439 16.4829 106.551 16.6181C106.662 16.7494 106.734 16.9077 106.765 17.0931C106.808 17.3495 106.771 17.5708 106.652 17.7572C106.537 17.9389 106.368 18.0689 106.146 18.147C106.404 18.1155 106.631 18.1725 106.826 18.3181C107.024 18.459 107.149 18.6793 107.199 18.9791C107.238 19.2078 107.221 19.4196 107.149 19.6144C107.076 19.8093 106.952 19.9743 106.776 20.1095C106.603 20.2401 106.393 20.3264 106.144 20.3683C105.687 20.4457 105.281 20.3397 104.928 20.0505L105.114 19.8183C105.273 19.9416 105.429 20.0247 105.582 20.0678C105.739 20.1062 105.906 20.1104 106.083 20.0805C106.367 20.0325 106.576 19.914 106.711 19.7249C106.845 19.5359 106.89 19.3092 106.845 19.045C106.752 18.4928 106.41 18.2667 105.818 18.3667L105.558 18.4107L105.558 18.1246L105.747 18.0926C105.972 18.0546 106.152 17.9553 106.287 17.7945C106.422 17.6298 106.468 17.4212 106.425 17.1688C106.388 16.9519 106.29 16.792 106.131 16.6891C105.971 16.5823 105.776 16.5482 105.548 16.5869C105.382 16.6149 105.235 16.6701 105.107 16.7526C104.978 16.8311 104.854 16.9475 104.734 17.1016L104.515 16.9196C104.647 16.7431 104.794 16.6047 104.956 16.5044C105.117 16.4001 105.304 16.33 105.516 16.294Z" fill="#363636"/>
</svg>
